<svg width="242" height="242" viewBox="0 0 242 242" fill="none" xmlns="http://www.w3.org/2000/svg">
<path d="M48.1096 144.813C41.4788 151.299 40.3656 161.317 41.7692 170.126C41.8176 170.32 42.108 170.271 42.108 170.078C42.108 168.093 42.0596 166.109 42.0596 164.125C42.108 164.028 42.108 163.931 42.1564 163.883C43.8988 162.624 45.496 161.221 46.464 159.285C47.5772 157.107 48.0128 154.638 48.8356 152.363C48.9324 152.121 48.6904 152.218 48.5452 152.315C44.528 155.267 43.2212 158.462 42.0596 162.769C42.0596 160.543 42.3016 158.317 42.7372 156.139C43.6084 152.073 45.3024 148.056 48.2548 145.055C48.3032 145.007 48.3032 144.91 48.2548 144.861C48.2064 144.813 48.158 144.765 48.1096 144.813Z" fill="#A6A6A6"/>
<path d="M49.368 145.588C50.4812 145.636 51.2072 147.427 52.1268 147.959C52.514 148.25 53.0464 148.201 53.3368 147.814C53.3368 147.814 53.3852 147.766 53.3852 147.717C54.2564 146.507 53.0464 144.958 51.9332 144.136C52.756 144.474 53.4336 145.055 54.3048 145.2C54.7404 145.346 55.2244 145.104 55.3212 144.668C55.3212 144.62 55.3212 144.62 55.3696 144.571C55.7568 142.877 53.6756 142.151 52.2236 142.103C52.9012 141.619 54.934 140.312 53.8692 139.634C52.8044 138.957 50.4328 140.844 49.6584 141.474C48.5452 142.393 47.19 143.748 47.1416 145.2C47.0448 146.943 48.4968 145.926 49.368 145.588Z" fill="#DBDBDB"/>
<path d="M49.0292 145.83C50.4812 145.152 53.2884 146.12 53.5304 145.588C54.0144 144.474 51.788 143.7 50.578 143.555C51.6912 143.264 53.8208 142.78 53.7724 141.716C53.6756 140.409 50.4812 141.522 48.884 142.78C46.8512 144.329 46.8512 145.83 47.19 146.168C47.6256 146.507 48.7872 145.975 49.0292 145.83Z" fill="#EBEBEB"/>
<path d="M33.0088 144.184C39.8816 150.428 41.382 160.398 40.3172 169.207C40.3172 169.4 39.9784 169.352 39.9784 169.158C39.8816 167.174 39.8816 165.19 39.7848 163.205L39.688 162.963C37.8972 161.753 36.2516 160.398 35.2352 158.51C34.0252 156.381 33.4928 153.961 32.5732 151.686C32.4764 151.492 32.7184 151.541 32.8636 151.638C37.026 154.445 38.4296 157.591 39.7364 161.802C39.6396 159.575 39.3008 157.349 38.7684 155.171C37.752 151.154 35.8644 147.185 32.8636 144.329C32.7668 144.232 32.912 144.039 33.0088 144.184Z" fill="#A6A6A6"/>
<path d="M31.7988 144.958C30.6856 145.055 30.008 146.894 29.1368 147.427C28.798 147.717 28.2656 147.717 27.9268 147.33C27.9268 147.281 27.8784 147.282 27.8784 147.233C26.9588 146.023 28.1204 144.474 29.1852 143.603C28.3624 143.99 27.7332 144.571 26.862 144.765C26.4264 144.91 25.9424 144.716 25.7972 144.281C25.7972 144.232 25.7488 144.184 25.7488 144.136C25.3132 142.49 27.346 141.667 28.798 141.57C28.072 141.135 26.0392 139.876 27.0556 139.199C28.072 138.521 30.5404 140.312 31.3148 140.893C32.4764 141.764 33.88 143.071 33.9768 144.523C34.2188 146.265 32.7184 145.297 31.7988 144.958Z" fill="#DBDBDB"/>
<path d="M32.1376 145.248C30.6856 144.668 27.8784 145.684 27.6364 145.152C27.104 144.038 29.3304 143.216 30.5404 142.974C29.4272 142.732 27.2492 142.296 27.2976 141.231C27.346 139.924 30.5404 140.941 32.2344 142.102C34.3156 143.603 34.364 145.103 34.0252 145.394C33.5896 145.878 32.3796 145.345 32.1376 145.248Z" fill="#EBEBEB"/>
<path d="M40.0268 160.592C40.5108 163.931 41.1884 167.222 42.1564 170.417C42.2048 170.562 42.3016 170.61 42.4468 170.61C42.592 170.562 42.6404 170.465 42.6404 170.32C42.2048 167.271 41.382 164.318 40.898 161.269C40.414 158.22 40.2204 155.074 40.3656 151.976C40.656 146.846 42.0596 141.425 45.3508 137.408C45.4476 137.311 45.254 137.166 45.2056 137.263C38.5264 145.055 39.5912 154.59 39.5912 155.461C38.6232 152.218 37.6552 148.54 34.0736 145.249C33.9284 145.104 33.7832 145.2 33.8316 145.442C34.5576 151.492 36.2032 154.59 39.688 157.784C39.7848 158.752 39.8816 159.672 40.0268 160.592Z" fill="#A6A6A6"/>
<path d="M45.496 138.376C46.706 137.844 48.3516 139.392 49.5616 139.489C50.094 139.634 50.6264 139.296 50.7232 138.812C50.7232 138.763 50.7232 138.715 50.7716 138.666C51.062 136.972 49.0292 136.004 47.432 135.666C48.4484 135.617 49.4164 135.859 50.4328 135.617C50.9652 135.52 51.304 135.036 51.2556 134.504C51.2556 134.456 51.2556 134.456 51.2556 134.407C50.82 132.471 48.2548 132.762 46.7544 133.439C47.2384 132.568 48.642 130.196 47.2384 130.051C45.8348 129.906 44.286 133.052 43.802 134.068C43.076 135.569 42.3984 137.698 43.0276 139.199C43.7536 140.99 44.7216 139.199 45.496 138.376Z" fill="#DBDBDB"/>
<path d="M45.3024 138.811C46.464 137.408 49.852 136.972 49.852 136.295C49.8036 134.891 47.0932 135.23 45.738 135.665C46.7544 134.794 48.6904 133.245 48.1096 132.132C47.3836 130.825 44.6248 133.584 43.56 135.665C42.2532 138.327 43.0276 139.876 43.5116 140.021C44.1892 140.215 45.1088 139.053 45.3024 138.811Z" fill="#EBEBEB"/>
<path d="M35.6708 162.431L32.7184 184.937H50.6264C50.2392 182.952 46.8996 162.431 46.8996 162.431H35.6708Z" fill="#DBDBDB"/>
<path d="M223.269 91.186H210.443V96.6068H223.269V91.186Z" fill="#EBEBEB"/>
<path d="M230.432 84.3613H217.606V89.7821H230.432V84.3613Z" fill="#EBEBEB"/>
<path d="M216.106 84.3613H203.28V89.7821H216.106V84.3613Z" fill="#EBEBEB"/>
<path d="M31.5568 161.076H18.7308V166.496H31.5568V161.076Z" fill="#EBEBEB"/>
<path d="M24.442 154.203H11.616V159.623H24.442V154.203Z" fill="#EBEBEB"/>
<path d="M230.432 161.076H217.606V166.496H230.432V161.076Z" fill="#EBEBEB"/>
<path d="M67.2276 46.1255H54.4016V51.5463H67.2276V46.1255Z" fill="#EBEBEB"/>
<path d="M60.1128 52.9497H47.2868V58.3705H60.1128V52.9497Z" fill="#EBEBEB"/>
<path d="M28.072 184.888L51.304 184.791L74.536 184.743L121 184.646L167.464 184.743L190.696 184.791L213.928 184.888L190.696 185.033L167.464 185.082L121 185.13L74.536 185.082L51.304 185.033L28.072 184.888Z" fill="#263238"/>
<path d="M83.9256 116.112C83.7804 115.967 83.6836 115.821 83.5384 115.725C83.3932 115.579 83.2964 115.434 83.1512 115.337C83.006 115.192 82.9092 115.047 82.764 114.95C82.6188 114.805 82.522 114.66 82.3768 114.563C82.2316 114.418 82.1348 114.273 81.9896 114.176C81.8444 114.031 81.7476 113.885 81.6024 113.789C81.4572 113.643 81.3604 113.498 81.2152 113.401C81.07 113.256 80.9732 113.111 80.828 113.014C80.6828 112.869 80.586 112.724 80.4408 112.627C80.0536 112.191 79.5696 111.804 79.0372 111.465V71.4869C79.0372 71.2933 78.9404 71.1482 78.9404 70.9546C78.9888 70.761 78.9404 70.5189 78.8436 70.3253C78.8436 70.2285 78.7468 69.9865 78.7468 69.8897C78.6984 69.6961 78.6016 69.4542 78.5532 69.2606C78.4564 69.1638 78.3596 69.0185 78.3596 68.8249C78.2144 68.6313 78.1176 68.4378 77.924 68.2926C77.8272 68.1958 77.7304 68.0021 77.5852 67.8569L77.1496 67.4213C77.1496 67.3729 77.0528 67.2761 76.956 67.2277L76.7624 67.0341H76.714C76.714 66.9857 76.6172 66.889 76.5204 66.8406L76.3268 66.6469C76.3268 66.5985 76.23 66.5017 76.1332 66.4533L75.9396 66.2597C75.9396 66.2113 75.8428 66.1145 75.746 66.0661L75.5524 65.8726C75.5524 65.8242 75.4556 65.7273 75.3588 65.6789L75.1652 65.4853V65.4369C75.1652 65.3885 75.0684 65.2917 74.9716 65.2433L74.778 65.0497H74.7296C74.7296 65.0013 74.6328 64.9045 74.536 64.8561L74.3424 64.6626V64.6141C74.3424 64.5657 74.2456 64.469 74.1488 64.4206L73.9552 64.2269H73.9068C73.9068 64.1785 73.81 64.0817 73.7132 64.0333L73.5196 63.8397C73.5196 63.7913 73.4228 63.6945 73.326 63.6461L73.084 63.4041C73.084 63.3073 72.8904 63.2106 72.7452 63.2106C72.7452 63.1622 72.6968 63.1137 72.6484 63.1137C72.4548 63.0169 72.3096 62.9201 72.116 62.7749C71.9224 62.6297 71.7772 62.4845 71.5836 62.3393C71.4868 62.3393 71.2448 62.2426 71.148 62.2426C70.9544 62.1458 70.6156 62.1457 70.5188 62.0489C70.3252 62.0489 70.1316 62.0489 69.9864 61.9521H68.1956C68.0504 62.0489 67.9052 62.0489 67.76 62.0489C67.4212 62.1457 67.2276 62.1458 67.1308 62.2426C66.9372 62.2426 66.8404 62.3393 66.6952 62.5813C66.4532 62.5813 66.2596 62.6781 66.066 62.7749C65.9692 62.8717 65.7272 62.9685 65.6304 63.1137C65.4852 63.2589 65.2916 63.3558 65.098 63.4526C65.0012 63.5978 64.9044 63.7429 64.7592 63.8881C64.6624 63.9849 64.6624 64.0817 64.5656 64.0817L25.168 112.772C23.232 115.095 23.474 118.532 25.7004 120.565C25.8456 120.71 25.9424 120.855 26.0876 120.952C26.2328 121.097 26.3296 121.242 26.4748 121.339C26.62 121.484 26.7168 121.629 26.862 121.726C27.0072 121.871 27.104 122.017 27.2492 122.113C27.3944 122.259 27.4912 122.404 27.6364 122.501C27.7816 122.646 27.8784 122.791 28.0236 122.888C28.1688 123.033 28.2656 123.178 28.4108 123.275C28.556 123.42 28.6528 123.565 28.798 123.662C28.9432 123.807 29.04 123.953 29.1852 124.049C29.4272 124.34 29.7176 124.582 30.008 124.824C31.0244 125.695 32.2828 126.131 33.5896 126.082H62.9684V130.099C62.9684 131.745 63.646 133.342 64.856 134.455C65.0012 134.601 65.098 134.697 65.2432 134.843C65.3884 134.988 65.4852 135.133 65.6304 135.23C65.7756 135.375 65.8724 135.472 66.0176 135.617C66.1628 135.762 66.2596 135.907 66.4048 136.004C66.55 136.149 66.6468 136.295 66.792 136.391C66.9372 136.537 67.034 136.682 67.1792 136.779C67.276 136.924 67.4212 137.021 67.5664 137.166C67.7116 137.311 67.8084 137.456 67.9536 137.553C68.0504 137.698 68.1956 137.795 68.3408 137.94C70.5188 140.312 74.2456 140.457 76.6172 138.279C77.8272 137.166 78.5048 135.617 78.5048 133.971V126.034H79.5696C82.8124 126.082 85.4744 123.517 85.5228 120.274C85.5228 120.226 85.5228 120.226 85.5228 120.177C85.7648 118.774 85.0872 117.225 83.9256 116.112ZM63.162 93.3637V110.497H49.3196L63.162 93.3637Z" fill="#FFC414"/>
<path opacity="0.1" d="M83.9256 116.112C83.7804 115.967 83.6836 115.821 83.5384 115.725C83.3932 115.579 83.2964 115.434 83.1512 115.337C83.006 115.192 82.9092 115.047 82.764 114.95C82.6188 114.805 82.522 114.66 82.3768 114.563C82.2316 114.418 82.1348 114.273 81.9896 114.176C81.8444 114.031 81.7476 113.885 81.6024 113.789C81.4572 113.643 81.3604 113.498 81.2152 113.401C81.07 113.256 80.9732 113.111 80.828 113.014C80.6828 112.869 80.586 112.724 80.4408 112.627C80.0536 112.191 79.5696 111.804 79.0372 111.465V71.4869C79.0372 71.2933 78.9404 71.1482 78.9404 70.9546C78.9888 70.761 78.9404 70.5189 78.8436 70.3253C78.8436 70.2285 78.7468 69.9865 78.7468 69.8897C78.6984 69.6961 78.6016 69.4542 78.5532 69.2606C78.4564 69.1638 78.3596 69.0185 78.3596 68.8249C78.2144 68.6313 78.1176 68.4378 77.924 68.2926C77.8272 68.1958 77.7304 68.0021 77.5852 67.8569L77.1496 67.4213C77.1496 67.3729 77.0528 67.2761 76.956 67.2277L76.7624 67.0341H76.714C76.714 66.9857 76.6172 66.889 76.5204 66.8406L76.3268 66.6469C76.3268 66.5985 76.23 66.5017 76.1332 66.4533L75.9396 66.2597C75.9396 66.2113 75.8428 66.1145 75.746 66.0661L75.5524 65.8726C75.5524 65.8242 75.4556 65.7273 75.3588 65.6789L75.1652 65.4853V65.4369C75.1652 65.3885 75.0684 65.2917 74.9716 65.2433L74.778 65.0497H74.7296C74.7296 65.0013 74.6328 64.9045 74.536 64.8561L74.3424 64.6626V64.6141C74.3424 64.5657 74.2456 64.469 74.1488 64.4206L73.9552 64.2269H73.9068C73.9068 64.1785 73.81 64.0817 73.7132 64.0333L73.5196 63.8397C73.5196 63.7913 73.4228 63.6945 73.326 63.6461L73.084 63.4041C73.084 63.3073 72.8904 63.2106 72.7452 63.2106C72.7452 63.1622 72.6968 63.1137 72.6484 63.1137C72.4548 63.0169 72.3096 62.9201 72.116 62.7749C71.9224 62.6297 71.7772 62.4845 71.5836 62.3393C71.4868 62.3393 71.2448 62.2426 71.148 62.2426C70.9544 62.1458 70.6156 62.1457 70.5188 62.0489C70.3252 62.0489 70.1316 62.0489 69.9864 61.9521H68.1956C68.0504 62.0489 67.9052 62.0489 67.76 62.0489C67.4212 62.1457 67.2276 62.1458 67.1308 62.2426C66.9372 62.2426 66.8404 62.3393 66.6952 62.5813C66.4532 62.5813 66.2596 62.6781 66.066 62.7749C65.9692 62.8717 65.7272 62.9685 65.6304 63.1137C65.4852 63.2589 65.2916 63.3558 65.098 63.4526C65.0012 63.5978 64.9044 63.7429 64.7592 63.8881C64.6624 63.9849 64.6624 64.0817 64.5656 64.0817L25.168 112.772C23.232 115.095 23.474 118.532 25.7004 120.565C25.8456 120.71 25.9424 120.855 26.0876 120.952C26.2328 121.097 26.3296 121.242 26.4748 121.339C26.62 121.484 26.7168 121.629 26.862 121.726C27.0072 121.871 27.104 122.017 27.2492 122.113C27.3944 122.259 27.4912 122.404 27.6364 122.501C27.7816 122.646 27.8784 122.791 28.0236 122.888C28.1688 123.033 28.2656 123.178 28.4108 123.275C28.556 123.42 28.6528 123.565 28.798 123.662C28.9432 123.807 29.04 123.953 29.1852 124.049C29.4272 124.34 29.7176 124.582 30.008 124.824C31.0244 125.695 32.2828 126.131 33.5896 126.082H62.9684V130.099C62.9684 131.745 63.646 133.342 64.856 134.455C65.0012 134.601 65.098 134.697 65.2432 134.843C65.3884 134.988 65.4852 135.133 65.6304 135.23C65.7756 135.375 65.8724 135.472 66.0176 135.617C66.1628 135.762 66.2596 135.907 66.4048 136.004C66.55 136.149 66.6468 136.295 66.792 136.391C66.9372 136.537 67.034 136.682 67.1792 136.779C67.276 136.924 67.4212 137.021 67.5664 137.166C67.7116 137.311 67.8084 137.456 67.9536 137.553C68.0504 137.698 68.1956 137.795 68.3408 137.94C70.5188 140.312 74.2456 140.457 76.6172 138.279C77.8272 137.166 78.5048 135.617 78.5048 133.971V126.034H79.5696C82.8124 126.082 85.4744 123.517 85.5228 120.274C85.5228 120.226 85.5228 120.226 85.5228 120.177C85.7648 118.774 85.0872 117.225 83.9256 116.112ZM63.162 93.3637V110.497H49.3196L63.162 93.3637Z" fill="black"/>
<path d="M81.8444 116.354C81.8444 119.597 79.2308 122.21 75.988 122.21C75.9396 122.21 75.9396 122.21 75.8912 122.21H74.8264V130.293C74.8264 133.536 72.2128 136.149 68.97 136.149C65.7272 136.149 63.162 133.536 63.1136 130.293V122.21H29.7176C28.4108 122.259 27.104 121.823 26.136 120.952C23.6192 119.064 23.1352 115.531 25.0228 113.014C25.0712 112.966 25.1196 112.869 25.168 112.821L64.4204 63.985C64.5172 63.985 64.5172 63.8882 64.614 63.7914C64.7592 63.6462 64.856 63.5494 64.9528 63.3558C65.1464 63.3074 65.34 63.2106 65.4852 63.017C65.582 62.9202 65.7756 62.8234 65.9208 62.6782C66.1144 62.533 66.308 62.4846 66.55 62.4846C66.6468 62.291 66.7436 62.1942 66.9856 62.1942C67.0824 62.0974 67.276 62.0974 67.6148 62.0006C67.76 62.0006 67.9052 62.0006 68.0504 61.9038H69.8412C69.9864 62.0006 70.18 62.049 70.3736 62.0006C70.4704 62.0974 70.8092 62.0974 71.0028 62.1942C71.0996 62.1942 71.3416 62.291 71.4384 62.291C71.632 62.4846 71.874 62.5814 71.9708 62.7266C72.1644 62.8234 72.3096 62.9202 72.5032 63.0654C72.5516 63.0654 72.6 63.1138 72.6 63.1622C72.6968 63.1622 72.9388 63.259 72.9388 63.3558L73.3744 63.7914C73.4712 63.8882 73.568 64.0818 73.7132 64.227C73.8584 64.3722 74.0036 64.5658 74.1488 64.7594C74.1972 64.9046 74.2456 65.0498 74.3424 65.195C74.4392 65.3886 74.4876 65.6306 74.536 65.8242C74.536 65.921 74.6328 66.163 74.6328 66.2598C74.7296 66.4534 74.778 66.6954 74.7296 66.889C74.7296 67.0826 74.8264 67.1794 74.8264 67.4214V110.594H75.8912C79.134 110.497 81.796 113.111 81.8444 116.354ZM63.162 84.313L42.0596 110.546H63.162V84.313Z" fill="#FFC414"/>
<path d="M143.893 77.6335C142.683 75.7943 141.28 74.1003 139.731 72.5999C139.682 72.5515 139.634 72.4547 139.537 72.4063L139.489 72.3579C139.44 72.3095 139.392 72.2611 139.344 72.2127C139.198 72.0675 139.053 71.9223 138.908 71.7771L138.86 71.7287L138.714 71.5835L138.666 71.5351C138.618 71.4867 138.569 71.4383 138.521 71.3899C138.376 71.2447 138.23 71.0995 138.085 70.9543L138.037 70.9059L137.892 70.7607L137.843 70.7123C137.795 70.6639 137.746 70.6155 137.698 70.5671C137.553 70.4219 137.408 70.2767 137.262 70.1315L137.214 70.0831L137.069 69.9379L137.02 69.8895C136.972 69.8411 136.924 69.7927 136.875 69.7443C136.73 69.5991 136.585 69.4539 136.44 69.3087L136.391 69.2603C136.343 69.2119 136.294 69.1635 136.246 69.1151L136.198 69.0667C131.938 64.6623 126.372 61.7583 120.129 61.7583C111.756 61.7583 104.834 66.7435 100.382 73.5195C95.7352 80.2955 93.2668 89.1043 93.17 98.8811C93.2668 108.561 95.6868 117.467 100.382 124.243C101.592 126.034 102.947 127.728 104.496 129.228L104.689 129.422L105.076 129.809C105.125 129.857 105.222 129.954 105.27 130.002L105.464 130.196H105.512L105.899 130.583L106.093 130.777L106.286 130.97C106.286 130.97 106.286 130.97 106.335 130.97L106.722 131.358L106.916 131.551L107.109 131.745C107.109 131.745 107.109 131.745 107.158 131.793L107.545 132.18L107.738 132.374L107.932 132.568L107.98 132.616L108.368 133.003C112.578 137.166 117.951 140.021 124.194 140.021C132.374 140.021 139.392 134.939 143.845 128.212C148.394 121.436 150.96 112.53 150.96 102.85C151.008 93.2183 148.491 84.4095 143.893 77.6335ZM130.099 117.757C127.002 122.307 123.517 124.34 120.226 124.34C118.193 124.291 116.257 123.614 114.611 122.404C114.466 122.21 114.321 122.016 114.176 121.774C111.223 117.322 109.094 110.546 109.094 102.995C109.094 95.3479 111.223 88.6687 114.176 84.1191C117.37 79.6663 120.952 77.5367 124.243 77.6335C126.179 77.6335 128.018 78.2143 129.567 79.3759C129.76 79.6179 129.906 79.8115 130.051 80.0535C133.003 84.6031 135.133 91.2823 135.133 98.9295C135.181 106.48 133.052 113.304 130.099 117.757Z" fill="#FFC414"/>
<path opacity="0.1" d="M143.893 77.6335C142.683 75.7943 141.28 74.1003 139.731 72.5999C139.682 72.5515 139.634 72.4547 139.537 72.4063L139.489 72.3579C139.44 72.3095 139.392 72.2611 139.344 72.2127C139.198 72.0675 139.053 71.9223 138.908 71.7771L138.86 71.7287L138.714 71.5835L138.666 71.5351C138.618 71.4867 138.569 71.4383 138.521 71.3899C138.376 71.2447 138.23 71.0995 138.085 70.9543L138.037 70.9059L137.892 70.7607L137.843 70.7123C137.795 70.6639 137.746 70.6155 137.698 70.5671C137.553 70.4219 137.408 70.2767 137.262 70.1315L137.214 70.0831L137.069 69.9379L137.02 69.8895C136.972 69.8411 136.924 69.7927 136.875 69.7443C136.73 69.5991 136.585 69.4539 136.44 69.3087L136.391 69.2603C136.343 69.2119 136.294 69.1635 136.246 69.1151L136.198 69.0667C131.938 64.6623 126.372 61.7583 120.129 61.7583C111.756 61.7583 104.834 66.7435 100.382 73.5195C95.7352 80.2955 93.2668 89.1043 93.17 98.8811C93.2668 108.561 95.6868 117.467 100.382 124.243C101.592 126.034 102.947 127.728 104.496 129.228L104.689 129.422L105.076 129.809C105.125 129.857 105.222 129.954 105.27 130.002L105.464 130.196H105.512L105.899 130.583L106.093 130.777L106.286 130.97C106.286 130.97 106.286 130.97 106.335 130.97L106.722 131.358L106.916 131.551L107.109 131.745C107.109 131.745 107.109 131.745 107.158 131.793L107.545 132.18L107.738 132.374L107.932 132.568L107.98 132.616L108.368 133.003C112.578 137.166 117.951 140.021 124.194 140.021C132.374 140.021 139.392 134.939 143.845 128.212C148.394 121.436 150.96 112.53 150.96 102.85C151.008 93.2183 148.491 84.4095 143.893 77.6335ZM130.099 117.757C127.002 122.307 123.517 124.34 120.226 124.34C118.193 124.291 116.257 123.614 114.611 122.404C114.466 122.21 114.321 122.016 114.176 121.774C111.223 117.322 109.094 110.546 109.094 102.995C109.094 95.3479 111.223 88.6687 114.176 84.1191C117.37 79.6663 120.952 77.5367 124.243 77.6335C126.179 77.6335 128.018 78.2143 129.567 79.3759C129.76 79.6179 129.906 79.8115 130.051 80.0535C133.003 84.6031 135.133 91.2823 135.133 98.9295C135.181 106.48 133.052 113.304 130.099 117.757Z" fill="black"/>
<path d="M93.2668 98.9294C93.3636 89.1526 95.832 80.3438 100.478 73.5678C104.931 66.7918 111.852 61.8066 120.226 61.8066C128.405 61.8066 135.423 66.7918 139.876 73.5678C144.426 80.3438 146.991 89.1526 146.991 98.9294C146.991 108.609 144.426 117.515 139.876 124.291C135.423 130.97 128.405 136.052 120.226 136.052C111.852 136.052 104.931 130.97 100.478 124.291C95.832 117.515 93.3636 108.609 93.2668 98.9294ZM135.181 98.9294C135.181 91.2822 133.052 84.603 130.099 80.0534C127.002 75.6006 123.517 73.471 120.226 73.5678C116.934 73.471 113.304 75.6006 110.158 80.0534C107.206 84.603 105.076 91.2822 105.076 98.9294C105.076 106.48 107.206 113.256 110.158 117.709C113.353 122.258 116.934 124.291 120.226 124.291C123.517 124.291 127.002 122.258 130.099 117.709C133.052 113.304 135.181 106.48 135.181 98.9294Z" fill="#FFC414"/>
<path d="M216.203 116.112C216.058 115.967 215.961 115.821 215.816 115.725C215.67 115.579 215.574 115.434 215.428 115.337C215.283 115.192 215.186 115.047 215.041 114.95C214.896 114.805 214.799 114.66 214.654 114.563C214.509 114.418 214.412 114.273 214.267 114.176C214.122 114.031 214.025 113.885 213.88 113.789C213.734 113.643 213.638 113.498 213.492 113.401C213.347 113.256 213.25 113.111 213.105 113.014C212.96 112.869 212.863 112.724 212.718 112.627C212.331 112.191 211.847 111.804 211.314 111.465V71.4869C211.314 71.2933 211.218 71.1482 211.218 70.9546C211.266 70.761 211.218 70.519 211.121 70.3254C211.121 70.2286 211.024 69.9865 211.024 69.8897C210.976 69.6961 210.879 69.4542 210.782 69.2606C210.685 69.1638 210.588 68.9701 210.588 68.8249C210.492 68.6313 210.346 68.4378 210.153 68.2926C210.056 68.1958 209.959 68.0021 209.814 67.8569L209.378 67.4214C209.378 67.373 209.282 67.2761 209.185 67.2277L208.991 67.0341C208.991 66.9857 208.894 66.889 208.798 66.8406L208.604 66.6469C208.604 66.5985 208.507 66.5018 208.41 66.4534L208.217 66.2597C208.217 66.2113 208.12 66.1145 208.023 66.0661L207.83 65.8726C207.83 65.8242 207.733 65.7273 207.636 65.6789L207.442 65.4854V65.4369C207.442 65.3885 207.346 65.2918 207.249 65.2434L207.055 65.0497C207.055 65.0013 206.958 64.9045 206.862 64.8561L206.668 64.6626V64.6141C206.668 64.5657 206.571 64.469 206.474 64.4206L206.281 64.2269C206.281 64.1785 206.184 64.0818 206.087 64.0334L205.894 63.8397C205.894 63.7913 205.797 63.6945 205.7 63.6461L205.458 63.4041C205.458 63.3073 205.264 63.2106 205.119 63.2106C205.119 63.1622 205.071 63.1137 205.022 63.1137C204.829 63.0169 204.684 62.9201 204.49 62.7749C204.296 62.6297 204.151 62.4846 203.958 62.3393C203.861 62.3393 203.619 62.2426 203.522 62.2426C203.328 62.1458 202.99 62.1457 202.893 62.0489C202.699 62.0489 202.506 62.0489 202.36 61.9521H200.57C200.424 62.0489 200.279 62.0489 200.134 62.0489C199.795 62.1457 199.602 62.1458 199.505 62.2426C199.311 62.2426 199.214 62.3393 199.069 62.5814C198.827 62.5814 198.634 62.6781 198.44 62.7749C198.343 62.8717 198.101 62.9685 198.004 63.1137C197.859 63.2589 197.666 63.3558 197.472 63.4526C197.375 63.5978 197.278 63.7429 197.133 63.8881C197.036 63.9849 197.036 64.0817 196.94 64.0817L157.445 112.772C155.509 115.095 155.751 118.532 157.978 120.565C158.123 120.71 158.22 120.855 158.365 120.952C158.51 121.097 158.607 121.242 158.752 121.339C158.897 121.484 158.994 121.629 159.139 121.726C159.526 122.113 159.962 122.549 160.349 122.936C160.64 123.178 160.882 123.469 161.172 123.759C161.317 123.904 161.414 124.049 161.559 124.146C161.801 124.437 162.092 124.679 162.382 124.921C163.398 125.792 164.657 126.227 166.012 126.179H195.391V130.196C195.391 131.842 196.068 133.439 197.278 134.552C197.424 134.697 197.52 134.843 197.666 134.939C197.762 135.085 197.908 135.181 198.053 135.327C198.198 135.472 198.295 135.617 198.44 135.714C198.585 135.859 198.682 135.956 198.827 136.101C198.972 136.246 199.069 136.391 199.214 136.488C199.36 136.633 199.456 136.73 199.602 136.875C199.747 137.021 199.844 137.166 199.989 137.263C200.134 137.408 200.231 137.505 200.376 137.65C200.521 137.795 200.618 137.94 200.763 138.037C202.941 140.409 206.668 140.554 209.04 138.376C210.25 137.263 210.927 135.714 210.927 134.068V126.131H211.992C215.235 126.179 217.897 123.614 217.945 120.371C217.945 120.323 217.945 120.323 217.945 120.274C218.042 118.774 217.413 117.225 216.203 116.112ZM195.439 93.3638V110.497H181.597L195.439 93.3638Z" fill="#FFC414"/>
<path opacity="0.1" d="M216.203 116.112C216.058 115.967 215.961 115.821 215.816 115.725C215.67 115.579 215.574 115.434 215.428 115.337C215.283 115.192 215.186 115.047 215.041 114.95C214.896 114.805 214.799 114.66 214.654 114.563C214.509 114.418 214.412 114.273 214.267 114.176C214.122 114.031 214.025 113.885 213.88 113.789C213.734 113.643 213.638 113.498 213.492 113.401C213.347 113.256 213.25 113.111 213.105 113.014C212.96 112.869 212.863 112.724 212.718 112.627C212.331 112.191 211.847 111.804 211.314 111.465V71.4869C211.314 71.2933 211.218 71.1482 211.218 70.9546C211.266 70.761 211.218 70.519 211.121 70.3254C211.121 70.2286 211.024 69.9865 211.024 69.8897C210.976 69.6961 210.879 69.4542 210.782 69.2606C210.685 69.1638 210.588 68.9701 210.588 68.8249C210.492 68.6313 210.346 68.4378 210.153 68.2926C210.056 68.1958 209.959 68.0021 209.814 67.8569L209.378 67.4214C209.378 67.373 209.282 67.2761 209.185 67.2277L208.991 67.0341C208.991 66.9857 208.894 66.889 208.798 66.8406L208.604 66.6469C208.604 66.5985 208.507 66.5018 208.41 66.4534L208.217 66.2597C208.217 66.2113 208.12 66.1145 208.023 66.0661L207.83 65.8726C207.83 65.8242 207.733 65.7273 207.636 65.6789L207.442 65.4854V65.4369C207.442 65.3885 207.346 65.2918 207.249 65.2434L207.055 65.0497C207.055 65.0013 206.958 64.9045 206.862 64.8561L206.668 64.6626V64.6141C206.668 64.5657 206.571 64.469 206.474 64.4206L206.281 64.2269C206.281 64.1785 206.184 64.0818 206.087 64.0334L205.894 63.8397C205.894 63.7913 205.797 63.6945 205.7 63.6461L205.458 63.4041C205.458 63.3073 205.264 63.2106 205.119 63.2106C205.119 63.1622 205.071 63.1137 205.022 63.1137C204.829 63.0169 204.684 62.9201 204.49 62.7749C204.296 62.6297 204.151 62.4846 203.958 62.3393C203.861 62.3393 203.619 62.2426 203.522 62.2426C203.328 62.1458 202.99 62.1457 202.893 62.0489C202.699 62.0489 202.506 62.0489 202.36 61.9521H200.57C200.424 62.0489 200.279 62.0489 200.134 62.0489C199.795 62.1457 199.602 62.1458 199.505 62.2426C199.311 62.2426 199.214 62.3393 199.069 62.5814C198.827 62.5814 198.634 62.6781 198.44 62.7749C198.343 62.8717 198.101 62.9685 198.004 63.1137C197.859 63.2589 197.666 63.3558 197.472 63.4526C197.375 63.5978 197.278 63.7429 197.133 63.8881C197.036 63.9849 197.036 64.0817 196.94 64.0817L157.445 112.772C155.509 115.095 155.751 118.532 157.978 120.565C158.123 120.71 158.22 120.855 158.365 120.952C158.51 121.097 158.607 121.242 158.752 121.339C158.897 121.484 158.994 121.629 159.139 121.726C159.526 122.113 159.962 122.549 160.349 122.936C160.64 123.178 160.882 123.469 161.172 123.759C161.317 123.904 161.414 124.049 161.559 124.146C161.801 124.437 162.092 124.679 162.382 124.921C163.398 125.792 164.657 126.227 166.012 126.179H195.391V130.196C195.391 131.842 196.068 133.439 197.278 134.552C197.424 134.697 197.52 134.843 197.666 134.939C197.762 135.085 197.908 135.181 198.053 135.327C198.198 135.472 198.295 135.617 198.44 135.714C198.585 135.859 198.682 135.956 198.827 136.101C198.972 136.246 199.069 136.391 199.214 136.488C199.36 136.633 199.456 136.73 199.602 136.875C199.747 137.021 199.844 137.166 199.989 137.263C200.134 137.408 200.231 137.505 200.376 137.65C200.521 137.795 200.618 137.94 200.763 138.037C202.941 140.409 206.668 140.554 209.04 138.376C210.25 137.263 210.927 135.714 210.927 134.068V126.131H211.992C215.235 126.179 217.897 123.614 217.945 120.371C217.945 120.323 217.945 120.323 217.945 120.274C218.042 118.774 217.413 117.225 216.203 116.112ZM195.439 93.3638V110.497H181.597L195.439 93.3638Z" fill="black"/>
<path d="M214.122 116.353C214.122 119.596 211.508 122.21 208.265 122.21C208.217 122.21 208.217 122.21 208.168 122.21H207.104V130.293C207.104 133.535 204.49 136.149 201.247 136.149C198.004 136.149 195.439 133.535 195.391 130.293V122.21H161.946C160.64 122.258 159.333 121.823 158.316 120.951C155.8 119.064 155.316 115.531 157.155 113.014C157.203 112.917 157.252 112.869 157.348 112.772L196.601 63.9362C196.698 63.9362 196.698 63.8394 196.794 63.7426C196.94 63.5974 197.036 63.5006 197.133 63.307C197.327 63.2586 197.52 63.1618 197.666 62.9682C197.762 62.8714 198.004 62.7746 198.101 62.6294C198.295 62.4842 198.488 62.4358 198.73 62.4358C198.827 62.2422 198.924 62.1454 199.166 62.1454C199.263 62.0486 199.505 62.0486 199.795 61.9518C199.94 61.9518 200.086 61.9518 200.231 61.855H202.022C202.167 61.9518 202.36 62.0002 202.554 61.9518C202.651 62.0486 202.99 62.0486 203.183 62.1454C203.28 62.1454 203.522 62.2422 203.619 62.2422C203.812 62.4358 204.054 62.5326 204.151 62.6778C204.345 62.7746 204.49 62.8714 204.684 63.0166C204.732 63.0166 204.78 63.065 204.78 63.1134C204.877 63.1134 205.071 63.2102 205.071 63.307L205.506 63.7426C205.603 63.8394 205.7 64.033 205.845 64.1782C205.99 64.3234 206.136 64.517 206.281 64.7106C206.329 64.8558 206.378 65.001 206.474 65.1462C206.571 65.3398 206.62 65.5818 206.668 65.7754C206.668 65.8722 206.765 66.1142 206.765 66.211C206.862 66.4046 206.91 66.6466 206.862 66.8402C206.862 67.0338 206.958 67.1306 206.958 67.3726V110.545H208.023C211.411 110.497 214.073 113.111 214.122 116.353ZM195.439 84.3126L174.337 110.545H195.439V84.3126Z" fill="#FFC414"/>
<path d="M135.665 122.355C135.617 122.597 135.762 122.791 135.956 122.888C136.44 122.984 137.069 123.033 137.795 123.13C139.828 118.677 141.909 115.192 141.328 116.547C140.408 118.725 139.828 121 139.586 123.372C140.36 123.468 142.248 123.71 143.167 123.807C145.297 115.87 147.668 110.062 147.378 111.901C146.265 119.258 146.458 121.678 146.7 124.291C155.364 125.356 166.786 126.614 175.014 127.292C176.37 122.936 177.628 118.193 177.725 118.532C178.644 121.145 178.596 124.775 178.402 127.582C181.016 127.776 183.146 127.921 184.452 127.921C184.452 127.921 185.42 124.243 185.614 123.033C186.146 119.935 186.098 116.741 185.517 113.595C184.936 110.4 183.63 107.545 182.468 104.641V104.592C181.694 102.656 181.113 100.672 180.774 98.6392V98.5908C180.532 97.0904 180.435 95.59 180.484 94.0896C180.58 88.572 178.112 83.6352 173.417 81.8444C165.431 73.6648 154.396 77.44 151.298 84.3128C150.088 87.4104 148.878 91.476 147.814 94.5736C147.814 94.5736 147.814 94.5736 147.814 94.622C147.426 95.832 146.942 97.042 146.41 98.2036C143.554 103.77 138.037 106.625 135.665 122.355Z" fill="#263238"/>
<path d="M175.402 83.4417C178.402 85.4261 180.145 88.1365 180.242 92.2021C180.338 94.5737 180.242 96.8485 180.919 99.1233C181.597 101.447 182.807 103.431 184.017 105.367C186.001 108.465 187.308 111.562 187.26 115.483C187.211 119.403 186.679 124.195 185.082 127.825H185.033C186.388 124.146 186.872 118.919 186.582 114.902C186.292 110.497 184.21 107.593 182.178 104.157C180.532 101.398 179.612 98.2521 179.516 95.0577C179.467 93.0733 179.661 90.9921 179.08 89.1045C178.402 86.8297 176.757 85.2809 175.111 83.8773C174.918 83.6353 175.16 83.2965 175.402 83.4417Z" fill="#263238"/>
<path d="M140.554 103.963C143.07 101.011 145.636 98.5422 147.281 94.767C148.782 91.3306 149.798 87.6522 151.347 84.2642C151.347 84.2158 151.444 84.2158 151.444 84.3126C149.024 90.411 148.104 96.6546 143.845 101.64C141.522 104.35 139.247 106.819 137.601 110.158C135.907 113.643 134.842 117.418 134.455 121.29C134.455 121.435 134.262 121.387 134.262 121.29C134.262 114.95 136.488 108.803 140.554 103.963Z" fill="#263238"/>
<path d="M116.16 179.08C116.16 179.08 139.537 185.372 143.361 184.694C147.184 184.017 160.252 166.447 163.156 160.107C166.06 153.767 170.852 122.065 169.932 118.58C169.013 115.095 164.173 115.047 160.107 124.049C156.042 133.051 146.362 152.799 144.668 154.396C142.974 155.993 114.272 177.386 116.16 179.08Z" fill="#FFC4C0"/>
<path d="M141.376 182.613C137.795 180.726 133.439 176.176 130.486 175.74C128.986 175.45 127.486 176.176 126.76 177.531C126.76 177.531 125.404 174.482 122.646 174.53C121.242 174.53 119.984 176.805 119.984 176.805C119.984 176.805 118.774 174.434 116.305 174.579C114.321 174.724 113.401 176.999 113.401 176.999C113.401 176.999 111.175 175.256 109.239 176.031C105.27 177.58 104.641 194.423 110.739 197.278C113.595 198.585 113.498 194.471 113.498 194.471C113.498 194.471 114.998 200.376 118.483 200.618C121.968 200.86 121.532 195.488 121.532 195.488C121.532 195.488 123.033 201.199 126.663 201.054C130.438 200.908 129.131 195.633 129.131 195.633C129.131 195.633 131.503 199.456 134.262 198.73C138.811 197.52 133.923 188.421 134.939 184.743H140.65L141.376 182.613Z" fill="#FFC4C0"/>
<path d="M136.198 179.032C139.731 180.532 143.796 174.918 147.426 176.224C152.17 177.918 147.765 183.775 140.602 184.694H134.891L136.198 179.032Z" fill="#FFC4C0"/>
<path d="M113.159 177.241C113.111 177.192 113.062 177.241 113.062 177.241C111.514 182.71 111.465 189.244 113.401 194.616C113.45 194.81 113.788 194.762 113.74 194.568C112.82 188.615 112.433 183.291 113.159 177.241Z" fill="#263238"/>
<path d="M119.887 176.66C119.887 176.611 119.79 176.563 119.79 176.66C118.193 182.323 118.338 189.631 121.339 195.584C121.436 195.778 121.726 195.875 121.629 195.633C119.984 191.519 119.209 182.081 119.887 176.66Z" fill="#263238"/>
<path d="M129.47 195.923C126.808 190.115 126.324 184.017 126.663 177.725C126.663 177.628 126.566 177.628 126.518 177.725C125.501 180.774 125.695 184.84 126.082 187.937C126.421 190.841 127.486 193.649 129.228 196.02C129.325 196.117 129.518 196.069 129.47 195.923Z" fill="#263238"/>
<path d="M147.717 175.789C145.394 175.015 143.022 176.854 141.038 177.919C140.408 178.306 139.731 178.596 139.053 178.838C137.504 179.322 136.343 179.032 135.665 178.596C134.6 177.919 131.212 174.531 128.744 175.644C127.921 176.031 127.195 176.66 126.663 177.435C125.937 176.08 124.969 174.579 123.323 174.337C122.597 174.192 121.823 174.386 121.242 174.87C120.952 175.112 120.661 175.402 120.419 175.692C120.177 175.983 119.984 176.273 119.838 176.612C119.838 176.612 119.838 176.612 119.838 176.564L119.79 176.467L119.693 176.273C119.548 175.983 119.354 175.741 119.112 175.547C119.016 175.45 118.87 175.402 118.774 175.402C118.774 175.402 118.725 175.402 118.725 175.45C118.725 175.45 118.725 175.499 118.774 175.499C118.87 175.547 118.967 175.644 119.016 175.741C119.112 175.838 119.161 175.983 119.258 176.08C119.354 176.176 119.403 176.322 119.5 176.418L119.596 176.612L119.645 176.709C119.645 176.757 119.693 176.757 119.742 176.806C119.742 176.854 119.79 176.854 119.838 176.806C120.08 176.564 120.322 176.322 120.516 176.08C120.758 175.789 121.048 175.547 121.339 175.305C121.92 174.87 122.646 174.676 123.323 174.821C124.824 175.112 125.743 176.418 126.518 177.628C126.518 177.677 126.566 177.677 126.566 177.677C127.389 176.951 128.163 176.176 129.276 175.983C130.486 175.789 131.648 176.37 132.616 176.999C133.1 177.29 133.584 177.628 134.068 177.967C134.504 178.306 134.891 178.645 135.326 178.935C137.214 180.145 139.247 179.177 139.779 178.984C140.796 178.548 141.764 178.016 142.732 177.435C143.7 176.806 144.764 176.37 145.878 176.176C146.942 176.031 148.007 176.418 148.685 177.241C149.024 177.677 149.508 178.548 148.588 180.484C148.588 180.484 148.588 180.532 148.636 180.484C149.169 179.903 150.718 176.757 147.717 175.789Z" fill="#263238"/>
<path d="M168.142 148.007L146.12 144.474C146.12 144.474 156.671 123.614 162.963 117.564C169.206 111.61 172.256 117.709 171.336 126.953C170.271 137.166 168.142 148.007 168.142 148.007Z" fill="#1A345F"/>
<path d="M167.416 143.893C166.786 143.748 166.157 143.651 165.528 143.506C164.899 143.361 164.318 143.264 163.689 143.167C162.43 142.974 161.22 142.78 159.962 142.635C157.494 142.296 155.025 141.909 152.557 141.667C151.153 141.522 149.75 141.28 148.346 141.183C148.298 141.183 148.298 141.231 148.346 141.28C150.766 141.861 153.283 142.248 155.751 142.683C158.22 143.119 160.688 143.458 163.156 143.748C163.834 143.845 164.56 143.893 165.238 143.942C165.915 143.99 166.69 144.039 167.367 144.039C167.416 144.039 167.464 143.99 167.464 143.99C167.464 143.942 167.464 143.893 167.416 143.893Z" fill="#263238"/>
<path d="M155.848 184.888H214.218C214.218 184.888 189.97 124.678 177.628 115.87C173.95 113.208 168.045 112.917 164.028 118.241C160.785 122.597 151.686 139.924 151.298 146.12C150.911 152.315 155.751 158.51 155.751 158.51L155.848 184.888Z" fill="#31486F"/>
<path d="M175.16 144.087C175.305 144.039 175.45 144.039 175.595 143.99C176.079 143.893 176.515 144.184 176.66 144.668C176.66 144.716 176.66 144.813 176.66 144.861C176.66 145.103 176.757 145.345 176.95 145.442C177.047 145.491 177.192 145.539 177.338 145.587C177.483 145.587 177.628 145.636 177.773 145.684C177.628 145.733 177.483 145.733 177.338 145.781C177.192 145.829 176.999 145.781 176.854 145.733C176.515 145.587 176.321 145.249 176.321 144.91C176.321 144.668 176.176 144.474 175.982 144.329C175.886 144.281 175.74 144.232 175.595 144.232C175.45 144.135 175.305 144.135 175.16 144.087Z" fill="white"/>
<path d="M163.689 156.235C163.834 156.187 163.979 156.187 164.124 156.139C164.27 156.09 164.463 156.139 164.608 156.187C164.947 156.332 165.189 156.623 165.189 157.01C165.189 157.252 165.286 157.494 165.48 157.591C165.576 157.639 165.722 157.687 165.867 157.736C166.012 157.784 166.157 157.784 166.302 157.833C166.157 157.881 166.012 157.881 165.867 157.929C165.722 157.978 165.528 157.93 165.383 157.881C165.044 157.736 164.85 157.397 164.85 157.058C164.85 156.816 164.705 156.623 164.512 156.477C164.415 156.429 164.27 156.381 164.124 156.381C163.979 156.284 163.834 156.284 163.689 156.235Z" fill="white"/>
<path d="M172.498 168.529C172.643 168.481 172.788 168.481 172.933 168.432C173.078 168.384 173.272 168.432 173.417 168.481C173.756 168.626 173.998 168.916 173.998 169.303C173.998 169.545 174.095 169.787 174.288 169.884C174.385 169.933 174.53 169.981 174.676 169.981C174.821 170.029 174.966 170.029 175.111 170.078C174.966 170.126 174.821 170.126 174.676 170.175C174.53 170.223 174.337 170.175 174.192 170.126C173.853 169.981 173.659 169.642 173.659 169.303C173.659 169.061 173.514 168.868 173.32 168.723C173.224 168.674 173.078 168.626 172.933 168.626C172.788 168.577 172.594 168.577 172.498 168.529Z" fill="white"/>
<path d="M156.671 171.094C156.816 171.046 156.961 171.046 157.106 170.998C157.59 170.901 158.074 171.191 158.171 171.675C158.171 171.724 158.171 171.772 158.171 171.869C158.171 172.111 158.268 172.353 158.462 172.45C158.558 172.498 158.704 172.546 158.849 172.546C158.994 172.595 159.139 172.595 159.284 172.643C159.139 172.692 158.994 172.692 158.849 172.74C158.704 172.788 158.51 172.74 158.365 172.692C158.026 172.546 157.832 172.208 157.832 171.869C157.832 171.627 157.687 171.433 157.494 171.288C157.397 171.24 157.252 171.191 157.106 171.191C157.01 171.191 156.816 171.143 156.671 171.094Z" fill="white"/>
<path d="M179.758 156.574C179.903 156.526 180.048 156.526 180.193 156.478C180.677 156.381 181.161 156.671 181.258 157.155C181.258 157.204 181.258 157.252 181.258 157.349C181.258 157.591 181.355 157.833 181.548 157.93C181.645 157.978 181.79 158.026 181.936 158.026C182.081 158.075 182.226 158.075 182.371 158.123C182.226 158.172 182.081 158.172 181.936 158.22C181.79 158.268 181.597 158.22 181.452 158.172C181.113 158.026 180.919 157.688 180.919 157.349C180.919 157.107 180.774 156.913 180.58 156.768C180.484 156.72 180.338 156.671 180.193 156.671C180.048 156.623 179.903 156.623 179.758 156.574Z" fill="white"/>
<path d="M177.87 124.437C177.822 124.582 177.725 124.679 177.628 124.824C177.531 124.969 177.386 125.066 177.241 125.163C176.902 125.308 176.515 125.259 176.273 124.969C176.128 124.775 175.886 124.727 175.644 124.775C175.498 124.824 175.402 124.872 175.305 124.969C175.16 125.066 175.063 125.163 174.918 125.211C174.966 125.066 175.063 124.969 175.16 124.824C175.256 124.679 175.402 124.582 175.547 124.533C175.886 124.388 176.273 124.485 176.515 124.727C176.708 124.921 176.95 124.969 177.192 124.921C177.338 124.872 177.434 124.824 177.531 124.727C177.628 124.582 177.725 124.485 177.87 124.437Z" fill="white"/>
<path d="M167.609 117.177C167.561 117.322 167.464 117.419 167.367 117.564C167.27 117.709 167.125 117.806 166.98 117.903C166.641 118.048 166.254 118 166.012 117.709C165.867 117.516 165.625 117.467 165.383 117.516C165.238 117.564 165.141 117.612 165.044 117.709C164.899 117.806 164.802 117.903 164.657 117.951C164.705 117.806 164.802 117.709 164.899 117.564C164.996 117.419 165.141 117.322 165.286 117.274C165.625 117.128 166.012 117.225 166.254 117.467C166.448 117.612 166.69 117.709 166.883 117.661C167.028 117.612 167.125 117.564 167.222 117.467C167.367 117.37 167.464 117.274 167.609 117.177Z" fill="white"/>
<path d="M177.289 133.632C177.338 133.778 177.338 133.923 177.386 134.068C177.434 134.213 177.386 134.407 177.338 134.552C177.192 134.891 176.902 135.133 176.515 135.133C176.273 135.133 176.031 135.23 175.934 135.423C175.886 135.52 175.837 135.665 175.837 135.81C175.789 135.956 175.789 136.101 175.74 136.246C175.692 136.101 175.692 135.956 175.644 135.81C175.595 135.665 175.644 135.472 175.692 135.326C175.837 134.988 176.176 134.794 176.515 134.794C176.757 134.794 176.95 134.649 177.096 134.455C177.144 134.358 177.192 134.213 177.192 134.068C177.192 133.923 177.241 133.778 177.289 133.632Z" fill="white"/>
<path d="M173.804 159.43C173.853 159.575 173.853 159.72 173.901 159.865C173.998 160.349 173.708 160.833 173.224 160.93C173.175 160.93 173.127 160.93 173.03 160.93C172.788 160.93 172.546 161.027 172.449 161.22C172.401 161.317 172.352 161.462 172.352 161.608C172.304 161.753 172.304 161.898 172.256 162.043C172.207 161.898 172.207 161.753 172.159 161.608C172.11 161.462 172.159 161.269 172.207 161.124C172.352 160.785 172.691 160.591 173.03 160.591C173.272 160.591 173.466 160.446 173.611 160.252C173.659 160.156 173.708 160.01 173.708 159.865C173.708 159.72 173.756 159.575 173.804 159.43Z" fill="white"/>
<path d="M159.575 160.349C159.623 160.494 159.623 160.64 159.672 160.785C159.768 161.269 159.478 161.704 158.994 161.85C158.946 161.85 158.849 161.85 158.8 161.85C158.558 161.85 158.316 161.946 158.22 162.14C158.171 162.237 158.123 162.382 158.123 162.527C158.074 162.672 158.074 162.818 158.026 162.963C157.978 162.818 157.978 162.672 157.929 162.527C157.881 162.382 157.929 162.188 157.978 162.043C158.123 161.704 158.462 161.511 158.8 161.511C159.042 161.511 159.236 161.366 159.381 161.172C159.43 161.075 159.478 160.93 159.478 160.785C159.526 160.64 159.526 160.494 159.575 160.349Z" fill="white"/>
<path d="M186.872 148.54C186.921 148.685 186.921 148.83 186.969 148.975C187.066 149.459 186.776 149.943 186.292 150.04C186.243 150.04 186.195 150.04 186.098 150.04C185.856 150.04 185.614 150.137 185.517 150.33C185.469 150.427 185.42 150.572 185.42 150.718C185.372 150.863 185.372 151.008 185.324 151.153C185.275 151.008 185.275 150.863 185.227 150.718C185.178 150.572 185.227 150.379 185.275 150.234C185.42 149.895 185.759 149.701 186.098 149.701C186.34 149.701 186.534 149.556 186.679 149.362C186.727 149.266 186.776 149.12 186.776 148.975C186.824 148.83 186.824 148.685 186.872 148.54Z" fill="white"/>
<path d="M183.388 141.183C183.484 141.038 183.581 140.941 183.63 140.796C183.726 140.651 183.823 140.554 184.017 140.457C184.356 140.312 184.743 140.36 184.985 140.651C185.13 140.844 185.372 140.893 185.614 140.844C185.759 140.796 185.856 140.748 185.953 140.651C186.098 140.554 186.195 140.457 186.34 140.409C186.243 140.554 186.146 140.651 186.098 140.796C186.001 140.941 185.856 141.038 185.711 141.086C185.372 141.232 184.985 141.135 184.743 140.893C184.549 140.748 184.356 140.651 184.114 140.699C183.968 140.748 183.872 140.796 183.775 140.893C183.63 140.99 183.533 141.086 183.388 141.183Z" fill="white"/>
<path d="M171.53 151.928C171.578 151.783 171.675 151.686 171.772 151.541C172.014 151.153 172.594 151.008 172.982 151.25C173.03 151.299 173.078 151.347 173.127 151.395C173.272 151.589 173.514 151.637 173.756 151.589C173.901 151.541 173.998 151.492 174.095 151.395C174.192 151.299 174.337 151.202 174.482 151.153C174.385 151.299 174.337 151.395 174.24 151.541C173.95 151.928 173.417 152.025 173.03 151.783C172.982 151.734 172.933 151.686 172.885 151.686C172.74 151.541 172.498 151.444 172.256 151.492C172.11 151.541 172.014 151.589 171.917 151.686C171.772 151.734 171.626 151.831 171.53 151.928Z" fill="white"/>
<path d="M163.495 167.754C163.592 167.609 163.689 167.512 163.737 167.367C163.979 166.98 164.56 166.835 164.947 167.077C164.996 167.125 165.044 167.174 165.092 167.222C165.238 167.416 165.48 167.464 165.722 167.416C165.867 167.367 165.964 167.319 166.06 167.222C166.157 167.125 166.302 167.028 166.448 166.98C166.351 167.125 166.302 167.222 166.206 167.367C165.915 167.754 165.383 167.851 164.996 167.609C164.947 167.561 164.899 167.512 164.85 167.464C164.657 167.319 164.415 167.222 164.221 167.27C164.076 167.319 163.979 167.367 163.882 167.464C163.737 167.609 163.592 167.658 163.495 167.754Z" fill="white"/>
<path d="M182.516 166.109C182.565 165.964 182.662 165.867 182.758 165.722C182.855 165.577 183 165.48 183.146 165.383C183.484 165.238 183.872 165.286 184.114 165.577C184.259 165.77 184.501 165.819 184.743 165.77C184.888 165.722 184.985 165.673 185.082 165.577C185.178 165.48 185.324 165.383 185.469 165.335C185.372 165.48 185.324 165.577 185.227 165.722C185.13 165.867 184.985 165.964 184.84 166.012C184.501 166.157 184.114 166.061 183.872 165.819C183.678 165.673 183.436 165.577 183.242 165.625C183.097 165.673 183 165.722 182.904 165.819C182.758 165.964 182.662 166.061 182.516 166.109Z" fill="white"/>
<path d="M157.3 152.266C157.348 152.121 157.445 152.024 157.542 151.879C157.639 151.734 157.784 151.637 157.929 151.54C158.268 151.395 158.655 151.443 158.897 151.734C159.042 151.927 159.284 151.976 159.526 151.927C159.672 151.879 159.768 151.831 159.865 151.734C160.01 151.637 160.107 151.54 160.252 151.492C160.156 151.637 160.107 151.734 160.01 151.879C159.914 152.024 159.768 152.121 159.623 152.169C159.284 152.315 158.897 152.218 158.655 151.976C158.51 151.831 158.268 151.734 158.026 151.782C157.881 151.831 157.784 151.879 157.687 151.976C157.542 152.121 157.445 152.218 157.3 152.266Z" fill="white"/>
<path d="M173.078 115.434C172.885 116.354 168.819 122.307 164.705 122.258C163.35 122.21 163.156 114.95 163.156 114.95L163.011 114.418L161.075 106.916L169.739 100.914L170.997 100.14C170.997 100.14 171.384 102.221 171.868 104.834C171.868 104.931 171.917 105.076 171.917 105.222C171.917 105.367 171.965 105.512 172.014 105.657C172.11 106.044 172.159 106.432 172.256 106.819C172.304 107.109 172.352 107.4 172.401 107.738C172.449 108.077 172.498 108.368 172.546 108.706C172.885 110.884 173.078 113.159 173.078 115.434Z" fill="#FFC4C0"/>
<path d="M171.917 104.786C170.513 109.142 167.27 112.627 163.06 114.369L161.124 106.867L169.787 100.866L171.046 100.091C171.046 100.091 171.433 102.173 171.917 104.786Z" fill="#263238"/>
<path d="M150.476 95.7837C150.137 109.384 158.22 111.126 161.124 111.175C163.786 111.223 172.836 111.126 174.627 97.6713C176.418 84.2161 170.174 79.7633 164.124 79.2793C158.074 78.7953 150.814 82.1833 150.476 95.7837Z" fill="#FFC4C0"/>
<path d="M152.508 91.6696C152.847 91.6212 153.089 91.5244 153.428 91.4276C153.767 91.3792 154.057 91.234 154.299 90.992C154.444 90.7984 154.396 90.5564 154.299 90.4112C153.96 90.1208 153.525 90.024 153.089 90.1692C152.654 90.266 152.266 90.508 152.024 90.8468C151.879 91.0888 151.928 91.4276 152.17 91.5728C152.266 91.6212 152.412 91.6696 152.508 91.6696Z" fill="#263238"/>
<path d="M161.608 93.654C161.317 93.6056 160.978 93.5572 160.688 93.5088C160.349 93.5088 160.059 93.3636 159.768 93.17C159.623 93.0248 159.623 92.7828 159.72 92.5892C160.01 92.2504 160.446 92.1536 160.882 92.2504C161.317 92.2988 161.704 92.4924 161.995 92.8312C162.188 93.0732 162.14 93.3636 161.946 93.5572C161.85 93.6056 161.753 93.654 161.608 93.654Z" fill="#263238"/>
<path d="M154.541 96.0742C154.541 96.0258 154.493 96.1226 154.493 96.171C154.59 97.0906 154.541 98.1554 153.718 98.5426C153.67 98.5426 153.718 98.591 153.718 98.591C154.686 98.349 154.783 96.9454 154.541 96.0742Z" fill="#263238"/>
<path d="M153.622 95.1543C152.121 95.1543 152.218 98.1067 153.622 98.1551C155.025 98.2035 154.88 95.1543 153.622 95.1543Z" fill="#263238"/>
<path d="M153.041 95.3961C152.799 95.5413 152.605 95.8317 152.315 95.8801C152.024 95.9285 151.734 95.5897 151.54 95.2993C151.54 95.2509 151.492 95.2993 151.492 95.3477C151.492 95.9285 151.686 96.5093 152.266 96.6061C152.847 96.7029 153.138 96.1705 153.234 95.6381C153.186 95.4445 153.138 95.2993 153.041 95.3961Z" fill="#263238"/>
<path d="M160.591 103.963C160.349 104.157 160.107 104.447 159.817 104.496C159.478 104.496 159.139 104.399 158.849 104.205H158.8C158.8 104.205 158.8 104.205 158.8 104.254C159.042 104.641 159.526 104.835 159.962 104.786C160.349 104.689 160.64 104.399 160.736 104.012C160.688 103.963 160.64 103.963 160.591 103.963Z" fill="#263238"/>
<path d="M155.993 100.237C155.993 100.237 155.896 101.64 155.945 102.27C157.203 102.221 158.462 102.318 159.72 102.608C160.01 102.705 160.01 102.463 159.672 102.27C158.704 101.737 157.59 101.544 156.477 101.689C156.429 101.495 156.671 99.5591 156.574 99.5591C156.09 99.6559 155.606 99.7527 155.122 99.9947C155.267 97.0907 155.896 94.2835 155.993 91.3795C155.993 91.3311 155.945 91.2827 155.896 91.2827C155.848 91.2827 155.8 91.2827 155.8 91.3311C154.928 94.2835 154.686 97.5747 154.493 100.576C154.396 100.963 155.703 100.382 155.993 100.237Z" fill="#263238"/>
<path d="M162.43 96.1223C161.898 95.9287 161.269 95.8803 160.736 95.9771C160.446 96.0255 160.156 96.1707 159.865 96.3643C159.623 96.5579 159.381 96.7999 159.236 97.0903L158.946 97.6227L159.526 97.5743C159.962 97.5259 160.349 97.5259 160.785 97.5743C161.22 97.6227 161.608 97.7679 161.995 98.0099C161.753 97.5743 161.366 97.2839 160.882 97.1387C160.446 96.9935 159.962 96.9451 159.478 96.9935L159.768 97.4775C160.01 97.0419 160.398 96.7515 160.882 96.5579C161.366 96.3159 161.898 96.1707 162.43 96.1223Z" fill="#263238"/>
<path d="M160.736 98.5424C160.301 98.4456 159.865 98.3004 159.478 98.0584C159.381 98.01 159.042 97.7196 159.042 97.6712C159.091 97.4292 159.188 97.2356 159.284 97.042C159.139 97.2356 158.994 97.4292 158.897 97.6712C158.946 97.9132 159.139 98.1552 159.333 98.252C159.817 98.4456 160.301 98.5424 160.736 98.5424Z" fill="#263238"/>
<path d="M157.542 102.172C157.542 102.172 158.365 103.382 159.333 103.528C160.446 103.721 160.591 102.705 159.333 102.124C158.704 101.834 157.542 102.172 157.542 102.172Z" fill="#263238"/>
<path d="M159.333 103.576C158.897 103.479 158.51 103.286 158.22 102.995C158.462 102.657 158.994 102.269 160.156 102.899C160.349 103.286 160.059 103.673 159.333 103.576Z" fill="#FF99BA"/>
<path d="M174.482 97.9619C172.256 98.2523 171.481 93.5575 171.481 93.5575C171.481 93.5575 166.932 93.7995 165.092 87.3139C165.334 89.2499 166.109 91.1375 167.367 92.6379C167.367 92.6379 159.284 92.1539 155.558 85.6199C155.558 85.6199 157.058 88.9595 158.413 90.1211C158.413 90.1211 154.977 89.3467 153.234 86.6847C153.234 86.6847 152.024 90.6535 151.008 91.7667C151.008 91.7667 150.669 77.6823 163.786 78.5535C163.786 78.5535 171.965 78.6987 175.208 85.0391C178.451 91.3795 174.482 97.9619 174.482 97.9619Z" fill="#263238"/>
<path d="M172.401 98.6394C172.401 98.6394 175.111 94.235 177.096 95.1546C179.08 96.0742 177.241 102.366 175.014 103.334C173.901 103.915 172.498 103.479 171.917 102.366C171.917 102.318 171.868 102.318 171.868 102.269L172.401 98.6394Z" fill="#FFC4C0"/>
<path d="M176.515 96.9453C176.563 96.9453 176.563 96.9937 176.515 96.9937C174.966 97.7197 174.24 99.2201 173.756 100.817C174.192 100.188 174.821 99.8493 175.644 100.333C175.692 100.382 175.644 100.43 175.595 100.43C175.014 100.285 174.385 100.527 174.095 101.011C173.804 101.398 173.611 101.834 173.417 102.318C173.369 102.463 173.078 102.415 173.127 102.221V102.173C172.982 100.188 174.385 97.2841 176.515 96.9453Z" fill="#263238"/>
<path d="M173.756 102.657C173.756 102.995 174.095 103.286 174.434 103.237C174.772 103.237 175.063 102.899 175.014 102.56C175.014 102.221 174.676 101.931 174.337 101.979C173.998 101.979 173.756 102.269 173.756 102.657Z" fill="white"/>
<path d="M175.256 101.592C175.256 101.834 175.45 101.979 175.692 101.979C175.934 101.979 176.079 101.785 176.079 101.543C176.079 101.301 175.886 101.156 175.644 101.156C175.45 101.156 175.256 101.35 175.256 101.592Z" fill="white"/>
<path d="M131.206 128.031L124.182 129.663L129.242 151.445L136.267 149.813L131.206 128.031Z" fill="#EBEBEB"/>
<path d="M151.734 103.915C152.883 103.915 153.815 102.983 153.815 101.834C153.815 100.684 152.883 99.7524 151.734 99.7524C150.585 99.7524 149.653 100.684 149.653 101.834C149.653 102.983 150.585 103.915 151.734 103.915Z" fill="#F47522"/>
<path d="M114.079 70.2285C97.6712 74.0521 87.4588 90.4113 91.2824 106.819C95.106 123.226 111.465 133.439 127.873 129.615C144.28 125.792 154.444 109.432 150.669 93.0249C146.894 76.6657 130.535 66.4533 114.079 70.2285C114.127 70.2285 114.127 70.2285 114.079 70.2285ZM126.469 123.42C113.498 126.421 100.575 118.386 97.5744 105.415C94.5736 92.4441 102.608 79.5213 115.579 76.5205C128.55 73.5197 141.473 81.5541 144.474 94.5253C147.475 107.448 139.392 120.419 126.469 123.42Z" fill="#A6A6A6"/>
<path d="M128.938 144.716L133.632 143.603C135.278 143.216 136.875 144.232 137.262 145.878L143.312 171.82C143.7 173.466 142.683 175.063 141.038 175.45L136.343 176.563C134.697 176.95 133.1 175.934 132.713 174.288L126.663 148.346C126.276 146.7 127.292 145.103 128.938 144.716Z" fill="#263238"/>
<g opacity="0.3">
<path opacity="0.3" d="M144.474 94.5252C147.475 107.496 139.392 120.419 126.469 123.42C113.546 126.421 100.575 118.338 97.5744 105.415C94.5736 92.444 102.656 79.5212 115.579 76.5204C128.502 73.4712 141.425 81.554 144.474 94.5252C144.474 94.5252 144.474 94.4768 144.474 94.5252Z" fill="white"/>
<path opacity="0.3" d="M145.055 101.301C144.329 114.514 133.1 124.63 119.887 124.001L145.055 101.301Z" fill="#EBEBEB"/>
<path opacity="0.3" d="M133.971 79.6668L99.5104 110.788C98.6392 109.094 98.01 107.255 97.5744 105.416C97.0904 103.286 96.8484 101.108 96.9936 98.8816L122.452 75.8916C126.518 76.1336 130.486 77.4404 133.971 79.6668Z" fill="#EBEBEB"/>
<path opacity="0.3" d="M143.796 92.2021L110.933 121.823C109.481 121.145 108.126 120.371 106.867 119.451L141.812 87.8945C142.635 89.2497 143.312 90.7017 143.796 92.2021Z" fill="#EBEBEB"/>
<path opacity="0.3" d="M136.633 81.6506L101.156 113.643C101.011 113.401 100.817 113.159 100.672 112.917L135.907 81.1182C136.149 81.2634 136.391 81.4086 136.633 81.6506Z" fill="#EBEBEB"/>
<path opacity="0.3" d="M114.369 76.8105L98.6392 90.9917C98.9296 90.3141 99.22 89.6365 99.5588 89.0073L112.336 77.4397C113.014 77.2461 113.692 77.0041 114.369 76.8105Z" fill="#EBEBEB"/>
</g>
<path d="M103.915 104.108C103.915 104.06 103.915 104.06 103.915 104.011C103.818 103.527 103.963 104.447 103.915 104.157C103.866 103.866 103.818 103.431 103.77 103.043C103.673 101.737 103.673 100.43 103.77 99.0746C103.77 98.881 103.818 98.6874 103.818 98.5422C103.818 98.4938 103.77 98.9778 103.818 98.5906L103.866 98.2518C103.915 97.8162 104.012 97.3806 104.06 96.945C104.254 95.977 104.496 95.0574 104.786 94.1378C104.834 93.9442 104.931 93.7022 105.028 93.4602C105.125 93.1698 104.883 93.799 105.076 93.4118L105.222 93.0246C105.415 92.5406 105.657 92.0566 105.899 91.5726C106.141 91.0886 106.432 90.5562 106.77 90.0722C106.916 89.8302 107.061 89.6366 107.206 89.3946C107.448 89.0074 107.109 89.5398 107.303 89.2978L107.593 88.9106C108.464 87.7974 109.481 86.781 110.546 85.8614C110.546 85.8614 110.788 85.6678 110.594 85.813C110.4 85.9582 110.691 85.7646 110.691 85.7162L111.175 85.329C111.514 85.087 111.852 84.845 112.191 84.6514C112.917 84.1674 113.643 83.7318 114.369 83.3446C115.24 82.8122 115.482 81.699 114.95 80.8278C114.418 79.9566 113.304 79.7146 112.433 80.247C107.642 82.8122 103.721 86.8294 101.737 91.9114C100.382 95.3478 99.8492 98.9778 100.091 102.656C100.14 103.479 100.236 104.253 100.382 105.076C100.672 106.044 101.688 106.577 102.656 106.286C103.576 106.044 104.108 105.028 103.915 104.108Z" fill="white"/>
<path d="M105.512 109.287C105.802 110.207 105.27 111.223 104.302 111.514C103.382 111.804 102.366 111.272 102.076 110.304C101.785 109.384 102.318 108.368 103.286 108.077C104.254 107.787 105.222 108.319 105.512 109.287Z" fill="white"/>
<path d="M182.516 124.533C186.872 140.263 188.954 156.09 186.534 164.27C184.985 169.449 181.258 172.982 178.935 174.143C173.417 176.854 155.074 172.982 143.167 170.61C140.215 170.029 147.136 146.41 150.088 147.62C154.444 149.459 167.754 151.976 168.142 152.073C168.916 152.363 170.562 135.23 171.723 125.211C173.32 111.272 180 115.434 182.516 124.533Z" fill="#FFC4C0"/>
<path d="M120.226 143.119C118.919 145.248 120.613 147.184 120.613 147.184C119.5 147.717 118.628 148.636 118.144 149.798C117.37 151.831 120.226 153.96 120.226 153.96C119.209 154.783 118.435 155.896 118.048 157.106C117.515 159.139 120.08 161.656 120.08 161.656C119.548 162.914 119.5 164.318 119.935 165.625C121.194 169.061 126.711 170.174 130.196 170.949C133.681 171.723 144.28 170.562 146.313 170.562L151.347 148.249C151.347 148.249 136.682 140.457 132.471 140.118C128.841 139.876 121.678 140.747 120.226 143.119Z" fill="#FFC4C0"/>
<path d="M120.855 146.846C124.727 146.217 128.55 146.749 132.374 147.039C132.422 147.039 132.422 147.088 132.422 147.088C132.422 147.136 132.374 147.136 132.374 147.136C128.55 146.797 124.678 147.185 120.855 146.991C120.806 146.991 120.758 146.943 120.758 146.894C120.806 146.894 120.806 146.846 120.855 146.846Z" fill="#263238"/>
<path d="M120.371 153.621C121.242 153.573 122.162 153.621 123.033 153.815C123.952 153.96 124.92 154.057 125.84 154.251C127.679 154.589 129.567 154.928 131.406 155.315C131.503 155.315 131.503 155.461 131.406 155.461C129.567 155.17 127.679 154.88 125.84 154.638C124.92 154.541 123.952 154.396 123.033 154.299C122.162 154.251 121.242 154.105 120.419 153.912C120.371 153.863 120.322 153.815 120.322 153.718C120.274 153.67 120.322 153.67 120.371 153.621Z" fill="#263238"/>
<path d="M120.129 161.656C120.903 161.511 121.774 161.801 122.5 161.947C123.372 162.092 124.194 162.237 125.017 162.431C126.711 162.721 128.405 163.011 130.099 163.253C130.196 163.253 130.148 163.399 130.099 163.399C128.357 163.157 126.614 162.963 124.92 162.721C124.049 162.624 123.226 162.479 122.355 162.334C121.629 162.237 120.71 162.14 120.08 161.801C120.129 161.753 120.08 161.705 120.129 161.656Z" fill="#263238"/>
<path d="M125.017 140.795C123.275 141.037 121.242 141.425 120.129 142.925C119.596 143.554 119.354 144.377 119.403 145.2C119.5 145.974 119.887 146.652 120.468 147.136C119.016 147.62 117.999 148.83 117.806 150.33C117.757 151.056 117.999 151.782 118.483 152.363C118.725 152.653 119.016 152.895 119.258 153.137C119.5 153.379 119.838 153.621 120.08 153.863C119.79 154.105 119.5 154.347 119.258 154.638C118.967 154.928 118.725 155.219 118.483 155.557C117.999 156.235 117.757 157.009 117.709 157.784C117.757 158.607 118.048 159.381 118.532 160.01C118.919 160.688 119.5 161.22 120.129 161.607H120.177V161.559C119.645 161.075 119.209 160.543 118.87 159.913C118.435 159.236 118.241 158.51 118.193 157.735C118.241 157.009 118.483 156.283 118.919 155.654C119.112 155.315 119.354 154.977 119.596 154.686C119.838 154.444 120.08 154.154 120.274 153.863C120.274 153.863 119.693 153.234 119.5 152.992C119.306 152.75 119.112 152.46 118.919 152.169C118.532 151.637 118.338 150.959 118.435 150.282C118.532 149.653 118.822 149.072 119.258 148.636C119.645 148.152 120.177 147.765 120.613 147.281C120.661 147.233 120.661 147.184 120.661 147.087C119.693 145.587 119.79 144.135 120.855 143.022C121.387 142.489 122.016 142.054 122.694 141.715C123.468 141.376 124.291 141.086 125.114 140.844C125.114 140.892 125.066 140.795 125.017 140.795Z" fill="#263238"/>
<path d="M157.106 173.32C156.09 172.982 154.977 172.836 153.912 172.594C152.847 172.352 151.782 172.159 150.718 171.917C149.653 171.675 148.54 171.481 147.475 171.288C146.41 171.094 145.394 170.852 144.329 170.755C143.312 170.658 142.296 170.658 141.28 170.804C140.263 170.9 139.247 170.997 138.182 171.046C136.101 171.142 134.02 171.094 131.938 170.9C129.615 170.707 127.292 170.271 125.017 169.69C124.969 169.69 124.969 169.739 125.017 169.739C128.938 171.046 133.1 171.723 137.214 171.675C138.23 171.675 139.247 171.626 140.312 171.53C141.328 171.384 142.344 171.288 143.409 171.288C144.522 171.336 145.587 171.53 146.652 171.772C147.717 171.965 148.782 172.159 149.846 172.352C151.056 172.546 152.266 172.788 153.476 172.982C154.686 173.175 155.896 173.466 157.106 173.514C157.203 173.514 157.203 173.32 157.106 173.32Z" fill="#263238"/>
<path d="M172.159 153.041C170.61 152.508 168.964 152.17 167.367 151.782C165.77 151.395 164.173 151.056 162.576 150.669C159.526 149.992 156.429 149.411 153.38 148.54C152.605 148.298 151.782 148.056 151.008 147.814C150.621 147.668 150.234 147.523 149.846 147.33C149.459 147.136 149.024 147.039 148.636 146.846C148.588 146.797 148.54 146.894 148.588 146.894C148.878 147.088 149.169 147.33 149.508 147.475C149.846 147.62 150.185 147.862 150.572 148.007C151.25 148.298 151.879 148.588 152.557 148.782C153.96 149.266 155.461 149.604 156.913 149.943C160.107 150.669 163.302 151.395 166.496 152.073C167.416 152.266 168.287 152.46 169.206 152.654C170.126 152.847 171.094 153.041 172.062 153.138C172.11 153.138 172.159 153.138 172.159 153.089C172.207 153.089 172.207 153.041 172.159 153.041Z" fill="#263238"/>
<path d="M167.125 147.185L189.244 150.186C189.244 150.186 185.178 127.196 180.919 119.548C176.66 112.046 171.965 116.983 170.223 126.082C168.19 136.198 167.125 147.185 167.125 147.185Z" fill="#1A345F"/>
<path d="M187.598 146.846C186.969 146.7 186.34 146.604 185.711 146.458C185.082 146.313 184.501 146.216 183.872 146.12C182.613 145.926 181.403 145.732 180.145 145.587C177.676 145.248 175.256 144.861 172.788 144.619C171.384 144.474 169.981 144.232 168.577 144.135C168.577 144.135 168.529 144.135 168.529 144.184C168.529 144.184 168.529 144.232 168.577 144.232C170.997 144.813 173.514 145.248 175.982 145.636C178.451 146.023 180.919 146.41 183.388 146.7C184.065 146.749 184.791 146.846 185.469 146.894C186.146 146.942 186.921 146.991 187.598 146.991C187.647 146.991 187.695 146.942 187.695 146.894C187.647 146.894 187.647 146.846 187.598 146.846Z" fill="#263238"/>
<path d="M166.254 105.076C167.403 105.076 168.335 104.145 168.335 102.995C168.335 101.846 167.403 100.914 166.254 100.914C165.105 100.914 164.173 101.846 164.173 102.995C164.173 104.145 165.105 105.076 166.254 105.076Z" fill="#F47522"/>
</svg>
