<svg width="197" height="197" viewBox="0 0 197 197" fill="none" xmlns="http://www.w3.org/2000/svg">
<path d="M39.0495 130.043L33.8841 130.15L31.2601 130.197C30.3854 130.197 29.5028 130.197 28.6242 130.217H28.4509V130.043L28.4312 125.635V125.434H28.6282L33.8447 125.457C35.5823 125.457 37.3237 125.501 39.0613 125.52H39.1716V125.627C39.1716 126.371 39.1401 127.116 39.1204 127.853L39.0495 130.043ZM39.0495 130.043L39.0061 127.813C39.0061 127.081 38.9628 126.356 38.9549 125.635L39.0613 125.741C37.3237 125.761 35.5823 125.804 33.8447 125.804L28.6282 125.832L28.8252 125.635L28.8015 130.043L28.6282 129.866C29.4871 129.866 30.346 129.866 31.2049 129.886L33.7974 129.933L39.0495 130.043Z" fill="#EBEBEB"/>
<path d="M33.23 135.603L28.0568 135.709L25.4328 135.756C24.5581 135.756 23.6755 135.756 22.7969 135.776H22.6196V135.603V131.194V130.993H22.8166L28.0332 131.017C29.7707 131.017 31.5083 131.06 33.2497 131.08H33.3561V131.202C33.3561 131.946 33.3246 132.691 33.3049 133.428L33.23 135.603ZM33.23 135.603L33.1749 133.373C33.1749 132.64 33.1276 131.915 33.1237 131.194L33.23 131.3C31.4886 131.32 29.751 131.363 28.0135 131.363L22.7969 131.387L22.9939 131.194L22.9703 135.603L22.7969 135.425C23.6558 135.425 24.5148 135.425 25.3737 135.425L27.9662 135.473L33.23 135.603Z" fill="#EBEBEB"/>
<path d="M176.469 73.2206L171.299 73.327L168.675 73.3743C167.797 73.3743 166.918 73.3743 166.036 73.394H165.874V73.2206L165.85 68.8118V68.6108H166.047L171.264 68.6345C173.005 68.6345 174.743 68.6778 176.48 68.6975H176.591V68.8039C176.591 69.5486 176.555 70.2932 176.54 71.03L176.469 73.2206ZM176.469 73.2206L176.413 70.9906C176.413 70.2578 176.37 69.5328 176.362 68.8118L176.469 68.9182C174.731 68.9379 172.994 68.9812 171.252 68.9812L166.036 69.0088L166.233 68.8118L166.213 73.2206L166.036 73.0433C166.898 73.0433 167.753 73.0433 168.616 73.067L171.209 73.1103L176.469 73.2206Z" fill="#EBEBEB"/>
<path d="M170.649 78.7997L165.48 78.9061L162.856 78.9534C161.977 78.9534 161.095 78.9534 160.216 78.9534H160.043V78.7997L160.019 74.3909V74.1899H160.216L165.433 74.2136C167.174 74.2136 168.912 74.2569 170.649 74.2766H170.76V74.383C170.76 75.1277 170.724 75.8723 170.705 76.6091L170.649 78.7997ZM170.649 78.7997L170.594 76.5697C170.594 75.8369 170.551 75.1119 170.543 74.3909L170.649 74.4973C168.912 74.517 167.174 74.5603 165.433 74.5603L160.216 74.5879L160.413 74.3909L160.394 78.7997L160.216 78.6224C161.075 78.6224 161.934 78.6224 162.797 78.6421L165.39 78.6894L170.649 78.7997Z" fill="#EBEBEB"/>
<path d="M164.854 73.2206L159.68 73.327L157.056 73.3743C156.182 73.3743 155.299 73.3743 154.42 73.394H154.247V73.2206L154.227 68.8118V68.6108H154.424L159.641 68.6345C161.379 68.6345 163.12 68.6778 164.858 68.6975H164.964V68.8039C164.964 69.5486 164.932 70.2932 164.913 71.03L164.854 73.2206ZM164.854 73.2206L164.798 70.9906C164.798 70.2578 164.751 69.5328 164.747 68.8118L164.854 68.9182C163.116 68.9379 161.375 68.9812 159.637 68.9812L154.42 69.0088L154.617 68.8118L154.594 73.2206L154.42 73.0433C155.279 73.0433 156.138 73.0433 156.997 73.067L159.59 73.1103L164.854 73.2206Z" fill="#EBEBEB"/>
<path d="M39.0493 27.7729L33.884 27.8793L31.2599 27.9265C30.3852 27.9265 29.5027 27.9265 28.6241 27.9462H28.4507V27.7689L28.4192 23.364V23.1631H28.6162L33.8328 23.1867C35.5703 23.1867 37.3118 23.2301 39.0493 23.2498H39.1596V23.3561C39.1596 24.1047 39.1281 24.8455 39.1084 25.5822L39.0493 27.7729ZM39.0493 27.7729L39.006 25.5428C39.006 24.81 38.9626 24.085 38.9548 23.364L39.0611 23.4704C37.3236 23.4704 35.5821 23.5334 33.8446 23.5334L28.628 23.561L28.825 23.364L28.8014 27.7729L28.6162 27.5798C29.4751 27.5798 30.334 27.5798 31.1929 27.6035L33.7855 27.6468L39.0493 27.7729Z" fill="#EBEBEB"/>
<path d="M29.3845 80.8406C28.4717 79.2773 28.043 77.4784 28.1527 75.6714C28.2623 73.8644 28.9053 72.1305 30.0004 70.689C31.0955 69.2475 32.5934 68.1631 34.3048 67.573C36.0162 66.9828 37.8642 66.9135 39.615 67.3736C41.3659 67.8338 42.9409 68.8028 44.141 70.1582C45.3411 71.5135 46.1122 73.1943 46.357 74.988C46.6018 76.7817 46.3092 78.6076 45.5162 80.235C44.7232 81.8624 43.4654 83.218 41.9019 84.1305C40.8641 84.7368 39.717 85.1326 38.5261 85.2954C37.3353 85.4582 36.124 85.3847 34.9615 85.0792C33.7991 84.7737 32.7082 84.2421 31.7513 83.5148C30.7944 82.7875 29.9901 81.8788 29.3845 80.8406Z" fill="#EBEBEB"/>
<path d="M42.0912 75.9906C41.5593 79.0598 38.8801 81.5814 38.8801 81.5814C38.8801 81.5814 35.2553 80.9313 33.1355 78.6501C31.3704 76.751 31.3547 74.1309 32.9385 73.0868C35.2119 71.5896 37.1465 75.7502 37.1465 75.7502C37.1465 75.7502 36.4964 71.2113 39.2189 71.2232C41.118 71.231 42.5521 73.4335 42.0912 75.9906Z" fill="white"/>
<path d="M153.585 92.9522C153.654 91.442 154.169 89.986 155.065 88.7684C155.961 87.5508 157.198 86.6263 158.619 86.1117C160.041 85.5971 161.583 85.5156 163.051 85.8775C164.518 86.2394 165.846 87.0284 166.865 88.1448C167.885 89.2611 168.55 90.6547 168.778 92.1493C169.005 93.6439 168.784 95.1723 168.143 96.5413C167.501 97.9103 166.469 99.0584 165.175 99.8404C163.881 100.622 162.384 101.003 160.874 100.935C158.849 100.842 156.944 99.9487 155.578 98.4519C154.211 96.9551 153.494 94.977 153.585 92.9522Z" fill="#EBEBEB"/>
<path d="M164.692 95.3123C162.931 97.2232 159.905 97.7748 159.905 97.7748C159.905 97.7748 157.659 95.6787 157.206 93.1178C156.812 90.9862 157.994 89.1423 159.59 89.1265C161.863 89.1068 161.335 92.901 161.335 92.901C161.335 92.901 162.935 89.422 164.838 90.6631C166.17 91.5299 166.166 93.7166 164.692 95.3123Z" fill="white"/>
<path fill-rule="evenodd" clip-rule="evenodd" d="M83.8631 52.0078C83.4415 51.7438 83.0751 51.3616 82.5156 51.4168C82.2989 51.4404 82.3462 51.2631 82.3422 51.1449L82.3186 44.8094C82.3186 44.6558 82.3186 44.5297 82.492 44.443C84.1034 43.6235 84.7969 42.0199 85.7819 40.6488C86.2867 39.9682 86.6491 39.1927 86.8475 38.3689C87.0458 37.545 87.076 36.6896 86.9363 35.8538C86.8693 35.3771 87.0899 35.1643 87.5155 35.0658C87.7306 34.991 87.9641 34.987 88.1817 35.0543C88.3993 35.1217 88.5897 35.2568 88.725 35.4401C89.1901 36.2996 89.5046 37.2324 89.6549 38.1981C89.7494 38.9861 89.4658 39.7741 89.3673 40.5621C89.2964 41.1413 89.1624 41.7165 89.056 42.3036C89.1978 42.406 89.3594 42.3509 89.513 42.3548H94.8675C95.62 42.3548 95.9865 42.5636 96.0928 43.064C96.1497 43.3728 96.1033 43.6917 95.9609 43.9716C95.8185 44.2514 95.588 44.4766 95.3048 44.6124C95.1709 44.6794 94.9108 44.6124 94.9108 44.8291C94.9108 45.0458 95.1433 45.0222 95.2694 45.1049C95.9156 45.5462 95.7973 46.4603 95.0527 46.9922C94.8754 47.1183 94.5247 47.0631 94.5168 47.3271C94.509 47.5911 94.8399 47.532 94.9896 47.6817C95.5097 48.1939 95.2536 49.1552 94.4774 49.5492C94.3704 49.5811 94.2663 49.6219 94.1662 49.6714C94.0756 49.7305 93.9889 49.7975 94.1662 49.9196C94.9542 50.4673 94.9266 51.2356 94.1662 51.799L93.9337 51.9684C93.6514 52.1362 93.3228 52.2093 92.996 52.1772L84.5999 52.2048C84.4701 52.2224 84.3382 52.214 84.2117 52.1802C84.0852 52.1464 83.9667 52.0878 83.8631 52.0078Z" fill="#EBEBEB"/>
<path fill-rule="evenodd" clip-rule="evenodd" d="M75.8924 48.312C75.8924 46.9685 75.8924 45.6289 75.8727 44.2854C75.8727 44.0135 75.9003 43.8914 76.2352 43.8914C77.8689 43.9071 79.5054 43.9071 81.1444 43.8914C81.4635 43.8914 81.5148 43.9977 81.5148 44.2854C81.5148 46.9856 81.524 49.6858 81.5423 52.386C81.5423 52.7327 81.4517 52.8273 81.1089 52.8233C79.5329 52.8233 77.9333 52.8233 76.3455 52.843C75.9515 52.843 75.8963 52.713 75.9003 52.3663C75.916 50.9952 75.8963 49.6438 75.8924 48.312Z" fill="#EBEBEB"/>
<path fill-rule="evenodd" clip-rule="evenodd" d="M113.917 105.221C113.673 105.068 113.456 104.827 113.129 104.875C113.003 104.875 113.031 104.784 113.031 104.713C113.031 103.472 113.031 102.235 113.031 100.994C113.031 100.903 113.031 100.828 113.133 100.777C114.079 100.296 114.489 99.3548 115.068 98.551C115.363 98.1506 115.575 97.695 115.692 97.2111C115.808 96.7273 115.826 96.225 115.745 95.7339C115.702 95.4542 115.832 95.3399 116.084 95.269C116.211 95.226 116.347 95.2242 116.475 95.2638C116.602 95.3035 116.714 95.3825 116.793 95.4897C117.067 95.9971 117.252 96.5474 117.341 97.1169C117.341 97.5869 117.284 98.0553 117.172 98.5116C117.128 98.8505 117.053 99.1893 116.987 99.5321C117.073 99.5912 117.168 99.5597 117.258 99.5636H120.41C120.852 99.5636 121.068 99.6897 121.131 99.9813C121.165 100.162 121.138 100.348 121.057 100.512C120.975 100.676 120.842 100.809 120.678 100.891C120.599 100.931 120.458 100.891 120.446 101.021C120.434 101.151 120.584 101.132 120.659 101.183C121.053 101.439 120.97 101.971 120.529 102.29C120.426 102.365 120.221 102.33 120.217 102.487C120.213 102.645 120.406 102.605 120.493 102.692C120.561 102.779 120.607 102.881 120.629 102.989C120.65 103.098 120.647 103.21 120.618 103.316C120.588 103.423 120.535 103.521 120.462 103.604C120.388 103.686 120.296 103.75 120.194 103.791C120.13 103.81 120.068 103.834 120.008 103.862C119.957 103.898 119.906 103.937 120.008 104.008C120.112 104.059 120.198 104.137 120.259 104.235C120.32 104.332 120.352 104.445 120.352 104.56C120.352 104.674 120.32 104.787 120.259 104.884C120.198 104.982 120.112 105.06 120.008 105.111L119.875 105.21C119.709 105.31 119.515 105.353 119.323 105.332C117.681 105.332 116.037 105.338 114.39 105.351C114.307 105.365 114.221 105.36 114.14 105.337C114.058 105.315 113.982 105.275 113.917 105.221Z" fill="#EBEBEB"/>
<path fill-rule="evenodd" clip-rule="evenodd" d="M109.236 103.047C109.236 102.259 109.236 101.471 109.236 100.683C109.236 100.521 109.236 100.446 109.445 100.446C110.407 100.446 111.368 100.446 112.329 100.446C112.518 100.446 112.55 100.509 112.546 100.675C112.546 102.251 112.553 103.837 112.566 105.434C112.566 105.635 112.511 105.694 112.31 105.69C111.376 105.69 110.442 105.69 109.512 105.69C109.28 105.69 109.248 105.612 109.248 105.411C109.252 104.627 109.24 103.839 109.236 103.047Z" fill="#EBEBEB"/>
<path d="M169.254 48.6041C174.088 44.6998 174.842 37.6162 170.937 32.7823C167.033 27.9485 159.95 27.1949 155.116 31.0992C150.282 35.0034 149.528 42.0871 153.432 46.9209C157.337 51.7548 164.42 52.5084 169.254 48.6041Z" fill="#EBEBEB"/>
<path d="M169.561 47.2143C173.742 43.0338 173.742 36.2558 169.561 32.0752C165.381 27.8947 158.603 27.8947 154.422 32.0752C150.241 36.2558 150.241 43.0338 154.422 47.2143C158.603 51.3949 165.381 51.3949 169.561 47.2143Z" fill="#DBDBDB"/>
<path d="M164.287 49.4065C169.681 48.1405 173.027 42.7418 171.761 37.3483C170.495 31.9548 165.096 28.6089 159.703 29.8749C154.309 31.1409 150.963 36.5395 152.229 41.933C153.495 47.3265 158.894 50.6725 164.287 49.4065Z" fill="white"/>
<path opacity="0.5" d="M171.784 37.5166C167.218 40.2746 159.712 44.8213 155.516 47.3114C154.324 46.3137 153.379 45.0526 152.758 43.6275L166.662 30.7634C167.956 31.4479 169.085 32.4069 169.97 33.5734C170.855 34.74 171.474 36.0857 171.784 37.5166Z" fill="#EBEBEB"/>
<path opacity="0.5" d="M172.017 39.9949C171.979 41.1102 171.755 42.2115 171.355 43.2533L158.845 49.1633C158.3 48.9838 157.773 48.7557 157.269 48.4816C161.044 46.3068 167.947 42.3352 172.017 39.9949Z" fill="#EBEBEB"/>
<path d="M162.088 30.3418H161.895V31.8626H162.088V30.3418Z" fill="#C7C7C7"/>
<path d="M157.419 31.5275L157.252 31.624L158.013 32.9411L158.18 32.8446L157.419 31.5275Z" fill="#C7C7C7"/>
<path d="M153.979 34.9029L153.883 35.0701L155.2 35.8305L155.296 35.6633L153.979 34.9029Z" fill="#C7C7C7"/>
<path d="M154.212 39.5457H152.691V39.7387H154.212V39.5457Z" fill="#C7C7C7"/>
<path d="M155.212 43.4603L153.894 44.2207L153.991 44.3879L155.308 43.6275L155.212 43.4603Z" fill="#C7C7C7"/>
<path d="M158.028 46.3444L157.268 47.6619L157.435 47.7583L158.195 46.4408L158.028 46.3444Z" fill="#C7C7C7"/>
<path d="M162.088 47.4255H161.895V48.9464H162.088V47.4255Z" fill="#C7C7C7"/>
<path d="M165.967 46.3332L165.8 46.4297L166.561 47.7468L166.728 47.6502L165.967 46.3332Z" fill="#C7C7C7"/>
<path d="M168.788 43.4583L168.692 43.6255L170.009 44.3861L170.105 44.219L168.788 43.4583Z" fill="#C7C7C7"/>
<path d="M171.296 39.5457H169.775V39.7387H171.296V39.5457Z" fill="#C7C7C7"/>
<path d="M170.004 34.9093L168.687 35.6699L168.784 35.8371L170.101 35.0764L170.004 34.9093Z" fill="#C7C7C7"/>
<path d="M166.562 31.538L165.803 32.8555L165.97 32.9519L166.73 31.6344L166.562 31.538Z" fill="#C7C7C7"/>
<path d="M162.139 31.0313L162.47 40.3218L161.516 40.31L161.879 31.0273L162.139 31.0313Z" fill="#C7C7C7"/>
<path d="M167.927 36.4055L161.674 40.3928L161.221 39.5575L167.801 36.177L167.927 36.4055Z" fill="#A6A6A6"/>
<path d="M162.328 39.6441C162.328 39.708 162.309 39.7705 162.274 39.8236C162.238 39.8767 162.188 39.9182 162.129 39.9426C162.07 39.9671 162.005 39.9735 161.942 39.961C161.879 39.9485 161.822 39.9178 161.777 39.8726C161.731 39.8274 161.701 39.7698 161.688 39.7072C161.676 39.6445 161.682 39.5795 161.706 39.5205C161.731 39.4615 161.772 39.411 161.825 39.3755C161.879 39.34 161.941 39.321 162.005 39.321C162.091 39.321 162.173 39.3551 162.233 39.4157C162.294 39.4763 162.328 39.5584 162.328 39.6441Z" fill="#C7C7C7"/>
<path d="M19.8733 43.5723L63.9304 43.5723V40.9561L19.8733 40.9561V43.5723Z" fill="#EBEBEB"/>
<path d="M60.5894 43.5723H57.9733V52.2245H60.5894V43.5723Z" fill="#EBEBEB"/>
<path d="M60.5894 43.5723H57.9733V46.2475H60.5894V43.5723Z" fill="#DBDBDB"/>
<path d="M25.8347 43.5723H23.2185V52.2245H25.8347V43.5723Z" fill="#EBEBEB"/>
<path d="M25.8347 43.5723H23.2185V46.2475H25.8347V43.5723Z" fill="#DBDBDB"/>
<path d="M52.796 40.96V24.2859H48.596V40.96H52.796Z" fill="#C7C7C7"/>
<path d="M52.7999 25.2237V23.3916H48.5999V25.2237H52.7999Z" fill="#DBDBDB"/>
<path d="M52.796 28.2536V27.572H48.596V28.2536H52.796Z" fill="#DBDBDB"/>
<path d="M52.7999 38.7696V36.9375H48.0798V38.7696H52.7999Z" fill="#DBDBDB"/>
<path d="M48.6 40.9561V21.5083H45.6647V40.9561H48.6Z" fill="#DBDBDB"/>
<path d="M48.0248 30.8185V23.3364H46.2636V30.8185H48.0248Z" fill="#EBEBEB"/>
<path d="M26.8539 40.9643L40.6846 27.292L38.621 25.2045L24.7903 38.8768L26.8539 40.9643Z" fill="#C7C7C7"/>
<path d="M29.6783 37.3355L34.9993 32.0754L33.7611 30.8229L28.4401 36.083L29.6783 37.3355Z" fill="#DBDBDB"/>
<path d="M45.6686 40.9603V26.1892H40.6845V40.9603H45.6686Z" fill="#A6A6A6"/>
<path d="M45.6686 39.3961V38.021H40.6845V39.3961H45.6686Z" fill="#C7C7C7"/>
<path d="M45.6647 37.1186V36.5828H40.6806V37.1186H45.6647Z" fill="#C7C7C7"/>
<path d="M56.2435 40.9602V27.0757H52.8V40.9602H56.2435Z" fill="#A6A6A6"/>
<path d="M56.2435 39.4864V38.1941H52.8V39.4864H56.2435Z" fill="#C7C7C7"/>
<path d="M56.2396 31.2323V29.9399H52.7961V31.2323H56.2396Z" fill="#C7C7C7"/>
<path d="M56.2396 32.619V32.1187H52.7961V32.619H56.2396Z" fill="#C7C7C7"/>
<path d="M133.617 153.077H177.93L179.357 124.957H132.191L133.617 153.077Z" fill="#EBEBEB"/>
<path d="M174.708 137.853H135.635L135.095 128.05H175.33L174.708 137.853ZM136.005 137.459H174.337L174.936 128.444H135.536L136.005 137.459Z" fill="#DBDBDB"/>
<path d="M174.179 149.081H136.749L136.324 140.224H174.739L174.179 149.081ZM137.143 148.687H173.821L174.325 140.618H136.718L137.143 148.687Z" fill="#DBDBDB"/>
<path d="M159.68 134.031H151.363L151.056 131.627H159.992L159.68 134.031ZM151.71 133.637H159.334L159.543 132.021H151.501L151.71 133.637Z" fill="#DBDBDB"/>
<path d="M159.68 145.855H151.363L151.056 143.451H159.992L159.68 145.855ZM151.71 145.461H159.334L159.543 143.845H151.501L151.71 145.461Z" fill="#DBDBDB"/>
<path d="M139.764 153.077L139.334 156.138L138.467 162.292H136.773V153.077H139.764Z" fill="#EBEBEB"/>
<path d="M139.764 153.077L139.334 156.138H136.773V153.077H139.764Z" fill="#DBDBDB"/>
<path d="M171.788 153.077L172.217 156.138L173.084 162.292H174.774V153.077H171.788Z" fill="#EBEBEB"/>
<path d="M171.788 153.077L172.217 156.138H174.774V153.077H171.788Z" fill="#DBDBDB"/>
<path d="M98.5 178.978C133.899 178.978 162.596 175.918 162.596 172.143C162.596 168.367 133.899 165.307 98.5 165.307C63.1008 165.307 34.4041 168.367 34.4041 172.143C34.4041 175.918 63.1008 178.978 98.5 178.978Z" fill="#EBEBEB"/>
<path d="M16.3037 162.293L36.8547 162.198L57.4018 162.163L98.5 162.096L139.598 162.163L160.145 162.198L180.696 162.293L160.145 162.391L139.598 162.427L98.5 162.49L57.4018 162.423L36.8547 162.391L16.3037 162.293Z" fill="#263238"/>
<path d="M102.621 133.842C102.25 135.199 102.005 136.588 101.888 137.991C101.924 138.058 101.916 138.318 101.888 138.247C101.888 138.475 101.534 138.432 101.534 138.207V137.774C100.746 136.765 99.5638 136.127 98.5945 135.252C97.8285 134.565 97.2703 133.676 96.9831 132.688C96.1951 129.969 96.9358 127.085 95.9862 124.374C95.1667 122.034 93.6971 119.997 92.4402 117.877C91.1282 115.639 90.1629 113.283 90.0762 110.655C90.0014 108.646 90.2378 105.966 91.7704 104.461C93.3937 102.862 95.4071 104.067 96.6482 105.486C100.253 109.619 101.92 114.847 102.594 120.19C102.964 123.149 103.35 126.123 103.263 129.11C103.206 130.705 102.99 132.29 102.621 133.842Z" fill="#FFC727"/>
<path d="M101.904 139.082C102.1 136.292 102.067 133.491 101.806 130.706C101.806 130.706 101.806 130.706 101.806 130.674C101.853 128.409 102.03 126.155 101.944 123.886C101.833 121.433 101.499 118.996 100.947 116.605C100.947 116.577 100.896 116.585 100.903 116.605C101.343 118.955 101.606 121.335 101.691 123.724C101.735 125.005 101.727 126.285 101.66 127.566C101.636 127.979 101.597 128.401 101.569 128.819C100.627 122.46 98.3294 116.379 94.8318 110.986C94.7846 110.915 94.6545 110.986 94.7018 111.069C97.1984 115.167 99.0483 119.626 100.186 124.288C98.4527 121.08 95.8523 118.441 93.8823 115.356C93.8823 115.356 93.8429 115.356 93.8508 115.356C95.5962 118.791 98.4763 121.498 100.316 124.882C100.637 126.261 100.899 127.652 101.104 129.055C101.365 130.976 101.505 132.912 101.522 134.851C100.418 132.919 99.4121 130.934 98.5079 128.901C98.4842 128.846 98.4054 128.901 98.4251 128.941C99.158 131.108 100.147 133.444 101.53 135.292C101.53 136.663 101.494 138.05 101.416 139.405C101.199 143.066 100.572 146.675 100.285 150.319C100.286 150.339 100.294 150.359 100.308 150.373C100.322 150.388 100.341 150.397 100.361 150.4C100.381 150.402 100.402 150.397 100.419 150.386C100.436 150.375 100.448 150.358 100.454 150.339C101.188 146.623 101.673 142.863 101.904 139.082Z" fill="#263238"/>
<path d="M98.0194 110.868C98.0194 110.863 98.0173 110.858 98.0136 110.854C98.0099 110.85 98.0049 110.848 97.9997 110.848C97.9945 110.848 97.9894 110.85 97.9858 110.854C97.9821 110.858 97.98 110.863 97.98 110.868C98.6458 112.716 99.0241 114.587 99.5087 116.482C99.5142 116.498 99.5252 116.512 99.5396 116.52C99.5541 116.529 99.5711 116.532 99.5877 116.529C99.6042 116.526 99.6192 116.518 99.63 116.505C99.6408 116.492 99.6467 116.476 99.6466 116.459C99.3782 114.526 98.83 112.643 98.0194 110.868Z" fill="#263238"/>
<path d="M114.985 118.594C114.54 119.676 114.026 120.729 113.448 121.746C112.247 123.933 110.99 125.934 110.761 128.476C110.726 129.614 110.565 130.745 110.281 131.848C109.966 132.79 109.513 133.679 108.937 134.488C107.633 136.387 106.002 138.034 104.792 140.004C103.534 142.059 102.603 144.298 102.034 146.639C102.003 146.769 101.802 146.734 101.833 146.607C101.833 146.607 101.833 146.588 101.833 146.576C101.831 146.572 101.83 146.567 101.83 146.562C101.83 146.557 101.831 146.553 101.833 146.548C101.64 141.095 102.077 135.595 103.74 130.371C104.474 128.077 105.356 125.833 106.38 123.653C107.218 121.727 108.43 119.986 109.946 118.531C110.962 117.613 113.165 115.883 114.607 116.797C115.312 117.231 115.257 117.928 114.985 118.594Z" fill="#FFC727"/>
<path d="M109.504 130.978C108.542 132.561 107.482 134.083 106.333 135.536C105.805 136.226 105.269 136.911 104.757 137.601C104.508 137.928 104.229 138.251 104 138.601C104.146 138.026 104.284 137.455 104.43 136.88C105.135 134.122 105.813 131.364 106.861 128.692C107.935 126.127 109.201 123.645 110.647 121.269C110.686 121.206 110.584 121.159 110.545 121.222C109.394 123.117 108.224 125.008 107.255 127.01C106.718 128.124 106.251 129.27 105.856 130.442C106.301 127.955 106.922 125.504 107.716 123.105C107.716 123.086 107.692 123.07 107.684 123.105C106.643 125.532 105.992 128.108 105.753 130.737C105.517 131.446 105.3 132.164 105.096 132.881C104.237 135.934 103.484 139.019 102.783 142.112C102.771 140.078 102.948 138.046 103.311 136.044C103.311 136.001 103.248 135.989 103.24 136.044C102.707 138.131 102.528 140.293 102.712 142.439C102.449 143.616 102.186 144.798 101.924 145.985C101.388 148.499 100.742 151.06 100.415 153.613C100.418 153.624 100.424 153.633 100.433 153.64C100.442 153.646 100.453 153.65 100.464 153.65C100.475 153.65 100.486 153.646 100.495 153.64C100.504 153.633 100.51 153.624 100.513 153.613C100.888 152.238 101.116 150.812 101.419 149.417C101.723 148.022 102.046 146.623 102.369 145.233C102.842 143.205 103.334 141.18 103.847 139.157C104.181 138.412 104.835 137.754 105.324 137.136C105.864 136.45 106.4 135.769 106.924 135.075C107.903 133.792 108.781 132.434 109.548 131.013C109.567 130.966 109.532 130.946 109.504 130.978Z" fill="#263238"/>
<path d="M109.737 128.641C108.536 130.172 107.496 131.823 106.632 133.566C106.632 133.59 106.656 133.613 106.671 133.594C107.716 131.955 108.74 130.308 109.784 128.669C109.8 128.645 109.757 128.617 109.737 128.641Z" fill="#263238"/>
<path d="M86.5145 123.783C87.2198 125.001 88.0274 126.462 87.7241 127.924C87.531 128.85 86.8533 129.599 86.7312 130.544C86.4593 132.629 88.5357 134.004 90.0369 134.989C93.7838 137.447 98.9216 139.638 99.6032 144.657C99.6268 144.835 99.9341 144.787 99.9144 144.614C99.9162 144.604 99.9162 144.593 99.9144 144.582C99.9144 144.582 99.9144 144.582 99.9144 144.551C100.407 142.018 100.383 139.411 99.8435 136.888C99.288 134.299 98.1572 131.974 96.8255 129.705C94.5718 125.86 92.1842 121.92 88.7761 118.972C87.8305 118.161 85.8999 116.695 85.1473 118.535C84.3948 120.375 85.6477 122.298 86.5145 123.783Z" fill="#FFC727"/>
<path d="M89.9423 131.935C92.4245 134.622 96.3724 136.131 98.5118 139.141C97.3185 134.557 95.0616 130.319 91.9241 126.77C91.9099 126.751 91.903 126.727 91.9047 126.704C91.9064 126.68 91.9165 126.658 91.9333 126.641C91.95 126.624 91.9723 126.614 91.996 126.612C92.0196 126.611 92.0431 126.618 92.062 126.632C94.3489 128.854 96.1775 131.503 97.4441 134.429C96.8539 132.392 96.0784 130.414 95.1274 128.519C95.0919 128.444 95.1943 128.381 95.2377 128.452C96.4166 130.527 97.2597 132.776 97.7356 135.115C100.553 141.935 100.813 149.933 100.222 157.12C100.222 157.222 100.056 157.226 100.06 157.12C100.222 151.454 100.131 145.694 98.7719 140.177C98.7443 140.059 98.7128 139.945 98.6852 139.831C96.3606 136.588 92.4285 135.103 89.899 132.01C89.8753 131.947 89.9147 131.903 89.9423 131.935Z" fill="#263238"/>
<path d="M89.3671 129.626C90.6712 130.808 91.9556 132.045 93.2598 133.239C93.2598 133.239 93.2598 133.275 93.2598 133.267C91.788 132.274 90.4619 131.08 89.3198 129.721C89.3111 129.713 89.3053 129.702 89.3032 129.69C89.3011 129.678 89.3029 129.666 89.3082 129.656C89.3135 129.645 89.3221 129.636 89.3327 129.631C89.3433 129.626 89.3554 129.624 89.3671 129.626Z" fill="#263238"/>
<path d="M89.1621 124.445C90.3139 126.336 91.6184 128.13 93.0627 129.808C93.0674 129.812 93.0701 129.819 93.0701 129.825C93.0701 129.832 93.0674 129.838 93.0627 129.843C93.058 129.848 93.0516 129.85 93.045 129.85C93.0383 129.85 93.032 129.848 93.0273 129.843C91.4084 128.303 90.0746 126.489 89.0873 124.485C89.082 124.475 89.081 124.463 89.0843 124.452C89.0876 124.442 89.0951 124.433 89.105 124.427C89.1149 124.422 89.1265 124.421 89.1372 124.425C89.1479 124.428 89.1569 124.435 89.1621 124.445Z" fill="#263238"/>
<path d="M95.0289 162.171H106.451L104.91 146.809H96.7901L95.0289 162.171Z" fill="#455A64"/>
<path d="M96.5024 149.307H105.163L104.91 146.809H96.7901L96.5024 149.307Z" fill="#263238"/>
<path d="M95.3873 147.557H106.092V145.103H95.3873V147.557Z" fill="#455A64"/>
<path d="M115.584 82.0348L117.806 82.4446L118.302 84.7928L118.799 82.4446L121.025 82.0348L118.811 81.495L118.302 79.2808L117.798 81.495L115.584 82.0348Z" fill="#FFC727"/>
<path d="M114.556 39.8886L116.778 40.2984L117.274 42.6427L117.771 40.2984L119.997 39.8847L117.782 39.3449L117.274 37.1306L116.77 39.3449L114.556 39.8886Z" fill="#FFC727"/>
<path d="M147.868 69.9074L150.09 70.3172L150.587 72.6615L151.083 70.3172L153.309 69.9035L151.095 69.3637L150.587 67.1494L150.083 69.3637L147.868 69.9074Z" fill="#FFC727"/>
<path d="M132.522 36.4175L133.767 36.646L134.043 37.9541L134.323 36.646L135.564 36.4136L134.326 36.1141L134.043 34.877L133.759 36.1141L132.522 36.4175Z" fill="#FFC727"/>
<path d="M146.347 50.2549L147.589 50.4834L147.868 51.7954L148.144 50.4834L149.385 50.2549L148.148 49.9515L147.868 48.7144L147.585 49.9515L146.347 50.2549Z" fill="#FFC727"/>
<path d="M106.333 66.6411L107.578 66.8736L107.854 68.1817L108.129 66.8736L109.374 66.6411L108.137 66.3377L107.854 65.1006L107.57 66.3377L106.333 66.6411Z" fill="#FFC727"/>
<path d="M111.108 88.1734L112.349 88.4019L112.629 89.7139L112.905 88.4019L114.15 88.1734L112.913 87.87L112.629 86.6328L112.345 87.87L111.108 88.1734Z" fill="#FFC727"/>
<path d="M110.643 34.877L111.888 35.1055L112.164 36.4175L112.44 35.1055L113.685 34.877L112.448 34.5736L112.164 33.3364L111.88 34.5736L110.643 34.877Z" fill="#FFC727"/>
<path d="M149.066 96.396L150.311 96.6245L150.587 97.9326L150.863 96.6245L152.108 96.396L150.871 96.0926L150.587 94.8555L150.303 96.0926L149.066 96.396Z" fill="#FFC727"/>
<path d="M155.106 75.0176L156.347 75.2461L156.627 76.5581L156.907 75.2461L158.148 75.0176L156.911 74.7142L156.627 73.4771L156.343 74.7142L155.106 75.0176Z" fill="#FFC727"/>
<path d="M122.814 31.1772C122.903 31.1866 122.985 31.2286 123.045 31.2952C123.105 31.3617 123.138 31.4482 123.138 31.5378C123.138 31.6274 123.105 31.7138 123.045 31.7804C122.985 31.8469 122.903 31.8889 122.814 31.8983C122.725 31.8889 122.642 31.8469 122.582 31.7804C122.522 31.7138 122.489 31.6274 122.489 31.5378C122.489 31.4482 122.522 31.3617 122.582 31.2952C122.642 31.2286 122.725 31.1866 122.814 31.1772Z" fill="#FFC727"/>
<path d="M152.108 85.179C152.197 85.1883 152.279 85.2303 152.339 85.2969C152.399 85.3634 152.432 85.4499 152.432 85.5395C152.432 85.6291 152.399 85.7155 152.339 85.7821C152.279 85.8487 152.197 85.8907 152.108 85.9C152.019 85.8907 151.936 85.8487 151.876 85.7821C151.816 85.7155 151.783 85.6291 151.783 85.5395C151.783 85.4499 151.816 85.3634 151.876 85.2969C151.936 85.2303 152.019 85.1883 152.108 85.179Z" fill="#FFC727"/>
<path d="M142.963 49.3721C143.058 49.3721 143.149 49.4098 143.217 49.4771C143.284 49.5443 143.322 49.6355 143.322 49.7306C143.322 49.8257 143.284 49.9169 143.217 49.9841C143.149 50.0514 143.058 50.0892 142.963 50.0892C142.868 50.0892 142.777 50.0514 142.71 49.9841C142.642 49.9169 142.604 49.8257 142.604 49.7306C142.604 49.6355 142.642 49.5443 142.71 49.4771C142.777 49.4098 142.868 49.3721 142.963 49.3721Z" fill="#FFC727"/>
<path d="M104.804 74.7615C104.872 74.7615 104.937 74.7885 104.985 74.8365C105.033 74.8845 105.06 74.9497 105.06 75.0176C105.06 75.0855 105.033 75.1506 104.985 75.1987C104.937 75.2467 104.872 75.2737 104.804 75.2737C104.736 75.2737 104.671 75.2467 104.623 75.1987C104.575 75.1506 104.548 75.0855 104.548 75.0176C104.548 74.9497 104.575 74.8845 104.623 74.8365C104.671 74.7885 104.736 74.7615 104.804 74.7615Z" fill="#FFC727"/>
<path d="M114.654 93.4016C114.716 93.4093 114.773 93.4394 114.814 93.4862C114.856 93.533 114.878 93.5933 114.878 93.6557C114.878 93.7182 114.856 93.7785 114.814 93.8253C114.773 93.8721 114.716 93.9022 114.654 93.9099C114.592 93.9022 114.535 93.8721 114.494 93.8253C114.452 93.7785 114.43 93.7182 114.43 93.6557C114.43 93.5933 114.452 93.533 114.494 93.4862C114.535 93.4394 114.592 93.4093 114.654 93.4016Z" fill="#FFC727"/>
<path d="M144.535 45.2153C144.603 45.2153 144.668 45.2423 144.716 45.2903C144.764 45.3384 144.791 45.4035 144.791 45.4714C144.791 45.5394 144.764 45.6045 144.716 45.6525C144.668 45.7005 144.603 45.7275 144.535 45.7275C144.467 45.7275 144.402 45.7005 144.354 45.6525C144.306 45.6045 144.279 45.5394 144.279 45.4714C144.279 45.4035 144.306 45.3384 144.354 45.2903C144.402 45.2423 144.467 45.2153 144.535 45.2153Z" fill="#FFC727"/>
<path d="M126.324 29.2388C126.507 29.2388 126.683 29.3114 126.812 29.4407C126.941 29.57 127.014 29.7454 127.014 29.9283C127.014 30.1111 126.941 30.2865 126.812 30.4158C126.683 30.5451 126.507 30.6178 126.324 30.6178C126.142 30.6178 125.966 30.5451 125.837 30.4158C125.708 30.2865 125.635 30.1111 125.635 29.9283C125.635 29.7454 125.708 29.57 125.837 29.4407C125.966 29.3114 126.142 29.2388 126.324 29.2388Z" fill="#FFC727"/>
<path d="M106.947 172.241C107.814 172.521 132.498 172.202 133.428 171.591C133.787 171.366 133.948 167.765 134.023 163.411C134.023 163.364 133.992 147.324 133.992 147.324L117.897 147.49L118.105 163.573C118.105 163.573 108.712 167.907 107.759 168.695C106.806 169.483 106.081 171.965 106.947 172.241Z" fill="#EB9481"/>
<path d="M114.366 165.264C114.43 165.244 114.462 165.224 114.466 165.204L114.366 165.264Z" fill="#FFC727"/>
<path d="M133.96 165.681C133.873 168.959 133.712 171.406 133.416 171.591C132.486 172.202 107.806 172.521 106.936 172.241C106.065 171.961 106.802 169.483 107.747 168.695C108.204 168.325 110.588 167.119 112.956 165.996C109.453 168.002 106.809 170.763 133.96 165.681Z" fill="#263238"/>
<path d="M133.96 165.681C133.873 168.959 133.712 171.406 133.416 171.591C133.05 171.831 128.936 172.032 124.059 172.162L130.02 166.402C131.262 166.187 132.576 165.946 133.96 165.681Z" fill="#37474F"/>
<path d="M139.058 76.2192C139.058 76.2192 134.89 118.243 134.283 121.427C134.145 122.152 134.523 125.781 134.464 130.847C134.338 141.903 134.047 161.847 134.047 161.847H118.038C118.038 161.847 117.53 127.293 118.298 120.938C119.067 114.583 123.996 76.2192 123.996 76.2192H139.058Z" fill="#EB9481"/>
<path d="M134.464 130.851C134.433 133.46 134.393 136.564 134.354 139.779L123.996 76.2231H139.058C139.058 76.2231 134.886 118.243 134.283 121.427C134.141 122.14 134.519 125.78 134.464 130.851Z" fill="#263238"/>
<path d="M127.152 173.711C128.038 173.931 152.636 171.863 153.522 171.189C153.861 170.937 153.77 167.336 153.522 162.986C153.522 162.943 151.816 146.986 151.816 146.986L135.993 148.27L137.656 164.274C137.656 164.274 128.594 169.278 127.699 170.121C126.805 170.964 126.269 173.498 127.152 173.711Z" fill="#EB9481"/>
<path d="M153.522 171.189C152.636 171.863 128.038 173.947 127.152 173.711C126.265 173.474 126.821 170.953 127.711 170.125C128.223 169.641 131.438 167.761 134.078 166.284C130.619 168.557 124.027 173.494 153.613 164.519C153.79 168.151 153.822 170.968 153.522 171.189Z" fill="#263238"/>
<path d="M137.467 162.482L153.353 161.3C153.353 161.3 149.228 124.264 149.137 121.9C149.007 118.417 147.679 103.685 146.276 92.0384C146.276 92.0384 147.813 83.6384 143.956 76.2075H123.98C123.98 76.2075 125.32 85.2695 127.609 91.018C129.149 91.5583 130.636 92.2375 132.053 93.0471C132.053 93.0471 133.696 119.358 133.771 122.597C133.917 129.004 137.467 162.482 137.467 162.482Z" fill="#EB9481"/>
<path d="M123.98 76.2075C123.98 76.2075 117.676 119.153 117.42 123.137C117.164 127.12 117.31 128.212 117.31 128.212C117.31 128.212 126.131 130.97 130.745 131.005C141.009 131.1 150.764 127.242 150.764 127.242C150.764 127.242 146.596 92.1448 146.568 92.0581C147.647 86.6685 146.866 81.0724 144.354 76.1838L123.98 76.2075Z" fill="#37474F"/>
<path d="M124.898 76.2075L121.872 102.799L120.276 116.675L119.882 120.146C119.76 121.305 119.614 122.463 119.54 123.621C119.465 125.363 119.469 127.108 119.508 128.854C119.465 127.112 119.449 125.367 119.508 123.625C119.583 122.463 119.721 121.305 119.843 120.146L120.237 116.671L121.785 102.791L124.898 76.2075Z" fill="#455A64"/>
<path d="M149.625 127.656C149.172 124.949 148.837 122.219 148.467 119.492C148.065 116.432 147.679 113.367 147.309 110.296C146.544 104.166 145.821 98.031 145.138 91.8925C145.421 90.5346 145.56 89.1505 145.552 87.7634C145.515 86.3757 145.383 84.9922 145.158 83.6225C144.924 82.2547 144.619 80.9001 144.243 79.5643C143.92 78.4295 143.566 77.3027 143.144 76.1956C143.57 77.2988 143.932 78.4256 144.255 79.5603C144.635 80.8972 144.944 82.2531 145.181 83.6225C145.409 84.9919 145.54 86.3756 145.575 87.7634C145.594 89.1552 145.462 90.5449 145.181 91.9083L147.356 110.288C147.726 113.358 148.097 116.427 148.491 119.488C148.849 122.215 149.18 124.945 149.625 127.656Z" fill="#455A64"/>
<path d="M131.103 76.1995L130.02 103.646L129.409 118.066L129.256 121.671C129.204 122.853 129.133 124.07 129.141 125.272C129.141 127.152 129.177 129.035 129.232 130.914C129.173 129.035 129.13 127.155 129.126 125.276C129.126 124.074 129.181 122.873 129.228 121.671L129.366 118.066L129.937 103.649L131.119 76.2034L131.103 76.1995Z" fill="#455A64"/>
<path d="M147.025 128.487L145.256 111.108C144.602 104.707 143.965 98.3016 143.345 91.8925C143.436 90.5211 143.424 89.1449 143.31 87.7752C143.219 86.4002 143.05 85.0172 142.861 83.6737C142.671 82.3301 142.435 80.9551 142.179 79.5997C141.962 78.4611 141.73 77.3224 141.474 76.1956C141.734 77.3224 141.966 78.4611 142.187 79.5997C142.447 80.9511 142.683 82.3065 142.88 83.6697C143.077 85.033 143.251 86.4002 143.349 87.7713C143.464 89.1434 143.478 90.5222 143.392 91.8965C144.046 98.3003 144.687 104.704 145.315 111.108L147.025 128.487Z" fill="#455A64"/>
<path d="M126.494 76.2034L124.386 103.48L123.275 117.625L123.015 121.171C122.971 121.758 122.932 122.353 122.9 122.94L122.857 124.713L122.743 129.705L122.845 124.717L122.885 122.944C122.916 122.353 122.952 121.762 122.995 121.171L123.247 117.625L124.311 103.476L126.474 76.2034H126.494Z" fill="#455A64"/>
<path d="M128.795 76.1995L127.136 103.488L126.23 117.636L126.001 121.182C125.942 122.364 125.828 123.546 125.816 124.728C125.769 126.62 125.773 128.511 125.816 130.398C125.777 128.511 125.769 126.624 125.816 124.732C125.816 123.55 125.934 122.368 125.997 121.186L126.21 117.64L127.073 103.488L128.814 76.2034L128.795 76.1995Z" fill="#455A64"/>
<path d="M132.963 118.2C132.963 120.564 132.908 122.967 132.94 125.351C132.963 127.227 132.991 129.098 133.034 130.97C132.991 129.098 132.951 127.223 132.928 125.347C132.884 122.964 132.928 120.58 132.928 118.196L133.007 103.898L133.239 76.2075L133.085 103.898L132.963 118.2Z" fill="#455A64"/>
<path d="M144.129 129.275L142.628 111.62C142.076 105.158 141.542 98.6956 141.024 92.2313C141.037 91.5344 141.012 90.8374 140.95 90.1431C140.898 89.4458 140.839 88.7484 140.772 88.055C140.642 86.6641 140.504 85.2733 140.351 83.8825C140.079 81.3215 139.779 78.7605 139.472 76.1956C139.787 78.7539 140.087 81.3162 140.37 83.8825C140.528 85.2694 140.674 86.6589 140.808 88.051C140.875 88.7484 140.934 89.4418 140.989 90.1392C141.054 90.8359 141.082 91.5356 141.072 92.2353C141.618 98.6969 142.156 105.157 142.687 111.616L144.129 129.275Z" fill="#455A64"/>
<path d="M140.532 130.059L139.153 103.267L138.814 96.2661L138.641 92.7674L138.428 89.2647L137.64 76.1721L138.483 89.2647L138.708 92.7635L138.885 96.2661L139.251 103.264L140.532 130.059Z" fill="#455A64"/>
<path d="M136.742 130.65H136.738L136.04 103.5L135.422 76.1956L136.127 103.5L136.742 130.65Z" fill="#455A64"/>
<path d="M134.039 40.8146C136.458 43.021 137.289 46.7837 137.289 46.7837C137.289 46.7837 139.681 50.511 139.149 52.611C139.01 53.2071 138.729 53.7607 138.33 54.2246C137.93 54.6884 137.425 55.0486 136.856 55.2744L137.025 54.1161C137.025 54.1161 136.344 55.6212 133.873 56.3264C131.403 57.0317 128.082 56.4092 126.332 55.6172C125.294 55.1532 124.394 54.4283 123.72 53.5133L124.433 55.1523C123.618 55.0973 122.829 54.8415 122.137 54.4077C121.445 53.9739 120.871 53.3756 120.466 52.6661C118.921 50.1603 122.881 46.2833 123.196 45.4717C123.511 44.6601 123.7 38.8407 129.843 39.5617C129.851 39.5775 132.384 39.2977 134.039 40.8146Z" fill="#263238"/>
<path d="M137.731 55.0851C138.41 54.6685 138.947 54.0539 139.267 53.3239C139.618 52.6108 139.72 51.8005 139.555 51.0229C139.289 50.1123 138.862 49.2569 138.294 48.4974C137.762 47.6857 137.167 46.9214 136.647 46.09C136.62 46.0428 136.687 46.0034 136.722 46.0388C137.295 46.6497 137.83 47.2944 138.326 47.9694C138.829 48.5823 139.26 49.2513 139.61 49.9631C139.943 50.6183 140.08 51.3557 140.004 52.0867C139.909 52.6806 139.673 53.2428 139.314 53.7258C138.868 54.2593 138.355 54.7322 137.786 55.1323C137.731 55.1599 137.691 55.1048 137.731 55.0851Z" fill="#263238"/>
<path d="M119.843 50.038C120.481 47.871 122.341 46.4329 123.428 44.522C124.019 43.4858 124.457 42.3471 125.245 41.437C125.264 41.4134 125.308 41.437 125.288 41.4725C124.646 42.292 124.295 43.2533 123.846 44.1792C123.366 45.0989 122.796 45.9687 122.144 46.7757C120.997 48.2808 119.622 50.0577 119.989 52.075C120.158 53.0048 120.757 54.0174 121.73 54.2696C121.77 54.2696 121.75 54.3405 121.73 54.3248C121.345 54.1897 120.991 53.9775 120.69 53.7011C120.389 53.4247 120.148 53.09 119.981 52.7172C119.615 51.8696 119.566 50.9187 119.843 50.038Z" fill="#263238"/>
<path d="M119.776 50.621C119.676 49.8148 119.827 48.9974 120.209 48.2806C120.638 47.5987 121.209 47.018 121.884 46.5785C122.625 46.0387 123.405 45.5226 123.854 44.6952C123.854 44.6597 123.921 44.6952 123.905 44.7267C123.192 46.09 121.758 46.7716 120.816 47.93C119.741 49.2577 119.823 51.1174 120.662 52.5437C121.198 53.41 121.93 54.1386 122.798 54.6713C122.798 54.6713 122.798 54.7028 122.798 54.6949C121.309 53.8084 119.973 52.4019 119.776 50.621Z" fill="#263238"/>
<path d="M131.537 57.4412C131.048 59.5216 124.142 74.7378 118.72 77.1806C115.604 78.5872 110.344 78.8748 111.857 72.7127C112.861 68.619 121.778 61.1685 126.86 57.0945C128.937 55.4318 132.132 54.9039 131.537 57.4412Z" fill="#EB9481"/>
<path d="M127.412 68.0279L123.011 60.2031C124.697 58.6325 126.476 57.1642 128.338 55.806C131.49 53.4972 133.184 54.5137 131.568 59.5254C130.593 62.5422 129.193 65.405 127.412 68.0279Z" fill="#FFC727"/>
<path d="M124.153 59.557C124.547 60.1007 124.859 60.7035 125.205 61.2788C125.552 61.854 125.863 62.3741 126.175 62.9296C126.821 64.088 127.443 65.2542 128.042 66.4402C128.042 66.4599 128.018 66.4796 128.007 66.4599C127.326 65.3409 126.662 64.2114 126.013 63.0715C125.69 62.508 125.379 61.9328 125.071 61.3576C124.764 60.7823 124.39 60.1756 124.118 59.5767C124.11 59.557 124.141 59.5373 124.153 59.557Z" fill="#263238"/>
<path d="M131.564 59.5255C130.591 62.5425 129.193 65.4054 127.412 68.028L124.011 61.9762L131.742 54.9275C132.356 55.5185 132.384 57.0275 131.564 59.5255Z" fill="#263238"/>
<path d="M124.965 71.1052L123.996 76.2272L144.354 76.1918C144.354 76.1918 140.615 60.6879 135.745 55.5265C133.531 53.1625 131.375 53.5565 129.551 55.0734C129.137 55.4201 124.484 63.2764 123.842 65.9399C123.322 68.1148 124.965 71.1052 124.965 71.1052Z" fill="#FFC727"/>
<path d="M133.275 71.3653C132.556 71.2212 131.83 71.1186 131.1 71.0579C130.733 71.0303 130.371 71.0225 130.004 71.0225C129.831 71.0225 129.654 71.0225 129.48 71.0225C129.307 71.0225 129.086 71.0619 128.901 71.0658V71.0973C129.082 71.0973 129.264 71.1288 129.445 71.1446C129.626 71.1604 129.811 71.1643 129.993 71.1801L131.084 71.251C131.817 71.2943 132.542 71.3455 133.271 71.4125C133.275 71.4169 133.28 71.4199 133.286 71.4213C133.292 71.4227 133.298 71.4223 133.304 71.4203C133.31 71.4183 133.315 71.4146 133.318 71.4098C133.322 71.405 133.324 71.3993 133.325 71.3932C133.325 71.3872 133.324 71.3811 133.321 71.3758C133.318 71.3705 133.314 71.366 133.309 71.3631C133.303 71.3601 133.297 71.3588 133.291 71.3592C133.285 71.3595 133.279 71.3617 133.275 71.3653Z" fill="#263238"/>
<path d="M133.846 58.3397C134.366 60.3964 138.574 75.3369 138.538 76.1052C138.538 76.1052 146.97 81.2272 148.503 76.4085C149.499 73.2565 141.206 60.0103 137.076 56.0309C135.142 54.2027 132.75 54.0254 133.846 58.3397Z" fill="#EB9481"/>
<path d="M144.247 63.8674L135.303 64.6554C134.563 62.4732 133.955 60.2483 133.483 57.9929C132.675 54.1711 134.299 53.0403 138.211 56.5745C140.558 58.7078 142.59 61.1633 144.247 63.8674Z" fill="#FFC727"/>
<path d="M135.185 63.355C135.839 63.221 136.521 63.1816 137.187 63.1028C137.853 63.024 138.456 62.9531 139.09 62.8979C140.414 62.7837 141.73 62.7009 143.057 62.6418C143.063 62.6418 143.068 62.6439 143.071 62.6476C143.075 62.6513 143.077 62.6563 143.077 62.6615C143.077 62.6668 143.075 62.6718 143.071 62.6755C143.068 62.6792 143.063 62.6812 143.057 62.6812C141.757 62.8428 140.453 62.9807 139.149 63.1068C138.499 63.1698 137.849 63.2132 137.199 63.2604C136.549 63.3077 135.855 63.3983 135.185 63.3944C135.18 63.3944 135.175 63.3923 135.171 63.3886C135.168 63.3849 135.166 63.3799 135.166 63.3747C135.166 63.3695 135.168 63.3645 135.171 63.3608C135.175 63.3571 135.18 63.355 135.185 63.355Z" fill="#263238"/>
<path d="M134.902 63.828C134.795 63.5167 134.701 63.2055 134.61 62.8903C134.61 62.8272 134.575 62.7603 134.555 62.6972C134.357 62.338 134.178 61.9685 134.019 61.5901C134.019 61.5901 134.019 61.5664 134.039 61.5901C134.199 61.861 134.345 62.1398 134.476 62.4254C134.333 61.945 134.218 61.457 134.129 60.9636C134.129 60.9636 134.129 60.9636 134.153 60.9636C134.374 61.5822 134.547 62.2126 134.756 62.8391C134.854 63.1385 135.3 64.6396 135.315 64.6396C135.409 64.6333 135.502 64.6333 135.595 64.6396C135.65 64.6396 135.619 64.6633 135.595 64.6672L135.201 64.7578C135.201 64.7578 134.992 64.088 134.902 63.828Z" fill="#263238"/>
<path d="M112.66 58.7059C113.381 57.9179 120.883 55.8494 121.112 57.4175C122.242 65.1124 118.692 74.8638 116.061 77.1806C113.783 79.1821 111.991 76.9363 111.301 75.0411C110.675 73.3075 111.951 59.4939 112.66 58.7059Z" fill="#EB9481"/>
<path d="M112.416 61.1054C112.416 61.1054 112.062 60.3529 111.344 57.2167C110.975 55.0634 111.24 52.849 112.107 50.8438C112.975 48.8386 114.407 47.1293 116.23 45.9246C118.2 44.5771 120.024 45.3809 118.2 47.146C116.924 48.3871 115.931 49.1397 115.631 49.6637C115.631 49.6637 118.342 49.3918 119.382 50.5817C120.291 51.6218 121.124 52.7252 121.876 53.8834C121.697 54.0713 121.505 54.2464 121.301 54.4074C121.301 54.4074 122.27 57.2718 121.25 59.2615L112.416 61.1054Z" fill="#EB9481"/>
<path d="M111.206 55.0695C111.758 54.0412 112.968 51.8821 114.571 50.4637C116.352 48.8877 120.205 46.3227 121.36 47.6466C122.203 48.6197 120.816 49.7269 120.816 49.7269C120.816 49.7269 122.632 49.0059 123.204 50.05C123.724 51.0034 122.601 51.7954 122.601 51.7954C122.601 51.7954 123.783 51.5472 124.102 52.5597C124.496 53.7811 121.963 54.1003 121.289 55.6802C121.139 56.0348 111.206 55.0695 111.206 55.0695Z" fill="#EB9481"/>
<path d="M115.946 52.6621C117.226 51.2222 118.916 50.2077 120.789 49.7544C120.84 49.7544 120.871 49.7544 120.828 49.7938C119.092 50.5532 117.457 51.5232 115.958 52.6818C115.958 52.6818 115.938 52.6739 115.946 52.6621Z" fill="#263238"/>
<path d="M117.57 54.372C118.235 53.6707 120.426 52.1105 122.581 51.7559C122.629 51.7559 122.66 51.7834 122.617 51.7992C120.846 52.4687 119.158 53.3385 117.585 54.3917C117.585 54.3917 117.562 54.372 117.57 54.372Z" fill="#263238"/>
<path d="M112.964 49.2185C113.543 48.312 114.233 47.4809 115.016 46.7442C115.788 45.9733 116.755 45.4282 117.814 45.1682C118.093 45.1021 118.387 45.1298 118.649 45.247C118.787 45.3197 118.891 45.4424 118.941 45.5898C118.992 45.7269 119.012 45.8735 119 46.0193C118.973 46.309 118.859 46.5839 118.673 46.8073C118.502 47.0237 118.306 47.2194 118.09 47.3904C117.696 47.7332 117.302 48.0956 116.908 48.4621L116.336 49.0215C116.149 49.2024 115.973 49.3945 115.808 49.5968L115.659 49.4471C116.281 49.0531 116.904 48.6591 117.542 48.3084C118.173 47.9292 118.831 47.5986 119.512 47.3195C119.875 47.1867 120.264 47.1448 120.647 47.1973C120.846 47.2159 121.039 47.2777 121.212 47.3784C121.384 47.4791 121.533 47.6163 121.648 47.7804C121.753 47.96 121.797 48.1687 121.774 48.3754C121.75 48.572 121.689 48.7621 121.592 48.9349C121.404 49.2628 121.168 49.5603 120.891 49.8174L120.781 49.6401C121.155 49.5131 121.545 49.4363 121.939 49.4116C122.141 49.3972 122.344 49.4105 122.542 49.451C122.75 49.4912 122.943 49.5896 123.097 49.7347C123.244 49.8898 123.343 50.0842 123.381 50.2942C123.43 50.4961 123.43 50.7069 123.381 50.9088C123.26 51.2989 123.015 51.639 122.684 51.8781L122.621 51.7283C122.871 51.6998 123.125 51.7172 123.369 51.7796C123.622 51.8348 123.848 51.9736 124.012 52.1736C124.085 52.2789 124.14 52.3962 124.173 52.5203C124.214 52.6474 124.23 52.7811 124.22 52.9143C124.202 53.0436 124.157 53.1678 124.09 53.2796C124.022 53.3913 123.932 53.4882 123.826 53.5644C123.437 53.8531 123.029 54.1163 122.605 54.3524C122.194 54.5974 121.834 54.9199 121.545 55.3019C121.608 55.6092 121.659 55.9166 121.695 56.2318C121.73 56.5433 121.73 56.8579 121.695 57.1695C121.716 56.8563 121.701 56.5417 121.651 56.2318C121.608 55.9244 121.549 55.6171 121.478 55.3137C121.759 54.9161 122.117 54.5785 122.53 54.3209C122.937 54.0779 123.331 53.8149 123.712 53.5329C123.849 53.4331 123.95 53.2919 124.001 53.13C124.051 52.9682 124.048 52.7944 123.992 52.6345C123.962 52.5267 123.912 52.4252 123.846 52.3351C123.687 52.171 123.489 52.0491 123.271 51.9804C123.053 51.9116 122.822 51.8981 122.597 51.9411L122.302 51.9726L122.538 51.7874C122.832 51.5682 123.047 51.2601 123.153 50.9088C123.194 50.7353 123.194 50.5544 123.153 50.3809C123.117 50.2105 123.037 50.0526 122.92 49.9238C122.777 49.8163 122.615 49.738 122.442 49.6933C122.269 49.6487 122.088 49.6387 121.912 49.6638C121.537 49.691 121.167 49.7665 120.812 49.8884L120.375 50.0341L120.706 49.7111C120.965 49.4689 121.185 49.1885 121.36 48.8797C121.45 48.7417 121.502 48.5829 121.512 48.4186C121.523 48.2543 121.491 48.0902 121.419 47.942C121.32 47.8082 121.193 47.6969 121.048 47.6155C120.903 47.534 120.742 47.4841 120.576 47.4692C120.23 47.4274 119.879 47.4679 119.551 47.5874C118.881 47.8629 118.23 48.1855 117.605 48.5527C116.972 48.9099 116.347 49.2842 115.73 49.6756L115.225 49.9947L115.58 49.5259C115.754 49.3128 115.941 49.1102 116.139 48.9191C116.329 48.73 116.533 48.5251 116.719 48.3596C117.113 47.9893 117.507 47.6307 117.924 47.284C118.131 47.1253 118.319 46.9429 118.484 46.7403C118.65 46.5513 118.756 46.3165 118.787 46.0665C118.797 45.9437 118.781 45.8202 118.74 45.7041C118.724 45.6495 118.697 45.5987 118.662 45.5547C118.626 45.5107 118.581 45.4744 118.531 45.448C118.301 45.3447 118.044 45.3198 117.798 45.377C116.762 45.6226 115.81 46.1394 115.04 46.8742C114.258 47.5715 113.561 48.3584 112.964 49.2185Z" fill="#263238"/>
<path d="M121.297 61.7397C121.276 62.7675 121.2 63.7934 121.068 64.8129C120.942 65.8334 120.761 66.846 120.552 67.8546C120.325 68.8593 120.043 69.851 119.709 70.8254C119.369 71.7981 118.93 72.7329 118.397 73.6149C118.826 72.687 119.192 71.7314 119.492 70.7545C119.792 69.7773 120.054 68.7897 120.28 67.7916C120.513 66.7948 120.674 65.7901 120.859 64.7814C121.045 63.7728 121.163 62.7602 121.297 61.7397Z" fill="#263238"/>
<path d="M132.341 76.2233C128.795 75.0216 125.186 73.2329 122.932 70.0533C122.669 69.7072 122.53 69.2824 122.538 68.8476C121.506 67.441 121.856 66.5309 121.856 66.5309C121.297 64.9234 121.785 64.0408 121.785 64.0408C121.785 64.0408 120.603 62.3781 121.474 61.4877C122.467 60.4869 123.952 63.0204 125.623 63.9147C129.449 65.9635 135.473 67.8075 136.623 68.2882L132.341 76.2233Z" fill="#EB9481"/>
<path d="M128.137 68.7883C127.01 68.2055 125.924 67.5473 124.886 66.8183C123.804 65.9429 122.788 64.9895 121.845 63.9657C121.838 63.9619 121.831 63.9602 121.823 63.9608C121.816 63.9614 121.809 63.9643 121.803 63.9691C121.798 63.9739 121.794 63.9803 121.792 63.9874C121.79 63.9946 121.791 64.0022 121.793 64.0091C123.412 66.1691 125.593 67.8439 128.097 68.8513C128.164 68.8631 128.192 68.8198 128.137 68.7883Z" fill="#263238"/>
<path d="M127.234 71.3139C126.186 70.6441 124.346 69.4582 121.9 66.448C121.9 66.448 121.876 66.448 121.88 66.448C123.166 68.5436 125.009 70.2406 127.203 71.3494C127.262 71.3927 127.305 71.3494 127.234 71.3139Z" fill="#263238"/>
<path d="M126.726 72.622C124.985 71.44 124.039 70.4393 122.562 68.7766C122.562 68.7766 122.534 68.7766 122.542 68.7766C124.019 70.8451 124.792 71.4243 126.695 72.6772C126.758 72.7324 126.793 72.6693 126.726 72.622Z" fill="#263238"/>
<path d="M130.414 66.0896C131.017 66.1605 131.06 65.8453 130.292 65.0849C129.524 64.3245 125.84 61.9644 126.77 60.7509C127.699 59.5374 132.853 62.9415 134.035 64.2969C135.014 65.5518 135.888 66.8854 136.647 68.2842C135.501 67.8271 132.64 66.98 130.414 66.0896Z" fill="#EB9481"/>
<path d="M136.742 68.2565C135.56 68.1186 128.672 74.0011 130.154 74.9545C137.12 79.4422 144.291 79.6825 145.914 79.387C148.026 78.993 148.916 76.4478 148.455 75.12C147.778 73.1934 137.92 68.3944 136.742 68.2565Z" fill="#EB9481"/>
<path d="M145.236 72.3424C141.789 69.679 136.675 68.1621 136.667 68.1581C136.596 68.1187 136.45 68.2172 136.49 68.2409C137.238 68.6349 142.459 70.7388 145.158 72.4251C145.181 72.4409 145.26 72.3621 145.236 72.3424Z" fill="#263238"/>
<path d="M124.654 63.2174C124.254 62.8263 123.834 62.4555 123.397 62.1063C122.963 61.7753 122.522 61.3577 121.982 61.3459C121.855 61.349 121.731 61.3828 121.62 61.4444C121.515 61.5134 121.429 61.6084 121.372 61.7202C121.264 61.968 121.226 62.2404 121.261 62.5082C121.286 62.7826 121.362 63.0499 121.486 63.2962C121.604 63.5461 121.736 63.7894 121.88 64.0251L121.904 64.0645V64.1078C121.776 64.4965 121.719 64.9047 121.734 65.3135C121.747 65.7258 121.832 66.1327 121.986 66.5152V66.5506V66.59C121.917 66.772 121.891 66.9676 121.912 67.1613C121.929 67.3648 121.974 67.565 122.045 67.7562C122.117 67.9487 122.203 68.1357 122.302 68.3157C122.405 68.4965 122.518 68.6714 122.64 68.8397L122.66 68.8673V68.9146C122.623 69.1695 122.67 69.4296 122.794 69.6553C122.913 69.9011 123.051 70.137 123.208 70.3606C123.528 70.8097 123.883 71.2338 124.268 71.6293C123.861 71.2533 123.484 70.8463 123.141 70.4118C122.967 70.1918 122.816 69.9541 122.692 69.7026C122.629 69.5764 122.579 69.4445 122.542 69.3086C122.497 69.1596 122.497 69.0006 122.542 68.8516V68.9264C122.411 68.7577 122.29 68.5814 122.179 68.3985C122.068 68.213 121.973 68.0178 121.896 67.8153C121.817 67.6119 121.768 67.3983 121.75 67.181C121.722 66.954 121.752 66.7237 121.837 66.5112V66.5861C121.672 66.185 121.579 65.7584 121.561 65.3253C121.541 64.8903 121.605 64.4555 121.75 64.0448V64.1275C121.603 63.885 121.472 63.6337 121.356 63.375C121.229 63.1142 121.15 62.8325 121.124 62.5436C121.09 62.2472 121.139 61.9472 121.265 61.6768C121.338 61.5409 121.447 61.4278 121.581 61.3498C121.716 61.2763 121.868 61.2396 122.022 61.2434C122.314 61.2658 122.595 61.371 122.83 61.5468C123.058 61.7109 123.278 61.8872 123.488 62.0748C123.874 62.4136 124.272 62.8076 124.654 63.2174Z" fill="#263238"/>
<path d="M128.582 55.6289C128.582 55.6289 128.349 58.0402 130.087 58.3357C131.825 58.6312 135.17 54.5612 135.17 54.5612C135.17 54.5612 134.039 53.7732 132.018 53.9269C130.709 54.0758 129.493 54.6779 128.582 55.6289Z" fill="#EB9481"/>
<path d="M133.389 54.8093C133.322 55.2033 131.588 57.8943 129.776 57.918C129.185 57.918 128.988 54.7029 128.988 54.7029L128.921 54.4665L127.975 51.1806L131.734 48.4226L132.282 48.0562C132.282 48.0562 132.482 48.9702 132.719 50.1168L132.754 50.2783C132.754 50.3414 132.782 50.4044 132.794 50.4635C132.833 50.6329 132.869 50.8102 132.904 50.9836C132.939 51.1569 132.955 51.2436 132.979 51.3776C133.003 51.5115 133.03 51.6534 133.054 51.7913C133.237 52.7881 133.349 53.7966 133.389 54.8093Z" fill="#EB9481"/>
<path d="M132.731 50.1245C132.451 51.0796 131.966 51.9622 131.31 52.7107C130.654 53.4593 129.843 54.0557 128.933 54.4585L127.987 51.1725L131.746 48.4145L132.293 48.0481C132.293 48.0481 132.494 48.9779 132.731 50.1245Z" fill="#263238"/>
<path d="M122.703 45.6331C121.328 51.4801 124.673 52.9655 125.934 53.261C127.077 53.5289 131.009 54.2972 132.983 48.6236C134.957 42.95 132.672 40.4639 130.087 39.7113C127.502 38.9588 124.082 39.7941 122.703 45.6331Z" fill="#EB9481"/>
<path d="M123.901 44.6167C124.032 44.6256 124.164 44.6256 124.295 44.6167C124.442 44.6392 124.592 44.6114 124.721 44.5379C124.756 44.5066 124.78 44.4647 124.789 44.4184C124.798 44.3722 124.792 44.3243 124.772 44.2818C124.719 44.2042 124.646 44.1422 124.56 44.1021C124.475 44.0619 124.381 44.0451 124.287 44.0533C124.095 44.0399 123.905 44.1005 123.755 44.2227C123.721 44.2526 123.697 44.2924 123.685 44.3365C123.674 44.3807 123.676 44.4273 123.692 44.4701C123.708 44.5128 123.736 44.5498 123.774 44.576C123.811 44.6022 123.856 44.6164 123.901 44.6167Z" fill="#263238"/>
<path d="M127.814 45.5503C127.679 45.5031 127.548 45.4479 127.42 45.3848C127.278 45.3434 127.154 45.2578 127.065 45.1406C127.045 45.0977 127.04 45.0495 127.05 45.0032C127.059 44.957 127.084 44.9153 127.12 44.8845C127.201 44.8362 127.294 44.8108 127.388 44.8108C127.482 44.8108 127.575 44.8362 127.656 44.8845C127.838 44.95 127.989 45.0824 128.078 45.2548C128.092 45.293 128.095 45.3343 128.087 45.3743C128.08 45.4142 128.061 45.4514 128.034 45.4817C128.007 45.5121 127.972 45.5345 127.933 45.5466C127.895 45.5586 127.853 45.5599 127.814 45.5503Z" fill="#263238"/>
<path d="M126.679 46.6614C126.679 46.6614 126.706 46.689 126.702 46.7047C126.592 47.0987 126.537 47.5676 126.868 47.7882C126.868 47.7882 126.868 47.8119 126.868 47.7882C126.435 47.6424 126.513 47.0199 126.679 46.6614Z" fill="#263238"/>
<path d="M127.132 46.3303C127.782 46.4328 127.526 47.729 126.927 47.6345C126.328 47.5399 126.584 46.2436 127.132 46.3303Z" fill="#263238"/>
<path d="M127.372 46.4486C127.471 46.5431 127.558 46.6968 127.692 46.7362C127.825 46.7756 127.991 46.6692 128.121 46.5589H128.141C128.093 46.8071 127.948 47.0435 127.676 47.0277C127.404 47.012 127.282 46.7598 127.282 46.4998C127.282 46.4919 127.333 46.4092 127.372 46.4486Z" fill="#263238"/>
<path d="M124.48 46.1846C124.48 46.1846 124.445 46.1846 124.445 46.2122C124.382 46.6061 124.24 47.0671 123.854 47.1341V47.1577C124.307 47.1774 124.504 46.5746 124.48 46.1846Z" fill="#263238"/>
<path d="M124.201 45.7038C123.562 45.5344 123.271 46.8189 123.862 46.9765C124.453 47.1341 124.737 45.8378 124.201 45.7038Z" fill="#263238"/>
<path d="M123.913 45.704C123.795 45.7473 123.669 45.8498 123.543 45.8301C123.417 45.8104 123.33 45.6449 123.271 45.4873C123.271 45.4873 123.251 45.4873 123.247 45.4873C123.184 45.7316 123.208 46.0074 123.432 46.1059C123.657 46.2044 123.826 46.0231 123.96 45.7946C123.98 45.7789 123.96 45.704 123.913 45.704Z" fill="#263238"/>
<path d="M126.08 50.0064C125.97 50.0891 125.851 50.2034 125.686 50.1955C125.546 50.1686 125.412 50.1151 125.292 50.0379C125.292 50.0379 125.264 50.0379 125.292 50.0379C125.338 50.1256 125.407 50.1992 125.492 50.2512C125.576 50.3032 125.673 50.3315 125.773 50.3334C125.858 50.3247 125.94 50.2904 126.006 50.2349C126.072 50.1793 126.12 50.1052 126.143 50.0221C126.143 50.0221 126.08 49.9945 126.08 50.0064Z" fill="#263238"/>
<path d="M124.701 48.2137C124.701 48.2137 124.492 48.7929 124.433 49.0766C124.433 49.1002 124.496 49.1278 124.591 49.1554C124.824 49.2499 125.078 49.2785 125.326 49.2382C125.574 49.1979 125.806 49.0902 125.997 48.9269C126.025 48.9032 125.997 48.8678 125.966 48.8796C125.554 49.0518 125.098 49.085 124.666 48.9741C124.666 48.8914 125.06 47.9931 125.012 47.9813C124.79 47.9501 124.565 47.9501 124.343 47.9813C124.737 46.7559 125.328 45.6173 125.702 44.388C125.702 44.3407 125.655 44.3171 125.635 44.3525C124.965 45.5639 124.417 46.8388 124 48.1586C123.952 48.328 124.579 48.2374 124.701 48.2137Z" fill="#263238"/>
<path d="M124.658 49.0253C124.764 49.2913 124.936 49.5259 125.158 49.7069C125.281 49.8023 125.432 49.8561 125.587 49.8606C125.93 49.8606 126.021 49.5769 126.033 49.3129C126.038 49.1717 126.028 49.0302 126.001 48.8914C125.579 49.0774 125.108 49.1243 124.658 49.0253Z" fill="#263238"/>
<path d="M125.158 49.707C125.281 49.8023 125.432 49.8561 125.588 49.8606C125.93 49.8606 126.021 49.5769 126.033 49.313C125.864 49.2732 125.687 49.2903 125.529 49.3615C125.37 49.4328 125.24 49.5542 125.158 49.707Z" fill="#FF98B9"/>
<path d="M132.439 49.3839C132.102 49.1241 131.839 48.7813 131.675 48.3889C131.51 47.9966 131.451 47.5683 131.502 47.146C130.576 46.4861 129.843 45.5912 129.378 44.5535C129.378 44.6835 129.492 45.6094 129.559 46.0783C126.013 44.6126 125.45 41.5433 125.45 41.5433C124.606 42.046 123.887 42.733 123.346 43.5527C123.346 43.5527 123.795 41.2754 125.28 40.0067C125.77 39.5597 126.371 39.2511 127.019 39.1126C127.668 38.9742 128.342 39.0108 128.972 39.2187C129.932 39.1879 130.883 39.4169 131.725 39.8815C132.566 40.3461 133.266 41.0291 133.751 41.8585C135.603 44.9593 132.439 49.3839 132.439 49.3839Z" fill="#263238"/>
<path d="M126.868 44.8766C127.394 45.3279 127.985 45.6971 128.621 45.972C127.643 45.4695 126.824 44.704 126.257 43.7616C126.014 43.3577 125.822 42.9249 125.686 42.4732C125.522 41.9853 125.457 41.4698 125.493 40.9563C125.491 40.9503 125.487 40.9451 125.481 40.9414C125.476 40.9378 125.47 40.9358 125.463 40.9358C125.457 40.9358 125.451 40.9378 125.445 40.9414C125.44 40.9451 125.436 40.9503 125.434 40.9563C125.349 41.4584 125.349 41.9712 125.434 42.4732C125.537 42.9692 125.728 43.4427 125.997 43.8719C126.239 44.2457 126.532 44.5839 126.868 44.8766Z" fill="#263238"/>
<path d="M132.345 50.7827C132.25 50.8018 132.154 50.8124 132.057 50.8142C131.963 50.8153 131.868 50.8034 131.777 50.7787C131.657 50.7512 131.545 50.6959 131.45 50.6172C131.374 50.5591 131.306 50.49 131.249 50.4123C131.169 50.302 131.11 50.1778 131.076 50.0459L131.635 48.5053C131.635 48.5053 133.211 46.8426 133.976 47.4258C134.74 48.0089 133.385 50.5581 132.345 50.7827Z" fill="#EB9481"/>
<path d="M133.566 48.1467C133.566 48.1467 133.566 48.1703 133.566 48.1742C132.829 48.3515 132.384 48.9622 132.022 49.569C132.072 49.5057 132.136 49.4542 132.208 49.4179C132.28 49.3816 132.36 49.3615 132.441 49.3588C132.522 49.3562 132.602 49.3712 132.677 49.4027C132.751 49.4342 132.818 49.4816 132.873 49.5414C132.873 49.5414 132.873 49.5808 132.849 49.5729C132.733 49.516 132.601 49.4967 132.473 49.5179C132.346 49.5391 132.228 49.5997 132.136 49.6911C131.989 49.8449 131.857 50.0125 131.742 50.1915C131.702 50.2506 131.592 50.1915 131.628 50.1324C131.738 49.2499 132.605 48.0954 133.566 48.1467Z" fill="#263238"/>
<path d="M132.356 50.4517C132.338 50.5029 132.304 50.5473 132.26 50.5794C132.216 50.6115 132.164 50.6299 132.109 50.6322C132.055 50.6345 132.001 50.6206 131.954 50.5923C131.908 50.5641 131.871 50.5226 131.848 50.4733C131.825 50.4239 131.817 50.3688 131.825 50.315C131.833 50.2611 131.857 50.2109 131.894 50.1707C131.931 50.1304 131.978 50.102 132.031 50.0889C132.084 50.0758 132.14 50.0787 132.191 50.0971C132.226 50.109 132.257 50.1277 132.284 50.1521C132.312 50.1765 132.334 50.2062 132.349 50.2393C132.364 50.2724 132.373 50.3082 132.374 50.3447C132.376 50.3812 132.37 50.4176 132.356 50.4517Z" fill="white"/>
<path d="M92.3891 173.592C91.4789 173.876 65.6719 173.324 64.7027 172.682C64.3323 172.442 64.1944 168.675 64.155 164.125C64.155 163.14 64.155 162.131 64.155 161.095C64.155 159.873 64.155 158.64 64.1826 157.438C64.2496 152.048 64.4111 147.301 64.4111 147.301L81.2113 147.612L81.0182 157.75L80.9473 161.406L80.8015 164.432C80.8015 164.432 90.5885 169.065 91.5774 169.885C92.5664 170.704 93.2953 173.313 92.3891 173.592Z" fill="#AD6359"/>
<path d="M92.3891 173.592C91.4789 173.876 65.6719 173.325 64.7027 172.682C64.3323 172.442 64.1944 168.675 64.155 164.125C64.155 163.14 64.155 162.131 64.155 161.095C64.155 159.873 64.155 158.64 64.1826 157.438L81.0182 157.75L80.9473 161.406L80.8015 164.432C80.8015 164.432 90.5885 169.065 91.5774 169.885C92.5664 170.704 93.2953 173.313 92.3891 173.592Z" fill="white"/>
<path d="M92.4639 173.636C91.8729 173.817 80.8804 173.636 72.8782 173.34C71.0303 173.266 69.3322 173.183 67.969 173.096C66.0896 172.974 64.817 172.848 64.6239 172.702C64.1747 172.403 64.0605 166.879 64.0644 161.052L80.9513 161.367L80.8055 164.408C80.8055 164.408 90.6555 169.065 91.6405 169.889C92.6255 170.712 93.378 173.36 92.4639 173.636Z" fill="#C7C7C7"/>
<path d="M92.1132 172.572C87.7792 172.371 70.2107 171.977 65.9004 172.107C65.8649 172.107 65.8649 172.135 65.9004 172.135C70.2029 172.43 87.7634 172.682 92.1132 172.643C92.1959 172.659 92.1959 172.592 92.1132 172.572Z" fill="#263238"/>
<path d="M81.4399 163.467C79.7378 163.112 77.6378 163.329 76.3179 164.523C76.2666 164.566 76.3179 164.641 76.3888 164.625C78.0356 164.133 79.7302 163.817 81.4438 163.683C81.4689 163.678 81.4914 163.664 81.5074 163.644C81.5234 163.624 81.5319 163.599 81.5315 163.573C81.531 163.548 81.5216 163.523 81.5049 163.503C81.4882 163.484 81.4652 163.471 81.4399 163.467Z" fill="#263238"/>
<path d="M82.6613 164.239C80.9553 163.884 78.8553 164.101 77.5393 165.291C77.4881 165.338 77.5393 165.409 77.6102 165.393C79.2566 164.9 80.9514 164.585 82.6653 164.456C82.6904 164.45 82.7129 164.436 82.7289 164.416C82.7449 164.396 82.7534 164.371 82.7529 164.346C82.7525 164.32 82.7431 164.295 82.7263 164.276C82.7096 164.256 82.6866 164.243 82.6613 164.239Z" fill="#263238"/>
<path d="M83.8826 165.011C82.1765 164.653 80.0765 164.873 78.7408 166.063C78.6896 166.111 78.7408 166.182 78.8118 166.166C80.4599 165.673 82.1558 165.357 83.8707 165.224C83.899 165.226 83.9266 165.216 83.9477 165.197C83.9687 165.178 83.9815 165.152 83.983 165.124C83.9846 165.095 83.9749 165.068 83.9561 165.047C83.9372 165.026 83.9108 165.013 83.8826 165.011Z" fill="#263238"/>
<path d="M85.1039 165.78C83.3979 165.425 81.3018 165.642 79.9819 166.836C79.9307 166.879 79.9819 166.954 80.0528 166.938C81.6983 166.446 83.3916 166.13 85.1039 165.996C85.1291 165.991 85.1519 165.978 85.1682 165.958C85.1846 165.938 85.1935 165.914 85.1935 165.888C85.1935 165.862 85.1846 165.837 85.1682 165.818C85.1519 165.798 85.1291 165.784 85.1039 165.78Z" fill="#263238"/>
<path d="M79.257 173.541C77.0861 173.486 74.8876 173.415 72.8782 173.336C71.0264 173.265 69.3322 173.183 67.9689 173.096C66.0895 172.974 64.8169 172.852 64.6239 172.702C64.2299 172.438 64.092 168.171 64.0723 163.203C67.9019 165.775 75.4274 170.917 79.257 173.541Z" fill="#A6A6A6"/>
<path d="M82.4525 164.223L63.2804 164.243C63.2804 164.243 64.3324 121.084 64.1275 120.079C63.6311 117.68 52.7291 79.6274 52.7291 79.6274L67.8666 79.8875L71.9406 79.9781C71.9406 79.9781 72.5907 86.3136 72.7719 86.9874C75.3053 96.2188 80.2579 111.979 81.2508 117.826C82.9962 127.952 82.4525 164.223 82.4525 164.223Z" fill="#263238"/>
<path d="M81.8338 161.02C78.8434 160.941 68.2487 160.626 64.2614 160.925C64.2299 160.925 64.2299 160.977 64.2614 160.981C65.6247 161.205 78.8394 161.142 81.8338 161.103C81.8426 161.1 81.8503 161.095 81.8558 161.087C81.8613 161.08 81.8642 161.071 81.8642 161.061C81.8642 161.052 81.8613 161.043 81.8558 161.036C81.8503 161.028 81.8426 161.023 81.8338 161.02Z" fill="#37474F"/>
<path d="M65.6285 119.126C65.0572 116.794 60.7863 102.259 59.4821 97.6648C58.178 93.0708 56.9487 88.4649 55.8219 83.8315C55.68 83.2444 55.5343 82.6495 55.3767 82.0742C55.3767 82.023 55.2939 82.0466 55.3018 82.0939C55.7352 84.4264 56.3026 86.7431 56.8542 89.052C57.4058 91.3608 57.9849 93.6618 58.6035 95.9548C59.8407 100.565 61.1908 105.14 62.6538 109.682C63.3827 111.947 64.5884 116.593 65.2306 118.886C65.8728 121.179 64.8366 158.758 64.8918 159.369C64.8972 159.401 64.9139 159.43 64.9388 159.451C64.9637 159.472 64.9951 159.484 65.0277 159.484C65.0602 159.484 65.0917 159.472 65.1166 159.451C65.1415 159.43 65.1581 159.401 65.1636 159.369C65.2464 154.937 66.192 121.431 65.6285 119.126Z" fill="#37474F"/>
<path d="M67.8704 79.8836C67.8704 79.8836 64.1668 120.273 64.1274 120.072C63.6507 117.751 53.3988 81.9678 52.7566 79.7299C52.733 79.659 52.7251 79.6235 52.7251 79.6235L67.8704 79.8836Z" fill="#37474F"/>
<path d="M72.496 175.807C71.5859 176.09 45.7789 175.535 44.8096 174.893C44.4393 174.652 44.3014 170.886 44.262 166.335C44.262 165.354 44.262 164.341 44.262 163.305C44.262 162.088 44.262 160.851 44.2856 159.649C44.3526 154.259 44.5141 149.515 44.5141 149.515L61.3182 149.826L61.1212 159.96L61.0503 163.616L60.9045 166.646C60.9045 166.646 70.6915 171.276 71.6804 172.099C72.6694 172.923 73.4101 175.527 72.496 175.807Z" fill="#AD6359"/>
<path d="M72.496 175.807C71.5859 176.09 45.7789 175.535 44.8096 174.893C44.4393 174.652 44.3014 170.886 44.262 166.335C44.262 165.354 44.262 164.341 44.262 163.305C44.262 162.088 44.262 160.85 44.2856 159.649L61.1212 159.96L61.0503 163.616L60.9045 166.646C60.9045 166.646 70.6915 171.276 71.6804 172.099C72.6694 172.923 73.4101 175.527 72.496 175.807Z" fill="white"/>
<path d="M72.5787 175.846C71.9877 176.027 60.9951 175.866 52.993 175.551C51.1451 175.476 49.447 175.393 48.0837 175.31C46.2043 175.188 44.9317 175.062 44.7387 174.916C44.2895 174.617 44.1752 169.093 44.1792 163.266L61.066 163.577L60.9202 166.619C60.9202 166.619 70.7702 171.276 71.7552 172.103C72.7402 172.93 73.4888 175.558 72.5787 175.846Z" fill="#C7C7C7"/>
<path d="M72.232 174.798C67.898 174.601 50.3256 174.203 46.0152 174.337C45.9798 174.337 45.9798 174.361 46.0152 174.365C50.3177 174.656 67.8783 174.908 72.2281 174.873C72.3187 174.869 72.3226 174.806 72.232 174.798Z" fill="#263238"/>
<path d="M61.5546 165.681C59.8525 165.323 57.7525 165.543 56.4326 166.733C56.3814 166.78 56.4326 166.851 56.5035 166.835C58.1516 166.343 59.8475 166.027 61.5625 165.894C61.5907 165.893 61.6174 165.881 61.6366 165.86C61.6558 165.839 61.666 165.812 61.6649 165.783C61.6639 165.755 61.6517 165.729 61.631 165.709C61.6103 165.69 61.5828 165.68 61.5546 165.681Z" fill="#263238"/>
<path d="M62.776 166.449C61.07 166.095 58.97 166.311 57.654 167.505C57.6028 167.549 57.654 167.623 57.725 167.608C59.3664 167.114 61.0557 166.797 62.7642 166.662C62.788 166.657 62.8094 166.644 62.8252 166.626C62.8411 166.608 62.8504 166.584 62.8517 166.56C62.8531 166.536 62.8464 166.512 62.8327 166.492C62.819 166.472 62.7991 166.457 62.776 166.449Z" fill="#263238"/>
<path d="M63.9974 167.222C62.2914 166.867 60.1914 167.084 58.8557 168.274C58.8045 168.321 58.8557 168.396 58.9266 168.376C60.5753 167.889 62.2712 167.578 63.9856 167.45C64.0159 167.452 64.0456 167.441 64.0681 167.421C64.0907 167.4 64.1042 167.372 64.1058 167.342C64.1073 167.311 64.0968 167.282 64.0765 167.259C64.0562 167.237 64.0277 167.223 63.9974 167.222Z" fill="#263238"/>
<path d="M65.2149 167.994C63.5089 167.635 61.4128 167.856 60.0929 169.046C60.0417 169.093 60.0929 169.164 60.1638 169.148C61.8102 168.655 63.505 168.341 65.2188 168.21C65.244 168.205 65.2665 168.191 65.2825 168.171C65.2985 168.151 65.307 168.126 65.3065 168.101C65.306 168.075 65.2966 168.05 65.2799 168.031C65.2632 168.011 65.2402 167.998 65.2149 167.994Z" fill="#263238"/>
<path d="M62.0393 166.177L43.4346 165.835C43.4346 165.835 48.659 98.7326 48.0089 95.1787C46.9451 89.3593 48.1153 84.0482 49.6637 79.5645L68.7806 79.8993C68.7806 79.8993 69.0446 84.9938 67.1179 87.9961C67.1179 87.9961 65.4001 89.0402 64.5648 89.4972L62.0393 166.177Z" fill="#263238"/>
<path d="M61.527 162.876C58.706 162.75 59.5176 162.746 56.6966 162.651C55.3137 162.604 46.2398 162.309 44.9436 162.494C44.916 162.494 44.9121 162.545 44.9436 162.549C46.228 162.793 55.3058 162.943 56.6887 162.943C59.5137 162.982 58.7021 162.943 61.527 162.943C61.532 162.939 61.536 162.934 61.5387 162.928C61.5414 162.922 61.5429 162.916 61.5429 162.909C61.5429 162.903 61.5414 162.897 61.5387 162.891C61.536 162.885 61.532 162.88 61.527 162.876Z" fill="#37474F"/>
<path d="M68.2645 87.2001C66.4673 88.0291 64.7434 89.0084 63.111 90.1275C63.0974 90.1359 63.0877 90.1493 63.084 90.1648C63.0803 90.1803 63.083 90.1967 63.0913 90.2103C63.0997 90.2239 63.1131 90.2336 63.1286 90.2372C63.1441 90.2409 63.1605 90.2383 63.1741 90.23C64.9155 89.308 66.6964 88.4136 68.3827 87.4011C68.5167 87.3223 68.4024 87.141 68.2645 87.2001Z" fill="#37474F"/>
<path d="M65.9596 86.8968C65.8485 87.2466 65.7603 87.6033 65.6956 87.9646C65.6174 88.2451 65.5933 88.5379 65.6247 88.8274C65.6247 88.8826 65.7114 88.8786 65.7389 88.8274C65.8827 88.5588 65.9825 88.2688 66.0344 87.9685C66.129 87.6375 66.2275 87.3066 66.3142 86.9717C66.3231 86.9251 66.3134 86.8768 66.2871 86.8372C66.2608 86.7977 66.2201 86.7701 66.1736 86.7603C66.1272 86.7505 66.0787 86.7593 66.0387 86.7848C65.9987 86.8103 65.9703 86.8506 65.9596 86.8968Z" fill="#37474F"/>
<path d="M65.8295 85.1473C65.8847 84.8479 65.9399 84.5445 65.999 84.2451C66.0581 83.9456 66.1447 83.6225 66.1841 83.3073C66.1841 83.2561 66.2708 83.2758 66.259 83.3073C66.2078 83.6107 66.196 83.922 66.1644 84.2293C66.1329 84.5366 66.1014 84.8439 66.0659 85.1473C65.995 85.7186 65.8887 86.2939 65.7626 86.8533C66.0651 86.8085 66.3535 86.6953 66.6057 86.5224C66.8453 86.2896 67.0064 85.988 67.0667 85.6595C67.1613 85.3167 67.244 84.9661 67.3465 84.6233C67.4738 84.2473 67.5687 83.8611 67.6301 83.4689C67.6301 83.4177 67.7168 83.4334 67.7089 83.4689C67.6216 84.2955 67.4513 85.1113 67.2007 85.9038C67.1433 86.2139 66.977 86.4934 66.7318 86.6918C66.4144 86.8544 66.0672 86.9509 65.7113 86.9755C65.6719 86.9952 65.6089 86.9755 65.6128 86.9243C65.6601 86.3608 65.7232 85.7462 65.8295 85.1473Z" fill="#37474F"/>
<path d="M50.96 95.0012C50.8536 93.6656 50.6605 92.3378 50.5384 91.0061C50.298 88.3229 50.7236 85.6871 51.1688 83.0354C51.2752 82.4208 50.9875 82.7321 50.9797 82.7833C50.4588 85.1544 50.2155 87.578 50.2547 90.0053C50.3256 92.3693 50.6999 94.6821 50.692 97.0382C50.6842 99.3943 50.4556 101.806 50.2586 104.181C50.0616 106.557 49.8646 108.961 49.6637 111.348C48.8757 120.958 48.1192 130.568 47.3549 140.177C47.1421 142.86 46.9609 145.544 46.7323 148.227C46.5038 150.91 46.2083 157.683 46.0586 160.441C46.0586 160.677 46.3974 160.665 46.4211 160.441C46.9175 155.622 47.3194 146.777 47.7173 141.95C48.1153 137.124 48.462 132.384 48.856 127.589C49.25 122.794 49.6125 118.031 49.9868 113.251C50.172 110.86 50.3493 108.468 50.5344 106.081C50.7196 103.693 50.9284 101.317 51.0151 98.9294C51.0697 97.62 51.0512 96.3086 50.96 95.0012Z" fill="#37474F"/>
<path d="M57.6028 82.9883C57.599 82.9817 57.5935 82.9763 57.587 82.9726C57.5804 82.9688 57.573 82.9668 57.5654 82.9668C57.5578 82.9668 57.5504 82.9688 57.5438 82.9726C57.5373 82.9763 57.5318 82.9817 57.528 82.9883C57.4146 83.3008 57.3507 83.6292 57.3388 83.9615C57.2792 84.3174 57.1909 84.6678 57.0749 85.0095C56.8634 85.6993 56.4765 86.3225 55.952 86.818C54.7897 87.866 53.257 88.2324 51.7756 88.5673C51.7204 88.5673 51.7401 88.654 51.7756 88.6579C52.6495 88.7121 53.5255 88.5915 54.3523 88.3033C55.0884 88.0933 55.771 87.7279 56.3538 87.2317C56.9114 86.7211 57.298 86.0511 57.461 85.3129C57.5434 84.9238 57.5922 84.5283 57.6068 84.1309C57.6068 83.9418 57.6068 83.7369 57.6068 83.5635C57.6408 83.3732 57.6394 83.1782 57.6028 82.9883Z" fill="#37474F"/>
<path d="M65.2819 57.13C66.7476 61.7319 75.0176 72.89 78.607 73.9459C81.2034 74.7339 92.0424 69.6592 95.0959 67.701C98.043 65.8138 91.0337 57.1261 89.2292 58.115C86.68 59.5098 80.7937 63.8792 79.7338 63.8122C78.9931 63.765 75.0885 60.6602 69.1904 55.1679C65.928 52.1301 64.4072 54.372 65.2819 57.13Z" fill="#AD6359"/>
<path d="M93.2085 55.0141C94.8673 54.5374 96.7309 53.8558 98.5394 53.9937C100.348 54.1316 101.691 56.6098 101.66 57.2914C101.628 57.9731 100.687 62.1928 98.9019 62.0864C97.117 61.98 98.3778 58.7729 98.3306 58.3946C98.2833 58.0164 98.2478 57.5318 97.905 57.5475C97.5622 57.5633 91.408 60.0416 91.408 60.0416L93.2085 55.0141Z" fill="#AD6359"/>
<path d="M93.3071 55.2703C93.4095 55.2703 98.3621 53.6549 100.167 53.7928C101.971 53.9307 103.319 56.4089 103.291 57.0906C103.263 57.7722 102.318 61.9919 100.513 61.8855C98.7088 61.7792 99.9893 58.572 99.9421 58.1938C99.8948 57.8155 99.8593 57.3309 99.5165 57.3467C99.1738 57.3624 93.0392 59.8407 93.0392 59.8407L93.3071 55.2703Z" fill="#AD6359"/>
<path d="M99.9146 61.6216C99.7398 61.2881 99.6569 60.9142 99.6742 60.5381C99.6596 60.15 99.7048 59.762 99.8082 59.3876C99.9283 59.0689 100.022 58.7407 100.088 58.4065C100.104 58.0721 100.036 57.739 99.8909 57.4373C99.7648 57.1733 99.4969 57.2442 99.2645 57.3112C98.9208 57.4226 98.584 57.5541 98.2558 57.7052L97.196 58.1741C96.8246 58.3224 96.4628 58.4934 96.1125 58.6863C96.0849 58.6863 96.1125 58.7493 96.1322 58.7375C96.4512 58.6355 96.7642 58.5158 97.0699 58.379L98.1337 57.985C98.4646 57.8589 98.7917 57.717 99.1226 57.591C99.2726 57.514 99.4386 57.4735 99.6072 57.4728C99.7451 57.5122 99.7924 57.8668 99.8161 57.9692C99.8739 58.2981 99.8328 58.6369 99.6979 58.9424C99.5828 59.2588 99.501 59.5862 99.4536 59.9195C99.4029 60.2333 99.4096 60.5537 99.4733 60.8651C99.5717 61.143 99.704 61.4076 99.8673 61.6531C99.8752 61.6886 99.9382 61.657 99.9146 61.6216Z" fill="#263238"/>
<path d="M87.2986 59.6754C87.2986 59.6754 92.5742 55.4084 93.6696 54.5534C95.8681 52.8592 104.887 49.782 106.12 49.7229C107.353 49.6638 107.649 52.2091 101.518 54.4706C98.2872 55.6526 97.6214 57.4335 97.6214 58.4382C97.6214 59.4429 98.4685 61.3617 100.151 61.4129C101.833 61.4641 103.07 59.0765 104.635 58.8953C106.199 58.714 105.009 61.4838 103.819 63.0559C102.584 64.5704 100.944 65.703 99.091 66.3222C97.6056 66.7831 92.9879 68.4576 92.9879 68.4576L87.2986 59.6754Z" fill="#AD6359"/>
<path d="M102.31 60.3609C101.648 60.814 100.892 61.4089 100.056 61.3892C99.221 61.3695 98.6655 60.7785 98.307 60.0536C97.9039 59.3345 97.7952 58.4872 98.0036 57.6896C98.243 56.9757 98.6818 56.3454 99.2683 55.8732C99.985 55.3 100.781 54.8341 101.632 54.4903C101.668 54.4903 101.632 54.4194 101.601 54.4351C100.813 54.7346 98.3424 55.5777 97.7357 57.6738C97.5336 58.486 97.6506 59.3448 98.0627 60.0733C98.3976 60.7628 98.9019 61.4404 99.7135 61.5547C100.702 61.6965 101.605 60.9361 102.353 60.3727C102.389 60.3648 102.345 60.3373 102.31 60.3609Z" fill="#263238"/>
<path d="M89.0204 58.2253L92.8343 71.8026C92.8343 71.8026 81.495 75.3131 78.3548 74.2375C75.2146 73.1619 67.6498 63.3355 65.1598 57.4964C63.6468 53.9504 65.8217 51.7519 69.6317 55.0497C73.5717 58.4342 79.0561 63.1267 79.4817 63.3237C79.9072 63.5207 89.0204 58.2253 89.0204 58.2253Z" fill="#455A64"/>
<path d="M87.862 66.1409C87.6414 65.1283 86.7903 61.0622 86.6564 60.0378H86.6879C87.007 60.9913 87.9645 64.9786 88.1851 65.9912C88.6761 68.0058 89.0562 70.0459 89.3238 72.1021C89.3238 72.1376 89.2725 72.1573 89.2607 72.1218C88.65 70.1636 88.2875 68.1621 87.862 66.1409Z" fill="#263238"/>
<path d="M65.1598 57.4965C67.1771 62.2245 72.5315 69.5766 76.1563 72.764L67.2559 53.5841C65.0101 52.8513 64.0014 54.7661 65.1598 57.4965Z" fill="#263238"/>
<path d="M48.0681 83.8197L72.5788 83.9615C72.6852 83.8551 73.6426 83.4375 73.3668 79.9073C72.7403 71.8657 70.0572 57.5596 68.3315 54.51C68.0096 53.895 67.5687 53.3502 67.0343 52.9072C66.5 52.4641 65.8829 52.1318 65.2189 51.9294C64.555 51.727 63.8574 51.6587 63.1668 51.7283C62.4762 51.798 61.8063 52.0043 61.1961 52.3351C59.762 53.2295 58.4381 54.3997 56.7715 56.878C52.6818 62.9613 49.2185 73.7175 47.7529 79.6275C47.1264 82.0743 47.9971 83.7488 48.0681 83.8197Z" fill="#455A64"/>
<path d="M65.2149 56.7833C64.7933 56.7085 62.3032 54.1317 61.6689 52.3075C61.6256 52.1814 62.0077 51.0073 62.4096 49.5495C62.646 48.6709 62.8903 47.6859 63.0518 46.7679C63.0834 46.5827 63.6625 47.0358 63.6625 47.0358L64.7973 47.5283L68.556 49.1713C68.0297 50.2578 67.6393 51.4051 67.3937 52.5872C67.3704 52.7172 67.3612 52.8493 67.3661 52.9812C67.368 53.0022 67.368 53.0233 67.3661 53.0443C67.374 53.7653 65.9005 56.9055 65.2149 56.7833Z" fill="#AD6359"/>
<path d="M67.374 52.9695C67.3758 52.9905 67.3758 53.0116 67.374 53.0325C67.174 53.0263 66.9749 53.0026 66.7791 52.9616C62.9297 52.2051 63.3 47.2092 63.3 47.2092L64.8169 47.5402L68.556 49.1713C68.0296 50.2579 67.6393 51.4052 67.3937 52.5873C67.3739 52.7137 67.3673 52.8418 67.374 52.9695Z" fill="#263238"/>
<path d="M70.6639 38.0408C70.6639 38.0408 72.4133 38.9273 72.6064 40.7988C72.7994 42.6703 72.236 44.5536 72.0705 44.6324C71.905 44.7112 70.6639 38.0408 70.6639 38.0408Z" fill="#263238"/>
<path d="M63.1936 40.1882C62.3347 42.1582 62.7523 48.2218 64.0643 49.7072C65.9674 51.8624 69.4109 52.4337 71.3218 50.0736C73.1776 47.7845 72.5038 39.9084 70.9987 38.5255C68.7963 36.5003 64.4583 37.2765 63.1936 40.1882Z" fill="#AD6359"/>
<path d="M68.5757 44.4038C68.5757 44.4038 68.5481 44.4038 68.5481 44.4393C68.5875 44.8333 68.5481 45.3218 68.2014 45.4794V45.5031C68.6545 45.4085 68.6781 44.782 68.5757 44.4038Z" fill="#263238"/>
<path d="M68.1857 44.002C67.5277 44.002 67.5593 45.31 68.1857 45.3179C68.8122 45.3258 68.7373 44.0059 68.1857 44.002Z" fill="#263238"/>
<path d="M70.9436 44.4116C70.9436 44.4116 70.9751 44.4116 70.9751 44.4471C70.9751 44.8411 71.0382 45.3218 71.4125 45.4478V45.4715C70.9554 45.4203 70.8727 44.7977 70.9436 44.4116Z" fill="#263238"/>
<path d="M71.314 43.9744C71.968 43.9074 72.0508 45.2234 71.444 45.2864C70.8372 45.3495 70.7466 44.0296 71.314 43.9744Z" fill="#263238"/>
<path d="M67.6498 43.411C67.8271 43.3598 67.9847 43.2849 68.1581 43.2179C68.3453 43.175 68.513 43.071 68.6348 42.9224C68.6647 42.8689 68.676 42.8068 68.6667 42.7462C68.6574 42.6855 68.6282 42.6297 68.5836 42.5875C68.4821 42.517 68.3636 42.4747 68.2404 42.465C68.1172 42.4553 67.9936 42.4786 67.8823 42.5324C67.6427 42.6082 67.4394 42.7695 67.311 42.9855C67.2833 43.0365 67.2713 43.0944 67.2764 43.1522C67.2815 43.21 67.3035 43.265 67.3396 43.3103C67.3757 43.3557 67.4244 43.3894 67.4796 43.4073C67.5347 43.4252 67.5939 43.4265 67.6498 43.411Z" fill="#263238"/>
<path d="M71.7907 43.2967C71.6125 43.2662 71.4362 43.2254 71.2627 43.1745C71.0701 43.1578 70.8885 43.0774 70.7466 42.946C70.7101 42.897 70.6904 42.8376 70.6904 42.7766C70.6904 42.7155 70.7101 42.6561 70.7466 42.6072C70.8372 42.5234 70.9487 42.4657 71.0693 42.44C71.19 42.4144 71.3153 42.4218 71.4321 42.4614C71.6813 42.5013 71.9064 42.6335 72.0625 42.8317C72.0954 42.8781 72.1143 42.933 72.1168 42.9898C72.1193 43.0466 72.1054 43.1029 72.0767 43.1519C72.048 43.201 72.0057 43.2408 71.955 43.2664C71.9043 43.2921 71.8472 43.3026 71.7907 43.2967Z" fill="#263238"/>
<path d="M68.296 48.202C68.3945 48.2966 68.497 48.4266 68.6428 48.4345C68.7951 48.4283 68.9442 48.3893 69.0801 48.3202C69.0801 48.3202 69.1077 48.3202 69.0801 48.3202C69.0242 48.4024 68.947 48.4678 68.8568 48.5095C68.7665 48.5511 68.6667 48.5674 68.5679 48.5566C68.4837 48.5373 68.4071 48.4932 68.3482 48.43C68.2892 48.3668 68.2505 48.2874 68.2369 48.202C68.2488 48.1981 68.2803 48.1902 68.296 48.202Z" fill="#263238"/>
<path d="M68.694 46.9688C68.8008 47.1281 68.9397 47.2634 69.1019 47.3659C69.2641 47.4683 69.4459 47.5357 69.6357 47.5637C69.8016 47.5873 69.9701 47.5873 70.1361 47.5637H70.2346H70.3212C70.3428 47.5601 70.3625 47.549 70.3769 47.5325C70.3912 47.516 70.3994 47.495 70.4 47.4731C70.402 47.4587 70.402 47.4441 70.4 47.4297V47.3903C70.4 47.0791 70.3567 46.6023 70.3567 46.6023C70.4749 46.6575 71.0659 46.9057 71.0541 46.7442C70.9802 45.3273 70.7637 43.9215 70.4079 42.5481C70.4053 42.5402 70.4003 42.5333 70.3936 42.5285C70.3869 42.5236 70.3788 42.521 70.3705 42.521C70.3622 42.521 70.3541 42.5236 70.3474 42.5285C70.3407 42.5333 70.3356 42.5402 70.3331 42.5481C70.3922 43.8601 70.6798 45.1485 70.7625 46.4644C70.5519 46.3713 70.329 46.309 70.1006 46.2793C70.0573 46.2793 70.1991 47.2012 70.1873 47.3431C69.6709 47.4084 69.1496 47.2668 68.7374 46.9491C68.698 46.9097 68.6664 46.9372 68.694 46.9688Z" fill="#263238"/>
<path d="M69.9469 47.4217C69.7804 47.6502 69.5579 47.832 69.3007 47.9496C69.158 48.0062 69.0019 48.0199 68.8516 47.989C68.5206 47.9102 68.5049 47.595 68.56 47.3547C68.5902 47.2184 68.6365 47.0861 68.6979 46.9607C69.0546 47.2433 69.4921 47.4048 69.9469 47.4217Z" fill="#263238"/>
<path d="M69.3007 47.9497C69.158 48.0063 69.0019 48.02 68.8516 47.9891C68.5206 47.9103 68.5049 47.5951 68.56 47.3547C68.7314 47.3598 68.8964 47.4207 69.0301 47.528C69.1638 47.6354 69.2588 47.7834 69.3007 47.9497Z" fill="#FF98B9"/>
<path d="M63.2527 45.3612C63.954 45.4913 64.5056 43.3597 64.6356 42.5481C64.7499 41.8349 64.7223 39.6128 64.7381 39.4591C64.7538 39.3055 67.9256 41.0627 69.5804 40.3653C71.2352 39.6679 72.2044 38.0013 72.1453 37.2842C72.0862 36.5672 69.7537 34.9833 67.9019 35.1015C66.0501 35.2197 63.8279 37.8595 63.8279 37.8595C64.089 37.4838 64.3208 37.0886 64.5214 36.6775C64.482 36.5987 63.3394 37.2094 63.2251 38.0801C63.2251 38.0801 63.3394 36.9887 63.2448 36.9809C63.1503 36.973 62.3347 37.9856 62.6223 38.6514C62.6223 38.6514 61.6609 39.6995 61.6767 40.7278C61.6925 41.7561 62.4253 45.2076 63.2527 45.3612Z" fill="#263238"/>
<path d="M70.7546 39.8687C70.2796 40.1995 69.7576 40.4572 69.2062 40.6331C68.581 40.7594 67.9345 40.731 67.3229 40.5503C66.7078 40.3821 66.1238 40.1161 65.5932 39.7623C65.1243 39.459 64.6988 39.0807 64.2063 38.8167C64.0803 38.7498 63.966 38.931 64.0487 39.0295C64.9366 40.0164 66.1171 40.693 67.4174 40.9601C68.0214 41.0855 68.6476 41.0511 69.2343 40.8604C69.8209 40.6697 70.3477 40.3292 70.7625 39.8727C70.7625 39.8727 70.7625 39.8648 70.7546 39.8687Z" fill="#263238"/>
<path d="M63.8832 45.2154C63.8832 45.2154 62.7248 43.1666 61.8068 43.5606C60.8888 43.9546 61.6374 46.8387 62.6224 47.3154C62.7449 47.3855 62.8802 47.4301 63.0204 47.4466C63.1605 47.4631 63.3025 47.4511 63.4379 47.4113C63.5733 47.3716 63.6993 47.3049 63.8083 47.2153C63.9173 47.1257 64.0071 47.015 64.0723 46.8899L63.8832 45.2154Z" fill="#AD6359"/>
<path d="M62.0393 44.384C62.0393 44.384 62.0196 44.384 62.0393 44.4077C62.7288 44.7662 63.044 45.4675 63.2449 46.1846C63.2104 46.1087 63.1598 46.0412 63.0966 45.9867C63.0334 45.9323 62.9591 45.8923 62.8789 45.8694C62.7987 45.8466 62.7145 45.8414 62.6321 45.8543C62.5497 45.8673 62.4711 45.8979 62.4018 45.9443C62.3965 45.9443 62.3915 45.9463 62.3878 45.95C62.3841 45.9537 62.3821 45.9587 62.3821 45.964C62.3821 45.9692 62.3841 45.9742 62.3878 45.9779C62.3915 45.9816 62.3965 45.9837 62.4018 45.9837C62.5315 45.957 62.6664 45.9707 62.7882 46.0228C62.91 46.0749 63.013 46.163 63.0834 46.2752C63.1999 46.4651 63.2951 46.6672 63.3671 46.878C63.3946 46.945 63.5128 46.9214 63.4971 46.8465V46.8268C63.6035 45.9127 63.0125 44.5692 62.0393 44.384Z" fill="#263238"/>
<path d="M67.3741 53.0049L65.5695 56.2712L61.8581 51.4368L60.4869 52.6779C60.4869 52.6779 63.8123 60.0457 63.8753 59.7384L65.6365 56.9803L67.4213 59.2734L67.8784 54.112L67.3741 53.0049Z" fill="white"/>
<path d="M67.7679 56.736C67.8152 55.8811 67.8861 55.0221 67.894 54.1632C67.894 54.1356 67.8467 54.1159 67.8349 54.1632C67.567 54.9512 67.4054 58.2332 67.3069 59.0094C67.236 58.9109 65.6443 56.9803 65.6206 57.004C65.2581 57.4334 63.9698 59.4546 63.8752 59.6398C63.3472 58.4578 61.3103 54.2026 60.6602 53.0758C60.6558 53.0707 60.6499 53.0672 60.6434 53.0657C60.6369 53.0642 60.6301 53.0649 60.624 53.0675C60.6178 53.0701 60.6127 53.0746 60.6093 53.0804C60.6059 53.0861 60.6044 53.0928 60.605 53.0994C61.0463 54.3208 63.7294 60.0614 63.7846 60.0535C64.4513 59.108 65.0681 58.1282 65.6324 57.1182C65.8925 57.5122 67.4724 59.6832 67.4921 59.5571C67.6339 58.6223 67.726 57.6806 67.7679 56.736Z" fill="#263238"/>
<path d="M78.5675 71.263C79.2373 71.263 79.7101 71.2315 79.7495 71.2275L79.6589 69.9076C79.6274 69.9076 76.5936 70.1046 75.0333 69.4742C73.7922 68.9699 72.4211 65.4791 71.8144 62.3822C71.4204 60.4122 71.641 59.8133 71.8144 59.6242C71.8498 59.5848 71.9444 59.4706 72.295 59.4706H73.5046C73.8553 60.5265 74.4148 61.5863 75.2579 61.5863H77.7007V60.2822H75.3564C75.0194 59.7861 74.7739 59.2336 74.6315 58.651L74.4975 58.1664H72.295C72.0125 58.1493 71.7298 58.1981 71.4693 58.3088C71.2088 58.4196 70.9776 58.5894 70.7939 58.8047C70.2187 59.4942 70.132 60.6762 70.526 62.6462C70.8423 64.2389 71.312 65.7972 71.9286 67.2993C72.7166 69.1748 73.6031 70.3174 74.5487 70.6996C75.711 71.1724 77.4249 71.263 78.5675 71.263Z" fill="#FFC727"/>
<path opacity="0.2" d="M75.7583 60.2661H77.6968V61.59H76.0577L75.7583 60.2661Z" fill="black"/>
<path opacity="0.2" d="M79.7615 71.2274C79.7103 71.2274 79.2375 71.2628 78.5795 71.2628C78.4692 71.2628 78.3549 71.2628 78.2328 71.2628L77.9373 69.9351C78.8986 69.9666 79.6669 69.9351 79.6827 69.9351L79.7615 71.2274Z" fill="black"/>
<path d="M91.2662 71.2628C90.5964 71.2628 90.1236 71.2312 90.0842 71.2273L90.1748 69.9074C90.2064 69.9074 93.2402 70.1044 94.8004 69.474C96.0415 68.9697 97.4126 65.4788 98.0194 62.382C98.4134 60.412 98.1927 59.8131 98.0194 59.624C97.9839 59.5846 97.8933 59.4703 97.5426 59.4703H96.3331C95.9863 60.5263 95.4229 61.5861 94.5798 61.5861H92.137V60.282H94.501C94.838 59.7859 95.0835 59.2334 95.2259 58.6508L95.3599 58.1662H97.5663C97.8482 58.1497 98.1301 58.1988 98.3898 58.3095C98.6496 58.4203 98.8802 58.5897 99.0635 58.8045C99.6348 59.4979 99.7175 60.6878 99.3275 62.6617C99.0111 64.2544 98.5414 65.8127 97.9248 67.3149C97.1368 69.1903 96.2503 70.3329 95.3047 70.7151C94.1227 71.1721 92.4088 71.2628 91.2662 71.2628Z" fill="#FFC727"/>
<path opacity="0.2" d="M94.0754 60.2661H92.137V61.59H93.776L94.0754 60.2661Z" fill="black"/>
<path opacity="0.2" d="M90.0724 71.2274C90.1236 71.2274 90.5964 71.2628 91.2544 71.2628C91.3647 71.2628 91.4829 71.2628 91.6011 71.2628L91.8966 69.9351C90.9352 69.9666 90.1669 69.9351 90.1512 69.9351L90.0724 71.2274Z" fill="black"/>
<path d="M78.012 84.4736V85.2143H91.8256V84.4736H90.6397L89.761 83.2088L85.7383 81.6092V73.7646H84.0953V81.6092L80.0765 83.2088L79.194 84.4736H78.012Z" fill="#FFC727"/>
<path d="M83.6384 74.8088H86.1915V73.9814H83.6384V74.8088Z" fill="#FFC727"/>
<path opacity="0.2" d="M83.6422 74.5094L86.1914 74.3951V73.9854H83.6422V74.5094Z" fill="black"/>
<path d="M76.4714 57.272C76.4714 57.272 77.1137 67.9612 78.8 70.9201C80.4863 73.8791 84.0796 74.1273 84.9188 74.1273C85.758 74.1273 89.3513 73.8751 91.0337 70.9201C92.7161 67.9651 93.378 57.272 93.378 57.272H76.4714Z" fill="#FFC727"/>
<path opacity="0.3" d="M83.6344 73.9973C82.1805 73.753 80.0056 73.0241 78.8 70.9162C77.1137 67.9612 76.4675 57.272 76.4675 57.272H78.0435C78.2602 59.5178 78.6897 68.0912 79.9071 70.5852C80.9867 72.764 83.465 73.9342 83.6344 73.9973Z" fill="white"/>
<path opacity="0.2" d="M90.6397 84.4736H79.194L79.5092 84.0205L90.0447 83.6187L90.6397 84.4736Z" fill="black"/>
<path opacity="0.1" d="M84.9189 60.6484L85.8251 62.4884L87.8542 62.78L86.3845 64.2141L86.7313 66.2354L84.9189 65.2819L83.1025 66.2354L83.4492 64.2141L81.9796 62.78L84.0087 62.4884L84.9189 60.6484Z" fill="black"/>
<path d="M57.524 56.5076C54.1711 62.8116 47.5046 77.1059 50.5226 79.7851C55.491 84.1821 66.125 87.1056 69.5449 87.6651C71.0224 87.8976 74.7182 76.9089 73.2682 76.2391C71.5268 75.4511 60.7036 72.7758 60.5893 72.2991C60.4751 71.8224 61.4404 64.4506 61.3261 58.7967C61.1764 51.7559 58.9109 53.8835 57.524 56.5076Z" fill="#AD6359"/>
<path d="M67.9966 76.1956C67.9966 76.1956 72.1493 74.3517 74.9231 73.2682C76.4676 72.6654 79.2138 71.8695 80.5534 71.9483C82.5549 72.0626 90.8604 73.8237 90.4743 75.8489C90.1276 77.6771 83.1853 75.2579 83.1853 75.2579C83.1853 75.2579 90.4073 77.0821 89.5838 79.1979C88.7604 81.3137 81.2783 77.547 81.2783 77.547C81.2783 77.547 88.6501 79.588 87.4681 81.6565C86.5658 83.2127 79.5881 80.175 79.5881 80.175C79.5881 80.175 85.9157 81.9717 85.0568 83.6107C84.1033 85.4231 77.4999 83.0236 77.4999 83.0236C74.6079 86.8257 71.7711 87.661 69.5371 87.6531C69.017 87.6492 67.9966 76.1956 67.9966 76.1956Z" fill="#AD6359"/>
<path d="M81.0694 74.5645C86.4909 75.5023 88.8588 77.622 88.7879 77.5786C87.0267 76.5503 84.0599 75.5771 83.2089 75.3171C82.3578 75.057 81.8929 74.8561 81.0576 74.5961C81.0379 74.5921 81.0497 74.5606 81.0694 74.5645Z" fill="#263238"/>
<path d="M79.7417 77.4722C81.9496 77.749 84.0908 78.416 86.0654 79.4422C86.1402 79.4894 86.1048 79.5091 86.022 79.4816C84.9661 79.123 80.7976 77.7913 79.718 77.4879C79.7141 77.4919 79.722 77.4722 79.7417 77.4722Z" fill="#263238"/>
<path d="M78.4258 79.8994C80.1341 80.1523 81.7803 80.7215 83.2799 81.5779C83.3547 81.6173 83.2799 81.6488 83.2168 81.6173C81.6133 81.0302 80.3603 80.5574 78.414 79.9586C78.4061 79.9467 78.4061 79.8916 78.4258 79.8994Z" fill="#263238"/>
<path d="M69.8838 75.057L65.7507 88.1733C65.7507 88.1733 50.956 82.5864 49.447 79.2295C47.938 75.8726 55.2625 59.2537 57.6895 55.7392C60.1165 52.2247 61.2355 53.3752 61.6295 56.9685C62.0235 60.5618 60.7115 72.0784 60.806 72.2793C60.9006 72.4803 69.8838 75.057 69.8838 75.057Z" fill="#455A64"/>
<path d="M61.1172 66.8774C61.1908 66.0158 61.2604 65.1543 61.3261 64.2927C61.3615 63.8436 61.393 63.3944 61.4324 62.9492C61.4324 62.7443 61.4679 62.5355 61.4837 62.3306C61.5 62.2289 61.5105 62.1263 61.5152 62.0233C61.5143 61.8905 61.5302 61.7581 61.5625 61.6293C61.5625 61.6057 61.6058 61.6057 61.6058 61.6293C61.6058 61.8618 61.6491 61.7633 61.6058 61.9445C61.5625 62.1257 61.6058 62.2124 61.6058 62.3385C61.6058 62.5434 61.6058 62.7325 61.6058 62.9571C61.6058 63.3826 61.5743 63.8042 61.5506 64.2258C61.5506 64.2809 61.5506 64.3361 61.5506 64.3952C61.5506 64.3952 61.5506 64.3637 61.5506 64.3479C61.6452 63.879 61.7437 63.4141 61.8422 62.9453H61.8737C61.8304 63.422 61.7673 63.8948 61.6807 64.3637C61.6294 64.6355 61.5585 64.9034 61.4915 65.1517C61.4561 65.7151 61.4246 66.2824 61.3812 66.8459C61.2512 68.5952 61.1094 70.3525 60.8375 72.0861C61.6255 72.3185 62.382 72.5195 63.1463 72.7519C63.9107 72.9844 64.6829 73.2365 65.4473 73.4808C66.2117 73.7251 66.976 73.9694 67.7364 74.2294C68.1028 74.3516 68.4614 74.4816 68.8239 74.6234C69.1863 74.7653 69.6119 74.9426 70.0059 75.0726C70.0492 75.0726 70.0059 75.1435 69.9822 75.1317C69.5685 75.0056 69.143 74.9347 68.7254 74.8165L67.634 74.5052C66.8657 74.2767 66.0974 74.0364 65.3291 73.7921C64.5608 73.5478 63.7925 73.3153 63.0281 73.0632C62.2638 72.811 61.5191 72.5273 60.7548 72.2752C60.7434 72.2713 60.733 72.2651 60.7242 72.2569C60.7154 72.2488 60.7083 72.2389 60.7035 72.2279C60.6871 72.2195 60.6734 72.2064 60.6643 72.1903C60.6552 72.1742 60.6511 72.1557 60.6523 72.1373C60.7548 70.3879 60.9636 68.6346 61.1172 66.8774Z" fill="#263238"/>
<path d="M64.7815 80.6951C65.0928 79.7416 66.3575 75.9434 66.7515 75.0254H66.783C66.5821 75.9749 65.4395 79.7534 65.1282 80.7148C64.5575 82.6351 63.8814 84.5226 63.1031 86.3687C63.1031 86.4002 63.0322 86.3884 63.04 86.3687C63.4931 84.4341 64.1708 82.5705 64.7815 80.6951Z" fill="#263238"/>
<path d="M55.9126 83.8668C54.8293 83.426 53.7763 82.914 52.7606 82.3342C51.733 81.7625 50.7902 81.0504 49.9592 80.2184C49.519 79.7899 49.2137 79.2421 49.0806 78.6424C49.0579 78.4911 49.0487 78.3382 49.053 78.1853C49.053 78.0356 49.053 77.8859 49.053 77.7362C49.0846 77.4446 49.1043 77.1491 49.1397 76.8576C49.321 75.7011 49.571 74.5565 49.8883 73.4298C50.5371 71.1918 51.2949 68.992 52.1617 66.8303C52.5977 65.7507 53.0548 64.6816 53.5328 63.6231C54.0332 62.5711 54.5296 61.5191 55.1088 60.5105C54.6084 61.5625 54.1475 62.6263 53.7101 63.698C53.2728 64.7696 52.8433 65.8531 52.4454 66.9406C51.6377 69.1115 50.8694 71.3061 50.2666 73.5361C49.9364 74.6422 49.6733 75.7671 49.4786 76.9048C49.4431 77.1885 49.4195 77.4722 49.3879 77.7559C49.3721 78.0341 49.3721 78.313 49.3879 78.5912C49.515 79.131 49.7875 79.6256 50.1759 80.0214C50.9647 80.8595 51.8664 81.5836 52.8551 82.1726C53.8405 82.7963 54.8614 83.3619 55.9126 83.8668Z" fill="#263238"/>
<path d="M54.242 61.6689C54.1081 62.2481 53.915 62.7958 53.7614 63.3671C53.7731 63.0699 53.8248 62.7757 53.915 62.4924C54.0007 62.2092 54.1101 61.9338 54.242 61.6689Z" fill="#263238"/>
<path d="M94.0478 31.2754C93.8758 32.9174 93.251 34.4794 92.2432 35.7871C91.2354 37.0948 89.8842 38.0969 88.3402 38.6816C86.7961 39.2662 85.1201 39.4105 83.4989 39.0983C81.8777 38.7862 80.375 38.0298 79.1585 36.9136L74.7024 37.5676L76.9324 33.7104C76.4205 32.4556 76.2015 31.1006 76.292 29.7484C76.3825 28.3963 76.7802 27.0825 77.4548 25.9072C78.1294 24.7319 79.0631 23.7258 80.185 22.9656C81.3069 22.2054 82.5874 21.7111 83.9291 21.5202C85.2708 21.3294 86.6383 21.447 87.9277 21.8641C89.2171 22.2813 90.3944 22.987 91.37 23.9276C92.3456 24.8681 93.0939 26.0188 93.5579 27.2921C94.0219 28.5654 94.1895 29.9277 94.0478 31.2754Z" fill="white"/>
<path d="M94.0478 31.2756C93.876 32.9185 93.2543 34.4823 92.2511 35.7947C92.0064 36.1195 91.7433 36.4299 91.4631 36.7246C91.1646 37.0051 90.8502 37.2682 90.5215 37.5126C89.1938 38.5054 87.6204 39.117 85.9708 39.2816C85.5594 39.3171 85.1461 39.325 84.7336 39.3053C84.3198 39.2934 83.9076 39.2499 83.5004 39.1753C81.8577 38.8728 80.3313 38.1198 79.0915 37.0004L79.194 37.0358L74.7418 37.7175L74.4187 37.7687L74.5802 37.485L76.7985 33.6199V33.7735C76.1484 32.1787 75.9686 30.431 76.2803 28.7372C76.592 27.0434 77.3822 25.4742 78.5575 24.2153C79.7327 22.9563 81.2439 22.0602 82.9123 21.6329C84.5807 21.2055 86.3365 21.2648 87.9723 21.8038C89.2606 22.2409 90.4346 22.9612 91.408 23.9117C92.3767 24.8593 93.1176 26.0144 93.5748 27.29C94.0321 28.5656 94.1938 29.9284 94.0478 31.2756ZM94.0478 31.2756C94.1892 29.9337 94.021 28.5772 93.5559 27.3105C93.0909 26.0438 92.3415 24.9007 91.3653 23.9691C90.3892 23.0375 89.2124 22.3422 87.9254 21.9368C86.6384 21.5313 85.2755 21.4265 83.9417 21.6304C82.6208 21.8302 81.3625 22.3273 80.2617 23.0843C79.1721 23.8533 78.262 24.8493 77.5943 26.0038C76.9369 27.1588 76.5503 28.4479 76.4636 29.774C76.3769 31.1001 76.5925 32.4286 77.094 33.6593L77.1255 33.7381L77.0821 33.809L74.8363 37.6584L74.6787 37.422L79.1428 36.7955H79.2019L79.2452 36.8388C80.4448 37.9435 81.9274 38.6936 83.528 39.0058C83.9268 39.0859 84.3312 39.1346 84.7376 39.1516C85.1442 39.1812 85.5524 39.1812 85.959 39.1516C86.7676 39.0884 87.5634 38.912 88.323 38.6276C89.0928 38.3515 89.8167 37.961 90.4703 37.4692C90.801 37.2275 91.1156 36.9642 91.4119 36.6812C91.7021 36.3918 91.9732 36.0838 92.2236 35.7593C93.2329 34.4612 93.8642 32.9096 94.0478 31.2756Z" fill="#263238"/>
<path d="M84.1426 35.4323L80.3365 31.579L81.6131 30.3142L83.8392 32.564L88.4569 25.3223L89.9738 26.2915L84.1426 35.4323Z" fill="#FFC727"/>
</svg>
