<svg width="255" height="255" viewBox="0 0 255 255" fill="none" xmlns="http://www.w3.org/2000/svg">
<path d="M226.389 31.0083H212.874V36.7203H226.389V31.0083Z" stroke="#EBEBEB" stroke-width="0.75" stroke-miterlimit="10"/>
<path d="M233.937 23.8169H220.422V29.5289H233.937V23.8169Z" stroke="#EBEBEB" stroke-width="0.75" stroke-miterlimit="10"/>
<path d="M141.015 87.21H127.5V92.922H141.015V87.21Z" stroke="#EBEBEB" stroke-width="0.75" stroke-miterlimit="10"/>
<path d="M148.563 80.019H135.048V85.731H148.563V80.019Z" stroke="#EBEBEB" stroke-width="0.75" stroke-miterlimit="10"/>
<path d="M156.06 87.21H142.545V92.922H156.06V87.21Z" stroke="#EBEBEB" stroke-width="0.75" stroke-miterlimit="10"/>
<path d="M34.578 23.8169H21.063V29.5289H34.578V23.8169Z" stroke="#EBEBEB" stroke-width="0.75" stroke-miterlimit="10"/>
<path d="M42.126 158.049H28.611V163.761H42.126V158.049Z" stroke="#EBEBEB" stroke-width="0.75" stroke-miterlimit="10"/>
<path d="M34.578 150.807H21.063V156.519H34.578V150.807Z" stroke="#EBEBEB" stroke-width="0.75" stroke-miterlimit="10"/>
<path d="M226.389 158.049H212.874V163.761H226.389V158.049Z" stroke="#EBEBEB" stroke-width="0.75" stroke-miterlimit="10"/>
<path d="M106.488 214.965V150.909L120.156 132.294V97.4609" stroke="#EBEBEB" stroke-miterlimit="10"/>
<path d="M118.932 96.2372C118.932 96.9002 119.493 97.4612 120.156 97.4612C120.819 97.4612 121.38 96.9002 121.38 96.2372C121.38 95.5742 120.819 95.0132 120.156 95.0132C119.442 95.0132 118.932 95.5742 118.932 96.2372Z" stroke="#EBEBEB" stroke-miterlimit="10"/>
<path d="M110.007 214.965V153.153L123.624 134.538V110.211" stroke="#EBEBEB" stroke-miterlimit="10"/>
<path d="M122.451 108.987C122.451 109.65 123.012 110.211 123.675 110.211C124.338 110.211 124.899 109.65 124.899 108.987C124.899 108.324 124.338 107.763 123.675 107.763C122.961 107.763 122.451 108.324 122.451 108.987Z" stroke="#EBEBEB" stroke-miterlimit="10"/>
<path d="M103.122 214.965V130.101" stroke="#EBEBEB" stroke-miterlimit="10"/>
<path d="M101.898 128.928C101.898 129.591 102.459 130.152 103.122 130.152C103.785 130.152 104.346 129.591 104.346 128.928C104.346 128.265 103.785 127.704 103.122 127.704C102.459 127.704 101.898 128.214 101.898 128.928Z" stroke="#EBEBEB" stroke-miterlimit="10"/>
<path d="M99.858 214.965V171.87L90.627 154.377V123.114" stroke="#EBEBEB" stroke-miterlimit="10"/>
<path d="M89.403 121.89C89.403 122.553 89.964 123.114 90.627 123.114C91.29 123.114 91.851 122.553 91.851 121.89C91.851 121.227 91.29 120.666 90.627 120.666C89.964 120.666 89.403 121.227 89.403 121.89Z" stroke="#EBEBEB" stroke-miterlimit="10"/>
<path d="M96.594 214.965V173.706L85.731 154.428V133.824" stroke="#EBEBEB" stroke-miterlimit="10"/>
<path d="M84.507 132.6C84.507 133.263 85.068 133.824 85.731 133.824C86.394 133.824 86.955 133.263 86.955 132.6C86.955 131.937 86.394 131.376 85.731 131.376C85.068 131.376 84.507 131.937 84.507 132.6Z" stroke="#EBEBEB" stroke-miterlimit="10"/>
<path d="M56.457 19.176V0" stroke="#C7C7C7" stroke-miterlimit="10"/>
<path d="M68.289 30.549L67.371 32.64H45.594L44.625 30.549L53.907 24.123H59.058L68.289 30.549Z" fill="#EBEBEB"/>
<path d="M59.67 17.9521L59.058 24.1231H53.907L53.244 17.9521H59.67Z" fill="#DBDBDB"/>
<path d="M68.289 30.5488L67.371 32.6398H45.594L44.625 30.5488H68.289Z" fill="#DBDBDB"/>
<path d="M103.836 19.176V0" stroke="#C7C7C7" stroke-miterlimit="10"/>
<path d="M115.668 30.549L114.699 32.64H92.922L92.004 30.549L101.235 24.123H106.386L115.668 30.549Z" fill="#EBEBEB"/>
<path d="M107.049 17.9521L106.386 24.1231H101.235L100.623 17.9521H107.049Z" fill="#DBDBDB"/>
<path d="M115.668 30.5488L114.699 32.6398H92.922L92.004 30.5488H115.668Z" fill="#DBDBDB"/>
<path d="M151.164 19.176V0" stroke="#C7C7C7" stroke-miterlimit="10"/>
<path d="M162.996 30.549L162.078 32.64H140.301L139.332 30.549L148.614 24.123H153.765L162.996 30.549Z" fill="#EBEBEB"/>
<path d="M154.377 17.9521L153.765 24.1231H148.614L147.951 17.9521H154.377Z" fill="#DBDBDB"/>
<path d="M162.996 30.5488L162.078 32.6398H140.301L139.332 30.5488H162.996Z" fill="#DBDBDB"/>
<path d="M198.543 19.176V0" stroke="#C7C7C7" stroke-miterlimit="10"/>
<path d="M210.375 30.549L209.406 32.64H187.629L186.711 30.549L195.942 24.123H201.093L210.375 30.549Z" fill="#EBEBEB"/>
<path d="M201.756 17.9521L201.093 24.1231H195.942L195.33 17.9521H201.756Z" fill="#DBDBDB"/>
<path d="M210.375 30.5488L209.406 32.6398H187.629L186.711 30.5488H210.375Z" fill="#DBDBDB"/>
<path d="M93.738 234.804C123.707 234.804 148.002 230.922 148.002 226.134C148.002 221.346 123.707 217.464 93.738 217.464C63.7688 217.464 39.474 221.346 39.474 226.134C39.474 230.922 63.7688 234.804 93.738 234.804Z" fill="#EBEBEB"/>
<path d="M169.524 89.9644H136.374V215.016H169.524V89.9644Z" fill="#37474F"/>
<path d="M230.571 89.9644H169.524V215.016H230.571V89.9644Z" fill="#455A64"/>
<path d="M226.746 198.798H174.114V210.936H226.746V198.798Z" fill="#37474F"/>
<path d="M206.295 200.787H176.307V201.807H206.295V200.787Z" fill="#455A64"/>
<path d="M206.295 202.572H176.307V203.592H206.295V202.572Z" fill="#455A64"/>
<path d="M206.295 204.357H176.307V205.377H206.295V204.357Z" fill="#455A64"/>
<path d="M206.295 206.142H176.307V207.162H206.295V206.142Z" fill="#455A64"/>
<path d="M206.295 207.927H176.307V208.947H206.295V207.927Z" fill="#455A64"/>
<path d="M211.752 201.807C211.752 202.368 211.293 202.827 210.732 202.827C210.171 202.827 209.712 202.368 209.712 201.807C209.712 201.246 210.171 200.787 210.732 200.787C211.293 200.787 211.752 201.246 211.752 201.807Z" fill="#FFC414"/>
<path d="M215.118 201.807C215.118 202.368 214.659 202.827 214.098 202.827C213.537 202.827 213.078 202.368 213.078 201.807C213.078 201.246 213.537 200.787 214.098 200.787C214.659 200.787 215.118 201.246 215.118 201.807Z" fill="#FFC414"/>
<path d="M218.433 201.807C218.433 202.368 217.974 202.827 217.413 202.827C216.852 202.827 216.393 202.368 216.393 201.807C216.393 201.246 216.852 200.787 217.413 200.787C217.974 200.787 218.433 201.246 218.433 201.807Z" fill="#FFC414"/>
<path d="M221.799 201.807C221.799 202.368 221.34 202.827 220.779 202.827C220.218 202.827 219.759 202.368 219.759 201.807C219.759 201.246 220.218 200.787 220.779 200.787C221.34 200.787 221.799 201.246 221.799 201.807Z" fill="#FFC414"/>
<path d="M225.165 201.807C225.165 202.368 224.706 202.827 224.145 202.827C223.584 202.827 223.125 202.368 223.125 201.807C223.125 201.246 223.584 200.787 224.145 200.787C224.706 200.787 225.165 201.246 225.165 201.807Z" fill="#FFC414"/>
<path d="M211.752 204.867C211.752 205.428 211.293 205.887 210.732 205.887C210.171 205.887 209.712 205.428 209.712 204.867C209.712 204.306 210.171 203.847 210.732 203.847C211.293 203.847 211.752 204.306 211.752 204.867Z" fill="#FFC414"/>
<path d="M215.118 204.867C215.118 205.428 214.659 205.887 214.098 205.887C213.537 205.887 213.078 205.428 213.078 204.867C213.078 204.306 213.537 203.847 214.098 203.847C214.659 203.847 215.118 204.306 215.118 204.867Z" fill="#FFC414"/>
<path d="M218.433 204.867C218.433 205.428 217.974 205.887 217.413 205.887C216.852 205.887 216.393 205.428 216.393 204.867C216.393 204.306 216.852 203.847 217.413 203.847C217.974 203.847 218.433 204.306 218.433 204.867Z" fill="#FFC414"/>
<path d="M221.799 204.867C221.799 205.428 221.34 205.887 220.779 205.887C220.218 205.887 219.759 205.428 219.759 204.867C219.759 204.306 220.218 203.847 220.779 203.847C221.34 203.847 221.799 204.306 221.799 204.867Z" fill="#FFC414"/>
<path d="M225.165 204.867C225.165 205.428 224.706 205.887 224.145 205.887C223.584 205.887 223.125 205.428 223.125 204.867C223.125 204.306 223.584 203.847 224.145 203.847C224.706 203.847 225.165 204.306 225.165 204.867Z" fill="#FFC414"/>
<path d="M210.732 208.947C211.295 208.947 211.752 208.491 211.752 207.927C211.752 207.364 211.295 206.907 210.732 206.907C210.169 206.907 209.712 207.364 209.712 207.927C209.712 208.491 210.169 208.947 210.732 208.947Z" fill="#FFC414"/>
<path d="M215.118 207.927C215.118 208.488 214.659 208.947 214.098 208.947C213.537 208.947 213.078 208.488 213.078 207.927C213.078 207.366 213.537 206.907 214.098 206.907C214.659 206.907 215.118 207.366 215.118 207.927Z" fill="#FFC414"/>
<path d="M217.413 208.947C217.976 208.947 218.433 208.491 218.433 207.927C218.433 207.364 217.976 206.907 217.413 206.907C216.85 206.907 216.393 207.364 216.393 207.927C216.393 208.491 216.85 208.947 217.413 208.947Z" fill="#FFC414"/>
<path d="M221.799 207.927C221.799 208.488 221.34 208.947 220.779 208.947C220.218 208.947 219.759 208.488 219.759 207.927C219.759 207.366 220.218 206.907 220.779 206.907C221.34 206.907 221.799 207.366 221.799 207.927Z" fill="#FFC414"/>
<path d="M225.165 207.927C225.165 208.488 224.706 208.947 224.145 208.947C223.584 208.947 223.125 208.488 223.125 207.927C223.125 207.366 223.584 206.907 224.145 206.907C224.706 206.907 225.165 207.366 225.165 207.927Z" fill="#FFC414"/>
<path d="M208.335 200.787H207.774V208.947H208.335V200.787Z" fill="#263238"/>
<path d="M226.746 184.161H174.114V196.299H226.746V184.161Z" fill="#37474F"/>
<path d="M206.295 186.15H176.307V187.17H206.295V186.15Z" fill="#455A64"/>
<path d="M206.295 187.935H176.307V188.955H206.295V187.935Z" fill="#455A64"/>
<path d="M206.295 189.72H176.307V190.74H206.295V189.72Z" fill="#455A64"/>
<path d="M206.295 191.505H176.307V192.525H206.295V191.505Z" fill="#455A64"/>
<path d="M206.295 193.29H176.307V194.31H206.295V193.29Z" fill="#455A64"/>
<path d="M211.752 187.17C211.752 187.731 211.293 188.19 210.732 188.19C210.171 188.19 209.712 187.731 209.712 187.17C209.712 186.609 210.171 186.15 210.732 186.15C211.293 186.15 211.752 186.609 211.752 187.17Z" fill="#FFC414"/>
<path d="M215.118 187.17C215.118 187.731 214.659 188.19 214.098 188.19C213.537 188.19 213.078 187.731 213.078 187.17C213.078 186.609 213.537 186.15 214.098 186.15C214.659 186.15 215.118 186.609 215.118 187.17Z" fill="#FFC414"/>
<path d="M218.433 187.17C218.433 187.731 217.974 188.19 217.413 188.19C216.852 188.19 216.393 187.731 216.393 187.17C216.393 186.609 216.852 186.15 217.413 186.15C217.974 186.15 218.433 186.609 218.433 187.17Z" fill="#FFC414"/>
<path d="M221.799 187.17C221.799 187.731 221.34 188.19 220.779 188.19C220.218 188.19 219.759 187.731 219.759 187.17C219.759 186.609 220.218 186.15 220.779 186.15C221.34 186.15 221.799 186.609 221.799 187.17Z" fill="#FFC414"/>
<path d="M225.165 187.17C225.165 187.731 224.706 188.19 224.145 188.19C223.584 188.19 223.125 187.731 223.125 187.17C223.125 186.609 223.584 186.15 224.145 186.15C224.706 186.15 225.165 186.609 225.165 187.17Z" fill="#FFC414"/>
<path d="M211.752 190.23C211.752 190.791 211.293 191.25 210.732 191.25C210.171 191.25 209.712 190.791 209.712 190.23C209.712 189.669 210.171 189.21 210.732 189.21C211.293 189.21 211.752 189.669 211.752 190.23Z" fill="#FFC414"/>
<path d="M215.118 190.23C215.118 190.791 214.659 191.25 214.098 191.25C213.537 191.25 213.078 190.791 213.078 190.23C213.078 189.669 213.537 189.21 214.098 189.21C214.659 189.21 215.118 189.669 215.118 190.23Z" fill="#FFC414"/>
<path d="M218.433 190.23C218.433 190.791 217.974 191.25 217.413 191.25C216.852 191.25 216.393 190.791 216.393 190.23C216.393 189.669 216.852 189.21 217.413 189.21C217.974 189.21 218.433 189.669 218.433 190.23Z" fill="#FFC414"/>
<path d="M221.799 190.23C221.799 190.791 221.34 191.25 220.779 191.25C220.218 191.25 219.759 190.791 219.759 190.23C219.759 189.669 220.218 189.21 220.779 189.21C221.34 189.21 221.799 189.669 221.799 190.23Z" fill="#FFC414"/>
<path d="M225.165 190.23C225.165 190.791 224.706 191.25 224.145 191.25C223.584 191.25 223.125 190.791 223.125 190.23C223.125 189.669 223.584 189.21 224.145 189.21C224.706 189.21 225.165 189.669 225.165 190.23Z" fill="#FFC414"/>
<path d="M211.752 193.29C211.752 193.851 211.293 194.31 210.732 194.31C210.171 194.31 209.712 193.851 209.712 193.29C209.712 192.729 210.171 192.27 210.732 192.27C211.293 192.27 211.752 192.729 211.752 193.29Z" fill="#FFC414"/>
<path d="M215.118 193.29C215.118 193.851 214.659 194.31 214.098 194.31C213.537 194.31 213.078 193.851 213.078 193.29C213.078 192.729 213.537 192.27 214.098 192.27C214.659 192.27 215.118 192.729 215.118 193.29Z" fill="#FFC414"/>
<path d="M218.433 193.29C218.433 193.851 217.974 194.31 217.413 194.31C216.852 194.31 216.393 193.851 216.393 193.29C216.393 192.729 216.852 192.27 217.413 192.27C217.974 192.27 218.433 192.729 218.433 193.29Z" fill="#FFC414"/>
<path d="M221.799 193.29C221.799 193.851 221.34 194.31 220.779 194.31C220.218 194.31 219.759 193.851 219.759 193.29C219.759 192.729 220.218 192.27 220.779 192.27C221.34 192.27 221.799 192.729 221.799 193.29Z" fill="#FFC414"/>
<path d="M225.165 193.29C225.165 193.851 224.706 194.31 224.145 194.31C223.584 194.31 223.125 193.851 223.125 193.29C223.125 192.729 223.584 192.27 224.145 192.27C224.706 192.27 225.165 192.729 225.165 193.29Z" fill="#FFC414"/>
<path d="M208.335 186.15H207.774V194.31H208.335V186.15Z" fill="#263238"/>
<path d="M226.746 169.473H174.114V181.611H226.746V169.473Z" fill="#37474F"/>
<path d="M206.295 171.513H176.307V172.533H206.295V171.513Z" fill="#455A64"/>
<path d="M206.295 173.298H176.307V174.318H206.295V173.298Z" fill="#455A64"/>
<path d="M206.295 175.032H176.307V176.052H206.295V175.032Z" fill="#455A64"/>
<path d="M206.295 176.817H176.307V177.837H206.295V176.817Z" fill="#455A64"/>
<path d="M206.295 178.602H176.307V179.622H206.295V178.602Z" fill="#455A64"/>
<path d="M210.732 173.553C211.295 173.553 211.752 173.097 211.752 172.533C211.752 171.97 211.295 171.513 210.732 171.513C210.169 171.513 209.712 171.97 209.712 172.533C209.712 173.097 210.169 173.553 210.732 173.553Z" fill="#FFC414"/>
<path d="M215.118 172.533C215.118 173.094 214.659 173.553 214.098 173.553C213.537 173.553 213.078 173.094 213.078 172.533C213.078 171.972 213.537 171.513 214.098 171.513C214.659 171.513 215.118 171.972 215.118 172.533Z" fill="#FFC414"/>
<path d="M217.413 173.553C217.976 173.553 218.433 173.097 218.433 172.533C218.433 171.97 217.976 171.513 217.413 171.513C216.85 171.513 216.393 171.97 216.393 172.533C216.393 173.097 216.85 173.553 217.413 173.553Z" fill="#FFC414"/>
<path d="M221.799 172.533C221.799 173.094 221.34 173.553 220.779 173.553C220.218 173.553 219.759 173.094 219.759 172.533C219.759 171.972 220.218 171.513 220.779 171.513C221.34 171.513 221.799 171.972 221.799 172.533Z" fill="#FFC414"/>
<path d="M225.165 172.533C225.165 173.094 224.706 173.553 224.145 173.553C223.584 173.553 223.125 173.094 223.125 172.533C223.125 171.972 223.584 171.513 224.145 171.513C224.706 171.513 225.165 171.972 225.165 172.533Z" fill="#FFC414"/>
<path d="M211.752 175.593C211.752 176.154 211.293 176.613 210.732 176.613C210.171 176.613 209.712 176.154 209.712 175.593C209.712 175.032 210.171 174.573 210.732 174.573C211.293 174.573 211.752 175.032 211.752 175.593Z" fill="#FFC414"/>
<path d="M215.118 175.593C215.118 176.154 214.659 176.613 214.098 176.613C213.537 176.613 213.078 176.154 213.078 175.593C213.078 175.032 213.537 174.573 214.098 174.573C214.659 174.573 215.118 175.032 215.118 175.593Z" fill="#FFC414"/>
<path d="M218.433 175.593C218.433 176.154 217.974 176.613 217.413 176.613C216.852 176.613 216.393 176.154 216.393 175.593C216.393 175.032 216.852 174.573 217.413 174.573C217.974 174.573 218.433 175.032 218.433 175.593Z" fill="#FFC414"/>
<path d="M221.799 175.593C221.799 176.154 221.34 176.613 220.779 176.613C220.218 176.613 219.759 176.154 219.759 175.593C219.759 175.032 220.218 174.573 220.779 174.573C221.34 174.573 221.799 175.032 221.799 175.593Z" fill="#FFC414"/>
<path d="M225.165 175.593C225.165 176.154 224.706 176.613 224.145 176.613C223.584 176.613 223.125 176.154 223.125 175.593C223.125 175.032 223.584 174.573 224.145 174.573C224.706 174.573 225.165 175.032 225.165 175.593Z" fill="#FFC414"/>
<path d="M211.752 178.602C211.752 179.163 211.293 179.622 210.732 179.622C210.171 179.622 209.712 179.163 209.712 178.602C209.712 178.041 210.171 177.582 210.732 177.582C211.293 177.582 211.752 178.041 211.752 178.602Z" fill="#FFC414"/>
<path d="M215.118 178.602C215.118 179.163 214.659 179.622 214.098 179.622C213.537 179.622 213.078 179.163 213.078 178.602C213.078 178.041 213.537 177.582 214.098 177.582C214.659 177.582 215.118 178.041 215.118 178.602Z" fill="#FFC414"/>
<path d="M218.433 178.602C218.433 179.163 217.974 179.622 217.413 179.622C216.852 179.622 216.393 179.163 216.393 178.602C216.393 178.041 216.852 177.582 217.413 177.582C217.974 177.582 218.433 178.041 218.433 178.602Z" fill="#FFC414"/>
<path d="M221.799 178.602C221.799 179.163 221.34 179.622 220.779 179.622C220.218 179.622 219.759 179.163 219.759 178.602C219.759 178.041 220.218 177.582 220.779 177.582C221.34 177.582 221.799 178.041 221.799 178.602Z" fill="#FFC414"/>
<path d="M225.165 178.602C225.165 179.163 224.706 179.622 224.145 179.622C223.584 179.622 223.125 179.163 223.125 178.602C223.125 178.041 223.584 177.582 224.145 177.582C224.706 177.582 225.165 178.041 225.165 178.602Z" fill="#FFC414"/>
<path d="M208.335 171.513H207.774V179.673H208.335V171.513Z" fill="#263238"/>
<path d="M226.746 154.836H174.114V166.974H226.746V154.836Z" fill="#37474F"/>
<path d="M206.295 156.825H176.307V157.845H206.295V156.825Z" fill="#455A64"/>
<path d="M206.295 158.61H176.307V159.63H206.295V158.61Z" fill="#455A64"/>
<path d="M206.295 160.395H176.307V161.415H206.295V160.395Z" fill="#455A64"/>
<path d="M206.295 162.18H176.307V163.2H206.295V162.18Z" fill="#455A64"/>
<path d="M206.295 163.965H176.307V164.985H206.295V163.965Z" fill="#455A64"/>
<path d="M211.752 157.845C211.752 158.406 211.293 158.865 210.732 158.865C210.171 158.865 209.712 158.406 209.712 157.845C209.712 157.284 210.171 156.825 210.732 156.825C211.293 156.825 211.752 157.284 211.752 157.845Z" fill="#FFC414"/>
<path d="M215.118 157.845C215.118 158.406 214.659 158.865 214.098 158.865C213.537 158.865 213.078 158.406 213.078 157.845C213.078 157.284 213.537 156.825 214.098 156.825C214.659 156.825 215.118 157.284 215.118 157.845Z" fill="#FFC414"/>
<path d="M218.433 157.845C218.433 158.406 217.974 158.865 217.413 158.865C216.852 158.865 216.393 158.406 216.393 157.845C216.393 157.284 216.852 156.825 217.413 156.825C217.974 156.825 218.433 157.284 218.433 157.845Z" fill="#FFC414"/>
<path d="M221.799 157.845C221.799 158.406 221.34 158.865 220.779 158.865C220.218 158.865 219.759 158.406 219.759 157.845C219.759 157.284 220.218 156.825 220.779 156.825C221.34 156.825 221.799 157.284 221.799 157.845Z" fill="#FFC414"/>
<path d="M225.165 157.845C225.165 158.406 224.706 158.865 224.145 158.865C223.584 158.865 223.125 158.406 223.125 157.845C223.125 157.284 223.584 156.825 224.145 156.825C224.706 156.825 225.165 157.284 225.165 157.845Z" fill="#FFC414"/>
<path d="M210.732 161.925C211.295 161.925 211.752 161.469 211.752 160.905C211.752 160.342 211.295 159.885 210.732 159.885C210.169 159.885 209.712 160.342 209.712 160.905C209.712 161.469 210.169 161.925 210.732 161.925Z" fill="#FFC414"/>
<path d="M215.118 160.905C215.118 161.466 214.659 161.925 214.098 161.925C213.537 161.925 213.078 161.466 213.078 160.905C213.078 160.344 213.537 159.885 214.098 159.885C214.659 159.885 215.118 160.344 215.118 160.905Z" fill="#FFC414"/>
<path d="M217.413 161.925C217.976 161.925 218.433 161.469 218.433 160.905C218.433 160.342 217.976 159.885 217.413 159.885C216.85 159.885 216.393 160.342 216.393 160.905C216.393 161.469 216.85 161.925 217.413 161.925Z" fill="#FFC414"/>
<path d="M221.799 160.905C221.799 161.466 221.34 161.925 220.779 161.925C220.218 161.925 219.759 161.466 219.759 160.905C219.759 160.344 220.218 159.885 220.779 159.885C221.34 159.885 221.799 160.344 221.799 160.905Z" fill="#FFC414"/>
<path d="M225.165 160.905C225.165 161.466 224.706 161.925 224.145 161.925C223.584 161.925 223.125 161.466 223.125 160.905C223.125 160.344 223.584 159.885 224.145 159.885C224.706 159.885 225.165 160.344 225.165 160.905Z" fill="#FFC414"/>
<path d="M210.732 164.985C211.295 164.985 211.752 164.529 211.752 163.965C211.752 163.402 211.295 162.945 210.732 162.945C210.169 162.945 209.712 163.402 209.712 163.965C209.712 164.529 210.169 164.985 210.732 164.985Z" fill="#FFC414"/>
<path d="M215.118 163.965C215.118 164.526 214.659 164.985 214.098 164.985C213.537 164.985 213.078 164.526 213.078 163.965C213.078 163.404 213.537 162.945 214.098 162.945C214.659 162.945 215.118 163.404 215.118 163.965Z" fill="#FFC414"/>
<path d="M217.413 164.985C217.976 164.985 218.433 164.529 218.433 163.965C218.433 163.402 217.976 162.945 217.413 162.945C216.85 162.945 216.393 163.402 216.393 163.965C216.393 164.529 216.85 164.985 217.413 164.985Z" fill="#FFC414"/>
<path d="M221.799 163.965C221.799 164.526 221.34 164.985 220.779 164.985C220.218 164.985 219.759 164.526 219.759 163.965C219.759 163.404 220.218 162.945 220.779 162.945C221.34 162.945 221.799 163.404 221.799 163.965Z" fill="#FFC414"/>
<path d="M225.165 163.965C225.165 164.526 224.706 164.985 224.145 164.985C223.584 164.985 223.125 164.526 223.125 163.965C223.125 163.404 223.584 162.945 224.145 162.945C224.706 162.945 225.165 163.404 225.165 163.965Z" fill="#FFC414"/>
<path d="M208.335 156.825H207.774V164.985H208.335V156.825Z" fill="#263238"/>
<path d="M226.746 140.199H174.114V152.337H226.746V140.199Z" fill="#37474F"/>
<path d="M206.295 142.188H176.307V143.208H206.295V142.188Z" fill="#455A64"/>
<path d="M206.295 143.973H176.307V144.993H206.295V143.973Z" fill="#455A64"/>
<path d="M206.295 145.758H176.307V146.778H206.295V145.758Z" fill="#455A64"/>
<path d="M206.295 147.543H176.307V148.563H206.295V147.543Z" fill="#455A64"/>
<path d="M206.295 149.328H176.307V150.348H206.295V149.328Z" fill="#455A64"/>
<path d="M210.732 144.228C211.295 144.228 211.752 143.771 211.752 143.208C211.752 142.645 211.295 142.188 210.732 142.188C210.169 142.188 209.712 142.645 209.712 143.208C209.712 143.771 210.169 144.228 210.732 144.228Z" fill="#FFC414"/>
<path d="M215.118 143.208C215.118 143.769 214.659 144.228 214.098 144.228C213.537 144.228 213.078 143.769 213.078 143.208C213.078 142.647 213.537 142.188 214.098 142.188C214.659 142.188 215.118 142.647 215.118 143.208Z" fill="#FFC414"/>
<path d="M217.413 144.228C217.976 144.228 218.433 143.771 218.433 143.208C218.433 142.645 217.976 142.188 217.413 142.188C216.85 142.188 216.393 142.645 216.393 143.208C216.393 143.771 216.85 144.228 217.413 144.228Z" fill="#FFC414"/>
<path d="M221.799 143.208C221.799 143.769 221.34 144.228 220.779 144.228C220.218 144.228 219.759 143.769 219.759 143.208C219.759 142.647 220.218 142.188 220.779 142.188C221.34 142.188 221.799 142.647 221.799 143.208Z" fill="#FFC414"/>
<path d="M225.165 143.208C225.165 143.769 224.706 144.228 224.145 144.228C223.584 144.228 223.125 143.769 223.125 143.208C223.125 142.647 223.584 142.188 224.145 142.188C224.706 142.188 225.165 142.647 225.165 143.208Z" fill="#FFC414"/>
<path d="M210.732 147.288C211.295 147.288 211.752 146.831 211.752 146.268C211.752 145.705 211.295 145.248 210.732 145.248C210.169 145.248 209.712 145.705 209.712 146.268C209.712 146.831 210.169 147.288 210.732 147.288Z" fill="#FFC414"/>
<path d="M215.118 146.268C215.118 146.829 214.659 147.288 214.098 147.288C213.537 147.288 213.078 146.829 213.078 146.268C213.078 145.707 213.537 145.248 214.098 145.248C214.659 145.248 215.118 145.707 215.118 146.268Z" fill="#FFC414"/>
<path d="M217.413 147.288C217.976 147.288 218.433 146.831 218.433 146.268C218.433 145.705 217.976 145.248 217.413 145.248C216.85 145.248 216.393 145.705 216.393 146.268C216.393 146.831 216.85 147.288 217.413 147.288Z" fill="#FFC414"/>
<path d="M221.799 146.268C221.799 146.829 221.34 147.288 220.779 147.288C220.218 147.288 219.759 146.829 219.759 146.268C219.759 145.707 220.218 145.248 220.779 145.248C221.34 145.248 221.799 145.707 221.799 146.268Z" fill="#FFC414"/>
<path d="M225.165 146.268C225.165 146.829 224.706 147.288 224.145 147.288C223.584 147.288 223.125 146.829 223.125 146.268C223.125 145.707 223.584 145.248 224.145 145.248C224.706 145.248 225.165 145.707 225.165 146.268Z" fill="#FFC414"/>
<path d="M211.752 149.328C211.752 149.889 211.293 150.348 210.732 150.348C210.171 150.348 209.712 149.889 209.712 149.328C209.712 148.767 210.171 148.308 210.732 148.308C211.293 148.308 211.752 148.767 211.752 149.328Z" fill="#FFC414"/>
<path d="M215.118 149.328C215.118 149.889 214.659 150.348 214.098 150.348C213.537 150.348 213.078 149.889 213.078 149.328C213.078 148.767 213.537 148.308 214.098 148.308C214.659 148.308 215.118 148.767 215.118 149.328Z" fill="#FFC414"/>
<path d="M218.433 149.328C218.433 149.889 217.974 150.348 217.413 150.348C216.852 150.348 216.393 149.889 216.393 149.328C216.393 148.767 216.852 148.308 217.413 148.308C217.974 148.308 218.433 148.767 218.433 149.328Z" fill="#FFC414"/>
<path d="M221.799 149.328C221.799 149.889 221.34 150.348 220.779 150.348C220.218 150.348 219.759 149.889 219.759 149.328C219.759 148.767 220.218 148.308 220.779 148.308C221.34 148.308 221.799 148.767 221.799 149.328Z" fill="#FFC414"/>
<path d="M225.165 149.328C225.165 149.889 224.706 150.348 224.145 150.348C223.584 150.348 223.125 149.889 223.125 149.328C223.125 148.767 223.584 148.308 224.145 148.308C224.706 148.308 225.165 148.767 225.165 149.328Z" fill="#FFC414"/>
<path d="M208.335 142.188H207.774V150.348H208.335V142.188Z" fill="#263238"/>
<path d="M226.746 125.511H174.114V137.649H226.746V125.511Z" fill="#37474F"/>
<path d="M206.295 127.551H176.307V128.571H206.295V127.551Z" fill="#455A64"/>
<path d="M206.295 129.336H176.307V130.356H206.295V129.336Z" fill="#455A64"/>
<path d="M206.295 131.121H176.307V132.141H206.295V131.121Z" fill="#455A64"/>
<path d="M206.295 132.855H176.307V133.875H206.295V132.855Z" fill="#455A64"/>
<path d="M206.295 134.64H176.307V135.66H206.295V134.64Z" fill="#455A64"/>
<path d="M211.752 128.571C211.752 129.132 211.293 129.591 210.732 129.591C210.171 129.591 209.712 129.132 209.712 128.571C209.712 128.01 210.171 127.551 210.732 127.551C211.293 127.551 211.752 128.01 211.752 128.571Z" fill="#FFC414"/>
<path d="M215.118 128.571C215.118 129.132 214.659 129.591 214.098 129.591C213.537 129.591 213.078 129.132 213.078 128.571C213.078 128.01 213.537 127.551 214.098 127.551C214.659 127.551 215.118 128.01 215.118 128.571Z" fill="#FFC414"/>
<path d="M218.433 128.571C218.433 129.132 217.974 129.591 217.413 129.591C216.852 129.591 216.393 129.132 216.393 128.571C216.393 128.01 216.852 127.551 217.413 127.551C217.974 127.551 218.433 128.01 218.433 128.571Z" fill="#FFC414"/>
<path d="M221.799 128.571C221.799 129.132 221.34 129.591 220.779 129.591C220.218 129.591 219.759 129.132 219.759 128.571C219.759 128.01 220.218 127.551 220.779 127.551C221.34 127.551 221.799 128.01 221.799 128.571Z" fill="#FFC414"/>
<path d="M225.165 128.571C225.165 129.132 224.706 129.591 224.145 129.591C223.584 129.591 223.125 129.132 223.125 128.571C223.125 128.01 223.584 127.551 224.145 127.551C224.706 127.551 225.165 128.01 225.165 128.571Z" fill="#FFC414"/>
<path d="M211.752 131.631C211.752 132.192 211.293 132.651 210.732 132.651C210.171 132.651 209.712 132.192 209.712 131.631C209.712 131.07 210.171 130.611 210.732 130.611C211.293 130.611 211.752 131.07 211.752 131.631Z" fill="#FFC414"/>
<path d="M215.118 131.631C215.118 132.192 214.659 132.651 214.098 132.651C213.537 132.651 213.078 132.192 213.078 131.631C213.078 131.07 213.537 130.611 214.098 130.611C214.659 130.611 215.118 131.07 215.118 131.631Z" fill="#FFC414"/>
<path d="M218.433 131.631C218.433 132.192 217.974 132.651 217.413 132.651C216.852 132.651 216.393 132.192 216.393 131.631C216.393 131.07 216.852 130.611 217.413 130.611C217.974 130.611 218.433 131.07 218.433 131.631Z" fill="#FFC414"/>
<path d="M221.799 131.631C221.799 132.192 221.34 132.651 220.779 132.651C220.218 132.651 219.759 132.192 219.759 131.631C219.759 131.07 220.218 130.611 220.779 130.611C221.34 130.611 221.799 131.07 221.799 131.631Z" fill="#FFC414"/>
<path d="M225.165 131.631C225.165 132.192 224.706 132.651 224.145 132.651C223.584 132.651 223.125 132.192 223.125 131.631C223.125 131.07 223.584 130.611 224.145 130.611C224.706 130.611 225.165 131.07 225.165 131.631Z" fill="#FFC414"/>
<path d="M211.752 134.691C211.752 135.252 211.293 135.711 210.732 135.711C210.171 135.711 209.712 135.252 209.712 134.691C209.712 134.13 210.171 133.671 210.732 133.671C211.293 133.671 211.752 134.13 211.752 134.691Z" fill="#FFC414"/>
<path d="M215.118 134.691C215.118 135.252 214.659 135.711 214.098 135.711C213.537 135.711 213.078 135.252 213.078 134.691C213.078 134.13 213.537 133.671 214.098 133.671C214.659 133.671 215.118 134.13 215.118 134.691Z" fill="#FFC414"/>
<path d="M218.433 134.691C218.433 135.252 217.974 135.711 217.413 135.711C216.852 135.711 216.393 135.252 216.393 134.691C216.393 134.13 216.852 133.671 217.413 133.671C217.974 133.671 218.433 134.13 218.433 134.691Z" fill="#FFC414"/>
<path d="M221.799 134.691C221.799 135.252 221.34 135.711 220.779 135.711C220.218 135.711 219.759 135.252 219.759 134.691C219.759 134.13 220.218 133.671 220.779 133.671C221.34 133.671 221.799 134.13 221.799 134.691Z" fill="#FFC414"/>
<path d="M225.165 134.691C225.165 135.252 224.706 135.711 224.145 135.711C223.584 135.711 223.125 135.252 223.125 134.691C223.125 134.13 223.584 133.671 224.145 133.671C224.706 133.671 225.165 134.13 225.165 134.691Z" fill="#FFC414"/>
<path d="M208.335 127.551H207.774V135.711H208.335V127.551Z" fill="#263238"/>
<path d="M226.746 110.874H174.114V123.012H226.746V110.874Z" fill="#37474F"/>
<path d="M206.295 112.914H176.307V113.934H206.295V112.914Z" fill="#455A64"/>
<path d="M206.295 114.699H176.307V115.719H206.295V114.699Z" fill="#455A64"/>
<path d="M206.295 116.433H176.307V117.453H206.295V116.433Z" fill="#455A64"/>
<path d="M206.295 118.218H176.307V119.238H206.295V118.218Z" fill="#455A64"/>
<path d="M206.295 120.003H176.307V121.023H206.295V120.003Z" fill="#455A64"/>
<path d="M211.752 113.934C211.752 114.495 211.293 114.954 210.732 114.954C210.171 114.954 209.712 114.495 209.712 113.934C209.712 113.373 210.171 112.914 210.732 112.914C211.293 112.914 211.752 113.373 211.752 113.934Z" fill="#FFC414"/>
<path d="M215.118 113.934C215.118 114.495 214.659 114.954 214.098 114.954C213.537 114.954 213.078 114.495 213.078 113.934C213.078 113.373 213.537 112.914 214.098 112.914C214.659 112.914 215.118 113.373 215.118 113.934Z" fill="#FFC414"/>
<path d="M218.433 113.934C218.433 114.495 217.974 114.954 217.413 114.954C216.852 114.954 216.393 114.495 216.393 113.934C216.393 113.373 216.852 112.914 217.413 112.914C217.974 112.914 218.433 113.373 218.433 113.934Z" fill="#FFC414"/>
<path d="M221.799 113.934C221.799 114.495 221.34 114.954 220.779 114.954C220.218 114.954 219.759 114.495 219.759 113.934C219.759 113.373 220.218 112.914 220.779 112.914C221.34 112.914 221.799 113.373 221.799 113.934Z" fill="#FFC414"/>
<path d="M225.165 113.934C225.165 114.495 224.706 114.954 224.145 114.954C223.584 114.954 223.125 114.495 223.125 113.934C223.125 113.373 223.584 112.914 224.145 112.914C224.706 112.914 225.165 113.373 225.165 113.934Z" fill="#FFC414"/>
<path d="M211.752 116.994C211.752 117.555 211.293 118.014 210.732 118.014C210.171 118.014 209.712 117.555 209.712 116.994C209.712 116.433 210.171 115.974 210.732 115.974C211.293 115.974 211.752 116.382 211.752 116.994Z" fill="#FFC414"/>
<path d="M215.118 116.994C215.118 117.555 214.659 118.014 214.098 118.014C213.537 118.014 213.078 117.555 213.078 116.994C213.078 116.433 213.537 115.974 214.098 115.974C214.659 115.974 215.118 116.382 215.118 116.994Z" fill="#FFC414"/>
<path d="M218.433 116.994C218.433 117.555 217.974 118.014 217.413 118.014C216.852 118.014 216.393 117.555 216.393 116.994C216.393 116.433 216.852 115.974 217.413 115.974C217.974 115.974 218.433 116.382 218.433 116.994Z" fill="#FFC414"/>
<path d="M221.799 116.994C221.799 117.555 221.34 118.014 220.779 118.014C220.218 118.014 219.759 117.555 219.759 116.994C219.759 116.433 220.218 115.974 220.779 115.974C221.34 115.974 221.799 116.382 221.799 116.994Z" fill="#FFC414"/>
<path d="M225.165 116.994C225.165 117.555 224.706 118.014 224.145 118.014C223.584 118.014 223.125 117.555 223.125 116.994C223.125 116.433 223.584 115.974 224.145 115.974C224.706 115.974 225.165 116.382 225.165 116.994Z" fill="#FFC414"/>
<path d="M211.752 120.003C211.752 120.564 211.293 121.023 210.732 121.023C210.171 121.023 209.712 120.564 209.712 120.003C209.712 119.442 210.171 118.983 210.732 118.983C211.293 118.983 211.752 119.442 211.752 120.003Z" fill="#FFC414"/>
<path d="M215.118 120.003C215.118 120.564 214.659 121.023 214.098 121.023C213.537 121.023 213.078 120.564 213.078 120.003C213.078 119.442 213.537 118.983 214.098 118.983C214.659 118.983 215.118 119.442 215.118 120.003Z" fill="#FFC414"/>
<path d="M218.433 120.003C218.433 120.564 217.974 121.023 217.413 121.023C216.852 121.023 216.393 120.564 216.393 120.003C216.393 119.442 216.852 118.983 217.413 118.983C217.974 118.983 218.433 119.442 218.433 120.003Z" fill="#FFC414"/>
<path d="M221.799 120.003C221.799 120.564 221.34 121.023 220.779 121.023C220.218 121.023 219.759 120.564 219.759 120.003C219.759 119.442 220.218 118.983 220.779 118.983C221.34 118.983 221.799 119.442 221.799 120.003Z" fill="#FFC414"/>
<path d="M225.165 120.003C225.165 120.564 224.706 121.023 224.145 121.023C223.584 121.023 223.125 120.564 223.125 120.003C223.125 119.442 223.584 118.983 224.145 118.983C224.706 118.983 225.165 119.442 225.165 120.003Z" fill="#FFC414"/>
<path d="M208.335 112.914H207.774V121.074H208.335V112.914Z" fill="#263238"/>
<path d="M226.746 96.2373H174.114V108.375H226.746V96.2373Z" fill="#37474F"/>
<path d="M206.295 98.2261H176.307V99.2461H206.295V98.2261Z" fill="#455A64"/>
<path d="M206.295 100.011H176.307V101.031H206.295V100.011Z" fill="#455A64"/>
<path d="M206.295 101.796H176.307V102.816H206.295V101.796Z" fill="#455A64"/>
<path d="M206.295 103.581H176.307V104.601H206.295V103.581Z" fill="#455A64"/>
<path d="M206.295 105.366H176.307V106.386H206.295V105.366Z" fill="#455A64"/>
<path d="M211.752 99.2461C211.752 99.8071 211.293 100.266 210.732 100.266C210.171 100.266 209.712 99.8071 209.712 99.2461C209.712 98.6851 210.171 98.2261 210.732 98.2261C211.293 98.2261 211.752 98.6851 211.752 99.2461Z" fill="#FFC414"/>
<path d="M215.118 99.2461C215.118 99.8071 214.659 100.266 214.098 100.266C213.537 100.266 213.078 99.8071 213.078 99.2461C213.078 98.6851 213.537 98.2261 214.098 98.2261C214.659 98.2261 215.118 98.6851 215.118 99.2461Z" fill="#FFC414"/>
<path d="M218.433 99.2461C218.433 99.8071 217.974 100.266 217.413 100.266C216.852 100.266 216.393 99.8071 216.393 99.2461C216.393 98.6851 216.852 98.2261 217.413 98.2261C217.974 98.2261 218.433 98.6851 218.433 99.2461Z" fill="#FFC414"/>
<path d="M221.799 99.2461C221.799 99.8071 221.34 100.266 220.779 100.266C220.218 100.266 219.759 99.8071 219.759 99.2461C219.759 98.6851 220.218 98.2261 220.779 98.2261C221.34 98.2261 221.799 98.6851 221.799 99.2461Z" fill="#FFC414"/>
<path d="M225.165 99.2461C225.165 99.8071 224.706 100.266 224.145 100.266C223.584 100.266 223.125 99.8071 223.125 99.2461C223.125 98.6851 223.584 98.2261 224.145 98.2261C224.706 98.2261 225.165 98.6851 225.165 99.2461Z" fill="#FFC414"/>
<path d="M210.732 103.326C211.295 103.326 211.752 102.869 211.752 102.306C211.752 101.743 211.295 101.286 210.732 101.286C210.169 101.286 209.712 101.743 209.712 102.306C209.712 102.869 210.169 103.326 210.732 103.326Z" fill="#FFC414"/>
<path d="M215.118 102.306C215.118 102.867 214.659 103.326 214.098 103.326C213.537 103.326 213.078 102.867 213.078 102.306C213.078 101.745 213.537 101.286 214.098 101.286C214.659 101.286 215.118 101.745 215.118 102.306Z" fill="#FFC414"/>
<path d="M217.413 103.326C217.976 103.326 218.433 102.869 218.433 102.306C218.433 101.743 217.976 101.286 217.413 101.286C216.85 101.286 216.393 101.743 216.393 102.306C216.393 102.869 216.85 103.326 217.413 103.326Z" fill="#FFC414"/>
<path d="M221.799 102.306C221.799 102.867 221.34 103.326 220.779 103.326C220.218 103.326 219.759 102.867 219.759 102.306C219.759 101.745 220.218 101.286 220.779 101.286C221.34 101.286 221.799 101.745 221.799 102.306Z" fill="#FFC414"/>
<path d="M225.165 102.306C225.165 102.867 224.706 103.326 224.145 103.326C223.584 103.326 223.125 102.867 223.125 102.306C223.125 101.745 223.584 101.286 224.145 101.286C224.706 101.286 225.165 101.745 225.165 102.306Z" fill="#FFC414"/>
<path d="M211.752 105.366C211.752 105.927 211.293 106.386 210.732 106.386C210.171 106.386 209.712 105.927 209.712 105.366C209.712 104.805 210.171 104.346 210.732 104.346C211.293 104.346 211.752 104.805 211.752 105.366Z" fill="#FFC414"/>
<path d="M215.118 105.366C215.118 105.927 214.659 106.386 214.098 106.386C213.537 106.386 213.078 105.927 213.078 105.366C213.078 104.805 213.537 104.346 214.098 104.346C214.659 104.346 215.118 104.805 215.118 105.366Z" fill="#FFC414"/>
<path d="M218.433 105.366C218.433 105.927 217.974 106.386 217.413 106.386C216.852 106.386 216.393 105.927 216.393 105.366C216.393 104.805 216.852 104.346 217.413 104.346C217.974 104.346 218.433 104.805 218.433 105.366Z" fill="#FFC414"/>
<path d="M221.799 105.366C221.799 105.927 221.34 106.386 220.779 106.386C220.218 106.386 219.759 105.927 219.759 105.366C219.759 104.805 220.218 104.346 220.779 104.346C221.34 104.346 221.799 104.805 221.799 105.366Z" fill="#FFC414"/>
<path d="M225.165 105.366C225.165 105.927 224.706 106.386 224.145 106.386C223.584 106.386 223.125 105.927 223.125 105.366C223.125 104.805 223.584 104.346 224.145 104.346C224.706 104.346 225.165 104.805 225.165 105.366Z" fill="#FFC414"/>
<path d="M208.335 98.2261H207.774V106.386H208.335V98.2261Z" fill="#263238"/>
<path d="M218.127 86.1392H148.767V90.0152H218.127V86.1392Z" fill="#37474F"/>
<path d="M149.481 195.891H141.729V203.643H149.481V195.891Z" fill="#263238"/>
<path d="M42.177 57.7834V69.1054C43.044 67.9324 44.166 67.0144 45.492 66.5044C46.359 66.1984 47.226 66.0454 48.144 66.0454C51.612 66.0454 54.213 67.2694 55.896 69.7174C57.324 71.8084 58.038 74.8174 58.038 78.6424V90.0154C58.038 93.9424 56.814 97.1044 54.315 99.6034C51.969 102 48.756 103.326 45.39 103.224C42.075 103.326 38.913 101.898 36.72 99.4504C34.527 97.0534 33.303 93.8914 33.405 90.6274V89.3524L41.004 88.7914L41.157 90.6274C41.361 92.7184 42.228 94.1464 43.707 94.8604C44.166 95.0644 44.625 95.2174 45.135 95.2174C48.399 95.2174 50.031 93.5344 50.031 90.1174V77.1634C50.082 75.6844 49.47 74.3074 48.348 73.3384C47.736 72.8284 46.92 72.5734 46.104 72.6244C44.829 72.5734 43.656 73.1854 42.993 74.2564C42.432 75.1744 42.126 76.1944 42.126 77.2654V78.6934H34.221V49.7764H57.528V57.7834H42.177Z" fill="#FFC414"/>
<path d="M89.964 90.5763C89.964 97.5633 84.252 103.173 77.316 103.173C74.001 103.173 70.788 101.847 68.442 99.5013C66.045 97.1553 64.719 93.9423 64.77 90.5763V61.7613C64.77 54.7743 70.431 49.1133 77.367 49.1133C80.733 49.1133 83.946 50.4393 86.292 52.8363C88.689 55.1823 90.015 58.3953 89.964 61.7613V90.5763ZM81.702 61.6083C81.702 59.0583 79.662 57.0183 77.112 57.0183C75.888 57.0183 74.715 57.4773 73.899 58.3443C73.032 59.2113 72.573 60.3843 72.573 61.6083V90.4743C72.573 91.6983 73.032 92.8713 73.899 93.7383C74.715 94.6053 75.888 95.1153 77.112 95.0643C79.662 95.0643 81.702 93.0243 81.702 90.4743V61.6083Z" fill="#FFC414"/>
<path d="M122.094 90.5763C122.094 97.5633 116.433 103.173 109.497 103.173C102.561 103.173 96.9 97.5123 96.9 90.5763V61.7613C96.9 54.7743 102.561 49.1133 109.548 49.1133C112.914 49.1133 116.127 50.4393 118.473 52.8363C120.87 55.1823 122.196 58.3953 122.145 61.7613V90.5763H122.094ZM113.832 61.6083C113.832 59.0583 111.792 57.0183 109.242 57.0183C108.018 57.0183 106.845 57.4773 106.029 58.3443C105.162 59.2113 104.703 60.3843 104.703 61.6083V90.4743C104.703 91.6983 105.162 92.8713 106.029 93.7383C106.845 94.6053 108.018 95.1153 109.242 95.0643C111.792 95.0643 113.832 93.0243 113.832 90.4743V61.6083Z" fill="#FFC414"/>
<path d="M35.751 180.387H22.185V193.953H35.751V180.387Z" fill="#37474F"/>
<path d="M28.917 191.709C31.4238 191.709 33.456 189.677 33.456 187.17C33.456 184.663 31.4238 182.631 28.917 182.631C26.4102 182.631 24.378 184.663 24.378 187.17C24.378 189.677 26.4102 191.709 28.917 191.709Z" fill="#455A64"/>
<path d="M28.101 185.333H27.081V189.057H28.101V185.333Z" fill="#263238"/>
<path d="M30.957 185.333H29.937V189.057H30.957V185.333Z" fill="#263238"/>
<path d="M18.768 215.016L45.951 214.914L73.134 214.863L127.5 214.761L181.866 214.863L209.049 214.914L236.181 215.016L209.049 215.118L181.866 215.169L127.5 215.271L73.134 215.169L45.951 215.118L18.768 215.016Z" fill="#263238"/>
<path d="M65.331 202.215C65.841 203.286 63.903 211.038 63.291 212.619C62.679 214.2 60.537 223.074 59.517 223.482C58.497 223.89 53.448 223.737 52.734 223.482C52.02 223.227 52.734 221.697 53.55 221.187C54.366 220.677 55.335 219.861 55.335 219.861C55.335 219.861 53.856 206.142 54.162 204.612C54.468 203.082 64.005 199.308 65.331 202.215Z" fill="#FFC414"/>
<path opacity="0.1" d="M65.331 202.215C65.841 203.286 63.903 211.038 63.291 212.619C62.679 214.2 60.537 223.074 59.517 223.482C58.497 223.89 53.448 223.737 52.734 223.482C52.02 223.227 52.734 221.697 53.55 221.187C54.366 220.677 55.335 219.861 55.335 219.861C55.335 219.861 53.856 206.142 54.162 204.612C54.468 203.082 64.005 199.308 65.331 202.215Z" fill="black"/>
<path opacity="0.1" d="M54.774 222.921C54.825 222.666 54.927 222.411 55.131 222.156C55.284 221.952 55.488 221.748 55.692 221.595C55.896 221.442 56.151 221.289 56.406 221.238H56.457V221.289C56.355 221.391 56.253 221.442 56.151 221.544C56.049 221.646 55.947 221.748 55.896 221.799C55.743 222.003 55.59 222.156 55.488 222.411C55.386 222.615 55.233 222.819 55.131 223.074C55.029 223.329 54.978 223.533 54.876 223.788C54.876 223.839 54.876 223.839 54.825 223.839C54.774 223.839 54.774 223.839 54.774 223.788C54.723 223.431 54.723 223.176 54.774 222.921Z" fill="black"/>
<path opacity="0.1" d="M53.295 222.105C53.601 221.646 54.009 221.238 54.519 221.034C54.57 221.034 54.57 221.034 54.57 221.085C54.162 221.391 53.856 221.748 53.601 222.207C53.346 222.666 53.295 223.176 53.397 223.686C53.397 223.686 53.397 223.737 53.346 223.686C53.04 223.176 53.04 222.564 53.295 222.105Z" fill="black"/>
<path opacity="0.1" d="M54.519 212.16L61.4549 218.739C62.2199 216.24 62.9339 213.486 63.2399 212.67C63.8519 211.089 65.7899 203.337 65.2799 202.266C63.9539 199.359 54.315 203.082 54.06 204.612C53.958 205.326 54.213 208.743 54.519 212.16Z" fill="black"/>
<path d="M91.494 209.967C91.8 210.222 94.503 207.672 94.911 206.448C95.319 205.224 93.585 201.807 93.891 201.246C94.197 200.685 95.727 200.226 96.492 201.093C97.257 201.96 99.246 206.856 98.838 208.947C98.43 211.038 94.248 215.679 93.789 215.679C93.33 215.679 91.494 209.967 91.494 209.967Z" fill="#FFC414"/>
<path opacity="0.1" d="M91.494 209.967C91.494 209.967 93.33 215.679 93.789 215.679C94.095 215.679 96.441 213.18 97.818 211.038L93.993 207.825C93.024 208.998 91.698 210.171 91.494 209.967Z" fill="black"/>
<path d="M76.092 186.405H53.448C53.448 186.405 51.765 201.297 51.969 203.286C52.173 205.275 62.118 219.861 65.178 221.748C68.238 223.635 85.986 223.737 90.321 222.768C93.687 222.003 96.492 217.719 95.064 211.14C94.452 208.233 86.598 201.399 85.476 200.073C84.354 198.747 76.092 186.405 76.092 186.405Z" fill="#C7C7C7"/>
<path d="M51.918 203.286C52.122 205.275 62.067 219.861 65.127 221.748C68.187 223.635 85.935 223.737 90.27 222.768C93.636 222.003 96.441 217.719 95.013 211.14C94.401 208.284 86.547 201.399 85.425 200.073C84.762 199.257 81.396 194.31 78.846 190.587C77.265 188.241 75.99 186.354 75.99 186.354H53.346C53.346 186.354 52.938 190.077 52.53 194.055C52.122 198.033 51.867 202.266 51.918 203.286Z" fill="#FFC414"/>
<path opacity="0.1" d="M52.632 194.106C64.821 197.88 75.633 192.525 78.948 190.587C77.367 188.241 76.092 186.354 76.092 186.354H53.448C53.448 186.405 53.04 190.128 52.632 194.106Z" fill="black"/>
<path d="M90.729 210.426C90.729 210.426 84.507 206.499 80.121 207.213C75.735 207.927 74.205 216.903 76.296 221.952C76.296 221.952 72.318 223.125 72.318 225.063C72.318 226.134 74.613 226.491 77.877 226.44C81.141 226.389 87.72 226.287 87.822 225.471C87.873 224.808 87.72 224.094 87.414 223.482C87.414 223.482 93.33 222.819 94.452 218.892C95.574 214.965 91.698 211.089 90.729 210.426Z" fill="#FFC414"/>
<path opacity="0.1" d="M82.2119 222.411C83.8949 223.074 85.6799 223.482 87.4649 223.584C87.5159 223.584 87.5159 223.635 87.4649 223.635C85.6289 223.839 83.7929 223.431 82.2119 222.411C82.2119 222.411 82.1609 222.462 82.2119 222.411Z" fill="black"/>
<path opacity="0.1" d="M74.868 226.491C75.072 225.777 75.582 225.114 76.245 224.757C76.602 224.502 77.01 224.298 77.418 224.196C77.877 224.043 78.387 223.941 78.846 223.788C78.897 223.788 78.897 223.839 78.846 223.839C78.438 223.992 78.03 224.145 77.673 224.4C77.316 224.604 76.908 224.808 76.551 225.063C75.939 225.471 75.429 225.981 75.021 226.593C75.021 226.593 74.868 226.542 74.868 226.491Z" fill="black"/>
<path opacity="0.1" d="M75.684 223.38C75.735 223.38 75.735 223.38 75.684 223.38C75.735 223.431 75.684 223.431 75.684 223.431C74.46 223.941 73.491 224.91 72.981 226.083C72.981 226.134 72.879 226.134 72.879 226.083C73.134 224.655 74.256 223.533 75.684 223.38Z" fill="black"/>
<path opacity="0.1" d="M73.746 223.125C74.511 222.666 75.327 222.309 76.194 222.003C76.296 222.207 76.398 222.36 76.5 222.513C76.5 222.564 76.551 222.513 76.551 222.462C75.786 220.881 75.429 219.147 75.48 217.413C75.48 216.495 75.531 215.577 75.633 214.659C75.837 213.078 76.347 211.497 77.112 210.069C77.52 209.151 78.183 208.386 79.05 207.876C79.968 207.417 80.937 207.264 81.906 207.366C82.926 207.417 83.946 207.621 84.915 207.927C85.884 208.182 86.904 208.539 87.822 208.947C85.986 207.927 83.997 207.264 81.906 206.958C80.835 206.805 79.713 207.009 78.744 207.468C77.826 208.029 77.112 208.845 76.602 209.814C75.633 211.701 75.123 213.741 75.021 215.883C75.021 216.138 75.021 216.393 75.021 216.597C75.021 216.903 75.021 217.209 75.021 217.566C75.021 219.096 75.378 220.575 76.092 221.901C75.276 222.054 74.409 222.462 73.746 223.125Z" fill="black"/>
<path d="M72.624 204.153C73.134 205.224 71.196 212.976 70.584 214.557C69.972 216.138 67.83 225.012 66.81 225.42C65.79 225.828 60.741 225.675 60.027 225.42C59.313 225.165 60.027 223.635 60.843 223.125C61.659 222.615 62.628 221.799 62.628 221.799C62.628 221.799 61.149 208.08 61.455 206.55C61.761 205.02 71.298 201.246 72.624 204.153Z" fill="#FFC414"/>
<path opacity="0.1" d="M69.2579 218.841C69.7169 217.464 70.3289 216.087 70.7879 214.71C70.7879 214.659 70.8899 214.659 70.8899 214.71C70.5329 215.832 70.2779 217.005 69.9209 218.127C69.9719 218.076 70.0229 217.974 70.0739 217.872C70.4309 217.464 70.6859 216.954 70.8899 216.444L70.9409 216.393L70.9919 216.444C70.9409 216.699 70.8389 216.903 70.6859 217.107C70.5329 217.362 70.4309 217.617 70.2779 217.872C70.1249 218.127 69.9209 218.535 69.7169 218.841V218.892C69.3089 220.32 68.7479 221.697 68.1869 223.023C68.1869 223.074 68.1359 223.074 68.0849 223.023L68.0339 222.972C68.3399 221.646 68.7479 220.269 69.2579 218.841Z" fill="black"/>
<path opacity="0.1" d="M61.251 208.692C61.251 208.692 61.302 208.641 61.302 208.692C61.455 209.712 61.506 210.783 61.608 211.803C61.71 212.823 61.863 213.945 61.965 215.067C62.22 217.209 62.577 219.402 62.73 221.544C62.73 221.646 62.577 221.646 62.526 221.544C62.016 219.453 61.659 217.362 61.455 215.22C61.353 214.149 61.302 213.078 61.251 212.058C61.2 210.936 61.2 209.814 61.251 208.692Z" fill="black"/>
<path opacity="0.1" d="M61.8629 224.706C61.9139 224.451 62.0159 224.196 62.1689 223.941C62.3219 223.737 62.5259 223.533 62.7299 223.38C62.9339 223.227 63.1889 223.074 63.4439 223.023C63.4439 223.023 63.4949 223.023 63.4949 223.074C63.4949 223.074 63.4949 223.074 63.4949 223.125C63.3929 223.227 63.2909 223.278 63.1889 223.38L62.9339 223.635C62.7809 223.839 62.6279 223.992 62.5259 224.247C62.4239 224.451 62.2709 224.655 62.1689 224.91C62.0669 225.165 62.0159 225.369 61.9139 225.624C61.9139 225.675 61.8629 225.675 61.8629 225.675C61.8629 225.675 61.8119 225.675 61.8119 225.624C61.7609 225.267 61.7609 224.961 61.8629 224.706Z" fill="black"/>
<path opacity="0.1" d="M60.384 223.89C60.69 223.38 61.098 223.023 61.608 222.819C61.659 222.819 61.659 222.819 61.659 222.87C61.251 223.176 60.945 223.533 60.69 223.992C60.435 224.451 60.333 224.961 60.486 225.471C60.486 225.471 60.486 225.522 60.435 225.471C60.129 224.961 60.129 224.349 60.384 223.89Z" fill="black"/>
<path d="M62.118 165.648C62.373 164.73 60.129 161.568 59.262 160.548C58.395 159.528 53.703 157.896 52.224 158.712C51.612 159.018 50.541 161.262 49.062 163.251C46.767 166.26 44.115 169.473 45.084 170.289C47.43 172.38 52.785 169.065 54.519 167.994C56.253 166.923 57.834 165.546 58.242 165.597C58.803 165.648 59.976 166.566 60.435 166.617C61.2 166.668 61.812 166.26 62.118 165.648Z" fill="#FFC414"/>
<path opacity="0.1" d="M62.118 165.648C62.373 164.73 60.129 161.568 59.262 160.548C58.395 159.528 53.703 157.896 52.224 158.712C51.612 159.018 50.541 161.262 49.062 163.251C46.767 166.26 44.115 169.473 45.084 170.289C47.43 172.38 52.785 169.065 54.519 167.994C56.253 166.923 57.834 165.546 58.242 165.597C58.803 165.648 59.976 166.566 60.435 166.617C61.2 166.668 61.812 166.26 62.118 165.648Z" fill="black"/>
<path d="M72.93 162.486C78.387 165.75 80.835 174.471 80.988 175.848C81.09 176.97 83.742 180.999 83.232 185.334C82.926 188.088 77.928 191.811 73.899 191.76C73.134 191.76 66.81 194.055 61.506 193.698C56.202 193.341 52.122 189.567 51.969 189.21C51.816 188.853 47.43 188.241 47.175 183.804C46.767 176.664 54.009 164.526 56.1 162.894C59.517 160.14 69.207 160.242 72.93 162.486Z" fill="#FFC414"/>
<path d="M70.329 166.26C70.227 165.291 73.083 162.384 74.103 161.415C75.123 160.446 80.274 159.579 81.702 160.65C82.263 161.109 83.028 163.608 84.201 165.852C86.037 169.371 88.2809 173.094 87.1589 173.859C84.354 175.644 79.356 171.36 77.724 169.881C76.092 168.402 74.664 166.821 74.205 166.77C73.593 166.719 72.267 167.484 71.757 167.433C71.145 167.433 70.533 166.923 70.329 166.26Z" fill="#FFC414"/>
<path opacity="0.1" d="M70.329 166.26C70.227 165.291 73.083 162.384 74.103 161.415C75.123 160.446 80.274 159.579 81.702 160.65C82.263 161.109 83.028 163.608 84.201 165.852C86.037 169.371 88.2809 173.094 87.1589 173.859C84.354 175.644 79.356 171.36 77.724 169.881C76.092 168.402 74.664 166.821 74.205 166.77C73.593 166.719 72.267 167.484 71.757 167.433C71.145 167.433 70.533 166.923 70.329 166.26Z" fill="black"/>
<path opacity="0.1" d="M60.333 178.449C63.699 178.5 65.229 182.07 65.637 182.988C66.045 183.906 68.136 186.048 68.187 188.292C68.238 190.536 64.005 193.035 59.517 192.27C55.029 191.505 52.683 188.955 52.734 186.66C52.734 184.824 54.468 183.243 54.672 182.784C54.876 182.325 57.273 178.449 60.333 178.449Z" fill="black"/>
<path opacity="0.1" d="M68.595 184.773C69.054 185.283 69.411 185.844 69.717 186.456C70.023 187.068 70.227 187.731 70.38 188.394C70.533 189.108 70.431 189.822 70.176 190.485C70.023 190.791 69.819 191.097 69.513 191.301C69.258 191.505 68.952 191.658 68.595 191.76C69.156 191.403 69.564 190.893 69.819 190.281C70.023 189.669 70.023 189.057 69.921 188.445C69.819 187.782 69.615 187.17 69.411 186.558C69.105 185.997 68.85 185.385 68.595 184.773Z" fill="black"/>
<path opacity="0.1" d="M53.193 183.447C52.887 183.804 52.632 184.161 52.377 184.518C52.122 184.875 51.918 185.232 51.714 185.64C51.561 185.997 51.459 186.405 51.408 186.864C51.408 187.323 51.51 187.731 51.663 188.139C51.306 187.782 51.102 187.374 51.051 186.864C51 186.354 51.102 185.895 51.255 185.436C51.663 184.569 52.377 183.855 53.193 183.447Z" fill="black"/>
<path d="M105.621 231.489C100.113 231.489 94.044 231.387 87.975 231.285C84.813 231.234 82.365 231.183 80.784 231.183C72.879 231.183 70.584 220.983 68.391 211.14C68.085 209.763 67.779 208.386 67.473 207.06C66.861 204.408 66.351 201.756 65.841 199.206C64.311 191.25 62.934 184.365 59.415 184.008C54.774 183.498 50.643 190.434 49.164 201.246L48.144 201.093C49.725 189.669 54.315 182.376 59.517 182.988C63.75 183.447 65.178 190.638 66.81 199.002C67.32 201.552 67.83 204.204 68.442 206.805C68.748 208.131 69.054 209.559 69.411 210.936C71.604 220.83 73.695 230.163 80.835 230.163C82.416 230.163 84.864 230.214 88.026 230.265C94.911 230.418 104.346 230.571 112.353 230.418C125.307 230.163 126.837 229.143 126.99 228.837C126.99 226.695 113.322 224.145 108.171 223.227C103.02 222.309 102.765 222.207 102.816 221.595C102.867 220.983 103.53 221.034 104.448 221.034H125.817C132.498 221.034 134.691 211.395 135.966 205.632C136.17 204.408 136.527 203.184 136.935 202.011C138.414 198.9 142.239 199.359 142.392 199.359L142.239 200.379C142.086 200.379 139.026 200.022 137.853 202.47C137.445 203.592 137.139 204.714 136.935 205.887C135.558 211.956 133.314 222.105 125.766 222.105H107.202L108.273 222.309C120.717 224.655 127.959 226.491 127.959 228.99C127.959 229.245 127.857 229.551 127.653 229.704C126.174 231.03 117.147 231.489 105.621 231.489Z" fill="#263238"/>
<path d="M45.654 200.102L45.4282 203.869L51.6899 204.244L51.9157 200.477L45.654 200.102Z" fill="#455A64"/>
<path d="M46.8575 199.016L46.7874 200.187L50.7073 200.421L50.7775 199.251L46.8575 199.016Z" fill="#37474F"/>
<path d="M46.7424 203.961L46.5715 206.812L47.2842 206.855L47.4551 204.004L46.7424 203.961Z" fill="#FFC414"/>
<path d="M49.5614 204.096L49.3905 206.947L50.1032 206.99L50.2741 204.139L49.5614 204.096Z" fill="#FFC414"/>
<path d="M147.135 196.605H144.381V202.878H147.135V196.605Z" fill="#455A64"/>
<path d="M144.33 197.778H142.137V201.705H144.33V197.778Z" fill="#37474F"/>
<path d="M56.1 183.906C56.1 183.906 57.426 185.436 57.936 185.13C58.446 184.824 59.721 181.764 59.721 181.764C59.721 181.764 60.027 185.64 61.047 185.742C62.067 185.844 63.75 184.314 63.75 184.314L59.721 181.509L56.1 183.906Z" fill="#FFC414"/>
<path opacity="0.1" d="M56.1 183.906C56.1 183.906 57.426 185.436 57.936 185.13C58.446 184.824 59.721 181.764 59.721 181.764C59.721 181.764 60.027 185.64 61.047 185.742C62.067 185.844 63.75 184.314 63.75 184.314L59.721 181.509L56.1 183.906Z" fill="black"/>
<path opacity="0.1" d="M75.786 179.112C76.194 177.888 76.296 176.562 76.194 175.287C76.143 174.624 75.99 173.961 75.735 173.349C75.582 173.043 75.429 172.737 75.225 172.431C75.021 172.125 74.817 171.87 74.562 171.615C74.409 171.513 74.307 171.36 74.154 171.309C74.001 171.207 73.848 171.105 73.695 171.054L73.491 170.952L73.236 170.85C73.083 170.799 72.879 170.697 72.726 170.646C72.063 170.442 71.349 170.391 70.686 170.442C69.36 170.544 68.136 171.054 67.065 171.87C68.238 171.411 69.462 171.207 70.686 171.207C71.247 171.207 71.859 171.309 72.42 171.513C72.573 171.564 72.675 171.615 72.828 171.666L73.032 171.768L73.236 171.87C73.338 171.921 73.491 172.023 73.593 172.074C73.695 172.176 73.797 172.227 73.899 172.329C74.307 172.737 74.664 173.196 74.868 173.706C75.123 174.267 75.327 174.828 75.429 175.389C75.684 176.613 75.837 177.888 75.786 179.112Z" fill="black"/>
<path opacity="0.1" d="M50.949 176.511C51 175.44 51.153 174.42 51.459 173.4C51.714 172.431 52.224 171.615 52.989 170.952C53.193 170.799 53.397 170.697 53.601 170.595C53.805 170.493 54.009 170.442 54.264 170.391C54.774 170.34 55.233 170.34 55.743 170.442C56.814 170.646 57.834 170.901 58.854 171.258C58.446 170.901 57.987 170.595 57.477 170.34C57.222 170.238 56.967 170.085 56.712 169.983C56.457 169.881 56.202 169.779 55.896 169.728C55.335 169.575 54.723 169.473 54.162 169.524C53.856 169.524 53.55 169.626 53.244 169.728C52.938 169.83 52.683 169.983 52.428 170.187C51.969 170.544 51.561 171.003 51.255 171.564C51 172.074 50.847 172.635 50.745 173.196C50.541 174.318 50.643 175.44 50.949 176.511Z" fill="black"/>
<path d="M67.524 177.531C67.524 177.48 67.677 177.582 67.626 177.684C67.524 179.214 67.626 180.999 69.156 181.56C69.207 181.56 69.207 181.662 69.156 181.662C67.269 181.305 67.116 178.959 67.524 177.531Z" fill="#263238"/>
<path d="M69.105 175.95C71.808 175.899 71.808 180.846 69.309 180.897C66.81 180.948 66.81 176.052 69.105 175.95Z" fill="#263238"/>
<path d="M56.967 176.307C56.967 176.256 56.814 176.358 56.814 176.409C56.712 177.939 56.304 179.673 54.774 180.03C54.723 180.03 54.723 180.132 54.774 180.132C56.661 180.081 57.171 177.786 56.967 176.307Z" fill="#263238"/>
<path d="M55.641 174.573C52.938 174.114 52.275 179.061 54.774 179.469C57.273 179.877 57.885 174.93 55.641 174.573Z" fill="#263238"/>
<path d="M59.619 181.611C60.129 181.764 63.444 180.693 63.189 179.673C62.883 178.551 58.191 178.296 57.579 179.01C56.967 179.724 59.109 181.458 59.619 181.611Z" fill="#263238"/>
<path d="M63.801 184.263C63.24 184.671 62.679 185.028 62.118 185.334C61.812 185.487 61.506 185.589 61.2 185.589C60.996 185.64 60.843 185.385 60.741 185.13C60.537 184.62 60.384 184.059 60.333 183.498C60.231 182.937 60.18 182.376 60.129 181.815L59.976 180.285L59.517 181.815C59.364 182.274 59.211 182.733 59.058 183.192C58.905 183.651 58.701 184.11 58.446 184.518C58.395 184.62 58.344 184.722 58.242 184.824C58.191 184.926 58.089 185.028 57.987 185.079C57.885 185.13 57.783 185.13 57.681 185.13C57.528 185.079 57.426 185.028 57.324 184.977C56.865 184.671 56.457 184.314 56.1 183.906C56.355 184.416 56.712 184.824 57.12 185.181C57.273 185.283 57.426 185.385 57.579 185.436C57.681 185.436 57.783 185.487 57.885 185.487C57.987 185.487 58.089 185.487 58.191 185.436C58.344 185.334 58.446 185.232 58.548 185.13C58.65 185.028 58.701 184.926 58.803 184.824C59.109 184.365 59.313 183.906 59.517 183.447C59.721 182.988 59.874 182.529 60.027 182.019L59.415 181.968C59.466 182.529 59.517 183.141 59.67 183.702C59.721 184.008 59.823 184.263 59.874 184.569C59.976 184.875 60.078 185.13 60.231 185.436C60.333 185.589 60.435 185.742 60.537 185.844C60.639 185.946 60.69 185.997 60.792 186.048C60.843 186.099 60.945 186.099 60.996 186.099C61.047 186.099 61.098 186.099 61.2 186.099C61.608 186.048 61.965 185.946 62.322 185.691C62.832 185.181 63.342 184.773 63.801 184.263Z" fill="#263238"/>
<path d="M38.199 201.909C40.239 201.807 42.279 201.909 44.268 202.317C42.228 202.419 40.188 202.317 38.199 201.909Z" fill="#263238"/>
<path d="M52.887 205.122C53.856 205.479 54.774 205.836 55.692 206.295C56.61 206.754 57.477 207.264 58.293 207.825C56.355 207.162 54.57 206.244 52.887 205.122Z" fill="#263238"/>
<path d="M41.412 212.16C42.432 210.375 43.656 208.794 45.033 207.315C44.523 208.182 43.962 209.049 43.35 209.865C42.789 210.681 42.126 211.446 41.412 212.16Z" fill="#263238"/>
<path d="M35.7 195.891C36.516 196.146 37.281 196.401 38.046 196.707C38.811 197.013 39.576 197.319 40.341 197.625C41.106 197.931 41.871 198.288 42.585 198.645C43.299 199.002 44.064 199.359 44.778 199.767C43.962 199.512 43.197 199.206 42.432 198.951C41.667 198.696 40.902 198.339 40.137 198.033C39.372 197.727 38.607 197.37 37.893 197.013C37.179 196.656 36.414 196.248 35.7 195.891Z" fill="#263238"/>
<path d="M53.601 200.379C54.315 200.022 55.029 199.716 55.794 199.512C56.559 199.257 57.324 199.104 58.14 199.002C56.712 199.716 55.182 200.175 53.601 200.379Z" fill="#263238"/>
<path d="M46.308 197.829C45.9 197.166 45.492 196.503 45.135 195.789C44.778 195.075 44.421 194.412 44.064 193.698C43.707 192.984 43.401 192.321 43.044 191.607C42.687 190.893 42.432 190.179 42.126 189.465C42.534 190.128 42.942 190.791 43.299 191.505C43.656 192.219 44.013 192.882 44.37 193.596C44.727 194.31 45.033 194.973 45.39 195.687C45.747 196.401 46.002 197.064 46.308 197.829Z" fill="#263238"/>
<path d="M56.61 213.945C56.151 213.435 55.743 212.874 55.335 212.313C54.927 211.752 54.519 211.191 54.111 210.63C53.703 210.069 53.346 209.508 52.989 208.896C52.632 208.284 52.275 207.723 51.918 207.111C52.377 207.621 52.785 208.182 53.193 208.743C53.601 209.304 54.009 209.865 54.417 210.426C54.825 210.987 55.182 211.548 55.539 212.16C55.896 212.772 56.304 213.333 56.61 213.945Z" fill="#263238"/>
<path d="M193.749 86.139H151.623L148.359 57.4771H190.485L193.749 86.139Z" fill="#A6A6A6"/>
<path d="M191.454 84.201H153.459L150.654 59.415H188.649L191.454 84.201Z" fill="white"/>
<path d="M167.994 72.4711L167.382 73.1851L161.415 68.034L162.027 67.269L167.994 72.4711Z" fill="#FFC414"/>
<path d="M166.464 67.269L167.28 68.034L162.945 73.1851L162.129 72.4711L166.464 67.269Z" fill="#FFC414"/>
<path d="M180.795 72.4711L180.183 73.1851L174.216 68.034L174.828 67.269L180.795 72.4711Z" fill="#FFC414"/>
<path d="M179.265 67.269L180.081 68.034L175.746 73.1851L174.93 72.4711L179.265 67.269Z" fill="#FFC414"/>
<path d="M160.65 77.4179L160.497 76.3979H183.651L183.804 77.4179H160.65Z" fill="#FFC414"/>
<path d="M206.142 84.2012H151.929V86.1392H206.142V84.2012Z" fill="#A6A6A6"/>
<path d="M210.732 84.2012H163.71V86.1392H210.732V84.2012Z" fill="#C7C7C7"/>
<path d="M188.802 60.588L188.649 59.415H150.654L150.807 60.588H188.802Z" fill="#263238"/>
<path d="M153.867 60.0272C153.867 60.1802 154.02 60.3332 154.173 60.3332C154.326 60.3332 154.428 60.2312 154.428 60.0782V60.0272C154.428 59.8742 154.275 59.7212 154.122 59.7212C153.918 59.7212 153.816 59.8232 153.867 60.0272C153.867 59.9762 153.867 59.9762 153.867 60.0272Z" fill="#C7C7C7"/>
<path d="M152.745 60.0272C152.745 60.1802 152.898 60.3332 153.051 60.3332C153.204 60.3332 153.306 60.2312 153.306 60.0782C153.306 60.0782 153.306 60.0782 153.306 60.0272C153.306 59.8742 153.153 59.7212 153 59.7212C152.847 59.7212 152.745 59.8232 152.745 60.0272C152.745 59.9762 152.745 59.9762 152.745 60.0272Z" fill="white"/>
<path d="M151.674 60.0272C151.674 60.1802 151.827 60.3332 151.98 60.3332C152.133 60.3332 152.235 60.2312 152.235 60.0782V60.0272C152.235 59.8742 152.082 59.7212 151.929 59.7212C151.725 59.7212 151.623 59.8232 151.674 60.0272C151.623 59.9762 151.623 59.9762 151.674 60.0272Z" fill="#FFC414"/>
</svg>
