<svg width="230" height="230" viewBox="0 0 230 230" fill="none" xmlns="http://www.w3.org/2000/svg">
<path d="M25.6957 32.5269H101.54V131.657H25.6957V32.5269ZM99.5395 34.5279H27.6967V129.656H99.5395V34.5279Z" fill="#EBEBEB"/>
<path d="M65.3982 35.0522H63.3972V130.659H65.3982V35.0522Z" fill="#EBEBEB"/>
<path d="M23.8786 39.3574L103.353 39.3574V36.5744L23.8786 36.5744V39.3574Z" fill="#EBEBEB"/>
<path d="M23.8786 42.4902L103.353 42.4902V39.7072L23.8786 39.7072V42.4902Z" fill="#EBEBEB"/>
<path d="M23.8786 45.6182L103.353 45.6182V42.8352L23.8786 42.8352V45.6182Z" fill="#EBEBEB"/>
<path d="M23.8786 48.7554L103.353 48.7554V45.9724L23.8786 45.9724V48.7554Z" fill="#EBEBEB"/>
<path d="M23.8786 51.8882L103.353 51.8882V49.1052L23.8786 49.1052V51.8882Z" fill="#EBEBEB"/>
<path d="M23.8786 55.0205L103.353 55.0205V52.2375L23.8786 52.2375V55.0205Z" fill="#EBEBEB"/>
<path d="M23.8786 58.1533L103.353 58.1533V55.3703L23.8786 55.3703V58.1533Z" fill="#EBEBEB"/>
<path d="M23.8786 61.2905L103.353 61.2905V58.5075L23.8786 58.5075V61.2905Z" fill="#EBEBEB"/>
<path d="M23.8786 64.4229L103.353 64.4229V61.6399L23.8786 61.6399V64.4229Z" fill="#EBEBEB"/>
<path d="M30.3233 36.0044H29.8219V100.197H30.3233V36.0044Z" fill="#263238"/>
<path d="M29.1825 102.529H30.9581L30.5119 99.981H29.6287L29.1825 102.529Z" fill="#263238"/>
<path d="M28.5201 36.0044H28.0187V128.869H28.5201V36.0044Z" fill="#263238"/>
<path d="M27.3838 130.746H29.1548L28.7132 128.197H27.8254L27.3838 130.746Z" fill="#263238"/>
<path d="M20.7783 37.9639L106.458 37.9639V32.1357L20.7783 32.1357V37.9639Z" fill="#DBDBDB"/>
<path d="M190.808 154.381H202.989V149.233H190.808V154.381Z" fill="#EBEBEB"/>
<path d="M197.602 160.871H209.783V155.724H197.602V160.871Z" fill="#EBEBEB"/>
<path d="M184.009 160.871H196.19V155.724H184.009V160.871Z" fill="#EBEBEB"/>
<path d="M27.0112 160.871H39.192V155.724H27.0112V160.871Z" fill="#EBEBEB"/>
<path d="M27.0112 21.9697H39.192V16.8223H27.0112V21.9697Z" fill="#EBEBEB"/>
<path d="M20.217 28.4604H32.3978V23.3131H20.217V28.4604Z" fill="#EBEBEB"/>
<path d="M197.602 21.9741H209.783V16.8267H197.602V21.9741Z" fill="#EBEBEB"/>
<path d="M131.657 56.502H119.476V61.6494H131.657V56.502Z" fill="#EBEBEB"/>
<path d="M124.862 50.0112H112.682V55.1586H124.862V50.0112Z" fill="#EBEBEB"/>
<path d="M16.8866 188.559L41.4138 188.448L65.941 188.407L115 188.329L164.054 188.407L188.586 188.448L213.113 188.559L188.586 188.669L164.054 188.71L115 188.789L65.941 188.71L41.4138 188.669L16.8866 188.559Z" fill="#263238"/>
<path d="M74.5982 216.931C106.471 216.931 132.31 212.917 132.31 207.966C132.31 203.014 106.471 199 74.5982 199C42.725 199 16.8866 203.014 16.8866 207.966C16.8866 212.917 42.725 216.931 74.5982 216.931Z" fill="#EBEBEB"/>
<path d="M188.908 213.734C201.408 213.734 211.54 211.151 211.54 207.966C211.54 204.78 201.408 202.197 188.908 202.197C176.409 202.197 166.276 204.78 166.276 207.966C166.276 211.151 176.409 213.734 188.908 213.734Z" fill="#EBEBEB"/>
<path d="M186.87 197.625H71.1621L81.9077 43.9302H197.621L186.87 197.625Z" fill="#FFC414"/>
<g opacity="0.1">
<path opacity="0.1" d="M186.87 197.625H71.1621L81.9077 43.9302H197.621L186.87 197.625Z" fill="black"/>
</g>
<path d="M184.037 197.625H68.3239L79.074 43.9302H194.782L184.037 197.625Z" fill="#FFC414"/>
<path d="M178.77 188.526L76.5394 189.828L84.456 51.3682L186.691 50.0664L178.77 188.526Z" fill="#EBEBEB"/>
<path d="M176.263 190.27L74.2947 188.066L86.9631 49.6294L188.931 51.8282L176.263 190.27Z" fill="#DBDBDB"/>
<path d="M177.845 189.185H75.6976L85.3806 50.7153H187.528L177.845 189.185Z" fill="white"/>
<path d="M106.683 94.3877H96.4851L97.1981 84.1895H107.396L106.683 94.3877Z" fill="#EBEBEB"/>
<path d="M145.838 85.6845H112.797L112.902 84.1895H145.944L145.838 85.6845Z" fill="#263238"/>
<path d="M170.724 88.5824H112.594L112.7 87.0874H170.826L170.724 88.5824Z" fill="#EBEBEB"/>
<path d="M170.517 91.4847H112.392L112.498 89.9897H170.623L170.517 91.4847Z" fill="#EBEBEB"/>
<path d="M170.315 94.3876H112.189L112.295 92.8926H170.421L170.315 94.3876Z" fill="#EBEBEB"/>
<path d="M97.6305 88.7801C97.9847 89.0929 98.3205 89.4241 98.6517 89.7507C98.9829 90.0773 99.3003 90.4223 99.6269 90.7581C100.266 91.4389 100.878 92.1381 101.467 92.8419L100.289 92.9201C101.356 90.9881 102.547 89.1274 103.854 87.3495C104.512 86.4571 105.197 85.5877 105.924 84.7413C106.656 83.8848 107.44 83.0737 108.27 82.3125C107.889 83.3616 107.437 84.3836 106.918 85.3715C106.416 86.3559 105.869 87.3127 105.289 88.2511C104.133 90.1344 102.855 91.9399 101.462 93.6561L100.763 94.5117L100.303 93.7297C99.8431 92.9339 99.3463 92.1335 98.9231 91.3101C98.7023 90.8915 98.4631 90.4867 98.2653 90.0635C98.0675 89.6403 97.8191 89.1941 97.6305 88.7801Z" fill="#FFC414"/>
<path d="M105.349 113.455H95.151L95.864 103.256H106.062L105.349 113.455Z" fill="#EBEBEB"/>
<path d="M144.504 104.751H111.463L111.568 103.256H144.61L144.504 104.751Z" fill="#263238"/>
<path d="M169.39 107.654H111.26L111.366 106.159H169.492L169.39 107.654Z" fill="#EBEBEB"/>
<path d="M169.188 110.557H111.058L111.164 109.062H169.289L169.188 110.557Z" fill="#EBEBEB"/>
<path d="M168.986 113.454H110.855L110.961 111.964H169.087L168.986 113.454Z" fill="#EBEBEB"/>
<path d="M96.2964 107.829C96.6506 108.142 96.9864 108.468 97.3176 108.8C97.6488 109.131 97.9662 109.471 98.2928 109.807C98.9322 110.488 99.544 111.187 100.133 111.891L98.9598 111.964C100.024 110.031 101.215 108.17 102.525 106.394C103.178 105.506 103.863 104.637 104.59 103.79C105.321 102.933 106.104 102.121 106.936 101.361C106.553 102.409 106.103 103.431 105.588 104.42C105.082 105.405 104.535 106.362 103.955 107.3C102.802 109.181 101.528 110.984 100.142 112.7L99.4428 113.556L98.9828 112.774C98.4952 111.978 98.0214 111.173 97.5752 110.35C97.3544 109.936 97.1152 109.526 96.9174 109.108C96.7196 108.689 96.485 108.266 96.2964 107.829Z" fill="#FFC414"/>
<path d="M104.015 132.526H93.817L94.53 122.328H104.728L104.015 132.526Z" fill="#EBEBEB"/>
<path d="M143.17 123.823H110.129L110.234 122.328H143.276L143.17 123.823Z" fill="#263238"/>
<path d="M168.056 126.725H109.926L110.032 125.23H168.162L168.056 126.725Z" fill="#EBEBEB"/>
<path d="M167.854 129.623H109.724L109.83 128.133H167.96L167.854 129.623Z" fill="#EBEBEB"/>
<path d="M167.652 132.526H109.521L109.627 131.031H167.753L167.652 132.526Z" fill="#EBEBEB"/>
<path d="M94.9624 126.9C95.3166 127.213 95.6524 127.54 95.9836 127.871C96.3148 128.202 96.6322 128.542 96.9588 128.878C97.5982 129.554 98.21 130.258 98.7988 130.962L97.6258 131.036C98.6949 129.103 99.8888 127.242 101.2 125.465C101.853 124.577 102.539 123.703 103.265 122.861C103.996 122.004 104.78 121.193 105.611 120.433C105.229 121.479 104.779 122.499 104.264 123.487C103.758 124.471 103.21 125.433 102.631 126.371C101.476 128.254 100.197 130.058 98.8034 131.772L98.1042 132.627L97.6442 131.85C97.1566 131.054 96.6828 130.249 96.2366 129.426C96.0204 129.012 95.7766 128.602 95.5788 128.179C95.381 127.756 95.151 127.337 94.9624 126.9Z" fill="#FFC414"/>
<path d="M102.681 151.598H92.483L93.196 141.399H103.394L102.681 151.598Z" fill="#EBEBEB"/>
<path d="M141.836 142.894H108.795L108.9 141.399H141.942L141.836 142.894Z" fill="#263238"/>
<path d="M166.722 145.792H108.592L108.698 144.297H166.828L166.722 145.792Z" fill="#EBEBEB"/>
<path d="M166.52 148.695H108.39L108.496 147.2H166.626L166.52 148.695Z" fill="#EBEBEB"/>
<path d="M166.318 151.598H108.187L108.293 150.103H166.423L166.318 151.598Z" fill="#EBEBEB"/>
<path d="M101.347 170.665H91.149L91.862 160.471H102.06L101.347 170.665Z" fill="#EBEBEB"/>
<path d="M140.502 161.962H107.465L107.566 160.471H140.608L140.502 161.962Z" fill="#263238"/>
<path d="M165.388 164.864H107.263L107.364 163.369H165.494L165.388 164.864Z" fill="#EBEBEB"/>
<path d="M165.186 167.767H107.056L107.162 166.272H165.292L165.186 167.767Z" fill="#EBEBEB"/>
<path d="M164.984 170.664H106.853L106.959 169.169H165.089L164.984 170.664Z" fill="#EBEBEB"/>
<path d="M161.143 56.4234H110.97L112.038 41.1284H162.21L161.143 56.4234Z" fill="#C7C7C7"/>
<path d="M153.051 32.7612H121.9L119.945 41.124H154.302L153.051 32.7612ZM137.287 38.778C137.05 38.7816 136.816 38.7353 136.598 38.6423C136.381 38.5493 136.185 38.4115 136.024 38.238C135.863 38.0645 135.74 37.8592 135.664 37.6352C135.588 37.4112 135.559 37.1737 135.58 36.938C135.62 36.442 135.844 35.9787 136.207 35.6385C136.57 35.2983 137.047 35.1056 137.545 35.098C137.781 35.0945 138.016 35.1407 138.234 35.2338C138.451 35.3268 138.647 35.4645 138.808 35.638C138.969 35.8115 139.091 36.0169 139.168 36.2409C139.244 36.4648 139.273 36.7024 139.251 36.938C139.213 37.4348 138.991 37.8994 138.627 38.24C138.263 38.5806 137.785 38.7726 137.287 38.778Z" fill="#C7C7C7"/>
<path d="M154.302 41.1242H119.945L120.387 39.252H154.022L154.302 41.1242Z" fill="#A6A6A6"/>
<path d="M57.4724 86.627C58.1532 91.687 61.939 103.767 64.7634 104.535C67.3946 105.248 78.959 101.802 80.4494 99.507C81.2452 98.2788 84.3962 86.9949 82.984 87.6711C81.1992 88.5222 68.1076 95.1416 67.5694 95.0081C66.4332 94.7229 64.216 90.2426 62.2978 87.7402C58.121 82.2754 57.1504 84.2534 57.4724 86.627Z" fill="#774442"/>
<path d="M65.3706 91.6688L59.4412 97.1014C59.4412 97.1014 57.3436 89.3412 57.1044 85.7486C56.8652 82.156 59.8 82.5654 65.3706 91.6688Z" fill="#263238"/>
<path d="M41.0826 143.161C41.0826 143.161 34.8128 153.083 28.3958 148.258C21.9788 143.433 29.7758 134.656 29.7758 134.656L41.0826 143.161Z" fill="#DD6A57"/>
<path d="M29.482 135.021L40.8016 143.526L90.3793 77.5426L79.0597 69.0375L29.482 135.021Z" fill="#FFC414"/>
<path opacity="0.1" d="M29.482 135.021L40.8016 143.526L90.3793 77.5426L79.0597 69.0375L29.482 135.021Z" fill="black"/>
<path d="M28.2634 134.663L41.4806 144.594L43.4508 141.972L30.2335 132.041L28.2634 134.663Z" fill="#37474F"/>
<path d="M30.4419 131.765L43.6592 141.696L45.6294 139.074L32.4121 129.143L30.4419 131.765Z" fill="#37474F"/>
<path d="M79.0556 69.0413L89.4378 64.0963L92.851 62.4541L92.2484 66.2123L90.4084 77.5559L88.0256 78.3379C88.0256 78.3379 88.1452 75.8953 88.1406 75.8539L85.7578 76.6359C85.7578 76.6359 85.882 74.1933 85.8728 74.1473L83.5176 74.9523C83.5176 74.9523 83.6142 72.4913 83.6096 72.4453L81.2498 73.2503C81.2498 73.2503 81.3464 70.7893 81.3418 70.7433L78.9866 71.5437C78.9866 71.5437 79.0648 69.0827 79.0556 69.0413Z" fill="#EBEBEB"/>
<path d="M89.4377 64.0963L92.851 62.4541L92.2483 66.2123L89.4377 64.0963Z" fill="#37474F"/>
<g opacity="0.1">
<path opacity="0.1" d="M45.6918 131.408C48.76 127.162 51.8696 122.953 54.9884 118.744L64.4 106.154L73.876 93.6279L78.6278 87.3995L83.4348 81.1895L78.8072 87.5375L74.1428 93.8395L64.7496 106.43L55.269 118.955C52.095 123.117 48.9026 127.268 45.6918 131.408Z" fill="black"/>
<path opacity="0.1" d="M42.5499 129.42C45.6181 125.179 48.7277 120.966 51.8419 116.757L61.2397 104.166L70.7157 91.6407L75.4859 85.4031L80.2929 79.1885L75.6653 85.5595L71.0009 91.8753L61.6031 104.465L52.1271 116.991C48.9485 121.131 45.7699 125.294 42.5499 129.42Z" fill="black"/>
<path opacity="0.1" d="M39.4036 127.42C42.4764 123.174 45.586 118.965 48.7002 114.756L58.0934 102.166L67.574 89.6397L72.3442 83.3975L77.1512 77.1875L72.5236 83.5355L67.8546 89.8513L58.4614 102.442L48.9808 115C45.8068 119.14 42.6282 123.307 39.4036 127.42Z" fill="black"/>
</g>
<path d="M84.111 87.2616C84.2766 89.0188 85.3898 91.5304 85.0954 92.8092C85.0329 93.1267 84.8699 93.4158 84.6305 93.6336C84.3911 93.8515 84.0881 93.9866 83.766 94.019C83.766 94.019 84.7642 95.0724 84.3042 96.1856C84.065 96.7606 82.9242 96.8848 82.9242 96.8848C83.1363 97.1355 83.2755 97.4397 83.3266 97.7642C83.3777 98.0887 83.3388 98.4209 83.214 98.7248C82.8414 99.493 81.7696 99.5022 81.7696 99.5022C81.7696 99.5022 82.11 100.689 81.4752 101.342C80.1918 102.681 73.278 100.174 73.1354 97.239C73.071 95.859 74.727 96.5766 74.727 96.5766C74.727 96.5766 72.588 94.9896 73.071 93.5498C73.554 92.11 75.647 93.1588 75.647 93.1588C75.647 93.1588 73.5908 91.5994 74.2394 90.1596C74.888 88.7198 76.8338 90.0676 76.8338 90.0676C76.8338 90.0676 75.6746 88.4668 76.4244 87.4778C77.6618 85.8448 79.7318 89.212 81.3786 89.4052L83.1266 87.2064L84.111 87.2616Z" fill="#774442"/>
<path d="M84.7044 89.9436C84.7044 88.2646 87.1838 87.1054 87.4 85.5C87.699 83.3288 84.7136 84.4788 83.145 87.2204L82.3032 89.5618L84.7044 89.9436Z" fill="#774442"/>
<path d="M81.6178 99.5346C81.6178 99.5346 81.6178 99.576 81.6178 99.5714C79.0444 99.3001 76.6149 98.2507 74.6534 96.563C74.5936 96.5078 74.6534 96.3836 74.7316 96.4342C76.865 97.7951 79.1845 98.8395 81.6178 99.5346Z" fill="#263238"/>
<path d="M82.9702 96.9124C82.9978 96.9124 82.9702 96.963 82.9702 96.963C80.1351 96.633 77.5116 95.3 75.5734 93.2048C75.509 93.1312 75.5274 92.9978 75.6102 93.076C76.9764 94.4376 80.6748 96.2914 82.9702 96.9124Z" fill="#263238"/>
<path d="M76.7601 89.8746C78.6737 91.9032 81.0473 93.1176 83.6601 94.0146C83.6923 94.0146 83.6601 94.0744 83.6601 94.0744C82.2801 93.9824 80.6563 93.2418 79.4557 92.5564C78.3246 91.9418 77.3732 91.0428 76.6957 89.9482C76.6635 89.8976 76.7233 89.8332 76.7601 89.8746Z" fill="#263238"/>
<path d="M83.5866 207.267C82.7034 207.561 57.4724 207.488 56.511 206.876C56.1476 206.65 55.9452 202.97 55.821 198.522C55.821 197.561 55.775 196.572 55.7612 195.564C55.7612 194.368 55.729 193.163 55.7198 191.99C55.6876 186.719 55.7612 182.077 55.7612 182.077H72.1878V191.99V195.564L72.105 198.522C72.105 198.522 81.765 202.874 82.731 203.656C83.697 204.438 84.4652 207 83.5866 207.267Z" fill="#774442"/>
<path d="M83.5865 207.267C82.7033 207.561 57.4723 207.488 56.5109 206.876C56.1475 206.65 55.9451 202.97 55.8209 198.522C55.8209 197.561 55.7749 196.572 55.7611 195.564C55.7611 194.368 55.7289 193.163 55.7197 191.99H72.1785V195.564L72.0957 198.522C72.0957 198.522 81.7557 202.874 82.7217 203.656C83.6877 204.438 84.4651 207 83.5865 207.267Z" fill="white"/>
<path d="M83.6648 207.303C83.0852 207.492 72.3395 207.533 64.5149 207.372C62.7071 207.331 61.0511 207.28 59.7125 207.225C57.8725 207.138 56.6351 207.037 56.4373 206.912C55.9773 206.627 55.7795 201.227 55.6783 195.537H72.1877L72.1003 198.513C72.1003 198.513 81.8017 202.883 82.7907 203.674C83.7797 204.465 84.548 207 83.6648 207.303Z" fill="#FFC414"/>
<path d="M83.3013 206.287C79.0463 206.172 61.8837 206.103 57.6701 206.31C57.6379 206.31 57.6379 206.337 57.6701 206.337C61.8837 206.544 79.0463 206.475 83.3013 206.36C83.3887 206.356 83.3887 206.291 83.3013 206.287Z" fill="#263238"/>
<path d="M72.703 197.57C71.0332 197.253 68.9862 197.501 67.7028 198.692C67.6522 198.738 67.7028 198.807 67.7718 198.789C69.3676 198.284 71.0131 197.953 72.68 197.8C72.7105 197.803 72.7409 197.794 72.7647 197.774C72.7884 197.755 72.8034 197.727 72.8065 197.697C72.8095 197.666 72.8003 197.636 72.7809 197.612C72.7615 197.588 72.7335 197.573 72.703 197.57Z" fill="#263238"/>
<path d="M73.9082 198.301C72.2384 197.984 70.1914 198.232 68.908 199.423C68.8574 199.469 68.908 199.538 68.977 199.52C70.5787 199.01 72.2302 198.672 73.9036 198.513C73.9316 198.513 73.9588 198.503 73.9791 198.483C73.9993 198.464 74.0111 198.437 74.0117 198.409C74.0123 198.381 74.0017 198.354 73.9823 198.334C73.9629 198.313 73.9362 198.302 73.9082 198.301Z" fill="#263238"/>
<path d="M75.118 199.032C73.4436 198.715 71.3966 198.963 70.1132 200.155C70.0626 200.201 70.1132 200.27 70.1868 200.251C71.7869 199.741 73.4369 199.403 75.1088 199.244C75.1368 199.245 75.1642 199.235 75.1849 199.216C75.2056 199.197 75.218 199.171 75.2192 199.143C75.2204 199.115 75.2104 199.087 75.1915 199.067C75.1725 199.046 75.1461 199.034 75.118 199.032Z" fill="#263238"/>
<path d="M76.3232 199.764C74.6488 199.446 72.6018 199.695 71.3184 200.886C71.2678 200.932 71.3184 201.001 71.392 200.983C72.9921 200.473 74.6421 200.135 76.314 199.976C76.342 199.977 76.3694 199.967 76.3902 199.948C76.4109 199.929 76.4232 199.902 76.4244 199.874C76.4256 199.846 76.4156 199.819 76.3967 199.798C76.3777 199.777 76.3513 199.765 76.3232 199.764Z" fill="#263238"/>
<path d="M75.808 193.706C75.1502 192.786 73.9266 193.204 73.2274 193.788C72.0426 194.814 71.1493 196.134 70.6376 197.616C70.6345 197.622 70.633 197.629 70.6333 197.636C70.6337 197.643 70.6358 197.65 70.6394 197.656C70.6431 197.662 70.6483 197.667 70.6544 197.67C70.6605 197.674 70.6674 197.675 70.6744 197.675C70.6732 197.708 70.6797 197.74 70.6934 197.77C70.707 197.799 70.7275 197.825 70.753 197.845C70.7786 197.866 70.8085 197.88 70.8404 197.886C70.8723 197.892 70.9053 197.891 70.9366 197.882C72.3166 197.376 73.8622 197.004 75.049 196.088C75.7436 195.555 76.4244 194.58 75.808 193.706ZM72.8778 196.686C72.2016 196.953 71.4978 197.183 70.8584 197.473C71.3399 196.714 71.8604 195.98 72.4178 195.274C72.692 194.936 72.9886 194.616 73.3056 194.317C73.807 193.857 75.7804 192.905 75.4814 194.741C75.3158 195.753 73.6828 196.369 72.8778 196.686Z" fill="#263238"/>
<path d="M66.3825 197.165C67.7625 197.758 69.3495 197.731 70.8123 197.878C70.845 197.879 70.8773 197.871 70.9067 197.857C70.9361 197.843 70.9617 197.822 70.9815 197.796C71.0012 197.77 71.0145 197.74 71.0203 197.708C71.0261 197.675 71.0242 197.642 71.0147 197.611C71.0213 197.609 71.0274 197.605 71.0323 197.6C71.0372 197.595 71.0409 197.589 71.0431 197.582C71.0454 197.576 71.046 197.568 71.0451 197.562C71.0442 197.555 71.0416 197.548 71.0377 197.542C70.1733 196.236 68.9802 195.181 67.5785 194.483C66.7505 194.092 65.4625 194.023 65.0577 195.049C64.6529 196.075 65.5821 196.82 66.3825 197.165ZM65.6327 195.969C64.8829 194.267 67.0127 194.704 67.6291 195.017C68.0129 195.223 68.3805 195.458 68.7285 195.72C69.4454 196.264 70.1333 196.844 70.7893 197.459C70.0763 197.344 69.3541 197.289 68.6365 197.202C67.7809 197.096 66.0467 196.907 65.6327 195.96V195.969Z" fill="#263238"/>
<path d="M50.2826 112.079C50.2826 112.079 54.7216 155.986 54.8274 156.543C54.8274 156.616 54.8734 157.463 54.9148 158.843C55.154 166.4 55.7474 189.966 55.7474 189.966H73.8576C73.8576 189.966 72.6754 162.053 72.0176 155.54C71.1528 147.232 65.665 112.079 65.665 112.079H50.2826Z" fill="#263238"/>
<path d="M56.9848 158.093C56.4297 148.586 55.591 139.095 54.4686 129.619C53.8292 124.283 53.0886 118.97 52.3066 113.652C52.3066 113.606 52.2238 113.606 52.233 113.652C53.613 123.119 54.625 132.655 55.4806 142.172C56.3362 151.69 56.9342 161.225 57.3206 170.775C57.546 176.185 57.7116 181.074 57.8864 186.489C57.8913 186.511 57.9038 186.531 57.9218 186.546C57.9398 186.56 57.9622 186.568 57.9853 186.568C58.0084 186.568 58.0308 186.56 58.0488 186.546C58.0668 186.531 58.0793 186.511 58.0842 186.489C57.8312 176.847 57.5506 167.721 56.9848 158.093Z" fill="#455A64"/>
<path d="M72.6156 186.962C64.3356 186.7 57.2148 186.888 56.5984 186.934C56.0878 186.976 56.373 187.026 56.626 187.045C63.6364 187.463 72.3396 187.068 72.6156 187.045C72.68 187.026 72.68 186.962 72.6156 186.962Z" fill="#455A64"/>
<path d="M50.2826 112.079C50.2826 112.079 54.7216 155.986 54.8274 156.543C54.8274 156.616 54.8734 157.463 54.9148 158.843L63.4524 112.079H50.2826Z" fill="#455A64"/>
<path d="M56.028 210.855C55.108 211.08 29.9736 209.13 29.0582 208.444C28.7132 208.191 28.7822 204.507 28.9984 200.068C29.0398 199.106 29.049 198.108 29.1548 197.11C29.2836 195.849 29.4262 194.594 29.5826 193.379C30.2358 188.117 30.9948 183.719 30.9948 183.719L46.92 184.92L45.931 194.437L45.54 198.329L45.2364 201.273C45.2364 201.273 54.533 206.333 55.453 207.184C56.373 208.035 56.9296 210.625 56.028 210.855Z" fill="#774442"/>
<path d="M56.028 210.855C55.108 211.08 29.9736 209.13 29.0582 208.444C28.7132 208.191 28.7822 204.507 28.9984 200.068C29.0398 199.106 29.049 198.108 29.1548 197.11C29.2836 195.85 29.4262 194.594 29.5826 193.379C34.4862 193.724 41.5426 194.161 45.9264 194.428L45.54 198.329L45.2364 201.273C45.2364 201.273 54.533 206.333 55.453 207.184C56.373 208.035 56.9296 210.625 56.028 210.855Z" fill="white"/>
<path d="M56.12 210.892C55.2 211.122 29.9 209.157 29.003 208.477C28.5798 208.159 28.7684 202.763 29.095 197.073L45.54 198.301L45.2364 201.264C45.2364 201.264 54.5836 206.347 55.5082 207.207C56.4328 208.067 57.0078 210.68 56.12 210.892Z" fill="#FFC414"/>
<path d="M55.821 209.852C51.589 209.419 34.477 208.072 30.2588 207.966C30.2266 207.966 30.222 207.966 30.2588 207.993C34.4448 208.513 51.566 209.723 55.8118 209.921C55.9038 209.925 55.9084 209.861 55.821 209.852Z" fill="#263238"/>
<path d="M45.8988 200.367C44.2566 199.93 42.2188 200.026 40.8388 201.116C40.7836 201.158 40.8388 201.231 40.8986 201.218C42.5296 200.822 44.1981 200.602 45.8758 200.56C45.8957 200.554 45.9134 200.542 45.9268 200.527C45.9402 200.511 45.9486 200.491 45.951 200.471C45.9535 200.45 45.9498 200.429 45.9406 200.411C45.9313 200.392 45.9167 200.377 45.8988 200.367Z" fill="#263238"/>
<path d="M47.0488 201.185C45.402 200.748 43.3688 200.845 41.9888 201.935C41.9382 201.977 41.9888 202.05 42.0532 202.036C43.6878 201.647 45.3594 201.432 47.0396 201.397C47.0535 201.398 47.0673 201.396 47.0804 201.391C47.0935 201.386 47.1055 201.379 47.1157 201.369C47.126 201.36 47.1343 201.349 47.1402 201.336C47.146 201.323 47.1494 201.31 47.15 201.296C47.1506 201.282 47.1484 201.268 47.1437 201.255C47.1389 201.242 47.1316 201.23 47.1222 201.22C47.1128 201.209 47.1015 201.201 47.0889 201.195C47.0763 201.189 47.0627 201.186 47.0488 201.185Z" fill="#263238"/>
<path d="M48.1987 202.009C46.5519 201.549 44.4911 201.664 43.1387 202.754C43.0835 202.796 43.1387 202.869 43.2031 202.86C44.8376 202.468 46.5092 202.252 48.1895 202.216C48.2136 202.212 48.2355 202.2 48.2517 202.182C48.2679 202.164 48.2773 202.141 48.2784 202.116C48.2795 202.092 48.2721 202.068 48.2576 202.048C48.2431 202.029 48.2223 202.015 48.1987 202.009Z" fill="#263238"/>
<path d="M49.3442 202.828C47.702 202.368 45.6642 202.483 44.2842 203.573C44.229 203.614 44.2842 203.688 44.344 203.679C45.9786 203.288 47.6501 203.072 49.3304 203.035C49.3547 203.032 49.377 203.02 49.3937 203.002C49.4105 202.984 49.4205 202.961 49.4221 202.937C49.4237 202.913 49.4169 202.888 49.4027 202.869C49.3885 202.849 49.3678 202.834 49.3442 202.828Z" fill="#263238"/>
<path d="M49.2798 196.747C48.6956 195.794 47.4398 196.107 46.6992 196.636C45.444 197.574 44.4561 198.823 43.8334 200.261C43.8334 200.293 43.8334 200.316 43.8702 200.325C43.8702 200.45 43.9668 200.592 44.114 200.551C45.5308 200.151 47.0994 199.893 48.3506 199.065C49.082 198.587 49.8364 197.653 49.2798 196.747ZM46.138 199.507C45.448 199.723 44.758 199.902 44.0634 200.141C44.6246 199.438 45.1536 198.711 45.7838 198.062C46.084 197.745 46.4052 197.448 46.7452 197.174C47.2742 196.765 49.3166 195.955 48.8796 197.763C48.6358 198.752 46.966 199.244 46.138 199.502V199.507Z" fill="#263238"/>
<path d="M39.629 199.497C40.9584 200.187 42.5408 200.279 43.9944 200.537C44.1416 200.564 44.2336 200.408 44.2152 200.284C44.2215 200.282 44.2274 200.279 44.2324 200.274C44.2373 200.27 44.2412 200.264 44.2439 200.258C44.2465 200.252 44.2477 200.245 44.2476 200.239C44.2474 200.232 44.2457 200.225 44.2428 200.219C43.478 198.852 42.3676 197.71 41.0228 196.907C40.227 196.447 38.9528 196.277 38.4652 197.285C37.9776 198.292 38.8516 199.092 39.629 199.497ZM38.9666 198.26C38.3456 196.507 40.4616 197.101 41.032 197.459C41.3965 197.697 41.7453 197.959 42.0762 198.241C42.7478 198.828 43.3896 199.449 43.999 200.1C43.2952 199.93 42.5822 199.824 41.8692 199.681C41.0228 199.529 39.307 199.217 38.9666 198.26Z" fill="#263238"/>
<path d="M65.6465 112.079C65.6465 112.079 65.1129 116.55 62.5461 119.775C61.9297 120.548 60.0483 121.265 59.0731 121.974C59.0731 121.974 55.4299 155.453 54.3213 159.234C53.0885 163.457 48.2999 192.28 48.2999 192.28L29.3801 190.955C29.3801 190.955 35.0611 162.684 36.4089 155.683C36.7125 154.119 40.7605 124.656 40.6731 123.975C39.5829 115.86 43.5297 112.102 43.5297 112.102L65.6465 112.079Z" fill="#263238"/>
<path d="M51.0186 112.571C50.6499 113.847 49.8706 114.966 48.8014 115.754C47.6215 116.594 46.2233 117.073 44.7764 117.134C44.5326 117.134 44.5142 117.52 44.7764 117.525C47.7296 117.525 50.715 115.653 51.1474 112.589C51.1474 112.52 51.06 112.506 51.0186 112.571Z" fill="#455A64"/>
<path d="M62.8957 119.641C61.8242 120.07 60.8018 120.613 59.846 121.26C58.834 121.886 57.8956 122.64 56.9158 123.298C56.879 123.326 56.9158 123.386 56.9526 123.363C57.9784 122.774 59.0456 122.259 60.0622 121.651C61.078 121.095 62.0417 120.448 62.9417 119.719C62.9739 119.692 62.9417 119.623 62.8957 119.641Z" fill="#455A64"/>
<path d="M63.3144 113.482C63.1534 114.158 62.9602 114.83 62.7808 115.502C62.6014 116.173 62.4818 116.776 62.284 117.397C62.1208 118.001 61.7851 118.544 61.318 118.961C61.0604 119.182 60.7752 119.37 60.4992 119.573L60.0392 119.895C60.0622 119.803 60.0852 119.711 60.1036 119.619C60.1634 119.366 60.2186 119.108 60.2738 118.85C60.3934 118.28 60.513 117.71 60.628 117.135C60.8534 116.012 61.088 114.876 61.3502 113.767C61.3476 113.76 61.3429 113.754 61.3367 113.75C61.3305 113.746 61.3232 113.743 61.3157 113.743C61.3082 113.743 61.3008 113.746 61.2947 113.75C61.2885 113.754 61.2838 113.76 61.2812 113.767C60.95 114.867 60.5866 115.952 60.2922 117.061C60.145 117.604 59.593 120.281 59.5654 120.488C59.5378 120.695 59.5102 120.884 59.4918 121.081C59.4574 121.282 59.4481 121.486 59.4642 121.689C59.4682 121.697 59.4747 121.705 59.4829 121.71C59.491 121.715 59.5005 121.718 59.5102 121.718C59.5199 121.718 59.5294 121.715 59.5375 121.71C59.5457 121.705 59.5522 121.697 59.5562 121.689C59.648 121.505 59.7145 121.31 59.754 121.109C59.8138 120.916 59.8644 120.723 59.9104 120.529L59.9518 120.313C60.2278 120.161 60.4854 119.959 60.743 119.789C61.0006 119.619 61.3042 119.43 61.5664 119.228C62.056 118.852 62.4201 118.337 62.6106 117.751C62.8042 117.119 62.9412 116.471 63.02 115.814C63.1396 115.051 63.2408 114.278 63.3834 113.514C63.3926 113.459 63.3236 113.436 63.3144 113.482Z" fill="#455A64"/>
<path d="M47.38 188.986C39.1736 188.066 32.039 187.68 31.4226 187.675C30.9074 187.675 31.188 187.749 31.4226 187.786C38.3732 188.766 47.0626 189.069 47.3616 189.06C47.3665 189.061 47.3715 189.061 47.3764 189.061C47.3813 189.06 47.3861 189.058 47.3903 189.056C47.3946 189.053 47.3983 189.05 47.4013 189.046C47.4043 189.042 47.4064 189.037 47.4076 189.032C47.4088 189.028 47.4091 189.022 47.4083 189.018C47.4076 189.013 47.4059 189.008 47.4034 189.004C47.4008 188.999 47.3974 188.996 47.3934 188.993C47.3894 188.99 47.3849 188.988 47.38 188.986Z" fill="#455A64"/>
<path d="M65.1912 102.916L66.7322 115.63C66.7322 115.63 46.0828 115.446 40.9722 114.963C40.9722 114.963 45.7102 91.3788 51.3636 85.523C54.188 82.5974 57.4172 82.8964 59.432 85.04C59.9426 85.5782 65.9732 93.9548 66.5528 97.115C67.0542 99.9072 65.1912 102.916 65.1912 102.916Z" fill="#FFC414"/>
<path d="M56.2855 92.5334C56.459 92.4753 56.6452 92.4657 56.8237 92.5058C56.9187 92.541 57.0012 92.6034 57.061 92.6852C57.1207 92.767 57.155 92.8646 57.1595 92.9658C57.1572 93.0344 57.173 93.1024 57.2053 93.1629C57.2376 93.2235 57.2853 93.2745 57.3435 93.3108C57.4048 93.3559 57.479 93.3801 57.5551 93.3798C57.6425 93.3798 57.7253 93.4074 57.8127 93.4304C57.6373 93.484 57.4499 93.484 57.2745 93.4304C57.1823 93.3934 57.103 93.33 57.0466 93.2482C56.9901 93.1664 56.959 93.0698 56.9571 92.9704C56.9546 92.9018 56.9352 92.8348 56.9007 92.7755C56.8662 92.7161 56.8177 92.6662 56.7593 92.63C56.6933 92.5925 56.619 92.572 56.5431 92.5702C56.4557 92.5656 56.3729 92.5564 56.2855 92.5334Z" fill="white"/>
<path d="M61.0006 109.392C61.1741 109.334 61.3603 109.325 61.5388 109.365C61.6333 109.4 61.7152 109.463 61.7741 109.545C61.8331 109.626 61.8664 109.724 61.87 109.825C61.8691 109.893 61.8854 109.961 61.9176 110.021C61.9498 110.081 61.9967 110.132 62.054 110.17C62.1192 110.21 62.1935 110.234 62.2702 110.239C62.353 110.239 62.4404 110.266 62.5232 110.289C62.3478 110.343 62.1604 110.343 61.985 110.289C61.8906 110.249 61.8102 110.181 61.7538 110.095C61.6973 110.01 61.6674 109.909 61.6676 109.806C61.6674 109.738 61.6494 109.672 61.6155 109.613C61.5816 109.554 61.533 109.505 61.4744 109.47C61.4075 109.431 61.3315 109.409 61.2536 109.406C61.1691 109.406 61.0846 109.401 61.0006 109.392Z" fill="white"/>
<path d="M53.3922 85.7803C53.2196 85.8439 53.0314 85.8519 52.854 85.8033C52.7599 85.7623 52.6799 85.6948 52.6235 85.609C52.5672 85.5232 52.537 85.4229 52.5366 85.3203C52.5363 85.2524 52.5184 85.1857 52.4845 85.1268C52.4506 85.0679 52.402 85.0189 52.3434 84.9845C52.2764 84.9447 52.2005 84.9226 52.1226 84.9201H52.026L52.1272 84.8373C52.2212 84.8226 52.3174 84.8304 52.4078 84.8603C52.5019 84.8962 52.5835 84.9589 52.6423 85.0407C52.7012 85.1224 52.7348 85.2197 52.739 85.3203C52.7381 85.3893 52.7545 85.4574 52.7866 85.5185C52.8187 85.5796 52.8656 85.6316 52.923 85.6699C52.9882 85.7106 53.0625 85.7343 53.1392 85.7389C53.2242 85.7483 53.3087 85.7621 53.3922 85.7803Z" fill="white"/>
<path d="M49.6018 99.5853C49.7758 99.5296 49.9612 99.5201 50.14 99.5577C50.2347 99.5934 50.3169 99.6559 50.3765 99.7377C50.4362 99.8194 50.4707 99.9167 50.4758 100.018C50.4741 100.087 50.4901 100.155 50.5223 100.217C50.5545 100.278 50.6018 100.33 50.6598 100.367C50.723 100.409 50.796 100.432 50.8714 100.436L51.129 100.482C50.9563 100.546 50.7683 100.554 50.5908 100.505C50.4953 100.466 50.4138 100.399 50.3572 100.313C50.3005 100.227 50.2713 100.125 50.2734 100.022C50.2714 99.9542 50.2522 99.8878 50.2176 99.8291C50.183 99.7704 50.1342 99.7213 50.0756 99.6865C50.01 99.6475 49.9357 99.6253 49.8594 99.6221C49.772 99.6175 49.68 99.6083 49.6018 99.5853Z" fill="white"/>
<path d="M60.4946 115.552H60.26C60.229 115.482 60.2133 115.407 60.214 115.331C60.2128 115.263 60.194 115.196 60.1593 115.137C60.1247 115.078 60.0754 115.029 60.0162 114.995C59.9512 114.955 59.8765 114.933 59.8 114.931C59.7149 114.92 59.6305 114.905 59.547 114.885C59.719 114.827 59.9036 114.817 60.0806 114.857C60.1756 114.892 60.2581 114.955 60.3178 115.037C60.3776 115.118 60.4119 115.216 60.4164 115.317C60.4134 115.402 60.4412 115.486 60.4946 115.552Z" fill="white"/>
<path d="M54.7124 106.72C54.8859 106.662 55.072 106.652 55.2506 106.692C55.3454 106.727 55.4276 106.79 55.4867 106.872C55.5457 106.954 55.5788 107.051 55.5818 107.152C55.5818 107.221 55.599 107.289 55.632 107.349C55.6649 107.409 55.7125 107.46 55.7704 107.497C55.8326 107.541 55.9062 107.565 55.982 107.566C56.0648 107.566 56.1522 107.594 56.235 107.617C56.061 107.67 55.8754 107.67 55.7014 107.617C55.6095 107.579 55.5305 107.516 55.4742 107.434C55.4178 107.352 55.3865 107.256 55.384 107.157C55.3815 107.088 55.3621 107.021 55.3276 106.962C55.2931 106.903 55.2446 106.853 55.1862 106.817C55.1202 106.779 55.0459 106.759 54.97 106.757C54.8826 106.766 54.7998 106.757 54.7124 106.72Z" fill="white"/>
<path d="M43.6034 105.579C43.4632 105.62 43.3167 105.635 43.171 105.625C43.171 105.583 43.194 105.542 43.2078 105.496C43.2532 105.515 43.3014 105.526 43.3504 105.528C43.4332 105.547 43.5206 105.556 43.6034 105.579Z" fill="white"/>
<path d="M45.5399 108.242C45.7134 108.184 45.8996 108.175 46.0781 108.215C46.1726 108.25 46.2545 108.313 46.3134 108.395C46.3724 108.476 46.4057 108.574 46.4093 108.675C46.4084 108.743 46.4247 108.811 46.4569 108.871C46.4891 108.931 46.536 108.983 46.5933 109.02C46.6575 109.062 46.7324 109.086 46.8095 109.089C46.8923 109.089 46.9797 109.116 47.0625 109.139C46.8871 109.193 46.6997 109.193 46.5243 109.139C46.4299 109.099 46.3495 109.031 46.2931 108.946C46.2366 108.86 46.2067 108.759 46.2069 108.656C46.2067 108.588 46.1887 108.522 46.1548 108.463C46.121 108.404 46.0723 108.355 46.0137 108.321C45.9472 108.28 45.8707 108.26 45.7929 108.261C45.7147 108.275 45.6273 108.265 45.5399 108.242Z" fill="white"/>
<path d="M58.9352 99.7923C59.1083 99.732 59.295 99.7224 59.4734 99.7647C59.5679 99.8001 59.6497 99.8627 59.7087 99.9445C59.7676 100.026 59.801 100.124 59.8046 100.225C59.8037 100.294 59.8201 100.362 59.8522 100.423C59.8843 100.484 59.9312 100.536 59.9886 100.574C60.0538 100.615 60.1281 100.639 60.2048 100.643C60.2876 100.643 60.375 100.671 60.4578 100.694C60.2824 100.748 60.095 100.748 59.9196 100.694C59.8252 100.653 59.7448 100.586 59.6883 100.5C59.6319 100.414 59.602 100.314 59.6022 100.211C59.6019 100.143 59.584 100.076 59.5501 100.017C59.5162 99.9585 59.4676 99.9095 59.409 99.8751C59.342 99.8353 59.2661 99.8131 59.1882 99.8107C59.1036 99.809 59.0191 99.8028 58.9352 99.7923Z" fill="white"/>
<path d="M53.2266 89.8839C53.1465 90.048 53.0222 90.1866 52.8678 90.2841C52.7734 90.3257 52.6688 90.3383 52.5672 90.3203C52.4656 90.3023 52.3717 90.2545 52.2974 90.1829C52.2488 90.1342 52.189 90.0982 52.1232 90.0782C52.0574 90.0581 51.9877 90.0546 51.9202 90.0679C51.8465 90.0836 51.7783 90.1185 51.7224 90.1691C51.6488 90.2197 51.5844 90.2703 51.5062 90.3163C51.6074 90.1783 51.6764 90.0081 51.8742 89.9207C51.9698 89.8823 52.0746 89.8732 52.1753 89.8945C52.276 89.9158 52.3682 89.9666 52.44 90.0403C52.4899 90.0864 52.5506 90.1194 52.6164 90.1363C52.6823 90.1532 52.7513 90.1534 52.8172 90.1369C52.8909 90.1185 52.9588 90.0821 53.015 90.0311C53.0826 89.9779 53.1532 89.9287 53.2266 89.8839Z" fill="white"/>
<path d="M66.4378 99.5762C66.3366 99.7142 66.2676 99.8798 66.079 99.9718C65.9855 100.016 65.8806 100.03 65.7786 100.013C65.6767 99.9958 65.5824 99.9476 65.5086 99.8752C65.4314 99.8007 65.3284 99.7591 65.2211 99.7591C65.1139 99.7591 65.0108 99.8007 64.9336 99.8752L64.7174 100.022C64.7965 99.8573 64.923 99.7195 65.0808 99.6268C65.176 99.5885 65.2804 99.5789 65.381 99.5994C65.4815 99.6198 65.5739 99.6693 65.6466 99.7418C65.6956 99.7895 65.756 99.8238 65.822 99.8415C65.8881 99.8592 65.9575 99.8597 66.0238 99.843C66.0979 99.8232 66.1659 99.7853 66.2216 99.7326C66.2952 99.6728 66.3596 99.6176 66.4378 99.5762Z" fill="white"/>
<path d="M57.5 86.48C57.5581 86.6535 57.5677 86.8396 57.5276 87.0182C57.4927 87.113 57.4303 87.1952 57.3483 87.2542C57.2663 87.3133 57.1685 87.3464 57.0676 87.3494C56.9989 87.3493 56.9312 87.3666 56.871 87.3996C56.8107 87.4325 56.7596 87.4801 56.7226 87.538C56.6793 87.6002 56.6553 87.6738 56.6536 87.7496C56.6536 87.8324 56.626 87.9198 56.603 88.0026C56.5493 87.8272 56.5493 87.6398 56.603 87.4644C56.6412 87.3734 56.705 87.2954 56.7866 87.2398C56.8683 87.1843 56.9643 87.1537 57.063 87.1516C57.1317 87.1495 57.1988 87.1303 57.2582 87.0957C57.3176 87.0612 57.3675 87.0124 57.4034 86.9538C57.4408 86.8878 57.4614 86.8135 57.4632 86.7376C57.4724 86.641 57.5 86.5582 57.5 86.48Z" fill="white"/>
<path d="M55.476 101.453C55.534 101.625 55.5435 101.809 55.5036 101.986C55.4684 102.081 55.406 102.164 55.3242 102.223C55.2424 102.283 55.1448 102.317 55.0436 102.322C54.9751 102.321 54.9075 102.337 54.8471 102.369C54.7867 102.401 54.7355 102.448 54.6986 102.506C54.654 102.568 54.6299 102.642 54.6296 102.718C54.6296 102.805 54.602 102.888 54.579 102.975C54.5178 102.802 54.5098 102.615 54.556 102.437C54.5965 102.343 54.6639 102.262 54.7498 102.206C54.8357 102.149 54.9362 102.119 55.039 102.12C55.1075 102.119 55.1746 102.101 55.2336 102.066C55.2926 102.031 55.3413 101.982 55.3748 101.922C55.4152 101.857 55.4374 101.782 55.4392 101.706C55.4438 101.623 55.453 101.535 55.476 101.453Z" fill="white"/>
<path d="M66.033 112.599C66.0911 112.772 66.1006 112.958 66.0606 113.137C66.0252 113.231 65.9626 113.313 65.8807 113.372C65.7989 113.431 65.7014 113.464 65.6006 113.468C65.5321 113.467 65.4645 113.483 65.4041 113.515C65.3437 113.547 65.2925 113.594 65.2556 113.652C65.2109 113.715 65.1868 113.791 65.1866 113.868C65.1866 113.951 65.159 114.038 65.136 114.121C65.0847 113.945 65.0847 113.759 65.136 113.583C65.1754 113.492 65.2393 113.415 65.3206 113.359C65.4019 113.303 65.4973 113.27 65.596 113.266C65.6644 113.265 65.7315 113.247 65.7911 113.213C65.8506 113.179 65.9006 113.131 65.9364 113.072C65.9746 113.005 65.9951 112.929 65.9962 112.852C66.0008 112.769 66.01 112.7 66.033 112.599Z" fill="white"/>
<path d="M47.2189 101.986C47.2746 102.16 47.2841 102.346 47.2465 102.525C47.2111 102.619 47.1486 102.701 47.0667 102.76C46.9848 102.819 46.8873 102.852 46.7865 102.856C46.7172 102.856 46.6489 102.873 46.5879 102.906C46.5269 102.939 46.475 102.986 46.4369 103.044C46.3957 103.108 46.3718 103.181 46.3679 103.256C46.3679 103.339 46.3679 103.426 46.3219 103.514C46.2662 103.338 46.2662 103.15 46.3219 102.975C46.3599 102.884 46.4236 102.805 46.5051 102.749C46.5867 102.693 46.6828 102.661 46.7819 102.658C46.85 102.656 46.9165 102.637 46.9752 102.602C47.0339 102.568 47.0829 102.519 47.1177 102.46C47.1568 102.395 47.1789 102.32 47.1821 102.244C47.1867 102.157 47.1959 102.074 47.2189 101.986Z" fill="white"/>
<path d="M51.2578 93.3154C51.3175 93.4885 51.3286 93.6747 51.29 93.8536C51.2538 93.948 51.1912 94.0298 51.1095 94.0894C51.0279 94.149 50.9309 94.1837 50.83 94.1894C50.7609 94.1877 50.6924 94.2037 50.6312 94.2359C50.57 94.2681 50.5181 94.3154 50.4804 94.3734C50.4391 94.4366 50.4153 94.5096 50.4114 94.585C50.4114 94.6724 50.3838 94.7552 50.3608 94.8426C50.3071 94.6672 50.3071 94.4798 50.3608 94.3044C50.3983 94.2125 50.4618 94.1336 50.5435 94.0772C50.6252 94.0208 50.7216 93.9895 50.8208 93.987C50.8889 93.985 50.9554 93.9658 51.0141 93.9312C51.0728 93.8966 51.1218 93.8478 51.1566 93.7892C51.1957 93.7236 51.2178 93.6493 51.221 93.573C51.2288 93.4866 51.2411 93.4006 51.2578 93.3154Z" fill="white"/>
<path d="M63.0798 95.1323C63.1379 95.3058 63.1475 95.492 63.1074 95.6705C63.0726 95.7653 63.0101 95.8476 62.9281 95.9066C62.8462 95.9656 62.7484 95.9987 62.6474 96.0017C62.5786 96.0013 62.5108 96.0183 62.4505 96.0513C62.3901 96.0843 62.3392 96.1322 62.3024 96.1903C62.2592 96.2526 62.2352 96.3262 62.2334 96.4019C62.2334 96.4847 62.2058 96.5721 62.1828 96.6549C62.1292 96.4795 62.1292 96.2921 62.1828 96.1167C62.221 96.0257 62.2848 95.9477 62.3665 95.8922C62.4481 95.8367 62.5441 95.806 62.6428 95.8039C62.7114 95.8014 62.7784 95.782 62.8377 95.7475C62.8971 95.713 62.947 95.6645 62.9832 95.6061C63.0207 95.5401 63.0412 95.4658 63.043 95.3899C63.0476 95.3025 63.0568 95.2197 63.0798 95.1323Z" fill="white"/>
<path d="M52.1548 110.303C52.2129 110.477 52.2224 110.663 52.1824 110.841C52.147 110.936 52.0844 111.018 52.0025 111.077C51.9207 111.136 51.8232 111.169 51.7224 111.173C51.654 111.172 51.5865 111.188 51.5262 111.22C51.4658 111.252 51.4147 111.299 51.3774 111.357C51.3347 111.421 51.3108 111.496 51.3084 111.573C51.3084 111.656 51.2808 111.743 51.2578 111.826C51.2041 111.65 51.2041 111.463 51.2578 111.288C51.2967 111.197 51.3606 111.119 51.442 111.063C51.5234 111.006 51.619 110.974 51.7178 110.97C51.7864 110.97 51.8539 110.953 51.9135 110.919C51.9732 110.885 52.0231 110.836 52.0582 110.777C52.0964 110.71 52.1169 110.634 52.118 110.556C52.1226 110.473 52.1318 110.4 52.1548 110.303Z" fill="white"/>
<path d="M48.3 112.599C48.3534 112.782 48.3534 112.977 48.3 113.16C48.2641 113.254 48.2014 113.336 48.1196 113.394C48.0378 113.453 47.9406 113.487 47.84 113.491C47.771 113.49 47.7029 113.507 47.6418 113.539C47.5807 113.571 47.5287 113.618 47.4904 113.675C47.4497 113.74 47.4259 113.815 47.4214 113.891C47.4105 113.976 47.3951 114.061 47.3754 114.144C47.3194 113.969 47.3194 113.781 47.3754 113.606C47.4148 113.515 47.4787 113.438 47.56 113.382C47.6413 113.326 47.7367 113.293 47.8354 113.289C47.9033 113.288 47.97 113.27 48.0289 113.237C48.0878 113.203 48.1368 113.154 48.1712 113.095C48.211 113.028 48.2331 112.953 48.2356 112.875C48.254 112.769 48.2632 112.7 48.3 112.599Z" fill="white"/>
<path d="M60.9039 90.3116C60.981 90.1455 61.106 90.0062 61.2627 89.9114C61.3564 89.868 61.4611 89.8539 61.5629 89.8712C61.6648 89.8884 61.759 89.9361 61.8331 90.008C61.9103 90.0825 62.0134 90.1241 62.1206 90.1241C62.2279 90.1241 62.331 90.0825 62.4081 90.008C62.4817 89.962 62.5461 89.9068 62.6243 89.8608C62.544 90.0266 62.4158 90.1644 62.2563 90.2564C62.162 90.2956 62.0581 90.3056 61.9581 90.2851C61.858 90.2646 61.7665 90.2145 61.6951 90.1414C61.6452 90.0937 61.584 90.0594 61.5172 90.0417C61.4505 90.0241 61.3803 90.0235 61.3133 90.0402C61.2392 90.06 61.1712 90.0979 61.1155 90.1506C61.0465 90.2104 60.9775 90.2656 60.9039 90.3116Z" fill="white"/>
<path d="M54.1604 97.0919C54.2375 96.9258 54.3624 96.7864 54.5192 96.6917C54.6129 96.6482 54.7176 96.6342 54.8194 96.6514C54.9212 96.6687 55.0155 96.7164 55.0896 96.7883C55.1668 96.8628 55.2698 96.9044 55.3771 96.9044C55.4844 96.9044 55.5874 96.8628 55.6646 96.7883C55.7382 96.7423 55.8026 96.6871 55.8808 96.6411C55.802 96.8078 55.6734 96.946 55.5128 97.0367C55.4185 97.0759 55.3146 97.0858 55.2146 97.0653C55.1145 97.0448 55.0229 96.9948 54.9516 96.9217C54.9026 96.874 54.8422 96.8397 54.7762 96.822C54.7102 96.8043 54.6407 96.8038 54.5744 96.8205C54.4987 96.8395 54.429 96.8775 54.372 96.9309C54.303 96.9907 54.234 97.0597 54.1604 97.0919Z" fill="white"/>
<path d="M49.4868 106.292C49.5685 106.129 49.6924 105.991 49.8456 105.892C49.9394 105.849 50.044 105.835 50.1457 105.852C50.2474 105.87 50.3415 105.917 50.416 105.988C50.4636 106.038 50.5234 106.075 50.5895 106.096C50.6556 106.116 50.7258 106.118 50.7932 106.103C50.8681 106.087 50.9376 106.052 50.9956 106.002C51.0646 105.956 51.1336 105.901 51.2072 105.86C51.1106 105.998 51.0416 106.168 50.8438 106.251C50.7487 106.289 50.6442 106.299 50.5435 106.279C50.4428 106.258 50.3504 106.209 50.278 106.136C50.229 106.088 50.1686 106.054 50.1026 106.036C50.0366 106.018 49.9671 106.018 49.9008 106.034C49.8267 106.054 49.7587 106.092 49.703 106.145C49.6294 106.195 49.565 106.26 49.4868 106.292Z" fill="white"/>
<path d="M60.5452 105.34C60.6281 105.178 60.7518 105.04 60.904 104.94C60.9982 104.897 61.103 104.884 61.2047 104.902C61.3065 104.92 61.4004 104.969 61.4744 105.041C61.5232 105.089 61.583 105.125 61.6488 105.145C61.7145 105.165 61.7841 105.169 61.8516 105.156C61.9264 105.139 61.996 105.105 62.054 105.055C62.1215 105.001 62.1922 104.952 62.2656 104.907C62.1865 105.072 62.06 105.21 61.9022 105.303C61.8066 105.341 61.7018 105.35 61.6011 105.329C61.5004 105.308 61.4082 105.257 61.3364 105.183C61.2872 105.136 61.2266 105.102 61.1605 105.085C61.0944 105.069 61.025 105.069 60.9592 105.087C60.8855 105.105 60.8176 105.142 60.7614 105.193C60.6922 105.246 60.62 105.295 60.5452 105.34Z" fill="white"/>
<path d="M56.304 112.042C56.3841 111.878 56.5083 111.739 56.6628 111.642C56.7571 111.6 56.8618 111.588 56.9634 111.606C57.0649 111.624 57.1589 111.672 57.2332 111.743C57.281 111.793 57.3408 111.829 57.4068 111.85C57.4728 111.87 57.5429 111.873 57.6104 111.858C57.684 111.842 57.7523 111.807 57.8082 111.757C57.8818 111.706 57.9462 111.656 58.0244 111.61C57.944 111.775 57.8158 111.913 57.6564 112.005C57.5608 112.044 57.456 112.053 57.3553 112.031C57.2546 112.01 57.1624 111.959 57.0906 111.886C57.0406 111.84 56.98 111.807 56.9142 111.79C56.8483 111.773 56.7793 111.773 56.7134 111.789C56.6388 111.808 56.5705 111.846 56.5156 111.899C56.4466 111.945 56.3776 112.001 56.304 112.042Z" fill="white"/>
<path d="M42.941 110.717C42.8444 110.86 42.7708 111.03 42.573 111.113C42.4787 111.152 42.3748 111.162 42.2747 111.142C42.1747 111.121 42.0831 111.071 42.0118 110.998C41.9698 110.956 41.9174 110.926 41.86 110.91C41.86 110.851 41.8922 110.786 41.906 110.722C41.997 110.743 42.081 110.787 42.1498 110.851C42.1971 110.901 42.2568 110.938 42.323 110.959C42.3892 110.979 42.4595 110.981 42.527 110.966C42.601 110.951 42.6694 110.916 42.7248 110.864C42.78 110.818 42.8628 110.763 42.941 110.717Z" fill="white"/>
<path d="M45.8988 97.3081C45.981 97.1439 46.1067 97.0055 46.2622 96.9079C46.356 96.865 46.4605 96.8513 46.5622 96.8686C46.6639 96.8858 46.7581 96.9331 46.8326 97.0045C46.8799 97.055 46.9397 97.0922 47.0059 97.1123C47.072 97.1325 47.1424 97.135 47.2098 97.1195C47.2835 97.1038 47.3517 97.0689 47.4076 97.0183C47.4812 96.9723 47.5456 96.9171 47.6238 96.8711C47.5226 97.0137 47.4536 97.1839 47.2558 97.2667C47.1607 97.3056 47.0562 97.3154 46.9555 97.295C46.8548 97.2745 46.7624 97.2246 46.69 97.1517C46.641 97.104 46.5806 97.0697 46.5146 97.052C46.4486 97.0342 46.3791 97.0337 46.3128 97.0505C46.2387 97.0702 46.1707 97.1082 46.115 97.1609C46.0455 97.2136 45.9734 97.2628 45.8988 97.3081Z" fill="white"/>
<path d="M65.9962 109.687C65.7938 108.523 65.6466 107.612 65.4764 106.467C65.3062 105.321 65.1314 104.134 64.9796 102.966V102.888L65.0302 102.814C65.6144 101.926 66.0336 100.94 66.2676 99.9024C66.39 99.3887 66.4487 98.8619 66.4424 98.3338C66.4483 97.8065 66.3771 97.2811 66.2308 96.7744C65.9114 95.7423 65.502 94.7403 65.0072 93.7798C64.5196 92.8092 64.1194 91.995 63.5766 91.0474C63.4846 90.9002 63.5444 90.868 63.6272 90.983C64.1746 91.7604 64.7726 92.823 65.2418 93.6556C65.8005 94.6085 66.2628 95.6148 66.6218 96.6594C66.796 97.199 66.886 97.7622 66.8886 98.3292C66.8995 98.8924 66.8408 99.4548 66.7138 100.004C66.4675 101.102 66.0114 102.142 65.3706 103.067L65.4074 102.915C65.5408 104.088 65.6512 105.261 65.7616 106.434C65.8674 107.488 65.987 108.629 66.0606 109.687C66.0606 109.783 66.0652 110.114 65.9962 109.687Z" fill="#263238"/>
<path d="M64.5656 91.9214C64.7898 92.2655 64.9734 92.6345 65.113 93.0208C65.1851 93.2127 65.2435 93.4094 65.2878 93.6096C65.3407 93.8108 65.3685 94.0179 65.3706 94.226C65.1958 93.8488 65.0348 93.4808 64.9106 93.099C64.7601 92.7177 64.6446 92.3236 64.5656 91.9214Z" fill="#263238"/>
<path d="M52.3526 88.177C50.6736 90.7116 42.7386 100.689 42.4442 101.646C42.1498 102.603 43.9484 104.59 43.93 104.981C43.861 106.568 39.8636 116.127 38.4468 115.101C36.6068 113.771 29.9322 105.386 30.82 100.965C31.7078 96.5444 48.76 85.5228 51.566 84.4878C54.372 83.4528 54.0086 85.6792 52.3526 88.177Z" fill="#774442"/>
<path d="M45.908 118.542C46.9844 117.525 45.1674 116.84 45.1674 116.84C45.1674 116.84 48.0194 117.199 48.7232 115.722C49.427 114.246 47.173 113.546 47.0166 113.487C47.1684 113.487 49.7766 113.767 50.347 112.208C50.9174 110.648 48.5622 110.221 48.4104 110.198C48.5576 110.165 50.5034 109.761 50.6552 108.482C50.9128 106.288 45.2456 106.968 43.8196 105.887C43.8196 105.887 43.9116 103.026 43.9392 102.943C43.6759 103.624 43.1893 104.195 42.5592 104.563C41.3954 105.11 40.3328 105.483 39.9326 106.154C39.7447 106.447 39.6563 106.793 39.6803 107.14C39.7043 107.487 39.8396 107.817 40.066 108.082C40.066 108.082 38.4974 108.16 38.0236 109.37C37.7798 109.995 38.5618 110.934 38.5618 110.934C38.2079 110.969 37.8707 111.102 37.5875 111.317C37.3042 111.532 37.0858 111.821 36.9564 112.153C36.6712 113.031 37.4992 113.836 37.4992 113.836C37.4992 113.836 36.34 114.503 36.34 115.497C36.34 117.502 43.6034 120.718 45.908 118.542Z" fill="#774442"/>
<path d="M37.6142 113.988C37.6142 113.988 37.5682 113.988 37.6142 114.02C39.8151 115.728 42.4827 116.727 45.264 116.886C45.3514 116.886 45.3928 116.748 45.2962 116.725C42.6163 116.19 40.0285 115.268 37.6142 113.988Z" fill="#263238"/>
<path d="M38.5249 110.934C38.4973 110.934 38.4743 110.961 38.4973 110.984C40.9501 112.847 43.9878 113.772 47.0625 113.592C47.1729 113.592 47.2603 113.464 47.1361 113.468C45.0431 113.491 40.7743 112.166 38.5249 110.934Z" fill="#263238"/>
<path d="M48.6219 110.101C45.6135 110.248 42.8627 109.42 40.1579 108.16C40.1211 108.16 40.1027 108.192 40.1257 108.215C41.2803 109.195 43.0881 109.816 44.5371 110.184C45.875 110.548 47.2847 110.556 48.6265 110.207C48.6771 110.193 48.6863 110.096 48.6219 110.101Z" fill="#263238"/>
<path d="M37.421 113.845C37.1392 113.637 36.9201 113.355 36.7879 113.03C36.6556 112.706 36.6153 112.351 36.6712 112.005C36.7578 111.664 36.9675 111.367 37.26 111.172C37.6099 110.985 37.9995 110.884 38.3962 110.878C38.1311 110.609 37.9536 110.266 37.8871 109.894C37.8206 109.522 37.8682 109.138 38.0236 108.794C38.2045 108.489 38.4961 108.264 38.8378 108.168C39.233 108.067 39.6397 108.018 40.0476 108.021C39.8495 107.853 39.6935 107.64 39.592 107.4C39.4906 107.161 39.4466 106.901 39.4634 106.641C39.4915 106.357 39.5871 106.083 39.7423 105.843C39.8975 105.603 40.1079 105.404 40.3558 105.261C40.9371 104.937 41.5547 104.682 42.1958 104.502C42.5181 104.396 42.8269 104.252 43.1158 104.074C43.4235 103.862 43.6631 103.565 43.8058 103.219C43.8334 103.159 43.838 103.219 43.8058 103.269C43.715 103.505 43.586 103.724 43.424 103.918C43.2527 104.122 43.0546 104.301 42.8352 104.452C42.2824 104.772 41.7057 105.049 41.1102 105.28C40.5933 105.513 40.1668 105.909 39.8958 106.407C39.7791 106.667 39.737 106.954 39.7744 107.237C39.8117 107.52 39.9271 107.787 40.1074 108.007C40.1115 108.014 40.1139 108.021 40.1144 108.028C40.1148 108.035 40.1133 108.042 40.1101 108.049C40.1068 108.056 40.1019 108.061 40.0957 108.065C40.0896 108.069 40.0825 108.071 40.0752 108.072C39.7124 108.124 39.3582 108.225 39.0218 108.371C38.742 108.494 38.5062 108.699 38.3456 108.96C38.2088 109.276 38.1576 109.623 38.1971 109.965C38.2367 110.307 38.3657 110.633 38.571 110.91C38.188 110.999 37.8237 111.155 37.4946 111.37C37.2782 111.545 37.1182 111.781 37.0346 112.046C36.9433 112.347 36.938 112.668 37.0193 112.972C37.1006 113.276 37.2652 113.551 37.4946 113.767C37.4958 113.774 37.4958 113.782 37.4946 113.79C37.4946 113.79 37.4946 113.79 37.4946 113.813C37.4946 113.813 37.1312 114.038 37.1082 114.043C37.0852 114.047 37.1082 114.043 37.1082 114.043C37.2073 113.969 37.3119 113.903 37.421 113.845Z" fill="#263238"/>
<path d="M48.0469 94.3319L41.0135 90.4357C41.0135 90.4357 48.1804 85.6793 51.5108 84.3131C54.8412 82.9469 54.9147 86.1715 48.0469 94.3319Z" fill="#263238"/>
<path d="M55.0206 82.7723C53.9028 83.2323 53.59 84.0327 53.9396 84.9711C54.326 86.0245 57.5598 88.0714 58.903 87.3814C60.0622 86.7835 59.0594 84.0097 58.443 83.3841C57.9773 82.9891 57.4153 82.7244 56.8142 82.617C56.2131 82.5095 55.5943 82.5631 55.0206 82.7723Z" fill="#263238"/>
<path d="M54.2799 84.7271C54.4501 85.1089 56.8559 87.3215 58.6591 86.8799C59.2479 86.7327 58.5993 83.4943 58.5993 83.4943V83.2413L58.6913 79.7407L54.2799 77.9835L53.6451 77.7627C53.6451 77.7627 53.6819 78.7195 53.7417 79.9155C53.7417 79.9707 53.7417 80.0259 53.7417 80.0857C53.7417 80.1455 53.7417 80.2145 53.7417 80.2789C53.7417 80.4583 53.7417 80.6423 53.7647 80.8217C53.7877 81.0011 53.7647 81.0931 53.7969 81.2403C53.8291 81.3875 53.7969 81.5255 53.8291 81.6727C53.9078 82.7001 54.0585 83.7208 54.2799 84.7271Z" fill="#774442"/>
<path d="M53.7233 79.9155C54.2444 80.7946 54.9511 81.5493 55.7941 82.1269C56.6371 82.7045 57.596 83.0911 58.6039 83.2597L58.6959 79.7591L54.2799 77.9835L53.6451 77.7627C53.6451 77.7627 53.6635 78.7195 53.7233 79.9155Z" fill="#263238"/>
<path d="M62.7946 74.331C63.6732 80.4168 60.1312 81.6266 58.8156 81.8152C57.6242 81.9854 53.5486 82.4178 52.0444 76.4562C50.5402 70.4946 53.0932 68.1762 55.798 67.6288C58.5028 67.0814 61.916 68.2452 62.7946 74.331Z" fill="#774442"/>
<path d="M61.18 72.8685C61.0385 72.8686 60.8971 72.8594 60.7568 72.8409C60.6057 72.8545 60.4546 72.8155 60.329 72.7305C60.2939 72.6975 60.2712 72.6535 60.2645 72.6058C60.2578 72.5582 60.2676 72.5096 60.2922 72.4683C60.351 72.3914 60.4295 72.332 60.5194 72.2963C60.6094 72.2607 60.7073 72.2502 60.8028 72.2659C61.0002 72.2659 61.1906 72.3397 61.3364 72.4729C61.3671 72.5053 61.388 72.5458 61.3965 72.5897C61.405 72.6336 61.4007 72.679 61.3843 72.7205C61.3679 72.7621 61.3399 72.7981 61.3037 72.8243C61.2675 72.8505 61.2246 72.8658 61.18 72.8685Z" fill="#263238"/>
<path d="M57.0951 73.6229C57.2295 73.5807 57.3615 73.5316 57.4907 73.4757C57.6392 73.4443 57.7733 73.3652 57.8725 73.2503C57.8954 73.2074 57.9037 73.1581 57.8962 73.1101C57.8888 73.062 57.8659 73.0176 57.8311 72.9835C57.7522 72.9279 57.6599 72.8943 57.5637 72.8862C57.4675 72.8781 57.3708 72.8958 57.2837 72.9375C57.0924 72.9931 56.9285 73.1177 56.8237 73.2871C56.8021 73.3278 56.7929 73.3739 56.7973 73.4197C56.8017 73.4655 56.8195 73.509 56.8484 73.5448C56.8773 73.5806 56.9162 73.6071 56.96 73.621C57.0039 73.6349 57.0509 73.6356 57.0951 73.6229Z" fill="#263238"/>
<path d="M58.3372 74.98C58.3372 74.98 58.305 75.0076 58.3096 75.0214C58.3924 75.4354 58.42 75.9184 58.0704 76.1162C58.0704 76.1162 58.0704 76.1438 58.0704 76.1392C58.5212 76.0012 58.4798 75.3572 58.3372 74.98Z" fill="#263238"/>
<path d="M57.8956 74.6118C57.224 74.6762 57.3942 76.0147 58.0198 75.9549C58.6454 75.8951 58.4568 74.5612 57.8956 74.6118Z" fill="#263238"/>
<path d="M57.6425 74.7176C57.5321 74.8096 57.4355 74.9568 57.2976 74.989C57.1596 75.0212 56.994 74.9016 56.8698 74.782C56.902 75.0396 57.0354 75.288 57.3298 75.2926C57.6241 75.2972 57.7345 75.0442 57.7897 74.7774C57.7345 74.7452 57.6839 74.6808 57.6425 74.7176Z" fill="#263238"/>
<path d="M60.6096 74.52C60.6096 74.52 60.6464 74.52 60.6464 74.5522C60.6832 74.9708 60.7982 75.44 61.1892 75.5366V75.5596C60.72 75.532 60.5774 74.9018 60.6096 74.52Z" fill="#263238"/>
<path d="M60.927 74.023C61.5894 73.8896 61.8056 75.2236 61.1938 75.3478C60.582 75.472 60.375 74.1334 60.927 74.023Z" fill="#263238"/>
<path d="M61.2214 74.0596C61.3364 74.1148 61.4652 74.2252 61.5894 74.216C61.7136 74.2068 61.824 74.0366 61.893 73.8848C61.9436 74.1378 61.893 74.4138 61.663 74.5058C61.433 74.5978 61.249 74.3908 61.1478 74.147C61.1478 74.1194 61.18 74.0596 61.2214 74.0596Z" fill="#263238"/>
<path d="M60.2186 76.6083C60.2186 76.6083 60.3888 77.2155 60.4302 77.5283C60.4302 77.5559 60.3658 77.5789 60.2692 77.6019C60.025 77.6819 59.7636 77.6938 59.5131 77.6363C59.2626 77.5787 59.0326 77.4539 58.8478 77.2753C58.8432 77.2698 58.8405 77.2628 58.8402 77.2556C58.84 77.2484 58.8421 77.2413 58.8464 77.2355C58.8506 77.2297 58.8567 77.2254 58.8636 77.2235C58.8706 77.2215 58.878 77.2219 58.8846 77.2247C59.2931 77.4276 59.7559 77.4937 60.2048 77.4133C60.2048 77.3259 59.8736 76.3829 59.9196 76.3737C60.1495 76.3614 60.3801 76.38 60.605 76.4289C60.283 75.1547 59.754 73.9403 59.455 72.6661C59.4547 72.6574 59.4571 72.6488 59.4619 72.6415C59.4667 72.6343 59.4737 72.6287 59.4819 72.6257C59.49 72.6226 59.4989 72.6222 59.5073 72.6245C59.5157 72.6268 59.5232 72.6317 59.5286 72.6385C60.1311 73.9207 60.6042 75.2598 60.9408 76.6359C60.973 76.7739 60.3428 76.6405 60.2186 76.6083Z" fill="#263238"/>
<path d="M52.0397 75.9598C53.4841 75.8586 53.2955 73.5862 53.2955 73.5862C53.2955 73.5862 54.9239 73.3102 54.8365 70.6606C55.1964 71.1662 55.6687 71.5814 56.2163 71.8736C56.7639 72.1657 57.3717 72.3268 57.9921 72.3442C58.4521 72.3764 56.8007 71.2816 56.8007 71.2816C56.8007 71.2816 58.8201 72.8456 62.2701 71.9256C62.5139 71.8612 61.9435 67.827 59.0961 66.7828C56.2487 65.7386 53.5761 67.022 52.0259 68.885C52.0259 68.885 50.0847 69.966 50.0065 71.8934C49.9283 73.8208 51.4785 75.9966 52.0397 75.9598Z" fill="#263238"/>
<path d="M57.5 77.3487C57.1305 77.37 56.7625 77.2871 56.4378 77.1096C56.1131 76.9321 55.8447 76.6671 55.6631 76.3447C55.4815 76.0222 55.394 75.6553 55.4105 75.2857C55.4271 74.916 55.547 74.5583 55.7566 74.2534C55.9663 73.9485 56.2572 73.7084 56.5965 73.5606C56.9357 73.4128 57.3097 73.3631 57.6757 73.4172C58.0418 73.4713 58.3854 73.627 58.6674 73.8667C58.9494 74.1063 59.1585 74.4202 59.271 74.7727C59.3636 75.0602 59.3891 75.365 59.3454 75.6638C59.3017 75.9626 59.19 76.2474 59.0189 76.4962C58.8478 76.7451 58.6219 76.9513 58.3586 77.0991C58.0953 77.2469 57.8015 77.3323 57.5 77.3487ZM57.2838 73.6687C56.9271 73.6901 56.5859 73.8223 56.308 74.047C56.03 74.2716 55.8292 74.5773 55.7334 74.9216C55.6376 75.2659 55.6517 75.6315 55.7738 75.9674C55.8958 76.3032 56.1196 76.5926 56.4141 76.7951C56.7085 76.9977 57.0588 77.1032 57.4161 77.097C57.7734 77.0908 58.1198 76.9732 58.4071 76.7607C58.6943 76.5481 58.9081 76.2511 59.0184 75.9113C59.1287 75.5714 59.1302 75.2055 59.0226 74.8647C58.9099 74.5016 58.6797 74.1862 58.3684 73.9681C58.057 73.75 57.6819 73.6414 57.3022 73.6595L57.2838 73.6687Z" fill="#FFC414"/>
<path d="M61.9896 76.5348C61.2352 76.5808 60.5038 75.8448 60.3198 74.8282C60.2274 74.3433 60.2885 73.8416 60.4946 73.393C60.5709 73.1948 60.6971 73.0196 60.8611 72.8845C61.025 72.7494 61.2211 72.6589 61.4303 72.6219C61.6394 72.5849 61.8547 72.6025 62.055 72.6732C62.2554 72.7438 62.4341 72.865 62.5738 73.025C62.9205 73.3757 63.1489 73.8261 63.227 74.313C63.4156 75.3894 62.9188 76.3784 62.1184 76.521C62.0761 76.5302 62.0329 76.5348 61.9896 76.5348ZM61.5756 72.8548H61.4744C61.3046 72.8933 61.1469 72.973 61.0153 73.0869C60.8837 73.2009 60.7823 73.3455 60.72 73.508C60.5414 73.9076 60.49 74.3525 60.5728 74.7822C60.7384 75.7022 61.4054 76.3784 62.0632 76.2588C62.721 76.1392 63.1212 75.2928 62.9556 74.359C62.8863 73.9272 62.6855 73.5272 62.3806 73.2136C62.277 73.1043 62.1522 73.0172 62.0138 72.9579C61.8753 72.8986 61.7262 72.8682 61.5756 72.8686V72.8548Z" fill="#FFC414"/>
<path d="M59.2664 75.0119L59.064 74.8417C59.3124 74.5381 59.938 74.0873 60.5038 74.5105L60.3474 74.7221C59.8414 74.3403 59.2894 74.9797 59.2664 75.0119Z" fill="#FFC414"/>
<path d="M50.6644 77.0451L50.4114 76.9669C50.4482 76.8519 50.7886 75.8123 51.3314 75.6145C51.8742 75.4167 55.4116 75.1546 55.5634 75.127V75.3937C54.5422 75.4765 51.8052 75.7203 51.3958 75.8537C50.9864 75.9871 50.7564 76.7599 50.6644 77.0451Z" fill="#FFC414"/>
<path d="M53.0794 76.783C53.0794 76.783 51.6304 74.943 50.7794 75.472C49.9284 76.001 51.1014 78.7196 52.1594 79.0416C52.2915 79.0954 52.4333 79.1214 52.5759 79.1181C52.7186 79.1147 52.859 79.082 52.9884 79.022C53.1179 78.9621 53.2336 78.8761 53.3284 78.7694C53.4231 78.6628 53.495 78.5378 53.5394 78.4022L53.0794 76.783Z" fill="#774442"/>
<path d="M52.1548 69.7082C53.0242 69.0182 54.878 64.156 50.6874 62.017C46.4968 59.878 41.86 65.3198 44.9696 69.0642C47.0626 71.5758 50.3148 71.171 52.1548 69.7082Z" fill="#263238"/>
<path d="M191.783 167.73C195.086 160.94 200.864 157.458 207.373 159.381C213.882 161.304 214.894 170.389 210.031 172.68C205.169 174.97 200.312 168.277 197.745 166.902C195.178 165.527 191.783 167.73 191.783 167.73Z" fill="#FFC414"/>
<path d="M188.6 185.794C188.6 184.975 188.651 184.156 188.678 183.338C188.738 181.705 188.793 180.072 188.853 178.439C188.963 175.453 189.285 172.518 190.523 169.763C191.616 167.266 193.443 165.161 195.762 163.728C196.625 163.21 197.553 162.811 198.522 162.541C199.401 161.652 200.52 161.038 201.742 160.775C203.257 160.468 204.814 160.429 206.342 160.66C206.397 160.66 206.397 160.756 206.342 160.747C204.892 160.563 203.419 160.668 202.009 161.055C201.405 161.222 200.819 161.45 200.261 161.736C199.911 161.926 199.574 162.139 199.254 162.375C200.567 162.103 201.924 162.115 203.233 162.412C203.704 162.529 204.166 162.682 204.613 162.872C204.969 162.796 205.334 162.765 205.698 162.78C206.173 162.797 206.645 162.865 207.106 162.983C208.048 163.249 208.95 163.642 209.788 164.151C209.834 164.179 209.788 164.252 209.742 164.225C208.919 163.776 208.038 163.445 207.124 163.24C206.682 163.14 206.233 163.073 205.781 163.042C205.533 163.029 205.284 163.029 205.036 163.042C206.892 163.898 208.383 165.385 209.245 167.238C209.268 167.288 209.19 167.33 209.171 167.279C208.658 166.204 207.909 165.259 206.979 164.514C206.05 163.769 204.964 163.244 203.803 162.978C203.66 162.941 203.513 162.923 203.371 162.891C203.421 163.102 203.412 163.351 203.44 163.548C203.481 163.88 203.536 164.206 203.605 164.533C203.738 165.206 203.914 165.87 204.134 166.52C204.355 167.179 204.618 167.822 204.921 168.447C205.217 169.101 205.587 169.718 206.025 170.287C206.062 170.333 205.988 170.389 205.956 170.338C205.565 169.726 205.109 169.16 204.751 168.498C204.408 167.891 204.113 167.259 203.867 166.607C203.619 165.945 203.425 165.263 203.288 164.57C203.214 164.206 203.159 163.838 203.118 163.466C203.072 163.245 203.058 163.019 203.076 162.794C202.315 162.679 201.542 162.663 200.776 162.748C201.066 164.367 201.379 166.051 202.285 167.458C202.313 167.504 202.234 167.55 202.207 167.5C201.782 166.759 201.409 165.991 201.089 165.2C200.774 164.446 200.565 163.651 200.468 162.84C199.124 163.02 197.827 163.454 196.645 164.119C194.421 165.414 192.644 167.357 191.553 169.689C190.407 172.2 189.766 174.912 189.667 177.67C189.451 181.139 189.405 184.626 189.06 188.085C189.037 188.31 188.678 188.388 188.637 188.131C188.55 187.355 188.537 186.572 188.6 185.794Z" fill="#263238"/>
<path d="M196.218 163.185C196.435 162.921 196.688 162.688 196.967 162.491C197.239 162.27 197.515 162.054 197.805 161.856C198.378 161.464 199.012 161.171 199.681 160.986C199.692 160.983 199.704 160.985 199.714 160.99C199.724 160.996 199.731 161.005 199.734 161.016C199.737 161.027 199.736 161.039 199.73 161.049C199.725 161.059 199.715 161.066 199.704 161.069C199.033 161.244 198.407 161.557 197.864 161.989C197.588 162.192 197.326 162.408 197.069 162.633C196.837 162.872 196.583 163.088 196.31 163.277C196.304 163.283 196.296 163.288 196.288 163.291C196.281 163.295 196.272 163.296 196.264 163.296C196.255 163.296 196.247 163.295 196.239 163.291C196.231 163.288 196.224 163.283 196.218 163.277C196.211 163.271 196.207 163.264 196.203 163.256C196.2 163.248 196.198 163.24 196.198 163.231C196.198 163.223 196.2 163.214 196.203 163.206C196.207 163.198 196.211 163.191 196.218 163.185Z" fill="#263238"/>
<path d="M206.756 165.646C207.302 166.281 207.807 166.949 208.27 167.647C208.721 168.352 209.098 169.101 209.397 169.883C209.397 169.906 209.369 169.92 209.355 169.883C208.6 168.406 207.708 167.003 206.692 165.692C206.655 165.66 206.719 165.6 206.756 165.646Z" fill="#263238"/>
<path d="M199.64 164.975C199.709 165.399 199.834 165.812 200.013 166.203C200.193 166.58 200.402 166.943 200.638 167.289C200.638 167.312 200.638 167.335 200.601 167.316C200.032 166.661 199.668 165.853 199.553 164.993C199.562 164.938 199.64 164.92 199.64 164.975Z" fill="#263238"/>
<path d="M189.06 167.9C189.06 167.9 184.386 162.026 175.366 164.105C166.787 166.088 162.831 181.811 171.497 183.692C180.164 185.573 178.636 171.024 181.792 168.553C184.097 166.736 187.427 167.127 189.06 167.9Z" fill="#FFC414"/>
<path opacity="0.1" d="M189.06 167.9C189.06 167.9 184.386 162.026 175.366 164.105C166.787 166.088 162.831 181.811 171.497 183.692C180.164 185.573 178.636 171.024 181.792 168.553C184.097 166.736 187.427 167.127 189.06 167.9Z" fill="black"/>
<path d="M168.383 172.689C168.965 172.175 169.58 171.701 170.223 171.267C170.835 170.847 171.502 170.514 172.206 170.278C173.196 168.76 174.533 167.499 176.106 166.598C176.018 166.594 175.929 166.594 175.84 166.598C175.362 166.573 174.883 166.573 174.404 166.598C173.442 166.657 172.499 166.893 171.621 167.293C171.571 167.293 171.534 167.233 171.585 167.215C172.469 166.828 173.395 166.546 174.345 166.373C174.809 166.292 175.28 166.252 175.752 166.253C176.005 166.253 176.263 166.253 176.511 166.299H176.658C177.486 165.884 178.358 165.563 179.257 165.342L179.009 165.278C178.568 165.177 178.121 165.103 177.67 165.057C176.772 164.954 175.865 164.968 174.97 165.099C174.961 165.096 174.953 165.09 174.947 165.082C174.942 165.074 174.939 165.065 174.939 165.055C174.939 165.045 174.942 165.036 174.947 165.028C174.953 165.02 174.961 165.014 174.97 165.011C175.875 164.903 176.787 164.866 177.698 164.901C178.462 164.926 179.221 165.025 179.966 165.195C180.51 165.098 181.06 165.035 181.613 165.007C184.759 164.878 188.186 166.051 190.123 168.636C192.059 171.221 192.423 174.68 192.781 177.799C193.31 182.15 193.425 186.541 193.126 190.914C193.126 191.171 192.745 191.125 192.735 190.882C192.62 187.174 192.487 183.466 192.133 179.768C191.967 178.057 191.788 176.341 191.503 174.644C191.296 173.185 190.878 171.764 190.261 170.425C189.588 169.059 188.529 167.92 187.215 167.15C185.893 166.394 184.419 165.942 182.901 165.825C181.54 165.713 180.169 165.84 178.853 166.203C178.899 166.467 178.907 166.736 178.876 167.003C178.847 167.337 178.781 167.668 178.678 167.987C178.579 168.289 178.452 168.582 178.301 168.861C178.13 169.174 177.923 169.45 177.735 169.745C177.707 169.795 177.629 169.745 177.666 169.699C178.048 169.166 178.295 168.549 178.388 167.9C178.443 167.596 178.48 167.289 178.498 166.98C178.498 166.745 178.498 166.52 178.498 166.281C177.067 166.72 175.731 167.426 174.561 168.36C174.34 168.539 174.128 168.723 173.921 168.917C174.218 169.185 174.475 169.495 174.685 169.837C174.994 170.288 175.263 170.765 175.49 171.263C175.907 172.268 176.187 173.325 176.323 174.404C176.323 174.46 176.244 174.473 176.24 174.404C176.073 173.362 175.726 172.356 175.214 171.433C174.975 170.975 174.708 170.533 174.414 170.108C174.262 169.892 174.101 169.676 173.954 169.469C173.866 169.358 173.765 169.243 173.682 169.124C172.617 170.179 171.75 171.416 171.12 172.776C171.545 173.227 171.9 173.738 172.173 174.294C172.498 174.876 172.781 175.48 173.02 176.102C173.457 177.304 173.817 178.533 174.096 179.782C174.096 179.832 174.023 179.851 174.013 179.782C173.74 178.525 173.31 177.307 172.735 176.157C172.465 175.59 172.18 175.033 171.879 174.487C171.567 173.978 171.285 173.451 171.033 172.909C170.429 174.226 170.079 175.645 170.002 177.091C170.002 177.146 169.91 177.137 169.915 177.091C170.08 174.825 170.773 172.629 171.939 170.678C171.391 170.913 170.835 171.138 170.306 171.424C169.628 171.784 168.997 172.227 168.429 172.744C168.397 172.794 168.36 172.725 168.383 172.689Z" fill="#263238"/>
<path d="M174.998 173.025C175.269 173.912 175.61 174.777 175.853 175.679C176.103 176.542 176.238 177.435 176.254 178.333C176.254 178.356 176.212 178.356 176.212 178.333C175.966 176.531 175.533 174.76 174.92 173.048C174.917 173.042 174.915 173.036 174.915 173.03C174.915 173.024 174.916 173.018 174.919 173.013C174.921 173.007 174.925 173.002 174.929 172.998C174.934 172.994 174.939 172.991 174.945 172.989C174.951 172.988 174.957 172.987 174.963 172.988C174.969 172.989 174.975 172.991 174.98 172.995C174.985 172.998 174.989 173.003 174.992 173.008C174.995 173.013 174.997 173.019 174.998 173.025Z" fill="#263238"/>
<path d="M169.28 170.812C169.635 170.471 170.038 170.184 170.476 169.961C170.921 169.757 171.383 169.593 171.856 169.469C171.911 169.469 171.93 169.542 171.856 169.556C171.389 169.678 170.94 169.862 170.522 170.104C170.096 170.325 169.687 170.577 169.298 170.858C169.293 170.858 169.288 170.856 169.284 170.853C169.28 170.85 169.277 170.845 169.275 170.841C169.273 170.836 169.272 170.831 169.273 170.826C169.274 170.821 169.277 170.816 169.28 170.812Z" fill="#263238"/>
<path d="M184.607 160.048C184.607 160.048 183.742 149.496 175.895 146.073C169.344 143.217 165.591 150.577 170.223 155.085C173.972 158.732 179.98 157.086 184.607 160.048Z" fill="#FFC414"/>
<path opacity="0.1" d="M184.607 160.048C184.607 160.048 183.742 149.496 175.895 146.073C169.344 143.217 165.591 150.577 170.223 155.085C173.972 158.732 179.98 157.086 184.607 160.048Z" fill="black"/>
<path d="M171.677 148.12C172.87 148.603 174.034 149.155 175.163 149.772C176.103 150.314 177.008 150.915 177.873 151.57C177.744 151.303 177.629 151.027 177.5 150.765C177.293 150.356 177.077 149.96 176.833 149.574C176.35 148.775 175.769 148.039 175.104 147.384C175.062 147.347 175.104 147.283 175.168 147.324C175.83 147.98 176.437 148.687 176.985 149.44C177.257 149.824 177.505 150.224 177.73 150.636C177.962 151.015 178.14 151.423 178.259 151.851L178.347 151.915C179.717 153.013 180.973 154.246 182.096 155.595C182.073 155.494 182.05 155.388 182.022 155.292C181.875 154.776 181.718 154.27 181.562 153.76C181.223 152.678 180.747 151.643 180.145 150.682C180.113 150.636 180.191 150.59 180.219 150.641C180.835 151.601 181.384 152.604 181.861 153.64C182.079 154.148 182.26 154.671 182.404 155.204C182.518 155.549 182.602 155.903 182.657 156.262C183.002 156.695 183.338 157.132 183.655 157.582C187.022 162.38 188.715 168.162 189.12 173.981C189.239 175.713 189.268 177.449 189.207 179.184C189.195 180.932 189.041 182.677 188.747 184.4C188.724 184.511 188.554 184.479 188.559 184.373C188.595 182.846 188.756 181.328 188.784 179.8C188.812 178.273 188.761 176.741 188.637 175.2C188.388 172.155 187.814 169.145 186.926 166.221C186.009 163.227 184.659 160.383 182.919 157.78C182.592 157.716 182.261 157.624 181.939 157.541L180.78 157.228C180.027 157.032 179.295 156.762 178.595 156.423C178.544 156.4 178.595 156.322 178.641 156.35C179.333 156.726 180.082 156.986 180.858 157.118C181.47 157.237 182.109 157.32 182.726 157.458C182.155 156.63 181.542 155.831 180.886 155.062C179.39 155.198 177.883 155.086 176.424 154.73C175.643 154.542 174.874 154.304 174.124 154.017C173.337 153.714 172.592 153.323 171.824 153.001C171.764 152.978 171.824 152.89 171.856 152.923C173.261 153.689 174.796 154.191 176.382 154.404C177.784 154.628 179.2 154.745 180.619 154.753C180.058 154.114 179.483 153.493 178.871 152.913C176.81 150.954 174.358 149.146 171.644 148.208C171.58 148.18 171.626 148.12 171.677 148.12Z" fill="#263238"/>
<path d="M178.061 148.148C178.414 148.594 178.735 149.064 179.023 149.555C179.317 150.072 179.548 150.622 179.713 151.193C179.713 151.193 179.69 151.22 179.685 151.193C179.423 150.673 179.202 150.135 178.935 149.62C178.682 149.112 178.374 148.634 178.015 148.194C177.965 148.166 178.02 148.12 178.061 148.148Z" fill="#263238"/>
<path d="M170.766 151.662C171.275 151.943 171.813 152.168 172.371 152.334C172.909 152.519 173.457 152.673 174.013 152.794V152.84C173.436 152.778 172.866 152.653 172.316 152.467C171.772 152.263 171.242 152.025 170.729 151.754C170.66 151.713 170.715 151.634 170.766 151.662Z" fill="#263238"/>
<path d="M190.707 158.148C190.753 158.608 191.894 154.316 198.527 150.508C204.553 147.053 211.743 138.06 205.836 132.379C201.066 127.793 188.503 137.789 190.707 158.148Z" fill="#FFC414"/>
<path d="M186.139 182.735C186.235 178.272 186.586 173.818 187.192 169.395C187.711 165.33 188.645 161.328 189.98 157.454C190.472 156.074 191.038 154.694 191.65 153.314C191.615 152.788 191.624 152.26 191.677 151.736C191.71 151.06 191.769 150.383 191.834 149.712C191.898 149.04 191.963 148.364 192.045 147.692C192.128 147.021 192.266 146.349 192.294 145.678C192.294 145.618 192.395 145.632 192.377 145.678C192.245 146.384 192.167 147.099 192.142 147.817C192.091 148.465 192.055 149.118 192.032 149.772C192.009 150.425 192.032 151.078 192.032 151.731C192.032 151.966 192.032 152.214 192.055 152.467C192.68 151.147 193.347 149.85 194.074 148.585C193.614 145.825 194.207 142.959 194.769 140.268C194.769 140.217 194.861 140.24 194.851 140.296C194.575 141.7 194.428 143.128 194.414 144.56C194.387 145.687 194.442 146.818 194.447 147.945C194.603 147.674 194.764 147.403 194.907 147.136C195.768 145.734 196.688 144.362 197.667 143.019C197.589 142.366 197.611 141.705 197.731 141.059C197.841 140.334 198.003 139.618 198.214 138.916C198.426 138.212 198.674 137.536 198.95 136.846C199.226 136.156 199.617 135.489 199.898 134.789C199.899 134.783 199.901 134.777 199.905 134.772C199.908 134.767 199.913 134.763 199.919 134.76C199.924 134.757 199.93 134.755 199.937 134.755C199.943 134.755 199.949 134.756 199.955 134.758C199.961 134.761 199.966 134.765 199.97 134.769C199.974 134.774 199.977 134.78 199.978 134.786C199.98 134.792 199.98 134.798 199.979 134.805C199.978 134.811 199.975 134.817 199.971 134.822C199.621 135.485 199.344 136.183 199.143 136.905C198.923 137.583 198.742 138.273 198.6 138.971C198.458 139.665 198.343 140.351 198.246 141.073C198.182 141.533 198.14 142.025 198.062 142.494C199.482 140.587 201.032 138.781 202.704 137.089C202.745 137.048 202.8 137.112 202.763 137.149C200.235 139.992 197.978 143.064 196.02 146.326C195.946 146.45 195.877 146.575 195.808 146.699C196.172 146.469 196.59 146.285 196.935 146.096C197.579 145.737 198.225 145.383 198.872 145.034L200.749 144.003C201.071 143.824 201.388 143.64 201.715 143.474C202.107 143.297 202.484 143.087 202.842 142.849C202.892 142.812 202.943 142.89 202.892 142.918C202.253 143.267 201.687 143.792 201.052 144.183C200.417 144.574 199.829 144.992 199.18 145.36C198.002 146.018 196.719 146.492 195.56 147.173C194.756 148.583 194.013 150.026 193.329 151.501C194.031 151.05 194.749 150.621 195.482 150.213C195.942 149.951 196.402 149.689 196.903 149.44C197.376 149.221 197.824 148.949 198.237 148.631C198.246 148.627 198.256 148.625 198.265 148.627C198.275 148.629 198.284 148.634 198.291 148.641C198.297 148.648 198.301 148.657 198.303 148.667C198.304 148.677 198.302 148.687 198.297 148.695C197.525 149.39 196.669 149.985 195.748 150.466C194.897 150.968 194.033 151.446 193.149 151.883C192.436 153.433 191.797 155.02 191.227 156.63C188.434 164.538 187.409 172.933 186.916 181.268C186.774 183.756 186.696 186.236 186.668 188.729C186.64 191.222 186.765 193.697 186.76 196.181C186.76 196.255 186.64 196.273 186.631 196.181C186.332 193.978 186.277 191.737 186.171 189.516C186.065 187.294 186.088 184.994 186.139 182.735Z" fill="#263238"/>
<path d="M198.191 146.934C199.404 146.394 200.583 145.78 201.719 145.093C202.871 144.443 203.989 143.734 205.068 142.968C205.068 142.968 205.105 142.968 205.091 143C204.07 143.821 202.994 144.571 201.871 145.245C200.694 145.903 199.478 146.487 198.228 146.993C198.182 147.03 198.14 146.957 198.191 146.934Z" fill="#263238"/>
<path d="M196.268 138.001C196.369 137.614 196.489 137.237 196.622 136.86C196.619 136.857 196.617 136.853 196.615 136.849C196.614 136.845 196.613 136.841 196.613 136.837C196.613 136.832 196.614 136.828 196.615 136.824C196.617 136.82 196.619 136.817 196.622 136.814C196.705 136.602 196.793 136.391 196.88 136.179L196.912 136.101L196.963 135.977C196.94 136.05 196.921 136.124 196.898 136.197C196.89 136.238 196.879 136.278 196.866 136.317C196.426 137.793 196.097 139.3 195.882 140.825C195.882 140.871 195.799 140.871 195.804 140.825C195.869 139.871 196.024 138.925 196.268 138.001Z" fill="#263238"/>
<path d="M179.129 184.336L179.602 189.948L181.051 207.065H196.576L198.025 189.948L198.499 184.336H179.129Z" fill="#455A64"/>
<path d="M179.129 184.336L179.602 189.948H198.025L198.499 184.336H179.129Z" fill="#263238"/>
<path d="M177.606 187.469H200.022V182.087H177.606V187.469Z" fill="#455A64"/>
</svg>
