<svg width="349" height="263" viewBox="0 0 349 263" fill="none" xmlns="http://www.w3.org/2000/svg">
<g clip-path="url(#clip0)">
<path opacity="0.24" d="M117.751 4.28761C95.4562 13.123 82.5186 35.8254 65.6436 52.8793C55.9661 62.6823 44.7463 70.7739 34.7966 80.2927C24.847 89.8114 16.0466 101.217 13.0224 114.643C7.27032 140.09 23.3047 164.946 27.5023 190.696C28.839 198.921 28.9781 207.405 31.6454 215.291C33.7563 221.532 37.3854 227.174 41.583 232.224C58.5851 252.822 85.7969 264.56 112.452 262.794C130.035 261.627 146.928 255.005 164.559 254.273C191.13 253.167 217.949 265.504 243.721 258.966C255.606 255.942 266.13 249.139 276.243 242.209C296.312 228.451 317.203 211.578 321.866 187.696C325.29 170.159 319.193 151.671 323.445 134.321C325.913 124.252 331.713 115.308 334.774 105.402C341.276 84.3989 334.332 60.5052 319.52 44.2556C304.707 28.0059 282.969 19.0314 261.062 17.1265C246.697 15.8746 232.241 17.453 217.822 17.1748C182.632 16.5338 154.265 -10.1841 117.751 4.28761Z" fill="#EBEBEB"/>
<path opacity="0.24" d="M87.6717 213.628C86.1717 213.93 84.575 214.324 83.5649 215.442C82.1435 217.063 82.4641 219.676 83.7645 221.399C85.0649 223.123 87.0911 224.102 89.0992 224.87C98.5589 228.499 108.95 228.529 119.075 228.541C139.513 228.541 160.724 228.42 179.233 219.742C164.275 213.967 150.345 214.251 134.777 213.15C118.579 212.056 103.875 210.314 87.6717 213.628Z" fill="#4A696F"/>
<path d="M210.552 119.19L200.935 124.458L187.302 158.124L216.165 142.322L210.552 119.19Z" fill="#435761"/>
<path d="M252.013 119.19L261.63 124.458L275.263 158.124L246.4 142.322L252.013 119.19Z" fill="#435761"/>
<path d="M210.552 119.19L200.935 124.458L187.302 158.124L216.165 142.322L210.552 119.19Z" fill="url(#paint0_linear)"/>
<path d="M252.013 119.19L261.63 124.458L275.263 158.124L246.4 142.322L252.013 119.19Z" fill="url(#paint1_linear)"/>
<path d="M137.934 211.451C137.748 212.105 137.787 212.803 138.046 213.431C138.305 214.06 138.769 214.583 139.362 214.916C139.951 215.18 140.571 215.371 141.206 215.485C143.157 215.963 144.963 216.907 146.468 218.236C146.714 218.398 146.913 218.619 147.049 218.88C147.184 219.14 147.251 219.431 147.243 219.724C147.104 220.395 146.317 220.68 145.652 220.837C144.253 221.217 142.825 221.478 141.382 221.617C138.448 221.817 135.545 221.012 132.714 220.196C131.638 219.887 130.017 219.422 129.769 218.17C129.719 217.307 129.759 216.442 129.89 215.588L130.077 211.233" fill="#606161"/>
<path d="M121.223 216.646C121.094 216.978 121.065 217.341 121.138 217.69C121.211 218.038 121.383 218.359 121.634 218.611C122.143 219.109 122.724 219.527 123.358 219.851C125.031 220.866 126.506 222.175 127.713 223.716C128.269 224.423 128.789 225.348 128.439 226.177C128.252 226.561 127.955 226.881 127.586 227.096C126.378 227.798 124.987 228.119 123.594 228.015C120.08 227.925 114.884 225.729 113.868 221.925C113.547 220.746 113.898 219.131 113.947 217.916L114.074 214.983" fill="#606161"/>
<path d="M141.14 144.185L138.406 212.522C137.351 213.297 136.086 213.733 134.777 213.773C132.255 213.919 131.801 214.1 129.987 212.449L122.063 140.78L141.14 140.381V144.185Z" fill="#606161"/>
<path d="M141.14 144.185L138.406 212.522C137.351 213.297 136.086 213.733 134.777 213.773C132.255 213.919 131.801 214.1 129.987 212.449L122.063 140.78L141.14 140.381V144.185Z" fill="url(#paint2_linear)"/>
<path d="M130.362 150.323L122.499 216.785C122.499 216.785 121.362 217.952 118.265 217.994C114.751 218.037 114.431 217.559 113.644 215.781L112.09 139.546L130.144 142.624L130.362 150.323Z" fill="#606161"/>
<path d="M130.362 150.323L122.499 216.785C122.499 216.785 121.362 217.952 118.265 217.994C114.751 218.037 114.431 217.559 113.644 215.781L112.09 139.546L130.144 142.624L130.362 150.323Z" fill="url(#paint3_linear)"/>
<path d="M132.811 143.671C130.348 144.504 127.81 145.099 125.233 145.449C121.815 145.799 118.235 144.148 115.555 144.009C111.981 143.828 111.884 143.713 111.884 141.385C111.884 140.212 141.606 137.399 141.606 137.399C141.606 137.399 141.467 139.546 141.473 141.53C141.473 143.018 140.838 142.933 138.134 143.09C135.43 143.247 134.91 142.425 132.811 143.671Z" fill="#F2FBFF"/>
<path d="M121.084 91.2023C121.084 91.2023 116.1 92.4965 112.543 95.0848C110.348 96.6814 111.866 141.385 111.866 141.385C112.084 141.348 121.634 145.219 130.87 143.628C138.733 142.274 141.57 138.585 141.57 138.585C141.57 138.585 142.277 95.6896 140.747 93.9298C140.07 93.1436 132.588 90.3799 132.588 90.3799C132.588 90.3799 129.322 95.2905 121.084 91.2023Z" fill="#FFC414"/>
<path d="M121.084 91.2023C121.084 91.2023 116.1 92.4965 112.543 95.0848C110.348 96.6814 111.866 141.385 111.866 141.385C112.084 141.348 121.634 145.219 130.87 143.628C138.733 142.274 141.57 138.585 141.57 138.585C141.57 138.585 142.277 95.6896 140.747 93.9298C140.07 93.1436 132.588 90.3799 132.588 90.3799C132.588 90.3799 129.322 95.2905 121.084 91.2023Z" fill="url(#paint4_linear)"/>
<path d="M122.716 81.2725L121.083 91.2025C121.083 91.2025 124.712 96.5484 129.351 95.7502C133.99 94.9519 132.823 92.799 132.823 92.799L132.218 84.4111C132.218 84.4111 128.051 85.1429 122.716 81.2725Z" fill="#C8A59C"/>
<path d="M122.142 84.7558L122.746 81.2725C128.081 85.1429 130.851 83.4979 130.851 83.4979L132.14 88.0033C131.415 88.7617 130.439 89.2303 129.394 89.3217C126.805 89.5031 124.216 87.4772 122.142 84.7558Z" fill="#B58B81"/>
<path d="M121.289 90.0051L116.45 92.279C116.45 92.279 124.071 100.334 126.394 100.177C126.394 100.177 128.589 96.101 130.628 95.46L121.289 90.0051Z" fill="#F2FBFF"/>
<path d="M132.497 91.39C132.098 92.8334 131.473 94.2048 130.646 95.4539C131.1 95.6293 134.058 97.6914 134.106 99.0824C134.106 99.0824 137.046 92.4301 135.83 91.3839C134.813 90.8663 133.769 90.404 132.703 89.999L132.497 91.39Z" fill="#F2FBFF"/>
<path d="M114.509 93.9058C114.509 93.9058 107.027 96.3248 106.18 108.269C105.406 119.154 103.459 127.058 105.043 130.282C107.106 134.485 121.531 135.18 121.531 135.18C121.88 133.088 121.792 130.947 121.271 128.891L113.366 125.734C113.366 125.734 114.636 95.7684 114.509 93.9058Z" fill="#FFC414"/>
<path d="M118.537 74.0396C118.93 79.5489 124.586 89.2853 130.09 88.8923C135.594 88.4992 137.197 77.0996 136.803 71.5903C136.41 66.0811 133.32 62.9545 127.803 63.3476C126.493 63.4411 125.213 63.7919 124.038 64.3799C122.863 64.9679 121.816 65.7815 120.955 66.7744C120.095 67.7673 119.438 68.9199 119.023 70.1665C118.609 71.4131 118.443 72.7292 118.537 74.0396Z" fill="#C8A59C"/>
<path d="M131.511 134.315C131.378 133.263 131.874 132.253 132.019 130.463C132.165 128.673 131.003 128.207 129.304 128.044C128.838 127.99 128.475 127.935 128.167 127.887C126.582 128.268 127.846 130.191 127.931 131.515C128.015 132.84 127.719 134.739 128.179 135.144C128.372 135.319 129.83 135.24 131.517 135.023C131.544 134.788 131.542 134.55 131.511 134.315Z" fill="#B58B81"/>
<path d="M132.558 83.2015C132.558 83.2015 132.406 83.0624 131.251 83.1471C129.88 83.2171 128.505 83.1196 127.156 82.8568C126.267 82.6331 125.844 82.7722 125.947 83.9635C126.05 85.1549 126.981 86.2132 129.316 86.3402C131.935 86.4793 133.035 85.4935 133.241 84.3143C133.386 83.4616 132.848 83.1773 132.558 83.2015Z" fill="#C8A59C"/>
<path d="M122.499 129.078C123.481 128.869 124.449 128.598 125.396 128.268C126.642 127.796 127.035 128.074 128.862 128.268C130.689 128.461 131.941 128.927 131.783 130.759C131.626 132.592 131.1 133.62 131.239 134.69C131.378 135.76 131.045 136.68 129.424 136.716C127.803 136.752 122.499 135.119 122.499 135.119" fill="#C8A59C"/>
<path d="M120.732 128.6H123.509C123.509 128.6 124.718 132.604 123.146 135.379L120.079 135.252C120.079 135.252 121.119 131.358 120.732 128.6Z" fill="#F2FBFF"/>
<path d="M122.136 130.541C122.474 130.541 122.747 130.252 122.747 129.894C122.747 129.537 122.474 129.247 122.136 129.247C121.799 129.247 121.525 129.537 121.525 129.894C121.525 130.252 121.799 130.541 122.136 130.541Z" fill="#D2E8EC"/>
<path d="M132.957 76.6399C132.866 76.2898 132.845 75.9252 132.896 75.5671C132.947 75.209 133.069 74.8645 133.253 74.5535C133.435 74.241 133.677 73.9681 133.966 73.7509C134.254 73.5338 134.584 73.3769 134.935 73.2896C135.29 73.18 135.664 73.1437 136.034 73.1826C136.404 73.2216 136.762 73.3352 137.087 73.5165C137.412 73.6977 137.696 73.9429 137.924 74.2373C138.151 74.5316 138.316 74.869 138.41 75.229C138.503 75.589 138.522 75.9641 138.466 76.3318C138.411 76.6995 138.281 77.0521 138.085 77.3682C137.889 77.6844 137.631 77.9575 137.327 78.1712C137.022 78.3849 136.678 78.5346 136.314 78.6114H136.217C135.524 78.7668 134.798 78.6484 134.191 78.281C133.583 77.9135 133.141 77.3256 132.957 76.6399ZM135.098 73.9306C134.562 74.0701 134.103 74.4164 133.822 74.8937C133.54 75.3709 133.46 75.9402 133.598 76.4766C133.7 76.8746 133.918 77.2335 134.223 77.5088C134.528 77.784 134.907 77.9633 135.314 78.0243C135.72 78.0853 136.136 78.0254 136.508 77.8519C136.881 77.6785 137.194 77.3992 137.409 77.0489C137.624 76.6986 137.73 76.2929 137.716 75.8822C137.702 75.4716 137.567 75.0742 137.328 74.7398C137.09 74.4053 136.758 74.1485 136.374 74.0014C135.99 73.8542 135.572 73.8233 135.171 73.9125L135.098 73.9306Z" fill="#292F67"/>
<path d="M127.337 78.6539C126.983 78.4462 126.673 78.1704 126.426 77.8424C126.179 77.5144 126 77.1407 125.898 76.7429C125.744 76.1456 125.772 75.5162 125.976 74.9343C126.18 74.3524 126.552 73.8439 127.045 73.4732C127.537 73.1025 128.129 72.8861 128.745 72.8514C129.361 72.8167 129.973 72.9651 130.504 73.278C131.036 73.591 131.463 74.0543 131.731 74.6096C131.999 75.1649 132.097 75.7872 132.012 76.3979C131.927 77.0087 131.662 77.5805 131.252 78.0412C130.842 78.502 130.305 78.8309 129.708 78.9865H129.593C128.827 79.1685 128.019 79.0494 127.337 78.6539ZM128.305 73.58C127.989 73.6601 127.692 73.8023 127.432 73.9984C127.171 74.1944 126.953 74.4403 126.788 74.7218C126.624 75.0032 126.517 75.3146 126.474 75.6377C126.431 75.9608 126.453 76.2892 126.539 76.6038C126.66 77.071 126.917 77.4921 127.276 77.8149C127.635 78.1376 128.081 78.3477 128.558 78.4189C129.036 78.4902 129.523 78.4195 129.961 78.2157C130.399 78.0118 130.767 77.6838 131.019 77.2725C131.272 76.8611 131.398 76.3845 131.382 75.9021C131.366 75.4197 131.208 74.9526 130.928 74.5591C130.649 74.1656 130.26 73.863 129.809 73.6889C129.359 73.5148 128.867 73.4769 128.396 73.58H128.305Z" fill="#292F67"/>
<path d="M132.884 75.9868L133.519 75.7993C133.478 75.6715 133.409 75.5546 133.317 75.4572C133.225 75.3598 133.112 75.2845 132.986 75.2369C132.706 75.1601 132.412 75.1457 132.126 75.1948C131.84 75.2439 131.568 75.3553 131.329 75.5212L131.644 76.1259C132.291 75.7752 132.605 75.8114 132.732 75.8659C132.796 75.8852 132.851 75.9285 132.884 75.9868Z" fill="#292F67"/>
<path d="M126.158 75.8115L126.134 75.1523L122.359 75.2612L122.39 75.9204L126.158 75.8115Z" fill="#292F67"/>
<path d="M140.747 93.9299C140.747 93.9299 144.926 105.577 147.527 115.018C150.128 124.458 157.809 115.181 157.809 115.181C157.809 115.181 162.043 115.018 162.201 117.6C162.358 120.182 159.781 128.485 152.438 128.667C145.096 128.848 137.317 119.227 137.317 119.227L140.747 93.9299Z" fill="#FFC414"/>
<path d="M151.991 134.4L137.058 134.182C136.671 134.204 136.284 134.135 135.929 133.98C135.574 133.825 135.26 133.589 135.013 133.29C134.766 132.992 134.592 132.64 134.506 132.262C134.42 131.884 134.424 131.492 134.517 131.116L140.221 104.719C140.444 103.869 140.941 103.116 141.636 102.578C142.33 102.04 143.183 101.746 144.062 101.743L158.995 101.961C159.383 101.938 159.77 102.006 160.126 102.161C160.481 102.315 160.796 102.551 161.043 102.85C161.291 103.148 161.464 103.501 161.55 103.88C161.635 104.258 161.63 104.651 161.536 105.027L155.838 131.424C155.614 132.275 155.116 133.027 154.42 133.565C153.725 134.103 152.871 134.397 151.991 134.4Z" fill="#455A64"/>
<path d="M151.991 134.4L137.058 134.182C136.671 134.204 136.284 134.135 135.929 133.98C135.574 133.825 135.26 133.589 135.013 133.29C134.766 132.992 134.592 132.64 134.506 132.262C134.42 131.884 134.424 131.492 134.517 131.116L140.221 104.719C140.444 103.869 140.941 103.116 141.636 102.578C142.33 102.04 143.183 101.746 144.062 101.743L158.995 101.961C159.383 101.938 159.77 102.006 160.126 102.161C160.481 102.315 160.796 102.551 161.043 102.85C161.291 103.148 161.464 103.501 161.55 103.88C161.635 104.258 161.63 104.651 161.536 105.027L155.838 131.424C155.614 132.275 155.116 133.027 154.42 133.565C153.725 134.103 152.871 134.397 151.991 134.4Z" fill="url(#paint5_linear)"/>
<path d="M152.094 134.557L137.808 134.345C137.438 134.364 137.069 134.295 136.731 134.146C136.393 133.996 136.094 133.77 135.859 133.484C135.624 133.198 135.459 132.862 135.377 132.501C135.295 132.14 135.299 131.765 135.388 131.406L140.832 106.146C141.047 105.332 141.525 104.612 142.191 104.097C142.857 103.582 143.674 103.301 144.515 103.297L158.808 103.509C159.178 103.489 159.547 103.557 159.886 103.706C160.225 103.855 160.524 104.082 160.76 104.368C160.995 104.654 161.16 104.991 161.241 105.352C161.323 105.714 161.318 106.089 161.227 106.448L155.784 131.709C155.568 132.523 155.089 133.244 154.422 133.759C153.755 134.274 152.937 134.554 152.094 134.557Z" fill="#37474F"/>
<path d="M161.717 116.396C161.706 115.811 161.581 115.234 161.348 114.697C161.189 114.151 160.868 113.667 160.429 113.306C159.942 113.032 159.39 112.898 158.832 112.919C158.269 112.919 157.701 112.919 157.138 112.919C156.518 112.909 155.902 113.02 155.324 113.246C154.498 113.695 153.855 114.421 153.509 115.296C152.735 116.947 152.572 119.045 153.679 120.491C154.167 121.064 154.743 121.558 155.384 121.954C156.08 122.432 156.896 122.934 157.713 122.71C158.102 122.573 158.457 122.355 158.753 122.069L159.963 121.065C160.376 120.758 160.725 120.374 160.991 119.934C161.213 119.366 161.32 118.76 161.306 118.15C161.472 117.573 161.609 116.988 161.717 116.396Z" fill="#C8A59C"/>
<path d="M136.066 64.4484C135.29 62.608 134.155 60.9407 132.727 59.5438L132.612 60.6505C130.345 59.6154 127.898 59.032 125.408 58.933L125.626 59.7071C124.72 59.4808 123.851 59.1287 123.043 58.6609L122.263 60.0518C121.733 59.6313 121.152 59.2797 120.533 59.0056L119.523 62.6341C119.238 62.4815 118.974 62.2924 118.737 62.0717C118.471 61.8903 118.041 61.8358 117.872 62.108C117.807 62.2389 117.779 62.3856 117.793 62.5313V64.0916L116.305 63.5594C116.242 63.5297 116.173 63.5143 116.103 63.5143C116.033 63.5143 115.964 63.5297 115.9 63.5594C115.851 63.6004 115.81 63.651 115.781 63.7082C115.752 63.7654 115.735 63.8279 115.731 63.892C114.648 69.2985 116.941 76.3317 120.503 80.5347C120.64 79.8872 120.572 79.213 120.309 78.6056C120.013 77.8315 119.1 77.3961 119.257 76.5797C119.299 76.1668 119.492 75.7841 119.799 75.505C120.106 75.2259 120.505 75.0701 120.92 75.0678C122.076 75.2008 121.646 75.6241 122.469 76.4466C122.759 74.844 122.064 72.2134 122.566 70.6712C122.732 70.2655 122.991 69.9042 123.322 69.6163C123.652 69.3284 124.046 69.1218 124.471 69.0131C124.896 68.9044 125.34 68.8966 125.769 68.9902C126.197 69.0839 126.598 69.2764 126.939 69.5525C126.902 68.5244 128.112 67.8652 129.14 67.9015C130.168 67.9378 131.336 68.3309 132.424 68.4639C133.35 68.5728 134.299 69.2198 135.189 69.2077C137.475 69.1715 136.556 65.7365 136.066 64.4484Z" fill="#606161"/>
<path opacity="0.24" d="M230.777 207.931C239.974 207.931 247.429 207.024 247.429 205.906C247.429 204.787 239.974 203.88 230.777 203.88C221.581 203.88 214.126 204.787 214.126 205.906C214.126 207.024 221.581 207.931 230.777 207.931Z" fill="#4A696F"/>
<path opacity="0.24" d="M229.767 221.145C244.682 221.145 256.773 219.675 256.773 217.861C256.773 216.048 244.682 214.578 229.767 214.578C214.852 214.578 202.761 216.048 202.761 217.861C202.761 219.675 214.852 221.145 229.767 221.145Z" fill="#384949"/>
<path d="M230.269 197.892C253.632 197.892 272.572 195.588 272.572 192.746C272.572 189.904 253.632 187.6 230.269 187.6C206.906 187.6 187.967 189.904 187.967 192.746C187.967 195.588 206.906 197.892 230.269 197.892Z" stroke="#384949" stroke-width="4.36952" stroke-miterlimit="10"/>
<path d="M231.213 33.7148C231.213 33.7148 185.759 60.4025 212.463 143.634H249.516C249.516 143.634 277.024 77.402 231.213 33.7148Z" fill="#435761"/>
<path d="M231.213 33.7148C231.213 33.7148 185.759 60.4025 212.463 143.634H249.516C249.516 143.634 277.024 77.402 231.213 33.7148Z" fill="url(#paint6_linear)"/>
<path d="M230.439 100.304C237.31 100.304 242.88 94.7345 242.88 87.8643C242.88 80.994 237.31 75.4246 230.439 75.4246C223.567 75.4246 217.997 80.994 217.997 87.8643C217.997 94.7345 223.567 100.304 230.439 100.304Z" fill="#FFC414"/>
<path d="M215.572 172.874L220.145 164.547C220.953 174.769 223.464 184.784 227.572 194.179C234.957 186.832 236.808 175.741 238.236 165.423C240.332 170.487 242.205 175.634 243.855 180.863C247.206 174.216 248.3 166.658 246.969 159.334L249.812 164.172C251.755 157.154 250.917 149.657 247.471 143.241C241.6 143.677 235.717 143.965 229.822 144.106C227 144.179 224.165 144.215 221.318 144.215C219.449 144.215 216.008 143.483 214.302 144.433C211.024 146.247 212.221 154.066 212.427 157.277C212.597 159.933 212.946 162.574 213.473 165.182C213.721 166.409 216.038 172.027 215.572 172.874Z" fill="#68E1FD"/>
<path d="M215.572 172.874L220.145 164.547C220.953 174.769 223.464 184.784 227.572 194.179C234.957 186.832 236.808 175.741 238.236 165.423C240.332 170.487 242.205 175.634 243.855 180.863C247.206 174.216 248.3 166.658 246.969 159.334L249.812 164.172C251.755 157.154 250.917 149.657 247.471 143.241C241.6 143.677 235.717 143.965 229.822 144.106C227 144.179 224.165 144.215 221.318 144.215C219.449 144.215 216.008 143.483 214.302 144.433C211.024 146.247 212.221 154.066 212.427 157.277C212.597 159.933 212.946 162.574 213.473 165.182C213.721 166.409 216.038 172.027 215.572 172.874Z" fill="url(#paint7_linear)"/>
<path d="M221.863 162.418L224.645 157.338C225.142 163.572 226.675 169.679 229.181 175.408C233.681 170.927 234.812 164.16 235.683 157.87C236.965 160.962 238.109 164.103 239.113 167.292C241.156 163.236 241.823 158.625 241.012 154.157L242.742 157.12C243.936 152.83 243.425 148.245 241.314 144.324C237.734 144.59 234.147 144.767 230.554 144.856C228.824 144.896 227.094 144.916 225.365 144.916C224.228 144.916 222.129 144.469 221.088 145.049C219.086 146.168 219.812 150.928 219.939 152.911C220.046 154.536 220.26 156.152 220.58 157.749C220.732 158.475 222.141 161.904 221.863 162.418Z" fill="url(#paint8_linear)"/>
<path d="M221.923 42.2117C221.923 42.2117 231.346 45.3866 239.01 42.2117L231.401 33.9387C231.219 33.7414 230.998 33.5855 230.75 33.4815C230.503 33.3774 230.237 33.3278 229.969 33.3358C229.701 33.3438 229.438 33.4094 229.198 33.528C228.957 33.6466 228.745 33.8156 228.576 34.0233L221.923 42.2117Z" fill="#68E1FD"/>
<path d="M221.923 42.2116C221.923 42.2116 231.346 45.3866 239.01 42.2116L231.31 33.8419C231.14 33.657 230.932 33.5108 230.7 33.4133C230.469 33.3158 230.219 33.2692 229.967 33.2767C229.716 33.2841 229.47 33.3455 229.244 33.4565C229.019 33.5676 228.82 33.7258 228.661 33.9205L221.923 42.2116Z" fill="url(#paint9_linear)"/>
<path d="M246.558 173.957C252.897 174.561 256.937 175.547 256.937 176.623C256.937 178.535 244.235 180.083 228.51 180.083C212.784 180.083 200.082 178.535 200.082 176.623C200.082 175.045 208.816 173.709 220.737 173.297" stroke="#384949" stroke-width="2.93412" stroke-miterlimit="10"/>
</g>
<defs>
<linearGradient id="paint0_linear" x1="205.798" y1="110.264" x2="192.586" y2="240.268" gradientUnits="userSpaceOnUse">
<stop stop-color="#010101" stop-opacity="0"/>
<stop offset="0.95" stop-color="#435761"/>
</linearGradient>
<linearGradient id="paint1_linear" x1="12295.9" y1="7600.33" x2="11158.4" y2="15900.4" gradientUnits="userSpaceOnUse">
<stop stop-color="#010101" stop-opacity="0"/>
<stop offset="0.95" stop-color="#010101"/>
</linearGradient>
<linearGradient id="paint2_linear" x1="4792.42" y1="25082.5" x2="140.472" y2="23823" gradientUnits="userSpaceOnUse">
<stop stop-color="#010101" stop-opacity="0"/>
<stop offset="0.95" stop-color="#37474F"/>
</linearGradient>
<linearGradient id="paint3_linear" x1="4263.55" y1="25858.1" x2="1677.43" y2="25652.2" gradientUnits="userSpaceOnUse">
<stop stop-color="#37474F" stop-opacity="0"/>
<stop offset="0.95" stop-color="#37474F"/>
</linearGradient>
<linearGradient id="paint4_linear" x1="6311.29" y1="10817.3" x2="4903.24" y2="21075.4" gradientUnits="userSpaceOnUse">
<stop stop-color="#010101" stop-opacity="0"/>
<stop offset="0.95" stop-color="#932626"/>
</linearGradient>
<linearGradient id="paint5_linear" x1="6561.15" y1="5617.1" x2="6786.35" y2="10850.6" gradientUnits="userSpaceOnUse">
<stop stop-color="#010101" stop-opacity="0"/>
<stop offset="0.95" stop-color="#263238"/>
</linearGradient>
<linearGradient id="paint6_linear" x1="197.868" y1="90.8759" x2="248.874" y2="88.2323" gradientUnits="userSpaceOnUse">
<stop stop-color="white" stop-opacity="0"/>
<stop offset="0.95" stop-color="white"/>
</linearGradient>
<linearGradient id="paint7_linear" x1="14740.7" y1="16818.9" x2="15091.7" y2="7877.87" gradientUnits="userSpaceOnUse">
<stop stop-color="#010101" stop-opacity="0"/>
<stop offset="0.95" stop-color="#FFD043"/>
</linearGradient>
<linearGradient id="paint8_linear" x1="9102.09" y1="9514.34" x2="9232.24" y2="6186.43" gradientUnits="userSpaceOnUse">
<stop stop-color="#010101" stop-opacity="0"/>
<stop offset="0.95" stop-color="#FFE388"/>
</linearGradient>
<linearGradient id="paint9_linear" x1="6747.36" y1="907.894" x2="6093.78" y2="720.176" gradientUnits="userSpaceOnUse">
<stop stop-color="#010101" stop-opacity="0"/>
<stop offset="0.95" stop-color="#455A64"/>
</linearGradient>
<clipPath id="clip0">
<rect width="349" height="263" fill="white"/>
</clipPath>
</defs>
</svg>
