<svg width="256" height="256" viewBox="0 0 256 256" fill="none" xmlns="http://www.w3.org/2000/svg">
<path d="M31.5904 85.2992C32.0512 85.0432 32.5632 85.0432 33.024 85.2992L33.3824 85.504L33.7408 85.7088C34.2016 85.9136 34.5088 86.3744 34.56 86.8864L34.6112 88.6272L40.3456 88.4224L40.2944 86.6816C40.2944 86.1696 40.5504 85.7088 41.0112 85.4528C41.2672 85.2992 41.5232 85.1456 41.728 84.992C42.1376 84.6848 42.7008 84.6848 43.1616 84.8896L44.6976 85.7088L47.4112 80.6912L45.8752 79.872C45.4144 79.616 45.1584 79.1552 45.1584 78.6432C45.1584 78.336 45.1584 78.08 45.1072 77.7728C45.056 77.2608 45.312 76.7488 45.7216 76.4928L47.2064 75.5712L44.1856 70.7072L42.7008 71.6288C42.24 71.8848 41.728 71.8848 41.2672 71.6288C41.1648 71.5776 41.0112 71.4752 40.9088 71.424L40.5504 71.2192C40.0896 71.0144 39.7824 70.5536 39.7312 70.0416L39.68 68.3008L33.9456 68.5056L33.9968 70.2464C33.9968 70.7584 33.7408 71.2192 33.28 71.4752C33.024 71.6288 32.768 71.7824 32.5632 71.936C32.1536 72.2432 31.5904 72.2432 31.1296 72.0384L29.5936 71.2192L26.88 76.288L28.416 77.1072C28.8768 77.3632 29.1328 77.824 29.1328 78.336C29.1328 78.6432 29.1328 78.8992 29.1328 79.2064C29.184 79.7184 28.928 80.2304 28.5184 80.4864L27.0336 81.408L30.0544 86.272L31.5904 85.2992ZM33.024 76.288C34.2528 73.984 37.0688 73.1648 39.3728 74.3936C41.6768 75.6224 42.496 78.4384 41.2672 80.7424C40.0384 83.0464 37.2224 83.8656 34.9184 82.6368C32.6656 81.408 31.7952 78.592 33.024 76.288Z" fill="#EBEBEB"/>
<path d="M210.586 43.4686C210.893 43.6734 211.098 43.9806 211.046 44.339C211.046 44.4414 211.046 44.5438 211.046 44.6462C211.046 44.7486 211.046 44.851 211.046 44.9534C211.046 45.3118 210.893 45.6702 210.586 45.8238L209.51 46.4382L211.507 49.9198L212.582 49.3054C212.89 49.1518 213.299 49.1518 213.606 49.3566C213.76 49.459 213.965 49.5614 214.118 49.6638C214.426 49.8174 214.63 50.1758 214.63 50.5342V51.763H218.624V50.5342C218.624 50.1758 218.829 49.8686 219.136 49.6638C219.29 49.5614 219.494 49.459 219.648 49.3566C219.955 49.1518 220.314 49.1518 220.672 49.3054L221.747 49.9198L223.795 46.4894L222.72 45.875C222.413 45.6702 222.208 45.363 222.259 45.0046C222.259 44.9022 222.259 44.7998 222.259 44.6974C222.259 44.595 222.259 44.4926 222.259 44.3902C222.259 44.0318 222.413 43.6734 222.72 43.5198L223.795 42.9054L221.798 39.475L220.723 40.0894C220.416 40.2942 220.006 40.243 219.699 40.0382C219.546 39.9358 219.341 39.8334 219.187 39.731C218.88 39.5774 218.675 39.219 218.675 38.8606V37.6318H214.682V38.8606C214.682 39.219 214.477 39.5262 214.17 39.731C213.965 39.8334 213.811 39.9358 213.658 40.0382C213.35 40.243 212.992 40.243 212.634 40.0894L211.558 39.475L209.562 42.9566L210.586 43.4686ZM216.627 41.3694C218.419 41.3694 219.904 42.8542 219.904 44.6462C219.904 46.4382 218.419 47.923 216.627 47.923C214.835 47.923 213.35 46.4382 213.35 44.6462C213.35 42.8542 214.835 41.3694 216.627 41.3694Z" fill="#EBEBEB"/>
<path d="M204.544 119.859C204.544 128.461 211.507 135.475 220.16 135.475C228.813 135.475 235.776 128.512 235.776 119.859C235.776 111.258 228.813 104.243 220.16 104.243C211.558 104.243 204.544 111.206 204.544 119.859ZM212.89 119.859C212.89 115.814 216.166 112.589 220.16 112.589C224.205 112.589 227.43 115.866 227.43 119.859C227.43 123.853 224.154 127.13 220.16 127.13C216.166 127.13 212.89 123.853 212.89 119.859Z" fill="#EBEBEB"/>
<path d="M217.139 104.909H223.181L222.822 100.659H217.498L217.139 104.909Z" fill="#EBEBEB"/>
<path d="M228.557 106.905L232.806 111.155L235.571 107.929L231.834 104.141L228.557 106.905Z" fill="#EBEBEB"/>
<path d="M235.213 116.429V122.419L239.462 122.061V116.736L235.213 116.429Z" fill="#EBEBEB"/>
<path d="M233.216 127.846L228.966 132.096L232.192 134.861L235.981 131.072L233.216 127.846Z" fill="#EBEBEB"/>
<path d="M223.693 134.451H217.702L218.01 138.701H223.334L223.693 134.451Z" fill="#EBEBEB"/>
<path d="M212.275 132.454L208.026 128.205L205.261 131.43L209.05 135.219L212.275 132.454Z" fill="#EBEBEB"/>
<path d="M205.619 122.931V116.94L201.37 117.299V122.624L205.619 122.931Z" fill="#EBEBEB"/>
<path d="M207.667 111.513L211.917 107.315L208.64 104.499L204.902 108.288L207.667 111.513Z" fill="#EBEBEB"/>
<path d="M53.4016 108.134C53.4016 116.736 60.3648 123.75 69.0176 123.75C77.6192 123.75 84.6336 116.787 84.6336 108.134C84.6336 99.4813 77.6704 92.5181 69.0176 92.5181C60.416 92.5181 53.4016 99.5325 53.4016 108.134ZM61.696 108.134C61.696 104.089 64.9728 100.864 68.9664 100.812C73.0112 100.812 76.2368 104.089 76.288 108.083C76.288 112.128 73.0112 115.353 69.0176 115.404C64.9728 115.404 61.7472 112.128 61.696 108.134Z" fill="#EBEBEB"/>
<path d="M65.9968 93.1837H71.9872L71.68 88.9341H66.3552L65.9968 93.1837Z" fill="#EBEBEB"/>
<path d="M77.4144 95.1808L81.664 99.4304L84.4288 96.2048L80.64 92.416L77.4144 95.1808Z" fill="#EBEBEB"/>
<path d="M84.0704 104.704V110.694L88.32 110.387V105.011L84.0704 104.704Z" fill="#EBEBEB"/>
<path d="M82.0224 116.122L77.824 120.371L81.0496 123.136L84.8384 119.347L82.0224 116.122Z" fill="#EBEBEB"/>
<path d="M72.5504 122.778H66.56L66.8672 127.027H72.192L72.5504 122.778Z" fill="#EBEBEB"/>
<path d="M61.1328 120.73L56.8832 116.48L54.1184 119.757L57.9072 123.494L61.1328 120.73Z" fill="#EBEBEB"/>
<path d="M54.4768 111.257V105.216L50.2272 105.574V110.899L54.4768 111.257Z" fill="#EBEBEB"/>
<path d="M56.5248 99.8401L60.7232 95.5905L57.4976 92.8257L53.7088 96.5633L56.5248 99.8401Z" fill="#EBEBEB"/>
<path d="M103.014 169.421L102.451 172.903L101.837 176.64L96.256 210.688H87.1936L92.7232 176.64L93.3376 172.903L93.9008 169.421H103.014Z" fill="#EBEBEB"/>
<path d="M101.683 169.421C101.222 172.851 100.71 176.333 100.147 179.763L98.56 190.055L96.8704 200.346L96 205.466L95.0784 210.586L95.7952 205.415L96.5632 200.243L98.1504 189.901L99.84 179.61C100.506 176.282 101.069 172.851 101.683 169.421Z" fill="#C7C7C7"/>
<path d="M102.451 172.902L101.837 176.64H92.7232L93.3376 172.902H102.451Z" fill="#C7C7C7"/>
<path d="M147.814 169.421L148.378 172.903L148.992 176.64L154.573 210.688H163.635L158.106 176.64L157.491 172.903L156.928 169.421H147.814Z" fill="#EBEBEB"/>
<path d="M149.197 169.421C149.658 172.851 150.17 176.333 150.733 179.763L152.32 190.055L154.01 200.346L154.88 205.466L155.802 210.586L155.085 205.415L154.317 200.243L152.73 189.901L151.04 179.61C150.374 176.282 149.811 172.851 149.197 169.421Z" fill="#C7C7C7"/>
<path d="M148.378 172.902H157.491L158.106 176.64H148.992L148.378 172.902Z" fill="#C7C7C7"/>
<path d="M102.656 159.846H95.488L96.3584 153.139H101.786L102.656 159.846Z" fill="#C7C7C7"/>
<path d="M105.779 148.377C105.779 152.064 102.758 155.084 99.072 155.084C95.3856 155.084 92.3648 152.064 92.3648 148.377C92.3648 144.691 95.3856 141.67 99.072 141.67C102.758 141.619 105.779 144.64 105.779 148.377C105.779 148.326 105.779 148.326 105.779 148.377Z" fill="#DBDBDB"/>
<path d="M104.192 148.377C104.192 151.193 101.888 153.497 99.072 153.497C96.256 153.497 93.952 151.193 93.952 148.377C93.952 145.561 96.256 143.257 99.072 143.257C101.888 143.257 104.192 145.51 104.192 148.377Z" fill="white"/>
<path d="M103.322 148.07C103.219 146.841 102.605 145.715 101.632 144.947C100.659 144.179 99.4304 143.872 98.2016 144.025C96.9728 144.23 95.8976 144.896 95.232 145.971C94.5152 147.046 94.3616 148.377 94.6688 149.657C94.976 150.732 95.6928 151.654 96.6656 152.166C97.6384 152.678 98.7136 152.883 99.7888 152.627C100.813 152.422 101.734 151.859 102.4 151.04C103.066 150.22 103.424 149.248 103.475 148.224C103.475 148.172 103.475 148.121 103.424 148.121C103.373 148.121 103.373 148.172 103.373 148.224C103.373 148.633 103.27 149.043 103.117 149.452C102.963 149.862 102.81 150.22 102.554 150.579C102.298 150.937 102.042 151.244 101.734 151.5C101.427 151.756 101.069 152.012 100.659 152.166C99.584 152.678 98.304 152.729 97.1776 152.268C96.0512 151.808 95.1808 150.835 94.8224 149.657C94.464 148.48 94.6176 147.148 95.2832 146.073C95.8976 145.049 96.9728 144.384 98.1504 144.179C99.7376 143.923 101.376 144.588 102.349 145.868C102.605 146.176 102.758 146.534 102.912 146.944C103.168 147.251 103.27 147.66 103.322 148.07Z" fill="#EBEBEB"/>
<path d="M102.758 148.07C102.656 146.995 102.144 146.073 101.325 145.408C100.506 144.742 99.4304 144.486 98.4064 144.64C97.3824 144.793 96.4096 145.408 95.8464 146.278C95.232 147.2 95.0272 148.377 95.3344 149.453C95.5904 150.374 96.2048 151.193 97.0752 151.654C97.8944 152.115 98.8672 152.269 99.7888 152.064C100.659 151.859 101.478 151.347 102.042 150.63C102.605 149.913 102.912 149.043 102.963 148.173C102.963 148.121 102.963 148.121 102.912 148.07C102.861 148.019 102.861 148.121 102.861 148.121C102.758 149.606 101.888 150.886 100.506 151.501C99.584 151.961 98.4576 152.013 97.4848 151.603C96.512 151.193 95.744 150.374 95.4368 149.35C95.1296 148.326 95.2832 147.2 95.8464 146.278C96.4096 145.408 97.28 144.845 98.304 144.691C99.6864 144.486 101.018 145.049 101.888 146.125C102.093 146.381 102.246 146.688 102.4 147.046C102.502 147.353 102.605 147.712 102.656 148.07C102.707 148.07 102.758 148.07 102.758 148.07Z" fill="#EBEBEB"/>
<path d="M102.144 148.07C102.042 147.2 101.632 146.381 100.915 145.869C100.25 145.357 99.328 145.101 98.5088 145.203C97.6384 145.305 96.8704 145.817 96.3584 146.534C95.8464 147.302 95.6416 148.326 95.8976 149.248C96.1024 150.067 96.6656 150.732 97.3824 151.142C98.0992 151.552 98.9184 151.654 99.6864 151.5C100.454 151.347 101.12 150.886 101.581 150.272C102.042 149.657 102.349 148.94 102.349 148.172C102.349 148.121 102.349 148.121 102.298 148.121L102.246 148.172C102.144 149.401 101.376 150.476 100.301 151.04C99.4816 151.449 98.56 151.5 97.7408 151.142C96.9216 150.784 96.256 150.118 96 149.248C95.744 148.377 95.8976 147.456 96.3584 146.688C96.8192 145.971 97.5872 145.51 98.4576 145.408C99.0208 145.357 99.584 145.408 100.096 145.613C100.608 145.817 101.069 146.176 101.427 146.585C101.581 146.79 101.734 147.046 101.837 147.353C101.99 147.507 102.042 147.814 102.144 148.07C102.144 148.07 102.093 148.121 102.144 148.07Z" fill="#EBEBEB"/>
<path d="M101.53 148.07C101.427 147.354 101.069 146.739 100.506 146.33C99.9424 145.92 99.2768 145.715 98.56 145.818C97.8432 145.869 97.2288 146.278 96.8192 146.842C96.3584 147.507 96.2048 148.275 96.4096 149.043C96.5632 149.709 97.024 150.272 97.6384 150.63C98.2016 150.938 98.9184 151.04 99.584 150.886C100.198 150.733 100.762 150.374 101.171 149.862C101.581 149.35 101.786 148.787 101.837 148.173C101.837 148.122 101.837 148.122 101.786 148.122C101.786 148.122 101.734 148.122 101.734 148.173C101.632 149.146 101.018 150.067 100.147 150.477C99.4816 150.835 98.7648 150.835 98.048 150.579C97.3824 150.323 96.8704 149.709 96.6656 148.992C96.4608 148.275 96.5632 147.507 96.9728 146.893C97.3312 146.33 97.9456 145.971 98.6624 145.869C99.1232 145.818 99.5328 145.869 99.9424 146.022C100.352 146.176 100.71 146.432 101.018 146.79C101.171 146.995 101.274 147.149 101.376 147.354C101.376 147.61 101.478 147.814 101.53 148.07C101.53 148.07 101.478 148.07 101.53 148.07Z" fill="#EBEBEB"/>
<path d="M155.187 159.846H148.019L148.89 153.139H154.317L155.187 159.846Z" fill="#C7C7C7"/>
<path d="M158.31 148.377C158.31 152.064 155.29 155.084 151.603 155.084C147.917 155.084 144.896 152.064 144.896 148.377C144.896 144.691 147.917 141.67 151.603 141.67C155.29 141.619 158.31 144.64 158.31 148.377C158.31 148.326 158.31 148.326 158.31 148.377Z" fill="#DBDBDB"/>
<path d="M156.723 148.377C156.723 151.193 154.419 153.497 151.603 153.497C148.787 153.497 146.483 151.193 146.483 148.377C146.483 145.561 148.787 143.257 151.603 143.257C154.419 143.257 156.723 145.51 156.723 148.377Z" fill="white"/>
<path d="M155.853 148.07C155.75 146.841 155.136 145.715 154.163 144.947C153.19 144.179 151.962 143.872 150.733 144.025C149.504 144.23 148.429 144.896 147.763 145.971C147.046 147.046 146.893 148.377 147.251 149.657C147.558 150.732 148.275 151.654 149.248 152.166C150.221 152.678 151.296 152.883 152.371 152.627C153.395 152.422 154.317 151.859 154.982 151.04C155.648 150.22 156.006 149.248 156.058 148.224C156.058 148.172 156.058 148.121 156.006 148.121C155.955 148.121 155.955 148.172 155.955 148.224C155.955 148.633 155.853 149.043 155.699 149.452C155.546 149.862 155.392 150.22 155.136 150.579C154.88 150.937 154.624 151.244 154.317 151.5C154.01 151.756 153.651 152.012 153.242 152.166C152.166 152.678 150.886 152.729 149.76 152.268C148.634 151.808 147.763 150.835 147.405 149.657C147.046 148.48 147.2 147.148 147.866 146.073C148.48 145.049 149.555 144.384 150.733 144.179C152.32 143.923 153.958 144.588 154.931 145.868C155.187 146.176 155.341 146.534 155.494 146.944C155.699 147.251 155.802 147.66 155.853 148.07Z" fill="#EBEBEB"/>
<path d="M155.29 148.07C155.187 146.995 154.675 146.073 153.856 145.408C153.037 144.742 151.962 144.486 150.938 144.64C149.914 144.793 148.941 145.408 148.378 146.278C147.763 147.2 147.558 148.377 147.866 149.453C148.122 150.374 148.736 151.193 149.606 151.654C150.426 152.115 151.398 152.269 152.32 152.064C153.19 151.859 154.01 151.347 154.573 150.63C155.136 149.913 155.443 149.043 155.494 148.173C155.494 148.121 155.494 148.121 155.443 148.07C155.392 148.019 155.392 148.121 155.392 148.121C155.29 149.606 154.419 150.886 153.088 151.501C152.166 151.961 151.04 152.013 150.067 151.603C149.094 151.193 148.326 150.374 148.019 149.35C147.712 148.326 147.866 147.2 148.429 146.278C148.992 145.408 149.862 144.845 150.886 144.691C152.269 144.486 153.6 145.049 154.47 146.125C154.675 146.381 154.829 146.688 154.982 147.046C155.136 147.405 155.187 147.712 155.29 148.07C155.29 148.07 155.238 148.07 155.29 148.07Z" fill="#EBEBEB"/>
<path d="M154.675 148.07C154.573 147.2 154.163 146.381 153.446 145.869C152.781 145.357 151.859 145.101 151.04 145.203C150.17 145.305 149.402 145.817 148.89 146.534C148.378 147.302 148.173 148.326 148.429 149.248C148.634 150.067 149.197 150.732 149.914 151.142C150.63 151.552 151.45 151.654 152.218 151.5C152.986 151.347 153.651 150.886 154.112 150.272C154.573 149.657 154.88 148.94 154.88 148.172C154.88 148.121 154.88 148.121 154.829 148.121L154.778 148.172C154.675 149.401 153.907 150.476 152.832 151.04C152.013 151.449 151.091 151.5 150.272 151.142C149.453 150.784 148.787 150.118 148.531 149.248C148.275 148.377 148.429 147.456 148.89 146.688C149.35 145.971 150.118 145.51 150.989 145.408C151.552 145.357 152.115 145.408 152.627 145.613C153.139 145.817 153.6 146.176 153.958 146.585C154.112 146.79 154.266 147.046 154.368 147.353C154.522 147.507 154.573 147.814 154.675 148.07C154.675 148.07 154.624 148.121 154.675 148.07Z" fill="#EBEBEB"/>
<path d="M154.061 148.07C153.958 147.354 153.6 146.739 153.037 146.33C152.474 145.92 151.808 145.715 151.091 145.818C150.374 145.869 149.76 146.278 149.35 146.842C148.89 147.507 148.736 148.275 148.941 149.043C149.094 149.709 149.555 150.272 150.17 150.63C150.733 150.938 151.45 151.04 152.115 150.886C152.73 150.733 153.293 150.374 153.702 149.862C154.061 149.35 154.317 148.787 154.317 148.173C154.317 148.122 154.317 148.122 154.266 148.122C154.266 148.122 154.214 148.122 154.214 148.173C154.112 149.146 153.498 150.067 152.627 150.477C151.962 150.835 151.245 150.835 150.579 150.579C149.914 150.323 149.402 149.709 149.197 148.992C148.992 148.275 149.094 147.507 149.504 146.893C149.862 146.33 150.477 145.971 151.194 145.869C151.654 145.818 152.064 145.869 152.474 146.022C152.883 146.176 153.242 146.432 153.549 146.79C153.702 146.995 153.805 147.149 153.907 147.354C153.958 147.61 154.01 147.814 154.061 148.07Z" fill="#EBEBEB"/>
<path d="M170.65 156.416H80.1792V173.722H170.65V156.416Z" fill="#DBDBDB"/>
<path d="M98.7648 156.416L92.2112 173.773H80.5376L87.0912 156.416H98.7648Z" fill="#EBEBEB"/>
<path d="M122.726 156.416L116.173 173.773H104.448L111.053 156.416H122.726Z" fill="#EBEBEB"/>
<path d="M146.688 156.416L140.083 173.773H128.41L134.963 156.416H146.688Z" fill="#EBEBEB"/>
<path d="M170.65 156.416L164.045 173.773H152.371L158.925 156.416H170.65Z" fill="#EBEBEB"/>
<path d="M168.858 189.747H82.0224V200.704H168.858V189.747Z" fill="#DBDBDB"/>
<path d="M99.84 189.747L93.5424 200.704H82.3296L88.6272 189.747H99.84Z" fill="#EBEBEB"/>
<path d="M122.829 189.747L116.531 200.704H105.318L111.616 189.747H122.829Z" fill="#EBEBEB"/>
<path d="M145.818 189.747L139.52 200.704H128.307L134.605 189.747H145.818Z" fill="#EBEBEB"/>
<path d="M168.806 189.747L162.509 200.704H151.296L157.594 189.747H168.806Z" fill="#EBEBEB"/>
<path d="M128 238.541C187.071 238.541 234.957 234.529 234.957 229.581C234.957 224.632 187.071 220.621 128 220.621C68.9294 220.621 21.0432 224.632 21.0432 229.581C21.0432 234.529 68.9294 238.541 128 238.541Z" fill="#EBEBEB"/>
<path d="M15.6672 210.688L43.776 210.586L71.8336 210.535L128 210.432L184.166 210.535L212.224 210.586L240.333 210.688L212.224 210.842H184.166L128 210.944L71.8336 210.842H43.776L15.6672 210.688Z" fill="#263238"/>
<path d="M173.21 63.1807C173.21 72.0895 180.429 79.3087 189.338 79.3087C198.246 79.3087 205.466 72.0895 205.466 63.1807C205.466 54.2719 198.246 47.0527 189.338 47.0527C180.429 47.0527 173.21 54.2719 173.21 63.1807ZM181.76 63.1807C181.76 59.0335 185.139 55.6543 189.286 55.6543C193.434 55.6543 196.813 59.0335 196.813 63.1807C196.813 67.3279 193.434 70.7071 189.286 70.7071C185.139 70.7071 181.76 67.3279 181.76 63.1807Z" fill="#C7C7C7"/>
<path d="M186.214 47.7182H192.41L192.051 43.3662H186.573L186.214 47.7182Z" fill="#C7C7C7"/>
<path d="M197.99 49.8174L202.394 54.2206L205.21 50.8414L201.318 46.9502L197.99 49.8174Z" fill="#C7C7C7"/>
<path d="M204.851 59.6479V65.8432L209.254 65.4848V59.9551L204.851 59.6479Z" fill="#C7C7C7"/>
<path d="M202.752 71.4238L198.4 75.827L201.728 78.643L205.619 74.7518L202.752 71.4238Z" fill="#C7C7C7"/>
<path d="M192.973 78.2847H186.778L187.085 82.6879H192.614L192.973 78.2847Z" fill="#C7C7C7"/>
<path d="M181.146 76.1855L176.794 71.8335L173.926 75.1615L177.818 79.0527L181.146 76.1855Z" fill="#C7C7C7"/>
<path d="M174.285 66.4066V60.2114L169.933 60.5186V66.0482L174.285 66.4066Z" fill="#C7C7C7"/>
<path d="M176.384 54.5791L180.787 50.2271L177.408 47.3599L173.517 51.2511L176.384 54.5791Z" fill="#C7C7C7"/>
<path d="M192.922 59.5456L187.955 58.2144L184.32 61.8496L185.651 66.816L190.618 68.1472L194.253 64.512L192.922 59.5456ZM189.286 64.8192C188.365 64.8192 187.648 64.1024 187.648 63.1808C187.648 62.2592 188.365 61.5424 189.286 61.5424C190.208 61.5424 190.925 62.2592 190.925 63.1808C190.925 64.0512 190.208 64.8192 189.286 64.8192Z" fill="#C7C7C7"/>
<path d="M136.192 100.864C136.192 109.722 143.36 116.89 152.218 116.89C161.075 116.89 168.243 109.722 168.243 100.864C168.243 92.0066 161.075 84.8386 152.218 84.8386C143.36 84.8386 136.192 92.0066 136.192 100.864ZM139.622 100.864C139.622 93.901 145.254 88.269 152.218 88.269C159.181 88.269 164.813 93.901 164.813 100.864C164.813 107.827 159.181 113.459 152.218 113.459C145.254 113.459 139.622 107.827 139.622 100.864ZM136.192 100.864C136.192 109.722 143.36 116.89 152.218 116.89C161.075 116.89 168.243 109.722 168.243 100.864C168.243 92.0066 161.075 84.8386 152.218 84.8386C143.36 84.8386 136.192 92.0066 136.192 100.864ZM139.622 100.864C139.622 93.901 145.254 88.269 152.218 88.269C159.181 88.269 164.813 93.901 164.813 100.864C164.813 107.827 159.181 113.459 152.218 113.459C145.254 113.459 139.622 107.827 139.622 100.864ZM125.184 100.864C125.184 115.763 137.318 127.847 152.218 127.847C167.117 127.847 179.2 115.712 179.2 100.813C179.2 85.9138 167.117 73.8306 152.218 73.8306C137.318 73.8306 125.235 85.9138 125.184 100.864C125.235 100.864 125.235 100.864 125.184 100.864ZM134.656 100.864C134.656 91.1874 142.49 83.3026 152.218 83.3026C161.946 83.3026 169.779 91.1362 169.779 100.864C169.779 110.541 161.946 118.426 152.218 118.426C142.541 118.426 134.656 110.541 134.656 100.864ZM136.192 100.864C136.192 109.722 143.36 116.89 152.218 116.89C161.075 116.89 168.243 109.722 168.243 100.864C168.243 92.0066 161.075 84.8386 152.218 84.8386C143.36 84.8386 136.192 92.0066 136.192 100.864ZM139.622 100.864C139.622 93.901 145.254 88.269 152.218 88.269C159.181 88.269 164.813 93.901 164.813 100.864C164.813 107.827 159.181 113.459 152.218 113.459C145.254 113.459 139.622 107.827 139.622 100.864Z" fill="#FFC414"/>
<path d="M149.043 74.2914H155.238L154.624 68.1475H149.658L149.043 74.2914Z" fill="#FFC414"/>
<path d="M162.765 76.2881L168.09 79.3601L170.65 73.7281L166.349 71.2705L162.765 76.2881Z" fill="#FFC414"/>
<path d="M173.619 84.8383L176.691 90.1631L181.76 86.5791L179.251 82.2783L173.619 84.8383Z" fill="#FFC414"/>
<path d="M178.739 97.6895V103.833L184.934 103.219V98.3039L178.739 97.6895Z" fill="#FFC414"/>
<path d="M176.794 111.36L173.67 116.685L179.354 119.245L181.811 114.995L176.794 111.36Z" fill="#FFC414"/>
<path d="M168.243 122.214L162.867 125.338L166.502 130.355L170.803 127.898L168.243 122.214Z" fill="#FFC414"/>
<path d="M155.392 127.386H149.197L149.811 133.53H154.778L155.392 127.386Z" fill="#FFC414"/>
<path d="M141.722 125.389L136.346 122.317L133.786 127.949L138.086 130.458L141.722 125.389Z" fill="#FFC414"/>
<path d="M130.867 116.838L127.744 111.514L122.726 115.098L125.184 119.398L130.867 116.838Z" fill="#FFC414"/>
<path d="M125.696 103.987V97.8433L119.552 98.4577V103.373L125.696 103.987Z" fill="#FFC414"/>
<path d="M127.693 90.3164L130.765 84.9916L125.133 82.4316L122.624 86.7324L127.693 90.3164Z" fill="#FFC414"/>
<path d="M136.192 79.4626L141.568 76.3394L137.933 71.3218L133.683 73.7794L136.192 79.4626Z" fill="#FFC414"/>
<path d="M64.9216 58.1634C68.9664 58.5218 72.5504 55.5522 72.9088 51.5074C73.2672 47.4626 70.2976 43.8786 66.2528 43.5202C62.208 43.1618 58.624 46.1314 58.2656 50.1762C57.856 54.221 60.8256 57.805 64.9216 58.1634C64.8704 58.1634 64.8704 58.1634 64.9216 58.1634ZM59.136 50.2786C59.4432 46.7458 62.6176 44.1346 66.1504 44.4418C69.6832 44.749 72.2944 47.9234 71.9872 51.4562C71.68 54.989 68.5056 57.6002 64.9728 57.293C61.44 56.9346 58.8288 53.8114 59.136 50.2786ZM64.9216 58.1634C68.9664 58.5218 72.5504 55.5522 72.9088 51.5074C73.2672 47.4626 70.2976 43.8786 66.2528 43.5202C62.208 43.1618 58.624 46.1314 58.2656 50.1762C57.856 54.221 60.8256 57.805 64.9216 58.1634C64.8704 58.1634 64.8704 58.1634 64.9216 58.1634ZM59.136 50.2786C59.4432 46.7458 62.6176 44.1346 66.1504 44.4418C69.6832 44.749 72.2944 47.9234 71.9872 51.4562C71.68 54.989 68.5056 57.6002 64.9728 57.293C61.44 56.9346 58.8288 53.8114 59.136 50.2786ZM64.9216 58.1634C68.9664 58.5218 72.5504 55.5522 72.9088 51.5074C73.2672 47.4626 70.2976 43.8786 66.2528 43.5202C62.208 43.1618 58.624 46.1314 58.2656 50.1762C57.856 54.221 60.8256 57.805 64.9216 58.1634C64.8704 58.1634 64.8704 58.1634 64.9216 58.1634ZM59.136 50.2786C59.4432 46.7458 62.6176 44.1346 66.1504 44.4418C69.6832 44.749 72.2944 47.9234 71.9872 51.4562C71.68 54.989 68.5056 57.6002 64.9728 57.293C61.44 56.9346 58.8288 53.8114 59.136 50.2786ZM64.1536 66.3042C72.6528 67.1234 80.2304 60.877 81.0496 52.3266C81.8688 43.8274 75.6224 36.2498 67.072 35.4306C58.5216 34.6114 50.9952 40.909 50.176 49.4082C50.176 49.4082 50.176 49.4082 50.176 49.4594C49.408 57.9586 55.6544 65.485 64.1536 66.3042ZM57.1392 50.0738C57.5488 45.4146 61.696 41.933 66.3552 42.3938C71.0144 42.8546 74.496 46.9506 74.0352 51.6098C73.5744 56.269 69.4784 59.7506 64.8192 59.2898C60.16 58.8802 56.7296 54.733 57.1392 50.0738ZM58.2656 50.1762C57.9072 54.221 60.8768 57.805 64.9216 58.1634C68.9664 58.5218 72.5504 55.5522 72.9088 51.5074C73.2672 47.4626 70.2976 43.8786 66.2528 43.5202C62.208 43.1618 58.624 46.1314 58.2656 50.1762ZM59.136 50.2786C59.4432 46.7458 62.6176 44.1346 66.1504 44.4418C69.6832 44.749 72.2944 47.9234 71.9872 51.4562C71.68 54.989 68.5056 57.6002 64.9728 57.293C61.44 56.9346 58.8288 53.8114 59.136 50.2786ZM64.9216 58.1634C68.9664 58.5218 72.5504 55.5522 72.9088 51.5074C73.2672 47.4626 70.2976 43.8786 66.2528 43.5202C62.208 43.1618 58.624 46.1314 58.2656 50.1762C57.856 54.221 60.8256 57.805 64.9216 58.1634C64.8704 58.1634 64.8704 58.1634 64.9216 58.1634ZM59.136 50.2786C59.4432 46.7458 62.6176 44.1346 66.1504 44.4418C69.6832 44.749 72.2944 47.9234 71.9872 51.4562C71.68 54.989 68.5056 57.6002 64.9728 57.293C61.44 56.9346 58.8288 53.8114 59.136 50.2786ZM64.9216 58.1634C68.9664 58.5218 72.5504 55.5522 72.9088 51.5074C73.2672 47.4626 70.2976 43.8786 66.2528 43.5202C62.208 43.1618 58.624 46.1314 58.2656 50.1762C57.856 54.221 60.8256 57.805 64.9216 58.1634C64.8704 58.1634 64.8704 58.1634 64.9216 58.1634ZM59.136 50.2786C59.4432 46.7458 62.6176 44.1346 66.1504 44.4418C69.6832 44.749 72.2944 47.9234 71.9872 51.4562C71.68 54.989 68.5056 57.6002 64.9728 57.293C61.44 56.9346 58.8288 53.8114 59.136 50.2786Z" fill="#455A64"/>
<path d="M64 35.7888L69.9392 36.352L69.9904 32.1024L64.7168 31.6416L64 35.7888Z" fill="#455A64"/>
<path d="M75.1104 38.8609L78.8992 43.4177L81.92 40.4993L78.5408 36.4033L75.1104 38.8609Z" fill="#455A64"/>
<path d="M80.7936 48.8447L80.2304 54.7839L84.48 54.8351L84.9408 49.5615L80.7936 48.8447Z" fill="#455A64"/>
<path d="M77.7216 59.9551L73.1648 63.7439L76.0832 66.8159L80.1792 63.4367L77.7216 59.9551Z" fill="#455A64"/>
<path d="M67.7376 65.6385L61.7984 65.1265L61.7472 69.3249L67.0208 69.8369L67.7376 65.6385Z" fill="#455A64"/>
<path d="M56.6272 62.6178L52.8384 58.0098L49.7664 60.9794L53.1456 65.0754L56.6272 62.6178Z" fill="#455A64"/>
<path d="M50.944 52.5822L51.5072 46.6942L47.2576 46.5918L46.7456 51.8654L50.944 52.5822Z" fill="#455A64"/>
<path d="M53.9648 41.5234L58.5728 37.6834L55.6032 34.6626L51.5584 38.0418L53.9648 41.5234Z" fill="#455A64"/>
<path d="M84.1216 76.7489C83.8656 87.0401 91.9552 95.5905 102.246 95.8465C112.538 96.1025 121.088 88.0129 121.344 77.7217C121.6 67.4305 113.51 58.8801 103.219 58.6241C92.928 58.3681 84.3776 66.4577 84.1216 76.7489ZM94.0544 77.0049C94.1568 72.1921 98.1504 68.4033 102.963 68.5057C107.776 68.6081 111.565 72.6017 111.462 77.4145C111.36 82.2273 107.366 86.0161 102.554 85.9137C97.6896 85.7601 93.9008 81.7665 94.0544 77.0049Z" fill="#C7C7C7"/>
<path d="M99.6352 59.2895L106.752 59.4943L106.496 54.4255L100.147 54.2207L99.6352 59.2895Z" fill="#C7C7C7"/>
<path d="M113.152 62.0543L118.067 67.2767L121.498 63.4879L117.094 58.8799L113.152 62.0543Z" fill="#C7C7C7"/>
<path d="M120.781 73.6255L120.627 80.7423L125.696 80.4863L125.85 74.1375L120.781 73.6255Z" fill="#C7C7C7"/>
<path d="M118.016 87.1426L112.845 92.109L116.582 95.4882L121.242 91.085L118.016 87.1426Z" fill="#C7C7C7"/>
<path d="M106.496 94.7713L99.328 94.6177L99.584 99.6865L105.933 99.8401L106.496 94.7713Z" fill="#C7C7C7"/>
<path d="M92.928 92.0066L88.0128 86.8354L84.5824 90.573L88.9856 95.2322L92.928 92.0066Z" fill="#C7C7C7"/>
<path d="M85.2992 80.4864L85.504 73.3184L80.4352 73.5744L80.2304 79.9232L85.2992 80.4864Z" fill="#C7C7C7"/>
<path d="M88.064 66.9184L93.2864 62.0032L89.4976 58.5728L84.8896 62.976L88.064 66.9184Z" fill="#C7C7C7"/>
<path d="M107.674 72.6528L101.581 70.8608L96.9728 75.2641L98.4576 81.4593L104.55 83.2513L109.158 78.8481L107.674 72.6528ZM103.014 79.0529C101.888 79.0017 101.018 78.0801 101.069 77.0049C101.12 75.8784 102.042 75.0081 103.117 75.0593C104.243 75.1105 105.114 76.0321 105.062 77.1073C105.062 78.1825 104.141 79.1041 103.014 79.0529Z" fill="#C7C7C7"/>
<path d="M160.666 224.512L163.533 204.902L164.352 205.261L165.683 205.875L171.418 208.435L176.538 210.739L179.917 212.275L185.037 214.579L187.853 215.859C189.184 216.576 189.645 218.214 188.928 219.546C188.57 220.262 187.904 220.723 187.085 220.928L185.907 221.082L184.064 221.338L178.483 222.106L174.797 222.618L169.216 223.386L166.912 223.693L160.666 224.512Z" fill="#FFC414"/>
<path opacity="0.1" d="M164.506 205.466C164.25 206.183 163.891 206.899 163.482 207.565C161.741 210.279 160.461 215.808 161.434 222.208C161.485 222.874 161.638 223.591 161.843 224.256L163.021 224.205C163.021 224.205 168.602 212.019 186.778 215.399L185.037 214.631L179.917 212.327L176.538 210.791L171.418 208.487L164.506 205.466Z" fill="black"/>
<path d="M178.483 222.106L179.917 212.327L185.037 214.631L184.064 221.338L178.483 222.106Z" fill="#EBEBEB"/>
<path d="M169.216 223.334L171.418 208.486L176.538 210.79L174.797 222.618L169.216 223.334Z" fill="#EBEBEB"/>
<path d="M110.643 224.051H91.5456L91.8016 223.232L92.2112 221.901L93.9008 216.115L95.3856 210.893L96.3584 207.463L97.8432 202.24L98.6624 199.373C99.1744 198.042 100.659 197.325 101.99 197.837C102.707 198.093 103.27 198.656 103.526 199.373L103.834 200.499L104.346 202.24L105.83 207.463L106.803 210.893L108.288 216.115L108.902 218.317L110.643 224.051Z" fill="#FFC414"/>
<path d="M111.309 228.967H86.2208L90.2656 219.085H115.354L111.309 228.967Z" fill="#FFC414"/>
<path d="M105.882 207.411H96.3584L97.8432 202.189H104.397L105.882 207.411Z" fill="#EBEBEB"/>
<path d="M108.339 216.064H93.8496L95.3344 210.842H106.854L108.339 216.064Z" fill="#EBEBEB"/>
<path d="M91.2896 222.72C92.8256 223.437 94.464 223.898 96.1024 224.205C97.7408 224.512 99.4304 224.615 101.12 224.563C101.939 224.512 102.81 224.512 103.629 224.359C104.038 224.307 104.448 224.256 104.858 224.205C105.267 224.154 105.677 224.051 106.086 224C106.291 223.949 106.496 223.949 106.701 223.898L107.315 223.744L108.544 223.437C109.363 223.232 110.182 222.925 111.002 222.72C110.234 223.079 109.466 223.437 108.646 223.744L107.418 224.154L106.803 224.359C106.598 224.41 106.394 224.461 106.189 224.512L104.96 224.819C104.55 224.922 104.09 224.973 103.68 225.024C102.81 225.127 101.99 225.229 101.12 225.28C99.3792 225.331 97.6384 225.127 95.9488 224.717C94.3616 224.359 92.7232 223.693 91.2896 222.72Z" fill="#263238"/>
<path opacity="0.1" d="M91.9552 223.027C92.7232 223.181 93.44 223.437 94.1056 223.744C96.9216 225.024 102.4 225.434 108.39 223.642C109.056 223.488 109.67 223.283 110.234 222.976L109.978 221.85C109.978 221.85 97.5872 218.266 98.304 200.448L97.792 202.189L96.3072 207.411L95.3344 210.842L93.8496 216.064L91.9552 223.027Z" fill="black"/>
<path d="M155.494 224.461L159.232 198.708L168.806 204.288L165.069 230.093L155.494 224.461Z" fill="#FFC414"/>
<path d="M165.018 214.989C164.506 219.751 162.765 223.488 161.178 223.283C159.59 223.079 158.72 219.085 159.283 214.323C159.846 209.562 161.536 205.824 163.123 206.029C164.71 206.234 165.581 210.176 165.018 214.989Z" fill="#263238"/>
<path d="M171.725 232.192C172.595 232.499 197.939 232.397 198.912 231.783C199.27 231.578 199.475 227.84 199.629 223.386C199.629 222.413 199.68 221.44 199.68 220.416C199.68 219.239 199.731 218.01 199.731 216.832C199.782 211.559 199.68 206.848 199.68 206.848H183.194V220.416L183.296 223.386C183.296 223.386 173.619 227.738 172.595 228.557C171.571 229.376 170.803 231.936 171.725 232.192Z" fill="#FFC4C0"/>
<path d="M171.725 232.192C172.595 232.499 197.939 232.397 198.912 231.782C199.27 231.578 199.475 227.84 199.629 223.386C199.629 222.413 199.68 221.44 199.68 220.416C199.68 219.238 199.731 218.01 199.731 216.832H183.194V220.416L183.296 223.386C183.296 223.386 173.619 227.738 172.595 228.557C171.571 229.376 170.803 231.936 171.725 232.192Z" fill="white"/>
<path d="M171.622 232.243C172.186 232.448 182.989 232.499 190.874 232.294C192.666 232.243 194.355 232.192 195.686 232.141C197.53 232.038 198.758 231.936 198.963 231.834C199.424 231.526 199.629 226.15 199.731 220.416H183.142L183.245 223.386C183.245 223.386 173.517 227.789 172.493 228.557C171.469 229.325 170.752 231.936 171.622 232.243Z" fill="#1A345F"/>
<path d="M171.981 231.219C176.23 231.117 193.485 231.015 197.734 231.219C197.786 231.219 197.786 231.219 197.734 231.219C193.485 231.475 176.282 231.424 171.981 231.219C171.878 231.219 171.878 231.322 171.981 231.219Z" fill="#263238"/>
<path d="M182.63 222.464C184.32 222.157 186.368 222.413 187.648 223.59C187.699 223.642 187.648 223.693 187.597 223.693C186.01 223.181 184.32 222.822 182.63 222.669C182.579 222.669 182.528 222.566 182.579 222.515C182.579 222.515 182.63 222.464 182.63 222.464Z" fill="#263238"/>
<path d="M181.453 223.232C183.142 222.925 185.19 223.181 186.47 224.358C186.522 224.41 186.47 224.461 186.419 224.461C184.832 223.949 183.142 223.59 181.453 223.437C181.402 223.437 181.35 223.386 181.402 223.283C181.35 223.283 181.402 223.232 181.453 223.232Z" fill="#263238"/>
<path d="M180.224 223.949C181.914 223.642 183.962 223.898 185.242 225.075C185.293 225.126 185.242 225.178 185.19 225.178C183.603 224.666 181.914 224.307 180.224 224.154C180.173 224.154 180.122 224.102 180.173 224C180.173 224 180.173 223.949 180.224 223.949Z" fill="#263238"/>
<path d="M178.995 224.666C180.685 224.358 182.733 224.614 184.013 225.792C184.064 225.843 184.013 225.894 183.962 225.894C182.374 225.382 180.685 225.024 178.995 224.87C178.944 224.87 178.893 224.819 178.944 224.717C178.944 224.717 178.944 224.666 178.995 224.666Z" fill="#263238"/>
<path d="M205.158 136.601C205.158 136.601 200.704 180.685 200.602 181.248C200.602 181.299 200.55 182.169 200.499 183.552C200.243 191.129 199.834 222.31 199.834 222.31H181.658C181.658 222.31 182.682 186.777 183.347 180.224C184.218 171.878 189.696 136.55 189.696 136.55L205.158 136.601Z" fill="#5B7DBD"/>
<path d="M198.4 182.835C198.963 173.261 199.782 163.738 200.96 154.214C201.574 148.838 202.394 143.514 203.11 138.189C203.11 138.138 203.213 138.138 203.162 138.189C201.728 147.712 200.755 157.286 199.885 166.861C199.014 176.435 198.4 186.01 198.042 195.584C197.837 201.011 197.632 212.941 197.478 218.368C197.478 218.419 197.427 218.47 197.376 218.47C197.325 218.47 197.325 218.419 197.274 218.368C197.581 208.691 197.837 192.512 198.4 182.835Z" fill="#455A64"/>
<path d="M182.63 219.392C183.142 219.341 183.603 219.341 184.115 219.341C184.678 219.341 185.19 219.341 185.754 219.29C186.829 219.238 187.853 219.238 188.928 219.187C191.078 219.136 193.178 219.187 195.328 219.238L197.069 219.29C197.683 219.29 198.298 219.341 198.963 219.341C199.014 219.341 199.014 219.392 198.963 219.392C197.888 219.392 196.813 219.494 195.738 219.494C194.662 219.494 193.638 219.546 192.563 219.546C190.464 219.597 188.314 219.546 186.163 219.494L184.422 219.443L183.501 219.392C183.245 219.392 182.938 219.392 182.682 219.392C182.63 219.443 182.579 219.443 182.63 219.392C182.63 219.392 182.579 219.392 182.63 219.392Z" fill="#455A64"/>
<path d="M205.158 136.601C205.158 136.601 200.704 180.685 200.602 181.248C200.602 181.299 200.55 182.17 200.499 183.552L191.898 136.55L205.158 136.601Z" fill="#455A64"/>
<path d="M200.294 232.345C201.216 232.55 226.406 229.683 227.277 228.966C227.584 228.71 227.43 224.973 227.021 220.569C226.97 219.597 222.925 204.134 222.925 204.134L205.926 205.926L210.739 222.31C210.739 222.31 201.574 227.737 200.704 228.608C199.834 229.478 199.373 232.141 200.294 232.345Z" fill="#FFC4C0"/>
<path d="M227.277 228.966C226.406 229.683 201.216 232.55 200.294 232.345C199.373 232.141 199.885 229.529 200.755 228.659C201.626 227.789 210.79 222.361 210.79 222.361L209.203 216.985L225.587 214.579C226.304 217.446 226.97 220.16 227.021 220.518C227.43 224.973 227.635 228.659 227.277 228.966Z" fill="white"/>
<path d="M200.243 232.397C200.858 232.499 211.558 231.373 219.392 230.349C221.184 230.093 222.822 229.888 224.154 229.683C225.997 229.376 227.226 229.171 227.379 229.018C227.686 228.762 227.533 224.973 227.072 220.57C226.918 219.546 226.714 218.522 226.406 217.549L210.074 219.75L210.842 222.31C210.842 222.31 201.626 227.738 200.755 228.659C199.885 229.581 199.322 232.192 200.243 232.397Z" fill="#1A345F"/>
<path d="M200.499 231.322C204.749 230.759 221.85 228.762 226.099 228.506C226.15 228.506 226.15 228.506 226.099 228.506C221.901 229.171 204.749 231.015 200.499 231.373C200.397 231.424 200.397 231.322 200.499 231.322Z" fill="#263238"/>
<path d="M210.125 221.44C211.763 220.928 213.811 220.98 215.245 222.004C215.296 222.055 215.245 222.106 215.194 222.106C213.555 221.748 211.866 221.594 210.176 221.645C210.125 221.645 210.074 221.594 210.074 221.543C210.022 221.492 210.074 221.44 210.125 221.44Z" fill="#263238"/>
<path d="M208.947 222.311C210.586 221.799 212.634 221.85 214.067 222.874C214.118 222.925 214.067 222.976 214.016 222.976C212.378 222.618 210.688 222.464 208.998 222.515C208.947 222.515 208.896 222.464 208.896 222.413C208.896 222.362 208.947 222.311 208.947 222.311Z" fill="#263238"/>
<path d="M207.872 223.181C209.51 222.669 211.558 222.72 212.992 223.744C213.043 223.795 212.992 223.846 212.941 223.846C211.302 223.488 209.613 223.334 207.923 223.385C207.872 223.385 207.821 223.334 207.821 223.283C207.821 223.232 207.821 223.181 207.872 223.181Z" fill="#263238"/>
<path d="M206.746 224.051C208.384 223.539 210.432 223.59 211.866 224.614C211.917 224.666 211.866 224.717 211.814 224.717C210.176 224.358 208.486 224.205 206.797 224.256C206.746 224.256 206.694 224.205 206.694 224.154C206.643 224.102 206.694 224.051 206.746 224.051Z" fill="#263238"/>
<path d="M189.491 136.346C189.491 136.346 190.259 141.056 192.87 144.333C193.485 145.101 195.379 145.818 196.352 146.535C196.352 146.535 199.578 181.197 200.038 186.317C200.653 193.331 208.742 222.055 208.742 222.055L227.482 218.829C227.482 218.829 219.648 189.44 218.01 182.733C217.651 181.197 214.733 149.248 214.835 148.531C215.91 140.391 212.019 135.322 212.019 135.322L189.491 136.346Z" fill="#5B7DBD"/>
<path d="M204.442 137.062C204.8 138.342 205.568 139.469 206.694 140.237C207.872 141.056 209.306 141.568 210.739 141.619C210.995 141.619 210.995 142.029 210.739 142.029C207.77 142.029 204.8 140.134 204.339 137.062C204.288 137.011 204.39 137.011 204.442 137.062Z" fill="#455A64"/>
<path d="M192.512 144.179C193.587 144.589 194.611 145.152 195.584 145.818C196.608 146.432 197.53 147.2 198.554 147.866C198.605 147.866 198.554 147.968 198.502 147.917C197.478 147.302 196.403 146.79 195.379 146.176C194.355 145.613 193.382 144.947 192.512 144.23C192.41 144.23 192.461 144.179 192.512 144.179Z" fill="#455A64"/>
<path d="M192.051 137.984C192.205 138.65 192.41 139.315 192.563 140.032C192.717 140.749 192.87 141.312 193.075 141.926C193.229 142.541 193.587 143.104 194.048 143.514C194.304 143.718 194.611 143.923 194.867 144.128C195.021 144.23 195.174 144.333 195.328 144.435C195.328 144.333 195.277 144.23 195.277 144.179L195.123 143.411C195.021 142.848 194.867 142.285 194.765 141.67C194.56 140.544 194.304 139.418 194.048 138.291V138.24H194.099C194.099 138.24 194.099 138.24 194.099 138.291C194.458 139.366 194.816 140.493 195.123 141.619C195.277 142.182 195.84 144.896 195.84 145.05C195.84 145.203 195.891 145.459 195.891 145.664C195.942 145.869 195.942 146.074 195.942 146.278C195.942 146.278 195.891 146.33 195.891 146.278C195.789 146.074 195.738 145.92 195.686 145.715C195.635 145.51 195.584 145.306 195.533 145.152C195.533 145.101 195.482 144.998 195.482 144.947C195.226 144.794 194.97 144.589 194.662 144.435C194.355 144.282 194.099 144.077 193.843 143.872C193.382 143.514 193.024 142.95 192.819 142.387C192.614 141.773 192.461 141.107 192.41 140.442C192.307 139.674 192.205 138.906 192.051 138.138C192 137.984 192.051 137.933 192.051 137.984Z" fill="#455A64"/>
<path d="M209.51 218.522C209.971 218.368 214.63 217.395 215.654 217.139C217.754 216.679 224.87 215.552 225.485 215.45C225.536 215.45 225.536 215.501 225.485 215.501C224.461 215.706 221.338 216.423 219.238 216.883C217.139 217.344 209.766 218.522 209.51 218.573C209.51 218.573 209.459 218.522 209.51 218.522Z" fill="#455A64"/>
<path d="M218.88 198.605C217.549 193.485 216.115 188.365 215.194 183.143C214.733 180.531 214.477 177.869 214.272 175.207C214.067 172.544 213.862 169.882 213.658 167.219C213.453 164.557 213.248 161.895 212.992 159.232C212.736 156.57 212.531 153.856 212.531 151.143C212.48 146.739 213.299 141.978 211.405 137.882C211.2 137.421 210.944 136.96 210.637 136.551C210.586 136.499 210.534 136.499 210.534 136.551C210.483 136.551 210.483 136.602 210.534 136.653C212.838 140.647 212.275 145.511 212.173 149.914C212.122 152.525 212.275 155.136 212.48 157.747C212.685 160.359 212.89 163.072 213.094 165.735C213.299 168.397 213.504 171.059 213.709 173.722C213.914 176.384 214.118 178.995 214.477 181.607C215.194 186.778 216.576 191.795 217.907 196.813C219.238 201.984 220.57 207.155 222.054 212.327C222.259 212.992 222.413 213.607 222.618 214.272C222.618 214.272 222.669 214.323 222.669 214.272C222.669 214.272 222.72 214.221 222.669 214.221C221.491 208.999 220.211 203.776 218.88 198.605Z" fill="#455A64"/>
<path d="M192.512 93.0814C193.894 91.5966 196.198 91.2894 198.451 91.7502C200.704 92.211 203.366 93.3886 203.571 96.9726C203.725 99.891 202.752 102.707 202.701 105.984C202.65 109.261 206.387 117.248 200.141 120.985C194.509 124.365 183.347 120.883 183.142 113.715C182.938 108.032 190.106 102.963 190.874 100.71C191.642 98.4574 190.976 94.7198 192.512 93.0814Z" fill="#263238"/>
<path d="M191.437 96.2559C191.386 97.8943 191.027 99.5327 190.362 101.017C190.157 101.427 189.952 101.734 189.645 102.093C189.389 102.4 189.082 102.707 188.774 103.014C188.16 103.629 187.597 104.192 187.034 104.806C185.907 105.984 184.986 107.366 184.269 108.851C183.552 110.336 183.194 111.923 183.091 113.51C183.04 112.691 183.091 111.872 183.194 111.053C183.347 110.233 183.552 109.465 183.91 108.697C184.576 107.161 185.498 105.728 186.675 104.55C187.238 103.936 187.853 103.321 188.467 102.758C189.082 102.246 189.645 101.581 190.054 100.915C190.464 100.198 190.72 99.4303 190.925 98.6623C191.13 97.8431 191.334 97.0751 191.437 96.2559Z" fill="#263238"/>
<path d="M203.366 99.4302C203.315 101.069 203.162 102.758 203.162 104.397C203.162 105.216 203.213 106.035 203.315 106.854C203.418 107.673 203.674 108.441 203.878 109.261C204.083 110.08 204.237 110.899 204.39 111.718C204.493 112.537 204.544 113.408 204.493 114.227C204.442 115.046 204.288 115.917 203.981 116.685C203.622 117.453 203.11 118.169 202.496 118.733C203.059 118.118 203.469 117.401 203.776 116.582C204.032 115.814 204.134 114.995 204.134 114.176C204.083 112.537 203.878 110.899 203.418 109.312C203.213 108.493 203.008 107.673 202.906 106.854C202.803 106.035 202.803 105.165 202.803 104.345C202.957 102.707 203.11 101.069 203.366 99.4302Z" fill="#263238"/>
<path d="M198.144 110.336C197.478 113.101 189.44 139.008 187.853 139.366C183.194 140.441 177.562 141.209 177.613 137.369C177.715 131.328 189.082 115.507 194.509 110.233C198.093 106.752 198.758 107.622 198.144 110.336Z" fill="#FFC4C0"/>
<path d="M187.392 117.555L195.738 119.552C195.738 119.552 198.144 111.463 198.502 109.363C198.861 107.264 197.274 107.315 194.714 109.773C192.154 112.231 187.392 117.555 187.392 117.555Z" fill="#1A345F"/>
<path d="M188.672 116.583C188.621 116.583 188.621 116.583 188.672 116.583C191.078 117.248 193.536 117.76 196.045 118.119C196.045 118.119 196.045 118.119 196.045 118.067C194.867 117.658 189.338 116.736 188.672 116.583Z" fill="#263238"/>
<path d="M190.208 127.386L188.672 140.186C188.672 140.186 209.408 139.981 214.579 139.52C214.579 139.52 209.818 115.815 204.134 109.927C201.318 107.008 198.042 107.315 196.045 109.466C195.533 110.029 189.491 118.426 188.877 121.6C188.314 124.365 190.208 127.386 190.208 127.386Z" fill="#31486F"/>
<path d="M200.755 109.056C200.653 109.466 198.502 111.975 196.659 111.77C196.045 111.719 196.301 108.391 196.301 108.391L196.25 108.135L195.738 104.653L199.936 102.349L200.55 102.042C200.55 102.042 200.653 103.015 200.704 104.192C200.704 104.244 200.704 104.295 200.704 104.346C200.704 104.397 200.704 104.5 200.704 104.551C200.704 104.756 200.755 104.909 200.755 105.114C200.755 105.319 200.755 105.37 200.755 105.524C200.755 105.677 200.755 105.831 200.755 105.984C200.858 107.008 200.858 108.032 200.755 109.056Z" fill="#FFC4C0"/>
<path d="M200.704 104.192C199.885 106.087 198.246 107.52 196.25 108.135L195.738 104.653L199.936 102.349L200.55 102.042C200.55 102.042 200.602 103.015 200.704 104.192Z" fill="#263238"/>
<path d="M190.822 98.8159C189.696 104.909 193.178 106.24 194.509 106.496C195.686 106.701 199.782 107.315 201.523 101.376C203.264 95.4367 200.806 92.9791 198.144 92.3647C195.482 91.7503 191.949 92.7743 190.822 98.8159Z" fill="#FFC4C0"/>
<path d="M192.461 97.3315C192.614 97.3315 192.768 97.3827 192.87 97.3827C193.024 97.4339 193.178 97.3827 193.331 97.3315C193.434 97.2803 193.434 97.1779 193.382 97.0755C193.28 96.9219 193.075 96.8195 192.87 96.8195C192.666 96.7683 192.461 96.8195 192.307 96.9731C192.205 97.0755 192.205 97.1779 192.256 97.2803C192.307 97.2803 192.358 97.2803 192.461 97.3315Z" fill="#263238"/>
<path d="M196.608 98.2016C196.454 98.1504 196.352 98.0992 196.198 98.048C196.045 97.9968 195.942 97.9456 195.84 97.792C195.789 97.6896 195.789 97.5872 195.891 97.536C196.045 97.4336 196.25 97.4336 196.454 97.4848C196.659 97.536 196.813 97.6896 196.915 97.8432C196.966 97.9456 196.915 98.0992 196.813 98.1504C196.71 98.2016 196.659 98.2016 196.608 98.2016Z" fill="#263238"/>
<path d="M195.43 99.584C195.43 99.584 195.43 99.6352 195.43 99.584C195.328 100.045 195.328 100.506 195.635 100.71C195.226 100.608 195.277 99.9936 195.43 99.584Z" fill="#263238"/>
<path d="M195.84 99.2256C196.506 99.2768 196.301 100.659 195.686 100.557C195.072 100.454 195.277 99.1744 195.84 99.2256Z" fill="#263238"/>
<path d="M196.096 99.3281C196.198 99.4305 196.301 99.5841 196.454 99.6353C196.608 99.6865 196.762 99.5329 196.915 99.4305C196.864 99.6865 196.762 99.9425 196.454 99.9425C196.147 99.9425 196.045 99.6865 196.045 99.4305C196.045 99.3793 196.096 99.3281 196.096 99.3281Z" fill="#263238"/>
<path d="M193.024 99.123C193.024 99.123 192.973 99.123 193.024 99.123C192.922 99.5838 192.819 100.045 192.41 100.147V100.198C192.87 100.147 193.024 99.5326 193.024 99.123Z" fill="#263238"/>
<path d="M192.717 98.6627C192.051 98.5091 191.795 99.8403 192.41 99.9939C193.024 100.148 193.28 98.7651 192.717 98.6627Z" fill="#263238"/>
<path d="M192.41 98.7136C192.307 98.7648 192.154 98.8672 192.051 98.8672C191.949 98.8672 191.795 98.6624 191.744 98.5088C191.693 98.7648 191.744 99.0208 191.949 99.1232C192.154 99.2256 192.358 99.0208 192.461 98.7648C192.512 98.7648 192.461 98.6624 192.41 98.7136Z" fill="#263238"/>
<path d="M194.918 102.963C194.816 103.066 194.714 103.219 194.56 103.219C194.406 103.219 194.253 103.168 194.099 103.117C194.099 103.117 194.048 103.117 194.099 103.117C194.202 103.271 194.458 103.373 194.662 103.322C194.816 103.271 194.97 103.117 194.97 102.912C194.97 102.963 194.918 102.963 194.918 102.963Z" fill="#263238"/>
<path d="M193.28 101.12C193.28 101.12 193.075 101.734 193.024 102.042C193.024 102.093 193.075 102.093 193.178 102.093C193.69 102.246 194.202 102.144 194.611 101.786C194.611 101.734 194.611 101.734 194.56 101.734C194.15 101.939 193.69 101.99 193.229 101.888C193.229 101.786 193.587 100.864 193.536 100.864C193.28 100.864 193.075 100.864 192.819 100.915C193.178 99.6353 193.741 98.4065 194.048 97.1777C194.048 97.1265 193.997 97.1265 193.997 97.1265C193.382 98.4065 192.87 99.7377 192.512 101.12C192.512 101.274 193.126 101.171 193.28 101.12Z" fill="#263238"/>
<path d="M193.28 102.042C193.434 102.298 193.638 102.554 193.843 102.707C193.997 102.81 194.15 102.81 194.304 102.81C194.662 102.758 194.714 102.502 194.714 102.195C194.714 102.042 194.662 101.888 194.662 101.786C194.202 102.042 193.741 102.093 193.28 102.042Z" fill="#263238"/>
<path d="M193.843 102.707C193.997 102.81 194.15 102.81 194.304 102.81C194.662 102.758 194.714 102.502 194.714 102.195C194.355 102.144 193.997 102.349 193.843 102.707Z" fill="#FF9BBC"/>
<path d="M200.448 101.684C200.448 101.684 201.984 99.8915 202.803 100.455C203.622 101.018 202.342 103.68 201.267 103.988C200.755 104.192 200.141 103.885 199.936 103.373C199.936 103.322 199.936 103.322 199.936 103.271L200.448 101.684Z" fill="#FFC4C0"/>
<path d="M202.445 101.222C202.445 101.222 202.445 101.273 202.445 101.222C201.728 101.529 201.165 102.041 200.909 102.758C201.114 102.502 201.472 102.451 201.728 102.656L201.779 102.707V102.758C201.523 102.656 201.267 102.707 201.062 102.912C200.909 103.065 200.755 103.27 200.653 103.475C200.602 103.526 200.499 103.475 200.55 103.424C200.602 102.451 201.472 101.222 202.445 101.222Z" fill="#263238"/>
<path d="M201.267 101.171C200.602 101.018 199.168 98.9697 199.526 95.7441C199.526 95.7441 199.373 98.6625 199.526 99.1233C199.68 99.5841 198.707 97.9457 199.014 95.3857C198.144 95.8465 197.171 96.2049 196.198 96.3585C194.918 96.5121 194.202 96.4097 194.099 96.3073C193.997 96.2049 195.891 95.8977 196.454 95.3857C196.454 95.3857 193.024 96.4097 191.488 96.3073C191.334 96.3073 191.59 92.7233 194.15 91.5457C196.71 90.3681 200.09 92.5185 200.96 93.5937C200.96 93.5937 202.086 93.9009 203.11 95.7953C204.134 97.6897 201.984 101.325 201.267 101.171Z" fill="#263238"/>
<path d="M177.101 107.674L182.016 105.677C183.962 104.858 186.163 105.83 186.982 107.776L199.731 138.906L187.802 143.77L175.053 112.64C174.285 110.694 175.206 108.493 177.101 107.674Z" fill="#455A64"/>
<path d="M197.758 139.64L189.704 142.94L191.004 146.114L199.058 142.814L197.758 139.64Z" fill="#455A64"/>
<path d="M196.306 143.977L193.748 145.025L207.82 179.372L210.378 178.324L196.306 143.977Z" fill="#EBEBEB"/>
<path d="M212.941 180.839C212.941 180.839 213.555 186.778 213.35 186.829L212.48 187.187L211.661 187.546C211.507 187.597 207.77 182.989 207.77 182.989L207.872 179.456L210.432 178.432L212.941 180.839Z" fill="#EBEBEB"/>
<path d="M178.647 112.321L176.562 113.175L187.529 139.942L189.614 139.088L178.647 112.321Z" fill="#263238"/>
<path d="M182.537 110.728L180.452 111.583L191.419 138.35L193.503 137.496L182.537 110.728Z" fill="#263238"/>
<path d="M186.376 109.151L184.291 110.005L195.258 136.772L197.342 135.918L186.376 109.151Z" fill="#263238"/>
<path d="M195.123 124.775C195.584 125.235 195.686 125.952 195.43 126.567C195.942 126.669 196.454 126.976 196.762 127.386C197.325 128.154 196.352 129.383 196.352 129.383C196.864 129.587 197.325 129.997 197.632 130.509C198.093 131.328 197.274 132.711 197.274 132.711C197.632 133.171 197.837 133.786 197.786 134.4C197.632 136.039 195.43 137.114 193.997 137.831C192.563 138.547 187.904 139.264 187.034 139.52L182.323 130.509C182.323 130.509 187.699 125.491 189.491 124.877C191.078 124.365 194.253 123.955 195.123 124.775Z" fill="#FFC4C0"/>
<path d="M183.04 129.946C181.453 131.175 176.589 135.936 177.715 138.394C178.842 140.851 182.733 140.544 188.109 139.315L183.04 129.946Z" fill="#FFC4C0"/>
<path d="M195.277 126.464C193.536 126.617 191.949 127.283 190.362 127.897C190.31 127.897 190.362 127.949 190.362 127.949C191.949 127.334 193.638 127.078 195.277 126.566C195.328 126.515 195.328 126.515 195.277 126.464C195.328 126.464 195.328 126.464 195.277 126.464Z" fill="#263238"/>
<path d="M196.301 129.331C195.891 129.382 195.533 129.536 195.174 129.689C194.765 129.843 194.406 129.997 194.048 130.201C193.28 130.56 192.512 130.918 191.795 131.277C191.744 131.277 191.795 131.328 191.795 131.328C192.563 130.969 193.331 130.662 194.099 130.355L195.277 129.894C195.635 129.792 195.994 129.638 196.352 129.433C196.403 129.433 196.403 129.382 196.403 129.382L196.301 129.331Z" fill="#263238"/>
<path d="M197.325 132.71C196.966 132.762 196.659 132.915 196.352 133.12L195.328 133.632C194.611 133.939 193.946 134.246 193.229 134.554C193.178 134.554 193.229 134.605 193.229 134.605C193.946 134.298 194.662 134.042 195.379 133.734L196.403 133.274C196.71 133.171 197.018 132.966 197.325 132.71C197.325 132.71 197.274 132.762 197.325 132.71Z" fill="#263238"/>
<path d="M182.835 130.048C182.272 130.458 181.709 130.919 181.248 131.431L180.89 131.84L180.736 131.943C180.531 132.096 180.275 132.25 180.07 132.403C179.661 132.762 179.251 133.12 178.893 133.479C178.893 133.53 178.893 133.53 178.944 133.53C179.354 133.171 179.763 132.813 180.173 132.506L180.326 132.403C180.122 132.659 179.917 132.864 179.712 133.12C179.2 133.786 178.739 134.451 178.278 135.168V135.219C178.278 135.219 178.278 135.219 178.33 135.219C179.098 133.939 182.528 130.56 182.938 130.202C183.347 129.843 183.142 129.792 182.835 130.048Z" fill="#263238"/>
<path d="M205.056 110.183C210.893 115.559 215.859 125.901 215.859 128.461C215.859 131.687 210.637 147.2 207.974 149.965C206.95 151.04 197.939 143.565 199.014 142.387C200.858 140.493 206.08 128.051 206.131 127.181C206.182 126.618 203.52 118.119 201.779 113.459C199.373 107.008 203.315 108.544 205.056 110.183Z" fill="#FFC4C0"/>
<path d="M189.542 155.546C190.054 155.904 190.669 156.109 191.334 156.058C191.334 156.672 191.539 157.286 191.949 157.798C192.666 158.618 194.304 157.85 194.304 157.85C194.406 158.515 194.765 159.13 195.226 159.59C195.994 160.307 197.786 159.744 197.786 159.744C198.246 160.307 198.861 160.666 199.578 160.768C201.421 161.024 203.264 158.771 204.442 157.389C205.619 156.006 207.616 150.886 208.077 149.965L199.117 142.387C199.117 142.387 192.102 147.2 190.976 149.043C189.952 150.63 188.314 154.624 189.542 155.546Z" fill="#FFC4C0"/>
<path d="M191.283 156.058C192 154.164 192.922 152.372 194.048 150.733C194.048 150.682 194.15 150.733 194.099 150.784C193.024 152.423 192.358 154.42 191.386 156.109C191.386 156.109 191.334 156.16 191.334 156.109C191.334 156.058 191.283 156.058 191.283 156.058Z" fill="#263238"/>
<path d="M194.202 157.747C194.406 157.338 194.611 156.928 194.918 156.57C195.174 156.16 195.482 155.802 195.789 155.392C196.352 154.624 196.966 153.856 197.581 153.139C197.581 153.088 197.683 153.139 197.632 153.191C197.069 153.959 196.506 154.727 195.942 155.546C195.686 155.955 195.379 156.365 195.123 156.723C194.918 157.133 194.611 157.491 194.304 157.799C194.253 157.799 194.202 157.799 194.202 157.799C194.202 157.799 194.202 157.747 194.202 157.747Z" fill="#263238"/>
<path d="M197.786 159.744C197.939 159.386 198.195 159.027 198.502 158.72L199.322 157.696C199.834 156.979 200.397 156.314 200.909 155.597C200.909 155.546 201.011 155.597 200.96 155.648C200.448 156.365 199.936 157.133 199.424 157.85C199.168 158.208 198.912 158.567 198.656 158.925C198.4 159.232 198.144 159.539 197.786 159.744Z" fill="#263238"/>
<path d="M204.134 120.934L212.326 117.299C212.326 117.299 207.872 111.565 204.39 109.517C200.909 107.469 200.448 109.363 201.165 112.23C201.882 115.098 204.134 120.934 204.134 120.934Z" fill="#1A345F"/>
<path d="M204.186 119.296C204.134 119.347 204.134 119.347 204.186 119.347C206.541 118.477 208.845 117.453 211.046 116.275C211.046 116.275 211.046 116.224 211.046 116.275C209.818 116.582 204.749 119.04 204.186 119.296Z" fill="#263238"/>
<path d="M201.779 114.432C202.496 116.634 203.315 118.938 204.083 121.037C204.083 121.088 204.442 120.832 204.544 120.781C204.595 120.73 204.544 120.73 204.493 120.73C204.39 120.781 204.288 120.832 204.186 120.832C203.418 118.682 202.65 116.583 201.779 114.432Z" fill="#263238"/>
<path d="M77.9776 204.185C77.056 204.493 51.1488 203.929 50.176 203.264C49.8176 203.008 49.664 199.219 49.6128 194.662C49.6128 193.689 49.6128 192.665 49.6128 191.641C49.6128 190.413 49.6128 189.184 49.6128 187.955C49.664 182.528 49.8688 177.766 49.8688 177.766L66.7136 178.073L66.56 188.262L66.5088 191.949L66.3552 194.969C66.3552 194.969 76.1856 199.629 77.1584 200.448C78.1312 201.267 78.848 203.878 77.9776 204.185Z" fill="#D3766A"/>
<path d="M77.9776 204.185C77.056 204.493 51.1488 203.93 50.176 203.264C49.8176 203.008 49.664 199.219 49.6128 194.662C49.6128 193.689 49.6128 192.665 49.6128 191.641C49.6128 190.413 49.6128 189.184 49.6128 187.955L66.5088 188.262L66.4576 191.949L66.304 194.969C66.304 194.969 76.1344 199.629 77.1072 200.448C78.08 201.267 78.848 203.878 77.9776 204.185Z" fill="white"/>
<path d="M78.0288 204.237C77.4144 204.442 66.4064 204.237 58.368 203.93C56.5248 203.878 54.784 203.776 53.4528 203.674C51.5584 203.571 50.2784 203.418 50.0736 203.264C49.6128 202.957 49.5104 197.427 49.5104 191.59L66.4576 191.898L66.304 194.97C66.304 194.97 76.1856 199.629 77.1584 200.448C78.1312 201.267 78.9504 203.93 78.0288 204.237Z" fill="#1A345F"/>
<path d="M77.6704 203.161C73.3184 202.957 55.7056 202.547 51.3536 202.701C51.3024 202.701 51.3024 202.701 51.3536 202.701C55.6544 203.008 73.3184 203.264 77.6704 203.213C77.7728 203.264 77.7728 203.161 77.6704 203.161Z" fill="#263238"/>
<path d="M66.9696 193.997C65.28 193.639 63.1296 193.843 61.7984 195.072C61.7472 195.123 61.7984 195.174 61.8496 195.174C63.488 194.663 65.2288 194.355 66.9184 194.253C66.9696 194.253 67.0208 194.202 67.0208 194.151C67.0208 194.099 67.0208 193.997 66.9696 193.997Z" fill="#263238"/>
<path d="M68.1984 194.765C66.4576 194.407 64.3584 194.611 63.0272 195.84C62.976 195.891 63.0272 195.943 63.0784 195.943C64.7168 195.431 66.4064 195.123 68.1472 194.97C68.1984 194.97 68.2496 194.919 68.2496 194.867C68.2496 194.816 68.2496 194.765 68.1984 194.765Z" fill="#263238"/>
<path d="M69.4273 195.584C67.7377 195.225 65.5872 195.43 64.256 196.659C64.2048 196.71 64.256 196.761 64.3072 196.761C65.9456 196.249 67.6865 195.942 69.3761 195.84C69.4273 195.84 69.4785 195.789 69.4785 195.686C69.4785 195.635 69.4785 195.584 69.4273 195.584Z" fill="#263238"/>
<path d="M70.656 196.352C68.9664 195.993 66.816 196.198 65.4848 197.427C65.4336 197.478 65.4848 197.529 65.536 197.529C67.1744 197.017 68.9152 196.71 70.6048 196.608C70.656 196.608 70.7072 196.557 70.7072 196.454C70.7072 196.403 70.7072 196.352 70.656 196.352Z" fill="#263238"/>
<path d="M70.2464 190.106C69.5808 189.184 68.3008 189.543 67.584 190.157C66.3552 191.181 65.4336 192.512 64.8704 194.048V194.099C64.8704 194.202 64.9728 194.355 65.1264 194.304C66.56 193.792 68.1472 193.434 69.376 192.512C70.144 192 70.8608 190.976 70.2464 190.106ZM67.1744 193.127C66.4576 193.383 65.792 193.587 65.0752 193.895C65.6384 193.127 66.0992 192.359 66.7136 191.642C67.0208 191.283 67.328 190.976 67.6352 190.669C68.1472 190.208 70.1952 189.287 69.888 191.13C69.6832 192.205 67.9936 192.819 67.1744 193.127Z" fill="#263238"/>
<path d="M60.5184 193.485C61.9008 194.099 63.5392 194.099 65.024 194.304C65.1264 194.304 65.2288 194.201 65.2288 194.099V194.048V193.997C64.3584 192.665 63.1808 191.539 61.7472 190.771C60.928 190.361 59.5968 190.259 59.136 191.283C58.6752 192.307 59.6992 193.126 60.5184 193.485ZM59.7504 192.256C59.0336 190.515 61.2352 190.976 61.7984 191.334C62.208 191.539 62.5664 191.795 62.9248 192.102C63.6416 192.665 64.3584 193.28 65.024 193.945C64.3072 193.792 63.5392 193.741 62.8224 193.638C61.952 193.433 60.16 193.229 59.7504 192.256Z" fill="#263238"/>
<path opacity="0.2" d="M64.7681 204.134C62.6176 204.083 60.3648 204.032 58.368 203.93C56.5248 203.878 54.784 203.776 53.4528 203.674C51.5584 203.571 50.2784 203.418 50.0736 203.264C49.664 203.008 49.5616 198.707 49.5104 193.741C53.4016 196.352 60.928 201.472 64.7681 204.134Z" fill="black"/>
<path d="M67.9936 194.765H48.7424C48.7424 194.765 49.8176 151.45 49.6128 150.426C49.1008 148.019 38.1952 109.824 38.1952 109.824L53.4016 110.08L58.5728 110.183C58.5728 110.183 58.112 116.531 58.3168 117.197C60.8768 126.464 65.8432 142.285 66.816 148.173C68.5568 158.362 67.9936 194.765 67.9936 194.765Z" fill="#5B7DBD"/>
<path d="M67.3792 191.539C64.3584 191.488 53.76 191.129 49.7664 191.437C49.7664 191.437 49.7152 191.437 49.7152 191.488C49.7152 191.488 49.7152 191.539 49.7664 191.539C51.1488 191.744 64.4096 191.693 67.3792 191.641C67.3792 191.641 67.4304 191.641 67.3792 191.539C67.3792 191.539 67.4304 191.59 67.3792 191.539Z" fill="#37474F"/>
<path d="M51.0976 149.504C50.5344 147.149 46.2336 132.557 44.9024 127.949C43.5712 123.341 42.3424 118.733 41.216 114.074C41.0624 113.51 40.9088 112.896 40.7552 112.333C40.7552 112.282 40.6528 112.282 40.6528 112.333C41.0624 114.688 41.6768 116.992 42.1888 119.296C42.7008 121.6 43.3152 123.904 43.9296 126.208C45.1584 130.816 46.5408 135.424 47.9744 139.981C48.6912 142.234 49.92 146.893 50.5856 149.197C51.2512 151.501 50.176 189.235 50.2272 189.85C50.2272 189.901 50.2784 190.003 50.3808 190.003C50.432 190.003 50.5344 189.952 50.5344 189.85C50.7392 185.446 51.6608 151.808 51.0976 149.504Z" fill="#37474F"/>
<path d="M53.3504 110.131C53.3504 110.131 49.6128 150.681 49.6128 150.477C49.152 148.173 38.8608 112.23 38.1952 109.977L38.144 109.875L53.3504 110.131Z" fill="#37474F"/>
<path d="M58.0096 206.387C57.088 206.643 31.1808 206.131 30.208 205.466C29.8496 205.21 29.696 201.421 29.6448 196.864C29.6448 195.891 29.6448 194.867 29.6448 193.843C29.6448 192.615 29.6448 191.386 29.6448 190.157C29.696 184.73 29.9008 179.968 29.9008 179.968L46.7456 180.275L46.592 190.464L46.5408 194.151L46.3872 197.171C46.3872 197.171 56.2176 201.831 57.1904 202.65C58.1632 203.469 58.9312 206.131 58.0096 206.387Z" fill="#D3766A"/>
<path d="M58.0096 206.387C57.088 206.643 31.1808 206.131 30.208 205.466C29.8496 205.21 29.696 201.421 29.6448 196.864C29.6448 195.891 29.6448 194.867 29.6448 193.843C29.6448 192.614 29.6448 191.386 29.6448 190.157L46.5408 190.464L46.4896 194.15L46.336 197.171C46.336 197.171 56.1664 201.83 57.1392 202.65C58.112 203.469 58.9312 206.131 58.0096 206.387Z" fill="white"/>
<path d="M58.0608 206.438C57.4464 206.643 46.4384 206.438 38.4 206.131C36.5568 206.08 34.816 205.978 33.4848 205.875C31.5904 205.773 30.3104 205.619 30.1056 205.466C29.6448 205.158 29.5424 199.629 29.5424 193.792L46.4896 194.099L46.336 197.171C46.336 197.171 56.2176 201.83 57.1904 202.701C58.1632 203.571 58.9824 206.131 58.0608 206.438Z" fill="#1A345F"/>
<path d="M57.7536 205.363C53.4016 205.158 35.7888 204.749 31.4368 204.902C31.3856 204.902 31.3856 204.902 31.4368 204.902C35.7376 205.21 53.4016 205.466 57.7536 205.414C57.8048 205.466 57.8048 205.363 57.7536 205.363Z" fill="#263238"/>
<path d="M47.0016 196.249C45.312 195.891 43.2128 196.096 41.8304 197.325C41.7792 197.376 41.8304 197.427 41.8816 197.427C43.52 196.915 45.2608 196.608 46.9504 196.505C47.0016 196.505 47.0528 196.454 47.0528 196.352C47.104 196.301 47.0528 196.249 47.0016 196.249Z" fill="#263238"/>
<path d="M48.2304 197.017C46.5408 196.659 44.4416 196.864 43.0592 198.093C43.008 198.144 43.0592 198.195 43.1104 198.195C44.7488 197.683 46.4896 197.376 48.1792 197.273C48.2304 197.273 48.2816 197.222 48.2816 197.171C48.3328 197.069 48.2816 197.017 48.2304 197.017Z" fill="#263238"/>
<path d="M49.4592 197.785C47.7696 197.427 45.6192 197.632 44.288 198.861C44.2368 198.912 44.288 198.963 44.3392 198.963C45.9776 198.451 47.7184 198.144 49.408 198.041C49.4592 198.041 49.5104 197.99 49.5104 197.939C49.5104 197.888 49.5104 197.785 49.4592 197.785Z" fill="#263238"/>
<path d="M50.688 198.554C48.9984 198.195 46.848 198.4 45.5168 199.629C45.4656 199.68 45.5168 199.731 45.568 199.731C47.2064 199.219 48.9472 198.912 50.6368 198.81C50.688 198.81 50.7392 198.758 50.7392 198.707C50.7904 198.605 50.7392 198.554 50.688 198.554Z" fill="#263238"/>
<path d="M50.2784 192.307C49.6128 191.335 48.3328 191.744 47.616 192.359C46.3872 193.383 45.4656 194.714 44.9024 196.25V196.301C44.9024 196.455 45.0048 196.557 45.1584 196.506C46.592 195.994 48.1792 195.687 49.408 194.714C50.176 194.202 50.8928 193.229 50.2784 192.307ZM47.2064 195.328C46.4896 195.584 45.824 195.84 45.1072 196.096C45.6192 195.328 46.1824 194.56 46.7456 193.843C47.0528 193.485 47.36 193.178 47.6672 192.871C48.1792 192.41 50.2272 191.488 49.8688 193.331C49.7152 194.407 48.0256 195.021 47.2064 195.328Z" fill="#263238"/>
<path d="M40.5504 195.686C41.9328 196.301 43.5712 196.301 45.056 196.505C45.1584 196.505 45.2608 196.403 45.2608 196.301V196.249V196.198C44.3904 194.867 43.2128 193.741 41.7792 192.973C40.96 192.563 39.6288 192.461 39.168 193.485C38.7072 194.509 39.7312 195.328 40.5504 195.686ZM39.7824 194.457C39.0656 192.665 41.2672 193.177 41.8304 193.536C42.24 193.741 42.5984 193.997 42.9568 194.304C43.6736 194.867 44.3904 195.481 45.056 196.147C44.3392 195.993 43.5712 195.942 42.8544 195.84C41.984 195.635 40.192 195.43 39.7824 194.457Z" fill="#263238"/>
<path d="M47.5136 196.711L28.8256 196.352C28.8256 196.352 34.048 128.973 33.4336 125.44C32.3584 119.603 33.28 112.947 36.096 109.773L54.272 110.131C54.272 110.131 54.528 115.251 52.5824 118.272C52.5824 118.272 50.8416 119.347 50.0224 119.757L47.5136 196.711Z" fill="#5B7DBD"/>
<path d="M47.0016 193.433C44.1856 193.331 45.0048 193.28 42.1376 193.229C40.7552 193.177 31.6416 192.87 30.3616 193.075V193.126C31.6416 193.382 40.7552 193.536 42.1376 193.536C44.9536 193.587 44.1856 193.536 47.0016 193.536C47.0528 193.485 47.0528 193.433 47.0016 193.433Z" fill="#37474F"/>
<path d="M53.76 117.452C51.968 118.272 50.2272 119.244 48.5888 120.371C48.5888 120.371 48.5888 120.422 48.5888 120.473H48.64C50.3808 119.552 52.1728 118.63 53.8624 117.657C53.9136 117.657 53.9648 117.555 53.9136 117.504C53.9136 117.452 53.8624 117.401 53.76 117.452Z" fill="#37474F"/>
<path d="M51.456 117.145C51.3536 117.504 51.2512 117.862 51.2 118.221C51.0976 118.477 51.0976 118.784 51.1488 119.091C51.1488 119.142 51.2 119.142 51.2512 119.142C51.2512 119.142 51.2512 119.142 51.3024 119.091C51.456 118.835 51.5584 118.528 51.6096 118.221C51.712 117.913 51.8144 117.555 51.8656 117.248C51.8656 117.145 51.7632 117.043 51.6608 117.043C51.5072 117.043 51.456 117.094 51.456 117.145Z" fill="#37474F"/>
<path d="M51.3024 115.405C51.3536 115.097 51.4048 114.79 51.456 114.483C51.5072 114.176 51.6096 113.869 51.6608 113.561C51.6608 113.51 51.7632 113.51 51.7632 113.561C51.712 113.869 51.712 114.176 51.6608 114.483C51.6096 114.79 51.6096 115.097 51.5584 115.405C51.5072 115.968 51.4048 116.531 51.2512 117.145C51.5584 117.094 51.8656 116.992 52.1216 116.838C52.3776 116.582 52.5312 116.275 52.5824 115.968C52.6848 115.609 52.736 115.251 52.8384 114.944C52.992 114.585 53.0432 114.176 53.1456 113.766C53.1456 113.715 53.248 113.715 53.248 113.766C53.1456 114.585 52.992 115.405 52.736 116.224C52.6848 116.531 52.5312 116.838 52.2752 117.043C51.968 117.197 51.6096 117.299 51.2512 117.35C51.2 117.35 51.1488 117.35 51.1488 117.299C51.1488 116.582 51.2 116.019 51.3024 115.405Z" fill="#37474F"/>
<path d="M36.4032 125.286C36.3008 123.955 36.096 122.624 35.9936 121.293C35.7888 118.63 35.9936 115.917 36.608 113.306C36.608 113.306 36.608 113.254 36.5568 113.254C36.5568 113.254 36.5056 113.254 36.5056 113.306C35.9424 115.61 35.6352 117.965 35.6352 120.32C35.6864 122.675 36.096 125.03 36.096 127.386C36.096 129.741 35.84 132.147 35.6352 134.554C35.4304 136.96 35.2256 139.366 35.0208 141.773C34.2016 151.398 33.4848 161.075 32.7168 170.701C32.512 173.414 32.3072 176.077 32.1024 178.79C31.8976 181.504 31.5904 188.262 31.4368 191.027C31.4368 191.283 31.7952 191.232 31.7952 191.027C32.3072 186.163 32.7168 177.306 33.0752 172.493C33.4848 167.629 33.8432 162.918 34.2016 158.106C34.56 153.293 34.9696 148.531 35.328 143.718C35.5328 141.312 35.6864 138.906 35.8912 136.499C36.096 134.093 36.3008 131.738 36.4032 129.331C36.5056 127.949 36.4544 126.618 36.4032 125.286Z" fill="#37474F"/>
<path d="M43.0592 113.254C43.0592 113.203 43.008 113.203 43.008 113.254C42.9056 113.561 42.8032 113.92 42.8032 114.227C42.752 114.585 42.6496 114.893 42.5472 115.251C42.3424 115.968 41.9328 116.582 41.4208 117.094C40.2432 118.118 38.7072 118.528 37.2224 118.835C37.1712 118.835 37.1712 118.937 37.2224 118.937C38.0928 118.989 38.9632 118.886 39.7824 118.579C40.4992 118.374 41.216 118.016 41.7792 117.504C42.3424 116.992 42.7008 116.326 42.9056 115.558C43.008 115.149 43.0592 114.79 43.0592 114.381C43.0592 114.176 43.0592 114.022 43.0592 113.817C43.0592 113.613 43.0592 113.408 43.0592 113.254Z" fill="#37474F"/>
<path d="M53.8112 84.9918C56.5248 93.7982 62.1056 102.349 63.7952 103.526C66.4576 105.318 79.0528 106.905 83.1488 106.393C84.48 106.24 84.0192 96.819 82.7392 96.051C81.4592 95.283 69.2736 95.1294 68.4544 94.8222C67.9936 94.6686 61.4912 87.1422 57.8048 83.1998C54.4256 79.5134 52.9408 82.2782 53.8112 84.9918Z" fill="#D3766A"/>
<path d="M63.3856 88.832L56.3712 94.464C56.3712 94.464 53.2992 87.8592 53.0944 83.8656C52.8896 79.872 54.7328 80.3328 56.9856 82.2272C59.2384 84.1216 63.3856 88.832 63.3856 88.832Z" fill="#1A345F"/>
<path d="M62.1568 88.0125C62.208 87.9613 62.1568 87.9613 62.1568 88.0125C60.1088 89.3949 58.1632 90.9821 56.2688 92.6717L62.1568 88.0125ZM56.2688 92.7229C57.344 92.1085 61.6448 88.4221 62.1568 88.0125L56.2688 92.7229Z" fill="#263238"/>
<path d="M33.0752 111.872C33.1264 111.974 59.5456 117.248 59.8528 117.043C60.2624 116.736 60.7744 89.3951 57.6 82.8415C56.7808 81.2031 53.248 79.5135 51.4048 80.7423C46.08 84.1727 44.4416 87.5519 42.752 90.2655C41.0112 93.2351 39.4752 96.2559 38.0928 99.3791C35.3792 105.37 32.9216 111.616 33.0752 111.872Z" fill="#31486F"/>
<path d="M60.3136 110.029L57.9072 109.568C57.9072 108.902 57.9072 108.186 57.9072 107.52L60.3136 107.981C60.3136 108.698 60.3136 109.363 60.3136 110.029Z" fill="#EBEBEB"/>
<path d="M60.2624 113.664L57.8048 113.203C57.8048 112.589 57.8048 111.872 57.856 111.155L60.3136 111.616C60.2624 112.333 60.2624 113.05 60.2624 113.664Z" fill="#EBEBEB"/>
<path d="M88.576 73.2162C92.1088 69.8882 97.1776 68.8642 101.683 70.5538L94.1056 77.7218L96.512 83.2002L101.837 85.9138L109.414 78.7458C111.462 85.453 107.725 92.5698 100.966 94.669C94.2592 96.717 87.1424 92.9794 85.0432 86.221C83.712 81.5618 85.0432 76.5442 88.576 73.2162Z" fill="#455A64"/>
<path d="M52.8896 141.875C49.3568 145.203 44.288 146.227 39.7824 144.537L47.36 137.369L44.9536 131.891L39.6288 129.126L32.0512 136.294C30.0032 129.587 33.792 122.47 40.4992 120.422C47.2064 118.374 54.3232 122.163 56.3712 128.87C57.7536 133.58 56.4224 138.598 52.8896 141.875Z" fill="#455A64"/>
<path d="M90.3739 81.1863L45.3969 123.646L53.1647 131.874L98.1417 89.4147L90.3739 81.1863Z" fill="#455A64"/>
<path d="M79.4445 96.0828L60.9026 113.587L64.1012 116.975L82.643 99.471L79.4445 96.0828Z" fill="#37474F"/>
<path d="M46.592 86.5278C43.9296 93.2862 43.6224 103.373 46.08 106.291C49.9712 110.899 57.0368 115.046 60.5184 116.07C62.5152 116.685 65.6384 105.165 63.8976 104.55C61.1328 103.577 54.528 100.864 53.6064 100.249C52.6848 99.635 52.0192 92.5182 51.1488 87.2958C50.176 81.5102 47.9232 83.0462 46.592 86.5278Z" fill="#D3766A"/>
<path d="M59.5968 115.661C65.5872 118.118 72.6528 117.248 73.8304 116.838C74.8032 116.48 75.3152 116.326 75.3152 116.326C77.1072 115.763 77.568 114.739 77.568 114.739C77.568 114.739 79.8208 114.688 80.0256 113.305C80.2304 111.769 77.0048 112.179 75.1104 111.257C70.7584 109.261 65.0752 105.216 63.8464 104.499L59.5968 115.661Z" fill="#D3766A"/>
<path d="M69.0688 112.384C70.3488 112.998 71.6288 113.51 73.0112 113.92C74.496 114.278 76.032 114.534 77.568 114.688C77.568 114.688 77.6192 114.739 77.568 114.739C74.5472 114.79 71.6288 114.022 69.0176 112.486C68.9664 112.435 69.0176 112.333 69.0688 112.384Z" fill="#263238"/>
<path d="M67.4816 114.842C69.9904 115.763 72.6528 116.275 75.3664 116.275L67.4816 114.842ZM75.3664 116.275C72.6528 116.583 69.9392 116.122 67.4304 114.944C67.3792 114.893 67.3792 114.791 67.4816 114.791L75.3664 116.275Z" fill="#263238"/>
<path d="M69.9904 108.493C69.5296 108.032 69.7856 107.776 70.9632 107.929C72.1408 108.083 76.6976 109.773 77.1584 108.134C77.6192 106.496 71.1168 104.243 69.1712 104.141C67.4304 104.141 65.6384 104.243 63.8976 104.499C65.0752 105.165 67.7376 107.11 69.9904 108.493Z" fill="#D3766A"/>
<path d="M52.6336 94.8221L43.6736 95.5389C43.6736 95.5389 44.8512 88.3709 46.9504 84.9405C49.0496 81.5101 50.3296 82.9437 51.0976 85.8109C51.8656 88.6781 52.6336 94.8221 52.6336 94.8221Z" fill="#1A345F"/>
<path d="M52.0704 93.4402C52.1216 93.4402 52.1728 93.389 52.0704 93.4402C49.5616 93.4402 47.0528 93.645 44.544 94.0034V94.0546C45.824 94.1058 51.456 93.4914 52.0704 93.4402Z" fill="#263238"/>
<path d="M55.4496 85.2478C54.3232 85.2478 52.0192 83.0974 51.1488 81.2542C51.0976 81.1518 51.3536 79.8718 51.5584 78.3358C51.712 77.4142 51.8144 76.339 51.9168 75.3662L57.9072 77.1582C57.4976 78.3358 57.2416 79.5646 57.088 80.8446C57.088 80.9982 57.088 81.1006 57.088 81.2542V81.3054C57.1904 82.0734 57.1904 85.1966 55.4496 85.2478Z" fill="#D3766A"/>
<path d="M57.088 81.2544V81.3056C56.8832 81.3056 56.6784 81.3056 56.4736 81.3056C52.9408 81.0496 52.3264 76.6464 52.224 75.4688L57.856 77.1584C57.4464 78.336 57.1904 79.5648 57.0368 80.8448C57.088 80.9984 57.088 81.1008 57.088 81.2544Z" fill="#263238"/>
<path d="M52.224 67.1231C51.2 69.1199 51.2 75.4687 52.48 77.1071C54.3232 79.4623 57.856 80.2815 60.0064 77.9775C62.1568 75.6735 61.9008 67.4815 60.4672 65.8943C58.3168 63.6415 53.76 64.1535 52.224 67.1231Z" fill="#D3766A"/>
<path d="M57.9584 71.7822C57.9584 71.7822 57.9072 71.7822 57.9584 71.7822C57.9584 72.243 57.9072 72.755 57.5488 72.9086C58.0096 72.8574 58.0608 72.1918 57.9584 71.7822Z" fill="#263238"/>
<path d="M57.5488 71.373C56.8832 71.373 56.8832 72.7043 57.4976 72.7555C58.112 72.8067 58.112 71.373 57.5488 71.373Z" fill="#263238"/>
<path d="M60.2112 71.731C60.2112 71.731 60.2624 71.731 60.2112 71.731C60.2624 72.1918 60.2624 72.7038 60.672 72.8062V72.8574C60.2112 72.755 60.1088 72.1406 60.2112 71.731Z" fill="#263238"/>
<path d="M60.5696 71.2704C61.2352 71.2192 61.2864 72.6016 60.672 72.6528C60.0576 72.704 60.0064 71.3216 60.5696 71.2704Z" fill="#263238"/>
<path d="M56.9856 70.7581C57.1392 70.7069 57.344 70.6557 57.4976 70.5533C57.7024 70.5021 57.856 70.3997 58.0096 70.2461C58.0608 70.1437 58.0608 69.9901 57.9584 69.8877C57.7536 69.7341 57.4464 69.7341 57.2416 69.8365C56.9856 69.8877 56.7808 70.0925 56.6272 70.2973C56.5248 70.4509 56.576 70.6557 56.7296 70.7069C56.832 70.7581 56.9344 70.7581 56.9856 70.7581Z" fill="#263238"/>
<path d="M61.0816 70.7582C60.8768 70.707 60.7232 70.6558 60.5184 70.6046C60.3136 70.5534 60.16 70.5022 60.0064 70.3486C59.904 70.2462 59.904 70.0926 60.0064 69.9902C60.2112 69.8366 60.4672 69.7854 60.7232 69.8366C60.9792 69.8878 61.2352 70.0414 61.3888 70.2462C61.4912 70.3998 61.44 70.6046 61.2864 70.6558C61.2352 70.707 61.1328 70.7582 61.0816 70.7582Z" fill="#263238"/>
<path d="M57.2928 75.7759C57.3952 75.8783 57.4976 76.0319 57.6512 76.0319C57.8048 76.0319 57.9584 75.9807 58.112 75.9295C58.112 75.9295 58.1632 75.9295 58.112 75.9295C58.0096 76.0831 57.8048 76.1855 57.5488 76.1855C57.3952 76.1343 57.2416 75.9807 57.1904 75.8271C57.2416 75.7759 57.2928 75.7759 57.2928 75.7759Z" fill="#263238"/>
<path d="M57.7536 74.496C57.9584 74.8544 58.3168 75.0592 58.7264 75.1616C58.88 75.1616 59.0848 75.1616 59.2384 75.1616H59.3408H59.4432C59.4944 75.1616 59.5456 75.1104 59.5456 75.0592V75.008V74.9568C59.5456 74.6496 59.4944 74.1376 59.4944 74.1376C59.5968 74.1888 60.2112 74.4448 60.2112 74.2912C60.16 72.8064 59.9552 71.3216 59.648 69.888C59.648 69.888 59.5968 69.8368 59.5968 69.888C59.648 71.2704 59.904 72.6016 59.9552 73.984C59.7504 73.8816 59.4944 73.8304 59.2896 73.7792C59.2384 73.7792 59.392 74.752 59.3408 74.9056C58.7776 74.9568 58.2144 74.8032 57.7536 74.496C57.7536 74.4448 57.7536 74.4448 57.7536 74.496Z" fill="#263238"/>
<path d="M59.0336 75.0081C58.8288 75.2129 58.624 75.4177 58.368 75.5201C58.2144 75.5713 58.0608 75.5713 57.9072 75.5713C57.5488 75.4689 57.5488 75.1617 57.6 74.9057C57.6512 74.7521 57.7024 74.6497 57.7536 74.4961C58.112 74.8033 58.5728 74.9569 59.0336 75.0081Z" fill="#263238"/>
<path d="M58.368 75.5197C58.2144 75.5709 58.0608 75.5709 57.9072 75.5709C57.5488 75.4685 57.5488 75.1613 57.6 74.9053C57.9584 74.9053 58.3168 75.1613 58.368 75.5197Z" fill="#FF9BBC"/>
<path d="M61.2352 67.6863C61.184 67.4815 61.0304 67.0207 60.7744 66.9695C60.5184 66.9183 60.2112 67.4303 59.648 67.5327C58.8288 67.6863 57.4976 66.6623 56.32 66.8671C55.1424 67.0719 54.4256 68.0959 54.016 70.0415C53.6064 71.9871 51.9168 73.4719 51.5584 72.1407C51.5584 72.0383 51.5072 71.9871 51.5072 71.8847C51.5072 69.9391 51.7632 68.0447 52.224 67.1231C53.76 64.1535 58.3168 63.6415 60.4672 65.8943C60.8768 66.4575 61.1328 67.0207 61.2352 67.6863Z" fill="#263238"/>
<path d="M52.6848 72.3455C52.6848 72.3455 51.6096 70.1439 50.6368 70.5023C49.664 70.8607 50.2272 73.8816 51.2512 74.496C51.7632 74.8032 52.4288 74.7008 52.736 74.1888C52.736 74.1888 52.736 74.1376 52.7872 74.1376L52.6848 72.3455Z" fill="#D3766A"/>
<path d="M50.7904 71.373C51.4048 71.8338 51.8144 72.5506 51.9168 73.3186C51.8144 73.0114 51.456 72.8578 51.1488 72.9602C51.0976 72.9602 51.0976 72.9602 51.0464 73.0114V73.0626C51.3536 73.0114 51.6096 73.165 51.7632 73.421C51.8656 73.6258 51.968 73.8306 52.0192 74.0866C52.0192 74.1378 52.1728 74.1378 52.1728 74.0866C52.3264 73.0626 51.8144 71.629 50.7904 71.373Z" fill="#263238"/>
<path d="M77.7216 103.27C77.824 101.837 79.4112 102.81 79.4112 102.81C79.4112 102.81 77.4144 100.915 78.08 99.4816C78.7456 98.048 80.64 99.328 80.7424 99.3792C80.64 99.2768 78.848 97.4848 79.6672 96.1536C80.4864 94.8224 82.2272 96.256 82.3296 96.3584C82.2784 96.256 81.3568 94.5664 82.2272 93.6448C83.712 92.1088 86.6304 96.7168 88.2688 97.1264L90.7264 95.1296C90.4192 95.8976 90.2656 96.7168 90.4192 97.536C90.5728 98.7136 90.6752 99.4816 90.4192 100.198C90.2144 100.864 89.6 101.274 88.9344 101.274C88.9344 101.274 89.8048 102.502 89.2416 103.578C88.9344 104.141 87.7568 104.141 87.7568 104.141C88.1152 104.704 88.1664 105.472 87.808 106.086C87.3472 106.803 86.2208 106.701 86.2208 106.701C86.2208 106.701 86.4256 107.93 85.7088 108.544C84.2752 109.722 77.5168 106.291 77.7216 103.27Z" fill="#D3766A"/>
<path d="M88.9856 96.8194L90.7776 95.2322C90.8288 95.181 90.9312 95.1298 91.0336 95.1298C93.7984 93.7986 97.3312 95.4369 95.6928 96.9729C94.464 98.0993 91.6992 97.3825 90.624 98.7137L88.9856 96.8194Z" fill="#D3766A"/>
<path d="M86.1184 106.7C83.5072 106.086 81.152 104.704 79.36 102.758C79.3088 102.707 79.4112 102.553 79.4624 102.656C81.4592 104.294 83.712 105.625 86.1184 106.7Z" fill="#263238"/>
<path d="M87.808 104.14C87.8592 104.14 87.808 104.192 87.808 104.192C84.9408 103.475 82.432 101.785 80.6912 99.43C80.64 99.3276 80.6912 99.2252 80.7424 99.3276C81.9712 100.864 85.5552 103.219 87.808 104.14Z" fill="#263238"/>
<path d="M82.3296 96.1535C84.0192 98.4575 86.3232 99.9935 88.8832 101.222C88.9344 101.222 88.8832 101.273 88.8832 101.273C87.4496 101.017 85.9136 100.045 84.7872 99.1743C83.712 98.4063 82.8416 97.3823 82.2784 96.1535C82.2272 96.2047 82.3296 96.1023 82.3296 96.1535Z" fill="#263238"/>
<path d="M86.3232 111.974L74.8544 225.945H72.0384L83.2512 114.79H54.0672L33.792 225.945H30.976L51.7632 111.974H86.3232Z" fill="#FFC414"/>
<path d="M83.3536 136.499H49.8176V139.264H83.3536V136.499Z" fill="#FFC414"/>
<path d="M78.848 159.078H45.312V161.843H78.848V159.078Z" fill="#FFC414"/>
<path d="M76.5952 181.708H40.4992V184.473H76.5952V181.708Z" fill="#FFC414"/>
<path d="M74.9056 204.288H36.8128V207.053H74.9056V204.288Z" fill="#FFC414"/>
<g opacity="0.5">
<path opacity="0.5" d="M86.3232 111.974L74.8544 225.945H72.0384L83.2512 114.79H54.0672L33.792 225.945H30.976L51.7632 111.974H86.3232Z" fill="black"/>
<path opacity="0.5" d="M83.3536 136.499H49.8176V139.264H83.3536V136.499Z" fill="black"/>
<path opacity="0.5" d="M78.848 159.078H45.312V161.843H78.848V159.078Z" fill="black"/>
<path opacity="0.5" d="M76.5952 181.708H40.4992V184.473H76.5952V181.708Z" fill="black"/>
<path opacity="0.5" d="M74.9056 204.288H36.8128V207.052H74.9056V204.288Z" fill="black"/>
</g>
<path d="M109.67 235.059H106.854L84.0192 114.79H54.8864L68.608 235.059H65.792L51.7632 111.974H86.3232L109.67 235.059Z" fill="#FFC414"/>
<path opacity="0.2" d="M109.67 235.059H106.854L84.0192 114.79H54.8864L68.608 235.059H65.792L51.7632 111.974H86.3232L109.67 235.059Z" fill="black"/>
<path d="M87.7056 108.646H49.92V111.974H87.7056V108.646Z" fill="#FFC414"/>
<path opacity="0.2" d="M87.7056 108.646H49.92V111.974H87.7056V108.646Z" fill="black"/>
<path d="M25.5488 208.179H24.1152V230.81H25.5488V208.179Z" fill="#FFC414"/>
<path d="M43.6736 220.672L42.496 220.211L43.1104 219.955L42.8032 219.341L43.4176 219.033L43.1104 218.419L43.776 218.163L43.4688 217.549L44.0832 217.241L43.776 216.627L44.3904 216.371L44.0832 215.757L44.6976 215.449L44.3904 214.835L45.0048 214.579L44.6976 213.965L45.312 213.657L45.0048 213.043L45.6192 212.787L45.312 212.173L45.9776 211.865L45.6192 211.251L46.2848 210.995L45.9776 210.381L46.592 210.073L46.2848 209.459L46.8992 209.203L46.592 208.589L47.2064 208.281L46.8992 207.667L47.5136 207.411L47.2064 206.797L47.8208 206.489L47.5136 205.875L48.128 205.619L47.8208 205.005L48.4864 204.697L48.128 204.083L48.7936 203.827L48.4864 203.213L49.1008 202.905L48.7936 202.291L49.408 201.984L49.1008 201.421L49.7152 201.113L49.408 200.499L50.0224 200.192L49.7152 199.629L50.3296 199.321L50.0224 198.707L50.6368 198.4L50.3296 197.837L50.944 197.529L50.6368 196.915L51.8656 197.325L43.6736 220.672Z" fill="#C7C7C7"/>
<path d="M53.1631 191.753L51.4335 196.68L52.6412 197.104L54.3708 192.177L53.1631 191.753Z" fill="#37474F"/>
<path d="M43.6736 220.672L43.9808 219.75L48.4352 221.286C48.896 221.44 49.3568 221.235 49.5104 220.774L56.6272 200.397C56.7808 199.936 56.576 199.475 56.1152 199.321L51.6608 197.785L51.968 196.864L56.4224 198.4C57.344 198.707 57.856 199.731 57.5488 200.704L50.432 221.081C50.1248 222.003 49.1008 222.515 48.128 222.208L43.6736 220.672Z" fill="#263238"/>
<path d="M56.4736 208.179H55.04V230.81H56.4736V208.179Z" fill="#FFC414"/>
<path d="M55.0912 209.971H25.5488V211.149H55.0912V209.971Z" fill="#FFC414"/>
<path d="M25.1904 205.824L33.024 204.134L31.232 195.737L23.3984 197.427L25.1904 205.824ZM25.7024 202.957L24.6784 198.246L30.2592 197.017L31.2832 201.728L25.7024 202.957Z" fill="#263238"/>
<path d="M34.7136 225.741H34.6624L35.1744 225.485V225.433L34.6624 225.331L35.1232 225.075V225.024L34.6112 224.921L35.072 224.665V224.614L34.56 224.512L35.0208 224.256V224.205L34.5088 224.102L34.9696 223.795L34.4576 223.693L34.9696 223.385L34.4064 223.232L34.9184 222.976L34.4064 222.822L34.8672 222.566L34.3552 222.413L34.816 222.157L34.304 222.003L34.7648 221.747L34.2528 221.593L34.7648 221.337L34.7136 221.286L34.2016 221.184L34.7136 220.928V220.877L34.1504 220.774L34.6624 220.518V220.467L34.1504 220.365L34.6112 220.109V220.057L34.0992 219.955L34.56 219.699V219.648L34.048 219.545L34.5088 219.289V219.238L33.9968 219.136L34.5088 218.88V218.829L33.9456 218.726L34.4576 218.47V218.419L33.8944 218.317L34.4064 218.061V218.009L33.8944 217.907L34.3552 217.6L33.8432 217.497L34.304 217.19L33.792 217.088L34.2528 216.781L33.7408 216.627L34.2528 216.371L33.6896 216.217L34.2016 215.961L33.6896 215.808L34.1504 215.552L33.6384 215.398L34.0992 215.142L33.5872 214.989L34.0992 214.733H34.048L33.536 214.579L34.048 214.323L33.9968 214.272L33.4848 214.169L33.9968 213.913V213.862L33.4336 213.76L33.9456 213.504V213.453L33.4336 213.35L33.8944 213.094V213.043L33.3824 212.941L33.8432 212.685V212.633L33.3312 212.531L33.8432 212.275L33.792 212.224L33.28 212.121L33.792 211.865V211.814L33.2288 211.712L33.7408 211.456V211.405L33.1776 211.302L33.6896 210.995L33.1776 210.893L33.6384 210.585L33.1264 210.432L33.5872 210.176L33.0752 210.022L33.5872 209.766L33.024 209.613L33.536 209.357L32.9728 209.203L33.4848 208.947L32.9728 208.793L33.4336 208.537L32.9216 208.384L33.3824 208.128V208.077L32.8704 207.974L33.3824 207.718L33.3312 207.667L32.8192 207.565L33.3312 207.309V207.257L32.768 207.155L33.28 206.899V206.848L32.768 206.745L33.2288 206.489V206.438L32.7168 206.336L33.1776 206.08V206.029L32.6656 205.926L33.1264 205.67V205.619L32.6144 205.517L33.1264 205.261L33.0752 205.209L32.5632 205.107L33.0752 204.8L32.512 204.697L33.024 204.39L32.9728 204.134L25.1904 205.824L30.72 226.56L34.7136 225.741Z" fill="#C7C7C7"/>
<g opacity="0.3">
<path opacity="0.3" d="M26.9824 212.582L32.9216 207.616L33.28 207.309H33.3312V207.257L32.768 207.155L33.28 206.899V206.848L32.768 206.745L33.2288 206.489V206.438L32.7168 206.336L33.1776 206.08V206.029L32.8192 205.926L26.624 211.149L26.9824 212.582Z" fill="white"/>
<path opacity="0.3" d="M31.5392 226.407L34.304 225.792L34.8672 225.383L34.6624 225.331L35.1232 225.075V225.024L34.6112 224.922L35.072 224.666V224.615L34.56 224.512L35.0208 224.256V224.205L34.5088 224.103L34.9696 223.795L34.7136 223.744L31.5392 226.407Z" fill="white"/>
<path opacity="0.3" d="M34.2016 219.033L34.5088 218.88V218.829H34.4576L34.2016 219.033Z" fill="white"/>
<path opacity="0.3" d="M30.1056 224.205L34.2016 220.774L34.56 220.467L34.1504 220.365L34.6112 220.109V220.057L34.0992 219.955L34.56 219.699V219.648L34.048 219.545L34.5088 219.289V219.238L34.048 219.136L29.696 222.771L30.1056 224.205Z" fill="white"/>
<path opacity="0.3" d="M26.2656 209.971L32.6144 204.697L32.8192 204.544L33.024 204.339L32.9728 204.134L32 204.339L26.112 209.254L26.2656 209.971Z" fill="white"/>
<path opacity="0.3" d="M33.9968 217.088H33.792L34.2528 216.781L33.9456 216.678L29.184 220.672L29.2352 221.03L33.9968 217.088Z" fill="white"/>
<path opacity="0.3" d="M25.9584 208.742L31.0272 204.544L30.3104 204.698L25.856 208.384L25.9584 208.742Z" fill="white"/>
</g>
<path d="M33.7408 225.587L32.512 225.945C31.8464 226.15 31.1296 225.741 30.9248 225.075L28.2624 215.552L31.9488 214.528L34.6112 224C34.816 224.665 34.4064 225.382 33.7408 225.587Z" fill="#37474F"/>
<path d="M31.1394 214.32L28.6749 215.013L28.9521 215.999L31.4166 215.306L31.1394 214.32Z" fill="#37474F"/>
<path d="M27.2217 203.311L26.433 203.532L29.4223 214.18L30.211 213.959L27.2217 203.311Z" fill="#EBEBEB"/>
<path d="M25.7536 202.701C25.7536 202.701 25.7536 200.909 25.856 200.909L26.112 200.857L26.368 200.806C26.4192 200.806 27.3408 202.291 27.3408 202.291L27.1872 203.315L26.4192 203.52L25.7536 202.701Z" fill="#EBEBEB"/>
<path d="M31.9061 215.663L31.2653 215.843L33.5885 224.125L34.2294 223.945L31.9061 215.663Z" fill="#263238"/>
<path d="M30.6699 215.98L30.029 216.16L32.3523 224.441L32.9932 224.261L30.6699 215.98Z" fill="#263238"/>
<path d="M29.4966 216.331L28.8558 216.511L31.1791 224.792L31.8199 224.613L29.4966 216.331Z" fill="#263238"/>
<path d="M34.816 202.701L36.096 202.752C36.8128 202.803 37.3248 203.367 37.3248 204.083L36.8128 213.914L32.9728 213.709L33.4848 203.879C33.4848 203.213 34.0992 202.65 34.816 202.701Z" fill="#37474F"/>
<path d="M33.6264 213.778L33.5755 214.801L36.1835 214.931L36.2344 213.908L33.6264 213.778Z" fill="#37474F"/>
<path d="M34.4224 214.863L33.8706 225.909L34.6888 225.95L35.2406 214.904L34.4224 214.863Z" fill="#EBEBEB"/>
<path d="M35.0208 226.918C35.0208 226.918 34.4064 228.608 34.3552 228.608H34.0992H33.8432C33.792 228.608 33.3824 226.867 33.3824 226.867L33.8432 225.894L34.6624 225.945L35.0208 226.918Z" fill="#EBEBEB"/>
<path d="M33.7933 204.386L33.3638 212.978L34.0286 213.011L34.4581 204.419L33.7933 204.386Z" fill="#263238"/>
<path d="M35.0577 204.157L34.63 212.749L35.2948 212.782L35.7225 204.19L35.0577 204.157Z" fill="#263238"/>
<path d="M36.3011 204.48L35.8716 213.072L36.5364 213.105L36.9659 204.514L36.3011 204.48Z" fill="#263238"/>
<path d="M41.2075 204.315L37.9034 204.713L40.3569 225.046L43.661 224.647L41.2075 204.315Z" fill="#263238"/>
<path d="M41.3675 202.314L37.2502 202.811L37.7409 206.878L41.8582 206.381L41.3675 202.314Z" fill="#C7C7C7"/>
<path d="M41.3696 202.496C41.3696 202.496 45.2608 199.68 47.3088 199.424L48.1792 206.489L41.8304 206.182L41.3696 202.496Z" fill="#C7C7C7"/>
<g opacity="0.2">
<path opacity="0.2" d="M47.7184 202.701L45.056 206.336L43.4688 206.285L47.4624 200.755L47.7184 202.701Z" fill="white"/>
<path opacity="0.2" d="M47.0016 199.526L42.1376 206.234H41.8304L41.7792 205.619L45.9264 199.885C46.2848 199.731 46.6432 199.578 47.0016 199.526Z" fill="white"/>
<path opacity="0.2" d="M45.056 200.243L41.6768 204.902L41.6256 204.39L44.3904 200.55C44.5952 200.499 44.8512 200.346 45.056 200.243Z" fill="white"/>
</g>
<path d="M45.8034 203.294L45.1746 207.186L47.6513 207.586L48.2801 203.694L45.8034 203.294Z" fill="#EBEBEB"/>
<path d="M48.128 204.237L49.8176 204.493C50.0736 204.544 51.2512 203.52 52.0192 203.673L52.8896 203.827C53.6576 203.929 56.6784 205.209 56.3712 207.206L56.1664 208.384C56.1664 208.384 55.9104 207.309 55.2448 206.95C54.5792 206.643 53.8112 206.95 53.4528 207.616C53.1968 208.179 53.0432 208.742 52.8384 209.305L49.7664 208.793C49.7152 208.077 49.6128 207.36 49.4592 206.694C49.2544 206.182 47.8208 206.029 47.8208 206.029L48.128 204.237Z" fill="#EBEBEB"/>
<path d="M50.3742 208.94L49.2575 215.865L51.1782 216.174L52.2949 209.25L50.3742 208.94Z" fill="#EBEBEB"/>
<path d="M49.3016 213.102L46.7945 228.62L49.6756 229.085L52.1826 213.568L49.3016 213.102Z" fill="#263238"/>
<path d="M55.04 215.193H25.5488V230.809H55.04V215.193Z" fill="#FFC414"/>
<g opacity="0.1">
<path opacity="0.1" d="M25.5488 216.986C26.9824 216.934 28.416 216.883 29.8496 216.883C31.2832 216.883 32.7168 216.883 34.1504 216.832L38.4512 216.883C39.8848 216.883 41.3184 216.934 42.752 216.986C41.3184 217.037 39.8848 217.088 38.4512 217.088L34.1504 217.139C32.7168 217.139 31.2832 217.139 29.8496 217.088C28.416 217.037 26.9824 217.088 25.5488 216.986Z" fill="black"/>
<path opacity="0.1" d="M32.5632 218.419C34.4576 218.368 36.3008 218.317 38.1952 218.317L43.8272 218.266L49.4592 218.317C51.3536 218.317 53.1968 218.368 55.0912 218.419C53.1968 218.47 51.3536 218.522 49.4592 218.522L43.8272 218.573L38.1952 218.522C36.3008 218.522 34.4064 218.47 32.5632 218.419Z" fill="black"/>
<path opacity="0.1" d="M50.0224 220.57C48.2816 220.621 46.592 220.672 44.8512 220.672L39.68 220.723L34.5088 220.672C32.768 220.672 31.0784 220.621 29.3376 220.57C31.0784 220.518 32.768 220.467 34.5088 220.467L39.68 220.416L44.8512 220.467C46.592 220.467 48.2816 220.518 50.0224 220.57Z" fill="black"/>
<path opacity="0.1" d="M25.5488 221.44C26.624 221.389 27.7504 221.338 28.8256 221.338C29.9008 221.338 31.0272 221.338 32.1024 221.286C33.1776 221.235 34.304 221.286 35.3792 221.338C36.4544 221.389 37.5808 221.389 38.656 221.44C37.5296 221.491 36.4544 221.542 35.3792 221.542C34.304 221.542 33.1776 221.542 32.1024 221.594C31.0272 221.645 29.9008 221.594 28.8256 221.542C27.7504 221.491 26.6752 221.491 25.5488 221.44Z" fill="black"/>
<path opacity="0.1" d="M25.5488 222.464L28.8256 222.362L32.1536 222.311H38.7072H45.312L48.5888 222.362L51.8656 222.464L48.5888 222.515L45.312 222.567L38.7072 222.618L32.1536 222.567L28.8256 222.515L25.5488 222.464Z" fill="black"/>
<path opacity="0.1" d="M55.04 223.232C53.8624 223.283 52.6336 223.334 51.456 223.334C50.2784 223.334 49.0496 223.334 47.872 223.386C46.6944 223.437 45.4656 223.386 44.2368 223.334C43.008 223.283 41.8304 223.283 40.6528 223.232C41.8304 223.181 43.0592 223.13 44.2368 223.13C45.4144 223.13 46.6432 223.13 47.872 223.078C49.1008 223.027 50.2784 223.078 51.456 223.13C52.6336 223.181 53.8112 223.181 55.04 223.232Z" fill="black"/>
<path opacity="0.1" d="M36.7104 224.512C37.8368 224.461 38.912 224.41 40.0384 224.41C41.1648 224.41 42.24 224.41 43.3664 224.359C44.4928 224.307 45.568 224.359 46.6944 224.41C47.8208 224.461 48.896 224.461 50.0224 224.512C48.896 224.563 47.8208 224.615 46.6944 224.615C45.568 224.615 44.4928 224.615 43.3664 224.666C42.24 224.717 41.1648 224.666 40.0384 224.615C38.912 224.563 37.8368 224.563 36.7104 224.512Z" fill="black"/>
<path opacity="0.1" d="M25.5488 226.816C27.392 226.764 29.2352 226.713 31.0272 226.713L36.5056 226.662L41.984 226.713C43.8272 226.713 45.6704 226.764 47.4624 226.816C45.6192 226.867 43.776 226.918 41.984 226.918L36.5056 226.969L31.0272 226.918C29.2352 226.918 27.392 226.867 25.5488 226.816Z" fill="black"/>
<path opacity="0.1" d="M55.04 228.403C53.8112 228.455 52.5824 228.506 51.3536 228.506C50.1248 228.506 48.896 228.506 47.6672 228.557C46.4384 228.608 45.2096 228.557 43.9808 228.506C42.752 228.455 41.5232 228.455 40.2944 228.403C41.5232 228.352 42.752 228.301 43.9808 228.301C45.2096 228.301 46.4384 228.301 47.6672 228.25C48.896 228.199 50.1248 228.25 51.3536 228.301C52.5824 228.352 53.8112 228.352 55.04 228.403Z" fill="black"/>
<path opacity="0.1" d="M25.5488 229.683C26.5728 229.632 27.5968 229.581 28.6208 229.581C29.6448 229.581 30.6688 229.581 31.6928 229.53C32.7168 229.478 33.7408 229.53 34.7648 229.581C35.7888 229.632 36.8128 229.632 37.8368 229.683C36.8128 229.734 35.7888 229.785 34.7648 229.785C33.7408 229.785 32.7168 229.785 31.6928 229.837C30.6688 229.888 29.6448 229.837 28.6208 229.785C27.5968 229.734 26.5728 229.785 25.5488 229.683Z" fill="black"/>
</g>
<path d="M197.837 103.731C198.374 103.731 198.81 103.296 198.81 102.758C198.81 102.221 198.374 101.786 197.837 101.786C197.3 101.786 196.864 102.221 196.864 102.758C196.864 103.296 197.3 103.731 197.837 103.731Z" fill="#F47522"/>
<path d="M190.72 103.22C191.257 103.22 191.693 102.784 191.693 102.247C191.693 101.709 191.257 101.274 190.72 101.274C190.183 101.274 189.747 101.709 189.747 102.247C189.747 102.784 190.183 103.22 190.72 103.22Z" fill="#F47522"/>
<path d="M61.1328 76.3904C61.6701 76.3904 62.1056 75.9549 62.1056 75.4176C62.1056 74.8804 61.6701 74.4448 61.1328 74.4448C60.5955 74.4448 60.16 74.8804 60.16 75.4176C60.16 75.9549 60.5955 76.3904 61.1328 76.3904Z" fill="#F47522"/>
<path d="M54.9888 75.3665C55.5261 75.3665 55.9616 74.931 55.9616 74.3937C55.9616 73.8564 55.5261 73.4209 54.9888 73.4209C54.4515 73.4209 54.016 73.8564 54.016 74.3937C54.016 74.931 54.4515 75.3665 54.9888 75.3665Z" fill="#F47522"/>
</svg>
