<svg width="16" height="20" viewBox="0 0 16 20" fill="none" xmlns="http://www.w3.org/2000/svg">
<path d="M14.3666 0.789412L11.9796 7.34824C11.8929 7.58549 11.6686 7.73529 11.4266 7.73529C11.3142 7.73529 11.5779 7.798 8.00076 6.82235C7.94417 6.84122 8.37723 6.71478 4.7486 7.75216C4.46185 7.83588 4.14256 7.68522 4.03409 7.38784L1.63252 0.789412C1.49287 0.404745 1.77891 0 2.18546 0H5.85801C6.10546 0 6.32625 0.15451 6.41095 0.387059L7.99958 4.75137L9.58821 0.387059C9.67291 0.15451 9.8937 0 10.1411 0H13.8137C14.2211 0 14.5059 0.405725 14.3666 0.789412Z" fill="#4A696F"/>
<path d="M14.367 0.789412L11.98 7.34824C11.8933 7.58549 11.669 7.73529 11.427 7.73529C11.3146 7.73529 11.5783 7.798 8.00113 6.82235C7.99721 6.82365 7.99996 6.91537 7.99996 4.75137L9.58859 0.387059C9.67329 0.15451 9.89407 0 10.1415 0H13.8141C14.2215 0 14.5063 0.405725 14.367 0.789412Z" fill="#384949"/>
<path d="M15.1762 12.8235C15.1762 16.7808 11.957 20 7.99971 20C4.04246 20 0.823242 16.7808 0.823242 12.8235C0.823242 8.82241 4.09811 5.59656 8.09187 5.64782C10.4232 5.67296 11.6314 6.6439 11.7319 6.6439C13.9229 7.97245 15.1762 10.5106 15.1762 12.8235Z" fill="#FED843"/>
<path d="M8 19.9998V5.65356C8.02184 5.67541 12.1976 5.33647 14.331 9.46847C16.8979 14.4397 13.2613 19.9998 8 19.9998Z" fill="#FABE2C"/>
<path d="M12.0987 12.1303L10.1218 13.5864L10.8779 15.9448C11.0525 16.4877 10.4234 16.9336 9.96928 16.5981L8.00026 15.1483L6.03124 16.5981C5.5743 16.9354 4.94834 16.4869 5.12261 15.9448L5.87869 13.5864L3.90183 12.1303C3.44571 11.7948 3.68403 11.0683 4.25046 11.0683H6.68614L7.44026 8.71579C7.61414 8.17316 8.38598 8.17191 8.56026 8.71579L9.31438 11.0683H11.7501C12.3163 11.0683 12.5549 11.7947 12.0987 12.1303Z" fill="#FABE2C"/>
<path d="M12.0984 12.1303L10.1216 13.5863L10.8776 15.9448C11.0522 16.4876 10.4232 16.9336 9.96902 16.5981L8 15.1483V8.30713C8.25569 8.30713 8.48196 8.47223 8.56 8.71576L9.31412 11.0683H11.7498C12.3161 11.0683 12.5547 11.7947 12.0984 12.1303Z" fill="#FF9100"/>
</svg>
