<svg width="192" height="195" viewBox="0 0 192 195" fill="none" xmlns="http://www.w3.org/2000/svg">
<path d="M57.9005 191.806C56.8241 192.142 26.3011 191.489 25.1547 190.73C24.7167 190.445 24.5536 185.99 24.507 180.608C24.507 179.443 24.507 178.25 24.507 177.025C24.507 175.58 24.507 174.121 24.5396 172.7C24.6188 166.325 24.8099 160.71 24.8099 160.71L44.6801 161.078L44.4518 173.068L44.3679 177.393L44.1955 180.972C44.1955 180.972 55.7709 186.452 56.9406 187.421C58.1102 188.39 58.9723 191.475 57.9005 191.806Z" fill="#AD6359"/>
<path d="M57.9005 191.806C56.8241 192.142 26.3011 191.489 25.1547 190.73C24.7167 190.445 24.5536 185.991 24.507 180.608C24.507 179.443 24.507 178.25 24.507 177.025C24.507 175.58 24.507 174.121 24.5396 172.7L44.4518 173.068L44.3679 177.393L44.1955 180.972C44.1955 180.972 55.7709 186.452 56.9406 187.421C58.1102 188.39 58.9723 191.475 57.9005 191.806Z" fill="white"/>
<path d="M57.9891 191.858C57.2901 192.072 44.2887 191.858 34.8242 191.508C32.6387 191.42 30.6302 191.322 29.0179 191.219C26.795 191.075 25.2899 190.926 25.0615 190.753C24.5303 190.399 24.3951 183.866 24.3998 176.974L44.3726 177.346L44.2001 180.944C44.2001 180.944 55.8502 186.452 57.0152 187.426C58.1802 188.4 59.0702 191.531 57.9891 191.858Z" fill="#C7C7C7"/>
<path d="M57.5743 190.599C52.4483 190.362 31.6693 189.896 26.5713 190.05C26.5293 190.05 26.5293 190.082 26.5713 190.082C31.66 190.432 52.4296 190.73 57.5743 190.683C57.6721 190.702 57.6721 190.623 57.5743 190.599Z" fill="#263238"/>
<path d="M44.9504 179.83C42.9373 179.411 40.4535 179.667 38.8924 181.079C38.8318 181.13 38.8924 181.219 38.9763 181.2C40.9241 180.618 42.9283 180.245 44.9551 180.087C44.9848 180.08 45.0114 180.064 45.0303 180.04C45.0492 180.016 45.0593 179.987 45.0588 179.957C45.0582 179.926 45.0471 179.897 45.0273 179.874C45.0075 179.851 44.9803 179.835 44.9504 179.83Z" fill="#263238"/>
<path d="M46.395 180.743C44.3772 180.324 41.8935 180.58 40.337 181.988C40.2764 182.044 40.337 182.128 40.4209 182.109C42.3681 181.525 44.3726 181.153 46.3997 181C46.4294 180.994 46.456 180.977 46.475 180.953C46.4939 180.93 46.5039 180.9 46.5034 180.87C46.5028 180.839 46.4917 180.81 46.4719 180.787C46.4522 180.764 46.425 180.749 46.395 180.743Z" fill="#263238"/>
<path d="M47.8396 181.657C45.8218 181.233 43.338 181.494 41.7582 182.901C41.6977 182.957 41.7582 183.041 41.8421 183.022C43.7914 182.44 45.7972 182.066 47.8256 181.909C47.859 181.911 47.8917 181.899 47.9166 181.877C47.9415 181.855 47.9565 181.823 47.9584 181.79C47.9603 181.757 47.9488 181.724 47.9265 181.699C47.9042 181.674 47.8729 181.659 47.8396 181.657Z" fill="#263238"/>
<path d="M49.2841 182.566C47.2663 182.146 44.7872 182.403 43.2261 183.815C43.1655 183.866 43.2261 183.954 43.31 183.936C45.2562 183.353 47.2588 182.98 49.2841 182.822C49.3139 182.816 49.3408 182.8 49.3601 182.777C49.3795 182.754 49.39 182.724 49.39 182.694C49.39 182.663 49.3795 182.634 49.3601 182.611C49.3408 182.587 49.3139 182.571 49.2841 182.566Z" fill="#263238"/>
<path d="M42.3687 191.746C39.8011 191.681 37.2008 191.597 34.8242 191.504C32.634 191.42 30.6302 191.322 29.0178 191.219C26.795 191.075 25.2898 190.93 25.0615 190.753C24.5955 190.441 24.4324 185.394 24.4091 179.518C28.9386 182.561 37.8392 188.642 42.3687 191.746Z" fill="#A6A6A6"/>
<path d="M46.1481 180.725L23.4725 180.748C23.4725 180.748 24.7167 129.702 24.4744 128.514C23.8872 125.676 10.993 80.6699 10.993 80.6699L28.8967 80.9775L33.7152 81.0847C33.7152 81.0847 34.4841 88.5779 34.6984 89.3748C37.6948 100.293 43.5524 118.933 44.7268 125.849C46.7911 137.825 46.1481 180.725 46.1481 180.725Z" fill="#263238"/>
<path d="M45.4163 176.936C41.8794 176.843 29.3486 176.47 24.6327 176.825C24.5954 176.825 24.5954 176.885 24.6327 176.89C26.2451 177.155 41.8747 177.081 45.4163 177.034C45.4267 177.031 45.4359 177.025 45.4423 177.016C45.4488 177.007 45.4523 176.996 45.4523 176.985C45.4523 176.974 45.4488 176.964 45.4423 176.955C45.4359 176.946 45.4267 176.94 45.4163 176.936Z" fill="#37474F"/>
<path d="M26.2498 127.387C25.5741 124.628 20.5226 107.437 18.9802 102.003C17.4377 96.5699 15.9838 91.1224 14.651 85.6422C14.4833 84.9479 14.3108 84.2442 14.1244 83.5639C14.1244 83.5033 14.0266 83.5312 14.0359 83.5872C14.5485 86.3459 15.2195 89.086 15.8719 91.8167C16.5243 94.5475 17.2094 97.2689 17.941 99.981C19.4042 105.433 21.0011 110.845 22.7315 116.216C23.5936 118.896 25.0195 124.39 25.7791 127.102C26.5387 129.814 25.3131 174.261 25.3784 174.984C25.3848 175.022 25.4045 175.056 25.434 175.081C25.4634 175.106 25.5006 175.119 25.5391 175.119C25.5776 175.119 25.6149 175.106 25.6443 175.081C25.6737 175.056 25.6934 175.022 25.6999 174.984C25.7978 169.741 26.9162 130.113 26.2498 127.387Z" fill="#37474F"/>
<path d="M28.9014 80.9731C28.9014 80.9731 24.521 128.743 24.4744 128.505C23.9105 125.76 11.7852 83.4382 11.0256 80.7913C10.9977 80.7075 10.9884 80.6655 10.9884 80.6655L28.9014 80.9731Z" fill="#37474F"/>
<path d="M34.3722 194.425C33.2957 194.761 2.77271 194.104 1.62635 193.344C1.18831 193.06 1.02521 188.605 0.978607 183.223C0.978607 182.062 0.978607 180.865 0.978607 179.639C0.978607 178.199 0.97861 176.736 1.00657 175.315C1.08579 168.94 1.27685 163.329 1.27685 163.329L21.1518 163.697L20.9188 175.683L20.8349 180.007L20.6625 183.591C20.6625 183.591 32.2379 189.066 33.4076 190.04C34.5772 191.014 35.4533 194.094 34.3722 194.425Z" fill="#AD6359"/>
<path d="M34.3722 194.425C33.2957 194.761 2.77271 194.104 1.62635 193.344C1.18831 193.06 1.02521 188.605 0.978607 183.222C0.978607 182.062 0.978607 180.865 0.978607 179.639C0.978607 178.199 0.97861 176.736 1.00657 175.314L20.9188 175.683L20.8349 180.007L20.6625 183.591C20.6625 183.591 32.2379 189.066 33.4076 190.04C34.5772 191.014 35.4533 194.094 34.3722 194.425Z" fill="white"/>
<path d="M34.47 194.472C33.771 194.686 20.7696 194.495 11.3052 194.122C9.11961 194.034 7.11115 193.936 5.49879 193.838C3.27597 193.693 1.77079 193.544 1.54245 193.372C1.01121 193.018 0.876071 186.484 0.880731 179.592L20.8535 179.96L20.6811 183.558C20.6811 183.558 32.3311 189.066 33.4961 190.045C34.6611 191.023 35.5465 194.132 34.47 194.472Z" fill="#C7C7C7"/>
<path d="M34.0599 193.232C28.9339 192.999 8.15031 192.529 3.05227 192.687C3.01033 192.687 3.01033 192.715 3.05227 192.72C8.14099 193.065 28.9106 193.363 34.0553 193.321C34.1624 193.316 34.1671 193.242 34.0599 193.232Z" fill="#263238"/>
<path d="M21.4313 182.449C19.4182 182.025 16.9344 182.286 15.3733 183.693C15.3127 183.749 15.3733 183.833 15.4572 183.815C17.4064 183.232 19.4122 182.858 21.4406 182.701C21.474 182.7 21.5055 182.685 21.5282 182.661C21.5509 182.636 21.563 182.604 21.5618 182.57C21.5605 182.537 21.5461 182.505 21.5216 182.483C21.4972 182.46 21.4647 182.448 21.4313 182.449Z" fill="#263238"/>
<path d="M22.8759 183.358C20.8582 182.939 18.3744 183.195 16.8179 184.607C16.7574 184.658 16.8179 184.747 16.9018 184.728C18.8432 184.145 20.8412 183.77 22.862 183.61C22.8901 183.604 22.9154 183.589 22.9341 183.567C22.9528 183.545 22.9638 183.518 22.9654 183.489C22.967 183.461 22.9591 183.432 22.9429 183.409C22.9268 183.385 22.9032 183.367 22.8759 183.358Z" fill="#263238"/>
<path d="M24.3205 184.271C22.3027 183.852 19.8189 184.108 18.2392 185.516C18.1786 185.571 18.2392 185.66 18.3231 185.637C20.273 185.06 22.2788 184.693 24.3065 184.542C24.3424 184.543 24.3775 184.531 24.4041 184.507C24.4308 184.483 24.4468 184.449 24.4487 184.413C24.4505 184.378 24.4381 184.342 24.414 184.316C24.39 184.289 24.3564 184.273 24.3205 184.271Z" fill="#263238"/>
<path d="M25.7605 185.184C23.7428 184.76 21.2636 185.021 19.7025 186.429C19.6419 186.485 19.7025 186.568 19.7864 186.55C21.7337 185.966 23.7382 185.595 25.7652 185.441C25.7949 185.435 25.8215 185.418 25.8405 185.394C25.8594 185.371 25.8694 185.341 25.8689 185.311C25.8683 185.28 25.8572 185.251 25.8374 185.228C25.8177 185.205 25.7905 185.19 25.7605 185.184Z" fill="#263238"/>
<path d="M22.0045 183.036L0 182.631C0 182.631 6.17916 103.267 5.41026 99.0633C4.15206 92.1805 5.53608 85.8988 7.36746 80.5957L29.9778 80.9918C29.9778 80.9918 30.29 87.0172 28.0113 90.5681C28.0113 90.5681 25.9795 91.803 24.9916 92.3436L22.0045 183.036Z" fill="#263238"/>
<path d="M21.3988 179.131C18.0622 178.982 19.0222 178.978 15.6856 178.866C14.0499 178.81 3.31796 178.46 1.78482 178.679C1.7522 178.679 1.74754 178.74 1.78482 178.745C3.30398 179.033 14.0406 179.211 15.6763 179.211C19.0175 179.257 18.0575 179.211 21.3988 179.211C21.4046 179.206 21.4093 179.2 21.4126 179.193C21.4158 179.186 21.4175 179.178 21.4175 179.171C21.4175 179.163 21.4158 179.156 21.4126 179.149C21.4093 179.142 21.4046 179.136 21.3988 179.131Z" fill="#37474F"/>
<path d="M29.3674 89.6266C27.2418 90.607 25.2027 91.7652 23.2721 93.0889C23.256 93.0988 23.2446 93.1147 23.2402 93.133C23.2358 93.1514 23.2389 93.1707 23.2488 93.1868C23.2587 93.2029 23.2746 93.2143 23.2929 93.2187C23.3113 93.2231 23.3306 93.22 23.3467 93.2101C25.4064 92.1196 27.5127 91.0618 29.5072 89.8642C29.6656 89.771 29.5305 89.5567 29.3674 89.6266Z" fill="#37474F"/>
<path d="M26.6413 89.2677C26.5099 89.6814 26.4056 90.1033 26.329 90.5306C26.2365 90.8623 26.208 91.2087 26.2451 91.5511C26.2451 91.6163 26.3477 91.6117 26.3803 91.5511C26.5504 91.2334 26.6684 90.8904 26.7298 90.5352C26.8416 90.1438 26.9581 89.7523 27.0607 89.3562C27.0712 89.3011 27.0597 89.244 27.0286 89.1972C26.9975 89.1505 26.9493 89.1178 26.8944 89.1062C26.8395 89.0946 26.7822 89.105 26.7348 89.1352C26.6875 89.1654 26.6539 89.213 26.6413 89.2677Z" fill="#37474F"/>
<path d="M26.4874 87.1988C26.5527 86.8446 26.6179 86.4858 26.6878 86.1316C26.7577 85.7775 26.8602 85.3954 26.9068 85.0226C26.9068 84.962 27.0094 84.9853 26.9954 85.0226C26.9348 85.3814 26.9208 85.7495 26.8835 86.113C26.8463 86.4765 26.809 86.84 26.767 87.1988C26.6832 87.8745 26.5573 88.5548 26.4082 89.2166C26.7661 89.1635 27.1071 89.0297 27.4055 88.8251C27.6888 88.5498 27.8794 88.1931 27.9507 87.8046C28.0625 87.3992 28.1604 86.9844 28.2815 86.579C28.4321 86.1343 28.5444 85.6775 28.6171 85.2136C28.6171 85.153 28.7196 85.1717 28.7103 85.2136C28.607 86.1913 28.4056 87.1561 28.1091 88.0935C28.0412 88.4603 27.8446 88.7908 27.5546 89.0255C27.1791 89.2179 26.7685 89.332 26.3476 89.361C26.301 89.3843 26.2265 89.361 26.2311 89.3004C26.2871 88.6341 26.3616 87.9071 26.4874 87.1988Z" fill="#37474F"/>
<path d="M8.90056 98.8533C8.77474 97.2736 8.54641 95.7031 8.40195 94.1281C8.11769 90.9546 8.62096 87.8371 9.14754 84.7009C9.27336 83.9739 8.93318 84.3421 8.92386 84.4026C8.30776 87.207 8.02001 90.0735 8.06642 92.9444C8.1503 95.7404 8.59301 98.4758 8.58369 101.263C8.57437 104.049 8.30408 106.901 8.07108 109.711C7.83808 112.521 7.60508 115.364 7.36742 118.188C6.43542 129.553 5.5407 140.919 4.63666 152.285C4.38502 155.458 4.17066 158.632 3.90038 161.805C3.6301 164.979 3.2806 172.989 3.10352 176.251C3.10352 176.531 3.50428 176.517 3.53224 176.251C4.1194 170.552 4.59472 160.09 5.06538 154.382C5.53604 148.673 5.94612 143.067 6.41212 137.396C6.87812 131.725 7.30684 126.091 7.74954 120.438C7.96856 117.61 8.17826 114.781 8.39728 111.957C8.6163 109.133 8.86328 106.323 8.9658 103.499C9.0303 101.951 9.00852 100.4 8.90056 98.8533Z" fill="#37474F"/>
<path d="M16.7573 84.645C16.7528 84.6373 16.7463 84.6309 16.7386 84.6264C16.7308 84.622 16.722 84.6196 16.7131 84.6196C16.7041 84.6196 16.6953 84.622 16.6875 84.6264C16.6798 84.6309 16.6733 84.6373 16.6688 84.645C16.5346 85.0147 16.4592 85.4031 16.4451 85.7961C16.3746 86.217 16.2702 86.6315 16.1329 87.0356C15.8828 87.8515 15.4251 88.5885 14.8048 89.1746C13.4301 90.4141 11.6174 90.8475 9.86521 91.2436C9.79997 91.2436 9.82327 91.3461 9.86521 91.3508C10.8989 91.4148 11.9349 91.2722 12.9128 90.9314C13.7835 90.6829 14.5907 90.2507 15.2801 89.6639C15.9396 89.06 16.3968 88.2676 16.5896 87.3944C16.687 86.9343 16.7447 86.4665 16.762 85.9964C16.762 85.7728 16.762 85.5304 16.762 85.3254C16.8022 85.1003 16.8006 84.8696 16.7573 84.645Z" fill="#37474F"/>
<path d="M25.8397 54.0613C27.5733 59.5042 37.3546 72.7013 41.5999 73.9502C44.6708 74.8822 57.4905 68.8801 61.102 66.5641C64.5876 64.3319 56.2975 54.0566 54.1632 55.2263C51.1482 56.8759 44.1862 62.0439 42.9326 61.9647C42.0565 61.9087 37.4385 58.2367 30.4625 51.7406C26.604 48.1478 24.8052 50.7993 25.8397 54.0613Z" fill="#AD6359"/>
<path d="M58.8698 51.5589C60.8316 50.995 63.0358 50.1888 65.1748 50.3519C67.3137 50.515 68.9028 53.4462 68.8655 54.2524C68.8282 55.0585 67.7145 60.0494 65.6035 59.9236C63.4925 59.7978 64.9837 56.0045 64.9278 55.5572C64.8719 55.1098 64.8299 54.5366 64.4245 54.5553C64.0191 54.5739 56.7401 57.505 56.7401 57.505L58.8698 51.5589Z" fill="#AD6359"/>
<path d="M58.9863 51.8619C59.1074 51.8619 64.9651 49.9513 67.0993 50.1144C69.2336 50.2775 70.8273 53.2086 70.7947 54.0148C70.7621 54.821 69.6437 59.8118 67.5094 59.686C65.3751 59.5602 66.8896 55.7669 66.8337 55.3196C66.7778 54.8722 66.7359 54.2991 66.3304 54.3177C65.925 54.3363 58.6694 57.2675 58.6694 57.2675L58.9863 51.8619Z" fill="#AD6359"/>
<path d="M66.8011 59.3739C66.5945 58.9795 66.4964 58.5373 66.5169 58.0924C66.4996 57.6334 66.553 57.1745 66.6753 56.7317C66.8174 56.3547 66.9281 55.9666 67.0062 55.5714C67.025 55.1758 66.9449 54.7818 66.7732 54.425C66.624 54.1128 66.3072 54.1967 66.0322 54.2759C65.6257 54.4076 65.2274 54.5632 64.8393 54.7419L63.5857 55.2964C63.1465 55.4718 62.7185 55.6742 62.3042 55.9022C62.2716 55.9022 62.3042 55.9768 62.3275 55.9628C62.7048 55.8422 63.0751 55.7006 63.4366 55.5388L64.6948 55.0728C65.0863 54.9237 65.473 54.7559 65.8645 54.6068C66.0419 54.5157 66.2383 54.4678 66.4376 54.467C66.6007 54.5136 66.6567 54.933 66.6846 55.0541C66.753 55.4432 66.7044 55.8438 66.5448 56.2052C66.4088 56.5793 66.3119 56.9666 66.2559 57.3608C66.196 57.732 66.2039 58.1109 66.2792 58.4792C66.3956 58.8079 66.5521 59.1209 66.7452 59.4112C66.7545 59.4532 66.8291 59.4159 66.8011 59.3739Z" fill="#263238"/>
<path d="M51.8799 57.0717C51.8799 57.0717 58.1196 52.0249 59.4151 51.0137C62.0153 49.0099 72.6821 45.3704 74.1406 45.3005C75.5992 45.2306 75.9487 48.241 68.6978 50.9158C64.8766 52.3138 64.089 54.4201 64.089 55.6084C64.089 56.7967 65.0909 59.0661 67.0807 59.1267C69.0706 59.1873 70.5338 56.3633 72.3838 56.149C74.2338 55.9346 72.8265 59.2106 71.4192 61.0699C69.9586 62.8612 68.0194 64.2008 65.8272 64.9331C64.0704 65.4783 58.6089 67.4588 58.6089 67.4588L51.8799 57.0717Z" fill="#AD6359"/>
<path d="M69.6344 57.8829C68.8515 58.4188 67.9568 59.1225 66.9689 59.0992C65.981 59.0759 65.3239 58.3769 64.8998 57.5194C64.4232 56.6689 64.2946 55.6668 64.541 54.7234C64.8241 53.8791 65.3432 53.1336 66.0369 52.5752C66.8846 51.8972 67.8264 51.3462 68.8329 50.9395C68.8748 50.9395 68.8329 50.8556 68.7956 50.8743C67.8636 51.2284 64.9418 52.2257 64.2241 54.7048C63.9851 55.6654 64.1236 56.6811 64.6109 57.5427C65.007 58.3582 65.6035 59.1597 66.5635 59.2949C67.7331 59.4626 68.8003 58.5633 69.6857 57.8969C69.7276 57.8876 69.6763 57.8549 69.6344 57.8829Z" fill="#263238"/>
<path d="M53.9162 55.3568L58.4271 71.4151C58.4271 71.4151 45.0156 75.5672 41.3016 74.295C37.5875 73.0228 28.6403 61.4008 25.6952 54.4946C23.9058 50.3006 26.4781 47.7004 30.9843 51.6008C35.6443 55.6037 42.131 61.1538 42.6343 61.3868C43.1376 61.6198 53.9162 55.3568 53.9162 55.3568Z" fill="#455A64"/>
<path d="M52.5462 64.7188C52.2853 63.5212 51.2787 58.7121 51.1203 57.5005H51.1576C51.535 58.6282 52.6674 63.3441 52.9284 64.5417C53.5091 66.9245 53.9587 69.3374 54.2751 71.7694C54.2751 71.8113 54.2145 71.8346 54.2005 71.7927C53.4782 69.4767 53.0495 67.1094 52.5462 64.7188Z" fill="#263238"/>
<path d="M25.6953 54.4951C28.0812 60.0871 34.4141 68.7827 38.7013 72.5526L28.1744 49.8678C25.5182 49.001 24.3252 51.2658 25.6953 54.4951Z" fill="#263238"/>
<path d="M5.4802 85.6286L34.47 85.7964C34.5959 85.6706 35.7282 85.1766 35.402 81.0012C34.6611 71.4902 31.4876 54.5697 29.4466 50.9629C29.0659 50.2355 28.5444 49.5911 27.9124 49.0671C27.2804 48.5431 26.5505 48.15 25.7652 47.9107C24.9799 47.6713 24.1549 47.5905 23.3381 47.6729C22.5213 47.7552 21.729 47.9992 21.0073 48.3905C19.3111 49.4484 17.7453 50.8324 15.7741 53.7635C10.9371 60.9586 6.84091 73.6804 5.1074 80.6704C4.36646 83.5642 5.39632 85.5447 5.4802 85.6286Z" fill="#455A64"/>
<path d="M25.7605 53.6517C25.2618 53.5632 22.3167 50.5155 21.5665 48.358C21.5152 48.2088 21.9672 46.8202 22.4425 45.096C22.7221 44.0568 23.0111 42.8918 23.2021 41.806C23.2394 41.587 23.9244 42.1229 23.9244 42.1229L25.2665 42.7054L29.7121 44.6486C29.0896 45.9337 28.6279 47.2907 28.3374 48.6888C28.3099 48.8425 28.2989 48.9988 28.3048 49.1548C28.307 49.1796 28.307 49.2046 28.3048 49.2294C28.3141 50.0822 26.5713 53.7962 25.7605 53.6517Z" fill="#AD6359"/>
<path d="M28.3142 49.1405C28.3163 49.1654 28.3163 49.1903 28.3142 49.2151C28.0776 49.2078 27.8422 49.1797 27.6105 49.1312C23.0577 48.2365 23.4958 42.3276 23.4958 42.3276L25.2898 42.7191L29.7122 44.6483C29.0896 45.9334 28.6279 47.2904 28.3375 48.6885C28.314 48.838 28.3062 48.9895 28.3142 49.1405Z" fill="#263238"/>
<path d="M32.2053 31.4839C32.2053 31.4839 34.2743 32.5324 34.5027 34.7459C34.731 36.9594 34.0646 39.1869 33.8689 39.2801C33.6732 39.3733 32.2053 31.4839 32.2053 31.4839Z" fill="#263238"/>
<path d="M23.3699 34.0238C22.354 36.3538 22.8479 43.5255 24.3997 45.2823C26.6505 47.8314 30.7233 48.507 32.9834 45.7157C35.1783 43.0082 34.3814 33.6929 32.6013 32.0573C29.9964 29.662 24.8657 30.58 23.3699 34.0238Z" fill="#AD6359"/>
<path d="M29.7355 39.0098C29.7355 39.0098 29.7029 39.0098 29.7029 39.0517C29.7495 39.5177 29.7029 40.0955 29.2928 40.2819V40.3099C29.8287 40.1981 29.8566 39.4571 29.7355 39.0098Z" fill="#263238"/>
<path d="M29.2741 38.5342C28.4959 38.5342 28.5332 40.0813 29.2741 40.0906C30.0151 40.0999 29.9265 38.5388 29.2741 38.5342Z" fill="#263238"/>
<path d="M32.5361 39.019C32.5361 39.019 32.5734 39.019 32.5734 39.061C32.5734 39.527 32.6479 40.0955 33.0906 40.2446V40.2726C32.5501 40.212 32.4522 39.4757 32.5361 39.019Z" fill="#263238"/>
<path d="M32.9741 38.5019C33.7477 38.4227 33.8455 39.9792 33.1279 40.0537C32.4103 40.1283 32.3031 38.5672 32.9741 38.5019Z" fill="#263238"/>
<path d="M28.6404 37.8352C28.8501 37.7746 29.0365 37.6861 29.2415 37.6069C29.463 37.5561 29.6613 37.4332 29.8054 37.2574C29.8408 37.194 29.854 37.1207 29.8431 37.0489C29.8321 36.9772 29.7975 36.9112 29.7448 36.8613C29.6247 36.7779 29.4846 36.7279 29.3389 36.7164C29.1931 36.7049 29.0469 36.7324 28.9153 36.796C28.632 36.8858 28.3915 37.0765 28.2396 37.3319C28.2069 37.3922 28.1927 37.4608 28.1987 37.5292C28.2048 37.5975 28.2308 37.6625 28.2735 37.7162C28.3162 37.7698 28.3738 37.8097 28.439 37.8309C28.5043 37.8521 28.5743 37.8536 28.6404 37.8352Z" fill="#263238"/>
<path d="M33.538 37.7003C33.3272 37.6643 33.1187 37.6161 32.9136 37.5559C32.6857 37.5361 32.4709 37.441 32.3031 37.2856C32.26 37.2277 32.2367 37.1574 32.2367 37.0852C32.2367 37.013 32.26 36.9427 32.3031 36.8848C32.4102 36.7858 32.5421 36.7175 32.6848 36.6872C32.8275 36.6568 32.9758 36.6655 33.1139 36.7124C33.4087 36.7596 33.6748 36.916 33.8595 37.1504C33.8985 37.2053 33.9207 37.2702 33.9237 37.3373C33.9267 37.4045 33.9102 37.4711 33.8762 37.5292C33.8423 37.5872 33.7923 37.6342 33.7323 37.6646C33.6723 37.6949 33.6049 37.7074 33.538 37.7003Z" fill="#263238"/>
<path d="M29.4047 43.502C29.5212 43.6139 29.6423 43.7676 29.8148 43.777C29.9949 43.7696 30.1713 43.7235 30.332 43.6418C30.332 43.6418 30.3646 43.6418 30.332 43.6418C30.2659 43.739 30.1746 43.8164 30.0679 43.8656C29.9612 43.9149 29.8431 43.9342 29.7262 43.9214C29.6266 43.8985 29.5361 43.8463 29.4663 43.7716C29.3966 43.6969 29.3508 43.603 29.3348 43.502C29.3488 43.4974 29.386 43.488 29.4047 43.502Z" fill="#263238"/>
<path d="M29.8753 42.0433C30.0016 42.2318 30.1659 42.3917 30.3577 42.5129C30.5495 42.6341 30.7646 42.7138 30.9891 42.7469C31.1853 42.7749 31.3846 42.7749 31.5809 42.7469H31.6974H31.7999C31.8254 42.7426 31.8487 42.7296 31.8657 42.71C31.8827 42.6905 31.8924 42.6656 31.8931 42.6398C31.8954 42.6227 31.8954 42.6055 31.8931 42.5885V42.5419C31.8931 42.1738 31.8418 41.6099 31.8418 41.6099C31.9816 41.6751 32.6806 41.9687 32.6666 41.7777C32.5792 40.1019 32.3232 38.4392 31.9024 36.8148C31.8993 36.8054 31.8934 36.7973 31.8855 36.7916C31.8775 36.7858 31.868 36.7827 31.8581 36.7827C31.8483 36.7827 31.8388 36.7858 31.8308 36.7916C31.8229 36.7973 31.8169 36.8054 31.8139 36.8148C31.8838 38.3665 32.224 39.8904 32.3218 41.4468C32.0727 41.3367 31.809 41.2629 31.5389 41.2278C31.4877 41.2278 31.6554 42.3182 31.6414 42.486C31.0307 42.5633 30.4142 42.3958 29.9266 42.02C29.88 41.9734 29.8427 42.006 29.8753 42.0433Z" fill="#263238"/>
<path d="M31.3572 42.5789C31.1603 42.8492 30.8971 43.0643 30.5929 43.2033C30.4242 43.2703 30.2395 43.2865 30.0617 43.2499C29.6703 43.1567 29.6516 42.7839 29.7169 42.4997C29.7526 42.3385 29.8074 42.182 29.88 42.0337C30.3019 42.3679 30.8193 42.5589 31.3572 42.5789Z" fill="#263238"/>
<path d="M30.5929 43.2036C30.4242 43.2706 30.2395 43.2868 30.0617 43.2502C29.6703 43.1571 29.6516 42.7843 29.7169 42.5C29.9196 42.506 30.1148 42.578 30.2729 42.7049C30.431 42.8319 30.5433 43.007 30.5929 43.2036Z" fill="#FF98B9"/>
<path d="M23.4397 40.1421C24.2692 40.2958 24.9216 37.7748 25.0754 36.8148C25.2105 35.9714 25.1779 33.3431 25.1965 33.1614C25.2152 32.9796 28.9665 35.058 30.9237 34.2332C32.8809 33.4084 34.0273 31.4372 33.9574 30.5891C33.8875 29.7409 31.1287 27.8676 28.9385 28.0074C26.7483 28.1472 24.1201 31.2694 24.1201 31.2694C24.4288 30.8251 24.703 30.3577 24.9402 29.8714C24.8936 29.7782 23.5423 30.5005 23.4071 31.5304C23.4071 31.5304 23.5423 30.2396 23.4304 30.2302C23.3186 30.2209 22.354 31.4185 22.6941 32.2061C22.6941 32.2061 21.5571 33.4456 21.5757 34.6619C21.5944 35.8782 22.4611 39.9603 23.4397 40.1421Z" fill="#263238"/>
<path d="M32.3125 33.6461C31.7506 34.0374 31.1333 34.3421 30.4811 34.5502C29.7417 34.6996 28.977 34.666 28.2536 34.4523C27.5261 34.2534 26.8354 33.9387 26.2079 33.5203C25.6533 33.1615 25.1501 32.7141 24.5676 32.4019C24.4184 32.3227 24.2833 32.5371 24.3812 32.6536C25.4312 33.8208 26.8275 34.621 28.3655 34.937C29.0798 35.0852 29.8205 35.0446 30.5143 34.819C31.2082 34.5934 31.8312 34.1908 32.3218 33.6508C32.3218 33.6508 32.3218 33.6415 32.3125 33.6461Z" fill="#263238"/>
<path d="M24.1854 39.9699C24.1854 39.9699 22.8153 37.5466 21.7295 38.0126C20.6438 38.4786 21.5292 41.8898 22.6942 42.4536C22.839 42.5365 22.9991 42.5893 23.1649 42.6088C23.3306 42.6283 23.4986 42.6141 23.6587 42.5671C23.8189 42.5201 23.9679 42.4413 24.0968 42.3353C24.2257 42.2293 24.3319 42.0984 24.409 41.9504L24.1854 39.9699Z" fill="#AD6359"/>
<path d="M22.0046 38.9863C22.0046 38.9863 21.9813 38.9863 22.0046 39.0143C22.8201 39.4383 23.1929 40.2678 23.4305 41.1159C23.3897 41.0261 23.3298 40.9463 23.2551 40.8819C23.1804 40.8176 23.0925 40.7702 22.9976 40.7432C22.9028 40.7161 22.8032 40.71 22.7057 40.7253C22.6083 40.7406 22.5153 40.7769 22.4333 40.8317C22.4271 40.8317 22.4212 40.8341 22.4168 40.8385C22.4124 40.8429 22.41 40.8488 22.41 40.855C22.41 40.8612 22.4124 40.8671 22.4168 40.8715C22.4212 40.8758 22.4271 40.8783 22.4333 40.8783C22.5868 40.8468 22.7463 40.8629 22.8903 40.9245C23.0344 40.9862 23.1562 41.0903 23.2395 41.2231C23.3773 41.4476 23.4899 41.6868 23.575 41.9361C23.6076 42.0153 23.7474 41.9874 23.7288 41.8988V41.8755C23.8546 40.7944 23.1556 39.2053 22.0046 38.9863Z" fill="#263238"/>
<path d="M28.3142 49.1823L26.1799 53.0455L21.7902 47.3276L20.1685 48.7955C20.1685 48.7955 24.1015 57.5097 24.1761 57.1463L26.2591 53.8843L28.3701 56.5964L28.9106 50.4918L28.3142 49.1823Z" fill="white"/>
<path d="M28.7801 53.5954C28.836 52.5842 28.9199 51.5683 28.9292 50.5524C28.9292 50.5198 28.8733 50.4965 28.8593 50.5524C28.5424 51.4844 28.3514 55.3662 28.2349 56.2842C28.151 56.1677 26.2684 53.8843 26.2404 53.9123C25.8117 54.4202 24.2878 56.8108 24.176 57.0298C23.5516 55.6318 21.1423 50.599 20.3734 49.2662C20.3683 49.2603 20.3613 49.2561 20.3536 49.2544C20.3459 49.2526 20.3379 49.2533 20.3306 49.2564C20.3234 49.2595 20.3173 49.2649 20.3133 49.2717C20.3092 49.2784 20.3075 49.2863 20.3082 49.2942C20.8301 50.7388 24.0036 57.5284 24.0688 57.5191C24.8574 56.4008 25.587 55.242 26.2544 54.0474C26.5619 54.5134 28.4306 57.0811 28.4539 56.9319C28.6216 55.8263 28.7305 54.7126 28.7801 53.5954Z" fill="#263238"/>
<path d="M41.5532 70.777C42.3454 70.777 42.9046 70.7397 42.9512 70.735L42.8441 69.1739C42.8068 69.1739 39.2186 69.4069 37.3732 68.6613C35.9053 68.0649 34.2836 63.9361 33.566 60.2733C33.1 57.9433 33.361 57.235 33.566 57.0113C33.6079 56.9647 33.7198 56.8296 34.1345 56.8296H35.5651C35.9799 58.0785 36.6416 59.332 37.6388 59.332H40.528V57.7896H37.7553C37.3567 57.2028 37.0663 56.5494 36.8979 55.8603L36.7395 55.2871H34.1345C33.8003 55.2669 33.466 55.3246 33.1579 55.4556C32.8498 55.5866 32.5764 55.7874 32.3591 56.0421C31.6787 56.8576 31.5762 58.2556 32.0422 60.5856C32.4163 62.4693 32.9719 64.3123 33.7011 66.089C34.6331 68.3072 35.6816 69.6586 36.8 70.1106C38.1747 70.6698 40.2018 70.777 41.5532 70.777Z" fill="#FFC727"/>
<path opacity="0.2" d="M38.2306 57.7705H40.5233V59.3363H38.5847L38.2306 57.7705Z" fill="black"/>
<path opacity="0.2" d="M42.9653 70.735C42.9047 70.735 42.3455 70.777 41.5673 70.777C41.4368 70.777 41.3017 70.777 41.1572 70.777L40.8077 69.2065C41.9447 69.2438 42.8534 69.2065 42.8721 69.2065L42.9653 70.735Z" fill="black"/>
<path d="M56.5724 70.7767C55.7802 70.7767 55.221 70.7395 55.1744 70.7348L55.2816 69.1737C55.3188 69.1737 58.907 69.4067 60.7524 68.6611C62.2203 68.0646 63.842 63.9359 64.5596 60.2731C65.0256 57.9431 64.7646 57.2348 64.5596 57.0111C64.5177 56.9645 64.4105 56.8293 63.9957 56.8293H62.5651C62.155 58.0782 61.4887 59.3318 60.4914 59.3318H57.6022V57.7893H60.3982C60.7968 57.2025 61.0872 56.5491 61.2557 55.8601L61.4141 55.2869H64.0237C64.3571 55.2674 64.6905 55.3254 64.9977 55.4564C65.305 55.5874 65.5777 55.7878 65.7945 56.0418C66.4702 56.862 66.5681 58.2693 66.1067 60.6039C65.7326 62.4877 65.177 64.3307 64.4478 66.1074C63.5158 68.3256 62.4673 69.677 61.3489 70.129C59.9509 70.6696 57.9238 70.7767 56.5724 70.7767Z" fill="#FFC727"/>
<path opacity="0.2" d="M59.895 57.7705H57.6023V59.3363H59.5408L59.895 57.7705Z" fill="black"/>
<path opacity="0.2" d="M55.1604 70.735C55.221 70.735 55.7802 70.777 56.5584 70.777C56.6889 70.777 56.8287 70.777 56.9685 70.777L57.318 69.2065C56.181 69.2438 55.2723 69.2065 55.2536 69.2065L55.1604 70.735Z" fill="black"/>
<path d="M40.8961 86.4017V87.2778H57.2341V86.4017H55.8314L54.7923 84.9059L50.0344 83.0139V73.7358H48.0912V83.0139L43.338 84.9059L42.2941 86.4017H40.8961Z" fill="#FFC727"/>
<path d="M47.5507 74.9707H50.5703V73.9921H47.5507V74.9707Z" fill="#FFC727"/>
<path opacity="0.2" d="M47.5552 74.6169L50.5703 74.4817V73.9971H47.5552V74.6169Z" fill="black"/>
<path d="M39.0741 54.2295C39.0741 54.2295 39.8337 66.8721 41.8282 70.3717C43.8226 73.8714 48.0726 74.165 49.0651 74.165C50.0577 74.165 54.3076 73.8667 56.2975 70.3717C58.2873 66.8767 59.0702 54.2295 59.0702 54.2295H39.0741Z" fill="#FFC727"/>
<path opacity="0.3" d="M47.5461 74.0112C45.8265 73.7223 43.2542 72.8602 41.8282 70.3671C39.8338 66.8721 39.0695 54.2295 39.0695 54.2295H40.9335C41.1898 56.8857 41.6978 67.0258 43.1377 69.9756C44.4145 72.5526 47.3457 73.9366 47.5461 74.0112Z" fill="white"/>
<path opacity="0.2" d="M55.8315 86.4018H42.2942L42.667 85.8659L55.1278 85.3906L55.8315 86.4018Z" fill="black"/>
<path opacity="0.1" d="M49.0652 58.2227L50.137 60.3989L52.5369 60.7437L50.7987 62.44L51.2088 64.8305L49.0652 63.7028L46.9169 64.8305L47.327 62.44L45.5888 60.7437L47.9887 60.3989L49.0652 58.2227Z" fill="black"/>
<path d="M16.6641 53.3253C12.6985 60.7813 4.81376 77.6878 8.38332 80.8566C14.2596 86.0571 26.8369 89.5148 30.8818 90.1766C32.6293 90.4515 37.0004 77.4548 35.2855 76.6626C33.2258 75.7306 20.4248 72.5664 20.2896 72.0026C20.1545 71.4387 21.2962 62.7198 21.161 56.0327C20.984 47.7053 18.3045 50.2217 16.6641 53.3253Z" fill="#AD6359"/>
<path d="M29.0505 76.6109C29.0505 76.6109 33.9621 74.4301 37.2428 73.1486C39.0695 72.4356 42.3175 71.4943 43.9019 71.5875C46.2692 71.7226 56.0925 73.8056 55.6358 76.2009C55.2257 78.3631 47.0148 75.5019 47.0148 75.5019C47.0148 75.5019 55.5566 77.6594 54.5826 80.1619C53.6087 82.6643 44.7593 78.2093 44.7593 78.2093C44.7593 78.2093 53.4782 80.6232 52.0802 83.0697C51.0131 84.9104 42.7602 81.3175 42.7602 81.3175C42.7602 81.3175 50.2442 83.4425 49.2283 85.3811C48.1006 87.5247 40.2904 84.6867 40.2904 84.6867C36.87 89.1836 33.5148 90.1715 30.8725 90.1622C30.2574 90.1576 29.0505 76.6109 29.0505 76.6109Z" fill="#AD6359"/>
<path d="M44.5123 74.682C50.9244 75.7911 53.7251 78.2982 53.6412 78.2469C51.5582 77.0307 48.0492 75.8797 47.0426 75.5721C46.0361 75.2645 45.4862 75.0269 44.4983 74.7193C44.475 74.7147 44.489 74.6774 44.5123 74.682Z" fill="#263238"/>
<path d="M42.9419 78.1211C45.5534 78.4485 48.0859 79.2374 50.4212 80.4511C50.5097 80.507 50.4678 80.5303 50.3699 80.4977C49.1211 80.0736 44.1908 78.4986 42.9139 78.1397C42.9093 78.1444 42.9186 78.1211 42.9419 78.1211Z" fill="#263238"/>
<path d="M41.3855 80.9916C43.406 81.2907 45.353 81.9639 47.1266 82.9768C47.2152 83.0234 47.1266 83.0607 47.0521 83.0234C45.1555 82.329 43.6736 81.7699 41.3715 81.0615C41.3622 81.0476 41.3622 80.9823 41.3855 80.9916Z" fill="#263238"/>
<path d="M31.2825 75.2647L26.3942 90.7778C26.3942 90.7778 8.89589 84.1699 7.11111 80.1996C5.32633 76.2293 13.9893 56.5734 16.8598 52.4167C19.7304 48.26 21.0538 49.6207 21.5198 53.8706C21.9858 58.1205 20.4341 71.7417 20.5459 71.9794C20.6577 72.217 31.2825 75.2647 31.2825 75.2647Z" fill="#455A64"/>
<path d="M20.9141 65.5904C21.001 64.5714 21.0834 63.5524 21.161 62.5334C21.203 62.0022 21.2403 61.471 21.2869 60.9444C21.2869 60.7021 21.3288 60.4551 21.3474 60.2128C21.3668 60.0924 21.3792 59.971 21.3847 59.8493C21.3837 59.6922 21.4024 59.5356 21.4406 59.3833C21.4406 59.3553 21.4919 59.3553 21.4919 59.3833C21.4919 59.6582 21.5432 59.5417 21.4919 59.7561C21.4406 59.9704 21.4919 60.073 21.4919 60.2221C21.4919 60.4644 21.4919 60.6881 21.4919 60.9537C21.4919 61.457 21.4546 61.9556 21.4267 62.4542C21.4267 62.5195 21.4267 62.5847 21.4267 62.6546C21.4267 62.6546 21.4267 62.6173 21.4267 62.5987C21.5385 62.0441 21.655 61.4943 21.7715 60.9397H21.8088C21.7575 61.5036 21.683 62.0628 21.5804 62.6173C21.5199 62.9389 21.436 63.2557 21.3568 63.5493C21.3148 64.2157 21.2775 64.8867 21.2263 65.5531C21.0725 67.6222 20.9047 69.7005 20.5832 71.7509C21.5152 72.0259 22.4099 72.2635 23.314 72.5385C24.218 72.8134 25.1314 73.1116 26.0354 73.4006C26.9394 73.6895 27.8435 73.9784 28.7428 74.286C29.1762 74.4304 29.6003 74.5842 30.029 74.752C30.4577 74.9197 30.961 75.1294 31.427 75.2832C31.4783 75.2832 31.427 75.3671 31.399 75.3531C30.9097 75.204 30.4065 75.1201 29.9125 74.9803L28.6217 74.6122C27.713 74.3419 26.8043 74.0576 25.8956 73.7687C24.9869 73.4798 24.0782 73.2048 23.1742 72.9066C22.2701 72.6084 21.3894 72.2728 20.4853 71.9746C20.4719 71.97 20.4596 71.9626 20.4492 71.953C20.4388 71.9434 20.4304 71.9317 20.4248 71.9187C20.4053 71.9087 20.3892 71.8932 20.3784 71.8742C20.3676 71.8551 20.3627 71.8333 20.3642 71.8115C20.4853 69.7425 20.7323 67.6688 20.9141 65.5904Z" fill="#263238"/>
<path d="M25.2479 81.9328C25.616 80.8051 27.1119 76.3128 27.5779 75.2271H27.6152C27.3775 76.3501 26.0261 80.8191 25.658 81.9561C24.9829 84.2274 24.1833 86.4598 23.2627 88.6432C23.2627 88.6805 23.1788 88.6665 23.1882 88.6432C23.7241 86.3551 24.5256 84.1509 25.2479 81.9328Z" fill="#263238"/>
<path d="M14.7583 85.6845C13.477 85.1631 12.2316 84.5576 11.0303 83.8718C9.81496 83.1956 8.69981 82.3534 7.71701 81.3694C7.19637 80.8626 6.83518 80.2147 6.67783 79.5054C6.65101 79.3265 6.64009 79.1456 6.64521 78.9648C6.64521 78.7877 6.64521 78.6107 6.64521 78.4336C6.68249 78.0887 6.70579 77.7392 6.74773 77.3944C6.96213 76.0266 7.25779 74.6728 7.63313 73.3402C8.40048 70.6933 9.29675 68.0915 10.322 65.5347C10.8377 64.2579 11.3782 62.9934 11.9436 61.7415C12.5355 60.4972 13.1226 59.253 13.8076 58.0601C13.2158 59.3043 12.6706 60.5625 12.1533 61.83C11.6361 63.0975 11.1281 64.379 10.6575 65.6652C9.70217 68.2328 8.79347 70.8285 8.08049 73.466C7.69 74.7742 7.37877 76.1047 7.14849 77.4503C7.10655 77.7858 7.07859 78.1214 7.04131 78.4569C7.02253 78.7859 7.02253 79.1158 7.04131 79.4448C7.19153 80.0832 7.51388 80.6683 7.97331 81.1364C8.90617 82.1277 9.9727 82.984 11.1421 83.6807C12.3076 84.4183 13.515 85.0874 14.7583 85.6845Z" fill="#263238"/>
<path d="M12.7824 59.4297C12.6239 60.1147 12.3956 60.7624 12.2139 61.4381C12.2278 61.0867 12.2889 60.7387 12.3956 60.4036C12.497 60.0687 12.6263 59.7429 12.7824 59.4297Z" fill="#263238"/>
<rect x="78" width="35.7717" height="35.7717" rx="12" fill="#EBEBEB"/>
<rect x="155.606" width="35.7717" height="35.7717" rx="12" fill="#EBEBEB"/>
<rect x="116.803" width="35.7717" height="35.7717" rx="12" fill="#EBEBEB"/>
<rect x="78" y="39.4097" width="35.7717" height="35.7717" rx="12" fill="#EBEBEB"/>
<rect x="155.606" y="39.4097" width="35.7717" height="35.7717" rx="12" fill="#EBEBEB"/>
<rect x="116.803" y="39.4097" width="35.7717" height="35.7717" rx="12" fill="#EBEBEB"/>
<rect x="78" y="78.8188" width="35.7717" height="35.7717" rx="12" fill="#EBEBEB"/>
<rect x="155.606" y="78.8188" width="35.7717" height="35.7717" rx="12" fill="#EBEBEB"/>
<rect x="116.803" y="78.8188" width="35.7717" height="35.7717" rx="12" fill="#EBEBEB"/>
<rect x="78" y="118.229" width="35.7717" height="35.7717" rx="12" fill="#EBEBEB"/>
<rect x="155.606" y="118.229" width="35.7717" height="35.7717" rx="12" fill="#EBEBEB"/>
<rect x="116.803" y="118.229" width="35.7717" height="35.7717" rx="12" fill="#EBEBEB"/>
</svg>
