<svg width="192" height="212" viewBox="0 0 192 212" fill="none" xmlns="http://www.w3.org/2000/svg">
<path d="M57.9005 208.806C56.8241 209.142 26.3011 208.489 25.1547 207.73C24.7167 207.445 24.5536 202.99 24.507 197.608C24.507 196.443 24.507 195.25 24.507 194.025C24.507 192.58 24.507 191.121 24.5396 189.7C24.6188 183.325 24.8099 177.71 24.8099 177.71L44.6801 178.078L44.4518 190.068L44.3679 194.393L44.1955 197.972C44.1955 197.972 55.7709 203.452 56.9406 204.421C58.1102 205.39 58.9723 208.475 57.9005 208.806Z" fill="#AD6359"/>
<path d="M57.9005 208.806C56.8241 209.142 26.3011 208.489 25.1547 207.73C24.7167 207.445 24.5536 202.991 24.507 197.608C24.507 196.443 24.507 195.25 24.507 194.025C24.507 192.58 24.507 191.121 24.5396 189.7L44.4518 190.068L44.3679 194.393L44.1955 197.972C44.1955 197.972 55.7709 203.452 56.9406 204.421C58.1102 205.39 58.9723 208.475 57.9005 208.806Z" fill="white"/>
<path d="M57.9891 208.858C57.2901 209.072 44.2887 208.858 34.8242 208.508C32.6387 208.42 30.6302 208.322 29.0178 208.219C26.795 208.075 25.2898 207.926 25.0615 207.753C24.5303 207.399 24.3951 200.866 24.3998 193.974L44.3725 194.346L44.2001 197.944C44.2001 197.944 55.8501 203.452 57.0151 204.426C58.1801 205.4 59.0702 208.531 57.9891 208.858Z" fill="#C7C7C7"/>
<path d="M57.5742 207.599C52.4482 207.362 31.6693 206.896 26.5712 207.05C26.5293 207.05 26.5293 207.082 26.5712 207.082C31.66 207.432 52.4296 207.73 57.5742 207.683C57.6721 207.702 57.6721 207.623 57.5742 207.599Z" fill="#263238"/>
<path d="M44.9503 196.83C42.9372 196.411 40.4534 196.667 38.8923 198.079C38.8318 198.13 38.8923 198.219 38.9762 198.2C40.924 197.618 42.9282 197.245 44.955 197.087C44.9847 197.08 45.0113 197.064 45.0303 197.04C45.0492 197.016 45.0592 196.987 45.0587 196.957C45.0581 196.926 45.047 196.897 45.0272 196.874C45.0075 196.851 44.9803 196.835 44.9503 196.83Z" fill="#263238"/>
<path d="M46.3951 197.743C44.3773 197.324 41.8935 197.58 40.337 198.988C40.2765 199.044 40.337 199.128 40.4209 199.109C42.3681 198.525 44.3727 198.153 46.3997 198C46.4294 197.994 46.4561 197.977 46.475 197.953C46.4939 197.93 46.504 197.9 46.5034 197.87C46.5029 197.839 46.4917 197.81 46.472 197.787C46.4522 197.764 46.425 197.749 46.3951 197.743Z" fill="#263238"/>
<path d="M47.8395 198.657C45.8217 198.233 43.3379 198.494 41.7582 199.901C41.6976 199.957 41.7582 200.041 41.8421 200.022C43.7913 199.44 45.7971 199.066 47.8255 198.909C47.8589 198.911 47.8916 198.899 47.9165 198.877C47.9415 198.855 47.9565 198.823 47.9583 198.79C47.9602 198.757 47.9487 198.724 47.9264 198.699C47.9041 198.674 47.8729 198.659 47.8395 198.657Z" fill="#263238"/>
<path d="M49.2841 199.566C47.2663 199.146 44.7872 199.403 43.2261 200.815C43.1655 200.866 43.2261 200.954 43.31 200.936C45.2561 200.353 47.2588 199.98 49.2841 199.822C49.3139 199.816 49.3408 199.8 49.3601 199.777C49.3794 199.754 49.39 199.724 49.39 199.694C49.39 199.663 49.3794 199.634 49.3601 199.611C49.3408 199.587 49.3139 199.571 49.2841 199.566Z" fill="#263238"/>
<path d="M42.3687 208.746C39.8011 208.681 37.2008 208.597 34.8242 208.504C32.634 208.42 30.6302 208.322 29.0178 208.219C26.795 208.075 25.2898 207.93 25.0615 207.753C24.5955 207.441 24.4324 202.394 24.4091 196.518C28.9386 199.561 37.8392 205.642 42.3687 208.746Z" fill="#A6A6A6"/>
<path d="M46.1481 197.725L23.4725 197.748C23.4725 197.748 24.7167 146.702 24.4744 145.514C23.8873 142.676 10.993 97.6699 10.993 97.6699L28.8968 97.9775L33.7152 98.0847C33.7152 98.0847 34.4841 105.578 34.6985 106.375C37.6948 117.293 43.5525 135.933 44.7268 142.849C46.7912 154.825 46.1481 197.725 46.1481 197.725Z" fill="#263238"/>
<path d="M45.4163 193.936C41.8793 193.843 29.3486 193.47 24.6327 193.825C24.5954 193.825 24.5954 193.885 24.6327 193.89C26.2451 194.155 41.8747 194.081 45.4163 194.034C45.4267 194.031 45.4358 194.025 45.4423 194.016C45.4488 194.007 45.4523 193.996 45.4523 193.985C45.4523 193.974 45.4488 193.964 45.4423 193.955C45.4358 193.946 45.4267 193.94 45.4163 193.936Z" fill="#37474F"/>
<path d="M26.2498 144.387C25.5741 141.628 20.5226 124.437 18.9802 119.003C17.4377 113.57 15.9838 108.122 14.651 102.642C14.4833 101.948 14.3108 101.244 14.1244 100.564C14.1244 100.503 14.0266 100.531 14.0359 100.587C14.5485 103.346 15.2195 106.086 15.8719 108.817C16.5243 111.547 17.2094 114.269 17.941 116.981C19.4042 122.433 21.0011 127.845 22.7315 133.216C23.5936 135.896 25.0195 141.39 25.7791 144.102C26.5387 146.814 25.3131 191.261 25.3784 191.984C25.3848 192.022 25.4045 192.056 25.434 192.081C25.4634 192.106 25.5006 192.119 25.5391 192.119C25.5776 192.119 25.6149 192.106 25.6443 192.081C25.6737 192.056 25.6934 192.022 25.6999 191.984C25.7978 186.741 26.9162 147.113 26.2498 144.387Z" fill="#37474F"/>
<path d="M28.9014 97.9731C28.9014 97.9731 24.521 145.743 24.4744 145.505C23.9106 142.76 11.7853 100.438 11.0257 97.7913C10.9977 97.7075 10.9884 97.6655 10.9884 97.6655L28.9014 97.9731Z" fill="#37474F"/>
<path d="M34.3722 211.425C33.2957 211.761 2.77274 211.104 1.62638 210.344C1.18834 210.06 1.02524 205.605 0.978638 200.223C0.978638 199.062 0.978638 197.865 0.978638 196.639C0.978638 195.199 0.97864 193.736 1.0066 192.315C1.08582 185.94 1.27688 180.329 1.27688 180.329L21.1518 180.697L20.9188 192.683L20.8349 197.007L20.6625 200.591C20.6625 200.591 32.2379 206.066 33.4076 207.04C34.5772 208.014 35.4533 211.094 34.3722 211.425Z" fill="#AD6359"/>
<path d="M34.3722 211.425C33.2957 211.761 2.77274 211.104 1.62638 210.344C1.18834 210.06 1.02524 205.605 0.978638 200.222C0.978638 199.062 0.978638 197.865 0.978638 196.639C0.978638 195.199 0.97864 193.736 1.0066 192.314L20.9188 192.683L20.8349 197.007L20.6625 200.591C20.6625 200.591 32.2379 206.066 33.4076 207.04C34.5772 208.014 35.4533 211.094 34.3722 211.425Z" fill="white"/>
<path d="M34.47 211.472C33.771 211.686 20.7696 211.495 11.3052 211.122C9.11961 211.034 7.11115 210.936 5.49879 210.838C3.27597 210.693 1.77079 210.544 1.54245 210.372C1.01121 210.018 0.876071 203.484 0.880731 196.592L20.8535 196.96L20.6811 200.558C20.6811 200.558 32.3311 206.066 33.4961 207.045C34.6611 208.023 35.5465 211.132 34.47 211.472Z" fill="#C7C7C7"/>
<path d="M34.06 210.232C28.934 209.999 8.15037 209.529 3.05233 209.687C3.01039 209.687 3.01039 209.715 3.05233 209.72C8.14105 210.065 28.9107 210.363 34.0553 210.321C34.1625 210.316 34.1672 210.242 34.06 210.232Z" fill="#263238"/>
<path d="M21.4313 199.449C19.4182 199.025 16.9344 199.286 15.3733 200.693C15.3127 200.749 15.3733 200.833 15.4572 200.815C17.4064 200.232 19.4122 199.858 21.4406 199.701C21.474 199.7 21.5055 199.685 21.5282 199.661C21.5509 199.636 21.563 199.604 21.5618 199.57C21.5605 199.537 21.5461 199.505 21.5216 199.483C21.4972 199.46 21.4647 199.448 21.4313 199.449Z" fill="#263238"/>
<path d="M22.8759 200.358C20.8581 199.939 18.3743 200.195 16.8179 201.607C16.7573 201.658 16.8179 201.747 16.9018 201.728C18.8431 201.145 20.8411 200.77 22.8619 200.61C22.89 200.604 22.9154 200.589 22.9341 200.567C22.9528 200.545 22.9638 200.518 22.9654 200.489C22.967 200.461 22.9591 200.432 22.9429 200.409C22.9267 200.385 22.9031 200.367 22.8759 200.358Z" fill="#263238"/>
<path d="M24.3206 201.271C22.3028 200.852 19.819 201.108 18.2393 202.516C18.1787 202.571 18.2393 202.66 18.3231 202.637C20.2731 202.06 22.2789 201.693 24.3066 201.542C24.3424 201.543 24.3775 201.531 24.4042 201.507C24.4309 201.483 24.4469 201.449 24.4487 201.413C24.4506 201.378 24.4381 201.342 24.4141 201.316C24.39 201.289 24.3564 201.273 24.3206 201.271Z" fill="#263238"/>
<path d="M25.7605 202.184C23.7428 201.76 21.2636 202.021 19.7025 203.429C19.6419 203.485 19.7025 203.568 19.7864 203.55C21.7337 202.966 23.7382 202.595 25.7652 202.441C25.7949 202.435 25.8215 202.418 25.8405 202.394C25.8594 202.371 25.8694 202.341 25.8689 202.311C25.8683 202.28 25.8572 202.251 25.8374 202.228C25.8177 202.205 25.7905 202.19 25.7605 202.184Z" fill="#263238"/>
<path d="M22.0045 200.036L0 199.631C0 199.631 6.17916 120.267 5.41026 116.063C4.15206 109.18 5.53608 102.899 7.36746 97.5957L29.9778 97.9918C29.9778 97.9918 30.29 104.017 28.0113 107.568C28.0113 107.568 25.9795 108.803 24.9916 109.344L22.0045 200.036Z" fill="#263238"/>
<path d="M21.3987 196.131C18.0622 195.982 19.0221 195.978 15.6856 195.866C14.0499 195.81 3.31793 195.46 1.78479 195.679C1.75217 195.679 1.74751 195.74 1.78479 195.745C3.30395 196.033 14.0406 196.211 15.6762 196.211C19.0175 196.257 18.0575 196.211 21.3987 196.211C21.4046 196.206 21.4093 196.2 21.4125 196.193C21.4158 196.186 21.4174 196.178 21.4174 196.171C21.4174 196.163 21.4158 196.156 21.4125 196.149C21.4093 196.142 21.4046 196.136 21.3987 196.131Z" fill="#37474F"/>
<path d="M29.3674 106.627C27.2418 107.607 25.2028 108.765 23.2721 110.089C23.2561 110.099 23.2446 110.115 23.2402 110.133C23.2358 110.151 23.2389 110.171 23.2488 110.187C23.2587 110.203 23.2746 110.214 23.2929 110.219C23.3113 110.223 23.3306 110.22 23.3467 110.21C25.4064 109.12 27.5127 108.062 29.5072 106.864C29.6657 106.771 29.5305 106.557 29.3674 106.627Z" fill="#37474F"/>
<path d="M26.6413 106.268C26.5099 106.681 26.4056 107.103 26.329 107.531C26.2365 107.862 26.208 108.209 26.2451 108.551C26.2451 108.616 26.3477 108.612 26.3803 108.551C26.5504 108.233 26.6684 107.89 26.7298 107.535C26.8416 107.144 26.9581 106.752 27.0607 106.356C27.0712 106.301 27.0597 106.244 27.0286 106.197C26.9975 106.15 26.9493 106.118 26.8944 106.106C26.8395 106.095 26.7822 106.105 26.7348 106.135C26.6875 106.165 26.6539 106.213 26.6413 106.268Z" fill="#37474F"/>
<path d="M26.4875 104.199C26.5527 103.845 26.6179 103.486 26.6878 103.132C26.7577 102.777 26.8603 102.395 26.9069 102.023C26.9069 101.962 27.0094 101.985 26.9954 102.023C26.9348 102.381 26.9208 102.75 26.8836 103.113C26.8463 103.476 26.809 103.84 26.7671 104.199C26.6832 104.874 26.5574 105.555 26.4082 106.217C26.7661 106.164 27.1071 106.03 27.4055 105.825C27.6888 105.55 27.8794 105.193 27.9507 104.805C28.0626 104.399 28.1604 103.984 28.2816 103.579C28.4322 103.134 28.5444 102.677 28.6171 102.214C28.6171 102.153 28.7196 102.172 28.7103 102.214C28.607 103.191 28.4056 104.156 28.1092 105.093C28.0412 105.46 27.8446 105.791 27.5546 106.026C27.1791 106.218 26.7685 106.332 26.3477 106.361C26.3011 106.384 26.2265 106.361 26.2312 106.3C26.2871 105.634 26.3616 104.907 26.4875 104.199Z" fill="#37474F"/>
<path d="M8.90056 115.853C8.77474 114.274 8.54641 112.703 8.40195 111.128C8.11769 107.955 8.62096 104.837 9.14754 101.701C9.27336 100.974 8.93318 101.342 8.92386 101.403C8.30776 104.207 8.02001 107.074 8.06642 109.944C8.1503 112.74 8.59301 115.476 8.58369 118.263C8.57437 121.049 8.30408 123.901 8.07108 126.711C7.83808 129.521 7.60508 132.364 7.36742 135.188C6.43542 146.553 5.5407 157.919 4.63666 169.285C4.38502 172.458 4.17066 175.632 3.90038 178.805C3.6301 181.979 3.2806 189.989 3.10352 193.251C3.10352 193.531 3.50428 193.517 3.53224 193.251C4.1194 187.552 4.59472 177.09 5.06538 171.382C5.53604 165.673 5.94612 160.067 6.41212 154.396C6.87812 148.725 7.30684 143.091 7.74954 137.438C7.96856 134.61 8.17826 131.781 8.39728 128.957C8.6163 126.133 8.86328 123.323 8.9658 120.499C9.0303 118.951 9.00852 117.4 8.90056 115.853Z" fill="#37474F"/>
<path d="M16.7574 101.645C16.7528 101.637 16.7464 101.631 16.7386 101.626C16.7308 101.622 16.722 101.62 16.7131 101.62C16.7041 101.62 16.6953 101.622 16.6876 101.626C16.6798 101.631 16.6733 101.637 16.6688 101.645C16.5347 102.015 16.4592 102.403 16.4451 102.796C16.3746 103.217 16.2702 103.632 16.1329 104.036C15.8828 104.852 15.4252 105.589 14.8048 106.175C13.4301 107.414 11.6174 107.847 9.86524 108.244C9.8 108.244 9.8233 108.346 9.86524 108.351C10.8989 108.415 11.9349 108.272 12.9129 107.931C13.7835 107.683 14.5907 107.251 15.2801 106.664C15.9396 106.06 16.3969 105.268 16.5896 104.394C16.6871 103.934 16.7448 103.467 16.762 102.996C16.762 102.773 16.762 102.53 16.762 102.325C16.8022 102.1 16.8006 101.87 16.7574 101.645Z" fill="#37474F"/>
<path d="M25.8397 71.0613C27.5732 76.5042 37.3546 89.7013 41.5998 90.9502C44.6708 91.8822 57.4904 85.8801 61.1019 83.5641C64.5876 81.3319 56.2975 71.0566 54.1632 72.2263C51.1482 73.8759 44.1861 79.0439 42.9326 78.9647C42.0565 78.9087 37.4384 75.2367 30.4624 68.7406C26.6039 65.1478 24.8052 67.7993 25.8397 71.0613Z" fill="#AD6359"/>
<path d="M58.8697 68.5589C60.8316 67.995 63.0358 67.1888 65.1747 67.3519C67.3137 67.515 68.9027 70.4462 68.8654 71.2524C68.8282 72.0585 67.7144 77.0494 65.6034 76.9236C63.4925 76.7978 64.9837 73.0045 64.9277 72.5572C64.8718 72.1098 64.8299 71.5366 64.4245 71.5553C64.019 71.5739 56.7401 74.505 56.7401 74.505L58.8697 68.5589Z" fill="#AD6359"/>
<path d="M58.9863 68.8619C59.1075 68.8619 64.9651 66.9513 67.0994 67.1144C69.2336 67.2775 70.8274 70.2086 70.7947 71.0148C70.7621 71.821 69.6437 76.8118 67.5094 76.686C65.3752 76.5602 66.8897 72.7669 66.8337 72.3196C66.7778 71.8722 66.7359 71.2991 66.3305 71.3177C65.925 71.3363 58.6694 74.2675 58.6694 74.2675L58.9863 68.8619Z" fill="#AD6359"/>
<path d="M66.8012 76.3739C66.5945 75.9795 66.4964 75.5373 66.5169 75.0924C66.4996 74.6334 66.5531 74.1745 66.6754 73.7317C66.8175 73.3547 66.9281 72.9666 67.0062 72.5714C67.0251 72.1758 66.945 71.7818 66.7732 71.425C66.6241 71.1128 66.3072 71.1967 66.0323 71.2759C65.6258 71.4076 65.2275 71.5632 64.8393 71.7419L63.5858 72.2964C63.1466 72.4718 62.7186 72.6742 62.3043 72.9022C62.2717 72.9022 62.3043 72.9768 62.3276 72.9628C62.7049 72.8422 63.0751 72.7006 63.4367 72.5388L64.6949 72.0728C65.0863 71.9237 65.4731 71.7559 65.8645 71.6068C66.0419 71.5157 66.2383 71.4678 66.4377 71.467C66.6008 71.5136 66.6567 71.933 66.6847 72.0541C66.7531 72.4432 66.7044 72.8438 66.5449 73.2052C66.4088 73.5793 66.312 73.9666 66.256 74.3608C66.196 74.732 66.2039 75.1109 66.2793 75.4792C66.3957 75.8079 66.5522 76.1209 66.7453 76.4112C66.7546 76.4532 66.8292 76.4159 66.8012 76.3739Z" fill="#263238"/>
<path d="M51.8799 74.0717C51.8799 74.0717 58.1196 69.0249 59.4151 68.0137C62.0154 66.0099 72.6821 62.3704 74.1407 62.3005C75.5992 62.2306 75.9487 65.241 68.6978 67.9158C64.8766 69.3138 64.0891 71.4201 64.0891 72.6084C64.0891 73.7967 65.091 76.0661 67.0808 76.1267C69.0706 76.1873 70.5338 73.3633 72.3839 73.149C74.2339 72.9346 72.8265 76.2106 71.4192 78.0699C69.9586 79.8612 68.0194 81.2008 65.8272 81.9331C64.0704 82.4783 58.6089 84.4588 58.6089 84.4588L51.8799 74.0717Z" fill="#AD6359"/>
<path d="M69.6344 74.8829C68.8516 75.4188 67.9568 76.1225 66.9689 76.0992C65.981 76.0759 65.3239 75.3769 64.8999 74.5194C64.4232 73.6689 64.2946 72.6668 64.541 71.7234C64.8242 70.8791 65.3433 70.1336 66.0369 69.5752C66.8846 68.8972 67.8265 68.3462 68.8329 67.9395C68.8749 67.9395 68.8329 67.8556 68.7956 67.8743C67.8636 68.2284 64.9418 69.2257 64.2242 71.7048C63.9852 72.6654 64.1236 73.6811 64.6109 74.5427C65.007 75.3582 65.6035 76.1597 66.5635 76.2949C67.7331 76.4626 68.8003 75.5633 69.6857 74.8969C69.7276 74.8876 69.6764 74.8549 69.6344 74.8829Z" fill="#263238"/>
<path d="M53.9161 72.3568L58.427 88.4151C58.427 88.4151 45.0155 92.5672 41.3015 91.295C37.5875 90.0228 28.6403 78.4008 25.6952 71.4946C23.9057 67.3006 26.478 64.7004 30.9843 68.6008C35.6443 72.6037 42.131 78.1538 42.6343 78.3868C43.1375 78.6198 53.9161 72.3568 53.9161 72.3568Z" fill="#455A64"/>
<path d="M52.5462 81.7188C52.2852 80.5212 51.2787 75.7121 51.1202 74.5005H51.1575C51.535 75.6282 52.6674 80.3441 52.9283 81.5417C53.5091 83.9245 53.9586 86.3374 54.2751 88.7694C54.2751 88.8113 54.2145 88.8346 54.2005 88.7927C53.4782 86.4767 53.0495 84.1094 52.5462 81.7188Z" fill="#263238"/>
<path d="M25.6952 71.4951C28.0811 77.0871 34.4141 85.7827 38.7013 89.5526L28.1743 66.8678C25.5181 66.001 24.3252 68.2658 25.6952 71.4951Z" fill="#263238"/>
<path d="M5.4802 102.629L34.47 102.796C34.5959 102.671 35.7282 102.177 35.402 98.0012C34.6611 88.4902 31.4876 71.5697 29.4466 67.9629C29.0659 67.2355 28.5444 66.5911 27.9124 66.0671C27.2804 65.5431 26.5505 65.15 25.7652 64.9107C24.9799 64.6713 24.1549 64.5905 23.3381 64.6729C22.5213 64.7552 21.729 64.9992 21.0073 65.3905C19.3111 66.4484 17.7453 67.8324 15.7741 70.7635C10.9371 77.9586 6.84091 90.6804 5.1074 97.6704C4.36646 100.564 5.39632 102.545 5.4802 102.629Z" fill="#455A64"/>
<path d="M25.7605 70.6517C25.2619 70.5632 22.3167 67.5155 21.5665 65.358C21.5152 65.2088 21.9672 63.8202 22.4426 62.096C22.7222 61.0568 23.0111 59.8918 23.2021 58.806C23.2394 58.587 23.9244 59.1229 23.9244 59.1229L25.2665 59.7054L29.7122 61.6486C29.0896 62.9337 28.6279 64.2907 28.3375 65.6888C28.3099 65.8425 28.299 65.9988 28.3048 66.1548C28.307 66.1796 28.307 66.2046 28.3048 66.2294C28.3142 67.0822 26.5713 70.7962 25.7605 70.6517Z" fill="#AD6359"/>
<path d="M28.3142 66.1405C28.3164 66.1654 28.3164 66.1903 28.3142 66.2151C28.0777 66.2078 27.8422 66.1797 27.6106 66.1312C23.0577 65.2365 23.4958 59.3276 23.4958 59.3276L25.2899 59.7191L29.7122 61.6483C29.0897 62.9334 28.628 64.2904 28.3375 65.6885C28.3141 65.838 28.3062 65.9895 28.3142 66.1405Z" fill="#263238"/>
<path d="M32.2053 48.4839C32.2053 48.4839 34.2744 49.5324 34.5027 51.7459C34.731 53.9594 34.0647 56.1869 33.8689 56.2801C33.6732 56.3733 32.2053 48.4839 32.2053 48.4839Z" fill="#263238"/>
<path d="M23.3699 51.0238C22.354 53.3538 22.848 60.5255 24.3998 62.2823C26.6506 64.8314 30.7234 65.507 32.9835 62.7157C35.1784 60.0082 34.3815 50.6929 32.6014 49.0573C29.9964 46.662 24.8658 47.58 23.3699 51.0238Z" fill="#AD6359"/>
<path d="M29.7354 56.0098C29.7354 56.0098 29.7028 56.0098 29.7028 56.0517C29.7494 56.5177 29.7028 57.0955 29.2927 57.2819V57.3099C29.8286 57.1981 29.8566 56.4571 29.7354 56.0098Z" fill="#263238"/>
<path d="M29.2741 55.5342C28.4959 55.5342 28.5332 57.0813 29.2741 57.0906C30.0151 57.0999 29.9265 55.5388 29.2741 55.5342Z" fill="#263238"/>
<path d="M32.5361 56.019C32.5361 56.019 32.5734 56.019 32.5734 56.061C32.5734 56.527 32.6479 57.0955 33.0906 57.2446V57.2726C32.5501 57.212 32.4522 56.4757 32.5361 56.019Z" fill="#263238"/>
<path d="M32.9741 55.5019C33.7476 55.4227 33.8455 56.9792 33.1279 57.0537C32.4102 57.1283 32.303 55.5672 32.9741 55.5019Z" fill="#263238"/>
<path d="M28.6404 54.8352C28.8501 54.7746 29.0365 54.6861 29.2415 54.6069C29.463 54.5561 29.6613 54.4332 29.8054 54.2574C29.8408 54.194 29.854 54.1207 29.8431 54.0489C29.8321 53.9772 29.7975 53.9112 29.7448 53.8613C29.6247 53.7779 29.4846 53.7279 29.3389 53.7164C29.1931 53.7049 29.0469 53.7324 28.9153 53.796C28.632 53.8858 28.3915 54.0765 28.2396 54.3319C28.2069 54.3922 28.1927 54.4608 28.1987 54.5292C28.2048 54.5975 28.2308 54.6625 28.2735 54.7162C28.3162 54.7698 28.3738 54.8097 28.439 54.8309C28.5043 54.8521 28.5743 54.8536 28.6404 54.8352Z" fill="#263238"/>
<path d="M33.538 54.7003C33.3272 54.6643 33.1187 54.6161 32.9136 54.5559C32.6857 54.5361 32.4709 54.441 32.3031 54.2856C32.26 54.2277 32.2367 54.1574 32.2367 54.0852C32.2367 54.013 32.26 53.9427 32.3031 53.8848C32.4102 53.7858 32.5421 53.7175 32.6848 53.6872C32.8275 53.6568 32.9758 53.6655 33.1139 53.7124C33.4087 53.7596 33.6748 53.916 33.8595 54.1504C33.8985 54.2053 33.9207 54.2702 33.9237 54.3373C33.9267 54.4045 33.9102 54.4711 33.8762 54.5292C33.8423 54.5872 33.7923 54.6342 33.7323 54.6646C33.6723 54.6949 33.6049 54.7074 33.538 54.7003Z" fill="#263238"/>
<path d="M29.4046 60.502C29.5211 60.6139 29.6423 60.7676 29.8147 60.777C29.9948 60.7696 30.1713 60.7235 30.3319 60.6418C30.3319 60.6418 30.3646 60.6418 30.3319 60.6418C30.2658 60.739 30.1745 60.8164 30.0678 60.8656C29.9611 60.9149 29.843 60.9342 29.7262 60.9214C29.6265 60.8985 29.536 60.8463 29.4663 60.7716C29.3965 60.6969 29.3507 60.603 29.3347 60.502C29.3487 60.4974 29.386 60.488 29.4046 60.502Z" fill="#263238"/>
<path d="M29.8754 59.0433C30.0017 59.2318 30.166 59.3917 30.3578 59.5129C30.5496 59.6341 30.7647 59.7138 30.9891 59.7469C31.1854 59.7749 31.3846 59.7749 31.5809 59.7469H31.6974H31.7999C31.8255 59.7426 31.8488 59.7296 31.8657 59.71C31.8827 59.6905 31.8924 59.6656 31.8931 59.6398C31.8954 59.6227 31.8954 59.6055 31.8931 59.5885V59.5419C31.8931 59.1738 31.8419 58.6099 31.8419 58.6099C31.9817 58.6751 32.6807 58.9687 32.6667 58.7777C32.5793 57.1019 32.3232 55.4392 31.9025 53.8148C31.8994 53.8054 31.8935 53.7973 31.8855 53.7916C31.8776 53.7858 31.868 53.7827 31.8582 53.7827C31.8484 53.7827 31.8388 53.7858 31.8309 53.7916C31.8229 53.7973 31.817 53.8054 31.8139 53.8148C31.8838 55.3665 32.224 56.8904 32.3219 58.4468C32.0728 58.3367 31.8091 58.2629 31.539 58.2278C31.4877 58.2278 31.6555 59.3182 31.6415 59.486C31.0308 59.5633 30.4143 59.3958 29.9266 59.02C29.88 58.9734 29.8428 59.006 29.8754 59.0433Z" fill="#263238"/>
<path d="M31.3571 59.5789C31.1602 59.8492 30.897 60.0643 30.5929 60.2033C30.4241 60.2703 30.2395 60.2865 30.0616 60.2499C29.6702 60.1567 29.6516 59.7839 29.7168 59.4997C29.7525 59.3385 29.8073 59.182 29.8799 59.0337C30.3018 59.3679 30.8193 59.5589 31.3571 59.5789Z" fill="#263238"/>
<path d="M30.5929 60.2036C30.4241 60.2706 30.2395 60.2868 30.0616 60.2502C29.6702 60.1571 29.6516 59.7843 29.7168 59.5C29.9195 59.506 30.1147 59.578 30.2728 59.7049C30.4309 59.8319 30.5433 60.007 30.5929 60.2036Z" fill="#FF98B9"/>
<path d="M23.4398 57.1421C24.2693 57.2958 24.9217 54.7748 25.0755 53.8148C25.2106 52.9714 25.178 50.3431 25.1966 50.1614C25.2153 49.9796 28.9666 52.058 30.9238 51.2332C32.881 50.4084 34.0273 48.4372 33.9574 47.5891C33.8875 46.7409 31.1288 44.8676 28.9386 45.0074C26.7484 45.1472 24.1202 48.2694 24.1202 48.2694C24.4289 47.8251 24.7031 47.3577 24.9403 46.8714C24.8937 46.7782 23.5423 47.5005 23.4072 48.5304C23.4072 48.5304 23.5423 47.2396 23.4305 47.2302C23.3186 47.2209 22.354 48.4185 22.6942 49.2061C22.6942 49.2061 21.5571 50.4456 21.5758 51.6619C21.5944 52.8782 22.4612 56.9603 23.4398 57.1421Z" fill="#263238"/>
<path d="M32.3124 50.6461C31.7506 51.0374 31.1333 51.3421 30.4811 51.5502C29.7417 51.6996 28.977 51.666 28.2536 51.4523C27.5261 51.2534 26.8354 50.9387 26.2078 50.5203C25.6533 50.1615 25.15 49.7141 24.5675 49.4019C24.4184 49.3227 24.2833 49.5371 24.3811 49.6536C25.4312 50.8208 26.8275 51.621 28.3654 51.937C29.0798 52.0852 29.8205 52.0446 30.5143 51.819C31.2081 51.5934 31.8311 51.1908 32.3218 50.6508C32.3218 50.6508 32.3218 50.6415 32.3124 50.6461Z" fill="#263238"/>
<path d="M24.1854 56.9699C24.1854 56.9699 22.8153 54.5466 21.7295 55.0126C20.6438 55.4786 21.5292 58.8898 22.6942 59.4536C22.839 59.5365 22.9991 59.5893 23.1649 59.6088C23.3306 59.6283 23.4986 59.6141 23.6587 59.5671C23.8189 59.5201 23.9679 59.4413 24.0968 59.3353C24.2257 59.2293 24.3319 59.0984 24.409 58.9504L24.1854 56.9699Z" fill="#AD6359"/>
<path d="M22.0045 55.9863C22.0045 55.9863 21.9812 55.9863 22.0045 56.0143C22.82 56.4383 23.1928 57.2678 23.4305 58.1159C23.3896 58.0261 23.3298 57.9463 23.255 57.8819C23.1803 57.8176 23.0924 57.7702 22.9976 57.7432C22.9027 57.7161 22.8031 57.71 22.7057 57.7253C22.6082 57.7406 22.5152 57.7769 22.4332 57.8317C22.427 57.8317 22.4211 57.8341 22.4167 57.8385C22.4124 57.8429 22.4099 57.8488 22.4099 57.855C22.4099 57.8612 22.4124 57.8671 22.4167 57.8715C22.4211 57.8758 22.427 57.8783 22.4332 57.8783C22.5867 57.8468 22.7462 57.8629 22.8903 57.9245C23.0344 57.9862 23.1562 58.0903 23.2394 58.2231C23.3773 58.4476 23.4898 58.6868 23.5749 58.9361C23.6075 59.0153 23.7473 58.9874 23.7287 58.8988V58.8755C23.8545 57.7944 23.1555 56.2053 22.0045 55.9863Z" fill="#263238"/>
<path d="M28.3141 66.1823L26.1799 70.0455L21.7901 64.3276L20.1685 65.7955C20.1685 65.7955 24.1015 74.5097 24.1761 74.1463L26.2591 70.8843L28.3701 73.5964L28.9106 67.4918L28.3141 66.1823Z" fill="white"/>
<path d="M28.7802 70.5954C28.8361 69.5842 28.92 68.5683 28.9293 67.5524C28.9293 67.5198 28.8734 67.4965 28.8594 67.5524C28.5425 68.4844 28.3514 72.3662 28.2349 73.2842C28.1511 73.1677 26.2684 70.8843 26.2405 70.9123C25.8117 71.4202 24.2879 73.8108 24.1761 74.0298C23.5516 72.6318 21.1424 67.599 20.3735 66.2662C20.3683 66.2603 20.3614 66.2561 20.3537 66.2544C20.346 66.2526 20.3379 66.2533 20.3307 66.2564C20.3234 66.2595 20.3174 66.2649 20.3133 66.2717C20.3093 66.2784 20.3075 66.2863 20.3083 66.2942C20.8302 67.7388 24.0036 74.5284 24.0689 74.5191C24.8575 73.4008 25.587 72.242 26.2544 71.0474C26.562 71.5134 28.4307 74.0811 28.454 73.9319C28.6217 72.8263 28.7306 71.7126 28.7802 70.5954Z" fill="#263238"/>
<path d="M41.5532 87.777C42.3454 87.777 42.9046 87.7397 42.9512 87.735L42.8441 86.1739C42.8068 86.1739 39.2186 86.4069 37.3732 85.6613C35.9053 85.0649 34.2836 80.9361 33.566 77.2733C33.1 74.9433 33.361 74.235 33.566 74.0113C33.6079 73.9647 33.7198 73.8296 34.1345 73.8296H35.5651C35.9799 75.0785 36.6416 76.332 37.6388 76.332H40.528V74.7896H37.7553C37.3567 74.2028 37.0663 73.5494 36.8979 72.8603L36.7395 72.2871H34.1345C33.8003 72.2669 33.466 72.3246 33.1579 72.4556C32.8498 72.5866 32.5764 72.7874 32.3591 73.0421C31.6787 73.8576 31.5762 75.2556 32.0422 77.5856C32.4163 79.4693 32.9719 81.3123 33.7011 83.089C34.6331 85.3072 35.6816 86.6586 36.8 87.1106C38.1747 87.6698 40.2018 87.777 41.5532 87.777Z" fill="#FFC727"/>
<path opacity="0.2" d="M38.2306 74.7705H40.5233V76.3363H38.5847L38.2306 74.7705Z" fill="black"/>
<path opacity="0.2" d="M42.9653 87.735C42.9047 87.735 42.3455 87.777 41.5673 87.777C41.4368 87.777 41.3017 87.777 41.1572 87.777L40.8077 86.2065C41.9448 86.2438 42.8535 86.2065 42.8721 86.2065L42.9653 87.735Z" fill="black"/>
<path d="M56.5724 87.7767C55.7802 87.7767 55.221 87.7395 55.1744 87.7348L55.2816 86.1737C55.3189 86.1737 58.9071 86.4067 60.7524 85.6611C62.2203 85.0646 63.842 80.9359 64.5597 77.2731C65.0257 74.9431 64.7647 74.2348 64.5597 74.0111C64.5177 73.9645 64.4105 73.8293 63.9958 73.8293H62.5652C62.1551 75.0782 61.4887 76.3318 60.4915 76.3318H57.6023V74.7893H60.3983C60.7969 74.2025 61.0873 73.5491 61.2557 72.8601L61.4142 72.2869H64.0238C64.3572 72.2674 64.6906 72.3254 64.9978 72.4564C65.305 72.5874 65.5777 72.7878 65.7945 73.0418C66.4702 73.862 66.5681 75.2693 66.1068 77.6039C65.7326 79.4877 65.1771 81.3307 64.4478 83.1074C63.5158 85.3256 62.4673 86.677 61.3489 87.129C59.9509 87.6696 57.9238 87.7767 56.5724 87.7767Z" fill="#FFC727"/>
<path opacity="0.2" d="M59.895 74.7705H57.6023V76.3363H59.5408L59.895 74.7705Z" fill="black"/>
<path opacity="0.2" d="M55.1604 87.735C55.221 87.735 55.7802 87.777 56.5584 87.777C56.6889 87.777 56.8287 87.777 56.9685 87.777L57.318 86.2065C56.1809 86.2438 55.2722 86.2065 55.2536 86.2065L55.1604 87.735Z" fill="black"/>
<path d="M40.8961 103.402V104.278H57.2341V103.402H55.8314L54.7922 101.906L50.0344 100.014V90.7358H48.0912V100.014L43.338 101.906L42.2941 103.402H40.8961Z" fill="#FFC727"/>
<path d="M47.5506 91.9707H50.5703V90.9921H47.5506V91.9707Z" fill="#FFC727"/>
<path opacity="0.2" d="M47.5552 91.6169L50.5702 91.4817V90.9971H47.5552V91.6169Z" fill="black"/>
<path d="M39.0741 71.2295C39.0741 71.2295 39.8337 83.8721 41.8282 87.3717C43.8226 90.8714 48.0726 91.165 49.0651 91.165C50.0577 91.165 54.3076 90.8667 56.2975 87.3717C58.2873 83.8767 59.0702 71.2295 59.0702 71.2295H39.0741Z" fill="#FFC727"/>
<path opacity="0.3" d="M47.546 91.0112C45.8265 90.7223 43.2541 89.8602 41.8282 87.3671C39.8337 83.8721 39.0695 71.2295 39.0695 71.2295H40.9335C41.1898 73.8857 41.6977 84.0258 43.1376 86.9756C44.4145 89.5526 47.3456 90.9366 47.546 91.0112Z" fill="white"/>
<path opacity="0.2" d="M55.8315 103.402H42.2942L42.667 102.866L55.1278 102.391L55.8315 103.402Z" fill="black"/>
<path opacity="0.1" d="M49.0652 75.2227L50.137 77.3989L52.5369 77.7437L50.7987 79.44L51.2088 81.8305L49.0652 80.7028L46.917 81.8305L47.327 79.44L45.5889 77.7437L47.9888 77.3989L49.0652 75.2227Z" fill="black"/>
<path d="M16.6642 70.3253C12.6985 77.7813 4.81382 94.6878 8.38338 97.8566C14.2596 103.057 26.837 106.515 30.8819 107.177C32.6294 107.451 37.0005 94.4548 35.2856 93.6626C33.2259 92.7306 20.4248 89.5664 20.2897 89.0026C20.1545 88.4387 21.2962 79.7198 21.1611 73.0327C20.984 64.7053 18.3045 67.2217 16.6642 70.3253Z" fill="#AD6359"/>
<path d="M29.0505 93.6109C29.0505 93.6109 33.9622 91.4301 37.2428 90.1486C39.0695 89.4356 42.3176 88.4943 43.902 88.5875C46.2692 88.7226 56.0925 90.8056 55.6358 93.2009C55.2258 95.3631 47.0148 92.5019 47.0148 92.5019C47.0148 92.5019 55.5566 94.6594 54.5827 97.1619C53.6087 99.6643 44.7594 95.2093 44.7594 95.2093C44.7594 95.2093 53.4783 97.6232 52.0803 100.07C51.0131 101.91 42.7603 98.3175 42.7603 98.3175C42.7603 98.3175 50.2442 100.443 49.2283 102.381C48.1006 104.525 40.2905 101.687 40.2905 101.687C36.87 106.184 33.5148 107.172 30.8726 107.162C30.2575 107.158 29.0505 93.6109 29.0505 93.6109Z" fill="#AD6359"/>
<path d="M44.5123 91.682C50.9244 92.7911 53.7251 95.2982 53.6412 95.2469C51.5582 94.0307 48.0492 92.8797 47.0427 92.5721C46.0361 92.2645 45.4862 92.0269 44.4983 91.7193C44.475 91.7147 44.489 91.6774 44.5123 91.682Z" fill="#263238"/>
<path d="M42.9418 95.1211C45.5533 95.4485 48.0858 96.2374 50.4211 97.4511C50.5097 97.507 50.4677 97.5303 50.3699 97.4977C49.121 97.0736 44.1907 95.4986 42.9139 95.1397C42.9092 95.1444 42.9185 95.1211 42.9418 95.1211Z" fill="#263238"/>
<path d="M41.3855 97.9916C43.406 98.2907 45.353 98.9639 47.1266 99.9768C47.2152 100.023 47.1266 100.061 47.0521 100.023C45.1555 99.329 43.6736 98.7699 41.3715 98.0615C41.3622 98.0476 41.3622 97.9823 41.3855 97.9916Z" fill="#263238"/>
<path d="M31.2825 92.2647L26.3941 107.778C26.3941 107.778 8.89583 101.17 7.11105 97.1996C5.32627 93.2293 13.9892 73.5734 16.8598 69.4167C19.7303 65.26 21.0538 66.6207 21.5198 70.8706C21.9858 75.1205 20.434 88.7417 20.5458 88.9794C20.6577 89.217 31.2825 92.2647 31.2825 92.2647Z" fill="#455A64"/>
<path d="M20.914 82.5904C21.001 81.5714 21.0833 80.5524 21.161 79.5334C21.2029 79.0022 21.2402 78.471 21.2868 77.9444C21.2868 77.7021 21.3288 77.4551 21.3474 77.2128C21.3667 77.0924 21.3792 76.971 21.3847 76.8493C21.3836 76.6922 21.4024 76.5356 21.4406 76.3833C21.4406 76.3553 21.4919 76.3553 21.4919 76.3833C21.4919 76.6582 21.5431 76.5417 21.4919 76.7561C21.4406 76.9704 21.4919 77.073 21.4919 77.2221C21.4919 77.4644 21.4919 77.6881 21.4919 77.9537C21.4919 78.457 21.4546 78.9556 21.4266 79.4542C21.4266 79.5195 21.4266 79.5847 21.4266 79.6546C21.4266 79.6546 21.4266 79.6173 21.4266 79.5987C21.5385 79.0441 21.655 78.4943 21.7715 77.9397H21.8087C21.7575 78.5036 21.6829 79.0628 21.5804 79.6173C21.5198 79.9389 21.436 80.2557 21.3567 80.5493C21.3148 81.2157 21.2775 81.8867 21.2262 82.5531C21.0725 84.6222 20.9047 86.7005 20.5832 88.7509C21.5152 89.0259 22.4099 89.2635 23.3139 89.5385C24.218 89.8134 25.1313 90.1116 26.0354 90.4006C26.9394 90.6895 27.8434 90.9784 28.7428 91.286C29.1762 91.4304 29.6003 91.5842 30.029 91.752C30.4577 91.9197 30.961 92.1294 31.427 92.2832C31.4782 92.2832 31.427 92.3671 31.399 92.3531C30.9097 92.204 30.4064 92.1201 29.9125 91.9803L28.6217 91.6122C27.713 91.3419 26.8043 91.0576 25.8956 90.7687C24.9869 90.4798 24.0782 90.2048 23.1741 89.9066C22.2701 89.6084 21.3893 89.2728 20.4853 88.9746C20.4719 88.97 20.4596 88.9626 20.4492 88.953C20.4387 88.9434 20.4304 88.9317 20.4247 88.9187C20.4053 88.9087 20.3891 88.8932 20.3784 88.8742C20.3676 88.8551 20.3627 88.8333 20.3642 88.8115C20.4853 86.7425 20.7323 84.6688 20.914 82.5904Z" fill="#263238"/>
<path d="M25.2479 98.9328C25.6161 97.8051 27.1119 93.3128 27.5779 92.2271H27.6152C27.3776 93.3501 26.0262 97.8191 25.658 98.9561C24.983 101.227 24.1834 103.46 23.2628 105.643C23.2628 105.68 23.1789 105.666 23.1882 105.643C23.7241 103.355 24.5256 101.151 25.2479 98.9328Z" fill="#263238"/>
<path d="M14.7582 102.685C13.4769 102.163 12.2316 101.558 11.0302 100.872C9.8149 100.196 8.69975 99.3534 7.71695 98.3694C7.19631 97.8626 6.83512 97.2147 6.67777 96.5054C6.65095 96.3265 6.64003 96.1456 6.64515 95.9648C6.64515 95.7877 6.64515 95.6107 6.64515 95.4336C6.68243 95.0887 6.70573 94.7392 6.74767 94.3944C6.96207 93.0266 7.25772 91.6728 7.63307 90.3402C8.40042 87.6933 9.29669 85.0915 10.3219 82.5347C10.8376 81.2579 11.3782 79.9934 11.9436 78.7415C12.5354 77.4972 13.1226 76.253 13.8076 75.0601C13.2158 76.3043 12.6705 77.5625 12.1533 78.83C11.636 80.0975 11.1281 81.379 10.6574 82.6652C9.70211 85.2328 8.79341 87.8285 8.08043 90.466C7.68994 91.7742 7.37871 93.1047 7.14843 94.4503C7.10649 94.7858 7.07853 95.1214 7.04125 95.4569C7.02247 95.7859 7.02247 96.1158 7.04125 96.4448C7.19147 97.0832 7.51382 97.6683 7.97325 98.1364C8.90611 99.1277 9.97264 99.984 11.142 100.681C12.3075 101.418 13.5149 102.087 14.7582 102.685Z" fill="#263238"/>
<path d="M12.7824 76.4297C12.6239 77.1147 12.3956 77.7624 12.2139 78.4381C12.2278 78.0867 12.2889 77.7387 12.3956 77.4036C12.497 77.0687 12.6263 76.7429 12.7824 76.4297Z" fill="#263238"/>
<rect x="78" y="17" width="35.7717" height="35.7717" rx="12" fill="#F47522"/>
<rect x="155.606" y="17" width="35.7717" height="35.7717" rx="12" fill="#EBEBEB"/>
<rect x="116.803" y="17" width="35.7717" height="35.7717" rx="12" fill="#EBEBEB"/>
<rect x="78" y="56.4097" width="35.7717" height="35.7717" rx="12" fill="#F47522"/>
<rect x="155.606" y="56.4097" width="35.7717" height="35.7717" rx="12" fill="#EBEBEB"/>
<rect x="116.803" y="56.4097" width="35.7717" height="35.7717" rx="12" fill="#F47522"/>
<rect x="78" y="95.8188" width="35.7717" height="35.7717" rx="12" fill="#EBEBEB"/>
<rect x="155.606" y="95.8188" width="35.7717" height="35.7717" rx="12" fill="#EBEBEB"/>
<rect x="116.803" y="95.8188" width="35.7717" height="35.7717" rx="12" fill="#EBEBEB"/>
<rect x="75" width="116" height="6" rx="3" fill="#EBEBEB"/>
</svg>
