<svg width="233" height="233" viewBox="0 0 233 233" fill="none" xmlns="http://www.w3.org/2000/svg">
<path d="M46.1854 153.808L40.0761 153.934L36.9725 153.99C35.938 153.99 34.8942 153.99 33.855 154.013H33.65V153.808L33.6267 148.594V148.356H33.8597L40.0295 148.384C42.0846 148.384 44.1443 148.435 46.1993 148.458H46.3298V148.584C46.3298 149.465 46.2925 150.346 46.2692 151.217L46.1854 153.808ZM46.1854 153.808L46.1341 151.171C46.1341 150.304 46.0828 149.446 46.0735 148.594L46.1993 148.719C44.1443 148.743 42.0846 148.794 40.0295 148.794L33.8597 148.827L34.0927 148.594L34.0647 153.808L33.8597 153.598C34.8755 153.598 35.8914 153.598 36.9073 153.622L39.9736 153.678L46.1854 153.808Z" fill="#EBEBEB"/>
<path d="M39.3025 160.383L33.184 160.509L30.0804 160.565C29.0459 160.565 28.002 160.565 26.9629 160.588H26.7532V160.383V155.168V154.931H26.9862L33.156 154.959C35.2111 154.959 37.2661 155.01 39.3258 155.033H39.4517V155.178C39.4517 156.058 39.4144 156.939 39.3911 157.811L39.3025 160.383ZM39.3025 160.383L39.2373 157.745C39.2373 156.879 39.1814 156.021 39.1767 155.168L39.3025 155.294C37.2428 155.317 35.1878 155.369 33.1327 155.369L26.9629 155.397L27.1959 155.168L27.1679 160.383L26.9629 160.173C27.9787 160.173 28.9946 160.173 30.0105 160.173L33.0768 160.229L39.3025 160.383Z" fill="#EBEBEB"/>
<path d="M208.717 86.6016L202.603 86.7274L199.499 86.7833C198.46 86.7833 197.421 86.7833 196.377 86.8066H196.186V86.6016L196.158 81.3871V81.1494H196.391L202.561 81.1774C204.621 81.1774 206.676 81.2286 208.731 81.2519H208.861V81.3778C208.861 82.2585 208.819 83.1392 208.801 84.0106L208.717 86.6016ZM208.717 86.6016L208.652 83.964C208.652 83.0973 208.6 82.2398 208.591 81.3871L208.717 81.5129C206.662 81.5362 204.607 81.5875 202.547 81.5875L196.377 81.6201L196.61 81.3871L196.587 86.6016L196.377 86.3919C197.398 86.3919 198.409 86.3919 199.429 86.4199L202.496 86.4711L208.717 86.6016Z" fill="#EBEBEB"/>
<path d="M201.834 93.2002L195.72 93.3261L192.617 93.382C191.577 93.382 190.534 93.382 189.494 93.382H189.289V93.2002L189.261 87.9857V87.748H189.494L195.664 87.776C197.724 87.776 199.779 87.8273 201.834 87.8506H201.965V87.9764C201.965 88.8571 201.923 89.7379 201.899 90.6093L201.834 93.2002ZM201.834 93.2002L201.769 90.5627C201.769 89.6959 201.718 88.8385 201.708 87.9857L201.834 88.1115C199.779 88.1348 197.724 88.1861 195.664 88.1861L189.494 88.2187L189.727 87.9857L189.704 93.2002L189.494 92.9905C190.51 92.9905 191.526 92.9905 192.547 93.0138L195.613 93.0698L201.834 93.2002Z" fill="#EBEBEB"/>
<path d="M194.979 86.6016L188.861 86.7274L185.757 86.7833C184.722 86.7833 183.679 86.7833 182.639 86.8066H182.434V86.6016L182.411 81.3871V81.1494H182.644L188.814 81.1774C190.869 81.1774 192.929 81.2286 194.984 81.2519H195.11V81.3778C195.11 82.2585 195.072 83.1392 195.049 84.0106L194.979 86.6016ZM194.979 86.6016L194.914 83.964C194.914 83.0973 194.858 82.2398 194.853 81.3871L194.979 81.5129C192.924 81.5362 190.864 81.5875 188.809 81.5875L182.639 81.6201L182.872 81.3871L182.844 86.6016L182.639 86.3919C183.655 86.3919 184.671 86.3919 185.687 86.4199L188.753 86.4711L194.979 86.6016Z" fill="#EBEBEB"/>
<path d="M46.1853 32.8482L40.076 32.974L36.9725 33.0299C35.9379 33.0299 34.8941 33.0299 33.8549 33.0532H33.6499V32.8435L33.6126 27.6337V27.396H33.8456L40.0154 27.424C42.0705 27.424 44.1302 27.4752 46.1853 27.4985H46.3158V27.6243C46.3158 28.5097 46.2785 29.3858 46.2552 30.2572L46.1853 32.8482ZM46.1853 32.8482L46.134 30.2106C46.134 29.3439 46.0828 28.4864 46.0734 27.6337L46.1993 27.7595C44.1442 27.7595 42.0845 27.834 40.0294 27.834L33.8596 27.8667L34.0926 27.6337L34.0646 32.8482L33.8456 32.6199C34.8615 32.6199 35.8774 32.6199 36.8932 32.6478L39.9595 32.6991L46.1853 32.8482Z" fill="#EBEBEB"/>
<path d="M34.7543 95.6136C33.6747 93.7646 33.1677 91.6369 33.2974 89.4998C33.427 87.3626 34.1875 85.3118 35.4827 83.6069C36.7779 81.902 38.5496 80.6194 40.5738 79.9214C42.5979 79.2234 44.7836 79.1414 46.8544 79.6856C48.9251 80.2299 50.788 81.376 52.2074 82.9791C53.6268 84.5821 54.5389 86.57 54.8284 88.6915C55.118 90.8129 54.7719 92.9726 53.8339 94.8973C52.896 96.8221 51.4084 98.4254 49.5592 99.5047C48.3317 100.222 46.975 100.69 45.5665 100.882C44.158 101.075 42.7254 100.988 41.3505 100.627C39.9756 100.265 38.6854 99.6367 37.5536 98.7765C36.4218 97.9163 35.4706 96.8415 34.7543 95.6136Z" fill="#EBEBEB"/>
<path d="M49.7829 89.8774C49.1538 93.5075 45.985 96.4899 45.985 96.4899C45.985 96.4899 41.6978 95.721 39.1907 93.0229C37.103 90.7768 37.0844 87.6779 38.9577 86.443C41.6465 84.6722 43.9346 89.5931 43.9346 89.5931C43.9346 89.5931 43.1657 84.2248 46.3857 84.2388C48.6319 84.2481 50.3281 86.8531 49.7829 89.8774Z" fill="white"/>
<path d="M181.652 109.939C181.733 108.153 182.342 106.431 183.401 104.991C184.461 103.551 185.924 102.457 187.605 101.848C189.287 101.24 191.111 101.143 192.847 101.571C194.583 101.999 196.153 102.933 197.359 104.253C198.564 105.573 199.351 107.222 199.62 108.989C199.889 110.757 199.628 112.565 198.869 114.184C198.111 115.803 196.889 117.161 195.359 118.086C193.829 119.011 192.059 119.461 190.273 119.38C187.878 119.27 185.625 118.214 184.008 116.444C182.392 114.673 181.544 112.334 181.652 109.939Z" fill="#EBEBEB"/>
<path d="M194.788 112.73C192.705 114.99 189.126 115.642 189.126 115.642C189.126 115.642 186.47 113.163 185.934 110.134C185.468 107.613 186.866 105.432 188.753 105.414C191.442 105.39 190.818 109.878 190.818 109.878C190.818 109.878 192.71 105.763 194.96 107.231C196.536 108.256 196.531 110.843 194.788 112.73Z" fill="white"/>
<path fill-rule="evenodd" clip-rule="evenodd" d="M99.1882 61.5118C98.6896 61.1996 98.2562 60.7476 97.5945 60.8128C97.3382 60.8408 97.3941 60.6311 97.3894 60.4913L97.3615 52.998C97.3615 52.8163 97.3615 52.6672 97.5665 52.5646C99.4725 51.5954 100.293 49.6987 101.458 48.0771C102.055 47.2721 102.483 46.3549 102.718 45.3805C102.953 44.4061 102.988 43.3944 102.823 42.4058C102.744 41.842 103.005 41.5903 103.508 41.4738C103.763 41.3854 104.039 41.3806 104.296 41.4603C104.553 41.5399 104.779 41.6998 104.939 41.9165C105.489 42.9331 105.861 44.0364 106.038 45.1785C106.15 46.1105 105.815 47.0425 105.698 47.9745C105.614 48.6596 105.456 49.3399 105.33 50.0343C105.498 50.1554 105.689 50.0902 105.871 50.0948H112.204C113.094 50.0948 113.527 50.3418 113.653 50.9336C113.72 51.2989 113.665 51.6761 113.497 52.0071C113.328 52.338 113.056 52.6044 112.721 52.765C112.562 52.8442 112.255 52.765 112.255 53.0213C112.255 53.2776 112.53 53.2497 112.679 53.3475C113.443 53.8694 113.303 54.9506 112.423 55.5797C112.213 55.7288 111.798 55.6635 111.789 55.9758C111.78 56.288 112.171 56.2181 112.348 56.3952C112.963 57.001 112.66 58.138 111.742 58.604C111.616 58.6416 111.493 58.69 111.374 58.7485C111.267 58.8184 111.164 58.8976 111.374 59.042C112.306 59.6898 112.273 60.5985 111.374 61.2649L111.099 61.4652C110.765 61.6637 110.377 61.7502 109.99 61.7122L100.06 61.7448C99.9062 61.7656 99.7501 61.7557 99.6006 61.7157C99.451 61.6757 99.3108 61.6064 99.1882 61.5118Z" fill="#EBEBEB"/>
<path fill-rule="evenodd" clip-rule="evenodd" d="M89.761 57.1406C89.761 55.5516 89.761 53.9672 89.7377 52.3781C89.7377 52.0566 89.7703 51.9121 90.1664 51.9121C92.0988 51.9307 94.0342 51.9307 95.9728 51.9121C96.3502 51.9121 96.4108 52.0379 96.4108 52.3781C96.4108 55.5718 96.4217 58.7654 96.4434 61.9591C96.4434 62.3692 96.3363 62.481 95.9308 62.4763C94.0668 62.4763 92.1749 62.4763 90.2969 62.4996C89.8309 62.4996 89.7657 62.3459 89.7703 61.9358C89.789 60.3141 89.7657 58.7157 89.761 57.1406Z" fill="#EBEBEB"/>
<path fill-rule="evenodd" clip-rule="evenodd" d="M134.735 124.45C134.446 124.268 134.189 123.984 133.803 124.04C133.653 124.04 133.686 123.933 133.686 123.849C133.686 122.381 133.686 120.918 133.686 119.45C133.686 119.343 133.686 119.254 133.807 119.194C134.926 118.625 135.41 117.511 136.095 116.561C136.445 116.087 136.696 115.548 136.833 114.976C136.971 114.404 136.993 113.81 136.897 113.229C136.846 112.898 136.999 112.763 137.298 112.679C137.447 112.628 137.609 112.626 137.759 112.673C137.91 112.72 138.042 112.813 138.136 112.94C138.46 113.54 138.679 114.191 138.784 114.865C138.784 115.42 138.717 115.974 138.584 116.514C138.532 116.915 138.444 117.316 138.365 117.721C138.467 117.791 138.579 117.754 138.686 117.758H142.414C142.936 117.758 143.192 117.908 143.267 118.252C143.306 118.466 143.275 118.686 143.179 118.88C143.082 119.074 142.925 119.232 142.731 119.329C142.638 119.375 142.47 119.329 142.456 119.483C142.442 119.636 142.619 119.613 142.708 119.674C143.174 119.977 143.076 120.606 142.554 120.983C142.433 121.072 142.191 121.03 142.186 121.216C142.181 121.403 142.41 121.356 142.512 121.458C142.592 121.562 142.647 121.682 142.673 121.81C142.698 121.938 142.694 122.071 142.659 122.197C142.625 122.323 142.562 122.439 142.475 122.537C142.388 122.634 142.279 122.71 142.158 122.759C142.083 122.781 142.01 122.809 141.939 122.842C141.878 122.884 141.818 122.931 141.939 123.015C142.061 123.075 142.164 123.168 142.235 123.283C142.307 123.398 142.345 123.531 142.345 123.667C142.345 123.803 142.307 123.936 142.235 124.052C142.164 124.167 142.061 124.26 141.939 124.32L141.781 124.436C141.585 124.555 141.356 124.606 141.128 124.581C139.186 124.581 137.242 124.588 135.294 124.604C135.195 124.62 135.094 124.614 134.998 124.587C134.901 124.561 134.812 124.514 134.735 124.45Z" fill="#EBEBEB"/>
<path fill-rule="evenodd" clip-rule="evenodd" d="M129.198 121.878C129.198 120.946 129.198 120.014 129.198 119.082C129.198 118.891 129.198 118.802 129.445 118.802C130.583 118.802 131.72 118.802 132.857 118.802C133.08 118.802 133.118 118.877 133.113 119.073C133.113 120.937 133.121 122.813 133.136 124.702C133.136 124.939 133.071 125.009 132.833 125.005C131.729 125.005 130.624 125.005 129.525 125.005C129.25 125.005 129.212 124.912 129.212 124.674C129.217 123.747 129.203 122.815 129.198 121.878Z" fill="#EBEBEB"/>
<path d="M200.184 57.4862C205.901 52.8685 206.792 44.4904 202.175 38.7732C197.557 33.056 189.179 32.1647 183.462 36.7824C177.744 41.4001 176.853 49.7783 181.471 55.4955C186.089 61.2127 194.467 62.104 200.184 57.4862Z" fill="#EBEBEB"/>
<path d="M200.547 55.8425C205.491 50.898 205.491 42.8813 200.547 37.9368C195.602 32.9923 187.586 32.9923 182.641 37.9368C177.697 42.8813 177.697 50.898 182.641 55.8425C187.586 60.787 195.602 60.787 200.547 55.8425Z" fill="#DBDBDB"/>
<path d="M194.309 58.4355C200.688 56.9381 204.646 50.5529 203.148 44.1738C201.651 37.7947 195.266 33.8373 188.887 35.3346C182.508 36.832 178.55 43.2172 180.048 49.5963C181.545 55.9754 187.93 59.9329 194.309 58.4355Z" fill="white"/>
<path opacity="0.5" d="M203.176 44.3725C197.775 47.6345 188.898 53.0121 183.935 55.9572C182.525 54.7772 181.408 53.2856 180.673 51.6002L197.118 36.3853C198.649 37.1948 199.984 38.3291 201.031 39.7088C202.077 41.0885 202.809 42.6802 203.176 44.3725Z" fill="#EBEBEB"/>
<path opacity="0.5" d="M203.451 47.3037C203.406 48.6229 203.142 49.9254 202.668 51.1575L187.873 58.1475C187.228 57.9353 186.605 57.6655 186.009 57.3414C190.473 54.769 198.637 50.0718 203.451 47.3037Z" fill="#EBEBEB"/>
<path d="M191.708 35.8867H191.48V37.6855H191.708V35.8867Z" fill="#C7C7C7"/>
<path d="M186.186 37.2892L185.989 37.4033L186.888 38.9611L187.086 38.8469L186.186 37.2892Z" fill="#C7C7C7"/>
<path d="M182.118 41.2813L182.004 41.479L183.561 42.3784L183.675 42.1806L182.118 41.2813Z" fill="#C7C7C7"/>
<path d="M182.392 46.7725H180.594V47.0008H182.392V46.7725Z" fill="#C7C7C7"/>
<path d="M183.575 51.4024L182.017 52.3018L182.131 52.4995L183.689 51.6001L183.575 51.4024Z" fill="#C7C7C7"/>
<path d="M186.906 54.8138L186.007 56.3721L186.205 56.4861L187.104 54.9279L186.906 54.8138Z" fill="#C7C7C7"/>
<path d="M191.708 56.0923H191.48V57.891H191.708V56.0923Z" fill="#C7C7C7"/>
<path d="M196.296 54.8004L196.099 54.9146L196.998 56.4723L197.196 56.3581L196.296 54.8004Z" fill="#C7C7C7"/>
<path d="M199.633 51.4004L199.519 51.5981L201.076 52.4978L201.19 52.3001L199.633 51.4004Z" fill="#C7C7C7"/>
<path d="M202.598 46.7725H200.799V47.0008H202.598V46.7725Z" fill="#C7C7C7"/>
<path d="M201.071 41.2888L199.513 42.1885L199.628 42.3862L201.185 41.4865L201.071 41.2888Z" fill="#C7C7C7"/>
<path d="M197 37.3016L196.101 38.8599L196.299 38.9739L197.198 37.4157L197 37.3016Z" fill="#C7C7C7"/>
<path d="M191.768 36.7024L192.16 47.6907L191.032 47.6767L191.461 36.6978L191.768 36.7024Z" fill="#C7C7C7"/>
<path d="M198.614 43.0584L191.218 47.7743L190.683 46.7864L198.465 42.7881L198.614 43.0584Z" fill="#A6A6A6"/>
<path d="M191.992 46.889C191.992 46.9645 191.97 47.0384 191.928 47.1013C191.886 47.1641 191.826 47.2131 191.756 47.242C191.686 47.2709 191.61 47.2785 191.535 47.2637C191.461 47.249 191.393 47.2126 191.34 47.1592C191.286 47.1057 191.25 47.0376 191.235 46.9635C191.22 46.8894 191.228 46.8125 191.257 46.7427C191.286 46.6729 191.335 46.6132 191.398 46.5712C191.46 46.5292 191.534 46.5068 191.61 46.5068C191.711 46.5068 191.809 46.5471 191.88 46.6188C191.952 46.6904 191.992 46.7876 191.992 46.889Z" fill="#C7C7C7"/>
<path d="M23.505 51.5352L75.6132 51.5352V48.4409L23.505 48.4409V51.5352Z" fill="#EBEBEB"/>
<path d="M71.6616 51.5352H68.5674V61.7685H71.6616V51.5352Z" fill="#EBEBEB"/>
<path d="M71.6616 51.5352H68.5674V54.6993H71.6616V51.5352Z" fill="#DBDBDB"/>
<path d="M30.5557 51.5352H27.4615V61.7685H30.5557V51.5352Z" fill="#EBEBEB"/>
<path d="M30.5557 51.5352H27.4615V54.6993H30.5557V51.5352Z" fill="#DBDBDB"/>
<path d="M62.444 48.4452V28.7241H57.4764V48.4452H62.444Z" fill="#C7C7C7"/>
<path d="M62.4487 29.8334V27.6665H57.4811V29.8334H62.4487Z" fill="#DBDBDB"/>
<path d="M62.444 33.417V32.6108H57.4764V33.417H62.444Z" fill="#DBDBDB"/>
<path d="M62.4487 45.8544V43.6875H56.866V45.8544H62.4487Z" fill="#DBDBDB"/>
<path d="M57.4811 48.4407V25.439H54.0094V48.4407H57.4811Z" fill="#DBDBDB"/>
<path d="M56.8008 36.4504V27.6011H54.7178V36.4504H56.8008Z" fill="#EBEBEB"/>
<path d="M31.7612 48.4505L48.1193 32.2798L45.6786 29.8108L29.3205 45.9816L31.7612 48.4505Z" fill="#C7C7C7"/>
<path d="M35.1016 44.1583L41.395 37.937L39.9306 36.4556L33.6372 42.6769L35.1016 44.1583Z" fill="#DBDBDB"/>
<path d="M54.0142 48.4454V30.9751H48.1193V48.4454H54.0142Z" fill="#A6A6A6"/>
<path d="M54.0142 46.5956V44.9692H48.1193V46.5956H54.0142Z" fill="#C7C7C7"/>
<path d="M54.0095 43.9018V43.2681H48.1146V43.9018H54.0095Z" fill="#C7C7C7"/>
<path d="M66.5215 48.4458V32.0239H62.4487V48.4458H66.5215Z" fill="#A6A6A6"/>
<path d="M66.5215 46.7023V45.1738H62.4487V46.7023H66.5215Z" fill="#C7C7C7"/>
<path d="M66.5169 36.9401V35.4116H62.444V36.9401H66.5169Z" fill="#C7C7C7"/>
<path d="M66.5169 38.5801V37.9883H62.444V38.5801H66.5169Z" fill="#C7C7C7"/>
<path d="M158.035 181.05H210.446L212.132 147.792H156.348L158.035 181.05Z" fill="#EBEBEB"/>
<path d="M206.634 163.044H160.421L159.782 151.45H207.37L206.634 163.044ZM160.859 162.578H206.196L206.904 151.916H160.304L160.859 162.578Z" fill="#DBDBDB"/>
<path d="M206.009 176.325H161.739L161.236 165.849H206.671L206.009 176.325ZM162.205 175.859H205.585L206.182 166.315H161.702L162.205 175.859Z" fill="#DBDBDB"/>
<path d="M188.861 158.524H179.023L178.66 155.681H189.229L188.861 158.524ZM179.433 158.058H188.451L188.698 156.147H179.186L179.433 158.058Z" fill="#DBDBDB"/>
<path d="M188.861 172.509H179.023L178.66 169.666H189.229L188.861 172.509ZM179.433 172.043H188.451L188.698 170.132H179.186L179.433 172.043Z" fill="#DBDBDB"/>
<path d="M165.304 181.05L164.796 184.671L163.771 191.95H161.767V181.05H165.304Z" fill="#EBEBEB"/>
<path d="M165.304 181.05L164.796 184.671H161.767V181.05H165.304Z" fill="#DBDBDB"/>
<path d="M203.181 181.05L203.689 184.671L204.714 191.95H206.713V181.05H203.181Z" fill="#EBEBEB"/>
<path d="M203.181 181.05L203.689 184.671H206.713V181.05H203.181Z" fill="#DBDBDB"/>
<path d="M116.5 211.685C158.368 211.685 192.309 208.065 192.309 203.6C192.309 199.134 158.368 195.515 116.5 195.515C74.632 195.515 40.6912 199.134 40.6912 203.6C40.6912 208.065 74.632 211.685 116.5 211.685Z" fill="#EBEBEB"/>
<path d="M19.2831 191.95L43.5896 191.838L67.8915 191.796L116.5 191.717L165.108 191.796L189.41 191.838L213.717 191.95L189.41 192.067L165.108 192.109L116.5 192.183L67.8915 192.104L43.5896 192.067L19.2831 191.95Z" fill="#263238"/>
<path d="M121.374 158.3C120.936 159.906 120.646 161.548 120.508 163.207C120.55 163.286 120.54 163.594 120.508 163.51C120.508 163.78 120.088 163.729 120.088 163.463V162.951C119.156 161.758 117.758 161.003 116.612 159.968C115.706 159.155 115.046 158.104 114.706 156.935C113.774 153.719 114.65 150.308 113.527 147.102C112.558 144.334 110.82 141.925 109.333 139.418C107.781 136.771 106.64 133.984 106.537 130.876C106.448 128.499 106.728 125.331 108.541 123.551C110.461 121.659 112.842 123.085 114.31 124.762C118.574 129.651 120.545 135.834 121.342 142.153C121.78 145.653 122.237 149.171 122.134 152.704C122.066 154.59 121.811 156.464 121.374 158.3Z" fill="#FFC727"/>
<path d="M120.526 164.498C120.758 161.198 120.719 157.885 120.41 154.591C120.41 154.591 120.41 154.591 120.41 154.554C120.466 151.874 120.675 149.209 120.573 146.525C120.441 143.624 120.047 140.742 119.394 137.913C119.394 137.88 119.333 137.89 119.343 137.913C119.863 140.693 120.174 143.507 120.275 146.334C120.326 147.848 120.317 149.363 120.237 150.877C120.209 151.366 120.163 151.865 120.13 152.359C119.016 144.839 116.298 137.646 112.162 131.268C112.106 131.184 111.952 131.268 112.008 131.366C114.961 136.213 117.148 141.486 118.494 147C116.444 143.207 113.368 140.085 111.038 136.436C111.038 136.436 110.992 136.436 111.001 136.436C113.066 140.499 116.472 143.701 118.648 147.704C119.027 149.335 119.338 150.98 119.58 152.639C119.889 154.911 120.054 157.2 120.074 159.493C118.769 157.209 117.579 154.861 116.509 152.457C116.481 152.392 116.388 152.457 116.411 152.503C117.278 155.066 118.448 157.83 120.084 160.015C120.084 161.637 120.042 163.277 119.948 164.88C119.692 169.21 118.951 173.478 118.611 177.789C118.613 177.813 118.622 177.835 118.639 177.853C118.655 177.87 118.678 177.881 118.701 177.884C118.725 177.887 118.749 177.881 118.769 177.868C118.79 177.855 118.804 177.835 118.811 177.812C119.68 173.417 120.253 168.969 120.526 164.498Z" fill="#263238"/>
<path d="M115.932 131.128C115.932 131.122 115.929 131.116 115.925 131.111C115.92 131.107 115.914 131.104 115.908 131.104C115.902 131.104 115.896 131.107 115.892 131.111C115.887 131.116 115.885 131.122 115.885 131.128C116.672 133.313 117.12 135.527 117.693 137.768C117.7 137.787 117.713 137.803 117.73 137.813C117.747 137.823 117.767 137.827 117.786 137.823C117.806 137.82 117.824 137.81 117.837 137.795C117.849 137.779 117.856 137.76 117.856 137.74C117.539 135.454 116.89 133.227 115.932 131.128Z" fill="#263238"/>
<path d="M135.997 140.266C135.471 141.546 134.864 142.791 134.18 143.994C132.759 146.58 131.272 148.948 131.002 151.953C130.96 153.3 130.77 154.638 130.433 155.942C130.061 157.056 129.525 158.108 128.844 159.065C127.302 161.311 125.373 163.259 123.942 165.589C122.454 168.019 121.353 170.667 120.68 173.436C120.643 173.59 120.405 173.548 120.442 173.399C120.442 173.399 120.442 173.375 120.442 173.361C120.44 173.356 120.439 173.351 120.439 173.345C120.439 173.339 120.44 173.334 120.442 173.329C120.214 166.879 120.731 160.374 122.698 154.195C123.566 151.482 124.609 148.828 125.82 146.25C126.811 143.971 128.245 141.912 130.037 140.192C131.24 139.106 133.845 137.06 135.55 138.141C136.384 138.654 136.319 139.479 135.997 140.266Z" fill="#FFC727"/>
<path d="M129.515 154.912C128.377 156.785 127.124 158.585 125.764 160.304C125.14 161.119 124.506 161.93 123.9 162.746C123.607 163.132 123.276 163.515 123.005 163.929C123.178 163.249 123.341 162.573 123.513 161.893C124.347 158.631 125.149 155.369 126.389 152.209C127.659 149.175 129.156 146.24 130.867 143.43C130.913 143.355 130.792 143.3 130.746 143.374C129.385 145.616 128.001 147.852 126.855 150.22C126.22 151.537 125.668 152.893 125.2 154.278C125.727 151.338 126.462 148.438 127.4 145.602C127.4 145.578 127.372 145.56 127.362 145.602C126.132 148.472 125.361 151.518 125.079 154.628C124.799 155.467 124.543 156.315 124.301 157.163C123.285 160.775 122.395 164.423 121.565 168.081C121.552 165.675 121.761 163.273 122.19 160.905C122.19 160.854 122.115 160.84 122.106 160.905C121.475 163.373 121.264 165.93 121.482 168.468C121.171 169.86 120.86 171.258 120.55 172.662C119.916 175.635 119.152 178.664 118.765 181.684C118.768 181.697 118.776 181.708 118.787 181.716C118.797 181.724 118.81 181.728 118.823 181.728C118.836 181.728 118.849 181.724 118.86 181.716C118.87 181.708 118.878 181.697 118.881 181.684C119.324 180.058 119.594 178.371 119.953 176.721C120.312 175.071 120.694 173.417 121.076 171.772C121.635 169.374 122.218 166.979 122.824 164.586C123.22 163.706 123.993 162.927 124.571 162.196C125.21 161.385 125.843 160.579 126.463 159.759C127.622 158.241 128.66 156.635 129.567 154.954C129.59 154.898 129.548 154.875 129.515 154.912Z" fill="#263238"/>
<path d="M129.79 152.149C128.371 153.96 127.14 155.912 126.118 157.974C126.118 158.002 126.146 158.03 126.165 158.006C127.4 156.068 128.611 154.12 129.846 152.181C129.865 152.154 129.814 152.121 129.79 152.149Z" fill="#263238"/>
<path d="M102.324 146.403C103.158 147.843 104.114 149.572 103.755 151.301C103.527 152.396 102.725 153.281 102.581 154.4C102.259 156.865 104.715 158.491 106.49 159.656C110.922 162.564 116.999 165.155 117.805 171.092C117.833 171.301 118.196 171.246 118.173 171.041C118.175 171.028 118.175 171.016 118.173 171.003C118.173 171.003 118.173 171.003 118.173 170.966C118.756 167.97 118.727 164.887 118.089 161.902C117.432 158.841 116.095 156.091 114.52 153.407C111.854 148.859 109.03 144.199 104.999 140.713C103.881 139.753 101.597 138.02 100.707 140.196C99.8172 142.372 101.299 144.646 102.324 146.403Z" fill="#FFC727"/>
<path d="M106.378 156.045C109.314 159.223 113.984 161.008 116.514 164.568C115.103 159.146 112.433 154.133 108.722 149.935C108.706 149.913 108.697 149.885 108.699 149.857C108.701 149.829 108.713 149.803 108.733 149.783C108.753 149.763 108.779 149.751 108.807 149.749C108.835 149.747 108.863 149.756 108.886 149.772C111.59 152.4 113.753 155.534 115.251 158.994C114.553 156.586 113.636 154.246 112.511 152.004C112.469 151.916 112.59 151.841 112.642 151.925C114.036 154.38 115.033 157.039 115.596 159.805C118.928 167.872 119.235 177.332 118.536 185.831C118.536 185.953 118.341 185.957 118.345 185.831C118.536 179.13 118.429 172.317 116.822 165.793C116.789 165.654 116.752 165.518 116.719 165.383C113.97 161.548 109.319 159.791 106.327 156.133C106.299 156.059 106.346 156.007 106.378 156.045Z" fill="#263238"/>
<path d="M105.698 153.314C107.241 154.712 108.76 156.175 110.302 157.587C110.302 157.587 110.302 157.629 110.302 157.62C108.561 156.445 106.993 155.034 105.642 153.426C105.632 153.416 105.625 153.404 105.623 153.39C105.62 153.376 105.622 153.362 105.628 153.349C105.635 153.336 105.645 153.326 105.657 153.32C105.67 153.314 105.684 153.312 105.698 153.314Z" fill="#263238"/>
<path d="M105.456 147.186C106.818 149.423 108.361 151.544 110.069 153.529C110.075 153.534 110.078 153.542 110.078 153.55C110.078 153.558 110.075 153.565 110.069 153.571C110.064 153.576 110.056 153.579 110.048 153.579C110.04 153.579 110.033 153.576 110.027 153.571C108.113 151.749 106.535 149.604 105.367 147.233C105.361 147.221 105.36 147.208 105.364 147.195C105.368 147.182 105.376 147.172 105.388 147.165C105.4 147.159 105.414 147.158 105.426 147.162C105.439 147.166 105.45 147.175 105.456 147.186Z" fill="#263238"/>
<path d="M112.395 191.806H125.904L124.082 173.636H114.478L112.395 191.806Z" fill="#455A64"/>
<path d="M114.137 176.591H124.38L124.082 173.636H114.478L114.137 176.591Z" fill="#263238"/>
<path d="M112.819 174.522H125.48V171.619H112.819V174.522Z" fill="#455A64"/>
<path d="M136.706 97.0259L139.334 97.5105L139.921 100.288L140.508 97.5105L143.141 97.0259L140.522 96.3875L139.921 93.7686L139.325 96.3875L136.706 97.0259Z" fill="#FFC727"/>
<path d="M135.49 47.178L138.118 47.6627L138.705 50.4353L139.292 47.6627L141.925 47.1734L139.306 46.5349L138.705 43.916L138.108 46.5349L135.49 47.178Z" fill="#FFC727"/>
<path d="M174.89 82.6824L177.518 83.1671L178.105 85.9398L178.692 83.1671L181.325 82.6778L178.706 82.0393L178.105 79.4204L177.509 82.0393L174.89 82.6824Z" fill="#FFC727"/>
<path d="M156.739 43.0726L158.212 43.3428L158.538 44.89L158.869 43.3428L160.337 43.0679L158.873 42.7137L158.538 41.2505L158.202 42.7137L156.739 43.0726Z" fill="#FFC727"/>
<path d="M173.091 59.4388L174.559 59.709L174.89 61.2608L175.216 59.709L176.684 59.4388L175.221 59.0799L174.89 57.6167L174.554 59.0799L173.091 59.4388Z" fill="#FFC727"/>
<path d="M125.764 78.8191L127.237 79.0941L127.563 80.6412L127.889 79.0941L129.362 78.8191L127.898 78.4603L127.563 76.9971L127.227 78.4603L125.764 78.8191Z" fill="#FFC727"/>
<path d="M131.412 104.286L132.88 104.557L133.211 106.108L133.537 104.557L135.01 104.286L133.546 103.928L133.211 102.464L132.875 103.928L131.412 104.286Z" fill="#FFC727"/>
<path d="M130.862 41.2508L132.335 41.5211L132.661 43.0728L132.987 41.5211L134.46 41.2508L132.996 40.892L132.661 39.4287L132.325 40.892L130.862 41.2508Z" fill="#FFC727"/>
<path d="M176.306 114.012L177.779 114.282L178.105 115.829L178.431 114.282L179.904 114.012L178.441 113.653L178.105 112.189L177.77 113.653L176.306 114.012Z" fill="#FFC727"/>
<path d="M183.45 88.7264L184.918 88.9966L185.249 90.5484L185.58 88.9966L187.048 88.7264L185.585 88.3675L185.249 86.9043L184.914 88.3675L183.45 88.7264Z" fill="#FFC727"/>
<path d="M145.257 36.875C145.362 36.886 145.46 36.9357 145.531 37.0145C145.602 37.0932 145.641 37.1954 145.641 37.3014C145.641 37.4074 145.602 37.5096 145.531 37.5883C145.46 37.6671 145.362 37.7167 145.257 37.7278C145.151 37.7167 145.054 37.6671 144.983 37.5883C144.912 37.5096 144.873 37.4074 144.873 37.3014C144.873 37.1954 144.912 37.0932 144.983 37.0145C145.054 36.9357 145.151 36.886 145.257 36.875Z" fill="#FFC727"/>
<path d="M179.904 100.745C180.009 100.756 180.107 100.805 180.178 100.884C180.249 100.963 180.288 101.065 180.288 101.171C180.288 101.277 180.249 101.379 180.178 101.458C180.107 101.537 180.009 101.586 179.904 101.597C179.799 101.586 179.701 101.537 179.63 101.458C179.559 101.379 179.52 101.277 179.52 101.171C179.52 101.065 179.559 100.963 179.63 100.884C179.701 100.805 179.799 100.756 179.904 100.745Z" fill="#FFC727"/>
<path d="M169.088 58.3945C169.201 58.3945 169.308 58.4392 169.388 58.5187C169.468 58.5983 169.512 58.7061 169.512 58.8186C169.512 58.9311 169.468 59.0389 169.388 59.1184C169.308 59.198 169.201 59.2427 169.088 59.2427C168.976 59.2427 168.868 59.198 168.788 59.1184C168.709 59.0389 168.664 58.9311 168.664 58.8186C168.664 58.7061 168.709 58.5983 168.788 58.5187C168.868 58.4392 168.976 58.3945 169.088 58.3945Z" fill="#FFC727"/>
<path d="M123.956 88.4238C124.036 88.4238 124.113 88.4557 124.17 88.5125C124.227 88.5694 124.259 88.6464 124.259 88.7267C124.259 88.8071 124.227 88.8841 124.17 88.9409C124.113 88.9977 124.036 89.0296 123.956 89.0296C123.876 89.0296 123.799 88.9977 123.742 88.9409C123.685 88.8841 123.653 88.8071 123.653 88.7267C123.653 88.6464 123.685 88.5694 123.742 88.5125C123.799 88.4557 123.876 88.4238 123.956 88.4238Z" fill="#FFC727"/>
<path d="M135.606 110.47C135.679 110.479 135.747 110.515 135.796 110.57C135.845 110.626 135.871 110.697 135.871 110.771C135.871 110.845 135.845 110.916 135.796 110.971C135.747 111.027 135.679 111.062 135.606 111.071C135.533 111.062 135.465 111.027 135.417 110.971C135.368 110.916 135.341 110.845 135.341 110.771C135.341 110.697 135.368 110.626 135.417 110.57C135.465 110.515 135.533 110.479 135.606 110.47Z" fill="#FFC727"/>
<path d="M170.948 53.4785C171.028 53.4785 171.105 53.5104 171.162 53.5672C171.219 53.624 171.25 53.7011 171.25 53.7814C171.25 53.8617 171.219 53.9388 171.162 53.9956C171.105 54.0524 171.028 54.0843 170.948 54.0843C170.867 54.0843 170.79 54.0524 170.733 53.9956C170.677 53.9388 170.645 53.8617 170.645 53.7814C170.645 53.7011 170.677 53.624 170.733 53.5672C170.79 53.5104 170.867 53.4785 170.948 53.4785Z" fill="#FFC727"/>
<path d="M149.409 34.582C149.625 34.582 149.833 34.668 149.986 34.8209C150.139 34.9738 150.224 35.1812 150.224 35.3975C150.224 35.6138 150.139 35.8212 149.986 35.9742C149.833 36.1271 149.625 36.213 149.409 36.213C149.193 36.213 148.985 36.1271 148.832 35.9742C148.679 35.8212 148.593 35.6138 148.593 35.3975C148.593 35.1812 148.679 34.9738 148.832 34.8209C148.985 34.668 149.193 34.582 149.409 34.582Z" fill="#FFC727"/>
<path d="M126.491 203.716C127.516 204.047 156.711 203.67 157.811 202.948C158.235 202.682 158.426 198.423 158.515 193.273C158.515 193.217 158.477 174.247 158.477 174.247L139.441 174.442L139.688 193.464C139.688 193.464 128.579 198.59 127.451 199.522C126.323 200.454 125.466 203.39 126.491 203.716Z" fill="#EB9481"/>
<path d="M135.266 195.464C135.341 195.441 135.379 195.417 135.384 195.394L135.266 195.464Z" fill="#FFC727"/>
<path d="M158.44 195.958C158.338 199.835 158.146 202.728 157.797 202.948C156.697 203.67 127.507 204.047 126.477 203.716C125.447 203.386 126.319 200.454 127.437 199.522C127.978 199.084 130.797 197.658 133.598 196.33C129.455 198.702 126.328 201.969 158.44 195.958Z" fill="#263238"/>
<path d="M158.44 195.958C158.337 199.835 158.146 202.729 157.797 202.948C157.364 203.232 152.499 203.469 146.729 203.623L153.78 196.81C155.249 196.556 156.803 196.271 158.44 195.958Z" fill="#37474F"/>
<path d="M164.47 90.1475C164.47 90.1475 159.54 139.851 158.822 143.616C158.659 144.474 159.106 148.766 159.037 154.758C158.887 167.834 158.543 191.423 158.543 191.423H139.609C139.609 191.423 139.008 150.555 139.917 143.038C140.825 135.522 146.655 90.1475 146.655 90.1475H164.47Z" fill="#EB9481"/>
<path d="M159.037 154.763C158.999 157.848 158.953 161.52 158.906 165.323L146.655 90.1523H164.47C164.47 90.1523 159.535 139.851 158.822 143.617C158.654 144.46 159.102 148.766 159.037 154.763Z" fill="#263238"/>
<path d="M150.388 205.454C151.436 205.715 180.528 203.269 181.577 202.472C181.978 202.174 181.871 197.915 181.577 192.77C181.577 192.719 179.559 173.846 179.559 173.846L160.845 175.365L162.811 194.294C162.811 194.294 152.093 200.212 151.035 201.209C149.977 202.206 149.344 205.203 150.388 205.454Z" fill="#EB9481"/>
<path d="M181.577 202.472C180.528 203.269 151.436 205.734 150.388 205.455C149.339 205.175 149.996 202.193 151.049 201.214C151.655 200.641 155.458 198.418 158.58 196.671C154.488 199.36 146.692 205.199 181.684 194.583C181.894 198.88 181.931 202.211 181.577 202.472Z" fill="#263238"/>
<path d="M162.587 192.174L181.377 190.776C181.377 190.776 176.498 146.972 176.39 144.176C176.237 140.056 174.666 122.633 173.007 108.858C173.007 108.858 174.825 98.9226 170.262 90.1338H146.636C146.636 90.1338 148.221 100.852 150.928 107.651C152.749 108.29 154.509 109.093 156.185 110.051C156.185 110.051 158.128 141.17 158.216 145.001C158.389 152.578 162.587 192.174 162.587 192.174Z" fill="#EB9481"/>
<path d="M146.636 90.1334C146.636 90.1334 139.18 140.927 138.877 145.639C138.574 150.35 138.747 151.641 138.747 151.641C138.747 151.641 149.181 154.903 154.637 154.945C166.777 155.057 178.315 150.494 178.315 150.494C178.315 150.494 173.385 108.983 173.352 108.881C174.628 102.506 173.705 95.8874 170.733 90.1055L146.636 90.1334Z" fill="#37474F"/>
<path d="M147.722 90.1338L144.143 121.584L142.256 137.997L141.79 142.102C141.645 143.472 141.473 144.842 141.384 146.212C141.296 148.272 141.3 150.336 141.347 152.401C141.296 150.341 141.277 148.277 141.347 146.217C141.436 144.842 141.599 143.472 141.743 142.102L142.209 137.992L144.041 121.575L147.722 90.1338Z" fill="#455A64"/>
<path d="M176.968 150.984C176.432 147.782 176.036 144.553 175.598 141.328C175.123 137.709 174.666 134.084 174.228 130.452C173.324 123.201 172.468 115.945 171.66 108.685C171.996 107.079 172.16 105.442 172.15 103.801C172.106 102.16 171.95 100.524 171.684 98.9037C171.407 97.286 171.047 95.6839 170.603 94.1039C170.221 92.7618 169.801 91.4291 169.303 90.1196C169.806 91.4244 170.235 92.7572 170.617 94.0993C171.066 95.6804 171.431 97.2841 171.712 98.9037C171.981 100.523 172.137 102.16 172.178 103.801C172.2 105.448 172.044 107.091 171.712 108.704L174.284 130.443C174.722 134.073 175.16 137.703 175.626 141.324C176.05 144.548 176.442 147.778 176.968 150.984Z" fill="#455A64"/>
<path d="M155.062 90.124L153.78 122.586L153.058 139.641L152.876 143.905C152.815 145.303 152.732 146.743 152.741 148.164C152.741 150.387 152.783 152.615 152.848 154.837C152.778 152.615 152.727 150.392 152.722 148.169C152.722 146.748 152.787 145.326 152.843 143.905L153.006 139.641L153.682 122.59L155.08 90.1287L155.062 90.124Z" fill="#455A64"/>
<path d="M173.893 151.967L171.8 131.412C171.027 123.841 170.273 116.265 169.54 108.685C169.647 107.063 169.633 105.435 169.498 103.815C169.391 102.189 169.191 100.553 168.967 98.9643C168.743 97.3752 168.464 95.7489 168.161 94.1459C167.904 92.7991 167.63 91.4524 167.327 90.1196C167.634 91.4524 167.909 92.7991 168.17 94.1459C168.478 95.7442 168.757 97.3473 168.99 98.9596C169.223 100.572 169.428 102.189 169.545 103.811C169.681 105.434 169.698 107.064 169.596 108.69C170.37 116.264 171.128 123.838 171.87 131.412L173.893 151.967Z" fill="#455A64"/>
<path d="M149.609 90.1289L147.116 122.39L145.802 139.119L145.494 143.313C145.443 144.008 145.397 144.711 145.359 145.406L145.308 147.503L145.173 153.407L145.294 147.508L145.341 145.411C145.378 144.712 145.42 144.013 145.471 143.313L145.769 139.119L147.028 122.385L149.586 90.1289H149.609Z" fill="#455A64"/>
<path d="M152.331 90.124L150.369 122.399L149.297 139.133L149.027 143.327C148.957 144.725 148.822 146.123 148.808 147.521C148.752 149.758 148.756 151.995 148.808 154.227C148.761 151.995 148.752 149.763 148.808 147.526C148.808 146.128 148.948 144.73 149.022 143.332L149.274 139.138L150.294 122.399L152.354 90.1287L152.331 90.124Z" fill="#455A64"/>
<path d="M157.261 139.8C157.261 142.596 157.196 145.439 157.233 148.258C157.261 150.476 157.294 152.69 157.345 154.903C157.294 152.69 157.247 150.471 157.219 148.253C157.168 145.434 157.219 142.615 157.219 139.795L157.312 122.884L157.587 90.1338L157.406 122.884L157.261 139.8Z" fill="#455A64"/>
<path d="M170.467 152.899L168.692 132.018C168.04 124.375 167.407 116.731 166.795 109.086C166.81 108.262 166.78 107.437 166.707 106.616C166.646 105.791 166.576 104.966 166.497 104.146C166.343 102.501 166.18 100.856 165.998 99.2113C165.677 96.1823 165.323 93.1533 164.959 90.1196C165.332 93.1455 165.686 96.1761 166.022 99.2113C166.208 100.852 166.381 102.495 166.539 104.142C166.618 104.966 166.688 105.787 166.753 106.611C166.83 107.435 166.863 108.263 166.851 109.09C167.497 116.733 168.134 124.374 168.762 132.013L170.467 152.899Z" fill="#455A64"/>
<path d="M166.213 153.827L164.582 122.139L164.181 113.858L163.976 109.72L163.724 105.577L162.792 90.0918L163.79 105.577L164.055 109.715L164.265 113.858L164.698 122.134L166.213 153.827Z" fill="#455A64"/>
<path d="M161.73 154.525H161.725L160.901 122.413L160.169 90.1196L161.003 122.413L161.73 154.525Z" fill="#455A64"/>
<path d="M158.533 48.2731C161.395 50.8827 162.378 55.333 162.378 55.333C162.378 55.333 165.206 59.7414 164.577 62.2252C164.413 62.9302 164.081 63.585 163.608 64.1336C163.136 64.6822 162.538 65.1082 161.865 65.3753L162.066 64.0053C162.066 64.0053 161.259 65.7854 158.338 66.6195C155.416 67.4537 151.487 66.7174 149.418 65.7807C148.191 65.2319 147.127 64.3746 146.329 63.2923L147.172 65.2309C146.208 65.1658 145.275 64.8632 144.456 64.3502C143.638 63.8372 142.959 63.1295 142.48 62.2904C140.653 59.3266 145.336 54.7412 145.709 53.7812C146.082 52.8213 146.305 45.9385 153.57 46.7912C153.58 46.8099 156.576 46.479 158.533 48.2731Z" fill="#263238"/>
<path d="M162.9 65.1516C163.704 64.6588 164.338 63.932 164.717 63.0685C165.132 62.2251 165.252 61.2667 165.057 60.3471C164.743 59.2701 164.238 58.2583 163.566 57.36C162.937 56.4001 162.233 55.496 161.618 54.5128C161.586 54.4569 161.665 54.4103 161.707 54.4522C162.384 55.1747 163.017 55.9372 163.603 56.7356C164.199 57.4605 164.708 58.2517 165.122 59.0936C165.516 59.8685 165.678 60.7407 165.588 61.6053C165.476 62.3077 165.197 62.9727 164.773 63.5439C164.245 64.1749 163.638 64.7342 162.965 65.2075C162.9 65.2401 162.853 65.1749 162.9 65.1516Z" fill="#263238"/>
<path d="M141.743 59.1821C142.498 56.6191 144.698 54.9182 145.984 52.6581C146.683 51.4325 147.2 50.0858 148.132 49.0093C148.155 48.9813 148.207 49.0093 148.183 49.0512C147.424 50.0205 147.009 51.1576 146.478 52.2527C145.91 53.3404 145.236 54.3691 144.465 55.3236C143.109 57.1037 141.482 59.2054 141.916 61.5913C142.116 62.6911 142.824 63.8887 143.975 64.1869C144.022 64.1869 143.999 64.2708 143.975 64.2522C143.519 64.0924 143.101 63.8415 142.745 63.5146C142.389 63.1877 142.104 62.7917 141.906 62.3509C141.474 61.3484 141.416 60.2237 141.743 59.1821Z" fill="#263238"/>
<path d="M141.664 59.8713C141.545 58.9179 141.724 57.9511 142.177 57.1033C142.683 56.2968 143.359 55.61 144.157 55.0902C145.033 54.4518 145.956 53.8413 146.487 52.8627C146.487 52.8208 146.566 52.8627 146.548 52.9C145.704 54.5123 144.008 55.3185 142.894 56.6886C141.622 58.259 141.72 60.4585 142.712 62.1454C143.346 63.17 144.211 64.0318 145.238 64.6618C145.238 64.6618 145.238 64.6991 145.238 64.6898C143.477 63.6413 141.897 61.9777 141.664 59.8713Z" fill="#263238"/>
<path d="M155.574 67.9379C154.996 70.3984 146.827 88.3953 140.415 91.2845C136.729 92.9481 130.508 93.2883 132.297 86C133.486 81.1583 144.031 72.3462 150.043 67.5278C152.499 65.5613 156.278 64.9368 155.574 67.9379Z" fill="#EB9481"/>
<path d="M150.695 80.4596L145.49 71.2048C147.484 69.3473 149.588 67.6107 151.79 66.0043C155.518 63.2735 157.522 64.4758 155.611 70.4033C154.457 73.9714 152.802 77.3574 150.695 80.4596Z" fill="#FFC727"/>
<path d="M146.841 70.4403C147.307 71.0834 147.675 71.7964 148.085 72.4767C148.495 73.1571 148.864 73.7722 149.232 74.4293C149.996 75.7993 150.732 77.1787 151.441 78.5813C151.441 78.6046 151.413 78.6279 151.399 78.6046C150.594 77.2812 149.808 75.9453 149.041 74.597C148.659 73.9306 148.29 73.2503 147.927 72.5699C147.563 71.8896 147.121 71.1719 146.799 70.4636C146.79 70.4403 146.827 70.417 146.841 70.4403Z" fill="#263238"/>
<path d="M155.607 70.4031C154.455 73.9714 152.802 77.3575 150.695 80.4594L146.673 73.3016L155.816 64.9648C156.543 65.6638 156.576 67.4486 155.607 70.4031Z" fill="#263238"/>
<path d="M147.801 84.0991L146.655 90.1571L170.733 90.1151C170.733 90.1151 166.311 71.778 160.551 65.6734C157.932 62.8774 155.383 63.3434 153.225 65.1375C152.736 65.5476 147.233 74.8396 146.473 77.9898C145.858 80.5621 147.801 84.0991 147.801 84.0991Z" fill="#FFC727"/>
<path d="M157.629 84.4064C156.779 84.2361 155.921 84.1147 155.057 84.0429C154.624 84.0103 154.195 84.001 153.761 84.001C153.556 84.001 153.347 84.001 153.142 84.001C152.937 84.001 152.676 84.0476 152.457 84.0522V84.0895C152.671 84.0895 152.885 84.1268 153.1 84.1454C153.314 84.1641 153.533 84.1687 153.747 84.1874L155.038 84.2713C155.905 84.3225 156.763 84.3831 157.625 84.4623C157.63 84.4675 157.636 84.4711 157.643 84.4727C157.65 84.4743 157.657 84.4739 157.664 84.4715C157.671 84.4691 157.677 84.4648 157.681 84.4591C157.685 84.4535 157.688 84.4466 157.689 84.4395C157.689 84.4324 157.688 84.4252 157.684 84.4189C157.681 84.4126 157.676 84.4074 157.67 84.4039C157.663 84.4004 157.656 84.3988 157.649 84.3992C157.642 84.3997 157.635 84.4022 157.629 84.4064Z" fill="#263238"/>
<path d="M158.305 69.0007C158.92 71.4333 163.897 89.104 163.855 90.0127C163.855 90.0127 173.827 96.0707 175.64 90.3715C176.819 86.6435 167.01 70.9766 162.126 66.27C159.838 64.1077 157.009 63.898 158.305 69.0007Z" fill="#EB9481"/>
<path d="M170.607 75.5385L160.029 76.4705C159.154 73.8895 158.435 71.258 157.876 68.5904C156.921 64.0702 158.841 62.7328 163.468 66.9128C166.244 69.4361 168.647 72.3402 170.607 75.5385Z" fill="#FFC727"/>
<path d="M159.889 74.9323C160.663 74.7739 161.469 74.7273 162.257 74.6341C163.044 74.5409 163.757 74.457 164.507 74.3918C166.073 74.2566 167.63 74.1588 169.2 74.0889C169.206 74.0889 169.212 74.0913 169.216 74.0957C169.221 74.1001 169.223 74.106 169.223 74.1122C169.223 74.1183 169.221 74.1243 169.216 74.1286C169.212 74.133 169.206 74.1355 169.2 74.1355C167.662 74.3265 166.12 74.4896 164.577 74.6388C163.808 74.7133 163.039 74.7646 162.271 74.8205C161.502 74.8764 160.682 74.9836 159.889 74.9789C159.883 74.9789 159.877 74.9765 159.873 74.9721C159.868 74.9677 159.866 74.9618 159.866 74.9556C159.866 74.9495 159.868 74.9435 159.873 74.9392C159.877 74.9348 159.883 74.9323 159.889 74.9323Z" fill="#263238"/>
<path d="M159.554 75.4918C159.428 75.1237 159.316 74.7555 159.209 74.3827C159.209 74.3082 159.167 74.229 159.144 74.1544C158.909 73.7296 158.698 73.2925 158.51 72.8449C158.51 72.8449 158.51 72.817 158.533 72.8449C158.722 73.1653 158.895 73.4951 159.051 73.8329C158.881 73.2647 158.745 72.6875 158.64 72.104C158.64 72.104 158.64 72.104 158.668 72.104C158.929 72.8356 159.134 73.5812 159.381 74.3222C159.498 74.6763 160.024 76.4518 160.043 76.4518C160.153 76.4443 160.264 76.4443 160.374 76.4518C160.439 76.4518 160.402 76.4797 160.374 76.4844L159.908 76.5916C159.908 76.5916 159.661 75.7994 159.554 75.4918Z" fill="#263238"/>
<path d="M133.248 69.4338C134.101 68.5018 142.973 66.0553 143.244 67.91C144.581 77.011 140.382 88.5445 137.27 91.2846C134.576 93.6518 132.456 90.9956 131.64 88.7542C130.899 86.7038 132.409 70.3658 133.248 69.4338Z" fill="#EB9481"/>
<path d="M132.959 72.2718C132.959 72.2718 132.54 71.3818 131.692 67.6724C131.254 65.1256 131.568 62.5066 132.594 60.1349C133.62 57.7633 135.314 55.7417 137.47 54.3168C139.8 52.7231 141.958 53.6738 139.8 55.7614C138.29 57.2293 137.116 58.1194 136.762 58.7392C136.762 58.7392 139.968 58.4176 141.198 59.825C142.273 61.0552 143.258 62.3601 144.148 63.73C143.936 63.9522 143.708 64.1593 143.467 64.3498C143.467 64.3498 144.614 67.7376 143.407 70.0909L132.959 72.2718Z" fill="#EB9481"/>
<path d="M131.528 65.133C132.181 63.9167 133.612 61.363 135.508 59.6854C137.614 57.8214 142.172 54.7878 143.537 56.3535C144.535 57.5045 142.894 58.814 142.894 58.814C142.894 58.814 145.043 57.9612 145.718 59.1961C146.333 60.3238 145.005 61.2605 145.005 61.2605C145.005 61.2605 146.403 60.9669 146.781 62.1645C147.247 63.6091 144.25 63.9866 143.453 65.8553C143.276 66.2747 131.528 65.133 131.528 65.133Z" fill="#EB9481"/>
<path d="M137.134 62.2853C138.649 60.5822 140.647 59.3823 142.862 58.8462C142.922 58.8462 142.959 58.8462 142.908 58.8928C140.856 59.791 138.921 60.9382 137.148 62.3086C137.148 62.3086 137.125 62.2992 137.134 62.2853Z" fill="#263238"/>
<path d="M139.054 64.3081C139.842 63.4786 142.433 61.6333 144.982 61.2139C145.038 61.2139 145.075 61.2465 145.024 61.2651C142.93 62.057 140.933 63.0858 139.073 64.3314C139.073 64.3314 139.045 64.3081 139.054 64.3081Z" fill="#263238"/>
<path d="M133.607 58.2125C134.292 57.1403 135.107 56.1573 136.035 55.286C136.947 54.3741 138.091 53.7295 139.343 53.422C139.674 53.3437 140.021 53.3765 140.331 53.5152C140.494 53.6011 140.617 53.7462 140.676 53.9206C140.736 54.0827 140.76 54.2561 140.746 54.4285C140.715 54.7712 140.58 55.0963 140.359 55.3605C140.157 55.6165 139.925 55.8479 139.67 56.0502C139.204 56.4556 138.738 56.8844 138.272 57.3177L137.596 57.9795C137.374 58.1933 137.166 58.4206 136.971 58.6598L136.794 58.4827C137.531 58.0167 138.267 57.5507 139.022 57.136C139.768 56.6875 140.547 56.2964 141.352 55.9663C141.781 55.8093 142.241 55.7597 142.694 55.8219C142.929 55.8438 143.157 55.9169 143.362 56.036C143.566 56.1551 143.742 56.3174 143.878 56.5115C144.002 56.7239 144.054 56.9707 144.027 57.2152C143.999 57.4477 143.926 57.6726 143.812 57.8769C143.59 58.2648 143.31 58.6167 142.983 58.9208L142.852 58.7111C143.295 58.5609 143.756 58.47 144.222 58.4408C144.461 58.4238 144.701 58.4395 144.935 58.4874C145.182 58.5349 145.409 58.6513 145.592 58.8229C145.766 59.0064 145.882 59.2362 145.928 59.4846C145.986 59.7235 145.986 59.9728 145.928 60.2116C145.784 60.6729 145.495 61.0752 145.103 61.358L145.029 61.1809C145.325 61.1471 145.625 61.1677 145.914 61.2415C146.212 61.3068 146.48 61.471 146.674 61.7075C146.76 61.8321 146.825 61.9708 146.865 62.1175C146.913 62.2678 146.932 62.4261 146.921 62.5835C146.899 62.7365 146.846 62.8835 146.766 63.0156C146.686 63.1477 146.58 63.2623 146.455 63.3524C145.994 63.6939 145.511 64.0053 145.01 64.2844C144.523 64.5742 144.098 64.9556 143.756 65.4075C143.831 65.771 143.891 66.1345 143.933 66.5073C143.975 66.8758 143.975 67.2478 143.933 67.6164C143.958 67.2459 143.941 66.8738 143.882 66.5073C143.831 66.1438 143.761 65.7803 143.677 65.4215C144.01 64.9512 144.433 64.5519 144.921 64.2472C145.402 63.9598 145.869 63.6487 146.319 63.3152C146.481 63.1972 146.601 63.0301 146.661 62.8387C146.72 62.6473 146.717 62.4418 146.65 62.2527C146.615 62.1251 146.556 62.0051 146.478 61.8985C146.289 61.7045 146.056 61.5603 145.798 61.479C145.54 61.3976 145.266 61.3817 145.001 61.4325L144.651 61.4698L144.931 61.2508C145.278 60.9915 145.533 60.6271 145.658 60.2116C145.707 60.0063 145.707 59.7924 145.658 59.5872C145.616 59.3856 145.521 59.199 145.383 59.0466C145.214 58.9194 145.022 58.8268 144.817 58.774C144.612 58.7212 144.399 58.7094 144.19 58.739C143.747 58.7712 143.31 58.8605 142.89 59.0047L142.372 59.1771L142.764 58.795C143.07 58.5085 143.331 58.1769 143.537 57.8117C143.643 57.6484 143.705 57.4606 143.718 57.2663C143.73 57.072 143.692 56.8779 143.607 56.7026C143.49 56.5444 143.34 56.4128 143.168 56.3164C142.997 56.22 142.806 56.1611 142.61 56.1434C142.201 56.094 141.786 56.1419 141.398 56.2832C140.605 56.6091 139.836 56.9906 139.096 57.4249C138.348 57.8474 137.608 58.2901 136.878 58.753L136.282 59.1305L136.701 58.5759C136.907 58.3239 137.128 58.0843 137.363 57.8583C137.587 57.6346 137.829 57.3923 138.048 57.1966C138.514 56.7585 138.98 56.3345 139.474 55.9244C139.719 55.7367 139.941 55.5209 140.136 55.2813C140.333 55.0578 140.458 54.7801 140.494 54.4844C140.506 54.3392 140.487 54.1931 140.438 54.0557C140.42 53.9912 140.388 53.9311 140.346 53.8791C140.303 53.827 140.251 53.7841 140.191 53.7528C139.92 53.6307 139.615 53.6012 139.325 53.6689C138.1 53.9594 136.974 54.5706 136.063 55.4397C135.138 56.2644 134.314 57.1951 133.607 58.2125Z" fill="#263238"/>
<path d="M143.463 73.022C143.438 74.2375 143.348 75.4509 143.192 76.6568C143.043 77.8637 142.829 79.0613 142.582 80.2543C142.313 81.4426 141.98 82.6155 141.585 83.7679C141.183 84.9184 140.663 86.024 140.033 87.0672C140.54 85.9697 140.973 84.8395 141.328 83.6841C141.683 82.5284 141.993 81.3603 142.26 80.1797C142.535 79.0008 142.726 77.8125 142.945 76.6195C143.165 75.4265 143.304 74.2289 143.463 73.022Z" fill="#263238"/>
<path d="M156.525 90.1523C152.331 88.731 148.062 86.6153 145.397 82.8547C145.085 82.4454 144.921 81.943 144.931 81.4287C143.71 79.7651 144.124 78.6887 144.124 78.6887C143.463 76.7874 144.041 75.7435 144.041 75.7435C144.041 75.7435 142.643 73.777 143.672 72.7238C144.847 71.5402 146.604 74.5366 148.579 75.5944C153.104 78.0176 160.229 80.1985 161.59 80.767L156.525 90.1523Z" fill="#EB9481"/>
<path d="M151.553 81.3587C150.22 80.6694 148.936 79.891 147.708 79.0287C146.428 77.9933 145.226 76.8657 144.111 75.6549C144.103 75.6504 144.094 75.6484 144.086 75.6491C144.077 75.6498 144.069 75.6532 144.062 75.6589C144.055 75.6645 144.051 75.6721 144.048 75.6806C144.046 75.689 144.047 75.698 144.05 75.7061C145.965 78.261 148.544 80.2418 151.506 81.4333C151.585 81.4472 151.618 81.396 151.553 81.3587Z" fill="#263238"/>
<path d="M150.485 84.3459C149.246 83.5537 147.07 82.1511 144.176 78.5908C144.176 78.5908 144.148 78.5908 144.152 78.5908C145.673 81.0694 147.853 83.0764 150.448 84.3879C150.518 84.4391 150.569 84.3879 150.485 84.3459Z" fill="#263238"/>
<path d="M149.884 85.8929C147.825 84.4949 146.706 83.3112 144.959 81.3447C144.959 81.3447 144.926 81.3447 144.935 81.3447C146.683 83.7912 147.596 84.4762 149.847 85.9581C149.922 86.0234 149.964 85.9488 149.884 85.8929Z" fill="#263238"/>
<path d="M154.246 78.1666C154.959 78.2505 155.01 77.8777 154.101 76.9783C153.193 76.0789 148.836 73.2876 149.935 71.8523C151.035 70.417 157.13 74.4433 158.528 76.0463C159.686 77.5306 160.72 79.1079 161.618 80.7622C160.262 80.2217 156.879 79.2198 154.246 78.1666Z" fill="#EB9481"/>
<path d="M161.73 80.7294C160.332 80.5663 152.186 87.5237 153.938 88.6514C162.177 93.9591 170.658 94.2434 172.578 93.8939C175.076 93.4279 176.129 90.4175 175.584 88.8471C174.783 86.5684 163.123 80.8925 161.73 80.7294Z" fill="#EB9481"/>
<path d="M171.777 85.5623C167.699 82.4122 161.651 80.6181 161.641 80.6134C161.558 80.5668 161.385 80.6833 161.432 80.7113C162.317 81.1773 168.492 83.6657 171.684 85.6602C171.712 85.6788 171.805 85.5856 171.777 85.5623Z" fill="#263238"/>
<path d="M147.433 74.7695C146.96 74.307 146.464 73.8684 145.947 73.4554C145.434 73.064 144.912 72.57 144.274 72.556C144.123 72.5598 143.976 72.5997 143.845 72.6725C143.721 72.7541 143.619 72.8665 143.551 72.9987C143.424 73.2919 143.379 73.614 143.421 73.9307C143.45 74.2553 143.54 74.5715 143.686 74.8627C143.826 75.1583 143.982 75.4461 144.152 75.7248L144.18 75.7714V75.8227C144.03 76.2824 143.962 76.7652 143.98 77.2487C143.995 77.7363 144.096 78.2176 144.278 78.67V78.7119V78.7585C144.196 78.9737 144.166 79.2051 144.19 79.4342C144.21 79.6749 144.264 79.9116 144.348 80.1379C144.433 80.3655 144.534 80.5867 144.651 80.7996C144.773 81.0134 144.907 81.2203 145.052 81.4194L145.075 81.452V81.5079C145.031 81.8094 145.087 82.117 145.234 82.384C145.374 82.6747 145.538 82.9537 145.723 83.2181C146.102 83.7493 146.521 84.2509 146.976 84.7186C146.495 84.274 146.05 83.7926 145.644 83.2787C145.438 83.0185 145.26 82.7374 145.112 82.4399C145.039 82.2906 144.979 82.1346 144.935 81.9739C144.882 81.7977 144.882 81.6096 144.935 81.4333V81.5219C144.78 81.3223 144.637 81.1138 144.507 80.8974C144.374 80.678 144.262 80.4472 144.171 80.2078C144.078 79.9672 144.02 79.7145 143.999 79.4575C143.966 79.189 144.001 78.9166 144.101 78.6653V78.7538C143.907 78.2795 143.796 77.7749 143.775 77.2626C143.752 76.7481 143.828 76.234 143.999 75.7481V75.846C143.825 75.5592 143.67 75.262 143.533 74.9559C143.382 74.6475 143.289 74.3144 143.258 73.9727C143.218 73.622 143.276 73.2673 143.426 72.9475C143.512 72.7867 143.641 72.6529 143.798 72.5607C143.958 72.4738 144.138 72.4304 144.32 72.4349C144.666 72.4613 144.998 72.5858 145.276 72.7937C145.546 72.9878 145.806 73.1963 146.054 73.4181C146.51 73.8189 146.981 74.2849 147.433 74.7695Z" fill="#263238"/>
<path d="M152.079 65.7944C152.079 65.7944 151.804 68.6464 153.859 68.9959C155.914 69.3454 159.871 64.5316 159.871 64.5316C159.871 64.5316 158.533 63.5996 156.143 63.7813C154.595 63.9574 153.157 64.6696 152.079 65.7944Z" fill="#EB9481"/>
<path d="M157.764 64.8251C157.685 65.2911 155.635 68.4739 153.491 68.5019C152.792 68.5019 152.559 64.6993 152.559 64.6993L152.48 64.4197L151.361 60.5333L155.807 57.2713L156.455 56.8379C156.455 56.8379 156.693 57.919 156.972 59.2751L157.014 59.4661C157.014 59.5407 157.047 59.6153 157.061 59.6852C157.107 59.8855 157.149 60.0952 157.191 60.3003C157.233 60.5053 157.252 60.6078 157.28 60.7663C157.308 60.9247 157.34 61.0925 157.368 61.2556C157.585 62.4346 157.717 63.6274 157.764 64.8251Z" fill="#EB9481"/>
<path d="M156.986 59.2844C156.655 60.4141 156.082 61.458 155.306 62.3433C154.53 63.2286 153.57 63.9341 152.494 64.4104L151.375 60.524L155.821 57.262L156.469 56.8286C156.469 56.8286 156.707 57.9284 156.986 59.2844Z" fill="#263238"/>
<path d="M145.126 53.9719C143.5 60.8873 147.456 62.6441 148.948 62.9936C150.299 63.3105 154.95 64.2192 157.284 57.5088C159.619 50.7984 156.916 47.858 153.859 46.9679C150.802 46.0778 146.757 47.0658 145.126 53.9719Z" fill="#EB9481"/>
<path d="M146.543 52.7699C146.698 52.7804 146.854 52.7804 147.009 52.7699C147.183 52.7964 147.36 52.7636 147.512 52.6767C147.554 52.6396 147.582 52.59 147.593 52.5354C147.604 52.4807 147.597 52.424 147.573 52.3737C147.51 52.282 147.424 52.2086 147.323 52.1612C147.222 52.1137 147.111 52.0938 147 52.1035C146.772 52.0876 146.547 52.1593 146.371 52.3038C146.33 52.3393 146.301 52.3862 146.288 52.4385C146.274 52.4907 146.277 52.5458 146.296 52.5964C146.315 52.647 146.348 52.6907 146.392 52.7217C146.437 52.7527 146.489 52.7695 146.543 52.7699Z" fill="#263238"/>
<path d="M151.17 53.8742C151.011 53.8184 150.856 53.753 150.704 53.6785C150.537 53.6294 150.39 53.5282 150.285 53.3895C150.261 53.3389 150.255 53.2818 150.267 53.2271C150.279 53.1724 150.308 53.1231 150.35 53.0866C150.446 53.0296 150.556 52.9995 150.667 52.9995C150.779 52.9995 150.888 53.0296 150.984 53.0866C151.2 53.1642 151.378 53.3207 151.483 53.5247C151.499 53.5699 151.503 53.6187 151.494 53.666C151.485 53.7132 151.463 53.7572 151.431 53.7931C151.399 53.8289 151.358 53.8555 151.312 53.8697C151.266 53.884 151.217 53.8856 151.17 53.8742Z" fill="#263238"/>
<path d="M149.828 55.188C149.828 55.188 149.861 55.2206 149.856 55.2392C149.726 55.7052 149.661 56.2598 150.052 56.5207C150.052 56.5207 150.052 56.5487 150.052 56.5207C149.539 56.3483 149.633 55.612 149.828 55.188Z" fill="#263238"/>
<path d="M150.364 54.7969C151.133 54.9181 150.83 56.4512 150.122 56.3394C149.414 56.2275 149.716 54.6944 150.364 54.7969Z" fill="#263238"/>
<path d="M150.649 54.9363C150.765 55.0482 150.868 55.2299 151.026 55.2765C151.184 55.3231 151.38 55.1973 151.534 55.0668H151.557C151.501 55.3604 151.329 55.64 151.007 55.6214C150.686 55.6027 150.541 55.3045 150.541 54.9969C150.541 54.9876 150.602 54.8897 150.649 54.9363Z" fill="#263238"/>
<path d="M147.228 54.6245C147.228 54.6245 147.186 54.6245 147.186 54.6571C147.112 55.1231 146.944 55.6683 146.487 55.7476V55.7755C147.023 55.7988 147.256 55.0858 147.228 54.6245Z" fill="#263238"/>
<path d="M146.897 54.0558C146.142 53.8554 145.797 55.3745 146.496 55.5609C147.195 55.7473 147.531 54.2142 146.897 54.0558Z" fill="#263238"/>
<path d="M146.557 54.0556C146.417 54.1069 146.268 54.228 146.119 54.2047C145.97 54.1814 145.867 53.9857 145.797 53.7993C145.797 53.7993 145.774 53.7993 145.769 53.7993C145.695 54.0882 145.723 54.4144 145.988 54.5309C146.254 54.6474 146.454 54.4331 146.613 54.1628C146.636 54.1442 146.613 54.0556 146.557 54.0556Z" fill="#263238"/>
<path d="M149.12 59.1446C148.99 59.2425 148.85 59.3776 148.654 59.3683C148.488 59.3364 148.33 59.2732 148.188 59.1819C148.188 59.1819 148.155 59.1819 148.188 59.1819C148.243 59.2856 148.325 59.3727 148.425 59.4342C148.525 59.4956 148.639 59.5292 148.757 59.5314C148.858 59.5211 148.954 59.4805 149.032 59.4149C149.11 59.3492 149.167 59.2615 149.195 59.1632C149.195 59.1632 149.12 59.1306 149.12 59.1446Z" fill="#263238"/>
<path d="M147.489 57.024C147.489 57.024 147.242 57.709 147.172 58.0446C147.172 58.0725 147.247 58.1051 147.359 58.1378C147.634 58.2495 147.935 58.2834 148.228 58.2357C148.522 58.188 148.796 58.0607 149.022 57.8675C149.055 57.8395 149.022 57.7976 148.985 57.8116C148.498 58.0153 147.958 58.0545 147.447 57.9234C147.447 57.8255 147.913 56.7631 147.857 56.7491C147.594 56.7122 147.328 56.7122 147.065 56.7491C147.531 55.2998 148.23 53.9531 148.673 52.4991C148.673 52.4432 148.617 52.4153 148.593 52.4572C147.801 53.8899 147.153 55.3979 146.66 56.9588C146.604 57.1592 147.345 57.052 147.489 57.024Z" fill="#263238"/>
<path d="M147.438 57.9841C147.563 58.2988 147.767 58.5762 148.03 58.7903C148.175 58.9031 148.353 58.9667 148.537 58.972C148.943 58.972 149.05 58.6365 149.064 58.3243C149.071 58.1572 149.058 57.9899 149.027 57.8257C148.527 58.0457 147.971 58.1012 147.438 57.9841Z" fill="#263238"/>
<path d="M148.03 58.7906C148.175 58.9034 148.353 58.967 148.538 58.9723C148.943 58.9723 149.05 58.6368 149.064 58.3246C148.864 58.2776 148.655 58.2978 148.468 58.382C148.281 58.4663 148.127 58.6099 148.03 58.7906Z" fill="#FF98B9"/>
<path d="M156.641 58.4083C156.243 58.101 155.931 57.6955 155.737 57.2315C155.542 56.7675 155.472 56.2609 155.532 55.7614C154.437 54.981 153.57 53.9225 153.02 52.6951C153.02 52.8489 153.156 53.944 153.235 54.4986C149.041 52.765 148.374 49.1349 148.374 49.1349C147.376 49.7295 146.526 50.5419 145.886 51.5115C145.886 51.5115 146.417 48.818 148.174 47.3175C148.754 46.7888 149.464 46.4238 150.231 46.26C150.998 46.0962 151.795 46.1395 152.54 46.3855C153.676 46.349 154.801 46.6198 155.796 47.1694C156.791 47.7189 157.619 48.5267 158.193 49.5077C160.383 53.1751 156.641 58.4083 156.641 58.4083Z" fill="#263238"/>
<path d="M150.052 53.077C150.674 53.6107 151.373 54.0475 152.126 54.3725C150.969 53.7782 150 52.8728 149.33 51.7582C149.042 51.2806 148.815 50.7686 148.654 50.2344C148.46 49.6573 148.383 49.0476 148.426 48.4403C148.423 48.4332 148.418 48.427 148.412 48.4227C148.406 48.4183 148.398 48.416 148.391 48.416C148.383 48.416 148.376 48.4183 148.369 48.4227C148.363 48.427 148.358 48.4332 148.356 48.4403C148.256 49.0342 148.256 49.6406 148.356 50.2344C148.478 50.821 148.704 51.3811 149.022 51.8887C149.308 52.3308 149.655 52.7308 150.052 53.077Z" fill="#263238"/>
<path d="M156.529 60.0628C156.417 60.0855 156.304 60.098 156.189 60.1001C156.078 60.1014 155.966 60.0873 155.858 60.0581C155.716 60.0256 155.584 59.9601 155.472 59.8671C155.381 59.7983 155.301 59.7167 155.234 59.6248C155.139 59.4944 155.07 59.3474 155.029 59.1914L155.691 57.3693C155.691 57.3693 157.555 55.4028 158.459 56.0925C159.363 56.7822 157.76 59.7972 156.529 60.0628Z" fill="#EB9481"/>
<path d="M157.974 56.9448C157.974 56.9448 157.974 56.9728 157.974 56.9774C157.103 57.1871 156.576 57.9094 156.147 58.6271C156.207 58.5522 156.282 58.4913 156.368 58.4483C156.453 58.4054 156.547 58.3816 156.643 58.3785C156.739 58.3754 156.834 58.3931 156.922 58.4304C157.01 58.4677 157.089 58.5236 157.154 58.5945C157.154 58.5945 157.154 58.6411 157.126 58.6317C156.988 58.5644 156.833 58.5416 156.682 58.5667C156.531 58.5917 156.391 58.6634 156.282 58.7715C156.108 58.9534 155.952 59.1516 155.816 59.3634C155.77 59.4333 155.639 59.3634 155.681 59.2935C155.812 58.2496 156.837 56.8842 157.974 56.9448Z" fill="#263238"/>
<path d="M156.543 59.6711C156.521 59.7316 156.482 59.7841 156.43 59.8221C156.378 59.8601 156.315 59.8818 156.251 59.8846C156.187 59.8873 156.123 59.8709 156.068 59.8374C156.013 59.804 155.969 59.755 155.942 59.6966C155.914 59.6382 155.905 59.5731 155.915 59.5094C155.925 59.4457 155.953 59.3863 155.996 59.3387C156.04 59.2911 156.096 59.2575 156.159 59.242C156.221 59.2265 156.287 59.2299 156.348 59.2517C156.389 59.2657 156.426 59.2879 156.458 59.3167C156.49 59.3456 156.516 59.3807 156.535 59.4198C156.553 59.459 156.563 59.5014 156.565 59.5446C156.566 59.5878 156.559 59.6308 156.543 59.6711Z" fill="white"/>
<path d="M109.272 205.315C108.196 205.65 77.6729 204.998 76.5266 204.238C76.0885 203.954 75.9254 199.499 75.8788 194.117C75.8788 192.952 75.8788 191.759 75.8788 190.533C75.8788 189.089 75.8788 187.63 75.9114 186.209C75.9907 179.834 76.1817 174.219 76.1817 174.219L96.052 174.587L95.8236 186.577L95.7397 190.902L95.5673 194.48C95.5673 194.48 107.143 199.961 108.312 200.93C109.482 201.899 110.344 204.984 109.272 205.315Z" fill="#AD6359"/>
<path d="M109.272 205.315C108.196 205.65 77.6729 204.998 76.5266 204.239C76.0885 203.954 75.9254 199.499 75.8788 194.117C75.8788 192.952 75.8788 191.759 75.8788 190.533C75.8788 189.089 75.8788 187.63 75.9114 186.209L95.8236 186.577L95.7397 190.902L95.5673 194.48C95.5673 194.48 107.143 199.961 108.312 200.93C109.482 201.899 110.344 204.984 109.272 205.315Z" fill="white"/>
<path d="M109.361 205.366C108.662 205.581 95.6605 205.366 86.1961 205.017C84.0105 204.928 82.002 204.831 80.3897 204.728C78.1669 204.584 76.6617 204.434 76.4333 204.262C75.9021 203.908 75.767 197.375 75.7716 190.482L95.7444 190.855L95.572 194.453C95.572 194.453 107.222 199.961 108.387 200.935C109.552 201.909 110.442 205.04 109.361 205.366Z" fill="#C7C7C7"/>
<path d="M108.946 204.108C103.82 203.871 83.0412 203.405 77.9431 203.558C77.9012 203.558 77.9012 203.591 77.9431 203.591C83.0318 203.94 103.801 204.239 108.946 204.192C109.044 204.211 109.044 204.132 108.946 204.108Z" fill="#263238"/>
<path d="M96.3222 193.339C94.3091 192.92 91.8253 193.176 90.2642 194.588C90.2036 194.639 90.2642 194.728 90.3481 194.709C92.2959 194.127 94.3001 193.754 96.3269 193.595C96.3566 193.589 96.3832 193.573 96.4021 193.549C96.4211 193.525 96.4311 193.496 96.4306 193.465C96.43 193.435 96.4189 193.406 96.3991 193.383C96.3793 193.36 96.3521 193.344 96.3222 193.339Z" fill="#263238"/>
<path d="M97.7669 194.252C95.7491 193.833 93.2653 194.089 91.7088 195.497C91.6483 195.552 91.7088 195.636 91.7927 195.618C93.7399 195.034 95.7445 194.662 97.7715 194.509C97.8012 194.502 97.8279 194.486 97.8468 194.462C97.8657 194.438 97.8758 194.409 97.8752 194.379C97.8747 194.348 97.8635 194.319 97.8438 194.296C97.824 194.273 97.7968 194.257 97.7669 194.252Z" fill="#263238"/>
<path d="M99.2114 195.166C97.1936 194.742 94.7098 195.003 93.1301 196.41C93.0695 196.466 93.1301 196.55 93.2139 196.531C95.1632 195.949 97.169 195.575 99.1974 195.418C99.2308 195.419 99.2635 195.408 99.2884 195.386C99.3133 195.363 99.3284 195.332 99.3302 195.299C99.3321 195.265 99.3206 195.233 99.2983 195.208C99.276 195.183 99.2447 195.168 99.2114 195.166Z" fill="#263238"/>
<path d="M100.656 196.074C98.6382 195.655 96.159 195.911 94.5979 197.323C94.5374 197.375 94.5979 197.463 94.6818 197.444C96.628 196.862 98.6307 196.489 100.656 196.331C100.686 196.325 100.713 196.309 100.732 196.286C100.751 196.262 100.762 196.233 100.762 196.203C100.762 196.172 100.751 196.143 100.732 196.119C100.713 196.096 100.686 196.08 100.656 196.074Z" fill="#263238"/>
<path d="M93.7405 205.255C91.1729 205.189 88.5726 205.106 86.196 205.012C84.0058 204.928 82.002 204.831 80.3896 204.728C78.1668 204.584 76.6616 204.439 76.4333 204.262C75.9673 203.95 75.8042 198.903 75.7809 193.027C80.3104 196.07 89.211 202.151 93.7405 205.255Z" fill="#A6A6A6"/>
<path d="M97.5199 194.234L74.8443 194.257C74.8443 194.257 76.0885 143.211 75.8462 142.023C75.2591 139.185 62.3648 94.1787 62.3648 94.1787L80.2686 94.4863L85.087 94.5935C85.087 94.5935 85.8559 102.087 86.0703 102.884C89.0666 113.802 94.9243 132.442 96.0986 139.357C98.163 151.334 97.5199 194.234 97.5199 194.234Z" fill="#263238"/>
<path d="M96.7881 190.445C93.2512 190.352 80.7205 189.979 76.0046 190.333C75.9673 190.333 75.9673 190.394 76.0046 190.399C77.6169 190.664 93.2465 190.59 96.7881 190.543C96.7986 190.54 96.8077 190.533 96.8142 190.525C96.8206 190.516 96.8241 190.505 96.8241 190.494C96.8241 190.483 96.8206 190.473 96.8142 190.464C96.8077 190.455 96.7986 190.448 96.7881 190.445Z" fill="#37474F"/>
<path d="M77.6216 140.895C76.9459 138.137 71.8945 120.946 70.352 115.512C68.8095 110.079 67.3556 104.631 66.0229 99.151C65.8551 98.4567 65.6827 97.753 65.4963 97.0727C65.4963 97.0121 65.3984 97.04 65.4077 97.096C65.9203 99.8547 66.5914 102.595 67.2438 105.326C67.8962 108.056 68.5812 110.778 69.3128 113.49C70.7761 118.942 72.3729 124.354 74.1033 129.725C74.9654 132.405 76.3914 137.899 77.151 140.611C77.9105 143.323 76.685 187.77 76.7502 188.493C76.7567 188.53 76.7764 188.565 76.8058 188.59C76.8352 188.615 76.8725 188.628 76.911 188.628C76.9495 188.628 76.9867 188.615 77.0161 188.59C77.0456 188.565 77.0653 188.53 77.0717 188.493C77.1696 183.25 78.288 143.621 77.6216 140.895Z" fill="#37474F"/>
<path d="M80.2732 94.4819C80.2732 94.4819 75.8928 142.252 75.8462 142.014C75.2823 139.269 63.157 96.947 62.3975 94.3001C62.3695 94.2163 62.3602 94.1743 62.3602 94.1743L80.2732 94.4819Z" fill="#37474F"/>
<path d="M85.744 207.934C84.6676 208.27 54.1446 207.613 52.9982 206.853C52.5602 206.569 52.397 202.114 52.3504 196.731C52.3504 195.571 52.3504 194.373 52.3504 193.148C52.3504 191.708 52.3505 190.245 52.3784 188.823C52.4576 182.449 52.6487 176.838 52.6487 176.838L72.5236 177.206L72.2906 189.192L72.2067 193.516L72.0343 197.1C72.0343 197.1 83.6097 202.575 84.7794 203.549C85.9491 204.523 86.8251 207.603 85.744 207.934Z" fill="#AD6359"/>
<path d="M85.744 207.934C84.6676 208.269 54.1446 207.612 52.9982 206.853C52.5602 206.569 52.397 202.114 52.3504 196.731C52.3504 195.571 52.3504 194.373 52.3504 193.148C52.3504 191.708 52.3505 190.245 52.3784 188.823L72.2906 189.191L72.2067 193.516L72.0343 197.099C72.0343 197.099 83.6097 202.575 84.7794 203.549C85.9491 204.523 86.8251 207.603 85.744 207.934Z" fill="white"/>
<path d="M85.8418 207.98C85.1428 208.195 72.1414 208.004 62.677 207.631C60.4914 207.542 58.483 207.445 56.8706 207.347C54.6478 207.202 53.1426 207.053 52.9143 206.881C52.383 206.527 52.2479 199.993 52.2526 193.101L72.2253 193.469L72.0529 197.067C72.0529 197.067 83.7029 202.575 84.8679 203.553C86.0329 204.532 86.9183 207.64 85.8418 207.98Z" fill="#C7C7C7"/>
<path d="M85.4317 206.741C80.3057 206.508 59.5221 206.038 54.4241 206.196C54.3822 206.196 54.3822 206.224 54.4241 206.229C59.5128 206.573 80.2824 206.872 85.4271 206.83C85.5343 206.825 85.5389 206.751 85.4317 206.741Z" fill="#263238"/>
<path d="M72.8031 195.958C70.79 195.534 68.3062 195.795 66.7451 197.202C66.6845 197.258 66.7451 197.342 66.829 197.323C68.7783 196.741 70.7841 196.367 72.8124 196.21C72.8458 196.208 72.8773 196.194 72.9 196.169C72.9228 196.145 72.9348 196.112 72.9336 196.079C72.9324 196.046 72.9179 196.014 72.8935 195.991C72.869 195.969 72.8365 195.957 72.8031 195.958Z" fill="#263238"/>
<path d="M74.2478 196.867C72.23 196.448 69.7462 196.704 68.1898 198.116C68.1292 198.167 68.1898 198.256 68.2736 198.237C70.215 197.654 72.213 197.279 74.2338 197.119C74.2619 197.113 74.2872 197.098 74.306 197.076C74.3247 197.054 74.3357 197.027 74.3373 196.998C74.3388 196.969 74.3309 196.941 74.3148 196.917C74.2986 196.894 74.275 196.876 74.2478 196.867Z" fill="#263238"/>
<path d="M75.6924 197.78C73.6746 197.361 71.1908 197.617 69.611 199.024C69.5505 199.08 69.611 199.169 69.6949 199.145C71.6449 198.569 73.6507 198.202 75.6784 198.05C75.7142 198.052 75.7493 198.04 75.776 198.016C75.8026 197.992 75.8187 197.958 75.8205 197.922C75.8224 197.886 75.8099 197.851 75.7859 197.825C75.7618 197.798 75.7282 197.782 75.6924 197.78Z" fill="#263238"/>
<path d="M77.1324 198.693C75.1146 198.269 72.6355 198.53 71.0743 199.937C71.0138 199.993 71.0743 200.077 71.1582 200.059C73.1055 199.475 75.11 199.103 77.137 198.95C77.1667 198.943 77.1934 198.927 77.2123 198.903C77.2312 198.879 77.2413 198.85 77.2407 198.819C77.2402 198.789 77.229 198.76 77.2093 198.737C77.1895 198.714 77.1623 198.698 77.1324 198.693Z" fill="#263238"/>
<path d="M73.3763 196.545L51.3718 196.14C51.3718 196.14 57.551 116.775 56.7821 112.572C55.5239 105.689 56.9079 99.4076 58.7393 94.1045L81.3496 94.5006C81.3496 94.5006 81.6618 100.526 79.3831 104.077C79.3831 104.077 77.3513 105.312 76.3634 105.852L73.3763 196.545Z" fill="#263238"/>
<path d="M72.7706 192.64C69.434 192.491 70.394 192.486 67.0574 192.374C65.4217 192.319 54.6898 191.969 53.1566 192.188C53.124 192.188 53.1193 192.249 53.1566 192.253C54.6758 192.542 65.4124 192.719 67.0481 192.719C70.3893 192.766 69.4293 192.719 72.7706 192.719C72.7764 192.715 72.7811 192.708 72.7844 192.702C72.7876 192.695 72.7893 192.687 72.7893 192.68C72.7893 192.672 72.7876 192.665 72.7844 192.658C72.7811 192.651 72.7764 192.645 72.7706 192.64Z" fill="#37474F"/>
<path d="M80.7392 103.135C78.6136 104.116 76.5746 105.274 74.6439 106.598C74.6279 106.608 74.6164 106.623 74.612 106.642C74.6076 106.66 74.6107 106.68 74.6206 106.696C74.6305 106.712 74.6464 106.723 74.6647 106.727C74.6831 106.732 74.7024 106.729 74.7185 106.719C76.7782 105.628 78.8845 104.571 80.879 103.373C81.0375 103.28 80.9023 103.065 80.7392 103.135Z" fill="#37474F"/>
<path d="M78.0131 102.776C77.8817 103.19 77.7774 103.612 77.7008 104.039C77.6083 104.371 77.5799 104.717 77.617 105.06C77.617 105.125 77.7195 105.12 77.7521 105.06C77.9222 104.742 78.0402 104.399 78.1016 104.044C78.2134 103.653 78.3299 103.261 78.4325 102.865C78.443 102.81 78.4315 102.753 78.4004 102.706C78.3694 102.659 78.3212 102.627 78.2662 102.615C78.2113 102.603 78.154 102.614 78.1066 102.644C78.0593 102.674 78.0257 102.722 78.0131 102.776Z" fill="#37474F"/>
<path d="M77.8593 100.708C77.9245 100.353 77.9897 99.9946 78.0596 99.6404C78.1295 99.2863 78.2321 98.9041 78.2787 98.5313C78.2787 98.4708 78.3812 98.4941 78.3672 98.5313C78.3066 98.8902 78.2926 99.2583 78.2554 99.6218C78.2181 99.9853 78.1808 100.349 78.1389 100.708C78.055 101.383 77.9292 102.064 77.78 102.725C78.1379 102.672 78.4789 102.538 78.7773 102.334C79.0606 102.059 79.2512 101.702 79.3225 101.313C79.4344 100.908 79.5322 100.493 79.6534 100.088C79.804 99.6431 79.9162 99.1863 79.9889 98.7224C79.9889 98.6618 80.0914 98.6805 80.0821 98.7224C79.9788 99.7001 79.7774 100.665 79.4809 101.602C79.413 101.969 79.2164 102.3 78.9264 102.534C78.5509 102.727 78.1403 102.841 77.7195 102.87C77.6729 102.893 77.5983 102.87 77.603 102.809C77.6589 102.143 77.7334 101.416 77.8593 100.708Z" fill="#37474F"/>
<path d="M60.2724 112.362C60.1466 110.782 59.9182 109.212 59.7738 107.637C59.4895 104.463 59.9928 101.346 60.5194 98.2097C60.6452 97.4827 60.305 97.8508 60.2957 97.9114C59.6796 100.716 59.3919 103.582 59.4383 106.453C59.5221 109.249 59.9648 111.985 59.9555 114.771C59.9462 117.558 59.6759 120.41 59.4429 123.22C59.2099 126.03 58.9769 128.872 58.7393 131.696C57.8073 143.062 56.9125 154.428 56.0085 165.794C55.7569 168.967 55.5425 172.141 55.2722 175.314C55.0019 178.488 54.6524 186.498 54.4754 189.76C54.4754 190.04 54.8761 190.026 54.9041 189.76C55.4912 184.061 55.9666 173.599 56.4372 167.891C56.9079 162.182 57.318 156.576 57.784 150.905C58.25 145.234 58.6787 139.6 59.1214 133.947C59.3404 131.119 59.5501 128.29 59.7691 125.466C59.9881 122.642 60.2351 119.832 60.3376 117.008C60.4021 115.459 60.3804 113.908 60.2724 112.362Z" fill="#37474F"/>
<path d="M68.1291 98.1538C68.1246 98.1461 68.1182 98.1397 68.1104 98.1352C68.1026 98.1308 68.0938 98.1284 68.0849 98.1284C68.0759 98.1284 68.0671 98.1308 68.0594 98.1352C68.0516 98.1397 68.0451 98.1461 68.0406 98.1538C67.9065 98.5235 67.831 98.9119 67.8169 99.3049C67.7464 99.7258 67.642 100.14 67.5047 100.544C67.2546 101.36 66.797 102.097 66.1766 102.683C64.8019 103.923 62.9892 104.356 61.237 104.752C61.1718 104.752 61.1951 104.855 61.237 104.86C62.2707 104.924 63.3067 104.781 64.2847 104.44C65.1553 104.192 65.9625 103.76 66.6519 103.173C67.3114 102.569 67.7686 101.776 67.9614 100.903C68.0589 100.443 68.1166 99.9753 68.1338 99.5052C68.1338 99.2816 68.1338 99.0392 68.1338 98.8342C68.174 98.609 68.1724 98.3784 68.1291 98.1538Z" fill="#37474F"/>
<path d="M77.2116 67.5701C78.9451 73.013 88.7264 86.2101 92.9717 87.459C96.0426 88.391 108.862 82.3889 112.474 80.0729C115.959 77.8407 107.669 67.5654 105.535 68.7351C102.52 70.3847 95.558 75.5527 94.3044 75.4734C93.4284 75.4175 88.8103 71.7454 81.8343 65.2494C77.9758 61.6565 76.177 64.3081 77.2116 67.5701Z" fill="#AD6359"/>
<path d="M110.242 65.0677C112.203 64.5038 114.408 63.6976 116.547 63.8607C118.686 64.0238 120.275 66.955 120.237 67.7612C120.2 68.5673 119.086 73.5582 116.975 73.4324C114.864 73.3066 116.356 69.5133 116.3 69.066C116.244 68.6186 116.202 68.0454 115.796 68.064C115.391 68.0827 108.112 71.0138 108.112 71.0138L110.242 65.0677Z" fill="#AD6359"/>
<path d="M110.358 65.3707C110.479 65.3707 116.337 63.4601 118.471 63.6232C120.605 63.7863 122.199 66.7174 122.167 67.5236C122.134 68.3298 121.016 73.3206 118.881 73.1948C116.747 73.069 118.261 69.2757 118.206 68.8284C118.15 68.381 118.108 67.8078 117.702 67.8265C117.297 67.8451 110.041 70.7763 110.041 70.7763L110.358 65.3707Z" fill="#AD6359"/>
<path d="M118.173 72.8827C117.966 72.4883 117.868 72.046 117.889 71.6012C117.871 71.1422 117.925 70.6833 118.047 70.2405C118.189 69.8635 118.3 69.4754 118.378 69.0802C118.397 68.6846 118.317 68.2906 118.145 67.9338C117.996 67.6216 117.679 67.7055 117.404 67.7847C116.998 67.9164 116.599 68.072 116.211 68.2507L114.958 68.8052C114.518 68.9806 114.09 69.1829 113.676 69.411C113.643 69.411 113.676 69.4856 113.699 69.4716C114.077 69.351 114.447 69.2094 114.808 69.0476L116.067 68.5816C116.458 68.4324 116.845 68.2647 117.236 68.1156C117.414 68.0245 117.61 67.9766 117.809 67.9758C117.973 68.0224 118.029 68.4418 118.056 68.5629C118.125 68.952 118.076 69.3526 117.917 69.7139C117.781 70.0881 117.684 70.4754 117.628 70.8696C117.568 71.2408 117.576 71.6197 117.651 71.988C117.767 72.3167 117.924 72.6297 118.117 72.92C118.126 72.9619 118.201 72.9247 118.173 72.8827Z" fill="#263238"/>
<path d="M103.252 70.5805C103.252 70.5805 109.491 65.5337 110.787 64.5225C113.387 62.5187 124.054 58.8792 125.512 58.8093C126.971 58.7394 127.321 61.7498 120.07 64.4246C116.248 65.8226 115.461 67.9289 115.461 69.1172C115.461 70.3055 116.463 72.5749 118.453 72.6355C120.442 72.6961 121.906 69.8721 123.756 69.6578C125.606 69.4434 124.198 72.7194 122.791 74.5787C121.33 76.37 119.391 77.7096 117.199 78.4419C115.442 78.9871 109.981 80.9676 109.981 80.9676L103.252 70.5805Z" fill="#AD6359"/>
<path d="M121.006 71.3917C120.223 71.9276 119.329 72.6313 118.341 72.608C117.353 72.5847 116.696 71.8857 116.272 71.0282C115.795 70.1777 115.666 69.1756 115.913 68.2322C116.196 67.3879 116.715 66.6424 117.409 66.084C118.256 65.406 119.198 64.855 120.205 64.4483C120.247 64.4483 120.205 64.3644 120.167 64.3831C119.235 64.7372 116.314 65.7345 115.596 68.2136C115.357 69.1742 115.495 70.1899 115.983 71.0515C116.379 71.867 116.975 72.6685 117.935 72.8037C119.105 72.9714 120.172 72.0721 121.057 71.4057C121.099 71.3964 121.048 71.3637 121.006 71.3917Z" fill="#263238"/>
<path d="M105.288 68.8655L109.799 84.9239C109.799 84.9239 96.3874 89.076 92.6734 87.8038C88.9594 86.5316 80.0122 74.9096 77.0671 68.0034C75.2776 63.8094 77.8499 61.2092 82.3561 65.1096C87.0162 69.1125 93.5029 74.6626 94.0062 74.8956C94.5094 75.1286 105.288 68.8655 105.288 68.8655Z" fill="#455A64"/>
<path d="M103.918 78.2276C103.657 77.03 102.651 72.2209 102.492 71.0093H102.529C102.907 72.137 104.039 76.8529 104.3 78.0505C104.881 80.4333 105.33 82.8462 105.647 85.2782C105.647 85.3201 105.586 85.3434 105.572 85.3015C104.85 82.9855 104.421 80.6182 103.918 78.2276Z" fill="#263238"/>
<path d="M77.0671 68.0039C79.453 73.5959 85.7859 82.2915 90.0731 86.0614L79.5462 63.3766C76.89 62.5098 75.697 64.7746 77.0671 68.0039Z" fill="#263238"/>
<path d="M56.852 99.1374L85.8419 99.3052C85.9677 99.1793 87.1001 98.6854 86.7739 94.51C86.0329 84.999 82.8595 68.0785 80.8184 64.4717C80.4377 63.7443 79.9162 63.0999 79.2842 62.5759C78.6522 62.0519 77.9223 61.6588 77.137 61.4195C76.3518 61.1801 75.5267 61.0993 74.7099 61.1817C73.8931 61.264 73.1008 61.508 72.3791 61.8993C70.6829 62.9572 69.1171 64.3412 67.1459 67.2723C62.3089 74.4674 58.2127 87.1892 56.4792 94.1792C55.7383 97.073 56.7681 99.0535 56.852 99.1374Z" fill="#455A64"/>
<path d="M77.1323 67.1605C76.6337 67.072 73.6885 64.0243 72.9383 61.8668C72.887 61.7176 73.339 60.329 73.8144 58.6048C74.094 57.5656 74.3829 56.4006 74.5739 55.3148C74.6112 55.0958 75.2962 55.6317 75.2962 55.6317L76.6383 56.2142L81.084 58.1574C80.4614 59.4425 79.9997 60.7995 79.7093 62.1976C79.6817 62.3513 79.6708 62.5076 79.6766 62.6636C79.6788 62.6884 79.6788 62.7134 79.6766 62.7382C79.686 63.591 77.9431 67.305 77.1323 67.1605Z" fill="#AD6359"/>
<path d="M79.686 62.6493C79.6882 62.6741 79.6882 62.6991 79.686 62.7239C79.4495 62.7166 79.214 62.6885 78.9824 62.64C74.4295 61.7453 74.8676 55.8364 74.8676 55.8364L76.6617 56.2279L81.084 58.1571C80.4615 59.4422 79.9998 60.7992 79.7093 62.1973C79.6859 62.3468 79.678 62.4983 79.686 62.6493Z" fill="#263238"/>
<path d="M83.5771 44.9927C83.5771 44.9927 85.6462 46.0412 85.8745 48.2547C86.1028 50.4682 85.4365 52.6957 85.2407 52.7889C85.045 52.8821 83.5771 44.9927 83.5771 44.9927Z" fill="#263238"/>
<path d="M74.7417 47.5326C73.7258 49.8626 74.2198 57.0343 75.7716 58.7911C78.0223 61.3401 82.0952 62.0158 84.3553 59.2245C86.5501 56.517 85.7533 47.2017 83.9731 45.566C81.3682 43.1708 76.2375 44.0888 74.7417 47.5326Z" fill="#AD6359"/>
<path d="M81.1073 52.5186C81.1073 52.5186 81.0747 52.5186 81.0747 52.5605C81.1213 53.0265 81.0747 53.6043 80.6646 53.7907V53.8187C81.2005 53.7069 81.2285 52.9659 81.1073 52.5186Z" fill="#263238"/>
<path d="M80.646 52.043C79.8677 52.043 79.905 53.5901 80.646 53.5994C81.3869 53.6087 81.2984 52.0476 80.646 52.043Z" fill="#263238"/>
<path d="M83.9079 52.5278C83.9079 52.5278 83.9452 52.5278 83.9452 52.5698C83.9452 53.0358 84.0197 53.6043 84.4625 53.7534V53.7814C83.9219 53.7208 83.824 52.9845 83.9079 52.5278Z" fill="#263238"/>
<path d="M84.3459 52.0107C85.1195 51.9315 85.2174 53.488 84.4997 53.5625C83.7821 53.6371 83.6749 52.076 84.3459 52.0107Z" fill="#263238"/>
<path d="M80.0122 51.344C80.2219 51.2834 80.4083 51.1949 80.6133 51.1157C80.8348 51.0649 81.0332 50.9419 81.1772 50.7662C81.2126 50.7028 81.2259 50.6295 81.2149 50.5577C81.2039 50.486 81.1693 50.4199 81.1166 50.3701C80.9965 50.2867 80.8565 50.2367 80.7107 50.2252C80.5649 50.2137 80.4188 50.2412 80.2871 50.3048C80.0038 50.3945 79.7633 50.5853 79.6114 50.8407C79.5788 50.901 79.5645 50.9696 79.5706 51.0379C79.5766 51.1063 79.6026 51.1713 79.6453 51.225C79.688 51.2786 79.7456 51.3185 79.8108 51.3397C79.8761 51.3609 79.9461 51.3624 80.0122 51.344Z" fill="#263238"/>
<path d="M84.9098 51.2091C84.6991 51.1731 84.4906 51.1248 84.2854 51.0647C84.0575 51.0448 83.8428 50.9498 83.6749 50.7944C83.6318 50.7365 83.6085 50.6662 83.6085 50.594C83.6085 50.5218 83.6318 50.4515 83.6749 50.3936C83.7821 50.2946 83.9139 50.2263 84.0566 50.196C84.1993 50.1656 84.3476 50.1743 84.4858 50.2212C84.7805 50.2684 85.0467 50.4248 85.2314 50.6592C85.2703 50.7141 85.2926 50.779 85.2955 50.8461C85.2985 50.9133 85.282 50.9799 85.2481 51.038C85.2141 51.096 85.1642 51.143 85.1042 51.1734C85.0442 51.2037 84.9767 51.2161 84.9098 51.2091Z" fill="#263238"/>
<path d="M80.7765 57.0108C80.893 57.1226 81.0141 57.2764 81.1866 57.2857C81.3667 57.2784 81.5431 57.2323 81.7038 57.1506C81.7038 57.1506 81.7364 57.1506 81.7038 57.1506C81.6377 57.2478 81.5464 57.3252 81.4397 57.3744C81.333 57.4237 81.2149 57.4429 81.098 57.4302C80.9984 57.4073 80.9079 57.3551 80.8381 57.2804C80.7684 57.2057 80.7226 57.1118 80.7066 57.0108C80.7206 57.0061 80.7578 56.9968 80.7765 57.0108Z" fill="#263238"/>
<path d="M81.2472 55.5521C81.3734 55.7406 81.5378 55.9005 81.7296 56.0217C81.9214 56.1429 82.1364 56.2226 82.3609 56.2557C82.5572 56.2836 82.7564 56.2836 82.9527 56.2557H83.0692H83.1717C83.1973 56.2514 83.2205 56.2384 83.2375 56.2188C83.2545 56.1993 83.2642 56.1744 83.2649 56.1485C83.2672 56.1315 83.2672 56.1143 83.2649 56.0973V56.0507C83.2649 55.6825 83.2137 55.1187 83.2137 55.1187C83.3535 55.1839 84.0525 55.4775 84.0385 55.2864C83.9511 53.6107 83.695 51.948 83.2742 50.3236C83.2712 50.3142 83.2653 50.3061 83.2573 50.3004C83.2494 50.2946 83.2398 50.2915 83.23 50.2915C83.2202 50.2915 83.2106 50.2946 83.2027 50.3004C83.1947 50.3061 83.1888 50.3142 83.1857 50.3236C83.2556 51.8753 83.5958 53.3991 83.6937 54.9556C83.4445 54.8454 83.1809 54.7717 82.9108 54.7366C82.8595 54.7366 83.0273 55.827 83.0133 55.9948C82.4025 56.0721 81.786 55.9045 81.2984 55.5288C81.2518 55.4822 81.2145 55.5148 81.2472 55.5521Z" fill="#263238"/>
<path d="M82.729 56.0877C82.5321 56.358 82.2689 56.573 81.9648 56.7121C81.796 56.7791 81.6114 56.7953 81.4335 56.7587C81.0421 56.6655 81.0235 56.2927 81.0887 56.0085C81.1244 55.8472 81.1792 55.6908 81.2518 55.5425C81.6737 55.8767 82.1912 56.0677 82.729 56.0877Z" fill="#263238"/>
<path d="M81.9648 56.7124C81.796 56.7794 81.6114 56.7956 81.4335 56.759C81.0421 56.6658 81.0235 56.293 81.0887 56.0088C81.2914 56.0148 81.4866 56.0868 81.6447 56.2137C81.8028 56.3407 81.9152 56.5158 81.9648 56.7124Z" fill="#FF98B9"/>
<path d="M74.8116 53.6509C75.641 53.8046 76.2935 51.2836 76.4472 50.3236C76.5824 49.4801 76.5498 46.8519 76.5684 46.6702C76.587 46.4884 80.3383 48.5668 82.2955 47.742C84.2527 46.9171 85.3991 44.946 85.3292 44.0978C85.2593 43.2497 82.5006 41.3764 80.3104 41.5162C78.1202 41.656 75.4919 44.7782 75.4919 44.7782C75.8007 44.3339 76.0749 43.8665 76.3121 43.3802C76.2655 43.287 74.9141 44.0093 74.779 45.0392C74.779 45.0392 74.9141 43.7483 74.8023 43.739C74.6904 43.7297 73.7258 44.9273 74.066 45.7149C74.066 45.7149 72.9289 46.9544 72.9476 48.1707C72.9662 49.387 73.833 53.4691 74.8116 53.6509Z" fill="#263238"/>
<path d="M83.6843 47.1549C83.1225 47.5462 82.5051 47.8509 81.8529 48.059C81.1135 48.2084 80.3489 48.1748 79.6254 47.9611C78.898 47.7622 78.2072 47.4475 77.5797 47.0291C77.0252 46.6703 76.5219 46.2229 75.9394 45.9107C75.7903 45.8315 75.6551 46.0458 75.753 46.1623C76.8031 47.3296 78.1994 48.1298 79.7373 48.4458C80.4516 48.594 81.1923 48.5533 81.8862 48.3278C82.58 48.1022 83.203 47.6996 83.6936 47.1596C83.6936 47.1596 83.6936 47.1503 83.6843 47.1549Z" fill="#263238"/>
<path d="M75.5572 53.4786C75.5572 53.4786 74.1871 51.0554 73.1013 51.5214C72.0156 51.9874 72.901 55.3986 74.066 55.9624C74.2108 56.0453 74.3709 56.0981 74.5367 56.1176C74.7024 56.1371 74.8704 56.1229 75.0306 56.0759C75.1907 56.0289 75.3397 55.95 75.4686 55.8441C75.5975 55.7381 75.7037 55.6072 75.7808 55.4591L75.5572 53.4786Z" fill="#AD6359"/>
<path d="M73.3764 52.4951C73.3764 52.4951 73.3531 52.4951 73.3764 52.5231C74.1919 52.9471 74.5647 53.7766 74.8023 54.6247C74.7615 54.5349 74.7017 54.4551 74.6269 54.3907C74.5522 54.3263 74.4643 54.279 74.3695 54.252C74.2746 54.2249 74.175 54.2188 74.0775 54.2341C73.9801 54.2494 73.8871 54.2857 73.8051 54.3405C73.7989 54.3405 73.793 54.3429 73.7886 54.3473C73.7843 54.3517 73.7818 54.3576 73.7818 54.3638C73.7818 54.37 73.7843 54.3759 73.7886 54.3802C73.793 54.3846 73.7989 54.3871 73.8051 54.3871C73.9586 54.3555 74.1181 54.3717 74.2622 54.4333C74.4062 54.4949 74.5281 54.5991 74.6113 54.7319C74.7492 54.9564 74.8617 55.1955 74.9468 55.4449C74.9794 55.5241 75.1192 55.4961 75.1006 55.4076V55.3843C75.2264 54.3032 74.5274 52.7141 73.3764 52.4951Z" fill="#263238"/>
<path d="M79.686 62.6911L77.5517 66.5542L73.162 60.8364L71.5403 62.3043C71.5403 62.3043 75.4733 71.0185 75.5479 70.655L77.6309 67.393L79.7419 70.1052L80.2825 64.0006L79.686 62.6911Z" fill="white"/>
<path d="M80.1519 67.1042C80.2078 66.0929 80.2917 65.0771 80.301 64.0612C80.301 64.0286 80.2451 64.0053 80.2311 64.0612C79.9143 64.9932 79.7232 68.875 79.6067 69.793C79.5228 69.6765 77.6402 67.3931 77.6122 67.421C77.1835 67.929 75.6597 70.3196 75.5478 70.5386C74.9234 69.1406 72.5142 64.1078 71.7453 62.775C71.7401 62.7691 71.7332 62.7649 71.7255 62.7631C71.7178 62.7614 71.7097 62.7621 71.7025 62.7652C71.6952 62.7683 71.6891 62.7737 71.6851 62.7804C71.6811 62.7872 71.6793 62.7951 71.68 62.803C72.202 64.2476 75.3754 71.0372 75.4407 71.0279C76.2293 69.9096 76.9588 68.7508 77.6262 67.5562C77.9338 68.0222 79.8024 70.5898 79.8257 70.4407C79.9935 69.3351 80.1024 68.2213 80.1519 67.1042Z" fill="#263238"/>
<path d="M92.9251 84.2858C93.7173 84.2858 94.2765 84.2485 94.3231 84.2438L94.2159 82.6827C94.1786 82.6827 90.5904 82.9157 88.745 82.1701C87.2771 81.5736 85.6555 77.4449 84.9378 73.7821C84.4718 71.4521 84.7328 70.7438 84.9378 70.5201C84.9798 70.4735 85.0916 70.3384 85.5063 70.3384H86.937C87.3517 71.5873 88.0134 72.8408 89.0107 72.8408H91.8999V71.2984H89.1272C88.7285 70.7116 88.4382 70.0582 88.2697 69.3691L88.1113 68.7959H85.5063C85.1722 68.7757 84.8378 68.8334 84.5297 68.9644C84.2216 69.0954 83.9482 69.2962 83.7309 69.5509C83.0505 70.3664 82.948 71.7644 83.414 74.0943C83.7881 75.9781 84.3437 77.8211 85.073 79.5978C86.005 81.816 87.0535 83.1674 88.1719 83.6194C89.5466 84.1786 91.5737 84.2858 92.9251 84.2858Z" fill="#FFC727"/>
<path opacity="0.2" d="M89.6024 71.2793H91.8952V72.8451H89.9566L89.6024 71.2793Z" fill="black"/>
<path opacity="0.2" d="M94.3371 84.2438C94.2765 84.2438 93.7173 84.2857 92.9391 84.2857C92.8086 84.2857 92.6735 84.2857 92.529 84.2857L92.1795 82.7153C93.3166 82.7526 94.2253 82.7153 94.2439 82.7153L94.3371 84.2438Z" fill="black"/>
<path d="M107.944 84.2855C107.152 84.2855 106.593 84.2482 106.546 84.2436L106.653 82.6825C106.691 82.6825 110.279 82.9155 112.124 82.1699C113.592 81.5734 115.214 77.4446 115.931 73.7819C116.397 71.4519 116.136 70.7436 115.931 70.5199C115.889 70.4733 115.782 70.3381 115.368 70.3381H113.937C113.527 71.587 112.861 72.8406 111.863 72.8406H108.974V71.2981H111.77C112.169 70.7113 112.459 70.0579 112.628 69.3689L112.786 68.7957H115.396C115.729 68.7762 116.062 68.8342 116.37 68.9652C116.677 69.0962 116.95 69.2965 117.166 69.5506C117.842 70.3708 117.94 71.7781 117.479 74.1127C117.104 75.9964 116.549 77.8395 115.82 79.6162C114.888 81.8344 113.839 83.1858 112.721 83.6378C111.323 84.1783 109.296 84.2855 107.944 84.2855Z" fill="#FFC727"/>
<path opacity="0.2" d="M111.267 71.2793H108.974V72.8451H110.913L111.267 71.2793Z" fill="black"/>
<path opacity="0.2" d="M106.532 84.2438C106.593 84.2438 107.152 84.2857 107.93 84.2857C108.061 84.2857 108.201 84.2857 108.34 84.2857L108.69 82.7153C107.553 82.7526 106.644 82.7153 106.625 82.7153L106.532 84.2438Z" fill="black"/>
<path d="M92.268 99.9105V100.787H108.606V99.9105H107.203L106.164 98.4146L101.406 96.5227V87.2446H99.463V96.5227L94.7098 98.4146L93.666 99.9105H92.268Z" fill="#FFC727"/>
<path d="M98.9225 88.4795H101.942V87.5009H98.9225V88.4795Z" fill="#FFC727"/>
<path opacity="0.2" d="M98.9271 88.1256L101.942 87.9905V87.5059H98.9271V88.1256Z" fill="black"/>
<path d="M90.4459 67.7383C90.4459 67.7383 91.2055 80.3809 93.2 83.8805C95.1945 87.3802 99.4444 87.6738 100.437 87.6738C101.43 87.6738 105.679 87.3755 107.669 83.8805C109.659 80.3855 110.442 67.7383 110.442 67.7383H90.4459Z" fill="#FFC727"/>
<path opacity="0.3" d="M98.9179 87.52C97.1983 87.231 94.626 86.3689 93.2 83.8759C91.2056 80.3809 90.4413 67.7383 90.4413 67.7383H92.3053C92.5616 70.3945 93.0696 80.5346 94.5095 83.4844C95.7863 86.0614 98.7175 87.4454 98.9179 87.52Z" fill="white"/>
<path opacity="0.2" d="M107.203 99.9106H93.666L94.0388 99.3747L106.5 98.8994L107.203 99.9106Z" fill="black"/>
<path opacity="0.1" d="M100.437 71.7314L101.509 73.9077L103.909 74.2525L102.171 75.9487L102.581 78.3393L100.437 77.2116L98.2887 78.3393L98.6988 75.9487L96.9606 74.2525L99.3605 73.9077L100.437 71.7314Z" fill="black"/>
<path d="M68.036 66.8341C64.0703 74.2901 56.1856 91.1965 59.7552 94.3653C65.6314 99.5659 78.2088 103.024 82.2537 103.685C84.0012 103.96 88.3722 90.9635 86.6574 90.1713C84.5976 89.2393 71.7966 86.0752 71.6615 85.5113C71.5263 84.9475 72.668 76.2286 72.5329 69.5415C72.3558 61.2141 69.6763 63.7305 68.036 66.8341Z" fill="#AD6359"/>
<path d="M80.4223 90.1197C80.4223 90.1197 85.3339 87.9389 88.6146 86.6574C90.4413 85.9444 93.6893 85.0031 95.2737 85.0963C97.641 85.2314 107.464 87.3144 107.008 89.7097C106.598 91.8719 98.3866 89.0107 98.3866 89.0107C98.3866 89.0107 106.928 91.1682 105.954 93.6707C104.98 96.1731 96.1312 91.7181 96.1312 91.7181C96.1312 91.7181 104.85 94.132 103.452 96.5785C102.385 98.4192 94.132 94.8263 94.132 94.8263C94.132 94.8263 101.616 96.9513 100.6 98.8899C99.4724 101.033 91.6622 98.1955 91.6622 98.1955C88.2418 102.692 84.8866 103.68 82.2444 103.671C81.6292 103.666 80.4223 90.1197 80.4223 90.1197Z" fill="#AD6359"/>
<path d="M95.8841 88.1908C102.296 89.2999 105.097 91.807 105.013 91.7557C102.93 90.5395 99.421 89.3884 98.4145 89.0809C97.4079 88.7733 96.858 88.5357 95.8701 88.2281C95.8468 88.2235 95.8608 88.1862 95.8841 88.1908Z" fill="#263238"/>
<path d="M94.3137 91.6299C96.9252 91.9573 99.4577 92.7462 101.793 93.9599C101.882 94.0158 101.84 94.0391 101.742 94.0065C100.493 93.5824 95.5626 92.0073 94.2858 91.6485C94.2811 91.6532 94.2904 91.6299 94.3137 91.6299Z" fill="#263238"/>
<path d="M92.7573 94.5004C94.7778 94.7995 96.7248 95.4727 98.4984 96.4856C98.587 96.5322 98.4985 96.5695 98.4239 96.5322C96.5273 95.8378 95.0454 95.2786 92.7434 94.5703C92.734 94.5563 92.734 94.4911 92.7573 94.5004Z" fill="#263238"/>
<path d="M82.6544 88.7735L77.766 104.287C77.766 104.287 60.2677 97.6787 58.4829 93.7084C56.6982 89.7381 65.3611 70.0822 68.2317 65.9255C71.1022 61.7688 72.4257 63.1295 72.8917 67.3794C73.3577 71.6293 71.8059 85.2505 71.9177 85.4882C72.0296 85.7258 82.6544 88.7735 82.6544 88.7735Z" fill="#455A64"/>
<path d="M72.2859 79.0992C72.3729 78.0802 72.4552 77.0612 72.5329 76.0422C72.5748 75.511 72.6121 74.9797 72.6587 74.4532C72.6587 74.2108 72.7006 73.9639 72.7193 73.7215C72.7386 73.6012 72.7511 73.4798 72.7565 73.3581C72.7555 73.201 72.7743 73.0444 72.8125 72.8921C72.8125 72.8641 72.8637 72.8641 72.8637 72.8921C72.8637 73.167 72.915 73.0505 72.8637 73.2649C72.8125 73.4792 72.8637 73.5817 72.8637 73.7309C72.8637 73.9732 72.8637 74.1969 72.8637 74.4625C72.8637 74.9658 72.8264 75.4644 72.7985 75.963C72.7985 76.0282 72.7985 76.0935 72.7985 76.1634C72.7985 76.1634 72.7985 76.1261 72.7985 76.1075C72.9103 75.5529 73.0268 75.003 73.1433 74.4485H73.1806C73.1293 75.0124 73.0548 75.5716 72.9523 76.1261C72.8917 76.4476 72.8078 76.7645 72.7286 77.0581C72.6867 77.7245 72.6494 78.3955 72.5981 79.0619C72.4443 81.1309 72.2766 83.2093 71.955 85.2597C72.887 85.5346 73.7817 85.7723 74.6858 86.0472C75.5898 86.3222 76.5032 86.6204 77.4072 86.9093C78.3113 87.1983 79.2153 87.4872 80.1147 87.7947C80.5481 87.9392 80.9721 88.093 81.4008 88.2607C81.8296 88.4285 82.3328 88.6382 82.7988 88.792C82.8501 88.792 82.7988 88.8759 82.7709 88.8619C82.2816 88.7128 81.7783 88.6289 81.2843 88.4891L79.9935 88.1209C79.0848 87.8507 78.1761 87.5664 77.2674 87.2775C76.3587 86.9886 75.45 86.7136 74.546 86.4154C73.6419 86.1171 72.7612 85.7816 71.8572 85.4834C71.8437 85.4788 71.8314 85.4714 71.821 85.4618C71.8106 85.4522 71.8023 85.4405 71.7966 85.4275C71.7771 85.4175 71.761 85.402 71.7502 85.383C71.7395 85.3639 71.7345 85.3421 71.736 85.3203C71.8572 83.2512 72.1041 81.1775 72.2859 79.0992Z" fill="#263238"/>
<path d="M76.6197 95.4416C76.9879 94.3139 78.4837 89.8216 78.9497 88.7358H78.987C78.7493 89.8589 77.3979 94.3278 77.0298 95.4649C76.3548 97.7362 75.5551 99.9686 74.6346 102.152C74.6346 102.189 74.5507 102.175 74.56 102.152C75.0959 99.8639 75.8974 97.6597 76.6197 95.4416Z" fill="#263238"/>
<path d="M66.1301 99.1933C64.8488 98.6719 63.6034 98.0664 62.4021 97.3806C61.1868 96.7044 60.0716 95.8622 59.0888 94.8782C58.5682 94.3714 58.207 93.7235 58.0497 93.0142C58.0228 92.8353 58.0119 92.6544 58.017 92.4736C58.017 92.2965 58.017 92.1194 58.017 91.9424C58.0543 91.5975 58.0776 91.248 58.1196 90.9032C58.334 89.5354 58.6296 88.1816 59.005 86.849C59.7723 84.2021 60.6686 81.6003 61.6938 79.0435C62.2095 77.7666 62.75 76.5022 63.3155 75.2502C63.9073 74.006 64.4944 72.7618 65.1795 71.5688C64.5876 72.8131 64.0424 74.0713 63.5252 75.3388C63.0079 76.6063 62.5 77.8878 62.0293 79.174C61.074 81.7416 60.1653 84.3372 59.4523 86.9748C59.0618 88.283 58.7506 89.6135 58.5203 90.9591C58.4784 91.2946 58.4504 91.6301 58.4131 91.9657C58.3944 92.2947 58.3944 92.6245 58.4131 92.9536C58.5634 93.592 58.8857 94.1771 59.3451 94.6452C60.278 95.6365 61.3445 96.4928 62.5139 97.1895C63.6794 97.9271 64.8868 98.5962 66.1301 99.1933Z" fill="#263238"/>
<path d="M64.1542 72.9385C63.9958 73.6235 63.7674 74.2712 63.5857 74.9469C63.5996 74.5955 63.6607 74.2475 63.7674 73.9124C63.8688 73.5775 63.9982 73.2517 64.1542 72.9385Z" fill="#263238"/>
<path d="M111.234 36.9906C111.031 38.9327 110.292 40.7801 109.1 42.3267C107.908 43.8734 106.31 45.0586 104.484 45.7501C102.657 46.4416 100.675 46.6123 98.7576 46.2431C96.8401 45.8739 95.0629 44.9793 93.6241 43.6591L88.3537 44.4326L90.9912 39.8705C90.3857 38.3864 90.1267 36.7838 90.2337 35.1845C90.3408 33.5853 90.8111 32.0315 91.609 30.6414C92.4069 29.2512 93.5113 28.0614 94.8382 27.1623C96.1651 26.2632 97.6796 25.6785 99.2664 25.4527C100.853 25.227 102.471 25.3661 103.996 25.8595C105.521 26.3528 106.913 27.1875 108.067 28.3C109.221 29.4124 110.106 30.7734 110.655 32.2793C111.204 33.7853 111.402 35.3966 111.234 36.9906Z" fill="white"/>
<path d="M111.234 36.9908C111.031 38.9341 110.296 40.7836 109.109 42.3359C108.82 42.7199 108.509 43.0871 108.177 43.4356C107.824 43.7674 107.452 44.0785 107.064 44.3676C105.493 45.5418 103.632 46.2653 101.681 46.46C101.195 46.5019 100.706 46.5113 100.218 46.4879C99.7286 46.4738 99.241 46.4224 98.7594 46.3341C96.8165 45.9764 95.0112 45.0858 93.5449 43.7618L93.666 43.8038L88.4002 44.6099L88.0181 44.6705L88.2092 44.335L90.8327 39.7635V39.9453C90.0639 38.059 89.8512 35.9919 90.2199 33.9886C90.5886 31.9853 91.5232 30.1294 92.9132 28.6403C94.3032 27.1513 96.0905 26.0914 98.0638 25.586C100.037 25.0806 102.114 25.1507 104.048 25.7882C105.572 26.3052 106.961 27.1571 108.112 28.2813C109.258 29.402 110.134 30.7683 110.675 32.277C111.216 33.7857 111.407 35.3975 111.234 36.9908ZM111.234 36.9908C111.402 35.4037 111.203 33.7993 110.652 32.3012C110.102 30.803 109.216 29.451 108.062 28.3492C106.907 27.2473 105.515 26.425 103.993 25.9455C102.471 25.4659 100.859 25.342 99.2813 25.5831C97.719 25.8194 96.2308 26.4073 94.9289 27.3027C93.6401 28.2122 92.5638 29.3903 91.7741 30.7558C90.9965 32.1217 90.5392 33.6464 90.4367 35.2149C90.3342 36.7833 90.5891 38.3546 91.1822 39.8101L91.2195 39.9033L91.1683 39.9872L88.5121 44.54L88.3257 44.2604L93.6054 43.5195H93.6753L93.7266 43.5708C95.1455 44.8772 96.899 45.7645 98.792 46.1338C99.2637 46.2284 99.742 46.2861 100.223 46.3062C100.704 46.3411 101.186 46.3411 101.667 46.3062C102.624 46.2314 103.565 46.0228 104.463 45.6864C105.374 45.3598 106.23 44.898 107.003 44.3164C107.394 44.0304 107.766 43.719 108.117 43.3844C108.46 43.042 108.781 42.6777 109.077 42.2939C110.27 40.7586 111.017 38.9235 111.234 36.9908Z" fill="#263238"/>
<path d="M99.5189 41.9073L95.0174 37.3498L96.5272 35.8539L99.1601 38.5148L104.622 29.9497L106.416 31.0961L99.5189 41.9073Z" fill="#FFC727"/>
</svg>
