<svg width="146" height="242" viewBox="0 0 146 242" fill="none" xmlns="http://www.w3.org/2000/svg">
<rect width="46.0642" height="46.0642" rx="12" fill="#EBEBEB"/>
<rect x="99.9358" width="46.0642" height="46.0642" rx="12" fill="#EBEBEB"/>
<rect x="49.968" width="46.0642" height="46.0642" rx="12" fill="#EBEBEB"/>
<rect y="50.749" width="46.0642" height="46.0642" rx="12" fill="#EBEBEB"/>
<rect x="99.9358" y="50.749" width="46.0642" height="46.0642" rx="12" fill="#EBEBEB"/>
<rect x="49.968" y="50.749" width="46.0642" height="46.0642" rx="12" fill="#EBEBEB"/>
<rect y="101.497" width="46.0642" height="46.0642" rx="12" fill="#EBEBEB"/>
<rect x="99.9358" y="101.497" width="46.0642" height="46.0642" rx="12" fill="#EBEBEB"/>
<rect x="49.968" y="101.497" width="46.0642" height="46.0642" rx="12" fill="#EBEBEB"/>
<rect y="152.246" width="46.0642" height="46.0642" rx="12" fill="#EBEBEB"/>
<rect x="99.9358" y="152.246" width="46.0642" height="46.0642" rx="12" fill="#EBEBEB"/>
<rect x="49.968" y="152.246" width="46.0642" height="46.0642" rx="12" fill="#EBEBEB"/>
<circle cx="73" cy="232" r="10" fill="#F47522"/>
<circle cx="25" cy="232" r="10" fill="#C4C4C4"/>
<circle cx="123" cy="232" r="10" fill="#C4C4C4"/>
</svg>
