<svg width="270" height="270" viewBox="0 0 270 270" fill="none" xmlns="http://www.w3.org/2000/svg">
<path d="M98.874 22.0859H25.38V134.19H98.874V22.0859Z" fill="#EBEBEB"/>
<path d="M98.82 26.5679H67.77V76.4099H98.82V26.5679Z" fill="white"/>
<path d="M64.368 26.5679H33.318V76.4099H64.368V26.5679Z" fill="white"/>
<path d="M98.82 79.812H67.77V129.654H98.82V79.812Z" fill="white"/>
<path d="M64.368 79.812H33.318V129.654H64.368V79.812Z" fill="white"/>
<path d="M53.73 22.0859H25.38V182.466H41.796L30.348 100.872L53.73 22.0859Z" fill="#DBDBDB"/>
<path d="M48.816 26.4058L44.334 45.0358L39.744 63.6658L30.564 100.926L30.618 100.818L34.83 139.752L36.936 159.192L38.988 178.632L36.666 159.192L34.452 139.752L30.078 100.872V100.818V100.764L39.366 63.6118L44.064 44.9818L48.816 26.4058Z" fill="#EBEBEB"/>
<path d="M27.0541 29.6997L27.1621 45.7917L27.2701 61.8837L27.3241 94.0137L27.2701 126.198L27.1621 142.29L27.0541 158.382L26.9461 142.29L26.8381 126.198L26.7841 94.0137L26.8381 61.8837L26.9461 45.7917L27.0541 29.6997Z" fill="#EBEBEB"/>
<path d="M32.346 32.7236L31.482 49.8416L30.51 66.9596L28.62 101.088C28.782 107.46 28.944 113.778 29.106 120.15L29.538 139.212L29.97 158.274L30.348 177.336L29.7 158.22L29.16 139.158L28.62 120.15C28.458 113.778 28.242 107.46 28.08 101.088L30.186 66.9056L31.266 49.8416L32.346 32.7236Z" fill="#EBEBEB"/>
<path d="M36.072 174.744L34.236 156.276L32.4 137.862C31.266 125.55 30.078 113.238 28.944 100.926V100.872L34.182 72.144L36.828 57.78L39.528 43.416L37.044 57.834L34.56 72.198L29.43 100.98V100.926C30.618 113.238 31.698 125.55 32.832 137.862L34.452 156.33L36.072 174.744Z" fill="#EBEBEB"/>
<path d="M31.806 99.522H25.38V103.248H31.806V99.522Z" fill="#DBDBDB"/>
<path d="M70.524 22.0859H98.874V182.466H82.458L93.906 100.872L70.524 22.0859Z" fill="#DBDBDB"/>
<path d="M75.384 26.4058L80.136 44.9818L84.834 63.6118L94.176 100.764V100.818V100.872L89.748 139.752L87.534 159.192L85.266 178.632L87.264 159.192L89.37 139.752L93.636 100.818V100.926L84.456 63.6658L79.92 45.0358L75.384 26.4058Z" fill="#EBEBEB"/>
<path d="M97.146 29.6997L97.308 45.7917L97.362 61.8837L97.416 94.0137L97.362 126.198L97.308 142.29L97.146 158.382L97.038 142.29L96.93 126.198L96.876 94.0137L96.93 61.8837L97.038 45.7917L97.146 29.6997Z" fill="#EBEBEB"/>
<path d="M91.854 32.7236L92.988 49.7876L94.068 66.8516L96.12 101.034C95.958 107.406 95.796 113.724 95.58 120.096L95.04 139.104L94.5 158.22L93.852 177.228L94.23 158.166L94.662 139.104L95.094 120.042C95.256 113.67 95.364 107.352 95.58 100.98L93.636 66.7976L92.664 49.6796L91.854 32.7236Z" fill="#EBEBEB"/>
<path d="M88.182 174.744L89.748 156.276L91.368 137.808C92.502 125.496 93.582 113.184 94.77 100.872V100.98L89.64 72.198L87.102 57.834L84.618 43.416L87.318 57.78L89.964 72.144L95.202 100.872V100.926C94.068 113.238 92.88 125.55 91.746 137.862L89.964 156.33L88.182 174.744Z" fill="#EBEBEB"/>
<path d="M98.874 99.522H92.448V103.248H98.874V99.522Z" fill="#DBDBDB"/>
<path d="M181.926 145.368V219.51H226.746V145.368H181.926ZM222.642 192.132H185.976V172.8H222.642V192.132ZM222.642 168.21H185.976V148.932H222.642V168.21Z" fill="#EBEBEB"/>
<path d="M244.62 145.368H226.692V219.51H244.62V145.368Z" fill="#DBDBDB"/>
<path d="M194.67 148.932H185.976V168.21H194.67V148.932Z" fill="#DBDBDB"/>
<path d="M222.912 215.082H185.922V196.128H222.912V215.082ZM186.462 214.542H222.372V196.668H186.462V214.542Z" fill="#DBDBDB"/>
<path d="M206.496 201.582H199.26V205.254H206.496V201.582Z" fill="#DBDBDB"/>
<path d="M208.926 205.254H201.15V201.582H208.926V205.254ZM201.69 204.714H208.386V202.122H201.69V204.714Z" fill="#DBDBDB"/>
<path d="M194.67 172.854H185.976V192.132H194.67V172.854Z" fill="#DBDBDB"/>
<path d="M226.206 114.264C231.336 119.286 232.2 127.062 231.12 133.866C231.12 134.028 230.85 133.974 230.85 133.812C230.85 132.246 230.904 130.734 230.904 129.222L230.85 129.006C229.446 128.088 228.312 126.846 227.502 125.442C226.638 123.768 226.314 121.878 225.666 120.096C225.612 119.934 225.774 119.988 225.882 120.042C229.014 122.364 229.986 124.848 230.904 128.142C230.904 126.414 230.688 124.686 230.364 123.012C229.716 119.88 228.366 116.748 226.098 114.426C226.044 114.372 226.044 114.318 226.098 114.264C226.098 114.264 226.152 114.264 226.206 114.264Z" fill="#A6A6A6"/>
<path d="M225.234 114.858C224.37 114.912 223.83 116.316 223.128 116.694C222.858 116.91 222.426 116.91 222.21 116.586L222.156 116.532C221.454 115.56 222.426 114.426 223.29 113.778C222.642 114.048 222.156 114.48 221.454 114.642C221.13 114.75 220.752 114.588 220.644 114.21V114.156C220.374 112.86 221.994 112.266 223.074 112.266C222.534 111.888 220.968 110.862 221.778 110.376C222.588 109.89 224.424 111.348 225.018 111.834C225.882 112.536 226.908 113.616 226.962 114.696C227.07 115.938 225.936 115.128 225.234 114.858Z" fill="#DBDBDB"/>
<path d="M225.504 115.074C224.37 114.588 222.21 115.29 221.994 114.858C221.616 113.994 223.344 113.4 224.262 113.292C223.398 113.076 221.778 112.698 221.778 111.888C221.832 110.862 224.316 111.726 225.558 112.698C227.124 113.886 227.124 115.074 226.854 115.29C226.584 115.614 225.666 115.182 225.504 115.074Z" fill="#EBEBEB"/>
<path d="M237.87 113.778C232.578 118.584 231.39 126.306 232.2 133.164C232.2 133.326 232.47 133.272 232.47 133.164C232.524 131.598 232.524 130.086 232.578 128.574C232.632 128.52 232.632 128.466 232.686 128.358C234.09 127.494 235.278 126.306 236.142 124.902C237.06 123.228 237.492 121.338 238.194 119.61C238.248 119.448 238.086 119.502 237.978 119.556C234.792 121.716 233.658 124.2 232.686 127.44C232.794 125.712 233.01 123.984 233.442 122.31C234.252 119.178 235.656 116.154 238.032 113.886C238.086 113.832 237.978 113.724 237.87 113.778Z" fill="#A6A6A6"/>
<path d="M238.842 114.426C239.706 114.48 240.246 115.938 240.894 116.37C241.164 116.586 241.596 116.586 241.812 116.316L241.866 116.262C242.568 115.344 241.704 114.102 240.84 113.454C241.434 113.724 241.974 114.21 242.622 114.372C242.946 114.48 243.324 114.318 243.432 113.994C243.432 113.94 243.432 113.94 243.432 113.886C243.756 112.59 242.19 111.942 241.056 111.888C241.596 111.564 243.216 110.592 242.406 110.052C241.596 109.512 239.706 110.916 239.112 111.348C238.194 111.996 237.114 113.022 237.06 114.156C237.006 115.398 238.14 114.642 238.842 114.426Z" fill="#DBDBDB"/>
<path d="M238.572 114.642C239.706 114.156 241.866 114.966 242.082 114.588C242.514 113.724 240.786 113.076 239.868 112.914C240.732 112.698 242.406 112.428 242.352 111.564C242.352 110.538 239.814 111.348 238.572 112.212C236.952 113.346 236.898 114.534 237.168 114.75C237.492 115.074 238.356 114.696 238.572 114.642Z" fill="#EBEBEB"/>
<path d="M232.47 126.522C232.092 129.114 231.552 131.652 230.85 134.136C230.85 134.244 230.742 134.298 230.634 134.298C230.526 134.298 230.472 134.19 230.472 134.082C230.796 131.706 231.444 129.438 231.822 127.062C232.2 124.686 232.362 122.256 232.254 119.88C232.038 115.938 230.958 111.726 228.366 108.594C228.312 108.54 228.42 108.432 228.474 108.486C233.658 114.534 232.848 121.932 232.794 122.58C233.55 120.096 234.306 117.234 237.06 114.696C237.168 114.588 237.276 114.642 237.276 114.804C236.79 119.448 235.494 121.878 232.794 124.308C232.686 125.064 232.578 125.82 232.47 126.522Z" fill="#A6A6A6"/>
<path d="M228.258 109.296C227.34 108.864 226.044 110.052 225.126 110.16C224.694 110.268 224.316 109.998 224.208 109.62C224.208 109.566 224.208 109.566 224.208 109.512C223.992 108.162 225.558 107.46 226.8 107.19C225.99 107.136 225.234 107.352 224.478 107.136C224.1 107.082 223.776 106.704 223.83 106.326C223.83 106.272 223.83 106.272 223.83 106.218C224.154 104.706 226.152 104.922 227.34 105.462C226.962 104.814 225.882 102.978 226.962 102.87C228.042 102.762 229.23 105.192 229.608 106.002C230.148 107.19 230.688 108.81 230.202 109.944C229.608 111.294 228.798 109.944 228.258 109.296Z" fill="#DBDBDB"/>
<path d="M228.42 109.674C227.502 108.594 224.91 108.27 224.91 107.73C224.964 106.65 227.07 106.866 228.096 107.244C227.34 106.596 225.774 105.354 226.26 104.544C226.854 103.518 228.96 105.678 229.77 107.298C230.796 109.35 230.202 110.538 229.824 110.646C229.23 110.754 228.528 109.836 228.42 109.674Z" fill="#EBEBEB"/>
<path d="M235.872 127.926L238.14 145.368H224.262C224.532 143.802 227.124 127.926 227.124 127.926H235.872Z" fill="#EBEBEB"/>
<path d="M242.082 237.168C242.082 243.27 194.13 248.184 135 248.184C75.87 248.184 27.918 243.27 27.918 237.168C27.918 231.066 75.87 226.152 135 226.152C194.13 226.152 242.082 231.12 242.082 237.168Z" fill="#EBEBEB"/>
<path d="M25.38 219.456L52.758 219.348L80.19 219.294L135 219.24L189.81 219.294L217.242 219.348L244.62 219.456L217.242 219.618L189.81 219.672L135 219.726L80.19 219.672L52.758 219.618L25.38 219.456Z" fill="#263238"/>
<path d="M180.63 33.4263H89.37C84.24 33.4803 80.082 37.6923 80.136 42.8223V230.742C80.082 235.872 84.24 240.084 89.37 240.138H180.684C185.814 240.084 189.972 235.872 189.918 230.742V42.8223C189.918 37.6923 185.814 33.4803 180.63 33.4263ZM184.086 224.964C184.086 229.932 180.36 233.928 175.824 233.928H94.176C89.586 233.928 85.914 229.932 85.914 224.964V49.9503C85.914 39.8523 89.64 39.4203 94.176 39.4203H110.538C111.51 39.4203 112.266 40.5003 112.266 41.8503V42.4443C112.266 45.5763 113.994 45.5763 116.1 45.5763H153.9C156.006 45.5763 157.734 45.5763 157.734 42.4443V41.8503C157.734 40.5003 158.49 39.4203 159.462 39.4203H175.824C180.414 39.4203 184.086 40.7703 184.086 50.0043V224.964Z" fill="#37474F"/>
<path d="M184.086 49.9504V224.964C184.086 229.932 180.36 233.928 175.824 233.928H94.1761C89.5861 233.928 85.9141 229.932 85.9141 224.964V49.9504C85.9141 39.8524 89.6401 39.4204 94.1761 39.4204H110.538C111.51 39.4204 112.266 40.5004 112.266 41.8504V42.4444C112.266 45.5764 113.994 45.5764 116.1 45.5764H153.9C156.006 45.5764 157.734 45.5764 157.734 42.4444V41.8504C157.734 40.5004 158.49 39.4204 159.462 39.4204H175.824C180.414 39.4204 184.086 40.7164 184.086 49.9504Z" fill="#EBEBEB"/>
<path d="M107.676 43.3082L107.514 43.4702C107.46 43.4702 107.46 43.5242 107.406 43.5782C107.028 43.1462 106.434 42.9302 105.894 42.9302C105.3 42.9302 104.76 43.1462 104.382 43.5782L104.274 43.4702L104.112 43.3082L104.328 43.1462C104.49 43.0382 104.652 42.9302 104.814 42.8222C105.03 42.7142 105.192 42.6602 105.408 42.6062C105.516 42.6062 105.624 42.6062 105.732 42.5522H106.002H106.218C106.38 42.5522 106.596 42.6062 106.758 42.6602C106.866 42.7142 107.028 42.7682 107.136 42.8222C107.244 42.8762 107.406 42.9842 107.514 43.0922L107.676 43.3082Z" fill="white"/>
<path d="M104.922 44.0641C104.868 43.9561 104.76 43.9021 104.652 43.7941C105.354 43.0921 106.488 43.0921 107.19 43.7941L106.92 44.0641C106.38 43.5241 105.462 43.5241 104.922 44.0641Z" fill="white"/>
<path d="M106.704 44.3343L106.434 44.6043C106.272 44.4423 106.11 44.3883 105.894 44.3883C105.678 44.3883 105.516 44.4423 105.354 44.6043L105.084 44.3343C105.516 43.9023 106.218 43.8483 106.704 44.3343C106.65 44.2803 106.704 44.2803 106.704 44.3343Z" fill="white"/>
<path d="M106.164 44.8203C106.164 44.9283 106.056 45.0363 105.948 45.0363C105.84 45.0363 105.732 44.9823 105.678 44.8203C105.678 44.7123 105.732 44.6043 105.894 44.5503H105.948C106.056 44.6043 106.164 44.7123 106.164 44.8203Z" fill="white"/>
<path d="M92.286 43.7945C92.286 43.4165 92.556 43.1465 92.934 43.1465C93.312 43.1465 93.582 43.4165 93.582 43.7945C93.582 44.1725 93.312 44.4425 92.934 44.4425C92.556 44.4425 92.286 44.1725 92.286 43.7945Z" fill="white"/>
<path d="M94.338 43.7945C94.338 43.4165 94.608 43.1465 94.986 43.1465C95.364 43.1465 95.634 43.4165 95.634 43.7945C95.634 44.1725 95.364 44.4425 94.986 44.4425C94.608 44.4425 94.338 44.1725 94.338 43.7945Z" fill="white"/>
<path d="M96.39 43.7945C96.39 43.4165 96.66 43.1465 97.038 43.1465C97.416 43.1465 97.686 43.4165 97.686 43.7945C97.686 44.1725 97.416 44.4425 97.038 44.4425C96.66 44.4425 96.39 44.1725 96.39 43.7945Z" fill="white"/>
<path d="M98.442 43.7945C98.442 43.4165 98.712 43.1465 99.09 43.1465C99.468 43.1465 99.738 43.4165 99.738 43.7945C99.738 44.1725 99.468 44.4425 99.09 44.4425C98.712 44.4425 98.442 44.1725 98.442 43.7945Z" fill="white"/>
<path d="M100.494 43.7945C100.494 43.4165 100.764 43.1465 101.142 43.1465C101.52 43.1465 101.79 43.4165 101.79 43.7945C101.79 44.1725 101.52 44.4425 101.142 44.4425C100.764 44.4425 100.494 44.1725 100.494 43.7945Z" fill="white"/>
<path d="M176.742 45.2523H171.45V42.8223H176.742V45.2523ZM171.72 44.9283H176.472V43.0383H171.72V44.9283Z" fill="white"/>
<path d="M175.284 43.2002H171.882V44.8202H175.284V43.2002Z" fill="white"/>
<path d="M177.228 43.3623H176.742V44.6583H177.228V43.3623Z" fill="white"/>
<path d="M95.202 59.7782L92.286 57.0782L95.202 54.3242L95.634 54.8102L93.258 57.0782L95.634 59.2922L95.202 59.7782Z" fill="white"/>
<path d="M140.13 41.6344H129.816C129.438 41.6344 129.168 41.3644 129.168 40.9864C129.168 40.6084 129.438 40.3384 129.816 40.3384H140.13C140.508 40.3384 140.778 40.6084 140.778 40.9864C140.778 41.3644 140.508 41.6344 140.13 41.6344Z" fill="white"/>
<path d="M145.368 105.192H125.766C124.2 105.192 122.904 103.896 122.904 102.33V82.7282C122.904 81.1622 124.2 79.8662 125.766 79.8662H145.368C146.934 79.8662 148.23 81.1622 148.23 82.7282V102.33C148.23 103.896 146.934 105.192 145.368 105.192Z" fill="#37474F"/>
<path d="M173.664 105.3H154.062C152.496 105.3 151.2 104.004 151.2 102.438V82.8361C151.2 81.2701 152.496 79.9741 154.062 79.9741H173.664C175.23 79.9741 176.526 81.2701 176.526 82.8361V102.438C176.472 104.004 175.23 105.3 173.664 105.3Z" fill="#FFC414"/>
<path d="M116.208 105.192H96.606C95.04 105.192 93.744 103.896 93.744 102.33V82.7282C93.744 81.1622 95.04 79.8662 96.606 79.8662H116.208C117.774 79.8662 119.07 81.1622 119.07 82.7282V102.33C119.07 103.896 117.774 105.192 116.208 105.192Z" fill="#37474F"/>
<path d="M145.368 134.136H125.766C124.2 134.136 122.904 132.84 122.904 131.274V111.672C122.904 110.106 124.2 108.81 125.766 108.81H145.368C146.934 108.81 148.23 110.106 148.23 111.672V131.274C148.23 132.894 146.934 134.136 145.368 134.136Z" fill="#FFC414"/>
<path d="M173.664 134.244H154.062C152.496 134.244 151.2 132.948 151.2 131.382V111.78C151.2 110.214 152.496 108.918 154.062 108.918H173.664C175.23 108.918 176.526 110.214 176.526 111.78V131.382C176.472 133.002 175.23 134.244 173.664 134.244Z" fill="#FFC414"/>
<path d="M116.208 134.136H96.606C95.04 134.136 93.744 132.84 93.744 131.274V111.672C93.744 110.106 95.04 108.81 96.606 108.81H116.208C117.774 108.81 119.07 110.106 119.07 111.672V131.274C119.07 132.894 117.774 134.136 116.208 134.136Z" fill="#37474F"/>
<path d="M145.368 162.702H125.766C124.2 162.702 122.904 161.406 122.904 159.84V140.238C122.904 138.672 124.2 137.376 125.766 137.376H145.368C146.934 137.376 148.23 138.672 148.23 140.238V159.84C148.23 161.406 146.934 162.702 145.368 162.702Z" fill="#37474F"/>
<path d="M173.664 162.81H154.062C152.496 162.81 151.2 161.514 151.2 159.948V140.346C151.2 138.78 152.496 137.484 154.062 137.484H173.664C175.23 137.484 176.526 138.78 176.526 140.346V159.948C176.472 161.514 175.23 162.81 173.664 162.81Z" fill="#37474F"/>
<path d="M116.208 162.702H96.606C95.04 162.702 93.744 161.406 93.744 159.84V140.238C93.744 138.672 95.04 137.376 96.606 137.376H116.208C117.774 137.376 119.07 138.672 119.07 140.238V159.84C119.07 161.406 117.774 162.702 116.208 162.702Z" fill="#37474F"/>
<path d="M130.935 58.3569H129.573V62.5269H130.935C132.273 62.5269 133.149 61.7409 133.149 60.4569C133.149 59.1669 132.273 58.3569 130.935 58.3569ZM130.257 61.9689V58.9149H130.935C131.919 58.9149 132.447 59.5029 132.447 60.4569C132.447 61.4049 131.919 61.9689 130.935 61.9689H130.257ZM136.977 60.8709C136.977 59.8329 136.233 59.1669 135.291 59.1669C134.349 59.1669 133.605 59.8329 133.605 60.8709C133.605 61.9089 134.319 62.5809 135.261 62.5809C136.209 62.5809 136.977 61.9089 136.977 60.8709ZM134.301 60.8709C134.301 60.1209 134.763 59.7609 135.279 59.7609C135.789 59.7609 136.275 60.1209 136.275 60.8709C136.275 61.6209 135.771 61.9869 135.261 61.9869C134.745 61.9869 134.301 61.6209 134.301 60.8709ZM134.259 71.5269H134.937V69.5769C134.937 68.6529 134.349 68.1669 133.575 68.1669C133.095 68.1669 132.627 68.4189 132.423 68.8209C132.195 68.3889 131.757 68.1669 131.235 68.1669C130.839 68.1669 130.479 68.3289 130.257 68.5989V68.2209H129.573V71.5269H130.257V69.6789C130.257 69.0729 130.587 68.7609 131.091 68.7609C131.589 68.7609 131.919 69.0729 131.919 69.6789V71.5269H132.597V69.6789C132.597 69.0729 132.927 68.7609 133.431 68.7609C133.929 68.7609 134.259 69.0729 134.259 69.6789V71.5269ZM135.579 69.8589C135.579 70.8789 136.269 71.5809 137.127 71.5809C137.679 71.5809 138.075 71.3169 138.285 71.0349V71.5269H138.975V68.2209H138.285V68.7009C138.081 68.4309 137.697 68.1669 137.139 68.1669C136.269 68.1669 135.579 68.8389 135.579 69.8589ZM138.285 69.8709C138.285 70.5849 137.799 70.9869 137.283 70.9869C136.773 70.9869 136.281 70.5729 136.281 69.8589C136.281 69.1449 136.773 68.7609 137.283 68.7609C137.799 68.7609 138.285 69.1629 138.285 69.8709ZM139.873 71.5269H140.557V68.2209H139.873V71.5269ZM140.221 67.7829C140.461 67.7829 140.653 67.5909 140.653 67.3449C140.653 67.0989 140.461 66.9069 140.221 66.9069C139.975 66.9069 139.783 67.0989 139.783 67.3449C139.783 67.5909 139.975 67.7829 140.221 67.7829ZM131.919 80.5269H132.597V78.5769C132.597 77.6529 132.015 77.1669 131.241 77.1669C130.845 77.1669 130.479 77.3289 130.257 77.5989V77.2209H129.573V80.5269H130.257V78.6789C130.257 78.0729 130.587 77.7609 131.091 77.7609C131.589 77.7609 131.919 78.0729 131.919 78.6789V80.5269Z" fill="white"/>
<path d="M170.694 221.022H157.842C154.602 221.022 151.956 218.376 151.956 215.136C151.956 211.896 154.602 209.25 157.842 209.25H170.694C173.934 209.25 176.58 211.896 176.58 215.136C176.58 218.376 173.934 221.022 170.694 221.022Z" fill="#37474F"/>
<path d="M97.254 218.646C99.1925 218.646 100.764 217.075 100.764 215.136C100.764 213.198 99.1925 211.626 97.254 211.626C95.3155 211.626 93.744 213.198 93.744 215.136C93.744 217.075 95.3155 218.646 97.254 218.646Z" fill="#FFC414"/>
<path d="M102.222 218.646C104.161 218.646 105.732 217.075 105.732 215.136C105.732 213.198 104.161 211.626 102.222 211.626C100.284 211.626 98.712 213.198 98.712 215.136C98.712 217.075 100.284 218.646 102.222 218.646Z" fill="#FFC414"/>
<path d="M107.568 218.646C109.507 218.646 111.078 217.075 111.078 215.136C111.078 213.198 109.507 211.626 107.568 211.626C105.63 211.626 104.058 213.198 104.058 215.136C104.058 217.075 105.63 218.646 107.568 218.646Z" fill="#FFC414"/>
<path d="M173.988 202.392H94.23C93.906 202.392 93.582 202.122 93.582 201.744C93.582 201.42 93.852 201.096 94.23 201.096H173.988C174.312 201.096 174.636 201.366 174.636 201.744C174.636 202.122 174.366 202.392 173.988 202.392Z" fill="#37474F"/>
<path d="M149.418 202.392H94.23C93.906 202.392 93.582 202.122 93.582 201.744C93.582 201.42 93.852 201.096 94.23 201.096H149.418C149.742 201.096 150.066 201.366 150.066 201.744C150.012 202.122 149.742 202.392 149.418 202.392Z" fill="#FFC414"/>
<path d="M183.762 69.876L183.546 69.93C183.546 69.93 183.546 69.876 183.6 69.876H183.762Z" fill="#263238"/>
<path d="M189.972 225.882H189.864V225.828L189.972 225.882Z" fill="#DD6A57"/>
<path d="M212.274 230.526C211.086 229.986 184.95 206.334 184.518 204.822C184.356 204.228 187.596 200.232 191.592 195.48C192.456 194.454 202.608 178.2 202.608 178.2L220.914 192.726L208.44 210.708C208.44 210.708 214.38 224.262 214.704 225.99C215.028 227.718 213.462 231.012 212.274 230.526Z" fill="#DD6A57"/>
<path d="M212.598 220.266C213.408 222.102 214.164 223.992 214.758 225.936C215.028 227.664 213.462 231.012 212.274 230.526C211.086 230.04 184.95 206.334 184.518 204.822C184.41 204.336 186.462 201.636 189.432 198.072C194.724 204.228 211.356 223.29 212.598 221.508C212.706 221.13 212.76 220.698 212.598 220.266Z" fill="#263238"/>
<path d="M193.374 192.456L211.896 207.738C211.896 207.738 237.654 171.882 238.41 158.76C238.95 148.662 223.992 129.87 213.84 113.832C212.868 112.266 213.462 106.326 213.516 105.354L193.374 105.408C193.104 107.676 191.538 119.07 194.94 124.632C201.906 136.08 213.192 152.658 213.624 156.222C214.056 159.786 193.374 192.456 193.374 192.456Z" fill="#37474F"/>
<path d="M213.084 202.068C210.114 199.584 211.032 200.232 208.008 197.748C206.55 196.56 199.206 190.458 197.694 189.54C197.64 189.54 197.64 189.594 197.64 189.594C198.828 190.944 206.28 196.884 207.792 198.072C210.816 200.502 209.952 199.746 213.03 202.122C213.03 202.176 213.084 202.176 213.084 202.176C213.084 202.176 213.138 202.176 213.084 202.068C213.138 202.122 213.084 202.122 213.084 202.068Z" fill="#263238"/>
<path d="M215.406 152.82C214.758 151.524 214.002 150.228 213.246 148.932C211.734 146.34 210.06 143.856 208.44 141.318C206.766 138.672 205.038 136.026 203.364 133.434C201.852 131.058 200.286 128.682 198.99 126.198C197.64 123.768 196.668 121.122 196.074 118.422C195.48 115.452 195.588 112.374 195.858 109.35C195.912 108.594 195.966 107.838 196.074 107.082C196.074 106.974 195.858 106.92 195.858 107.028C195.426 109.998 195.318 112.968 195.426 115.992C195.642 118.746 196.344 121.392 197.478 123.93C198.612 126.414 199.962 128.844 201.42 131.112C203.04 133.65 204.66 136.188 206.28 138.726C207.9 141.264 209.574 143.856 211.194 146.448C212.004 147.69 212.76 148.986 213.462 150.282C214.218 151.524 214.92 152.874 215.514 154.17C215.838 154.818 216 155.574 216.054 156.276C216.054 157.032 215.946 157.788 215.622 158.49C215.082 159.894 214.38 161.19 213.678 162.54C212.382 165.186 211.032 167.832 209.628 170.478C206.874 175.77 199.368 188.19 198.99 188.838C198.99 188.892 199.044 188.946 199.044 188.892C202.23 183.816 206.064 177.876 208.98 172.638C210.438 169.992 211.788 167.346 213.138 164.7C213.84 163.35 214.488 162 215.136 160.65C215.73 159.408 216.432 158.166 216.432 156.762C216.432 155.358 216 154.062 215.406 152.82Z" fill="#263238"/>
<path d="M212.76 105.3C211.464 111.942 207.738 131.112 205.686 141.696C202.176 136.08 198.072 129.816 194.94 124.578C191.538 119.016 193.104 107.622 193.374 105.354L212.76 105.3Z" fill="#263238"/>
<path d="M216.702 243.81C215.46 244.188 180.198 243.702 178.902 242.838C178.416 242.514 178.146 237.384 178.092 231.174C178.092 229.824 178.362 209.358 178.362 209.358L201.96 209.628L200.826 231.444C200.826 231.444 214.218 237.654 215.622 238.788C217.026 239.922 217.944 243.432 216.702 243.81Z" fill="#DD6A57"/>
<path d="M210.168 235.926C212.004 236.79 213.786 237.708 215.514 238.788C216.864 239.922 217.89 243.432 216.648 243.864C215.406 244.296 180.144 243.756 178.848 242.892C178.416 242.622 178.2 239.22 178.092 234.576C186.084 235.71 211.248 239.004 210.978 236.898C210.978 236.682 210.654 236.304 210.168 235.926Z" fill="#263238"/>
<path d="M213.516 105.354C213.516 105.354 209.52 124.794 209.304 125.388C207.36 126.198 205.47 127.17 203.634 128.196L202.23 227.016L176.796 227.178C176.796 227.178 179.928 174.798 179.874 171.45C179.712 166.05 182.088 129.546 181.764 128.628C178.47 119.232 183.654 105.408 183.654 105.408L213.516 105.354Z" fill="#37474F"/>
<path d="M201.258 222.318C194.076 221.994 180.198 222.156 178.47 222.426C178.416 222.426 178.416 222.48 178.47 222.48C180.252 222.75 197.1 222.804 201.258 222.372C201.258 222.426 201.312 222.426 201.258 222.318C201.258 222.372 201.258 222.318 201.258 222.318Z" fill="#263238"/>
<path d="M182.52 197.154C182.952 189.702 183.384 182.304 183.816 174.852C184.248 167.4 184.68 160.002 185.112 152.55C185.328 148.824 185.544 145.098 185.76 141.426L186.084 135.864C186.246 134.028 186.354 132.192 186.3 130.356C186.192 128.358 185.328 126.576 184.788 124.632C184.356 122.796 184.14 120.96 184.14 119.07C184.14 115.182 184.95 111.348 185.652 107.568C185.706 107.352 186.03 107.46 185.976 107.676C185.112 111.132 184.572 114.696 184.41 118.26C184.356 120.042 184.518 121.824 184.896 123.552C185.274 125.226 185.976 126.792 186.408 128.412C186.84 130.032 186.678 131.868 186.516 133.65C186.408 135.486 186.3 137.376 186.192 139.212C185.976 142.83 185.76 146.502 185.598 150.12C184.734 164.916 183.924 179.712 183.006 194.454C182.466 202.77 182.088 211.086 181.386 219.402C181.386 219.456 181.278 219.456 181.278 219.402C181.602 212.058 182.088 204.606 182.52 197.154Z" fill="#263238"/>
<path d="M186.354 116.964C186.786 116.802 187.272 116.748 187.704 116.586C188.19 116.424 188.622 116.262 189.054 116.1C189.918 115.722 190.674 115.236 191.376 114.642C192.078 114.048 192.564 113.238 192.888 112.374C193.05 111.888 193.266 111.456 193.428 110.97C193.536 110.754 193.59 110.484 193.698 110.268C193.752 110.16 193.968 109.674 194.022 109.512H193.968V109.458C193.968 109.404 194.022 109.404 194.076 109.404C194.076 109.404 194.13 109.404 194.13 109.458C194.238 109.62 194.13 109.782 194.076 109.944C194.022 110.268 193.914 110.538 193.86 110.862C193.752 111.402 193.59 111.942 193.428 112.428C193.212 113.4 192.672 114.318 191.916 115.02C191.16 115.668 190.242 116.208 189.324 116.586C188.838 116.802 188.352 116.91 187.812 117.018C187.326 117.126 186.84 117.18 186.354 117.126C186.246 117.126 186.3 117.018 186.354 116.964Z" fill="#263238"/>
<path d="M206.874 122.31C206.928 121.446 206.982 120.528 207.036 119.664C207.198 117.612 207.36 115.614 207.684 113.616C207.684 113.454 207.954 113.508 207.9 113.67C207.792 115.236 207.63 116.802 207.522 118.422C207.414 120.042 207.252 121.554 207.252 123.12C207.252 123.606 207.306 124.416 207.9 124.524C208.656 124.686 209.034 123.66 209.196 123.12C209.628 121.716 209.898 120.258 210.114 118.8C210.33 117.126 210.438 115.452 210.6 113.832C210.6 113.778 210.708 113.778 210.708 113.832C210.762 117.126 210.762 120.582 209.628 123.714C209.466 124.362 208.926 124.902 208.278 125.064H208.224V125.118C208.224 125.118 208.17 125.334 208.17 125.388C208.17 125.442 208.17 125.55 208.116 125.604C208.062 125.658 208.062 125.928 208.008 126.09C208.008 126.144 207.954 126.198 207.846 126.198C207.792 126.198 207.738 126.144 207.738 126.09C207.684 126.09 207.684 126.036 207.684 125.982C207.684 125.658 207.738 125.334 207.9 125.064C207.522 125.01 207.198 124.74 207.036 124.362C206.82 123.606 206.766 122.958 206.874 122.31Z" fill="#263238"/>
<path d="M209.304 125.226C206.82 126.306 204.39 127.656 202.122 129.168C202.014 129.222 202.122 129.384 202.176 129.33C204.606 128.088 207.09 126.9 209.466 125.55C209.574 125.496 209.574 125.388 209.52 125.334C209.466 125.226 209.412 125.172 209.304 125.226Z" fill="#263238"/>
<path d="M202.878 177.066C202.878 176.85 202.932 176.742 202.986 177.012C203.04 178.632 203.04 181.008 203.04 182.628C203.04 184.572 203.04 186.462 203.04 188.406C203.04 190.35 202.986 192.24 202.878 194.184L202.77 197.1C202.716 197.748 202.77 199.098 202.716 199.746C202.716 200.016 202.608 200.07 202.608 199.8C202.554 198.828 202.554 198.072 202.554 197.1L202.5 194.184C202.5 192.24 202.5 190.35 202.5 188.406C202.5 186.462 202.554 184.572 202.662 182.628C202.77 180.684 202.77 179.01 202.878 177.066Z" fill="#263238"/>
<path d="M215.568 77.9221C215.568 78.0841 215.514 78.1921 215.352 78.2461L214.218 78.3541C213.084 75.5461 211.896 73.2781 212.22 74.1421C212.706 75.5461 213.03 76.9501 213.084 78.4081L210.816 78.5701C209.736 73.5481 208.44 69.8761 208.548 71.0101C209.034 75.6541 208.818 77.1121 208.602 78.7321C203.148 79.1101 196.02 79.5421 190.89 79.7581C190.188 77.0041 189.54 73.9801 189.432 74.1961C188.784 75.7621 188.676 78.0301 188.73 79.8121C187.11 79.8661 185.76 79.8661 184.95 79.8121C184.95 79.8121 184.464 77.4901 184.41 76.7341C184.194 74.7901 184.302 72.7921 184.734 70.8481C185.274 68.9581 185.976 67.1221 186.894 65.3401V65.2861C187.434 64.0981 187.866 62.9101 188.136 61.6141C188.136 61.6141 188.136 61.6141 188.136 61.5601C188.298 60.6421 188.406 59.7241 188.46 58.7521C188.568 55.2961 190.242 52.3261 193.212 51.3541C198.666 45.4681 204.444 47.7901 206.388 52.1101C206.55 52.5421 206.766 53.0281 206.928 53.5681C207.576 55.5121 208.224 58.1041 208.764 60.0481C208.98 60.8041 209.25 61.5601 209.52 62.3161C211.194 66.1501 214.596 68.0941 215.568 77.9221Z" fill="#263238"/>
<path d="M192.024 52.5421C190.08 53.6221 188.838 55.6201 188.73 57.8341C188.676 59.2921 188.514 60.6961 188.136 62.1001C187.596 63.4501 186.894 64.7461 186.03 65.8801C184.626 67.6621 183.816 69.8221 183.708 72.0901C183.6 74.5741 183.816 77.5441 184.734 79.8661C184.032 77.2201 183.816 74.4661 184.14 71.7661C184.464 69.0661 185.814 67.2841 187.218 65.1781C188.352 63.5041 189 61.5601 189.162 59.5621C189.27 58.3201 189.162 57.0241 189.594 55.8901C190.08 54.4861 191.16 53.5681 192.24 52.7581C192.294 52.6501 192.186 52.4341 192.024 52.5421Z" fill="#263238"/>
<path d="M213.084 66.3663C211.626 64.4763 210.114 62.8023 209.196 60.4263C208.386 58.2663 207.846 55.9443 206.982 53.7843C206.982 53.7303 206.928 53.7843 206.928 53.7843C208.278 57.6723 208.656 61.5603 211.14 64.8003C212.49 66.5283 213.84 68.1483 214.758 70.3083C215.73 72.5223 216.27 74.8983 216.378 77.3283C216.378 77.3823 216.378 77.3823 216.432 77.3823C216.486 77.3823 216.486 77.3823 216.486 77.3283C216.486 77.3283 216.486 77.3283 216.486 77.2743C216.702 73.3323 215.46 69.4983 213.084 66.3663Z" fill="#263238"/>
<path d="M226.206 55.728L222.696 71.712C222.534 72.198 222.804 72.576 223.236 72.522L231.444 72.252C231.93 72.198 232.362 71.874 232.578 71.388L236.088 55.404C236.25 54.918 235.98 54.54 235.548 54.594L227.34 54.864C226.854 54.918 226.368 55.242 226.206 55.728Z" fill="#37474F"/>
<path d="M227.178 55.728L223.668 71.712C223.506 72.198 223.776 72.576 224.208 72.522L232.416 72.252C232.902 72.198 233.334 71.874 233.496 71.388L237.006 55.404C237.168 54.918 236.898 54.54 236.466 54.594L228.258 54.864C227.826 54.864 227.394 55.242 227.178 55.728Z" fill="#455A64"/>
<path d="M229.446 56.3758C229.446 56.7538 229.122 57.0778 228.744 57.0778C228.366 57.0778 228.042 56.7538 228.042 56.3758C228.042 55.9978 228.366 55.6738 228.744 55.6738C229.176 55.6738 229.446 55.9978 229.446 56.3758Z" fill="#263238"/>
<path d="M200.556 80.6221C205.416 90.3961 216.108 102.978 220.428 102.924C222.48 102.924 226.152 103.302 228.798 100.872C234.522 95.5801 239.22 85.6441 240.084 80.0281C240.408 78.0301 230.58 73.9261 229.176 75.5461C225.882 79.4341 222.156 86.9941 221.562 86.9941C219.348 86.8861 210.6 79.8661 204.444 75.0061C196.992 69.0121 198.666 76.7341 200.556 80.6221Z" fill="#DD6A57"/>
<path d="M240.138 69.714C239.004 65.664 238.086 64.8 238.95 60.912C239.49 58.32 238.14 56.862 236.358 58.968C233.496 62.37 233.82 67.932 234.522 69.768L240.138 69.714Z" fill="#DD6A57"/>
<path d="M239.706 81.81C239.706 81.81 241.38 76.086 240.624 71.658C240.084 68.58 238.194 62.046 229.5 58.806C227.448 58.05 223.992 58.374 226.854 60.858C228.906 62.64 230.742 63.126 231.768 64.368C231.768 64.368 227.394 65.34 226.692 67.446C226.098 69.282 225.612 71.118 225.288 73.062C225.612 73.224 225.99 73.332 226.314 73.44C226.314 73.44 225.828 75.438 227.394 78.192L239.706 81.81Z" fill="#DD6A57"/>
<path d="M239.598 68.8502C238.356 67.8242 235.602 65.7182 232.794 64.7462C229.662 63.6662 223.29 62.4782 222.534 64.8002C221.994 66.5282 224.37 67.1762 224.37 67.1762C224.37 67.1762 221.67 67.2302 221.454 68.9042C221.292 70.4162 223.182 70.8482 223.182 70.8482C223.182 70.8482 221.508 71.1722 221.67 72.6302C221.832 74.4122 225.234 73.4402 226.962 75.1142C227.34 75.4382 239.598 68.8502 239.598 68.8502Z" fill="#DD6A57"/>
<path d="M232.2 68.2023C229.77 67.0143 227.07 66.6363 224.424 67.0683C224.37 67.0683 224.316 67.1223 224.424 67.1223C227.016 67.2303 229.662 67.5543 232.2 68.2023C232.2 68.2563 232.254 68.2563 232.2 68.2023Z" fill="#263238"/>
<path d="M231.066 71.388C229.824 70.848 226.152 70.038 223.236 70.74C223.182 70.74 223.128 70.794 223.236 70.794C225.828 70.686 228.474 70.902 231.066 71.388Z" fill="#263238"/>
<path d="M205.038 89.4778L213.138 80.9998C213.138 80.9998 207.09 75.4918 202.662 73.3318C198.234 71.1718 197.478 74.0877 199.314 78.5157C201.15 82.9437 205.038 89.4778 205.038 89.4778Z" fill="#FFC414"/>
<path opacity="0.1" d="M205.038 89.4778L213.138 80.9998C213.138 80.9998 207.09 75.4918 202.662 73.3318C198.234 71.1718 197.478 74.0877 199.314 78.5157C201.15 82.9437 205.038 89.4778 205.038 89.4778Z" fill="black"/>
<path d="M212.544 97.9562L216.324 115.83C216.324 115.83 186.948 118.206 179.658 118.152C179.658 118.152 183.384 84.0782 190.674 75.0062C194.346 70.4702 198.936 70.5242 202.068 73.2782C202.878 73.9802 212.49 85.1042 213.732 89.5322C214.812 93.4202 212.544 97.9562 212.544 97.9562Z" fill="#EBEBEB"/>
<path d="M198.828 71.5501H195.696C196.722 71.2802 197.802 71.2802 198.828 71.5501Z" fill="#FFC414"/>
<path d="M202.014 73.2781H192.348C192.456 73.1701 192.618 73.0621 192.78 72.9541H201.636C201.798 73.0621 201.906 73.1701 202.014 73.2781Z" fill="#FFC414"/>
<path d="M203.58 74.9519H190.728L190.998 74.6279H203.364L203.58 74.9519Z" fill="#FFC414"/>
<path d="M205.038 76.68H189.54C189.594 76.572 189.648 76.464 189.756 76.356H204.822L205.038 76.68Z" fill="#FFC414"/>
<path d="M206.442 78.3543H188.622C188.676 78.2463 188.73 78.1383 188.784 78.0303H206.172L206.442 78.3543Z" fill="#FFC414"/>
<path d="M207.792 80.0818H187.812C187.866 79.9738 187.92 79.8658 187.92 79.7578H207.468L207.792 80.0818Z" fill="#FFC414"/>
<path d="M209.088 81.8103H187.164L187.272 81.4863H208.818L209.088 81.8103Z" fill="#FFC414"/>
<path d="M210.33 83.4842H186.57C186.624 83.3762 186.624 83.2682 186.678 83.1602H210.114L210.33 83.4842Z" fill="#FFC414"/>
<path d="M211.464 85.2122H185.976L186.084 84.8882H211.248L211.464 85.2122Z" fill="#FFC414"/>
<path d="M212.544 86.9402H185.49C185.49 86.8322 185.544 86.7242 185.598 86.6162H212.382C212.436 86.7242 212.49 86.8322 212.544 86.9402Z" fill="#FFC414"/>
<path d="M213.408 88.614H185.004C185.004 88.506 185.058 88.398 185.112 88.29H213.3C213.3 88.398 213.354 88.506 213.408 88.614Z" fill="#FFC414"/>
<path d="M213.894 90.3421H184.572L184.626 90.0181H213.84C213.84 90.1261 213.894 90.2341 213.894 90.3421Z" fill="#FFC414"/>
<path d="M214.002 91.6924C214.002 91.8004 214.002 91.9084 214.002 92.0164H184.14C184.14 91.9084 184.194 91.8004 184.194 91.6924H214.002Z" fill="#FFC414"/>
<path d="M213.894 93.4199C213.894 93.5279 213.84 93.6359 213.84 93.7439H183.708C183.708 93.6359 183.762 93.5279 183.762 93.4199H213.894Z" fill="#FFC414"/>
<path d="M213.57 95.0942C213.57 95.2022 213.516 95.3102 213.462 95.4182H183.33C183.33 95.3102 183.384 95.2022 183.384 95.0942H213.57Z" fill="#FFC414"/>
<path d="M213.03 96.8223L212.922 97.1463H183.06C183.06 97.0383 183.114 96.9303 183.114 96.8223H213.03Z" fill="#FFC414"/>
<path d="M212.706 98.8743H182.628C182.628 98.7663 182.682 98.6583 182.682 98.5503H212.652L212.706 98.8743Z" fill="#FFC414"/>
<path d="M213.084 100.548H182.304C182.304 100.44 182.358 100.332 182.358 100.224H213.03L213.084 100.548Z" fill="#FFC414"/>
<path d="M213.462 102.276H181.98C181.98 102.168 182.034 102.06 182.034 101.952H213.354L213.462 102.276Z" fill="#FFC414"/>
<path d="M213.84 103.95H181.71C181.71 103.842 181.764 103.734 181.764 103.626H213.732L213.84 103.95Z" fill="#FFC414"/>
<path d="M214.164 105.678H181.44C181.44 105.57 181.494 105.462 181.494 105.354H214.11L214.164 105.678Z" fill="#FFC414"/>
<path d="M214.542 107.406H181.116L181.17 107.082H214.434L214.542 107.406Z" fill="#FFC414"/>
<path d="M214.92 109.08H180.9C180.9 108.972 180.954 108.864 180.954 108.756H214.866L214.92 109.08Z" fill="#FFC414"/>
<path d="M215.244 110.808H180.576L180.63 110.484H215.19L215.244 110.808Z" fill="#FFC414"/>
<path d="M215.622 112.482H180.36L180.414 112.158H215.568L215.622 112.482Z" fill="#FFC414"/>
<path d="M216 114.21H180.144C180.144 114.102 180.198 113.994 180.198 113.886H215.946L216 114.21Z" fill="#FFC414"/>
<path d="M216.324 115.776L214.974 115.884H179.928C179.928 115.776 179.928 115.668 179.982 115.56H216.324V115.776Z" fill="#FFC414"/>
<path d="M196.182 117.288C194.508 117.396 192.888 117.504 191.268 117.612H179.712C179.712 117.504 179.712 117.396 179.766 117.288H196.182Z" fill="#FFC414"/>
<path d="M213.57 94.8779C213.786 93.7979 213.894 92.7179 213.786 91.6379C213.516 89.4779 212.76 87.3719 211.572 85.4819C210.924 84.4019 210.168 83.4299 209.574 82.3499V82.2959H209.628C210.222 82.9979 210.762 83.7539 211.248 84.5099C211.248 84.5099 211.248 84.4559 211.194 84.4559C211.032 84.0239 210.87 83.5919 210.654 83.2139C210.654 83.1599 210.708 83.1599 210.708 83.1599C210.924 83.5379 211.14 83.9699 211.302 84.3479C211.41 84.6179 211.518 84.8879 211.626 85.1579C212.22 86.0759 212.814 87.1019 213.246 88.1279C214.218 90.1259 214.488 92.4479 214.002 94.6079C213.678 95.7959 213.192 96.9299 212.544 97.9559H212.49V97.9019C212.976 96.9299 213.3 95.9039 213.57 94.8779Z" fill="#263238"/>
<path d="M195.21 73.656C195.426 74.196 198.72 77.49 201.312 76.95C202.176 76.788 201.42 72.144 201.42 72.144V71.766L201.744 66.798L195.534 64.044L194.67 63.666C194.67 63.666 194.67 65.016 194.67 66.744V67.284C194.67 67.554 194.67 67.824 194.67 68.04C194.67 68.256 194.67 68.418 194.67 68.634C194.67 68.85 194.67 69.066 194.67 69.228C194.778 70.74 194.94 72.198 195.21 73.656Z" fill="#DD6A57"/>
<path d="M194.724 66.744C196.128 69.336 198.612 71.172 201.474 71.766L201.798 66.798L195.588 64.044L194.724 63.666C194.724 63.666 194.724 65.07 194.724 66.744Z" fill="#263238"/>
<path d="M207.954 59.2918C208.872 68.0398 203.742 69.5518 201.852 69.7138C200.124 69.8758 194.292 70.2538 192.51 61.7218C190.728 53.1898 194.454 49.9498 198.342 49.3558C202.23 48.7618 207.036 50.5978 207.954 59.2918Z" fill="#DD6A57"/>
<path d="M206.01 57.4022C205.794 57.4022 205.632 57.3482 205.416 57.3482C205.2 57.3482 204.984 57.2942 204.822 57.1862C204.714 57.0782 204.714 56.9162 204.768 56.8082C204.93 56.5922 205.254 56.4842 205.524 56.5382C205.794 56.5382 206.064 56.6462 206.28 56.8622C206.388 56.9702 206.388 57.1862 206.28 57.3482C206.172 57.4022 206.118 57.4022 206.01 57.4022Z" fill="#263238"/>
<path d="M200.286 58.1044C200.502 58.0504 200.664 57.9964 200.88 57.9424C201.096 57.8884 201.258 57.7804 201.42 57.6184C201.474 57.5104 201.474 57.3484 201.366 57.2404C201.15 57.0784 200.826 57.0244 200.61 57.1324C200.34 57.1864 200.124 57.3484 199.962 57.6184C199.854 57.7804 199.908 57.9964 200.07 58.0504C200.124 58.1044 200.178 58.1044 200.286 58.1044Z" fill="#263238"/>
<path d="M201.798 60.1562L201.744 60.2102C201.852 60.8042 201.852 61.5063 201.312 61.7763V61.8302C202.014 61.6142 202.014 60.6963 201.798 60.1562Z" fill="#263238"/>
<path d="M201.204 59.6159C200.232 59.6699 200.394 61.6138 201.312 61.5598C202.23 61.5058 202.014 59.5619 201.204 59.6159Z" fill="#263238"/>
<path d="M200.826 59.7781C200.664 59.8861 200.502 60.1021 200.34 60.1561C200.178 60.2101 199.908 59.9941 199.746 59.8321C199.746 59.8321 199.692 59.8321 199.692 59.8861C199.692 60.2641 199.908 60.6421 200.286 60.6421C200.664 60.6421 200.88 60.3181 200.934 59.9401C200.988 59.7781 200.88 59.7241 200.826 59.7781Z" fill="#263238"/>
<path d="M205.092 59.7241C205.092 59.7241 205.146 59.7241 205.092 59.7241C205.146 60.3721 205.308 61.0201 205.848 61.1821V61.2361C205.2 61.1821 205.038 60.3181 205.092 59.7241Z" fill="#263238"/>
<path d="M205.578 59.076C206.55 58.914 206.766 60.858 205.902 60.966C205.038 61.074 204.768 59.184 205.578 59.076Z" fill="#263238"/>
<path d="M206.01 59.1301C206.172 59.2381 206.334 59.4001 206.55 59.3461C206.766 59.2921 206.874 59.1301 206.982 58.9141C206.982 58.9141 206.982 58.9141 207.036 58.9141C207.09 59.2921 207.036 59.6701 206.658 59.7781C206.28 59.8861 206.064 59.6161 205.956 59.2381C205.902 59.2381 205.956 59.0761 206.01 59.1301Z" fill="#263238"/>
<path d="M202.284 64.9082C202.446 65.0162 202.608 65.2322 202.824 65.2322C203.04 65.2322 203.256 65.1782 203.472 65.0702C203.472 65.0702 203.526 65.0702 203.472 65.1242C203.31 65.3942 203.04 65.5022 202.716 65.5022C202.5 65.3942 202.338 65.1782 202.284 64.9082C202.23 64.9082 202.284 64.9082 202.284 64.9082Z" fill="#263238"/>
<path d="M204.552 62.5321C204.552 62.5321 204.768 63.3961 204.822 63.8281C204.822 63.8821 204.714 63.8821 204.606 63.9361C203.904 64.1521 203.094 63.9361 202.608 63.3961C202.554 63.3421 202.608 63.2881 202.662 63.3421C203.256 63.6661 203.904 63.7741 204.552 63.6661C204.552 63.5581 204.12 62.1541 204.228 62.1541C204.552 62.1541 204.876 62.2081 205.2 62.2621C204.822 60.4261 204.12 58.6441 203.796 56.8621C203.796 56.8081 203.796 56.8081 203.85 56.8081H203.904C204.714 58.6441 205.308 60.5881 205.686 62.5861C205.632 62.8021 204.714 62.5861 204.552 62.5321Z" fill="#263238"/>
<path d="M204.498 63.8283C204.282 64.2063 204.012 64.4763 203.688 64.6923C203.472 64.8003 203.256 64.8543 203.04 64.8003C202.554 64.7463 202.5 64.3143 202.5 63.9363C202.5 63.7203 202.554 63.5583 202.608 63.3423C203.202 63.6663 203.85 63.8283 204.498 63.8283Z" fill="#263238"/>
<path d="M203.634 64.6383C203.418 64.7463 203.202 64.8003 202.986 64.7463C202.5 64.6923 202.446 64.2603 202.446 63.8823C202.986 63.8823 203.472 64.1523 203.634 64.6383Z" fill="#FF9ABB"/>
<path d="M193.212 61.3441C194.832 61.6141 195.372 57.9421 195.372 57.9421C195.372 57.9421 202.23 57.0781 203.04 51.5161C203.796 53.8381 205.416 55.7281 207.576 56.8621C207.576 56.8621 207.576 50.7601 202.77 49.3561C202.77 49.3561 196.884 46.9261 193.32 51.5701C189.756 56.2141 192.132 61.1821 193.212 61.3441Z" fill="#263238"/>
<path d="M203.04 51.1382C203.094 52.0022 202.932 52.8662 202.608 53.6762C202.284 54.4862 201.852 55.2422 201.258 55.8902C201.096 56.0522 200.934 56.2142 200.772 56.3222L200.502 56.5382L200.232 56.7002C200.07 56.8082 199.854 56.9162 199.692 57.0782C199.53 57.2402 199.314 57.2942 199.098 57.3482C198.99 57.4022 198.882 57.4562 198.828 57.4562L198.504 57.5642L197.91 57.7802C197.478 57.8882 197.1 57.9422 196.668 57.9962C197.046 57.8342 197.478 57.7262 197.856 57.5642L198.45 57.2942L198.72 57.1862L198.99 57.0242C199.152 56.9162 199.368 56.8082 199.53 56.7002C199.692 56.5922 199.854 56.4842 200.016 56.3222L200.286 56.1602L200.502 55.9442C200.664 55.8362 200.826 55.6742 200.934 55.5122C201.798 54.5942 202.446 53.4602 202.77 52.2722C202.878 51.9482 202.986 51.5702 203.04 51.1382Z" fill="#263238"/>
<path d="M194.184 62.0998C194.184 62.0998 192.24 59.3998 190.998 60.1018C189.756 60.8038 191.268 64.7458 192.726 65.2858C193.482 65.6098 194.346 65.2858 194.67 64.5298V64.4758L194.184 62.0998Z" fill="#DD6A57"/>
<path d="M191.43 61.29C192.456 61.668 192.996 62.64 193.428 63.612C193.212 63.234 192.672 63.126 192.294 63.342C192.24 63.342 192.24 63.396 192.186 63.396V63.45C192.564 63.342 192.942 63.45 193.212 63.774C193.428 64.044 193.59 64.314 193.698 64.584C193.752 64.692 193.914 64.638 193.86 64.53C193.914 63.18 192.834 61.344 191.43 61.29Z" fill="#263238"/>
<path d="M194.022 51.5161C194.832 51.2461 195.534 46.8181 192.672 44.7661C189.81 42.7141 186.084 45.0901 187.65 48.6541C188.622 50.9221 192.348 52.1101 194.022 51.5161Z" fill="#263238"/>
<path d="M188.622 44.4961C187.758 45.1981 187.164 46.1701 186.948 47.2501C186.732 48.2761 187.056 49.3561 187.812 50.0581C188.622 50.7601 189.594 51.2461 190.674 51.4621C191.214 51.5701 191.754 51.6241 192.294 51.6781C192.834 51.7321 193.428 51.6781 193.968 51.5161C193.482 51.7861 192.888 51.9481 192.348 52.0021C191.754 52.0561 191.16 52.0561 190.62 51.9481C189.432 51.8401 188.298 51.3001 187.434 50.5441C187.002 50.1121 186.678 49.5721 186.462 48.9781C186.3 48.3841 186.3 47.7361 186.516 47.1421C186.786 46.0081 187.596 45.0361 188.622 44.4961Z" fill="#263238"/>
<path d="M190.134 75.7081C182.898 86.5621 178.848 101.034 179.334 104.22C179.928 107.73 184.842 119.556 189.972 124.794C191.322 126.198 201.528 114.858 200.124 113.346C197.478 110.376 192.186 101.682 191.97 99.7381C191.754 97.9021 194.4 86.1302 195.102 79.4342C195.804 73.0082 193.482 70.6321 190.134 75.7081Z" fill="#DD6A57"/>
<path d="M199.8 112.968C199.8 112.968 205.308 115.398 208.872 117.18C210.87 118.152 214.11 120.15 215.19 121.554C216.864 123.606 222.534 133.38 220.212 134.784C218.106 136.08 214.272 127.116 214.272 127.116C214.272 127.116 218.916 135.864 216.108 136.944C213.3 138.024 210.276 127.278 210.276 127.278C210.276 127.278 214.866 136.35 211.788 136.998C209.466 137.538 206.226 127.98 206.226 127.98C206.226 127.98 210.114 135.81 207.738 136.404C205.092 137.106 201.528 128.466 201.528 128.466C195.21 129.006 191.97 126.684 189.864 124.794C189.432 124.308 199.8 112.968 199.8 112.968Z" fill="#DD6A57"/>
<path d="M212.922 123.984C213.516 125.01 214.11 125.982 214.596 127.062C215.082 128.142 215.568 129.168 215.946 130.302C216.486 131.706 216.864 133.218 217.08 134.73C216.54 132.084 214.812 128.304 214.326 127.224C213.84 126.144 213.354 125.01 212.922 123.984C212.868 123.984 212.868 123.93 212.922 123.984Z" fill="#263238"/>
<path d="M209.088 125.658C209.79 126.954 210.492 128.25 211.14 129.6C211.788 130.95 212.22 132.246 212.76 133.65C212.814 133.758 212.706 133.758 212.706 133.65C212.112 132.3 211.464 131.058 210.87 129.708C210.276 128.358 209.736 127.008 209.034 125.658C209.034 125.658 209.034 125.658 209.088 125.658Z" fill="#263238"/>
<path d="M205.524 126.576C206.658 128.574 207.522 130.68 208.224 132.84C208.278 132.948 208.17 132.894 208.116 132.84C207.252 130.734 206.604 129.06 205.47 126.63C205.416 126.576 205.47 126.522 205.524 126.576Z" fill="#263238"/>
<path d="M183.168 86.8323L194.67 89.0463C194.67 89.0463 196.02 81.0003 195.48 76.0863C194.94 71.1723 192.078 72.1443 189.324 76.0863C186.57 80.0283 183.168 86.8323 183.168 86.8323Z" fill="#FFC414"/>
<path opacity="0.1" d="M183.168 86.8323L194.67 89.0463C194.67 89.0463 196.02 81.0003 195.48 76.0863C194.94 71.1723 192.078 72.1443 189.324 76.0863C186.57 80.0283 183.168 86.8323 183.168 86.8323Z" fill="black"/>
<path d="M65.664 185.49C65.016 188.136 64.368 190.782 64.26 193.482C64.314 193.59 64.314 194.13 64.26 193.968C64.26 194.4 63.558 194.346 63.558 193.914C63.558 193.644 63.558 193.374 63.558 193.104C61.992 191.16 59.724 189.918 57.888 188.244C56.43 186.894 55.35 185.22 54.756 183.276C53.244 178.038 54.648 172.476 52.812 167.184C51.246 162.648 48.384 158.76 46.008 154.656C43.47 150.336 41.58 145.8 41.418 140.724C41.256 136.836 41.742 131.652 44.712 128.79C47.844 125.712 51.732 128.034 54.162 130.788C61.128 138.78 64.314 148.878 65.61 159.192C66.312 164.916 67.068 170.64 66.906 176.418C66.798 179.388 66.366 182.466 65.664 185.49Z" fill="#FFC414"/>
<path d="M64.26 195.588C64.638 190.188 64.584 184.788 64.098 179.388V179.334C64.206 174.96 64.53 170.586 64.368 166.212C64.152 161.46 63.504 156.762 62.424 152.172C62.424 152.118 62.316 152.118 62.316 152.172C63.18 156.708 63.666 161.298 63.828 165.942C63.936 168.426 63.882 170.91 63.774 173.34C63.72 174.15 63.666 174.96 63.612 175.77C61.776 163.512 57.348 151.74 50.598 141.318C50.49 141.156 50.274 141.318 50.328 141.48C55.134 149.418 58.752 158.004 60.912 167.022C57.564 160.812 52.488 155.736 48.762 149.742C48.762 149.688 48.708 149.742 48.708 149.796C52.056 156.438 57.672 161.676 61.182 168.21C61.776 170.856 62.316 173.556 62.694 176.256C63.18 179.982 63.45 183.708 63.504 187.434C61.452 183.654 59.346 179.982 57.672 175.932C57.672 175.878 57.618 175.878 57.564 175.878C57.51 175.878 57.51 175.932 57.51 175.986C58.914 180.198 60.858 184.68 63.504 188.244C63.504 190.89 63.45 193.536 63.288 196.182C62.856 203.256 61.668 210.222 61.128 217.242C61.128 217.35 61.182 217.404 61.29 217.404C61.398 217.404 61.452 217.35 61.452 217.242C62.91 210.168 63.828 202.878 64.26 195.588Z" fill="#263238"/>
<path d="M56.754 141.102C56.754 141.048 56.646 141.102 56.646 141.156C57.942 144.72 58.644 148.338 59.616 152.01C59.616 152.064 59.724 152.118 59.778 152.118C59.832 152.118 59.886 152.064 59.886 151.956C59.508 148.23 58.212 144.504 56.754 141.102Z" fill="#263238"/>
<path d="M89.532 156.06C88.668 158.166 87.696 160.164 86.562 162.162C84.24 166.374 81.81 170.262 81.378 175.176C81.162 177.39 81.108 179.55 80.46 181.656C79.866 183.492 79.002 185.166 77.868 186.732C75.33 190.404 72.198 193.536 69.876 197.37C67.446 201.312 65.664 205.686 64.584 210.168C64.53 210.438 64.152 210.33 64.206 210.114V210.06V210.006C63.828 199.476 64.692 188.838 67.878 178.74C69.282 174.312 71.01 169.992 72.954 165.726C74.682 162.054 76.842 158.544 79.866 155.79C81.81 154.008 86.076 150.66 88.884 152.442C90.18 153.414 90.072 154.71 89.532 156.06Z" fill="#FFC414"/>
<path d="M78.9481 179.928C77.1121 183.006 75.0601 185.922 72.8461 188.73C71.8201 190.08 70.7941 191.376 69.7681 192.726C69.2821 193.374 68.7421 193.968 68.3101 194.67C68.5801 193.59 68.8501 192.456 69.1201 191.322C70.4701 185.976 71.7661 180.63 73.8181 175.5C75.8161 170.478 78.4081 165.78 81.1081 161.136C81.1621 161.028 81.0001 160.92 80.8921 161.028C78.6781 164.7 76.4101 168.318 74.5201 172.206C73.4941 174.366 72.5761 176.58 71.8201 178.848C72.6841 174.042 73.8721 169.29 75.3841 164.7C75.3841 164.646 75.3301 164.646 75.3301 164.7C73.3321 169.398 72.0361 174.366 71.6041 179.442C71.1721 180.792 70.7401 182.196 70.3081 183.6C68.6341 189.486 67.1761 195.426 65.8261 201.42C65.8261 197.478 66.1501 193.59 66.8521 189.702C66.8521 189.594 66.7441 189.594 66.6901 189.702C65.6641 193.752 65.3401 197.91 65.6641 202.068C65.1781 204.336 64.6381 206.604 64.1521 208.872C63.1261 213.732 61.8301 218.646 61.2361 223.614C61.2361 223.668 61.2901 223.722 61.3441 223.722C61.3981 223.722 61.4521 223.668 61.4521 223.668C62.1541 221.022 62.6401 218.268 63.1801 215.568C63.7201 212.868 64.3681 210.168 65.0161 207.468C65.9341 203.526 66.9061 199.638 67.8781 195.75C68.5261 194.346 69.7681 193.05 70.7401 191.862C71.7661 190.566 72.7921 189.216 73.8181 187.866C75.7081 185.382 77.3821 182.79 78.8941 180.036C79.0561 179.928 79.0021 179.874 78.9481 179.928Z" fill="#263238"/>
<path d="M79.38 175.446C77.0581 178.416 75.1141 181.602 73.4401 184.95C73.4401 185.004 73.4941 185.058 73.4941 185.004C75.4921 181.818 77.4901 178.632 79.488 175.5C79.542 175.446 79.434 175.392 79.38 175.446Z" fill="#263238"/>
<path d="M34.56 166.05C35.91 168.426 37.476 171.234 36.882 174.042C36.504 175.824 35.208 177.282 34.938 179.118C34.398 183.168 38.394 185.814 41.31 187.704C48.546 192.456 58.482 196.668 59.778 206.388C59.832 206.712 60.426 206.658 60.372 206.334V206.28L60.426 206.226C61.398 201.312 61.344 196.29 60.318 191.43C59.238 186.462 57.078 181.926 54.486 177.552C50.112 170.1 45.522 162.54 38.934 156.816C37.098 155.25 33.372 152.388 31.914 155.952C30.51 159.354 32.886 163.188 34.56 166.05Z" fill="#FFC414"/>
<path d="M41.2021 181.764C46.0081 186.948 53.6221 189.864 57.7261 195.696C55.2961 186.786 51.2461 178.74 45.0361 171.828C44.9821 171.72 44.9821 171.612 45.0901 171.558C45.1441 171.504 45.2521 171.504 45.3061 171.558C49.7341 175.824 53.2441 180.954 55.6741 186.624C54.5401 182.682 53.0281 178.848 51.1921 175.176C51.1921 175.122 51.1921 175.014 51.2461 175.014C51.3001 175.014 51.3541 175.014 51.4081 175.068C53.6761 179.064 55.2961 183.438 56.2141 187.974C61.6681 201.15 62.1541 216.594 61.0201 230.472C61.0201 230.688 60.6961 230.688 60.6961 230.472C61.0201 219.564 60.8041 208.386 58.2121 197.748C58.1581 197.532 58.1041 197.316 58.0501 197.1C53.5681 190.836 45.9541 187.92 41.0941 181.98C41.0401 181.818 41.1481 181.71 41.2021 181.764Z" fill="#263238"/>
<path d="M40.0681 177.336C42.6061 179.658 45.0361 181.98 47.5741 184.302C47.5741 184.302 47.5741 184.356 47.5201 184.356C44.6581 182.412 42.1201 180.09 39.9061 177.498C39.8521 177.444 39.9061 177.39 39.9061 177.336C39.9601 177.282 40.0141 177.282 40.0681 177.336Z" fill="#263238"/>
<path d="M39.69 167.346C41.904 171.018 44.442 174.474 47.25 177.714V177.768H47.196C44.064 174.798 41.472 171.288 39.582 167.454C39.582 167.4 39.582 167.346 39.636 167.346C39.636 167.292 39.636 167.292 39.69 167.346Z" fill="#263238"/>
<path d="M50.9761 240.192H73.0621L70.0921 210.492H54.3781L50.9761 240.192Z" fill="#455A64"/>
<path d="M53.838 215.352H70.578L70.092 210.492H54.378L53.838 215.352Z" fill="#263238"/>
<path d="M72.36 207.252H51.678V212.004H72.36V207.252Z" fill="#455A64"/>
</svg>
