<svg width="270" height="270" viewBox="0 0 270 270" fill="none" xmlns="http://www.w3.org/2000/svg">
<path d="M39.204 180.684H24.894V186.732H39.204V180.684Z" fill="#EBEBEB"/>
<path d="M31.212 188.298H16.902V194.346H31.212V188.298Z" fill="#EBEBEB"/>
<path d="M153.738 81.27H139.428V87.318H153.738V81.27Z" fill="#EBEBEB"/>
<path d="M145.746 88.8838H131.436V94.9318H145.746V88.8838Z" fill="#EBEBEB"/>
<path d="M137.808 81.27H123.498V87.318H137.808V81.27Z" fill="#EBEBEB"/>
<path d="M253.098 188.298H238.788V194.346H253.098V188.298Z" fill="#EBEBEB"/>
<path d="M245.106 17.9819H230.796V24.0299H245.106V17.9819Z" fill="#EBEBEB"/>
<path d="M253.098 25.5957H238.788V31.6437H253.098V25.5957Z" fill="#EBEBEB"/>
<path d="M39.204 17.9819H24.894V24.0299H39.204V17.9819Z" fill="#EBEBEB"/>
<path d="M241.002 85.5899C233.604 90.0719 223.992 87.6419 219.51 80.2439C218.646 78.8399 218.052 77.3279 217.674 75.7079C215.73 67.2839 220.968 58.8599 229.392 56.9159C237.816 54.9719 246.24 60.2099 248.184 68.6339C249.696 75.2759 246.78 82.0799 241.002 85.5899Z" fill="#EBEBEB"/>
<path d="M237.708 70.4701C237.654 73.1161 235.494 75.2221 232.902 75.1681C230.256 75.1141 228.15 72.9541 228.204 70.3621C228.258 67.7701 230.418 65.6101 233.01 65.6641C235.602 65.6641 237.708 67.8241 237.708 70.4701Z" fill="white"/>
<path d="M241.002 83.6461V85.5901C235.926 88.6681 229.554 88.5601 224.532 85.3741V83.4301C224.694 78.8941 228.528 75.3301 233.064 75.4921C237.438 75.6541 240.948 79.2181 241.002 83.6461Z" fill="white"/>
<path d="M39.15 165.888C33.642 169.182 26.46 167.4 23.112 161.892C19.764 156.384 21.6 149.202 27.108 145.854C32.616 142.506 39.798 144.342 43.146 149.85C43.794 150.876 44.226 152.064 44.496 153.252C45.63 158.166 43.47 163.296 39.15 165.888Z" fill="#EBEBEB"/>
<path d="M36.666 154.602C36.666 156.546 35.046 158.112 33.048 158.112C31.05 158.112 29.538 156.492 29.538 154.494C29.538 152.55 31.158 150.984 33.156 150.984C35.154 151.038 36.72 152.604 36.666 154.602Z" fill="white"/>
<path d="M39.15 164.43V165.888C35.37 168.156 30.618 168.102 26.892 165.726V164.268C26.946 160.866 29.7 158.166 33.102 158.22C36.504 158.274 39.204 161.028 39.15 164.43Z" fill="white"/>
<path d="M227.07 42.1738V211.086C227.07 215.838 223.506 219.726 219.078 219.726H140.238C135.81 219.726 132.246 215.892 132.246 211.086V42.1738C132.246 32.4538 135.81 31.9678 140.238 31.9678H156.06C156.978 31.9678 157.734 32.9938 157.734 34.2898V34.8298C157.734 37.8538 159.408 37.8538 161.406 37.8538H197.91C199.962 37.8538 201.636 37.8538 201.636 34.8298V34.2898C201.636 32.9938 202.392 31.9678 203.31 31.9678H219.078C223.506 31.9678 227.07 33.2638 227.07 42.1738Z" fill="#EBEBEB"/>
<path d="M184.626 33.9658H174.69C174.366 33.9658 174.096 33.6958 174.096 33.3718C174.096 33.0478 174.366 32.7778 174.69 32.7778H184.68C185.004 32.7778 185.274 33.0478 185.274 33.3718C185.274 33.6958 185.004 33.9658 184.626 33.9658Z" fill="white"/>
<path d="M153.576 35.64L153.414 35.802C153.36 35.802 153.36 35.856 153.306 35.91C152.496 35.1 151.2 35.1 150.39 35.91L150.336 35.802L150.12 35.64L150.336 35.478C150.498 35.37 150.606 35.262 150.768 35.208C150.93 35.1 151.146 35.046 151.362 34.992L151.632 34.938H151.902H152.118C152.28 34.938 152.496 34.992 152.658 35.046C152.766 35.1 152.928 35.154 153.036 35.208C153.144 35.262 153.252 35.37 153.36 35.424L153.576 35.64Z" fill="white"/>
<path d="M150.876 36.3421L150.606 36.1261C151.308 35.4241 152.388 35.4241 153.036 36.1261L152.766 36.3421C152.28 35.8021 151.416 35.8021 150.876 36.3421Z" fill="white"/>
<path d="M152.604 36.6121C152.55 36.7201 152.442 36.7741 152.388 36.8281C152.28 36.7201 152.064 36.6121 151.902 36.6121C151.686 36.6121 151.524 36.6661 151.416 36.8281L151.146 36.6121C151.524 36.1801 152.172 36.1801 152.604 36.6121C152.604 36.5581 152.604 36.5581 152.604 36.6121Z" fill="white"/>
<path d="M152.064 37.0441C152.064 37.1521 151.956 37.2601 151.848 37.2601C151.74 37.2601 151.632 37.1521 151.632 37.0441C151.632 36.9361 151.74 36.8281 151.848 36.8281C151.956 36.8281 152.064 36.9361 152.064 37.0441Z" fill="white"/>
<path d="M138.672 36.0718C138.672 35.7478 138.942 35.4238 139.32 35.4238C139.698 35.4238 139.968 35.6938 139.968 36.0718C139.968 36.3958 139.698 36.7198 139.374 36.7198C138.996 36.7198 138.672 36.4498 138.672 36.0718C138.672 36.0718 138.672 36.1258 138.672 36.0718Z" fill="white"/>
<path d="M140.67 36.0718C140.67 35.7478 140.94 35.4238 141.318 35.4238C141.642 35.4238 141.966 35.6938 141.966 36.0718C141.966 36.3958 141.696 36.7198 141.318 36.7198C140.94 36.7198 140.67 36.4498 140.67 36.0718Z" fill="white"/>
<path d="M142.614 36.0718C142.614 35.7478 142.884 35.4238 143.262 35.4238C143.64 35.4238 143.91 35.6938 143.91 36.0718C143.91 36.4498 143.64 36.7198 143.262 36.7198C142.938 36.7198 142.614 36.4498 142.614 36.0718Z" fill="white"/>
<path d="M144.612 36.0718C144.612 35.7478 144.882 35.4238 145.26 35.4238C145.638 35.4238 145.908 35.6938 145.908 36.0718C145.908 36.3958 145.638 36.7198 145.314 36.7198C144.936 36.7198 144.612 36.4498 144.612 36.0718C144.612 36.0718 144.612 36.1258 144.612 36.0718Z" fill="white"/>
<path d="M146.61 36.0718C146.61 35.7478 146.88 35.4238 147.258 35.4238C147.636 35.4238 147.906 35.6938 147.906 36.0718C147.906 36.4498 147.636 36.7198 147.258 36.7198C146.88 36.7198 146.61 36.4498 146.61 36.0718Z" fill="white"/>
<path d="M220.212 37.4756H215.082V35.0996H220.212V37.4756ZM215.352 37.2056H219.942V35.3696H215.352V37.2056Z" fill="white"/>
<path d="M218.808 35.478H215.514V37.044H218.808V35.478Z" fill="white"/>
<path d="M220.644 35.6396H220.212V36.8816H220.644V35.6396Z" fill="white"/>
<path d="M179.658 205.308C184.102 205.308 187.704 201.705 187.704 197.262C187.704 192.818 184.102 189.216 179.658 189.216C175.214 189.216 171.612 192.818 171.612 197.262C171.612 201.705 175.214 205.308 179.658 205.308Z" fill="white"/>
<path d="M179.658 207.954C173.718 207.954 168.912 203.148 168.912 197.208C168.912 191.268 173.718 186.462 179.658 186.462C185.598 186.462 190.404 191.268 190.404 197.208C190.404 203.148 185.598 207.954 179.658 207.954ZM179.658 187.596C174.312 187.596 169.992 191.916 169.992 197.262C169.992 202.608 174.312 206.928 179.658 206.928C185.004 206.928 189.324 202.608 189.324 197.262C189.324 191.916 185.004 187.596 179.658 187.596Z" fill="white"/>
<path d="M220.698 56.2139H138.618V167.238H220.698V56.2139Z" fill="white"/>
<path d="M166.266 56.2139H165.726V167.238H166.266V56.2139Z" fill="#EBEBEB"/>
<path d="M193.59 56.2139H193.05V167.238H193.59V56.2139Z" fill="#EBEBEB"/>
<path d="M220.698 90.126H138.618V90.666H220.698V90.126Z" fill="#EBEBEB"/>
<path d="M220.698 129.924H138.618V130.464H220.698V129.924Z" fill="#EBEBEB"/>
<path d="M145.962 201.744C148.437 201.744 150.444 199.737 150.444 197.262C150.444 194.786 148.437 192.78 145.962 192.78C143.487 192.78 141.48 194.786 141.48 197.262C141.48 199.737 143.487 201.744 145.962 201.744Z" fill="white"/>
<path d="M205.632 193.59H197.694V194.778H205.632V193.59Z" fill="white"/>
<path d="M205.632 196.668H197.694V197.856H205.632V196.668Z" fill="white"/>
<path d="M205.632 199.746H197.694V200.934H205.632V199.746Z" fill="white"/>
<path d="M199.8 192.996H199.26V195.372H199.8V192.996Z" fill="white"/>
<path d="M204.012 196.074H203.472V198.45H204.012V196.074Z" fill="white"/>
<path d="M201.906 199.152H201.366V201.528H201.906V199.152Z" fill="white"/>
<path d="M218.106 197.262H217.566C217.566 195.048 215.784 193.266 213.57 193.266C212.328 193.266 211.14 193.86 210.384 194.886L209.952 194.562C211.464 192.564 214.272 192.132 216.27 193.644C217.458 194.508 218.106 195.858 218.106 197.262Z" fill="white"/>
<path d="M211.572 194.292L210.276 194.562L210.006 193.32L209.574 193.968L209.844 195.21L211.14 194.94L211.572 194.292Z" fill="white"/>
<path d="M213.57 201.744C211.086 201.744 209.034 199.746 209.034 197.208H209.574C209.574 199.422 211.356 201.204 213.57 201.204C214.866 201.204 216.108 200.556 216.864 199.476L217.296 199.8C216.486 201.042 215.082 201.744 213.57 201.744Z" fill="white"/>
<path d="M215.73 200.124L217.026 199.8L217.296 201.042L217.728 200.394L217.404 199.152L216.162 199.422L215.73 200.124Z" fill="white"/>
<path d="M131.004 254.394C192.917 254.394 243.108 248.882 243.108 242.082C243.108 235.282 192.917 229.77 131.004 229.77C69.0907 229.77 18.9 235.282 18.9 242.082C18.9 248.882 69.0907 254.394 131.004 254.394Z" fill="#EBEBEB"/>
<path d="M15.066 220.05L45.036 219.888H75.006L135 219.78L194.994 219.888H224.964L254.934 220.05L224.964 220.158L194.994 220.212L135 220.32L75.006 220.212L45.036 220.158L15.066 220.05Z" fill="#263238"/>
<path d="M224.586 133.974C224.586 133.974 236.682 132.3 233.82 117.72C233.874 117.72 220.374 120.744 224.586 133.974Z" fill="#FFC414"/>
<path opacity="0.1" d="M224.586 133.974C224.586 133.974 236.682 132.3 233.82 117.72C233.874 117.72 220.374 120.744 224.586 133.974Z" fill="black"/>
<path d="M225.234 130.95C225.45 130.194 225.774 129.492 226.044 128.79C226.044 128.682 226.044 128.628 226.098 128.52L226.152 127.926C226.206 127.494 226.206 127.062 226.26 126.63C226.314 125.766 226.368 124.902 226.368 123.984V123.93H226.422C226.422 123.93 226.422 123.93 226.422 123.984C226.422 124.848 226.422 125.712 226.422 126.63C226.422 127.062 226.368 127.494 226.368 127.926C226.368 128.034 226.368 128.142 226.368 128.196C227.07 126.738 227.88 125.334 228.798 124.038C229.23 123.444 229.662 122.904 230.148 122.364C230.634 121.824 231.12 121.284 231.606 120.744C231.66 120.69 231.714 120.744 231.66 120.798C230.796 121.77 229.986 122.796 229.338 123.876C228.96 124.416 228.636 125.01 228.312 125.604L228.42 125.55L228.852 125.388C229.176 125.28 229.5 125.118 229.824 125.01L231.768 124.308C231.822 124.308 231.822 124.362 231.768 124.362C231.12 124.632 230.472 124.902 229.878 125.172L228.96 125.55L228.474 125.766C228.366 125.82 228.258 125.874 228.15 125.874C227.88 126.306 227.664 126.738 227.448 127.224C226.908 128.358 226.368 129.492 225.99 130.68C225.99 130.734 225.936 130.842 225.882 130.95C226.206 130.788 226.53 130.626 226.854 130.464L228.096 129.87C228.96 129.492 229.77 129.114 230.58 128.628C230.634 128.628 230.634 128.682 230.634 128.682C229.824 129.114 229.014 129.6 228.15 130.086C227.718 130.302 227.34 130.518 226.908 130.734C226.53 130.95 226.152 131.112 225.774 131.166C225.396 132.246 225.126 133.434 224.964 134.622C224.856 136.242 224.856 137.916 224.802 139.59H224.748C224.64 138.078 224.532 136.566 224.532 135.054C224.532 133.704 224.748 132.3 225.234 130.95Z" fill="#263238"/>
<path d="M227.07 122.364C227.178 123.228 227.232 124.092 227.178 124.956L227.07 122.364ZM227.178 124.956C227.124 124.092 227.124 123.282 227.016 122.418C227.016 122.364 227.07 122.364 227.07 122.418L227.178 124.956Z" fill="#263238"/>
<path d="M230.526 123.12C231.066 122.904 231.606 122.634 232.092 122.364H232.146V122.418C231.66 122.742 231.12 123.012 230.526 123.12C230.526 123.174 230.526 123.174 230.526 123.12Z" fill="#263238"/>
<path d="M224.208 157.14C224.208 155.79 224.262 154.494 224.262 153.144C224.262 148.716 224.316 144.288 224.424 139.86C224.478 136.35 224.586 132.84 224.694 129.276C224.694 129.276 224.694 129.222 224.748 129.222V126.36C224.748 126.36 224.748 126.306 224.802 126.306C224.856 126.306 224.856 126.306 224.856 126.36C224.856 127.332 224.856 128.304 224.856 129.276C224.856 129.276 224.856 129.276 224.856 129.33C225.018 135.594 225.18 141.858 225.234 148.122C225.234 149.418 225.234 150.66 225.234 151.956C225.288 156.06 225.288 160.11 225.288 164.214C225.288 164.862 225.288 165.51 225.288 166.158C225.288 169.884 225.234 173.664 225.234 177.39C225.234 177.606 225.018 177.714 224.748 177.714C224.478 177.714 224.208 177.606 224.208 177.39C224.208 173.286 224.208 169.128 224.208 165.024C224.208 162.378 224.208 159.732 224.208 157.14Z" fill="#263238"/>
<path d="M229.284 153.09C229.284 153.09 235.116 148.77 240.624 151.686C246.132 154.602 246.996 165.834 246.996 165.834C246.996 165.834 238.896 166.968 233.766 162.108C228.852 157.464 229.284 153.09 229.284 153.09Z" fill="#FFC414"/>
<path d="M227.664 153.36C228.744 152.928 229.878 152.766 231.012 152.928C231.228 152.874 231.498 152.874 231.714 152.874L232.524 152.82L234.198 152.712C235.332 152.604 236.466 152.55 237.654 152.442C237.708 152.442 237.708 152.496 237.654 152.496C236.52 152.658 235.386 152.82 234.252 152.928C233.658 152.982 233.064 153.036 232.524 153.09L232.092 153.144C232.254 153.198 232.47 153.252 232.632 153.252C233.55 153.522 234.414 153.9 235.278 154.332C235.71 154.386 236.196 154.548 236.628 154.656C237.33 154.818 238.086 155.034 238.788 155.196C240.192 155.574 241.596 156.006 243 156.384C243.054 156.384 243 156.438 243 156.438C241.596 156.114 240.192 155.79 238.788 155.466L236.736 154.98L236.196 154.872C237.762 155.844 239.166 157.032 240.3 158.436C241.434 159.84 242.406 161.352 243.162 162.972C243.162 163.026 243.108 163.026 243.108 163.026C242.136 161.352 241.002 159.84 239.652 158.49C239.652 158.544 239.706 158.652 239.706 158.706C239.814 159.03 239.922 159.408 240.03 159.732C240.246 160.434 240.462 161.082 240.678 161.784C240.678 161.838 240.624 161.838 240.624 161.784C240.354 161.136 240.138 160.434 239.922 159.786L239.598 158.814L239.436 158.274L239.382 158.112C238.734 157.464 238.032 156.87 237.33 156.33C236.358 155.628 235.332 155.034 234.252 154.548C234.252 154.656 234.306 154.764 234.306 154.872C234.36 155.142 234.414 155.412 234.468 155.682C234.576 156.222 234.684 156.762 234.792 157.356C235.008 158.49 235.116 159.624 235.332 160.758C235.332 160.758 235.332 160.812 235.278 160.812C235.224 160.812 235.224 160.812 235.224 160.758C234.954 159.624 234.63 158.544 234.36 157.356C234.252 156.816 234.09 156.222 233.982 155.682L233.82 154.872C233.82 154.71 233.766 154.602 233.766 154.44L233.442 154.332C231.93 153.684 230.256 153.468 228.582 153.684C227.016 153.954 225.72 155.034 225.072 156.492C225.018 156.6 224.802 156.546 224.856 156.438C225.342 154.926 226.368 153.846 227.664 153.36Z" fill="#263238"/>
<path d="M236.574 158.166C236.736 158.922 236.898 159.624 237.06 160.38C237.222 161.082 237.384 161.838 237.492 162.54H237.438C237.222 161.838 237.06 161.136 236.952 160.38C236.79 159.624 236.682 158.922 236.52 158.22C236.52 158.112 236.574 158.112 236.574 158.166Z" fill="#263238"/>
<path d="M242.19 160.056C242.946 160.434 243.648 160.866 244.404 161.19C244.458 161.19 244.404 161.298 244.35 161.244C243.648 160.866 242.892 160.488 242.19 160.056C242.19 160.002 242.19 160.056 242.19 160.056Z" fill="#263238"/>
<path d="M227.934 145.206C227.934 145.206 235.062 145.638 238.356 140.994C241.65 136.35 240.948 129.654 240.948 129.654C240.948 129.654 233.496 130.572 230.526 133.92C227.556 137.268 227.934 145.206 227.934 145.206Z" fill="#FFC414"/>
<path d="M224.64 152.226C224.91 151.47 225.18 150.714 225.504 149.958C225.828 149.202 226.044 148.554 226.368 147.852C227.016 146.394 227.718 145.044 228.528 143.64C229.014 142.776 229.554 141.912 230.148 141.102C230.148 140.994 230.202 140.832 230.202 140.724L230.31 140.076C230.364 139.644 230.472 139.158 230.526 138.726C230.688 137.754 230.904 136.782 231.066 135.81C231.066 135.756 231.12 135.756 231.12 135.81C230.958 136.782 230.904 137.754 230.742 138.726C230.688 139.212 230.634 139.698 230.526 140.13L230.472 140.67C231.552 139.104 232.74 137.538 233.982 136.134C234.144 135.918 234.306 135.756 234.522 135.54C234.522 135.486 234.576 135.432 234.576 135.378C234.63 135.27 234.684 135.108 234.738 134.946L235.062 134.082C235.278 133.542 235.44 132.948 235.602 132.408C235.602 132.354 235.656 132.408 235.656 132.408C235.494 133.002 235.386 133.596 235.17 134.136C235.116 134.406 235.008 134.676 234.9 134.946C234.9 135 234.846 135.054 234.846 135.108C235.764 134.136 236.682 133.164 237.654 132.192C237.708 132.138 237.762 132.192 237.708 132.246C235.872 134.19 234.198 136.242 232.686 138.402C232.848 138.348 233.01 138.294 233.226 138.294C233.766 138.186 234.306 138.132 234.9 138.024C236.034 137.862 237.222 137.754 238.356 137.538C238.356 137.538 238.41 137.538 238.41 137.592C238.41 137.592 238.41 137.646 238.356 137.646C237.276 137.862 236.142 138.132 235.062 138.348C234.522 138.456 234.036 138.564 233.496 138.672C233.064 138.78 232.632 138.888 232.254 139.05C232.146 139.212 232.038 139.374 231.93 139.536C231.39 140.292 230.904 141.048 230.418 141.858L231.12 141.696C231.66 141.588 232.2 141.48 232.794 141.426C233.874 141.264 234.954 141.048 236.034 140.832C236.034 140.832 236.088 140.886 236.034 140.886C234.954 141.156 233.874 141.426 232.794 141.75C232.254 141.858 231.768 142.02 231.228 142.128L230.418 142.29C230.31 142.344 230.202 142.344 230.094 142.344C229.068 144.018 228.096 145.746 227.178 147.528C226.8 148.284 226.422 149.094 226.044 149.85C225.666 150.606 225.342 151.47 224.964 152.28C224.802 152.442 224.586 152.388 224.64 152.226Z" fill="#263238"/>
<path d="M231.876 135.864C231.984 135.162 232.146 134.514 232.308 133.812C232.308 133.758 232.362 133.812 232.362 133.812C232.254 134.46 232.092 135.162 231.984 135.81C231.876 136.458 231.768 137.16 231.552 137.808C231.66 137.16 231.768 136.512 231.876 135.864Z" fill="#263238"/>
<path d="M236.034 135.648C236.358 135.486 236.736 135.324 237.06 135.216L237.6 135L237.87 134.892C237.978 134.838 238.086 134.838 238.14 134.784C238.194 134.73 238.248 134.838 238.194 134.838C238.086 134.892 237.978 134.892 237.87 134.946L237.6 135.054L237.06 135.27C236.736 135.432 236.358 135.54 235.98 135.702C236.034 135.756 235.98 135.702 236.034 135.648Z" fill="#263238"/>
<path d="M220.698 139.59C220.698 139.59 216.378 131.544 209.844 130.302C203.31 129.06 199.314 135.81 199.314 135.81C199.314 135.81 204.066 141.912 210.114 142.992C216.162 144.072 220.698 139.59 220.698 139.59Z" fill="#FFC414"/>
<path d="M205.47 133.92C207.198 133.704 208.926 133.704 210.6 133.974L210.33 133.812L208.872 133.056C207.846 132.516 206.874 131.976 205.794 131.544C205.794 131.544 205.74 131.49 205.794 131.49C205.848 131.49 205.848 131.436 205.848 131.49C206.874 131.976 207.954 132.354 208.98 132.84C209.52 133.056 210.006 133.326 210.492 133.596C210.816 133.758 211.194 133.92 211.518 134.136C212.976 134.406 214.326 134.892 215.676 135.54L214.866 134.676C214.272 134.028 213.678 133.326 212.976 132.678C212.922 132.624 212.976 132.57 213.03 132.624C213.732 133.272 214.434 133.812 215.082 134.46C215.406 134.784 215.73 135.108 216 135.432C216.162 135.594 216.324 135.756 216.432 135.972C220.968 138.402 224.208 142.722 225.234 147.798C225.234 147.852 225.18 147.852 225.18 147.798C224.262 144.72 222.588 141.966 220.374 139.644C217.944 137.16 214.92 135.432 211.626 134.568C209.628 134.082 207.63 133.866 205.578 134.028C205.524 134.028 205.524 134.028 205.47 133.974C205.416 133.92 205.416 133.92 205.47 133.92Z" fill="#263238"/>
<path opacity="0.1" d="M199.314 135.81C199.314 135.81 204.066 141.912 210.114 142.992C214.704 143.802 218.484 141.426 219.996 140.238L220.32 139.698C220.32 139.698 217.242 137.106 211.356 135.594C205.47 134.082 199.314 135.81 199.314 135.81Z" fill="black"/>
<path d="M209.25 131.058C209.736 131.328 210.222 131.652 210.708 132.03C211.14 132.354 211.572 132.786 211.95 133.164C212.004 133.218 211.95 133.272 211.896 133.218C211.464 132.84 211.032 132.462 210.546 132.084C210.114 131.706 209.628 131.382 209.196 131.112C209.196 131.112 209.196 131.058 209.25 131.058Z" fill="#263238"/>
<path d="M205.686 132.408L206.442 132.678L207.198 133.002C207.252 133.002 207.198 133.11 207.198 133.056L206.442 132.786L205.74 132.462C205.578 132.462 205.632 132.408 205.686 132.408Z" fill="#263238"/>
<path d="M221.562 149.688C221.562 149.688 220.428 157.68 214.38 160.434C208.332 163.188 201.096 160.434 201.096 160.434C201.096 160.434 203.958 143.208 221.562 149.688Z" fill="#FFC414"/>
<path d="M205.2 155.304C205.74 155.25 206.28 155.142 206.874 155.034L207.684 154.872L208.116 154.764C208.278 154.602 208.44 154.44 208.602 154.332C209.736 153.36 210.978 152.442 212.274 151.686C212.976 151.254 213.732 150.876 214.488 150.552H214.38L212.436 150.66C211.14 150.714 209.79 150.768 208.494 150.822C208.44 150.822 208.44 150.768 208.494 150.768C209.79 150.66 211.14 150.552 212.436 150.444L214.326 150.282L215.298 150.174H215.568C215.892 150.066 216.27 149.904 216.594 149.796C218.214 149.256 219.996 149.148 221.67 149.526C223.182 149.904 224.694 150.876 225.072 152.496C225.072 152.55 225.018 152.604 224.964 152.55C224.424 151.2 222.912 150.552 221.616 150.282C220.752 150.12 219.834 150.12 218.916 150.228C218.862 150.66 218.754 151.038 218.592 151.416C218.43 151.956 218.268 152.55 218.106 153.09C217.782 154.224 217.404 155.304 217.08 156.438V156.492H217.026C217.026 156.492 217.026 156.492 217.026 156.438C217.296 155.304 217.566 154.17 217.782 153.09C217.89 152.55 218.052 152.01 218.214 151.47C218.268 151.092 218.376 150.714 218.538 150.336C217.998 150.444 217.512 150.552 216.972 150.714C216.054 150.984 215.136 151.308 214.272 151.686C214.164 152.226 214.056 152.82 213.948 153.36C213.786 154.062 213.624 154.764 213.408 155.466C213.408 155.466 213.354 155.52 213.354 155.466C213.354 155.412 213.354 155.358 213.354 155.358C213.462 154.71 213.624 154.062 213.786 153.414C213.894 152.874 214.002 152.334 214.11 151.848C213.354 152.172 212.652 152.55 211.95 152.928C211.95 153.09 211.896 153.252 211.896 153.414C211.842 153.684 211.788 153.954 211.734 154.224C211.626 154.818 211.518 155.466 211.356 156.06C211.086 157.248 210.762 158.382 210.33 159.516V159.57L210.276 159.624C210.276 159.678 210.222 159.624 210.222 159.57C210.492 158.382 210.816 157.194 211.086 156.06C211.194 155.466 211.356 154.872 211.464 154.278C211.518 154.008 211.572 153.684 211.626 153.414C211.626 153.306 211.626 153.252 211.68 153.144C210.87 153.63 210.114 154.17 209.358 154.71C208.062 155.682 206.874 156.762 205.794 157.95C205.74 158.004 205.686 157.95 205.686 157.896C206.118 157.302 206.604 156.708 207.09 156.168C207.414 155.844 207.684 155.52 208.008 155.196H207.9L207.036 155.304C206.496 155.358 205.956 155.412 205.362 155.52C205.2 155.358 205.2 155.304 205.2 155.304Z" fill="#263238"/>
<path d="M209.466 158.004C209.466 157.95 209.466 157.842 209.52 157.788C209.574 157.734 209.574 157.626 209.574 157.518C209.682 156.978 209.79 156.438 209.898 155.898C209.898 155.844 209.952 155.898 209.952 155.898C209.898 156.6 209.736 157.302 209.466 158.004Z" fill="#263238"/>
<path d="M214.434 157.842C214.434 157.842 214.488 157.842 214.434 157.842C214.65 157.086 214.812 156.384 214.974 155.682L215.19 154.548C215.244 154.332 215.244 154.116 215.298 153.954C215.298 153.792 215.352 153.576 215.406 153.414C215.406 153.414 215.46 153.36 215.46 153.414C215.46 153.792 215.406 154.17 215.298 154.494C215.244 154.872 215.136 155.25 215.082 155.682C214.92 156.492 214.704 157.248 214.488 158.004C214.488 158.004 214.434 158.058 214.434 158.004V157.842Z" fill="#263238"/>
<path d="M205.794 152.982C206.874 152.82 207.954 152.658 209.088 152.55C209.142 152.55 209.142 152.604 209.088 152.604C208.008 152.766 206.928 152.874 205.794 153.036C205.74 153.09 205.74 152.982 205.794 152.982Z" fill="#263238"/>
<path d="M224.586 131.004C224.586 131.004 228.258 114.912 210.978 108.432C210.978 108.432 206.226 129.6 224.586 131.004Z" fill="#FFC414"/>
<path d="M220.86 121.878L220.644 121.77C220.32 121.608 219.996 121.392 219.672 121.23L217.674 120.096C216.378 119.34 215.028 118.584 213.732 117.882V117.828H213.786C215.136 118.53 216.486 119.232 217.836 119.934L219.834 120.96L220.644 121.392C220.05 120.312 219.456 119.232 218.754 118.206C217.836 116.802 216.864 115.506 215.838 114.21C215.838 114.21 215.838 114.156 215.838 114.102H215.892C217.404 115.56 218.754 117.234 219.888 119.016C219.888 118.962 219.888 118.908 219.888 118.854C219.888 118.476 219.834 118.044 219.834 117.666C219.834 116.91 219.834 116.1 219.834 115.29C219.834 115.236 219.888 115.236 219.888 115.29C219.942 116.046 219.996 116.856 220.05 117.612C220.05 117.99 220.104 118.368 220.104 118.746C220.104 118.962 220.104 119.178 220.104 119.394C220.482 119.988 220.806 120.528 221.13 121.122C221.724 122.148 222.21 123.228 222.696 124.362C222.696 123.984 222.696 123.552 222.75 123.174C222.804 122.31 222.912 121.392 222.966 120.528C222.966 120.474 223.02 120.474 223.02 120.528C223.02 121.392 223.02 122.31 223.02 123.174C223.02 123.606 223.02 124.038 222.966 124.47C222.966 124.632 222.966 124.794 222.966 124.956C223.506 126.414 223.938 127.872 224.262 129.384C224.586 131.004 224.802 132.624 224.91 134.244C224.748 132.786 224.424 131.328 223.992 129.924C223.776 129.168 223.56 128.412 223.29 127.656C222.588 127.332 221.886 126.9 221.184 126.522L219.024 125.334C217.566 124.524 216.162 123.714 214.65 123.066C214.596 123.066 214.65 123.012 214.704 123.012C216.216 123.714 217.728 124.362 219.186 125.064C219.942 125.442 220.644 125.82 221.346 126.252C221.94 126.576 222.534 126.9 223.128 127.332C222.966 126.846 222.804 126.306 222.588 125.82C222.156 124.524 221.562 123.174 220.86 121.878Z" fill="#263238"/>
<path d="M222.318 118.206C222.318 118.152 222.372 118.152 222.372 118.206C222.318 119.124 222.264 120.042 222.156 120.96C222.156 121.014 222.048 121.014 222.102 120.96C222.156 120.042 222.264 119.124 222.318 118.206Z" fill="#263238"/>
<path d="M214.056 121.284C215.136 121.716 216.216 122.148 217.296 122.58V122.634C216.216 122.202 215.136 121.77 214.056 121.338C214.002 121.338 214.002 121.284 214.056 121.284Z" fill="#263238"/>
<path d="M212.436 113.886C213.516 114.372 214.542 114.912 215.514 115.56V115.614H215.46C214.434 115.02 213.408 114.48 212.382 113.94C212.328 113.94 212.382 113.832 212.436 113.886Z" fill="#263238"/>
<path d="M237.6 165.834H212.652V192.132H237.6V165.834Z" fill="#37474F"/>
<path d="M239.328 175.122H238.032V220.104H239.328V175.122Z" fill="#263238"/>
<path d="M212.382 175.122H211.086V220.104H212.382V175.122Z" fill="#263238"/>
<path d="M225.18 175.122H223.884V220.104H225.18V175.122Z" fill="#263238"/>
<path d="M238.68 190.404H211.734V194.022H238.68V190.404Z" fill="#263238"/>
<path d="M179.064 31.752H90.936C85.968 31.806 81.972 35.856 82.026 40.824V222.21C81.972 227.178 85.968 231.228 90.936 231.282H179.064C184.032 231.228 188.028 227.178 187.974 222.21V40.824C188.028 35.856 184.032 31.806 179.064 31.752ZM182.412 216.594C182.412 221.346 178.848 225.234 174.42 225.234H95.58C91.152 225.234 87.588 221.4 87.588 216.594V47.682C87.588 37.962 91.152 37.476 95.58 37.476H111.348C112.266 37.476 113.022 38.502 113.022 39.798V40.338C113.022 43.362 114.696 43.362 116.694 43.362H153.198C155.25 43.362 156.924 43.362 156.924 40.338V39.798C156.924 38.502 157.68 37.476 158.598 37.476H174.42C178.848 37.476 182.412 38.772 182.412 47.682V216.594Z" fill="#263238"/>
<path d="M182.412 47.8442V216.756C182.412 221.508 178.848 225.396 174.42 225.396H95.58C91.152 225.396 87.588 221.562 87.588 216.756V47.8442C87.588 38.1242 91.152 37.6382 95.58 37.6382H111.348C112.266 37.6382 113.022 38.6642 113.022 39.9602V40.5002C113.022 43.5242 114.696 43.5242 116.694 43.5242H153.198C155.25 43.5242 156.924 43.5242 156.924 40.5002V39.9602C156.924 38.6642 157.68 37.6382 158.598 37.6382H174.42C178.848 37.6382 182.412 38.9342 182.412 47.8442Z" fill="white"/>
<path d="M139.968 39.6358H130.032C129.708 39.6358 129.438 39.3658 129.438 39.0418C129.438 38.7178 129.708 38.4478 130.032 38.4478H139.968C140.292 38.4478 140.562 38.7178 140.562 39.0418C140.616 39.3658 140.292 39.6358 139.968 39.6358Z" fill="white"/>
<path d="M108.648 41.3099L108.486 41.4719L108.378 41.5799C107.568 40.7699 106.272 40.7699 105.462 41.5799L105.408 41.4719C105.354 41.4179 105.3 41.3639 105.246 41.3099L105.462 41.1479C105.624 41.0399 105.732 40.9319 105.894 40.8779C106.056 40.7699 106.272 40.7159 106.488 40.6619L106.812 40.6079H107.082H107.298C107.46 40.6079 107.676 40.6619 107.838 40.7159C108.108 40.8239 108.324 40.9319 108.54 41.1479L108.648 41.3099Z" fill="#A6A6A6"/>
<path d="M105.948 42.0119L105.732 41.7959C106.002 41.5259 106.326 41.3639 106.704 41.3099C107.244 41.2559 107.784 41.4179 108.162 41.7959L107.946 42.0119C107.676 41.7419 107.298 41.5799 106.92 41.5799C106.542 41.5799 106.218 41.7419 105.948 42.0119Z" fill="#A6A6A6"/>
<path d="M107.676 42.2278L107.46 42.4438C107.19 42.1738 106.704 42.1738 106.434 42.4438L106.218 42.2278C106.596 41.8498 107.244 41.8498 107.676 42.2278Z" fill="#A6A6A6"/>
<path d="M107.136 42.714C107.136 42.822 107.028 42.93 106.92 42.93C106.812 42.93 106.704 42.822 106.704 42.714C106.704 42.606 106.812 42.498 106.92 42.498C107.082 42.498 107.136 42.606 107.136 42.714Z" fill="#A6A6A6"/>
<path d="M93.798 41.7422C93.798 41.4182 94.068 41.0942 94.446 41.0942C94.77 41.0942 95.094 41.3642 95.094 41.7422C95.094 42.0662 94.824 42.3902 94.446 42.3902C94.068 42.3902 93.798 42.1202 93.798 41.7422Z" fill="#A6A6A6"/>
<path d="M95.742 41.7422C95.742 41.4182 96.012 41.0942 96.39 41.0942C96.714 41.0942 97.038 41.3642 97.038 41.7422C97.038 42.0662 96.768 42.3902 96.39 42.3902C96.012 42.3902 95.742 42.1202 95.742 41.7422Z" fill="#A6A6A6"/>
<path d="M97.74 41.7422C97.74 41.4182 98.01 41.0942 98.388 41.0942C98.712 41.0942 99.036 41.3642 99.036 41.7422C99.036 42.0662 98.766 42.3902 98.388 42.3902C98.01 42.3902 97.74 42.1202 97.74 41.7422Z" fill="#A6A6A6"/>
<path d="M99.684 41.7422C99.684 41.4182 99.954 41.0942 100.332 41.0942C100.656 41.0942 100.98 41.3642 100.98 41.7422C100.98 42.0662 100.71 42.3902 100.332 42.3902C100.008 42.3902 99.738 42.1202 99.684 41.7422Z" fill="#A6A6A6"/>
<path d="M101.682 41.742C101.736 41.418 102.006 41.1479 102.384 41.1479C102.708 41.2019 102.924 41.418 102.978 41.742C103.032 42.066 102.762 42.3899 102.384 42.4439C102.006 42.4979 101.736 42.2279 101.682 41.8499C101.682 41.8499 101.682 41.796 101.682 41.742Z" fill="#A6A6A6"/>
<path d="M175.284 43.0918H170.154V40.7158H175.284V43.0918ZM170.424 42.8758H175.014V41.0398H170.424V42.8758Z" fill="#A6A6A6"/>
<path d="M173.88 41.1479H170.586V42.7139H173.88V41.1479Z" fill="#A6A6A6"/>
<path d="M175.716 41.3101H175.284V42.5521H175.716V41.3101Z" fill="#A6A6A6"/>
<path d="M129.6 189.486L128.25 193.266L133.002 191.754L129.6 189.486Z" fill="white"/>
<path d="M128.79 64.0439H127.224V64.476H128.79V64.0439Z" fill="white"/>
<path d="M144.828 111.24H125.226C123.66 111.24 122.364 109.944 122.364 108.378V88.7761C122.364 87.2101 123.66 85.9141 125.226 85.9141H144.828C146.394 85.9141 147.69 87.2101 147.69 88.7761V108.378C147.636 109.944 146.394 111.24 144.828 111.24Z" fill="#FFC414"/>
<path d="M173.07 111.348H153.468C151.902 111.348 150.606 110.052 150.606 108.486V88.884C150.606 87.318 151.902 86.022 153.468 86.022H173.07C174.636 86.022 175.932 87.318 175.932 88.884V108.486C175.932 110.052 174.636 111.348 173.07 111.348Z" fill="#FFC414"/>
<path d="M115.668 111.24H96.066C94.5 111.24 93.204 109.944 93.204 108.378V88.7761C93.204 87.2101 94.5 85.9141 96.066 85.9141H115.668C117.234 85.9141 118.53 87.2101 118.53 88.7761V108.378C118.476 109.944 117.234 111.24 115.668 111.24Z" fill="#37474F"/>
<path d="M144.828 140.184H125.226C123.66 140.184 122.364 138.888 122.364 137.322V117.72C122.364 116.154 123.66 114.858 125.226 114.858H144.828C146.394 114.858 147.69 116.154 147.69 117.72V137.322C147.636 138.888 146.394 140.184 144.828 140.184Z" fill="#FFC414"/>
<path d="M173.07 140.292H153.468C151.902 140.292 150.606 138.996 150.606 137.43V117.828C150.606 116.262 151.902 114.966 153.468 114.966H173.07C174.636 114.966 175.932 116.262 175.932 117.828V137.43C175.932 138.996 174.636 140.292 173.07 140.292Z" fill="#37474F"/>
<path d="M115.668 140.184H96.066C94.5 140.184 93.204 138.888 93.204 137.322V117.72C93.204 116.154 94.5 114.858 96.066 114.858H115.668C117.234 114.858 118.53 116.154 118.53 117.72V137.322C118.476 138.888 117.234 140.184 115.668 140.184Z" fill="#37474F"/>
<path d="M144.828 168.696H125.226C123.66 168.696 122.364 167.4 122.364 165.834V146.232C122.364 144.666 123.66 143.37 125.226 143.37H144.828C146.394 143.37 147.69 144.666 147.69 146.232V165.834C147.636 167.454 146.394 168.696 144.828 168.696Z" fill="#37474F"/>
<path d="M173.07 168.804H153.468C151.902 168.804 150.606 167.508 150.606 165.942V146.34C150.606 144.774 151.902 143.478 153.468 143.478H173.07C174.636 143.478 175.932 144.774 175.932 146.34V165.942C175.932 167.562 174.636 168.804 173.07 168.804Z" fill="#37474F"/>
<path d="M115.668 168.696H96.066C94.5 168.696 93.204 167.4 93.204 165.834V146.232C93.204 144.666 94.5 143.37 96.066 143.37H115.668C117.234 143.37 118.53 144.666 118.53 146.232V165.834C118.476 167.454 117.234 168.696 115.668 168.696Z" fill="#FFC414"/>
<path d="M168.59 211H152.41C148.331 211 145 207.628 145 203.5C145 199.372 148.331 196 152.41 196H168.59C172.669 196 176 199.372 176 203.5C176 207.628 172.669 211 168.59 211Z" fill="#37474F"/>
<path d="M55.134 67.0682C53.19 72.0362 49.95 77.7062 50.49 83.2142C50.868 87.5342 53.568 91.2602 56.646 94.1762C63.504 100.494 74.574 104.814 82.998 98.7662C86.346 96.3362 88.992 89.8022 86.13 86.1302C84.618 84.2402 82.458 83.1602 80.514 81.8102C77.976 80.2442 76.356 77.5982 75.978 74.6282C75.168 68.5802 77.004 64.9082 78.408 59.1302C78.786 57.9962 78.624 56.7542 78.03 55.7282C77.436 54.4862 76.464 53.4602 75.33 52.7582C74.412 51.9482 73.332 51.3542 72.144 51.0302C69.552 50.4362 66.42 51.8942 63.99 52.7042C61.56 53.5142 60.156 54.7022 59.13 57.0782C57.726 60.3722 56.484 63.7202 55.134 67.0682Z" fill="#263238"/>
<path d="M53.73 69.2284C55.836 64.8004 57.996 60.3724 60.156 55.9444C60.156 55.8904 60.21 55.9444 60.21 55.9444C58.536 59.6164 56.916 63.3424 55.242 67.0144C53.568 70.6864 51.57 74.1964 50.22 77.9224C47.196 86.2924 54.648 92.7184 61.992 94.7164C62.316 94.8244 62.154 95.3104 61.83 95.2024C55.458 93.2044 48.708 88.5064 49.14 81.0004C49.302 76.9504 52.002 72.8464 53.73 69.2284Z" fill="#263238"/>
<path d="M78.138 58.5364C78.138 58.4824 78.192 58.4824 78.246 58.4824C78.3 58.4824 78.3 58.5364 78.3 58.5904C76.896 63.2884 74.898 68.6344 76.14 73.6024C76.734 76.0324 78.084 78.2464 79.974 79.9204C81.486 81.2164 83.268 81.9184 84.996 82.8904C91.638 86.7244 88.398 96.3364 81.972 98.3344C81.864 98.3884 81.756 98.1184 81.918 98.1184C86.562 96.4444 89.532 91.5844 87.912 86.7244C86.616 82.7824 81.702 82.2424 79.002 79.4344C73.386 73.6024 75.708 65.2324 78.138 58.5364Z" fill="#263238"/>
<path d="M102.114 243.432C100.872 243.81 65.232 243.378 63.882 242.514C63.342 242.19 63.072 207.468 63.072 207.468L86.886 207.738L85.968 230.958C85.968 230.958 99.522 237.222 100.926 238.356C102.33 239.49 103.356 243 102.114 243.432Z" fill="#D3766A"/>
<path d="M91.422 233.334C91.314 233.334 91.26 233.28 91.26 233.28L91.422 233.334Z" fill="#FFC414"/>
<path d="M102.114 243.432C100.872 243.81 65.232 243.378 63.882 242.514C63.72 242.406 63.558 238.194 63.45 232.794C68.688 234.63 89.586 238.95 93.906 238.626C97.794 238.302 94.284 235.17 93.258 234.36C96.714 236.034 100.278 237.816 100.926 238.356C102.33 239.436 103.356 243 102.114 243.432Z" fill="#263238"/>
<path d="M55.782 104.814C55.782 104.814 61.128 165.024 61.992 169.614C62.208 170.64 62.316 176.364 62.424 183.654C62.586 199.638 62.478 228.42 62.478 228.42H87.588C87.588 228.42 86.832 178.524 85.752 169.344C84.672 160.164 77.544 104.814 77.544 104.814H55.782Z" fill="#455A64"/>
<path d="M86.454 224.046C82.566 223.992 83.646 223.938 79.758 223.884C77.814 223.884 65.232 223.776 63.45 224.046C63.396 224.046 63.396 224.1 63.45 224.1C65.232 224.37 77.868 224.262 79.758 224.262C83.7 224.208 82.566 224.208 86.454 224.1C86.508 224.1 86.508 224.1 86.508 224.046H86.454Z" fill="#263238"/>
<path d="M67.23 195.534L67.122 184.626C67.122 181.116 67.122 177.552 66.96 174.042C66.636 166.914 65.178 159.894 64.152 152.874C63.126 145.854 62.262 138.726 61.506 131.652C60.642 123.714 59.886 115.722 59.022 107.784C59.022 107.73 58.914 107.73 58.914 107.784C60.102 121.986 61.398 136.188 63.396 150.336C63.882 153.846 64.422 157.356 65.016 160.866C65.61 164.43 66.204 167.94 66.474 171.558C66.744 175.176 66.798 178.578 66.852 182.088C66.906 185.706 66.906 189.378 66.96 192.996C67.068 201.096 67.122 213.516 67.176 221.616C67.176 221.67 67.23 221.724 67.338 221.724C67.392 221.724 67.446 221.67 67.446 221.616C67.338 214.326 67.284 202.716 67.23 195.534Z" fill="#263238"/>
<path d="M50.436 104.814C50.436 104.814 61.074 165.024 61.938 169.614C62.154 170.64 62.262 176.364 62.37 183.654L74.358 104.76L50.436 104.814Z" fill="#263238"/>
<path d="M72.036 247.428C70.74 247.698 35.316 243.918 34.074 242.892C33.588 242.514 36.558 207.954 36.558 207.954L60.264 210.438L57.186 233.442C57.186 233.442 70.092 240.948 71.388 242.19C72.684 243.432 73.332 247.104 72.036 247.428Z" fill="#D3766A"/>
<path d="M62.316 236.358C62.208 236.304 62.208 236.304 62.208 236.25L62.316 236.358Z" fill="#FFC414"/>
<path d="M72.036 247.428C70.74 247.698 35.316 243.918 34.074 242.892C33.912 242.784 34.182 238.248 34.56 232.524C40.122 235.008 59.724 241.056 63.936 241.164C66.852 241.218 65.772 239.274 64.692 237.924C67.77 239.814 70.74 241.65 71.334 242.244C72.63 243.432 73.332 247.104 72.036 247.428Z" fill="#263238"/>
<path d="M58.86 229.77L33.75 228.69C33.75 228.69 40.608 173.61 40.716 170.262C40.878 165.24 43.308 144.45 45.36 127.656C45.36 127.656 41.526 118.53 48.708 104.814H77.544C77.544 104.814 75.6 117.882 72.306 126.198C70.092 126.954 67.932 127.98 65.88 129.168C65.88 129.168 63.018 166.644 62.91 171.342C62.694 180.522 58.86 229.77 58.86 229.77Z" fill="#455A64"/>
<path d="M58.158 225.18C54.27 224.91 55.35 224.964 51.462 224.748C49.518 224.64 36.936 223.992 35.154 224.208C35.1 224.208 35.1 224.262 35.154 224.262C36.936 224.64 49.518 225.072 51.462 225.126C55.35 225.234 54.27 225.18 58.158 225.234C58.212 225.234 58.212 225.234 58.158 225.18Z" fill="#263238"/>
<path d="M73.386 125.604C70.794 126.576 68.256 127.71 65.88 129.114C65.826 129.114 65.826 129.168 65.826 129.222C65.826 129.276 65.88 129.276 65.934 129.276C68.472 128.196 71.01 127.17 73.494 125.928C73.548 125.874 73.602 125.766 73.548 125.712C73.494 125.604 73.44 125.604 73.386 125.604Z" fill="#263238"/>
<path d="M74.196 108.27C74.196 108.162 74.034 108.162 74.034 108.27C74.034 111.294 73.872 113.886 73.602 116.694C73.494 117.99 72.414 125.172 70.2 124.686C69.822 124.578 69.606 124.2 69.552 123.66C69.552 122.904 69.66 122.148 69.876 121.446C70.146 119.934 70.308 118.422 70.47 116.91C70.74 114.102 70.686 111.24 70.362 108.378C70.362 108.324 70.308 108.324 70.254 108.324L70.2 108.378C70.254 112.32 70.038 116.262 69.498 120.15C69.228 122.04 68.256 124.848 70.254 125.118C72.198 125.388 73.548 120.69 73.764 119.394C74.358 115.722 74.52 111.996 74.196 108.27Z" fill="#263238"/>
<path d="M70.254 124.848C70.038 125.334 69.876 125.82 69.768 126.36C69.606 126.738 69.552 127.17 69.552 127.602C69.552 127.656 69.66 127.71 69.714 127.656C69.93 127.278 70.146 126.9 70.254 126.468C70.416 125.982 70.578 125.55 70.74 125.064C70.794 124.956 70.74 124.794 70.578 124.74C70.416 124.686 70.308 124.74 70.254 124.848Z" fill="#263238"/>
<path d="M38.394 220.752L39.852 206.388L41.364 192.024L44.496 163.242L47.736 134.514L48.168 130.95L48.384 129.168L48.438 128.736C48.438 128.574 48.384 128.466 48.384 128.358L48.168 127.494C47.844 126.306 47.682 125.118 47.574 123.93C47.466 122.742 47.466 121.5 47.52 120.312C47.682 117.882 48.114 115.506 48.762 113.184C49.464 110.862 50.274 108.594 51.3 106.38C50.328 108.594 49.518 110.862 48.924 113.184C48.276 115.506 47.898 117.882 47.79 120.312C47.736 121.5 47.736 122.688 47.844 123.876C47.952 125.064 48.168 126.252 48.492 127.386L48.762 128.25C48.816 128.412 48.816 128.574 48.87 128.736L48.816 129.222L48.654 131.058L48.276 134.676L45.144 163.458L41.85 192.186L40.122 206.55L38.394 220.752Z" fill="#263238"/>
<path d="M67.23 77.9762C70.686 82.5662 80.028 95.6882 86.778 95.2562C92.556 94.8782 104.112 90.4502 106.542 89.5322C108.432 88.8302 102.546 75.8162 99.846 76.7882C95.58 78.3002 91.206 81.8642 86.67 82.5122C84.834 82.7822 80.73 78.7862 70.416 74.4122C66.42 72.6842 64.8 74.7902 67.23 77.9762Z" fill="#D3766A"/>
<path d="M106.65 72.3603C108.864 71.9283 111.456 71.2803 113.778 71.7123C116.1 72.1443 117.612 75.5463 117.45 76.4643C117.288 77.3823 115.56 82.7823 113.184 82.4043C110.808 82.0263 112.914 77.9763 112.914 77.4903C112.914 77.0043 112.914 76.3563 112.428 76.3023C111.942 76.2483 103.626 78.7323 103.626 78.7323L106.65 72.3603Z" fill="#D3766A"/>
<path d="M106.758 72.684C106.866 72.684 113.616 71.172 115.992 71.604C118.368 72.036 119.826 75.438 119.664 76.356C119.502 77.274 117.774 82.674 115.398 82.296C113.022 81.918 115.128 77.868 115.128 77.382C115.128 76.896 115.128 76.248 114.642 76.194C114.156 76.14 105.84 78.678 105.84 78.678L106.758 72.684Z" fill="#D3766A"/>
<path d="M114.642 81.8641C114.48 81.3781 114.372 80.8921 114.48 80.4061C114.534 79.9201 114.642 79.3801 114.804 78.8941C115.02 78.5161 115.182 78.0841 115.29 77.6521C115.344 77.2201 115.29 76.7881 115.182 76.3561C115.074 75.9781 114.696 76.0321 114.372 76.1401C113.886 76.2481 113.454 76.3561 112.968 76.5181C112.482 76.6801 111.996 76.8421 111.51 77.0041C111.024 77.1661 110.484 77.3281 109.998 77.5441C109.944 77.5441 109.998 77.5981 109.998 77.5981C110.43 77.4901 110.862 77.3821 111.294 77.2741C111.78 77.1121 112.266 77.0041 112.752 76.8421C113.238 76.6801 113.67 76.5721 114.102 76.4641C114.318 76.3561 114.534 76.3561 114.75 76.3561C114.912 76.4101 114.966 76.8961 114.966 77.0041C115.02 77.4361 114.912 77.8681 114.696 78.2461C114.48 78.6241 114.372 79.0561 114.264 79.4881C114.156 79.9201 114.156 80.2981 114.156 80.7301C114.264 81.1081 114.372 81.4861 114.588 81.8101C114.588 81.9721 114.696 81.9181 114.642 81.8641Z" fill="#263238"/>
<path d="M98.334 77.7061C98.334 77.7061 105.786 72.7381 107.352 71.7661C110.484 69.8221 122.688 66.9061 124.308 67.0141C125.928 67.1221 125.982 70.4702 117.666 72.6842C113.292 73.8182 112.158 76.0861 112.05 77.4361C111.942 78.7861 112.806 81.3781 115.02 81.6481C117.234 81.9181 119.178 78.9482 121.23 78.8942C123.282 78.8402 121.392 82.3502 119.664 84.2402C117.828 86.0762 115.56 87.3722 113.022 87.9122C111.024 88.3442 104.706 89.9642 104.706 89.9642L98.334 77.7061Z" fill="#D3766A"/>
<path d="M117.936 80.5141C117.018 81.0541 115.938 81.7021 114.858 81.5941C113.778 81.4861 113.13 80.6221 112.752 79.5961C112.32 78.6241 112.266 77.4901 112.644 76.4641C113.022 75.5461 113.724 74.7901 114.534 74.2501C115.56 73.6021 116.64 73.0621 117.828 72.7381C117.882 72.7381 117.828 72.6301 117.774 72.6841C116.694 73.0081 113.346 73.7641 112.266 76.4641C111.888 77.4901 111.942 78.6241 112.374 79.6501C112.698 80.6221 113.292 81.5401 114.372 81.8101C115.668 82.1341 116.964 81.2161 117.99 80.6221C118.044 80.5141 117.99 80.5141 117.936 80.5141Z" fill="#263238"/>
<path d="M96.93 77.5444L102.384 92.8804C102.384 92.8804 90.072 96.7684 84.618 95.6884C79.164 94.6084 70.794 83.2144 67.122 78.3004C63.45 73.3864 66.798 72.1444 73.008 75.1684C79.218 78.1924 85.914 82.1344 86.454 82.1344C86.994 82.1344 96.93 77.5444 96.93 77.5444Z" fill="#FFC414"/>
<path d="M72.522 80.8922C72.522 81.1622 72.306 81.3781 72.09 81.3781C71.874 81.3781 71.604 81.1621 71.604 80.9461C71.604 80.6761 71.82 80.4601 72.036 80.4601C72.306 80.4061 72.522 80.6222 72.522 80.8922ZM79.434 80.4061C79.164 80.4061 78.948 80.6222 78.948 80.8922C78.948 81.1622 79.164 81.3781 79.434 81.3781C79.704 81.3781 79.92 81.1622 79.92 80.8922C79.866 80.6222 79.65 80.4061 79.434 80.4061ZM94.122 80.4061C93.852 80.4061 93.636 80.6222 93.636 80.8922C93.636 81.1622 93.852 81.3781 94.122 81.3781C94.392 81.3781 94.608 81.1622 94.608 80.8922C94.554 80.6222 94.338 80.4061 94.122 80.4061ZM68.364 74.9521C68.094 74.9521 67.878 75.1681 67.878 75.4381C67.878 75.7081 68.094 75.9242 68.364 75.9242C68.634 75.9242 68.85 75.7081 68.85 75.4381C68.85 75.1681 68.634 74.9521 68.364 74.9521ZM79.434 91.4222C79.164 91.4222 78.948 91.6382 78.948 91.9082C78.948 92.1782 79.164 92.3942 79.434 92.3942C79.704 92.3942 79.92 92.1782 79.92 91.9082C79.92 91.6382 79.65 91.4222 79.434 91.4222ZM86.778 91.4222C86.508 91.4222 86.292 91.6382 86.292 91.9082C86.292 92.1782 86.508 92.3942 86.778 92.3942C87.048 92.3942 87.264 92.1782 87.264 91.9082C87.21 91.5842 86.994 91.4222 86.778 91.4222ZM94.122 91.4222C93.852 91.4222 93.636 91.6382 93.636 91.9082C93.636 92.1782 93.852 92.3942 94.122 92.3942C94.392 92.3942 94.608 92.1782 94.608 91.9082C94.608 91.6382 94.338 91.4222 94.122 91.4222ZM101.466 91.4222C101.196 91.4222 100.98 91.6382 100.98 91.9082C100.98 92.1782 101.196 92.3942 101.466 92.3942C101.736 92.3942 101.952 92.1782 101.952 91.9082C101.898 91.5842 101.682 91.4222 101.466 91.4222ZM75.762 85.9681C75.492 85.9681 75.276 86.1842 75.276 86.4002C75.276 86.6162 75.492 86.8861 75.708 86.8861C75.978 86.8861 76.194 86.6702 76.194 86.4542C76.194 86.1842 75.978 85.9681 75.762 85.9681ZM83.106 85.9681C82.836 85.9681 82.62 86.1842 82.62 86.4542C82.62 86.7242 82.836 86.9402 83.106 86.9402C83.376 86.9402 83.592 86.7242 83.592 86.4542C83.592 86.1842 83.322 85.9681 83.106 85.9681ZM90.45 85.9681C90.18 85.9681 89.964 86.1842 89.964 86.4002C89.964 86.6162 90.18 86.8861 90.396 86.8861C90.666 86.8861 90.882 86.6702 90.882 86.4542C90.882 86.1842 90.666 85.9681 90.45 85.9681ZM97.794 85.9681C97.524 85.9681 97.308 86.1842 97.308 86.4542C97.308 86.7242 97.524 86.9402 97.794 86.9402C98.064 86.9402 98.28 86.7242 98.28 86.4542C98.28 86.1842 98.01 85.9681 97.794 85.9681Z" fill="white"/>
<path d="M94.23 79.2183C94.338 79.8663 94.5 80.4603 94.716 81.0543C94.878 81.6483 95.04 82.2963 95.256 82.8903C95.634 84.0783 96.012 85.2123 96.39 86.4003C97.146 88.7223 98.064 91.0443 99.036 93.3123C99.036 93.3123 99.09 93.3663 99.09 93.3123C99.09 93.2583 99.144 93.2583 99.09 93.2583C98.334 90.8823 97.47 88.5063 96.66 86.1843C96.282 85.0503 95.85 83.8623 95.472 82.6743C95.256 82.0803 95.04 81.5403 94.878 80.9463C94.716 80.3523 94.5 79.7583 94.284 79.2183C94.284 79.1643 94.23 79.2183 94.23 79.2183Z" fill="#263238"/>
<path opacity="0.1" d="M91.314 95.5261H91.206L90.72 95.5801L90.504 95.6341L89.964 95.6881L89.64 95.7421L89.1 95.7961H89.046L88.56 95.8501C88.236 95.8501 87.858 95.9041 87.534 95.9041H87.48C86.724 95.9581 85.968 95.9041 85.158 95.7961C84.996 95.7961 84.78 95.7421 84.618 95.6881C79.164 94.5541 70.794 83.1601 67.176 78.2461C66.852 77.7601 66.528 77.2741 66.204 76.7881C66.15 76.6801 66.096 76.5721 66.042 76.4641C65.934 76.3021 65.88 76.0861 65.826 75.8701C65.826 75.8161 65.772 75.7621 65.772 75.7081C65.772 75.6541 65.718 75.6001 65.718 75.5461C65.718 75.4921 65.718 75.4381 65.664 75.3841C65.664 75.3301 65.664 75.2761 65.664 75.2221C65.664 75.1681 65.664 75.1141 65.664 75.0601C65.61 74.5741 65.826 74.1421 66.204 73.8721L91.314 95.5261Z" fill="black"/>
<path d="M78.516 109.026L45.522 109.89C45.522 109.89 53.946 82.9444 60.75 75.6544C63.828 72.3604 66.852 72.8464 69.444 75.0064C70.092 75.5464 78.03 85.5904 78.678 89.1004C79.272 92.1784 76.734 95.6344 76.734 95.6344L78.516 109.026Z" fill="#FFC414"/>
<path d="M76.95 84.8343C76.464 84.1323 75.978 83.3763 75.492 82.7283C75.438 82.4583 75.33 82.2423 75.222 81.9723C75.06 81.5943 74.898 81.2703 74.682 80.9463C74.79 81.3243 74.898 81.7023 75.06 82.0263L75.168 82.2963C74.682 81.5943 74.142 80.9463 73.602 80.2983C74.574 81.8643 75.654 83.4303 76.68 84.9963C77.22 85.7523 77.652 86.5623 78.084 87.4263C78.192 87.6963 78.354 87.9663 78.408 88.2363C78.84 89.6943 78.786 91.2063 78.192 92.6104C77.976 93.3664 77.706 94.1224 77.328 94.8244C77.328 94.8244 77.328 94.8784 77.382 94.8784H77.436C77.814 94.1763 78.138 93.4204 78.462 92.6644C78.732 91.9084 78.894 91.1524 78.948 90.3424C79.11 88.0743 77.976 86.5623 76.95 84.8343Z" fill="#263238"/>
<path d="M57.834 80.8921C57.834 81.1621 57.618 81.3781 57.402 81.3781C57.294 81.3781 57.132 81.3241 57.078 81.2161C57.186 80.9461 57.348 80.7301 57.51 80.4601C57.672 80.4601 57.834 80.6221 57.834 80.8921ZM64.692 80.4061C64.422 80.4061 64.206 80.6221 64.206 80.8921C64.206 81.1621 64.422 81.3781 64.692 81.3781C64.962 81.3781 65.178 81.1621 65.178 80.8921C65.178 80.6221 64.962 80.4061 64.692 80.4061ZM72.036 80.4061C71.766 80.4061 71.55 80.6221 71.55 80.8921C71.55 81.1621 71.766 81.3781 72.036 81.3781C72.306 81.3781 72.522 81.1621 72.522 80.8921C72.522 80.6221 72.306 80.4061 72.036 80.4061ZM61.344 75.0601C61.182 75.2221 60.966 75.4381 60.804 75.6001L60.696 75.7081C60.804 75.8161 60.912 75.8701 61.02 75.8701C61.29 75.8701 61.506 75.6542 61.506 75.3842C61.506 75.2762 61.452 75.1141 61.344 75.0601ZM68.364 74.9521C68.094 74.9521 67.878 75.1681 67.878 75.4381C67.878 75.7081 68.094 75.9242 68.364 75.9242C68.634 75.9242 68.85 75.7081 68.85 75.4381C68.85 75.1681 68.634 74.9521 68.364 74.9521ZM57.348 91.3681C57.078 91.3681 56.862 91.5841 56.862 91.8541C56.862 92.1241 57.078 92.3401 57.348 92.3401C57.618 92.3401 57.834 92.1241 57.834 91.8541C57.78 91.5841 57.618 91.4221 57.348 91.3681ZM64.692 91.3681C64.422 91.3681 64.206 91.5841 64.206 91.8541C64.206 92.1241 64.422 92.3401 64.692 92.3401C64.962 92.3401 65.178 92.1241 65.178 91.8541C65.124 91.5841 64.962 91.4221 64.692 91.3681ZM72.036 91.3681C71.766 91.3681 71.55 91.5841 71.55 91.8541C71.55 92.1241 71.766 92.3401 72.036 92.3401C72.306 92.3401 72.522 92.1241 72.522 91.8541C72.468 91.5841 72.306 91.4221 72.036 91.3681ZM61.02 85.9681C60.75 85.9681 60.534 86.1841 60.534 86.4541C60.534 86.7241 60.75 86.9401 61.02 86.9401C61.29 86.9401 61.506 86.7241 61.506 86.4541C61.506 86.1841 61.29 85.9681 61.02 85.9681ZM68.364 85.9681C68.094 85.9681 67.878 86.1841 67.878 86.4541C67.878 86.7241 68.094 86.9401 68.364 86.9401C68.634 86.9401 68.85 86.7241 68.85 86.4541C68.85 86.1841 68.634 85.9681 68.364 85.9681ZM75.708 85.9681C75.438 85.9681 75.222 86.1841 75.222 86.4001C75.222 86.6161 75.438 86.8861 75.654 86.8861C75.924 86.8861 76.14 86.6701 76.14 86.4541C76.194 86.1841 75.978 85.9681 75.708 85.9681ZM50.004 102.384C49.734 102.384 49.518 102.6 49.518 102.87C49.518 103.14 49.734 103.356 50.004 103.356C50.274 103.356 50.49 103.14 50.49 102.87C50.49 102.6 50.274 102.384 50.004 102.384ZM57.348 102.384C57.078 102.384 56.862 102.6 56.862 102.87C56.862 103.14 57.078 103.356 57.348 103.356C57.618 103.356 57.834 103.14 57.834 102.87C57.834 102.6 57.618 102.384 57.348 102.384ZM64.692 102.384C64.422 102.384 64.206 102.6 64.206 102.87C64.206 103.14 64.422 103.356 64.692 103.356C64.962 103.356 65.178 103.14 65.178 102.87C65.178 102.6 64.962 102.384 64.692 102.384ZM72.036 102.384C71.766 102.384 71.55 102.6 71.55 102.87C71.55 103.14 71.766 103.356 72.036 103.356C72.306 103.356 72.522 103.14 72.522 102.87C72.522 102.6 72.306 102.384 72.036 102.384C72.036 102.384 72.09 102.384 72.036 102.384ZM53.676 96.9301C53.406 96.9301 53.19 97.1461 53.19 97.4161C53.19 97.6861 53.406 97.9021 53.676 97.9021C53.946 97.9021 54.162 97.6861 54.162 97.4161C54.162 97.1461 53.946 96.9301 53.676 96.9301ZM61.074 96.9301C60.804 96.9301 60.588 97.1461 60.588 97.4161C60.588 97.6861 60.804 97.9021 61.074 97.9021C61.344 97.9021 61.56 97.6861 61.56 97.4161C61.506 97.1461 61.29 96.9301 61.074 96.9301C61.02 96.9301 61.02 96.9301 61.074 96.9301ZM68.418 96.9301C68.148 96.9301 67.932 97.1461 67.932 97.4161C67.932 97.6861 68.148 97.9021 68.418 97.9021C68.688 97.9021 68.904 97.6861 68.904 97.4161C68.85 97.1461 68.634 96.9301 68.418 96.9301C68.364 96.9301 68.364 96.9301 68.418 96.9301ZM75.762 96.9301C75.492 96.9301 75.276 97.1461 75.276 97.4161C75.276 97.6861 75.492 97.9021 75.762 97.9021C76.032 97.9021 76.248 97.6861 76.248 97.4161C76.194 97.1461 75.978 96.9301 75.762 96.9301ZM46.332 107.946C46.278 107.946 46.17 107.946 46.116 108C46.062 108.216 45.954 108.432 45.9 108.594C45.954 108.756 46.116 108.864 46.332 108.864C46.602 108.864 46.818 108.648 46.818 108.378C46.818 108.108 46.602 107.946 46.332 107.946ZM53.676 107.946C53.406 107.946 53.19 108.162 53.19 108.432C53.19 108.702 53.406 108.918 53.676 108.918C53.946 108.918 54.162 108.702 54.162 108.432C54.162 108.162 53.946 107.946 53.676 107.946ZM61.02 107.946C60.75 107.946 60.534 108.162 60.534 108.432C60.534 108.702 60.75 108.918 61.02 108.918C61.29 108.918 61.506 108.702 61.506 108.432C61.506 108.162 61.29 107.946 61.02 107.946ZM68.364 107.946C68.094 107.946 67.878 108.162 67.878 108.432C67.878 108.702 68.094 108.918 68.364 108.918C68.634 108.918 68.85 108.702 68.85 108.432C68.85 108.162 68.634 107.946 68.364 107.946ZM75.708 107.946C75.438 107.946 75.222 108.162 75.222 108.378C75.222 108.594 75.438 108.864 75.654 108.864C75.924 108.864 76.14 108.648 76.14 108.432C76.194 108.162 75.978 107.946 75.708 107.946Z" fill="white"/>
<path d="M59.616 76.2484C46.44 85.8064 32.94 108.216 37.854 111.456C42.282 114.426 57.996 115.344 64.584 115.02C66.528 114.912 65.934 99.9544 63.882 100.062C61.398 100.17 54.594 99.9004 54.378 99.8464C53.838 99.7384 62.478 84.7264 65.394 78.8944C69.444 70.7404 64.53 72.6304 59.616 76.2484Z" fill="#D3766A"/>
<path d="M62.748 100.116C62.748 100.116 68.58 99.6299 72.414 99.4679C74.574 99.3599 78.246 99.5759 79.812 100.224C82.188 101.196 91.584 106.812 90.288 109.08C89.1 111.186 81.648 105.3 81.648 105.3C81.648 105.3 89.694 110.538 87.804 112.806C85.914 115.074 78.408 107.352 78.408 107.352C78.408 107.352 86.508 112.914 84.24 114.912C82.512 116.424 75.276 109.836 75.276 109.836C75.276 109.836 82.242 114.642 80.514 116.316C78.624 118.152 71.55 112.428 71.55 112.428C66.474 115.83 62.64 115.398 59.94 114.75C59.184 114.534 62.748 100.116 62.748 100.116Z" fill="#D3766A"/>
<path d="M78.948 103.356C79.92 103.95 80.892 104.49 81.81 105.192C82.728 105.894 83.592 106.542 84.456 107.298C85.59 108.27 86.616 109.35 87.48 110.538C85.752 108.54 82.566 106.11 81.648 105.462C80.73 104.814 79.866 104.058 78.948 103.356C78.948 103.302 78.894 103.356 78.948 103.356Z" fill="#263238"/>
<path d="M76.518 106.596C77.706 107.406 78.948 108.162 80.082 108.972C81.216 109.782 82.296 110.7 83.376 111.618C83.43 111.672 83.376 111.726 83.322 111.618C82.188 110.754 81.054 109.998 79.92 109.134C78.786 108.27 77.652 107.406 76.518 106.596C76.464 106.542 76.464 106.596 76.518 106.596Z" fill="#263238"/>
<path d="M73.926 108.972C75.816 110.16 77.544 111.51 79.11 113.022C79.164 113.076 79.11 113.13 79.002 113.022C77.328 111.672 75.978 110.538 73.926 108.972C73.872 108.972 73.818 109.026 73.926 108.972Z" fill="#263238"/>
<path d="M54.972 99.4142C54.324 98.6582 63.126 84.6182 66.042 78.0842C68.958 71.5502 65.718 71.2802 59.67 75.9242C53.19 80.8382 41.796 92.3402 37.26 105.462C35.856 109.566 34.452 112.428 44.226 114.048C49.896 115.02 55.674 115.614 61.452 115.722L62.154 99.9002C62.154 99.9002 55.134 99.6842 54.972 99.4142Z" fill="#FFC414"/>
<path d="M57.834 80.8921C57.834 81.1621 57.618 81.3781 57.402 81.3781C57.132 81.3781 56.916 81.1621 56.916 80.9461C56.916 80.6761 57.132 80.4601 57.348 80.4601C57.618 80.4061 57.834 80.6221 57.834 80.8921ZM64.692 80.4061C64.422 80.4061 64.206 80.6221 64.206 80.8381C64.206 81.0001 64.314 81.1621 64.422 81.2701C64.584 81.0001 64.692 80.7301 64.854 80.4601C64.854 80.4061 64.8 80.4061 64.692 80.4061ZM61.02 74.9521C60.75 74.9521 60.534 75.1681 60.534 75.4381C60.534 75.7081 60.75 75.9242 61.02 75.9242C61.29 75.9242 61.506 75.7081 61.506 75.4381C61.506 75.1681 61.29 74.9521 61.02 74.9521ZM50.004 91.4222C49.734 91.4222 49.518 91.6381 49.518 91.9081C49.518 92.1781 49.734 92.3942 50.004 92.3942C50.274 92.3942 50.49 92.1781 50.49 91.9081C50.49 91.5841 50.274 91.4222 50.004 91.4222ZM57.348 91.4222C57.078 91.4222 56.862 91.6381 56.862 91.9081C56.862 92.1781 57.078 92.3942 57.348 92.3942C57.618 92.3942 57.834 92.1781 57.834 91.9081C57.834 91.6381 57.618 91.4222 57.348 91.4222ZM53.676 85.9681C53.406 85.9681 53.19 86.1842 53.19 86.4542C53.19 86.7242 53.406 86.9401 53.676 86.9401C53.946 86.9401 54.162 86.7242 54.162 86.4542C54.162 86.1842 53.946 85.9681 53.676 85.9681ZM61.02 85.9681C60.75 85.9681 60.534 86.1842 60.534 86.4542C60.534 86.7242 60.75 86.9401 61.02 86.9401C61.29 86.9401 61.506 86.7242 61.506 86.4542C61.506 86.1842 61.29 85.9681 61.02 85.9681ZM42.66 102.384C42.39 102.384 42.174 102.6 42.174 102.87C42.174 103.14 42.39 103.356 42.66 103.356C42.93 103.356 43.146 103.14 43.146 102.87C43.146 102.6 42.93 102.384 42.66 102.384ZM50.004 102.384C49.734 102.384 49.518 102.6 49.518 102.87C49.518 103.14 49.734 103.356 50.004 103.356C50.274 103.356 50.49 103.14 50.49 102.87C50.49 102.6 50.274 102.384 50.004 102.384ZM57.348 102.384C57.078 102.384 56.862 102.6 56.862 102.87C56.862 103.14 57.078 103.356 57.348 103.356C57.618 103.356 57.834 103.14 57.834 102.87C57.834 102.6 57.618 102.384 57.348 102.384ZM46.332 96.9302C46.062 96.9302 45.846 97.1461 45.846 97.4161C45.846 97.6861 46.062 97.9022 46.332 97.9022C46.602 97.9022 46.818 97.6861 46.818 97.4161C46.818 97.1461 46.602 96.9302 46.332 96.9302ZM53.676 96.9302C53.406 96.9302 53.19 97.1461 53.19 97.4161C53.19 97.6861 53.406 97.9022 53.676 97.9022C53.946 97.9022 54.162 97.6861 54.162 97.4161C54.162 97.1461 53.946 96.9842 53.676 96.9302ZM42.66 113.4C42.498 113.4 42.336 113.508 42.228 113.67C42.498 113.724 42.822 113.778 43.092 113.832C43.146 113.616 42.93 113.4 42.66 113.4ZM50.004 113.4C49.734 113.4 49.518 113.616 49.518 113.886C49.518 114.156 49.734 114.372 50.004 114.372C50.274 114.372 50.49 114.156 50.49 113.886C50.49 113.616 50.274 113.4 50.004 113.4ZM57.348 113.4C57.078 113.4 56.862 113.616 56.862 113.886C56.862 114.156 57.078 114.372 57.348 114.372C57.618 114.372 57.834 114.156 57.834 113.886C57.834 113.616 57.618 113.4 57.348 113.4ZM38.988 107.946C38.718 107.946 38.502 108.162 38.502 108.432C38.502 108.702 38.718 108.918 38.988 108.918C39.258 108.918 39.474 108.702 39.474 108.432C39.474 108.162 39.258 107.946 38.988 107.946ZM46.332 107.946C46.062 107.946 45.846 108.162 45.846 108.432C45.846 108.702 46.062 108.918 46.332 108.918C46.602 108.918 46.818 108.702 46.818 108.432C46.818 108.162 46.602 107.946 46.332 107.946ZM53.676 107.946C53.406 107.946 53.19 108.162 53.19 108.432C53.19 108.702 53.406 108.918 53.676 108.918C53.946 108.918 54.162 108.702 54.162 108.432C54.162 108.162 53.946 107.946 53.676 107.946ZM61.02 107.946C60.75 107.946 60.534 108.162 60.534 108.432C60.534 108.702 60.75 108.918 61.02 108.918C61.29 108.918 61.506 108.702 61.506 108.432C61.506 108.162 61.29 107.946 61.02 107.946Z" fill="white"/>
<path d="M57.996 114.912C57.888 108.594 58.698 101.898 58.752 100.71C58.752 100.71 58.752 100.656 58.806 100.656C58.86 100.656 58.86 100.656 58.86 100.71C58.752 101.844 58.59 109.566 58.104 114.912C58.05 115.02 57.996 114.966 57.996 114.912Z" fill="#263238"/>
<path d="M47.304 99.2522C47.952 99.1982 48.6 99.1982 49.194 99.1982C49.788 99.1982 50.382 99.1982 50.976 99.1982H51.732H51.678L50.706 98.8742C50.382 98.7662 50.058 98.6042 49.734 98.5502C49.68 98.5502 49.68 98.4422 49.734 98.4422C50.058 98.5502 50.382 98.6042 50.706 98.7122L51.732 98.9822C52.056 99.0362 52.326 99.1442 52.65 99.2522C53.244 99.2522 53.784 99.2522 54.378 99.3062C54.81 98.2802 55.404 97.2542 55.944 96.2282C56.484 95.2022 57.078 94.1222 57.672 93.0962C58.266 92.0702 58.86 91.0442 59.454 90.0722C59.778 89.5862 61.506 86.5081 62.046 85.6981C62.1 85.6441 62.154 85.6982 62.1 85.7522C61.722 86.5622 59.94 89.7482 59.67 90.2882C59.454 90.6662 59.292 91.0442 59.076 91.4222L59.13 91.3682L59.994 90.6122C60.534 90.0722 61.128 89.5862 61.614 88.9922C61.668 88.9382 61.722 88.9921 61.668 89.0461C61.182 89.6401 60.696 90.2342 60.156 90.8282C59.886 91.0982 59.616 91.4222 59.346 91.6922C59.076 91.9622 58.806 92.2322 58.482 92.4482C58.32 92.7722 58.158 93.0422 57.996 93.3662C57.456 94.3922 56.916 95.4182 56.376 96.4442C55.89 97.4162 55.404 98.3882 54.864 99.3062C56.052 99.3602 57.186 99.4142 58.374 99.5222L60.156 99.6302C60.804 99.6842 61.452 99.7922 62.1 99.7922C62.154 99.7922 62.154 99.9002 62.1 99.9002C61.452 99.8462 60.804 99.9542 60.21 99.9542C59.616 99.9542 59.022 99.9542 58.428 99.9542C57.186 99.9542 55.89 99.9002 54.648 99.9002C53.406 99.9002 52.164 99.7922 50.922 99.6842L49.086 99.5222C48.492 99.5222 47.898 99.4682 47.304 99.3602C47.304 99.3062 47.304 99.3062 47.304 99.2522Z" fill="#263238"/>
<path d="M66.204 72.4141C63.45 72.7921 63.882 76.896 65.016 79.0561C66.15 81.2161 69.012 83.4841 69.66 83.3761C70.308 83.2681 70.956 79.4881 70.956 79.4881C70.956 79.4881 73.116 81.8101 73.656 81.5401C73.98 81.3781 73.224 78.4621 72.846 77.3281C72.468 76.1941 70.416 71.8201 66.204 72.4141Z" fill="white"/>
<path d="M65.178 75.0061C65.34 75.6001 68.148 79.3261 70.848 79.1101C71.712 79.0561 71.604 74.3041 71.604 74.3041L71.658 73.9801L72.684 69.0661L66.852 65.5021L65.988 65.0161C65.988 65.0161 65.826 66.3661 65.61 68.0941C65.61 68.2021 65.61 68.2561 65.556 68.3101C65.502 68.3641 65.502 68.4721 65.502 68.5801C65.448 68.8501 65.448 69.1201 65.394 69.3361C65.34 69.5521 65.34 69.7141 65.34 69.9301C65.34 70.1461 65.286 70.3621 65.286 70.5241C65.124 72.0361 65.07 73.4941 65.178 75.0061Z" fill="#D3766A"/>
<path d="M65.556 68.0941C66.582 70.8481 68.796 73.0081 71.604 73.9801L72.63 69.0661L66.798 65.5021L65.934 65.0161C65.988 65.0161 65.772 66.3661 65.556 68.0941Z" fill="#263238"/>
<path d="M79.866 61.1284C81.27 69.8224 76.194 71.6584 74.358 71.9284C72.684 72.1984 66.798 72.9004 64.53 64.4224C62.262 55.9444 65.826 52.5424 69.714 51.6784C73.602 50.8144 78.462 52.4344 79.866 61.1284Z" fill="#D3766A"/>
<path d="M78.354 59.8324C78.138 59.8324 77.976 59.8323 77.76 59.7783C77.544 59.7783 77.328 59.7244 77.166 59.6164C77.058 59.5084 77.058 59.3463 77.112 59.2384C77.274 59.0224 77.544 58.9144 77.868 58.9684C78.138 58.9684 78.408 59.0764 78.624 59.2924C78.732 59.4004 78.732 59.6163 78.624 59.7783C78.516 59.7783 78.462 59.8324 78.354 59.8324Z" fill="#263238"/>
<path d="M72.576 61.5063C72.792 61.4523 72.954 61.3983 73.17 61.2903C73.386 61.2363 73.548 61.1283 73.71 60.9663C73.764 60.8583 73.764 60.6963 73.656 60.5883C73.44 60.4263 73.116 60.3723 72.9 60.5343C72.63 60.5883 72.414 60.8043 72.252 61.0203C72.144 61.1823 72.198 61.3983 72.36 61.4523C72.414 61.5063 72.522 61.5063 72.576 61.5063Z" fill="#263238"/>
<path d="M74.088 62.5859L74.034 62.6399C74.142 63.2339 74.196 63.9359 73.656 64.2059V64.2599C74.304 64.0439 74.25 63.1259 74.088 62.5859Z" fill="#263238"/>
<path d="M73.44 62.046C72.468 62.154 72.684 64.044 73.602 63.99C74.52 63.936 74.25 61.992 73.44 62.046Z" fill="#263238"/>
<path d="M73.062 62.2081C72.9 62.3161 72.738 62.5321 72.576 62.5861C72.414 62.6401 72.144 62.4781 71.982 62.2621H71.928C71.982 62.6401 72.144 62.9641 72.576 63.0181C73.008 63.0721 73.17 62.6401 73.224 62.3161C73.224 62.2621 73.116 62.1541 73.062 62.2081Z" fill="#263238"/>
<path d="M77.382 62.0464C77.49 62.6944 77.652 63.3424 78.192 63.5044V63.5584C77.49 63.5584 77.328 62.6404 77.382 62.0464Z" fill="#263238"/>
<path d="M77.814 61.398C78.786 61.236 79.056 63.126 78.192 63.288C77.328 63.45 77.004 61.506 77.814 61.398Z" fill="#263238"/>
<path d="M78.246 61.4521C78.408 61.5061 78.57 61.6681 78.786 61.6681C79.002 61.6681 79.11 61.3981 79.218 61.1821H79.272C79.326 61.5601 79.272 61.9381 78.948 62.1001C78.624 62.2621 78.354 61.9381 78.192 61.5601C78.138 61.5061 78.192 61.3981 78.246 61.4521Z" fill="#263238"/>
<path d="M74.574 67.5001C74.736 67.6081 74.898 67.8241 75.114 67.8241C75.33 67.8241 75.546 67.7161 75.762 67.6081L74.574 67.5001ZM75.816 67.6621C75.654 67.9321 75.384 68.0401 75.06 68.0401C74.79 67.9861 74.574 67.7701 74.52 67.5001C74.52 67.5001 74.574 67.4461 74.574 67.5001L75.816 67.6621Z" fill="#263238"/>
<path d="M76.734 66.2042C76.572 66.5822 76.248 66.9062 75.924 67.1222C75.708 67.2302 75.492 67.2842 75.276 67.2842C74.79 67.2842 74.682 66.8522 74.682 66.4202C74.682 66.2042 74.736 65.9882 74.79 65.8262C75.384 66.1502 76.086 66.3122 76.734 66.2042Z" fill="#263238"/>
<path d="M75.924 67.1224C75.708 67.2304 75.492 67.2844 75.276 67.2844C74.79 67.2844 74.682 66.8524 74.682 66.4204C75.222 66.3664 75.762 66.6364 75.924 67.1224Z" fill="#FF9BBC"/>
<path d="M76.788 65.0164C76.788 65.0164 77.004 65.8804 77.112 66.3124C77.112 66.3664 77.004 66.3664 76.896 66.4204C76.194 66.6364 75.384 66.4744 74.844 65.9344C74.79 65.8804 74.844 65.8264 74.898 65.8804C75.492 66.1504 76.14 66.2584 76.788 66.1504C76.788 66.0424 76.302 64.6924 76.41 64.6384C76.734 64.6384 77.058 64.6384 77.382 64.7464C76.95 62.9104 76.194 61.1824 75.762 59.3464C75.762 59.2924 75.816 59.2384 75.87 59.2924C76.734 61.1284 77.382 63.0724 77.868 65.0164C77.868 65.2324 76.95 65.0704 76.788 65.0164Z" fill="#263238"/>
<path d="M74.034 53.1903C74.25 53.9463 74.196 54.7023 73.926 55.4583C73.008 57.4023 70.632 56.9163 69.876 57.6723C69.12 58.4283 69.39 59.8863 68.688 60.5883C67.77 61.5603 66.474 61.1823 66.312 61.8843C66.15 62.5863 65.718 64.6923 64.854 64.9623C63.99 65.2323 59.994 50.9763 71.226 51.4083C71.226 51.4083 72.792 50.7603 75.168 51.9483C77.814 53.2443 78.948 57.6183 78.948 57.6183C78.948 57.6183 78.894 57.5643 78.516 57.2403C77.976 56.7543 77.76 56.3223 77.382 55.9983C76.734 55.5123 76.41 55.6743 75.762 55.2423C75.06 54.6483 74.466 53.9463 74.034 53.1903Z" fill="#263238"/>
<path d="M73.872 52.542C74.034 53.082 74.142 53.676 74.196 54.27C74.25 54.864 74.196 55.404 73.98 55.944C73.71 56.43 73.224 56.754 72.684 56.97C72.144 57.186 71.55 57.24 71.01 57.456C70.74 57.564 70.47 57.78 70.254 58.05C70.092 58.32 69.984 58.59 69.93 58.914C69.876 59.454 69.66 59.994 69.336 60.48C68.958 60.912 68.418 61.128 67.824 61.128C67.23 61.128 66.636 60.966 66.096 61.236C66.69 61.02 67.23 61.236 67.824 61.29C68.418 61.344 69.066 61.128 69.498 60.642C69.876 60.156 70.146 59.616 70.2 59.022C70.254 58.752 70.362 58.482 70.524 58.266C70.686 58.05 70.902 57.888 71.172 57.78C71.712 57.564 72.306 57.51 72.846 57.294C73.116 57.186 73.386 57.024 73.656 56.862C73.926 56.7 74.142 56.43 74.25 56.16C74.466 55.62 74.52 54.972 74.412 54.378C74.25 53.676 74.088 53.136 73.872 52.542Z" fill="#263238"/>
<path d="M74.088 53.082C74.196 53.622 74.358 54.162 74.628 54.648C74.898 55.188 75.276 55.566 75.762 55.89C76.032 55.998 76.248 56.106 76.518 56.214C76.734 56.268 76.95 56.43 77.112 56.646C77.274 56.862 77.436 57.078 77.598 57.294C77.814 57.51 78.03 57.618 78.3 57.726C78.084 57.618 77.868 57.402 77.706 57.24C77.544 57.024 77.436 56.808 77.274 56.538C77.112 56.268 76.842 56.106 76.572 55.998C76.302 55.944 76.086 55.836 75.816 55.674C75.384 55.404 75.006 55.026 74.736 54.594C74.52 54.054 74.304 53.568 74.088 53.082Z" fill="#263238"/>
<path d="M64.962 67.608C65.124 67.662 65.232 67.6621 65.394 67.6621C65.556 67.6621 65.664 67.6621 65.826 67.6621C65.988 67.6081 66.15 67.5541 66.312 67.4461C66.42 67.3921 66.528 67.2841 66.636 67.1761C66.744 67.0141 66.852 66.8521 66.96 66.6361L66.312 64.314C66.312 64.314 64.206 61.722 63.018 62.478C61.83 63.234 63.504 67.176 64.962 67.608Z" fill="#D3766A"/>
<path d="M63.504 63.666C64.53 63.99 65.178 64.908 65.61 65.88C65.34 65.502 64.854 65.394 64.476 65.664C64.422 65.664 64.422 65.718 64.368 65.772C64.314 65.772 64.368 65.826 64.422 65.826C64.8 65.664 65.178 65.772 65.448 66.042C65.664 66.258 65.826 66.528 65.988 66.798C66.042 66.906 66.204 66.798 66.15 66.744C66.042 65.448 64.908 63.666 63.504 63.666Z" fill="#263238"/>
<path d="M65.07 67.2302C65.124 67.4462 65.34 67.5542 65.556 67.5002C65.772 67.4462 65.88 67.2302 65.826 67.0142C65.772 66.7982 65.556 66.6902 65.34 66.7442C65.124 66.7982 65.016 67.0142 65.07 67.2302Z" fill="white"/>
<path d="M64.206 66.6902C64.26 66.8522 64.422 66.9062 64.584 66.9062C64.746 66.8522 64.8 66.6362 64.692 66.5282C64.638 66.4202 64.53 66.3662 64.422 66.3662C64.26 66.4202 64.152 66.5282 64.206 66.6902Z" fill="white"/>
</svg>
