<svg width="270" height="270" viewBox="0 0 270 270" fill="none" xmlns="http://www.w3.org/2000/svg">
<path d="M30.5802 69.374L120.56 69.374V65.4266L30.5802 65.4266V69.374Z" fill="#EBEBEB"/>
<path d="M115.511 69.3794H111.564V82.4312H115.511V69.3794Z" fill="#EBEBEB"/>
<path d="M115.511 69.3794H111.564V73.4132H115.511V69.3794Z" fill="#DBDBDB"/>
<path d="M39.5658 69.3794H35.6184V82.4312H39.5658V69.3794Z" fill="#EBEBEB"/>
<path d="M39.5658 69.3794H35.6184V73.4132H39.5658V69.3794Z" fill="#DBDBDB"/>
<path d="M103.761 65.432V40.2842H97.4268V65.432H103.761Z" fill="#C7C7C7"/>
<path d="M103.761 41.7043V38.9395H97.4268V41.7043H103.761Z" fill="#DBDBDB"/>
<path d="M103.761 46.2677V45.2417H97.4268V46.2677H103.761Z" fill="#DBDBDB"/>
<path d="M103.761 62.1325V59.3677H96.6384V62.1325H103.761Z" fill="#DBDBDB"/>
<path d="M97.4268 65.4319V36.0938H92.9988V65.4319H97.4268Z" fill="#DBDBDB"/>
<path d="M96.5628 50.1341V38.8535H93.906V50.1341H96.5628Z" fill="#EBEBEB"/>
<path d="M64.6295 65.4418L85.4938 44.8164L82.3809 41.6674L61.5165 62.2928L64.6295 65.4418Z" fill="#C7C7C7"/>
<path d="M68.8901 59.9627L76.9125 52.0322L75.0447 50.1428L67.0223 58.0733L68.8901 59.9627Z" fill="#DBDBDB"/>
<path d="M93.0042 65.4323V43.1519H85.4874V65.4323H93.0042Z" fill="#A6A6A6"/>
<path d="M93.0042 63.0775V60.9985H85.4874V63.0775H93.0042Z" fill="#C7C7C7"/>
<path d="M93.0042 59.6322V58.8276H85.4874V59.6322H93.0042Z" fill="#C7C7C7"/>
<path d="M108.956 65.4373V44.4961H103.766V65.4373H108.956Z" fill="#A6A6A6"/>
<path d="M108.956 63.2126V61.2632H103.766V63.2126H108.956Z" fill="#C7C7C7"/>
<path d="M108.956 50.7604V48.811H103.766V50.7604H108.956Z" fill="#C7C7C7"/>
<path d="M108.95 52.8551V52.0991H103.761V52.8551H108.95Z" fill="#C7C7C7"/>
<path d="M48.7728 38.6045C53.2008 42.9245 53.946 49.6529 53.0118 55.5281C53.0118 55.6577 52.7796 55.6253 52.7796 55.4957C52.7796 54.1619 52.8228 52.8335 52.8174 51.5159C52.8174 51.4511 52.7742 51.3971 52.7472 51.3377C51.554 50.5515 50.5669 49.4904 49.869 48.2435C49.1292 46.7909 48.8376 45.1493 48.276 43.6265C48.222 43.4807 48.3786 43.5239 48.4758 43.5995C51.1758 45.5867 52.029 47.7251 52.7958 50.5817C52.7781 49.0871 52.6208 47.5974 52.326 46.1321C51.8117 43.3701 50.5405 40.8052 48.654 38.7233C48.6439 38.7068 48.6396 38.6873 48.6419 38.668C48.6442 38.6488 48.6529 38.6308 48.6666 38.6171C48.6803 38.6034 48.6982 38.5947 48.7175 38.5924C48.7368 38.5901 48.7562 38.5944 48.7728 38.6045Z" fill="#A6A6A6"/>
<path d="M47.9412 39.1127C47.1744 39.1127 46.6992 40.3547 46.1052 40.7326C46.0427 40.7834 45.9702 40.8204 45.8924 40.8412C45.8146 40.862 45.7333 40.8662 45.6538 40.8535C45.5743 40.8407 45.4984 40.8114 45.431 40.7673C45.3636 40.7232 45.3063 40.6654 45.2628 40.5976C44.6742 39.7769 45.4842 38.7671 46.2402 38.2001C45.7395 38.4807 45.2111 38.7087 44.6634 38.8805C44.5886 38.9068 44.5089 38.9163 44.43 38.9083C44.3511 38.9004 44.2749 38.8751 44.2069 38.8344C44.1389 38.7937 44.0806 38.7385 44.0363 38.6727C43.992 38.6069 43.9628 38.5322 43.9506 38.4539C43.6914 37.3361 45.0954 36.8339 46.062 36.8339C45.5922 36.5099 44.253 35.6297 44.982 35.2139C45.711 34.7981 47.277 36.0401 47.7846 36.4559C48.5406 37.0661 49.437 37.9841 49.4748 38.9399C49.5018 40.0307 48.5244 39.3449 47.9412 39.1127Z" fill="#DBDBDB"/>
<path d="M48.1572 39.3012C47.1852 38.853 45.3114 39.4956 45.1548 39.123C44.8308 38.3724 46.3266 37.8594 47.1366 37.7568C46.3914 37.557 44.9766 37.2168 45.009 36.5202C45.063 35.6454 47.196 36.396 48.276 37.2222C49.6314 38.2644 49.626 39.2742 49.3992 39.474C49.0914 39.7494 48.3192 39.3714 48.1572 39.3012Z" fill="#EBEBEB"/>
<path d="M58.86 38.1783C54.27 42.3417 53.271 49.0161 54 54.9183C54 55.0533 54.2268 55.0263 54.2322 54.9183C54.2808 53.5845 54.2916 52.2561 54.3456 50.9385L54.4212 50.7603C55.6435 50.0241 56.6699 49.0033 57.4128 47.7849C58.212 46.3593 58.563 44.7285 59.184 43.2327C59.2434 43.0869 59.0868 43.1247 58.9842 43.1949C56.214 45.0795 55.2744 47.1855 54.3942 50.0097C54.4678 48.5171 54.6812 47.0346 55.0314 45.5818C55.6531 42.8383 57.0254 40.3218 58.995 38.3133C59.0129 38.2954 59.023 38.2712 59.023 38.2458C59.023 38.2205 59.0129 38.1963 58.995 38.1783C58.9771 38.1604 58.9528 38.1504 58.9275 38.1504C58.9022 38.1504 58.8779 38.1604 58.86 38.1783Z" fill="#A6A6A6"/>
<path d="M59.67 38.7126C60.4314 38.7666 60.8634 40.0032 61.4412 40.3812C61.5017 40.4345 61.5728 40.4743 61.6498 40.4982C61.7268 40.5221 61.808 40.5294 61.8881 40.5197C61.9681 40.51 62.0452 40.4835 62.1143 40.442C62.1834 40.4004 62.2429 40.3448 62.289 40.2786C62.91 39.4794 62.1378 38.4372 61.4034 37.8432C61.8918 38.158 62.4111 38.4222 62.9532 38.6316C63.027 38.6608 63.1063 38.6734 63.1856 38.6685C63.2648 38.6636 63.342 38.6412 63.4116 38.6031C63.4812 38.5649 63.5415 38.5119 63.5883 38.4477C63.6351 38.3836 63.6671 38.3099 63.6822 38.232C63.9792 37.1196 62.6022 36.5688 61.6356 36.5094C62.1108 36.2016 63.4824 35.37 62.7912 34.8894C62.1 34.4088 60.48 35.64 59.94 36.045C59.1624 36.6282 58.2336 37.5084 58.1634 38.4588C58.077 39.5712 59.076 38.9232 59.67 38.7126Z" fill="#DBDBDB"/>
<path d="M59.4432 38.8802C60.4368 38.4752 62.2782 39.1826 62.451 38.8208C62.802 38.0864 61.3278 37.514 60.5286 37.3844C61.2792 37.2116 62.6886 36.9416 62.6886 36.2234C62.6886 35.3486 60.5286 36.0182 59.4 36.8066C58.0068 37.7948 57.9744 38.7992 58.1904 39.0098C58.4928 39.3068 59.2812 38.9612 59.4432 38.8802Z" fill="#EBEBEB"/>
<path d="M54.162 49.1782C53.8546 51.4054 53.378 53.6059 52.7364 55.7608C52.7278 55.803 52.7028 55.8401 52.6668 55.8639C52.6309 55.8877 52.5869 55.8962 52.5447 55.8877C52.5024 55.8791 52.4653 55.854 52.4415 55.8181C52.4177 55.7821 52.4092 55.7382 52.4178 55.696C52.7202 53.6656 53.271 51.673 53.568 49.648C53.8997 47.5939 54.0191 45.5111 53.9244 43.4326C53.73 40.0144 52.8012 36.3748 50.571 33.7126C50.5224 33.6478 50.625 33.556 50.6736 33.6154C55.1448 38.8264 54.4536 45.2146 54.4536 45.787C55.0854 43.627 55.7388 41.1592 58.131 38.9614C58.2336 38.8642 58.3146 38.9128 58.2984 39.0748C57.8718 43.0708 56.7594 45.1606 54.4374 47.299C54.3456 47.92 54.2646 48.5518 54.162 49.1782Z" fill="#A6A6A6"/>
<path d="M50.5278 34.3011C49.7232 33.9447 48.6162 34.9653 47.8278 35.0355C47.7392 35.0568 47.6473 35.0594 47.5576 35.0433C47.468 35.0272 47.3827 34.9926 47.3071 34.9419C47.2315 34.8912 47.1673 34.8253 47.1184 34.7485C47.0695 34.6716 47.0371 34.5855 47.0232 34.4955C46.8234 33.3507 48.1734 32.7027 49.2426 32.4975C48.5676 32.4543 47.9034 32.6379 47.2392 32.4597C47.1477 32.4491 47.0596 32.4187 46.981 32.3708C46.9024 32.3228 46.8351 32.2584 46.7837 32.1819C46.7324 32.1054 46.6983 32.0187 46.6837 31.9278C46.6691 31.8369 46.6744 31.7438 46.6992 31.6551C46.9962 30.3645 48.7026 30.5751 49.7178 31.0125C49.3938 30.4725 48.4488 28.8525 49.4046 28.7607C50.3604 28.6689 51.3702 30.7695 51.6888 31.4607C52.164 32.4759 52.6392 33.8745 52.191 34.8843C51.6888 36.0399 51.0192 34.8357 50.5278 34.3011Z" fill="#DBDBDB"/>
<path d="M50.6628 34.6032C49.8744 33.6582 47.6118 33.3774 47.6334 32.913C47.6766 31.9734 49.4856 32.1894 50.3766 32.4918C49.707 31.9086 48.3894 30.8718 48.7944 30.1374C49.2912 29.2572 51.1218 31.1094 51.8292 32.5134C52.7148 34.2792 52.1964 35.316 51.8616 35.4132C51.4026 35.5428 50.7924 34.7652 50.6628 34.6032Z" fill="#EBEBEB"/>
<path d="M57.105 50.377L59.076 65.4322H47.0826C47.331 64.0984 49.5612 50.3608 49.5612 50.3608L57.105 50.377Z" fill="#DBDBDB"/>
<path d="M200.129 54.2324C200.456 52.8472 201.051 51.5393 201.879 50.3822C202.667 49.3022 203.938 48.5174 205.691 48.0278C206.231 47.8658 206.863 47.693 207.625 47.4878C208.408 47.2974 209.174 47.0408 209.914 46.721C210.667 46.3995 211.363 45.9562 211.972 45.4088C212.589 44.8515 213.021 44.1183 213.208 43.3082C213.369 42.7255 213.39 42.1128 213.268 41.5208C213.154 40.9888 212.934 40.4854 212.62 40.0412C212.295 39.5931 211.884 39.2148 211.41 38.9288C210.926 38.6288 210.397 38.4065 209.844 38.27C209.209 38.1068 208.547 38.0755 207.9 38.1782C207.311 38.2657 206.737 38.4328 206.194 38.675C205.664 38.9125 205.163 39.2116 204.703 39.566C204.279 39.8881 203.873 40.2343 203.488 40.6028L200.194 36.8228C200.808 35.9943 201.556 35.275 202.408 34.6952C203.238 34.1315 204.148 33.6964 205.108 33.4046C206.086 33.1121 207.101 32.9576 208.121 32.9456C209.176 32.9305 210.227 33.0558 211.248 33.3182C212.411 33.6118 213.526 34.072 214.558 34.6844C215.59 35.2924 216.489 36.1002 217.204 37.0604C217.941 38.0631 218.45 39.2151 218.695 40.4354C218.969 41.8701 218.906 43.3491 218.511 44.7554C218.306 45.6352 217.971 46.4796 217.517 47.261C217.115 47.9339 216.608 48.5389 216.016 49.0538C215.43 49.557 214.782 49.9834 214.088 50.3228C213.336 50.6855 212.558 50.9941 211.761 51.2462C211.054 51.4622 210.357 51.6566 209.66 51.8402C208.989 52.0136 208.334 52.2486 207.706 52.5422C207.104 52.8149 206.556 53.1914 206.086 53.6546C205.602 54.1637 205.266 54.7946 205.114 55.4798L200.129 54.2324ZM197.532 64.9406L199.125 58.6118L204.217 59.8916L202.624 66.2204L197.532 64.9406Z" fill="#EBEBEB"/>
<path d="M39.4632 171.602C39.695 172.625 39.7243 173.683 39.5496 174.717C39.2918 175.818 38.6765 176.801 37.8 177.515C37.4976 177.79 37.125 178.114 36.6822 178.481C36.2238 178.859 35.7992 179.277 35.4132 179.729C35.0153 180.184 34.6959 180.702 34.4682 181.262C34.2397 181.831 34.1907 182.457 34.3278 183.055C34.4119 183.494 34.5967 183.909 34.8678 184.265C35.1157 184.58 35.4241 184.842 35.775 185.037C36.1357 185.226 36.5303 185.341 36.936 185.377C37.3544 185.421 37.7771 185.399 38.1888 185.312C38.6578 185.221 39.1039 185.038 39.501 184.772C39.8642 184.525 40.1913 184.229 40.473 183.892C40.7473 183.56 40.9829 183.198 41.175 182.812C41.3544 182.462 41.5113 182.102 41.6448 181.732L45.0468 183.158C44.9049 183.906 44.6384 184.625 44.2584 185.285C43.889 185.93 43.4228 186.515 42.876 187.019C42.3232 187.532 41.6994 187.963 41.0238 188.298C40.3296 188.647 39.5924 188.903 38.8314 189.06C37.9657 189.242 37.0781 189.299 36.1962 189.227C35.3163 189.157 34.459 188.913 33.6744 188.509C32.8604 188.08 32.1492 187.479 31.59 186.749C30.9472 185.886 30.5129 184.886 30.321 183.827C30.171 183.178 30.12 182.51 30.1698 181.845C30.2178 181.269 30.3582 180.703 30.5856 180.171C30.8088 179.647 31.1012 179.155 31.455 178.708C31.8343 178.221 32.2495 177.762 32.697 177.336C33.0966 176.969 33.4962 176.613 33.9012 176.256C34.2927 175.929 34.6541 175.568 34.9812 175.176C35.2728 174.799 35.4958 174.373 35.64 173.918C35.7976 173.423 35.8163 172.895 35.694 172.39L39.4632 171.602ZM37.7244 163.658L38.7126 168.372L34.9326 169.166L33.9444 164.457L37.7244 163.658Z" fill="#EBEBEB"/>
<path d="M209.52 123.417C210.156 124.251 210.623 125.201 210.897 126.214C211.114 127.326 210.957 128.479 210.449 129.492C210.292 129.87 210.087 130.318 209.839 130.837C209.576 131.371 209.363 131.927 209.201 132.5C209.029 133.079 208.954 133.683 208.98 134.287C209.011 134.9 209.226 135.489 209.596 135.977C209.854 136.342 210.194 136.639 210.589 136.847C210.947 137.032 211.338 137.142 211.739 137.171C212.146 137.197 212.554 137.14 212.938 137.003C213.334 136.866 213.708 136.669 214.045 136.42C214.435 136.144 214.764 135.791 215.012 135.383C215.248 135.008 215.43 134.601 215.552 134.174C215.661 133.759 215.724 133.333 215.741 132.905C215.763 132.515 215.763 132.123 215.741 131.733L219.424 131.614C219.609 132.351 219.668 133.115 219.596 133.871C219.526 134.614 219.344 135.343 219.056 136.031C218.764 136.727 218.375 137.378 217.901 137.965C217.416 138.576 216.853 139.12 216.227 139.585C215.514 140.111 214.728 140.531 213.894 140.832C213.065 141.133 212.184 141.267 211.302 141.226C210.385 141.174 209.49 140.926 208.678 140.497C207.734 139.977 206.923 139.248 206.307 138.364C205.901 137.836 205.577 137.25 205.346 136.625C205.149 136.081 205.041 135.509 205.027 134.93C205.011 134.359 205.071 133.789 205.205 133.234C205.352 132.635 205.542 132.046 205.772 131.474C205.983 130.972 206.194 130.48 206.42 130C206.646 129.537 206.827 129.054 206.96 128.558C207.082 128.091 207.123 127.607 207.079 127.127C207.015 126.612 206.812 126.125 206.491 125.717L209.52 123.417ZM204.66 116.937L207.517 120.809L204.401 123.109L201.544 119.237L204.66 116.937Z" fill="#EBEBEB"/>
<path d="M227.254 113.675C227.235 112.521 227.444 111.374 227.869 110.3C228.397 109.173 229.286 108.255 230.396 107.692C230.78 107.46 231.255 107.201 231.817 106.904C232.386 106.6 232.928 106.248 233.437 105.851C233.969 105.453 234.429 104.967 234.797 104.414C235.167 103.851 235.355 103.188 235.337 102.514C235.347 102.048 235.252 101.586 235.059 101.162C234.867 100.738 234.582 100.362 234.225 100.062C233.883 99.7744 233.486 99.5595 233.059 99.4303C232.618 99.2911 232.159 99.2201 231.698 99.2197C231.173 99.2135 230.652 99.3108 230.164 99.5059C229.718 99.6928 229.299 99.9379 228.917 100.235C228.546 100.528 228.211 100.863 227.918 101.234C227.648 101.57 227.4 101.921 227.173 102.287L223.835 99.9865C224.156 99.2139 224.603 98.5002 225.158 97.8751C225.704 97.268 226.338 96.7457 227.038 96.3253C227.751 95.9003 228.519 95.5768 229.322 95.3641C230.147 95.1469 230.996 95.038 231.849 95.0401C232.824 95.0404 233.793 95.1822 234.727 95.4613C235.658 95.735 236.525 96.1922 237.276 96.8059C238.052 97.4494 238.68 98.2524 239.117 99.1603C239.628 100.234 239.885 101.411 239.868 102.6C239.878 103.33 239.782 104.058 239.582 104.76C239.396 105.368 239.117 105.944 238.756 106.466C238.397 106.979 237.972 107.442 237.492 107.843C236.97 108.279 236.418 108.676 235.84 109.031C235.332 109.339 234.819 109.636 234.306 109.917C233.812 110.187 233.344 110.502 232.907 110.857C232.496 111.189 232.147 111.591 231.876 112.045C231.595 112.537 231.455 113.098 231.471 113.665L227.254 113.675ZM227.329 122.607V117.315H231.584V122.607H227.329Z" fill="#EBEBEB"/>
<path d="M94.1328 144.353C93.8761 143.227 93.8431 142.062 94.0356 140.924C94.3186 139.712 94.9992 138.631 95.9688 137.851C96.2982 137.543 96.7032 137.192 97.1946 136.771C97.6946 136.352 98.1604 135.893 98.5878 135.4C99.021 134.896 99.3694 134.325 99.6192 133.709C99.8702 133.083 99.923 132.395 99.7704 131.738C99.6785 131.255 99.4751 130.8 99.1764 130.41C98.8993 130.075 98.5577 129.8 98.172 129.6C97.7772 129.389 97.3436 129.26 96.8976 129.222C96.4392 129.179 95.977 129.205 95.526 129.298C95.0109 129.401 94.5211 129.605 94.0842 129.897C93.6823 130.171 93.3191 130.498 93.0042 130.869C92.7048 131.233 92.4475 131.63 92.2374 132.052C92.033 132.436 91.8527 132.833 91.6974 133.24L88.02 131.663C88.1738 130.841 88.464 130.051 88.8786 129.325C89.2838 128.615 89.7956 127.972 90.396 127.418C91.002 126.852 91.6857 126.376 92.4264 126.004C93.1904 125.622 93.9996 125.339 94.8348 125.161C95.7877 124.962 96.7642 124.9 97.7346 124.978C98.7007 125.053 99.6422 125.319 100.505 125.761C101.4 126.228 102.181 126.886 102.794 127.688C103.919 129.257 104.475 131.161 104.371 133.088C104.317 133.72 104.164 134.34 103.918 134.924C103.673 135.504 103.354 136.048 102.967 136.544C102.546 137.077 102.09 137.58 101.601 138.051C101.164 138.456 100.726 138.85 100.283 139.228C99.856 139.596 99.462 140 99.1062 140.438C98.7748 140.85 98.5155 141.316 98.3394 141.815C98.1709 142.36 98.1523 142.94 98.2854 143.494L94.1328 144.353ZM96.0606 153.074L94.9806 147.901L99.144 147.015L100.224 152.194L96.0606 153.074Z" fill="#EBEBEB"/>
<path d="M223.987 186.241L231.201 186.09L234.754 186.03C235.937 186.003 237.109 186.03 238.286 185.998L238.048 186.241L238.016 180.198L238.286 180.468L231.12 180.436C228.739 180.436 226.357 180.371 223.97 180.344L224.122 180.198C224.122 181.186 224.073 182.18 224.046 183.19L223.987 186.241ZM223.987 186.241L223.911 183.249C223.911 182.245 223.852 181.224 223.841 180.198V180.052H223.987C226.373 180.025 228.755 179.966 231.136 179.961L238.286 179.928H238.556V180.198V186.241V186.484H238.313C237.109 186.484 235.899 186.484 234.7 186.451L231.104 186.392L223.987 186.241Z" fill="#EBEBEB"/>
<path d="M231.962 193.86L239.177 193.709L242.73 193.649C243.913 193.622 245.084 193.649 246.262 193.617L246.024 193.86L245.997 187.817L246.262 188.087L239.112 188.055C236.731 188.055 234.349 187.99 231.962 187.963L232.114 187.817C232.114 188.806 232.065 189.799 232.043 190.809L231.962 193.86ZM231.962 193.86L231.887 190.868C231.887 189.864 231.827 188.843 231.817 187.817V187.672H231.962C234.349 187.645 236.731 187.585 239.112 187.58L246.262 187.547H246.537V187.817L246.505 193.86V194.103H246.24C245.036 194.103 243.832 194.103 242.627 194.071L239.031 194.011L231.962 193.86Z" fill="#EBEBEB"/>
<path d="M216 193.86L223.214 193.709L226.768 193.649C227.945 193.622 229.122 193.649 230.299 193.617L230.062 193.86L230.04 187.817L230.31 188.087L223.16 188.055C220.779 188.055 218.392 187.99 216.011 187.963L216.157 187.817C216.157 188.806 216.113 189.799 216.086 190.809L216 193.86ZM216 193.86L215.924 190.868C215.897 189.864 215.865 188.843 215.854 187.817V187.672H216C218.381 187.645 220.768 187.585 223.15 187.58L230.299 187.547H230.569V187.817L230.58 193.86V194.103H230.342C229.138 194.103 227.929 194.103 226.73 194.071L223.133 194.011L216 193.86Z" fill="#EBEBEB"/>
<path d="M31.7142 193.86L38.9232 193.709L42.4764 193.649C43.659 193.622 44.8362 193.649 46.0134 193.617L45.7704 193.86L45.7434 187.817L46.0134 188.087L38.88 188.055C36.4932 188.055 34.1118 187.99 31.7304 187.963L31.8762 187.817C31.8762 188.806 31.8276 189.799 31.806 190.809L31.7142 193.86ZM31.7142 193.86L31.6332 190.868C31.6332 189.864 31.5738 188.843 31.563 187.817V187.672H31.7142C34.0956 187.645 36.477 187.585 38.8638 187.58L46.0134 187.547H46.2834V187.817L46.251 193.86V194.103H46.0134C44.8092 194.103 43.5996 194.103 42.3954 194.071L38.799 194.011L31.7142 193.86Z" fill="#EBEBEB"/>
<path d="M31.7142 25.796L38.9232 25.6448L42.4764 25.58C43.659 25.58 44.8362 25.58 46.0134 25.58L45.7704 25.823L45.7434 19.7804L46.0134 20.045L38.88 19.9802C36.4932 19.9802 34.1118 19.9208 31.7304 19.8938L31.8762 19.748C31.8762 20.7362 31.8276 21.7298 31.806 22.7342L31.7142 25.796ZM31.7142 25.796L31.6332 22.8044C31.6332 21.7946 31.5738 20.774 31.563 19.7534V19.6076H31.7142C34.0956 19.6076 36.477 19.5212 38.8638 19.5212L46.0134 19.4888H46.2834V19.7642L46.251 25.8068V26.0444H46.0134C44.8092 26.0444 43.5996 26.0444 42.3954 26.0174L38.799 25.9202L31.7142 25.796Z" fill="#EBEBEB"/>
<path d="M23.76 33.4156L30.969 33.2644L34.5222 33.1996C35.7048 33.1996 36.8766 33.1996 38.0592 33.1996L37.8162 33.4426V27.4L38.0862 27.6646L30.888 27.6052C28.5012 27.6052 26.1198 27.5404 23.76 27.5404L23.9058 27.3946C23.9058 28.3828 23.8572 29.3764 23.8356 30.3808L23.76 33.4156ZM23.76 33.4156L23.679 30.424C23.679 29.4142 23.6196 28.3936 23.6088 27.373V27.2272H23.76C26.1414 27.2272 28.5228 27.1408 30.9096 27.1408L38.0592 27.1084H38.3292V27.3838L38.2968 33.4264V33.664H38.0592C36.8496 33.664 35.6454 33.664 34.4412 33.664L30.8448 33.5992L23.76 33.4156Z" fill="#EBEBEB"/>
<path d="M231.962 25.8014L239.177 25.6502L242.73 25.5908C243.913 25.5908 245.084 25.5908 246.262 25.5584L246.024 25.8014L245.997 19.7588L246.262 20.0288L239.112 19.9802C236.731 19.9802 234.349 19.9208 231.962 19.8938L232.114 19.748C232.114 20.7362 232.065 21.7298 232.043 22.7342L231.962 25.8014ZM231.962 25.8014L231.887 22.8098C231.887 21.8 231.827 20.7848 231.817 19.7588V19.613H231.962C234.349 19.586 236.731 19.532 239.112 19.5266L246.24 19.4888H246.515V19.7588L246.488 25.8014V26.0444H246.24C245.036 26.0444 243.832 26.0444 242.627 26.0444L239.031 25.985L231.962 25.8014Z" fill="#EBEBEB"/>
<path d="M154.553 104.128L147.344 104.28L143.791 104.339C142.609 104.366 141.431 104.339 140.254 104.371L140.497 104.128L140.524 110.171L140.254 109.901L147.404 109.939C149.791 109.939 152.172 109.998 154.553 110.025L154.408 110.171C154.408 109.183 154.456 108.189 154.478 107.185L154.553 104.128ZM154.553 104.128L154.634 107.12C154.634 108.13 154.694 109.145 154.705 110.171V110.317H154.553C152.172 110.317 149.791 110.398 147.404 110.403L140.254 110.435H139.984V110.16L140.017 104.118V103.875H140.254C141.458 103.875 142.668 103.875 143.872 103.902L147.469 103.961L154.553 104.128Z" fill="#EBEBEB"/>
<path d="M146.578 96.5091L139.369 96.6603L135.815 96.7197C134.633 96.7197 133.456 96.7197 132.278 96.7521L132.521 96.5091L132.548 102.552L132.278 102.282L139.428 102.32C141.809 102.32 144.196 102.379 146.578 102.406L146.432 102.552C146.432 101.564 146.475 100.57 146.502 99.5655L146.578 96.5091ZM146.578 96.5091L146.653 99.5007C146.68 100.511 146.718 101.526 146.723 102.552V102.698H146.572C144.191 102.725 141.804 102.779 139.423 102.784L132.273 102.816H132.003V102.546L132.035 96.5037V96.2607H132.3C133.504 96.2607 134.714 96.2607 135.918 96.2877L139.514 96.3471L146.578 96.5091Z" fill="#EBEBEB"/>
<path d="M20.7198 221.141L49.2912 221.011L77.8626 220.962L135 220.871L192.137 220.962L220.709 221.011L249.28 221.141L220.709 221.276L192.137 221.324L135 221.411L77.8626 221.324L49.2912 221.276L20.7198 221.141Z" fill="#263238"/>
<path d="M135 249.048C188.798 249.048 232.411 244.802 232.411 239.565C232.411 234.328 188.798 230.083 135 230.083C81.2016 230.083 37.5894 234.328 37.5894 239.565C37.5894 244.802 81.2016 249.048 135 249.048Z" fill="#EBEBEB"/>
<path d="M230.58 161.724C228.528 159.716 225.877 157.286 222.739 158.155C219.791 158.97 218.662 162.189 218.133 164.873C217.453 168.334 216.923 171.822 216.373 175.305C215.822 178.788 215.293 182.325 214.79 185.862C214.502 187.85 214.222 189.839 213.948 191.829C213.808 192.823 213.669 193.817 213.532 194.81C213.397 195.788 213.235 196.765 213.181 197.748C213.181 198.061 213.656 198.104 213.721 197.807C214.105 196.149 214.261 194.421 214.504 192.742C214.747 191.063 214.996 189.351 215.239 187.661C215.73 184.296 216.243 180.938 216.745 177.573C217.247 174.209 217.777 170.856 218.317 167.497C218.77 164.646 218.986 161.109 221.508 159.23C222.194 158.761 222.987 158.475 223.813 158.398C224.64 158.32 225.472 158.454 226.233 158.787C227.891 159.424 229.219 160.612 230.521 161.789C230.58 161.827 230.634 161.768 230.58 161.724Z" fill="#263238"/>
<path d="M227.788 159.673C227.788 159.673 223.592 158.166 221.524 161.223C219.456 164.279 221.929 172.066 241.018 176.456C240.46 170.489 238.908 164.658 236.428 159.203C232.335 150.277 225.04 153.657 227.788 159.673Z" fill="#FFC414"/>
<path d="M239.922 175.181C239.634 174.647 239.313 174.132 238.961 173.637C238.642 173.146 238.318 172.654 237.994 172.168C237.751 171.801 237.497 171.434 237.249 171.088C237.249 171.002 237.249 170.91 237.281 170.818L237.346 170.321C237.395 169.965 237.449 169.603 237.497 169.241C237.546 168.88 237.611 168.534 237.681 168.161C237.725 167.779 237.808 167.403 237.929 167.038C237.929 166.979 237.854 166.952 237.848 167.038C237.807 167.255 237.75 167.468 237.676 167.675L237.546 168.156C237.454 168.518 237.368 168.88 237.287 169.236C237.206 169.592 237.146 169.911 237.087 170.246C237.06 170.413 237.038 170.575 237.017 170.737C236.677 170.251 236.326 169.771 235.969 169.301C234.954 167.967 233.885 166.682 232.772 165.424C232.772 165.424 232.772 165.424 232.772 165.391C232.875 163.388 232.826 161.401 233.269 159.451C233.269 159.397 233.204 159.365 233.188 159.419C232.685 161.279 232.445 163.2 232.475 165.127C232.081 164.684 231.676 164.241 231.271 163.804C230.337 162.805 229.392 161.816 228.425 160.855C228.388 160.817 228.323 160.855 228.361 160.915C229.981 162.648 231.498 164.452 232.988 166.288C231.822 166.269 230.656 166.312 229.495 166.417C228.204 166.509 226.919 166.676 225.634 166.855C225.574 166.855 225.59 166.946 225.634 166.941C226.911 166.753 228.198 166.638 229.489 166.595C230.737 166.541 231.973 166.595 233.221 166.595C234.027 167.589 234.821 168.593 235.602 169.609H235.44C235.148 169.609 234.857 169.609 234.565 169.609C233.982 169.609 233.404 169.663 232.826 169.711C231.64 169.81 230.462 169.99 229.3 170.251C229.289 170.251 229.278 170.256 229.27 170.264C229.262 170.272 229.257 170.283 229.257 170.294C229.257 170.306 229.262 170.317 229.27 170.325C229.278 170.333 229.289 170.338 229.3 170.338C230.472 170.203 231.649 170.095 232.826 170.051C233.366 170.051 233.955 170.051 234.517 170.051H235.44C235.601 170.073 235.766 170.059 235.921 170.008C236.432 170.674 236.943 171.342 237.454 172.012C237.859 172.552 238.259 173.092 238.653 173.632C239.047 174.172 239.42 174.793 239.863 175.311C239.884 175.273 239.944 175.225 239.922 175.181Z" fill="#263238"/>
<path d="M229.613 164.009C228.937 163.923 228.254 163.89 227.572 163.912C226.892 163.912 226.206 163.912 225.526 163.955C225.466 163.955 225.472 164.041 225.526 164.041C226.217 163.987 226.908 163.977 227.599 163.987C228.29 163.998 228.938 164.063 229.603 164.041C229.635 164.041 229.635 164.014 229.613 164.009Z" fill="#263238"/>
<path d="M235.607 165.548C235.683 164.894 235.764 164.241 235.904 163.598C235.904 163.587 235.9 163.576 235.892 163.568C235.884 163.56 235.873 163.555 235.861 163.555C235.85 163.555 235.839 163.56 235.831 163.568C235.823 163.576 235.818 163.587 235.818 163.598C235.721 164.241 235.597 164.878 235.505 165.521C235.456 165.839 235.413 166.163 235.37 166.482C235.315 166.783 235.29 167.089 235.294 167.395C235.298 167.407 235.306 167.417 235.316 167.425C235.326 167.432 235.338 167.436 235.351 167.436C235.364 167.436 235.376 167.432 235.386 167.425C235.396 167.417 235.404 167.407 235.408 167.395C235.464 167.093 235.497 166.788 235.505 166.482C235.532 166.169 235.57 165.856 235.607 165.548Z" fill="#263238"/>
<path d="M234.36 158.323C234.193 158.96 234.025 159.602 233.912 160.245C233.852 160.574 233.798 160.904 233.755 161.233C233.696 161.552 233.674 161.876 233.69 162.2C233.69 162.207 233.693 162.214 233.698 162.219C233.703 162.224 233.71 162.227 233.717 162.227C233.725 162.227 233.731 162.224 233.736 162.219C233.742 162.214 233.744 162.207 233.744 162.2C233.82 161.899 233.869 161.592 233.89 161.282C233.933 160.963 233.982 160.65 234.036 160.331C234.155 159.667 234.274 159.008 234.441 158.355C234.446 158.301 234.36 158.269 234.36 158.323Z" fill="#263238"/>
<path d="M209.52 197.041C209.412 195.842 209.293 194.638 209.169 193.439C208.913 191.063 208.627 188.689 208.31 186.316C207.992 183.956 207.689 181.586 207.306 179.231C207.168 178.131 206.924 177.045 206.577 175.991C206.454 175.542 206.229 175.127 205.92 174.777C205.611 174.428 205.226 174.155 204.795 173.977C202.549 173.205 201.015 175.532 200.129 177.179C200.102 177.228 200.173 177.266 200.205 177.223C200.745 176.44 202.246 174.253 203.953 174.355C205.097 174.42 206.015 175.235 206.566 178.092C207.938 185.215 209.174 199.692 209.32 200.616C209.396 201.118 209.747 201.096 209.752 200.556C209.731 199.401 209.596 198.218 209.52 197.041Z" fill="#263238"/>
<path d="M200.707 176.321C200.707 176.321 202.673 169.387 198.331 172.854C191.106 178.627 190.852 191.16 190.852 191.16C190.852 191.16 203.693 183.703 205.286 178.783C207.668 171.472 200.707 176.321 200.707 176.321Z" fill="#FFC414"/>
<path d="M203.137 179.723C202.133 179.928 201.107 180.063 200.092 180.209L198.644 180.414C198.32 180.458 197.991 180.49 197.662 180.528C198.617 179.21 199.584 177.898 200.502 176.553C200.511 176.542 200.514 176.527 200.512 176.513C200.51 176.499 200.503 176.486 200.491 176.478C200.48 176.469 200.465 176.465 200.451 176.467C200.437 176.47 200.424 176.477 200.416 176.489C199.65 177.274 198.929 178.101 198.256 178.967L197.683 177.347C197.467 176.726 197.23 176.111 197.073 175.468C197.073 175.414 196.976 175.468 196.992 175.495C197.165 176.127 197.289 176.78 197.462 177.417C197.635 178.055 197.813 178.638 198.029 179.237C197.559 179.847 197.105 180.474 196.668 181.106C196.447 180.479 196.171 179.874 195.982 179.237C195.982 179.183 195.88 179.21 195.896 179.237C196.128 179.945 196.252 180.674 196.468 181.397C196.171 181.829 195.88 182.261 195.599 182.693C195.059 183.498 194.589 184.313 194.114 185.134C194.077 185.15 194.045 185.177 194.025 185.212C194.005 185.247 193.996 185.288 194 185.328C193.19 186.732 192.418 188.153 191.657 189.589C191.651 189.599 191.65 189.611 191.653 189.622C191.656 189.633 191.663 189.643 191.673 189.648C191.683 189.654 191.695 189.656 191.706 189.653C191.717 189.65 191.727 189.642 191.732 189.632C192.494 188.212 193.352 186.83 194.222 185.474C194.358 185.429 194.5 185.402 194.643 185.393L195.086 185.296C195.415 185.226 195.745 185.139 196.074 185.058C196.727 184.896 197.37 184.74 198.034 184.626C198.088 184.626 198.061 184.535 198.034 184.545C197.257 184.691 196.479 184.783 195.691 184.869C195.318 184.913 194.951 184.961 194.584 185.021H194.53C194.987 184.322 195.455 183.627 195.934 182.936C196.398 182.261 196.879 181.592 197.359 180.922C197.807 180.863 198.245 180.744 198.688 180.663L200.178 180.371C201.172 180.171 202.165 179.95 203.164 179.788C203.218 179.82 203.191 179.712 203.137 179.723Z" fill="#263238"/>
<path d="M195.421 180.409C195.361 180.225 195.307 180.042 195.248 179.869C195.127 179.486 195.028 179.097 194.951 178.703C194.951 178.649 194.859 178.676 194.87 178.703C194.956 179.097 195.048 179.486 195.134 179.874C195.213 180.267 195.325 180.651 195.469 181.025C195.478 181.04 195.492 181.052 195.509 181.059C195.526 181.066 195.544 181.067 195.562 181.062C195.579 181.057 195.594 181.047 195.605 181.032C195.616 181.017 195.621 180.999 195.62 180.981C195.561 180.798 195.48 180.603 195.421 180.409Z" fill="#263238"/>
<path d="M204.449 178.119C203.866 178.205 203.278 178.249 202.684 178.303C202.09 178.357 201.512 178.432 200.923 178.524C200.891 178.524 200.891 178.578 200.923 178.573C201.512 178.535 202.1 178.486 202.689 178.411C203.278 178.335 203.861 178.249 204.455 178.205C204.509 178.2 204.503 178.113 204.449 178.119Z" fill="#263238"/>
<path d="M218.943 188.266C218.711 183.163 218.403 178.065 217.863 172.984C217.609 170.451 217.323 167.924 216.967 165.424C216.652 162.946 216.163 160.494 215.503 158.085C215.051 156.212 214.22 154.452 213.062 152.912C212.49 152.163 211.737 151.572 210.874 151.194C210.01 150.816 209.065 150.664 208.127 150.752C205.897 151.027 204.093 152.437 202.538 153.965C200.794 155.682 199.195 157.556 197.581 159.365C197.17 159.829 196.765 160.299 196.36 160.769C196.328 160.812 196.387 160.871 196.425 160.828C198.007 159.014 199.665 157.248 201.366 155.563C202.954 154.003 204.606 152.323 206.766 151.654C207.789 151.329 208.883 151.303 209.92 151.578C210.746 151.839 211.49 152.31 212.08 152.944C213.322 154.229 214.013 155.974 214.51 157.664C215.881 162.356 216.373 167.276 216.88 172.12C217.388 176.963 217.75 181.975 217.998 186.921C218.246 191.867 218.441 196.862 218.921 201.82C218.981 202.43 219.056 203.04 219.137 203.65C219.186 204.055 219.823 204.061 219.791 203.65C219.407 198.52 219.17 193.396 218.943 188.266Z" fill="#263238"/>
<path d="M202.268 154.505C202.268 154.505 205.184 149.105 201.728 147.377C198.272 145.649 186.759 158.511 183.395 177.325C183.395 177.325 202.009 169.09 208.332 160.882C214.655 152.674 207.495 150.87 202.268 154.505Z" fill="#FFC414"/>
<path d="M205.006 158.89C202.916 158.89 200.826 158.733 198.736 158.744L199.913 157.4C200.495 156.802 201.036 156.167 201.533 155.499C201.56 155.456 201.501 155.396 201.458 155.429C200.889 155.915 200.36 156.446 199.876 157.016C199.336 157.556 198.828 158.129 198.31 158.69C197.51 159.56 196.727 160.434 195.944 161.32C195.944 161.234 195.944 161.147 195.944 161.066C195.944 160.699 195.944 160.332 195.944 159.986C195.944 159.279 195.944 158.566 195.944 157.859C195.944 156.422 195.944 154.975 196.052 153.539C196.052 153.485 195.971 153.485 195.966 153.539C195.869 154.986 195.718 156.422 195.647 157.859C195.615 158.571 195.599 159.279 195.588 159.992C195.588 160.353 195.588 160.721 195.588 161.072C195.588 161.271 195.588 161.482 195.588 161.687C195.469 161.828 195.34 161.963 195.221 162.098C193.552 164.009 191.981 165.98 190.415 167.989C190.415 167.881 190.415 167.762 190.388 167.654C190.388 167.433 190.339 167.211 190.318 166.99C190.264 166.509 190.199 166.034 190.123 165.554C190.048 165.073 189.988 164.657 189.913 164.209C189.837 163.761 189.702 163.199 189.664 162.692C189.667 162.685 189.667 162.678 189.667 162.671C189.666 162.664 189.663 162.658 189.659 162.652C189.655 162.646 189.65 162.641 189.644 162.638C189.638 162.635 189.631 162.633 189.624 162.633C189.617 162.633 189.61 162.635 189.604 162.638C189.598 162.641 189.592 162.646 189.588 162.652C189.584 162.658 189.582 162.664 189.581 162.671C189.58 162.678 189.581 162.685 189.583 162.692C189.668 163.199 189.725 163.711 189.756 164.225L189.886 165.608C189.923 166.067 189.967 166.526 190.015 166.99L190.08 167.654C190.08 167.762 190.107 167.876 190.123 167.984C190.128 168.078 190.158 168.169 190.21 168.248L189.416 169.285C188.336 170.684 187.321 172.098 186.284 173.508C186.251 173.551 186.316 173.61 186.349 173.567C187.331 172.287 188.341 171.029 189.362 169.787C190.129 169.82 190.912 169.76 191.678 169.749C192.445 169.739 193.298 169.749 194.098 169.749C194.109 169.749 194.12 169.745 194.128 169.737C194.136 169.729 194.141 169.718 194.141 169.706C194.141 169.695 194.136 169.684 194.128 169.676C194.12 169.667 194.109 169.663 194.098 169.663C193.288 169.663 192.478 169.69 191.673 169.695C190.868 169.701 190.188 169.663 189.454 169.695C190.35 168.615 191.263 167.535 192.154 166.428L193.212 165.24C193.522 165.281 193.834 165.292 194.146 165.273H195.226C195.912 165.273 196.598 165.273 197.289 165.246C198.709 165.246 200.129 165.176 201.55 165.17C201.556 165.173 201.563 165.173 201.57 165.172C201.577 165.172 201.584 165.169 201.589 165.165C201.595 165.161 201.6 165.156 201.603 165.15C201.606 165.143 201.608 165.137 201.608 165.13C201.608 165.123 201.606 165.116 201.603 165.11C201.6 165.103 201.595 165.098 201.589 165.094C201.584 165.09 201.577 165.088 201.57 165.087C201.563 165.086 201.556 165.087 201.55 165.089C200.124 165.089 198.704 165.008 197.284 164.97C196.592 164.97 195.907 164.933 195.215 164.922H194.135C193.93 164.922 193.714 164.922 193.498 164.922L195.847 162.141C195.865 162.128 195.88 162.112 195.89 162.092C196.652 161.19 197.413 160.294 198.185 159.392C198.293 159.273 198.401 159.155 198.504 159.03C200.664 159.095 202.824 158.955 204.984 158.998C205.065 158.976 205.065 158.89 205.006 158.89Z" fill="#263238"/>
<path d="M203.936 162.589H203.429C203.419 162.589 203.409 162.593 203.402 162.6C203.395 162.607 203.391 162.617 203.391 162.627C203.391 162.637 203.395 162.646 203.402 162.653C203.409 162.66 203.419 162.664 203.429 162.664H203.931C203.938 162.661 203.944 162.656 203.949 162.65C203.953 162.643 203.956 162.636 203.956 162.628C203.957 162.621 203.955 162.613 203.952 162.606C203.948 162.599 203.943 162.593 203.936 162.589Z" fill="#263238"/>
<path d="M202.808 162.594C202.138 162.594 201.469 162.594 200.799 162.551L199.8 162.54C199.49 162.502 199.176 162.502 198.866 162.54C198.857 162.54 198.849 162.544 198.843 162.55C198.837 162.556 198.833 162.564 198.833 162.573C198.833 162.581 198.837 162.589 198.843 162.595C198.849 162.601 198.857 162.605 198.866 162.605C199.175 162.667 199.491 162.689 199.805 162.67H200.81H202.819C202.867 162.68 202.867 162.594 202.808 162.594Z" fill="#263238"/>
<path d="M196.96 168.879C195.598 168.65 194.22 168.526 192.839 168.507V168.534C194.211 168.663 195.577 168.739 196.938 168.96C196.992 168.971 197.014 168.885 196.96 168.879Z" fill="#263238"/>
<path d="M191.36 162.886C191.36 162.767 191.333 162.648 191.317 162.529C191.284 162.259 191.241 161.989 191.198 161.725C191.117 161.212 191.03 160.704 190.933 160.191C190.933 160.148 190.841 160.159 190.847 160.191C190.912 160.731 190.971 161.244 191.02 161.773L191.084 162.551C191.077 162.8 191.112 163.048 191.187 163.285C191.198 163.301 191.213 163.314 191.231 163.322C191.248 163.33 191.268 163.333 191.287 163.33C191.307 163.327 191.325 163.319 191.339 163.306C191.354 163.294 191.365 163.277 191.371 163.258C191.389 163.134 191.386 163.008 191.36 162.886Z" fill="#263238"/>
<path d="M218.759 147.577C218.09 146.335 217.242 144.699 215.579 144.801C214.207 144.888 213.586 146.286 213.295 147.447C212.387 151.028 212.323 154.808 212.15 158.48C211.772 166.239 211.437 174.005 211.388 181.775C211.388 183.935 211.388 186.095 211.388 188.255C211.388 190.453 211.388 192.662 211.54 194.854C211.54 194.897 211.557 194.938 211.587 194.969C211.617 194.999 211.659 195.016 211.702 195.016C211.745 195.016 211.786 194.999 211.816 194.969C211.847 194.938 211.864 194.897 211.864 194.854C211.864 192.975 211.81 191.074 211.804 189.216C211.799 187.359 211.804 185.55 211.837 183.714C211.898 180.002 211.997 176.291 212.134 172.579C212.274 168.891 212.436 165.203 212.593 161.514C212.668 159.673 212.749 157.826 212.83 155.985C212.911 154.143 212.987 152.415 213.192 150.639C213.305 149.64 213.451 148.646 213.662 147.669C213.764 146.94 214.061 146.252 214.52 145.676C214.837 145.363 215.256 145.173 215.701 145.142C216.145 145.11 216.587 145.238 216.945 145.503C217.706 146.052 218.302 146.799 218.668 147.663C218.679 147.676 218.695 147.683 218.712 147.683C218.728 147.684 218.745 147.678 218.757 147.666C218.769 147.655 218.776 147.639 218.776 147.622C218.777 147.605 218.771 147.589 218.759 147.577Z" fill="#263238"/>
<path d="M218.306 146.983C218.306 146.983 216.94 142.155 219.964 144.569C224.996 148.587 225.175 157.329 225.175 157.329C225.175 157.329 216.227 152.134 215.114 148.689C213.457 143.602 218.306 146.983 218.306 146.983Z" fill="#FFC414"/>
<path d="M223.29 153.749C223.209 153.614 223.123 153.484 223.036 153.349C223.047 153.213 223.047 153.076 223.036 152.939C223.036 152.734 223.036 152.523 223.036 152.318C223.036 151.908 223.036 151.497 223.079 151.092C223.079 151.081 223.075 151.07 223.067 151.062C223.059 151.054 223.048 151.049 223.036 151.049C223.025 151.049 223.014 151.054 223.006 151.062C222.998 151.07 222.993 151.081 222.993 151.092C222.993 151.492 222.955 151.897 222.944 152.296C222.944 152.496 222.944 152.696 222.944 152.896C222.944 152.971 222.944 153.063 222.944 153.155C222.593 152.615 222.232 152.075 221.864 151.535C221.756 151.378 221.643 151.227 221.535 151.076C221.477 150.552 221.468 150.025 221.508 149.499C221.508 148.959 221.508 148.376 221.54 147.814C221.54 147.76 221.454 147.76 221.454 147.814C221.454 148.398 221.411 148.981 221.378 149.564C221.343 149.979 221.332 150.395 221.346 150.811C220.482 149.64 219.564 148.506 218.646 147.377C218.614 147.339 218.549 147.377 218.581 147.431C219.154 148.16 219.704 148.905 220.244 149.661C219.191 149.413 218.122 149.272 217.053 149.121C216.999 149.121 216.977 149.197 217.053 149.208C218.187 149.38 219.299 149.661 220.417 149.91C220.844 150.514 221.27 151.119 221.686 151.729L222.194 152.475H222.151L221.8 152.426L221.054 152.361C220.541 152.318 220.023 152.291 219.505 152.264C219.451 152.264 219.456 152.35 219.505 152.35C220.012 152.35 220.52 152.399 221.022 152.453L221.827 152.55L222.172 152.593H222.275C222.561 153.015 222.853 153.436 223.133 153.857C223.641 154.608 224.095 155.407 224.629 156.125C224.636 156.131 224.645 156.135 224.654 156.136C224.663 156.136 224.672 156.134 224.68 156.129C224.688 156.124 224.694 156.117 224.698 156.109C224.701 156.1 224.702 156.091 224.699 156.082C224.277 155.277 223.806 154.498 223.29 153.749Z" fill="#263238"/>
<path d="M221.065 148.295C221.065 148.106 221.065 147.917 221.065 147.728C221.054 147.333 221.071 146.938 221.114 146.545C221.116 146.539 221.117 146.532 221.116 146.525C221.115 146.518 221.113 146.511 221.109 146.505C221.105 146.5 221.099 146.495 221.093 146.492C221.087 146.488 221.08 146.487 221.073 146.487C221.066 146.487 221.059 146.488 221.053 146.492C221.047 146.495 221.042 146.5 221.038 146.505C221.034 146.511 221.031 146.518 221.03 146.525C221.03 146.532 221.03 146.539 221.033 146.545C221.033 146.939 220.99 147.328 220.968 147.717C220.968 147.917 220.968 148.111 220.968 148.305V148.575C220.954 148.669 220.954 148.763 220.968 148.856C220.968 148.866 220.972 148.876 220.979 148.883C220.986 148.89 220.996 148.894 221.006 148.894C221.016 148.894 221.025 148.89 221.033 148.883C221.04 148.876 221.044 148.866 221.044 148.856C221.057 148.77 221.057 148.683 221.044 148.597L221.065 148.295Z" fill="#263238"/>
<path d="M219.958 150.293C219.623 150.233 219.283 150.217 218.948 150.19C218.614 150.163 218.214 150.125 217.868 150.077C217.857 150.077 217.846 150.081 217.838 150.089C217.83 150.097 217.825 150.108 217.825 150.12C217.825 150.131 217.83 150.142 217.838 150.15C217.846 150.159 217.857 150.163 217.868 150.163C218.576 150.206 219.278 150.336 219.985 150.357C219.991 150.363 219.996 150.298 219.958 150.293Z" fill="#263238"/>
<path d="M222.766 150.32C222.793 150.358 222.766 150.466 222.766 150.509V151C222.766 151.114 222.766 151.227 222.766 151.34C222.747 151.437 222.747 151.536 222.766 151.632C222.766 151.632 222.793 151.632 222.799 151.632C222.809 151.586 222.809 151.538 222.799 151.492C222.796 151.44 222.796 151.387 222.799 151.335V151C222.799 150.887 222.799 150.773 222.799 150.66V150.509C222.799 150.46 222.799 150.358 222.799 150.32C222.799 150.282 222.712 150.239 222.766 150.32Z" fill="#263238"/>
<path d="M218.965 173.34C217.085 171.931 215.395 169.901 212.863 169.798C210.773 169.717 209.309 171.288 208.472 173.038C208.054 173.971 207.713 174.938 207.452 175.927C207.074 177.245 206.714 178.571 206.372 179.907C205.72 182.531 205.162 185.177 204.698 187.845C204.444 189.33 204.206 190.82 204.017 192.316C203.78 193.832 203.634 195.361 203.58 196.895C203.579 196.954 203.6 197.011 203.639 197.056C203.678 197.1 203.732 197.128 203.79 197.135C203.849 197.142 203.908 197.126 203.956 197.092C204.004 197.058 204.037 197.007 204.05 196.949C204.304 195.696 204.412 194.406 204.59 193.142C204.768 191.879 204.968 190.599 205.178 189.335C205.61 186.815 206.111 184.295 206.68 181.775C207.22 179.405 207.76 177.002 208.51 174.696C209.05 173.043 209.936 171.116 211.723 170.522C214.423 169.62 216.902 171.915 218.889 173.411C218.948 173.438 219.008 173.373 218.965 173.34Z" fill="#263238"/>
<path d="M217.021 171.99C217.021 171.99 215.282 167.038 217.793 166.05C221.573 164.597 231.39 175.678 229.462 192.656C229.462 192.656 221.864 188.471 216.248 183.757C210.632 179.042 209.228 172.892 211.675 171.304C214.121 169.717 217.021 171.99 217.021 171.99Z" fill="#FFC414"/>
<path d="M228.328 189.032C228.067 188.44 227.762 187.868 227.416 187.321C227.092 186.737 226.768 186.16 226.433 185.587C225.779 184.469 225.131 183.352 224.462 182.239L224.132 181.699C224.132 181.634 224.159 181.564 224.17 181.499L224.284 181.008C224.37 180.641 224.435 180.268 224.5 179.896C224.64 179.172 224.764 178.438 224.959 177.736C224.959 177.687 224.888 177.671 224.878 177.736C224.721 178.459 224.489 179.177 224.278 179.896C224.17 180.247 224.057 180.592 223.965 180.949L223.868 181.31C223.063 179.987 222.248 178.67 221.351 177.395C221.409 177.221 221.44 177.039 221.443 176.855C221.47 176.607 221.497 176.359 221.53 176.11C221.594 175.57 221.659 174.992 221.74 174.436C221.902 173.356 222.064 172.276 222.334 171.196C222.334 171.142 222.264 171.126 222.253 171.196C221.978 172.276 221.686 173.356 221.481 174.436C221.384 174.976 221.287 175.516 221.216 176.056C221.184 176.326 221.152 176.596 221.125 176.866C221.125 176.942 221.125 177.028 221.092 177.109C220.822 176.726 220.552 176.337 220.266 175.964C219.397 174.82 218.495 173.707 217.566 172.595C217.534 172.552 217.458 172.595 217.496 172.643C219.051 174.632 220.479 176.717 221.773 178.886L222.512 180.09L222.264 180.058C221.945 180.014 221.627 179.998 221.308 179.966L219.386 179.798C218.106 179.696 216.821 179.62 215.546 179.485C215.492 179.485 215.476 179.561 215.546 179.566C216.842 179.717 218.128 179.923 219.418 180.106C220.055 180.198 220.687 180.284 221.324 180.365C221.806 180.461 222.296 180.51 222.788 180.511C223.29 181.332 223.798 182.131 224.3 182.963C224.186 182.963 224.068 182.963 223.96 182.963H222.129C221.303 182.963 220.477 182.963 219.656 182.963C219.596 182.963 219.607 183.044 219.656 183.044C220.493 183.044 221.324 183.098 222.161 183.141L223.349 183.211L223.943 183.254C224.121 183.296 224.306 183.296 224.483 183.254L225.769 185.339C226.163 185.981 226.562 186.619 226.967 187.256C227.349 187.931 227.781 188.577 228.258 189.189C228.28 189.113 228.35 189.086 228.328 189.032Z" fill="#263238"/>
<path d="M224.705 175.311C224.629 175.858 224.515 176.4 224.365 176.931C224.224 177.471 224.068 178.011 223.889 178.551C223.887 178.558 223.885 178.565 223.885 178.573C223.885 178.58 223.887 178.588 223.89 178.595C223.894 178.601 223.898 178.607 223.904 178.612C223.909 178.617 223.916 178.621 223.923 178.623C223.93 178.626 223.938 178.626 223.945 178.625C223.953 178.625 223.96 178.622 223.966 178.619C223.973 178.615 223.978 178.61 223.983 178.604C223.987 178.598 223.99 178.591 223.992 178.583C224.159 178.043 224.311 177.503 224.44 176.963C224.57 176.423 224.656 175.883 224.791 175.316C224.792 175.305 224.788 175.294 224.78 175.285C224.773 175.277 224.762 175.271 224.751 175.271C224.739 175.27 224.728 175.274 224.719 175.281C224.711 175.289 224.706 175.3 224.705 175.311Z" fill="#263238"/>
<path d="M219.121 178.626C219.004 178.528 218.858 178.473 218.705 178.47L217.987 178.373C217.544 178.313 217.096 178.265 216.653 178.211C215.725 178.103 214.801 178.011 213.872 177.897C213.818 177.897 213.802 177.973 213.872 177.978C214.747 178.086 215.617 178.221 216.491 178.335L217.771 178.502L218.392 178.567C218.631 178.569 218.869 178.611 219.094 178.691C219.102 178.691 219.109 178.689 219.115 178.685C219.122 178.681 219.127 178.675 219.13 178.668C219.133 178.661 219.133 178.653 219.132 178.646C219.13 178.639 219.127 178.632 219.121 178.626Z" fill="#263238"/>
<path d="M224.694 186.095C224.257 186.057 223.814 186.041 223.376 186.03H222.712H222.394C222.255 186.043 222.116 186.043 221.978 186.03C221.918 186.03 221.913 186.122 221.978 186.111C222.107 186.097 222.237 186.097 222.367 186.111H222.712L223.371 186.154C223.808 186.181 224.251 186.208 224.689 186.208C224.743 186.186 224.748 186.095 224.694 186.095Z" fill="#263238"/>
<path d="M227.372 184.194L227.518 183.449C227.605 182.958 227.696 182.466 227.788 181.98C227.788 181.969 227.784 181.958 227.776 181.95C227.767 181.942 227.756 181.937 227.745 181.937C227.734 181.937 227.723 181.942 227.714 181.95C227.706 181.958 227.702 181.969 227.702 181.98L227.378 183.411C227.324 183.649 227.27 183.886 227.221 184.124C227.221 184.237 227.178 184.345 227.151 184.459C227.117 184.572 227.104 184.691 227.113 184.81C227.114 184.821 227.119 184.831 227.126 184.839C227.133 184.848 227.142 184.854 227.153 184.857C227.163 184.86 227.174 184.859 227.185 184.856C227.195 184.852 227.204 184.846 227.21 184.837C227.305 184.635 227.36 184.417 227.372 184.194Z" fill="#263238"/>
<path d="M201.636 194.994L202.165 201.015L203.963 221.335H219.877L222.124 201.015L222.788 194.994H201.636Z" fill="#37474F"/>
<path d="M201.636 194.994L202.165 201.015H222.124L222.788 194.994H201.636Z" fill="#263238"/>
<path d="M200.059 198.24H224.365V193.358H200.059V198.24Z" fill="#37474F"/>
<path d="M115.56 175.03C115.56 166.39 116.971 158.627 119.794 151.74C122.616 144.853 128.437 138.854 137.257 133.742C139.907 132.154 143.172 130.354 147.053 128.342C151.046 126.245 154.853 123.81 158.431 121.063C162.088 118.297 165.263 114.945 167.827 111.143C170.411 107.267 171.751 102.695 171.666 98.0373C171.743 94.645 171.022 91.2821 169.56 88.2201C168.212 85.4864 166.321 83.0557 164.003 81.0759C161.623 79.0921 158.869 77.6066 155.903 76.7073C152.864 75.7477 149.695 75.2579 146.507 75.2547C142.895 75.2053 139.308 75.8734 135.956 77.2203C132.872 78.4911 129.979 80.183 127.359 82.2477C124.806 84.269 122.495 86.5794 120.474 89.1327C118.613 91.4536 116.891 93.8824 115.317 96.4065H111.332L92.286 80.5305C94.4889 75.1919 97.576 70.2629 101.417 65.9505C105.173 61.7458 109.543 58.1321 114.377 55.2315C119.296 52.3075 124.602 50.0932 130.14 48.6543C135.841 47.1486 141.713 46.3916 147.609 46.4025C154.332 46.4062 161.018 47.3867 167.459 49.3131C173.882 51.2034 179.865 54.3534 185.058 58.5795C190.423 63.02 194.758 68.5734 197.764 74.8551C201.026 81.4719 202.657 89.3685 202.657 98.5449C202.738 103.6 202.07 108.639 200.675 113.497C199.408 117.7 197.485 121.677 194.978 125.28C192.495 128.822 189.559 132.025 186.246 134.806C182.648 137.803 178.844 140.544 174.863 143.008C171.331 145.132 167.803 147.163 164.279 149.1C160.868 150.961 157.634 153.13 154.618 155.58C151.778 157.882 149.359 160.659 147.469 163.788C145.618 166.876 144.693 170.626 144.693 175.036L115.56 175.03ZM116.1 236.693V200.173H145.476V236.693H116.1Z" fill="#FFC414"/>
<g opacity="0.2">
<path opacity="0.2" d="M115.56 175.03C115.56 166.39 116.971 158.627 119.794 151.74C122.616 144.853 128.437 138.854 137.257 133.742C139.907 132.154 143.172 130.354 147.053 128.342C151.046 126.245 154.853 123.81 158.431 121.063C162.088 118.297 165.263 114.945 167.827 111.143C170.411 107.267 171.751 102.695 171.666 98.0373C171.743 94.645 171.022 91.2821 169.56 88.2201C168.212 85.4864 166.321 83.0557 164.003 81.0759C161.623 79.0921 158.869 77.6066 155.903 76.7073C152.864 75.7477 149.695 75.2579 146.507 75.2547C142.895 75.2053 139.308 75.8734 135.956 77.2203C132.872 78.4911 129.979 80.183 127.359 82.2477C124.806 84.269 122.495 86.5794 120.474 89.1327C118.613 91.4536 116.891 93.8824 115.317 96.4065H111.332L92.286 80.5305C94.4889 75.1919 97.576 70.2629 101.417 65.9505C105.173 61.7458 109.543 58.1321 114.377 55.2315C119.296 52.3075 124.602 50.0932 130.14 48.6543C135.841 47.1486 141.713 46.3916 147.609 46.4025C154.332 46.4062 161.018 47.3867 167.459 49.3131C173.882 51.2034 179.865 54.3534 185.058 58.5795C190.423 63.02 194.758 68.5734 197.764 74.8551C201.026 81.4719 202.657 89.3685 202.657 98.5449C202.738 103.6 202.07 108.639 200.675 113.497C199.408 117.7 197.485 121.677 194.978 125.28C192.495 128.822 189.559 132.025 186.246 134.806C182.648 137.803 178.844 140.544 174.863 143.008C171.331 145.132 167.803 147.163 164.279 149.1C160.868 150.961 157.634 153.13 154.618 155.58C151.778 157.882 149.359 160.659 147.469 163.788C145.618 166.876 144.693 170.626 144.693 175.036L115.56 175.03ZM116.1 236.693V200.173H145.476V236.693H116.1Z" fill="black"/>
</g>
<path d="M111.596 175.031C111.596 166.391 113.008 158.627 115.83 151.74C118.652 144.854 124.475 138.854 133.299 133.742C135.945 132.155 139.208 130.355 143.089 128.342C147.085 126.246 150.893 123.811 154.472 121.063C158.129 118.296 161.303 114.944 163.868 111.143C166.449 107.266 167.786 102.694 167.702 98.0373C167.772 94.6533 167.047 91.3001 165.586 88.2471C164.237 85.5135 162.347 83.0828 160.029 81.1029C157.649 79.1192 154.894 77.6336 151.929 76.7343C148.889 75.7748 145.721 75.2849 142.533 75.2817C138.92 75.2219 135.332 75.8808 131.976 77.2203C128.89 78.4914 125.996 80.1832 123.374 82.2477C120.822 84.2691 118.514 86.5796 116.494 89.1327C114.632 91.4536 112.908 93.8824 111.332 96.4065L88.3062 80.5305C90.5076 75.1911 93.5948 70.2618 97.4376 65.9505C101.192 61.7442 105.562 58.1303 110.398 55.2315C115.314 52.3084 120.619 50.0942 126.155 48.6543C131.861 47.1467 137.738 46.3897 143.64 46.4025C150.363 46.4059 157.05 47.3863 163.49 49.3131C169.914 51.2022 175.897 54.3524 181.089 58.5795C186.455 63.0188 190.79 68.5725 193.795 74.8551C197.057 81.4719 198.689 89.3685 198.693 98.5449C198.773 103.6 198.103 108.639 196.706 113.498C195.436 117.702 193.507 121.679 190.993 125.28C188.51 128.823 185.574 132.025 182.261 134.806C178.665 137.806 174.861 140.547 170.878 143.008C167.353 145.132 163.825 147.163 160.294 149.1C156.883 150.961 153.649 153.13 150.633 155.58C147.795 157.882 145.377 160.659 143.489 163.788C141.638 166.877 140.711 170.626 140.708 175.036L111.596 175.031ZM112.136 236.693V200.173H141.48V236.693H112.136Z" fill="#FFC414"/>
<path d="M99.4896 239.614C98.3394 239.981 65.5452 239.56 64.3086 238.75C63.8334 238.447 63.6174 233.668 63.5202 227.88V227.701C63.5202 226.508 63.4824 225.277 63.477 224.035C63.477 223.862 63.477 223.689 63.477 223.522C63.4338 215.173 63.5634 206.506 63.5634 206.506L85.5036 206.728L84.8394 223.56L84.8124 224.229L84.6774 227.718V228.074C84.6774 228.074 97.146 233.874 98.415 234.9C99.684 235.926 100.64 239.247 99.4896 239.614Z" fill="#AD6359"/>
<path d="M99.4896 239.614C98.3394 239.981 65.5452 239.56 64.3086 238.75C63.8334 238.448 63.6174 233.669 63.5202 227.88V227.702C63.5202 226.508 63.4824 225.277 63.477 224.035C63.477 223.862 63.477 223.689 63.477 223.522L84.8448 223.581L84.8178 224.251L84.6828 227.739V228.096C84.6828 228.096 97.146 233.874 98.415 234.9C99.684 235.926 100.64 239.247 99.4896 239.614Z" fill="#EBEBEB"/>
<path d="M99.4896 239.614C98.7822 239.841 86.076 239.765 76.1292 239.484C69.9192 239.317 64.7892 239.058 64.3086 238.75C63.828 238.442 63.6228 233.804 63.5256 228.123C63.5256 228.042 63.5256 227.961 63.5256 227.88C63.5256 227.799 63.5256 227.756 63.5256 227.696L84.6882 227.739V228.096C84.6882 228.096 97.173 233.874 98.4366 234.905C99.7002 235.937 100.64 239.247 99.4896 239.614Z" fill="#FFC414"/>
<path d="M99.1386 238.334C93.609 238.129 71.3016 237.794 65.8206 238.027C65.7774 238.027 65.7774 238.059 65.8206 238.064C71.2962 238.388 93.6036 238.523 99.1332 238.426C99.252 238.426 99.252 238.34 99.1386 238.334Z" fill="#263238"/>
<path d="M87.0318 227.826C84.8718 227.394 82.1988 227.691 80.514 229.219C80.4492 229.279 80.514 229.371 80.6058 229.349C82.694 228.707 84.8445 228.289 87.021 228.102C87.0532 228.097 87.0827 228.081 87.1043 228.056C87.126 228.032 87.1386 228.001 87.1399 227.968C87.1411 227.936 87.131 227.904 87.1113 227.878C87.0916 227.852 87.0635 227.834 87.0318 227.826Z" fill="#263238"/>
<path d="M88.5924 228.792C86.4324 228.36 83.7594 228.657 82.0746 230.186C82.0098 230.245 82.0746 230.337 82.1664 230.315C84.2475 229.674 86.3907 229.256 88.56 229.068C88.5934 229.066 88.6252 229.053 88.6497 229.031C88.6742 229.008 88.6898 228.977 88.6937 228.944C88.6976 228.911 88.6895 228.877 88.671 228.85C88.6524 228.822 88.6246 228.802 88.5924 228.792Z" fill="#263238"/>
<path d="M90.1476 229.759C87.9876 229.327 85.3146 229.624 83.6298 231.152C83.565 231.211 83.6298 231.303 83.7216 231.281C85.81 230.642 87.9605 230.225 90.1368 230.04C90.174 230.041 90.2103 230.028 90.2376 230.002C90.265 229.977 90.2812 229.942 90.2826 229.905C90.284 229.867 90.2706 229.831 90.2453 229.804C90.22 229.776 90.1848 229.76 90.1476 229.759Z" fill="#263238"/>
<path d="M89.9262 223.117C89.0838 221.929 87.4854 222.442 86.5674 223.193C85.0152 224.511 83.8381 226.215 83.1546 228.134C83.1511 228.142 83.1496 228.151 83.1503 228.159C83.151 228.168 83.1539 228.177 83.1587 228.184C83.1635 228.192 83.1701 228.198 83.1778 228.202C83.1856 228.207 83.1943 228.209 83.2032 228.209C83.2032 228.377 83.3544 228.555 83.5434 228.485C85.347 227.842 87.3558 227.405 88.911 226.206C89.8182 225.52 90.72 224.246 89.9262 223.117ZM86.076 226.951C85.1958 227.291 84.3048 227.583 83.4408 227.95C84.1104 226.989 84.7314 226.006 85.4982 225.11C85.8617 224.676 86.2512 224.265 86.6646 223.878C87.3234 223.301 89.9046 222.08 89.4834 224.462C89.2566 225.774 87.129 226.551 86.076 226.951Z" fill="#263238"/>
<path d="M77.6304 227.491C79.4124 228.279 81.4752 228.269 83.3814 228.479C83.5758 228.479 83.6784 228.29 83.646 228.128C83.6544 228.125 83.662 228.121 83.6684 228.115C83.6748 228.109 83.6797 228.101 83.6828 228.093C83.6859 228.084 83.6871 228.076 83.6863 228.067C83.6856 228.058 83.6829 228.049 83.6784 228.042C82.5679 226.335 81.0302 224.948 79.218 224.019C78.138 223.479 76.4748 223.371 75.9348 224.721C75.3948 226.071 76.5882 227.032 77.6304 227.491ZM76.6692 225.925C75.7188 223.706 78.5106 224.305 79.2774 224.715C79.7727 224.99 80.2474 225.301 80.6976 225.644C81.6225 226.361 82.5094 227.125 83.3544 227.934C82.4256 227.772 81.4914 227.696 80.5572 227.567C79.4448 227.421 77.22 227.151 76.68 225.925H76.6692Z" fill="#263238"/>
<path d="M76.14 239.484C69.93 239.317 64.8 239.058 64.3194 238.75C63.8388 238.442 63.6336 233.803 63.5364 228.123C66.0744 230.396 72.4032 236.039 76.14 239.484Z" fill="#263238"/>
<path d="M56.8296 112.039C56.8296 112.039 61.7544 167.454 62.5536 171.682C62.7426 172.649 62.856 177.887 62.9316 184.615C63.099 199.308 63.0018 225.801 63.0018 225.801H86.1192C86.1192 225.801 85.4334 179.901 84.4074 171.45C83.3814 162.999 76.8474 112.05 76.8474 112.05L56.8296 112.039Z" fill="#37474F"/>
<path d="M85.0716 221.772C81.4644 221.697 82.5012 221.67 78.894 221.632C77.1282 221.632 65.529 221.519 63.8766 221.789C63.8666 221.789 63.8569 221.793 63.8499 221.8C63.8428 221.807 63.8388 221.816 63.8388 221.826C63.8388 221.836 63.8428 221.846 63.8499 221.853C63.8569 221.86 63.8666 221.864 63.8766 221.864C65.529 222.134 77.1282 222.037 78.894 222.015C82.5012 221.983 81.4644 221.956 85.0716 221.88C85.0859 221.88 85.0996 221.875 85.1098 221.865C85.1199 221.854 85.1256 221.841 85.1256 221.826C85.1256 221.812 85.1199 221.798 85.1098 221.788C85.0996 221.778 85.0859 221.772 85.0716 221.772Z" fill="#263238"/>
<path d="M67.392 195.534C67.3632 192.178 67.338 188.825 67.3164 185.473C67.3164 182.233 67.3164 178.993 67.1436 175.753C66.8304 169.182 65.5236 162.723 64.5516 156.227C63.5796 149.731 62.8128 143.208 62.0946 136.679C61.29 129.357 60.5826 122.018 59.832 114.69C59.832 114.642 59.7456 114.642 59.751 114.69C60.831 127.78 62.0568 140.864 63.8658 153.873C64.3194 157.113 64.8126 160.342 65.3454 163.56C65.8854 166.8 66.4254 170.083 66.6792 173.383C66.933 176.682 66.9708 179.863 67.0032 183.103C67.0428 186.458 67.077 189.81 67.1058 193.158C67.176 200.599 67.2462 212.058 67.3218 219.499C67.3274 219.524 67.3414 219.547 67.3616 219.563C67.3817 219.579 67.4067 219.588 67.4325 219.588C67.4583 219.588 67.4833 219.579 67.5035 219.563C67.5236 219.547 67.5376 219.524 67.5432 219.499C67.5 212.824 67.4406 202.17 67.392 195.534Z" fill="#263238"/>
<path d="M51.9534 112.039C51.9534 112.039 61.7544 167.454 62.5536 171.682C62.7426 172.649 62.856 177.887 62.9316 184.615L73.98 112.039H51.9534Z" fill="#263238"/>
<path d="M72.6462 241.569C71.4744 241.855 38.7882 239.106 37.611 238.215C37.1574 237.88 37.2816 233.096 37.611 227.318C37.611 227.258 37.611 227.194 37.611 227.134C37.6758 225.946 37.746 224.72 37.8324 223.478L37.8648 222.938C38.4048 214.606 39.1554 205.972 39.1554 205.972L61.02 207.775L59.1678 224.515L59.0976 225.179L58.7196 228.652L58.6818 229.008C58.6818 229.008 70.7184 235.655 71.9118 236.773C73.1052 237.891 73.818 241.282 72.6462 241.569Z" fill="#AD6359"/>
<path d="M72.6462 241.569C71.4744 241.855 38.7882 239.107 37.611 238.216C37.1574 237.881 37.2816 233.096 37.611 227.318C37.611 227.259 37.611 227.194 37.611 227.135C37.6758 225.947 37.746 224.721 37.8324 223.479L37.8648 222.939L59.1678 224.51L59.0976 225.175L58.7196 228.647L58.6818 229.003C58.6818 229.003 70.7184 235.651 71.9118 236.768C73.1052 237.886 73.818 241.283 72.6462 241.569Z" fill="#EBEBEB"/>
<path d="M72.6462 241.569C71.4744 241.855 38.7882 239.107 37.611 238.216C37.1574 237.881 37.2816 233.096 37.611 227.318C37.611 227.259 37.611 227.194 37.611 227.135L58.7196 228.674L58.6818 229.03C58.6818 229.03 70.7184 235.678 71.9118 236.795C73.1052 237.913 73.818 241.283 72.6462 241.569Z" fill="#FFC414"/>
<path d="M72.36 240.267C66.8628 239.668 44.631 237.778 39.15 237.6C39.1068 237.6 39.1014 237.632 39.15 237.637C44.5824 238.35 66.8304 240.062 72.3546 240.337C72.4896 240.364 72.5004 240.3 72.36 240.267Z" fill="#263238"/>
<path d="M61.0524 228.927C58.8924 228.344 56.241 228.452 54.4536 229.856C54.3834 229.91 54.4536 230.013 54.5346 229.996C56.66 229.501 58.8324 229.235 61.0146 229.203C61.0484 229.202 61.081 229.19 61.1064 229.168C61.1318 229.145 61.1484 229.115 61.1529 229.081C61.1575 229.048 61.1499 229.014 61.1314 228.985C61.113 228.957 61.0849 228.936 61.0524 228.927Z" fill="#263238"/>
<path d="M62.5428 230.002C60.3828 229.419 57.726 229.527 55.9386 230.931C55.8738 230.985 55.9386 231.087 56.0196 231.071C58.145 230.576 60.3174 230.31 62.4996 230.277C62.5339 230.278 62.5674 230.267 62.5939 230.245C62.6204 230.223 62.6379 230.193 62.6432 230.159C62.6486 230.125 62.6413 230.09 62.6228 230.061C62.6043 230.032 62.5758 230.011 62.5428 230.002Z" fill="#263238"/>
<path d="M64.0278 231.077C61.8678 230.493 59.211 230.601 57.4236 232.005C57.3588 232.059 57.4236 232.162 57.51 232.146C59.6353 231.65 61.8078 231.384 63.99 231.352C64.0238 231.352 64.0564 231.339 64.0818 231.317C64.1072 231.295 64.1238 231.264 64.1283 231.231C64.1329 231.197 64.1253 231.163 64.1068 231.135C64.0884 231.107 64.0603 231.086 64.0278 231.077Z" fill="#263238"/>
<path d="M64.26 224.44C63.5094 223.193 61.8786 223.587 60.9066 224.273C59.2551 225.474 57.9509 227.091 57.1266 228.96C57.1266 229.003 57.1266 229.03 57.1698 229.041C57.1648 229.083 57.1698 229.126 57.1844 229.166C57.199 229.205 57.2228 229.241 57.2538 229.27C57.2848 229.299 57.3223 229.32 57.363 229.332C57.4038 229.344 57.4467 229.346 57.4884 229.338C59.3298 228.825 61.371 228.506 63.0018 227.442C63.9954 226.8 64.9836 225.617 64.26 224.44ZM60.1506 227.988C59.2488 228.263 58.3416 228.49 57.4506 228.798C58.1547 227.86 58.9063 226.959 59.7024 226.098C60.0937 225.688 60.5122 225.306 60.9552 224.953C61.6518 224.413 64.3086 223.382 63.7254 225.731C63.4176 227.037 61.236 227.664 60.1614 227.988H60.1506Z" fill="#263238"/>
<path d="M51.6996 227.928C53.4222 228.841 55.4796 228.976 57.3642 229.316C57.5586 229.354 57.6774 229.154 57.6558 228.992C57.6642 228.989 57.6718 228.985 57.6782 228.978C57.6846 228.972 57.6895 228.965 57.6926 228.957C57.6957 228.948 57.6969 228.939 57.6962 228.931C57.6954 228.922 57.6927 228.913 57.6882 228.906C56.7049 227.124 55.2687 225.634 53.5248 224.586C52.4988 223.986 50.8248 223.743 50.2038 225.05C49.5828 226.357 50.6952 227.394 51.6996 227.928ZM50.8518 226.308C50.058 224.024 52.8012 224.818 53.5518 225.282C54.0246 225.595 54.4756 225.94 54.9018 226.314C55.7741 227.094 56.605 227.92 57.3912 228.787C56.4732 228.56 55.5498 228.414 54.6264 228.247C53.514 227.982 51.3 227.561 50.8518 226.297V226.308Z" fill="#263238"/>
<path d="M59.6538 227.048L36.558 226.071C36.558 226.071 42.8652 175.386 42.9786 172.26C43.281 164.16 48.654 112.001 48.654 112.001H76.8636C76.8636 112.001 75.0816 124.048 72.0414 131.684C69.995 132.4 68.0192 133.304 66.1392 134.384C66.1392 134.384 63.4932 168.885 63.396 173.188C63.18 181.71 59.6538 227.048 59.6538 227.048Z" fill="#37474F"/>
<path d="M59.0382 222.814C55.4418 222.588 56.4786 222.604 52.8714 222.415C51.111 222.323 39.5226 221.734 37.8648 221.934C37.827 221.934 37.827 221.999 37.8648 222.01C39.4848 222.35 51.1002 222.744 52.8606 222.798C56.4678 222.917 55.4364 222.847 59.0436 222.922C59.0579 222.922 59.0714 222.915 59.081 222.905C59.0906 222.894 59.0956 222.88 59.0949 222.866C59.0942 222.851 59.0878 222.838 59.0772 222.828C59.0665 222.819 59.0525 222.814 59.0382 222.814Z" fill="#263238"/>
<path d="M50.7222 115.111C49.6746 128.25 48.6 141.393 47.3958 154.531C46.1916 167.67 44.7822 180.862 43.0758 193.978C42.12 201.295 41.04 211.615 39.9006 218.916C39.9006 218.964 39.9654 218.986 39.9762 218.916C42.3036 205.956 44.0154 189.842 45.468 176.747C46.9206 163.652 48.114 150.519 49.1778 137.386C49.7772 129.956 50.3172 122.52 50.8896 115.09C50.895 115.02 50.76 115.02 50.7222 115.111Z" fill="#263238"/>
<path d="M73.0458 131.177C70.6534 132.053 68.3423 133.137 66.1392 134.417C66.1206 134.425 66.1061 134.441 66.099 134.46C66.092 134.479 66.0928 134.501 66.1014 134.519C66.11 134.538 66.1256 134.552 66.1449 134.559C66.1641 134.566 66.1854 134.566 66.204 134.557C68.5314 133.558 70.902 132.602 73.17 131.474C73.2094 131.457 73.2406 131.426 73.2568 131.386C73.273 131.347 73.2729 131.302 73.2564 131.263C73.2399 131.224 73.2085 131.192 73.169 131.176C73.1295 131.16 73.0852 131.16 73.0458 131.177Z" fill="#263238"/>
<path d="M73.7856 115.209C73.7856 115.128 73.6398 115.111 73.6398 115.209C73.6398 117.968 73.4832 120.398 73.251 122.985C73.143 124.183 72.171 130.804 70.0974 130.323C69.7518 130.242 69.5574 129.897 69.5196 129.373C69.5236 128.687 69.6161 128.004 69.795 127.342C70.0218 125.955 70.2108 124.567 70.335 123.163C70.5763 120.555 70.5473 117.929 70.2486 115.327C70.2444 115.313 70.2356 115.3 70.2234 115.291C70.2112 115.281 70.1964 115.276 70.1811 115.276C70.1659 115.276 70.151 115.281 70.1388 115.291C70.1267 115.3 70.1178 115.313 70.1136 115.327C70.1751 118.938 69.9639 122.548 69.4818 126.127C69.2226 127.85 68.3532 130.447 70.1568 130.707C71.9604 130.966 73.1808 126.635 73.3968 125.447C73.9699 122.065 74.1006 118.624 73.7856 115.209Z" fill="#263238"/>
<path d="M70.1514 130.491C69.9645 130.936 69.8093 131.395 69.687 131.862C69.5506 132.222 69.4847 132.606 69.4926 132.991C69.4926 133.066 69.5952 133.072 69.633 133.023C69.8477 132.689 70.0115 132.325 70.119 131.943C70.2756 131.517 70.443 131.095 70.5888 130.663C70.6117 130.605 70.6107 130.541 70.5858 130.483C70.561 130.426 70.5145 130.381 70.4565 130.358C70.3985 130.335 70.3338 130.336 70.2766 130.361C70.2193 130.386 70.1743 130.433 70.1514 130.491Z" fill="#263238"/>
<path d="M60.7446 117.374C60.7512 117.086 60.7222 116.797 60.6582 116.516C60.6541 116.508 60.6479 116.501 60.6403 116.496C60.6327 116.492 60.6239 116.489 60.615 116.489C60.6061 116.489 60.5973 116.492 60.5897 116.496C60.5821 116.501 60.5759 116.508 60.5718 116.516C60.5147 116.76 60.4822 117.01 60.4746 117.261C60.4746 117.547 60.4098 117.801 60.3774 118.114C60.3174 118.698 60.2164 119.277 60.075 119.847C59.8122 120.923 59.2637 121.908 58.4874 122.699C57.7133 123.46 56.7955 124.06 55.7874 124.464C54.6717 124.859 53.534 125.189 52.38 125.453C52.3686 125.453 52.3576 125.457 52.3495 125.465C52.3414 125.473 52.3368 125.484 52.3368 125.496C52.3368 125.507 52.3414 125.518 52.3495 125.526C52.3576 125.534 52.3686 125.539 52.38 125.539C53.6577 125.536 54.9229 125.287 56.106 124.805C57.1548 124.411 58.1095 123.802 58.9086 123.017C59.7063 122.206 60.2666 121.192 60.5286 120.085C60.6608 119.514 60.7368 118.932 60.7554 118.346C60.7707 118.022 60.7671 117.698 60.7446 117.374Z" fill="#263238"/>
<path d="M88.3548 64.5727C90.0936 66.6733 91.9836 72.3486 91.9134 73.8984C91.8432 75.4482 82.2906 78.969 80.9406 78.1266C79.5906 77.2842 74.277 69.7782 74.2284 66.9973C74.1798 64.2163 86.5512 62.4019 88.3548 64.5727Z" fill="#AD6359"/>
<path d="M73.98 60.7173C73.1052 59.8047 70.2756 57.0777 69.0174 58.3089C68.229 59.0757 70.1298 61.1763 70.929 62.0079C72.576 63.7143 73.8504 66.7329 74.4444 68.2071C75.0384 69.6813 77.8194 66.7707 77.8194 66.7707C77.8194 66.7707 76.2642 63.0879 73.98 60.7173Z" fill="#AD6359"/>
<path d="M76.302 69.8542C76.302 69.8542 77.2794 72.4787 78.8724 72.4193C80.4654 72.3599 80.0604 70.1027 80.0388 69.9407C80.0874 70.0811 81.0486 72.4678 82.647 72.2464C84.2454 72.025 83.565 69.8056 83.5164 69.6652C83.6028 69.7786 84.834 71.2852 86.0058 70.837C88.0254 70.0702 84.996 66.1444 85.2876 64.4218C85.2876 64.4218 88.2684 64.5892 88.3548 64.573C88.3548 64.573 85.5468 60.793 83.1978 60.5122C82.856 60.4649 82.5082 60.5367 82.2132 60.7158C81.9181 60.8948 81.6937 61.17 81.5778 61.495C81.5778 61.495 80.8056 60.172 79.542 60.307C78.894 60.3772 78.4296 61.4788 78.4296 61.4788C78.2401 61.1881 77.9739 60.9554 77.6603 60.8067C77.3467 60.6581 76.998 60.5991 76.653 60.6364C75.762 60.7822 75.3192 61.8946 75.2706 62.3266C74.8926 65.6314 76.302 69.8542 76.302 69.8542Z" fill="#AD6359"/>
<path d="M75.3732 62.0244C75.3732 62.0244 75.3354 62.0244 75.33 62.0244C74.8431 64.7083 75.184 67.4768 76.3074 69.9624C76.3452 70.038 76.4856 70.011 76.4586 69.9192C75.7176 67.3538 75.352 64.6946 75.3732 62.0244Z" fill="#263238"/>
<path d="M78.4242 61.4413C78.4242 61.4089 78.3756 61.4089 78.3702 61.4413C77.8667 64.4049 78.4414 67.4509 79.9902 70.0273C80.0496 70.1191 80.19 70.1407 80.1306 70.0273C79.1424 68.2345 78.3702 63.9415 78.4242 61.4413Z" fill="#263238"/>
<path d="M83.7 69.8056C82.2204 67.2676 81.6966 64.5136 81.5724 61.603C81.5724 61.5652 81.5184 61.5706 81.5076 61.603C81.1836 63.0448 81.459 64.8862 81.7938 66.3064C82.0806 67.6275 82.7079 68.8506 83.6136 69.8542C83.6406 69.8974 83.7 69.8596 83.7 69.8056Z" fill="#263238"/>
<path d="M76.302 69.8538C76.537 70.3388 76.8153 70.8014 77.1336 71.2362C77.4259 71.6717 77.8284 72.022 78.3 72.2514C78.5242 72.3375 78.7724 72.3375 78.9966 72.2514C79.2259 72.1694 79.4304 72.03 79.5906 71.8464C79.7322 71.6498 79.8313 71.4257 79.8815 71.1887C79.9317 70.9516 79.9319 70.7066 79.8822 70.4694L79.6824 69.303L80.2764 70.329C80.5361 70.7877 80.8679 71.2016 81.2592 71.5548C81.4301 71.7283 81.636 71.8633 81.8632 71.9508C82.0904 72.0383 82.3337 72.0764 82.5768 72.0624C82.8033 72.0487 83.0181 71.9575 83.1853 71.8041C83.3524 71.6507 83.4617 71.4445 83.4948 71.22C83.5575 70.7152 83.4925 70.2028 83.3058 69.7296L82.8252 68.412L83.7054 69.492C83.9503 69.7936 84.2314 70.0638 84.5424 70.2966C84.831 70.525 85.1802 70.664 85.5468 70.6962C85.7121 70.7038 85.8764 70.6654 86.0212 70.5853C86.1661 70.5053 86.286 70.3866 86.3676 70.2426C86.4949 69.8973 86.523 69.5231 86.4486 69.1626C86.2938 68.3658 86.0772 67.5822 85.8006 66.819C85.671 66.4302 85.5414 66.036 85.4334 65.6364C85.301 65.2441 85.2531 64.8282 85.293 64.416C85.3002 64.8241 85.3845 65.2272 85.5414 65.604C85.6818 65.9874 85.8384 66.3654 85.995 66.7488C86.33 67.5126 86.5922 68.3063 86.778 69.1194C86.8891 69.5563 86.8703 70.0161 86.724 70.4424C86.6185 70.666 86.4497 70.8538 86.2385 70.9824C86.0274 71.111 85.7831 71.1749 85.536 71.166C85.0796 71.1403 84.6414 70.9785 84.2778 70.7016C83.9263 70.45 83.6087 70.1542 83.3328 69.8214L83.7324 69.5838C83.9652 70.1376 84.049 70.7426 83.9754 71.3388C83.926 71.6706 83.7616 71.9745 83.511 72.1974C83.2611 72.4054 82.9544 72.5333 82.6308 72.5646C82.322 72.5836 82.0128 72.5361 81.724 72.4252C81.4352 72.3144 81.1735 72.1428 80.9568 71.922C80.5225 71.5327 80.1573 71.0726 79.8768 70.5612L80.271 70.4208C80.3215 70.7169 80.3071 71.0204 80.2288 71.3104C80.1505 71.6004 80.0101 71.8699 79.8174 72.1002C79.6093 72.3172 79.349 72.4771 79.0614 72.5646C78.7685 72.655 78.4524 72.6319 78.1758 72.4998C77.6792 72.2283 77.2693 71.8221 76.9932 71.328C76.7077 70.8644 76.4759 70.3698 76.302 69.8538Z" fill="#263238"/>
<path d="M79.812 77.0091C79.812 77.0091 69.5142 71.7441 73.548 68.7309C74.7414 67.8345 80.73 65.5827 81.2052 66.7761C81.8208 68.3151 79.4934 69.7245 77.895 70.3725C77.895 70.3725 81.648 71.6739 81.5238 74.5521C81.4926 75.0796 81.3162 75.5882 81.0141 76.0218C80.712 76.4554 80.296 76.7971 79.812 77.0091Z" fill="#AD6359"/>
<path d="M73.2294 69.001C73.6544 68.5923 74.1387 68.25 74.6658 67.9858C75.1896 67.7067 75.7307 67.4614 76.2858 67.2514C77.3885 66.8183 78.5268 66.4823 79.6878 66.247C79.9966 66.1823 80.3133 66.1641 80.6274 66.193C80.8175 66.2047 81.0023 66.2602 81.1674 66.355C81.2532 66.4047 81.3299 66.4686 81.3942 66.544C81.4578 66.6191 81.5072 66.7051 81.54 66.7978C81.6642 67.1304 81.6642 67.4966 81.54 67.8292C81.4262 68.1326 81.2578 68.4126 81.0432 68.6554C80.6364 69.1158 80.152 69.5014 79.6122 69.7948C79.0929 70.092 78.5513 70.3484 77.9922 70.5616V70.1782C78.4153 70.3434 78.8221 70.5477 79.2072 70.7884C79.5946 71.022 79.9565 71.2952 80.2872 71.6038C80.613 71.921 80.8897 72.285 81.108 72.6838C81.329 73.0722 81.4738 73.4993 81.5346 73.942C81.4203 73.521 81.2379 73.1216 80.9946 72.7594C80.7462 72.4086 80.452 72.0926 80.1198 71.8198C79.7864 71.5412 79.4243 71.2986 79.0398 71.0962C78.6661 70.8903 78.2738 70.7204 77.868 70.5886L77.3658 70.432L77.8518 70.2052C78.3784 69.9771 78.8889 69.7137 79.38 69.4168C79.8652 69.1369 80.3027 68.7814 80.676 68.3638C80.8548 68.1909 80.9864 67.975 81.0583 67.7368C81.1301 67.4986 81.1398 67.246 81.0864 67.003C80.9676 66.625 80.325 66.6412 79.7796 66.7222C79.2342 66.8032 78.6564 66.949 78.0894 67.0894C77.5224 67.2298 76.9662 67.3864 76.41 67.5646C75.2818 67.8757 74.2088 68.3603 73.2294 69.001Z" fill="#263238"/>
<path d="M67.959 84.4609C77.0634 95.6983 90.2988 102.978 93.5658 100.607C96.8328 98.2363 85.8222 85.8271 85.6332 85.6435C84.9906 85.0279 80.1198 82.4953 71.2746 78.7693C62.5968 75.1135 63.8928 79.4443 67.959 84.4609Z" fill="#AD6359"/>
<path d="M81.54 83.16L74.682 92.178C74.682 92.178 68.9256 86.238 65.88 82.3068C62.8344 78.3756 63.1368 75.3192 69.9516 77.8572C73.9409 79.3341 77.8145 81.1066 81.54 83.16Z" fill="#FFC414"/>
<path d="M74.0286 90.1097C74.8656 88.8785 75.7404 87.669 76.6368 86.4864C77.085 85.9032 77.517 85.3092 77.976 84.7314C78.435 84.1536 78.9588 83.5758 79.4286 82.9818C79.461 82.9386 79.5258 82.9818 79.4934 83.025C79.0614 83.619 78.6726 84.24 78.2406 84.834C77.8086 85.428 77.3334 86.0436 76.8744 86.6484C75.9708 87.8364 75.0402 89.0027 74.0826 90.1475C74.0556 90.1799 73.98 90.1475 74.0286 90.1097Z" fill="#263238"/>
<path d="M77.9652 87.8468L74.682 92.1668C74.682 92.1668 68.9256 86.2268 65.88 82.2956L65.5884 81.9122L65.4642 81.734L65.2752 81.4586C65.1132 81.221 64.9674 80.9888 64.8378 80.762C64.7892 80.681 64.746 80.6 64.7028 80.519C64.4776 80.1092 64.2966 79.6765 64.1628 79.2284C64.123 79.0902 64.0924 78.9495 64.071 78.8072C64.071 78.737 64.071 78.6722 64.071 78.6074C67.0626 80.681 74.0826 85.2224 77.9652 87.8468Z" fill="#263238"/>
<path d="M78.2406 117.574C78.2406 117.574 46.9908 118.114 46.8072 117.92C46.3212 117.38 52.6338 85.201 59.1624 78.5698C61.4682 76.2262 66.2256 77.182 67.0194 77.5654C68.85 78.451 70.5726 80.3626 72.0144 83.905C74.898 90.9898 78.6348 117.066 78.2406 117.574Z" fill="#FFC414"/>
<path opacity="0.1" d="M68.58 78.6236H59.1138L59.1624 78.5696C59.3827 78.3468 59.6272 78.1493 59.8914 77.981H67.7484C68.0425 78.1723 68.3207 78.3872 68.58 78.6236ZM69.6222 79.7036H58.2228C58.0716 79.9034 57.9258 80.1194 57.78 80.3462H70.119C69.9624 80.1194 69.8004 79.9196 69.66 79.7036H69.6222ZM70.7994 81.4261H57.1266C57.0078 81.6367 56.889 81.8528 56.7756 82.0742H71.1666C71.0532 81.8528 70.9344 81.6313 70.8102 81.4261H70.7994ZM71.6796 83.1542H56.2302L55.9224 83.7967H71.9658C71.8794 83.5753 71.7876 83.3594 71.6904 83.1596L71.6796 83.1542ZM72.3654 84.8767H55.4472L55.1718 85.5193H72.5868C72.5166 85.3195 72.4464 85.0819 72.36 84.8767H72.3654ZM72.9054 86.5993H54.7344C54.6534 86.8153 54.567 87.026 54.4806 87.2474H73.0944L72.9054 86.5993ZM73.3698 88.3219H54.081C54.0054 88.5379 53.9244 88.7485 53.8488 88.9699H73.5426C73.4742 88.7503 73.4202 88.5343 73.3806 88.3219H73.3698ZM73.791 90.0499H53.46C53.3844 90.2605 53.3142 90.4765 53.244 90.6925H73.9368L73.791 90.0499ZM74.1798 91.7725H52.92C52.8498 91.9831 52.785 92.1991 52.7148 92.4151H74.358C74.2824 92.1991 74.2392 91.9831 74.1906 91.7995L74.1798 91.7725ZM74.547 93.4951H52.38C52.3098 93.7057 52.245 93.9217 52.1802 94.1431H74.7198C74.6496 93.9271 74.6064 93.7111 74.5578 93.4951H74.547ZM74.898 95.2177H51.84C51.7752 95.4337 51.7104 95.6497 51.651 95.8657H75.06L74.898 95.2177ZM75.2328 96.9457H51.3324C51.2676 97.1617 51.2082 97.3723 51.1488 97.5883H75.3624C75.3246 97.3723 75.2868 97.1563 75.2436 96.9457H75.2328ZM75.5514 98.6683H50.8518C50.7924 98.8843 50.733 99.1003 50.679 99.3109H75.681C75.6432 99.0949 75.6 98.8843 75.5622 98.6683H75.5514ZM75.8592 100.391H50.3928C50.3334 100.607 50.2794 100.823 50.2254 101.039H75.9834C75.951 100.823 75.9132 100.607 75.87 100.391H75.8592ZM76.167 102.119H49.9446C49.896 102.335 49.842 102.546 49.788 102.762H76.2804C76.248 102.551 76.2102 102.335 76.1778 102.119H76.167ZM76.4478 103.842H49.518C49.4694 104.058 49.4154 104.274 49.3668 104.484H76.5666C76.5342 104.274 76.4964 104.058 76.4586 103.842H76.4478ZM76.7286 105.564H49.1076C49.059 105.786 49.0104 106.002 48.9564 106.212H76.842C76.8096 105.996 76.7772 105.786 76.7394 105.564H76.7286ZM77.004 107.287H48.7134C48.6648 107.503 48.6162 107.724 48.5676 107.935H77.1066C77.0742 107.724 77.0418 107.508 77.0148 107.287H77.004ZM77.2578 109.015H48.33C48.2868 109.231 48.2382 109.447 48.195 109.657H77.355L77.2578 109.015ZM77.5062 110.737H47.9628C47.9196 110.959 47.8764 111.169 47.8332 111.38H77.6088C77.5764 111.169 77.5494 110.953 77.517 110.737H77.5062ZM77.7438 112.46H47.6226C47.5722 112.683 47.529 112.899 47.493 113.108H77.841C77.814 112.897 77.76 112.681 77.76 112.46H77.7438ZM77.9598 114.183H47.2932C47.25 114.409 47.2122 114.625 47.1744 114.831H78.0516C78.03 114.625 78.003 114.409 77.9706 114.183H77.9598ZM78.1596 115.911H46.98C46.9422 116.143 46.9152 116.359 46.8828 116.553H78.2028C78.2136 116.364 78.192 116.148 78.1704 115.911H78.1596ZM46.7748 117.633C46.7508 117.727 46.7508 117.825 46.7748 117.919C46.9206 118.065 66.3012 117.768 74.5578 117.633H46.7748Z" fill="#030402"/>
<path d="M60.9444 82.4687C58.8384 85.3577 48.0384 97.2971 47.6388 98.4041C47.2392 99.5111 49.7394 101.957 49.6962 102.416C49.5342 104.285 45.5004 116.715 43.8858 115.452C41.7582 113.789 32.751 101.876 34.0254 96.7193C35.2998 91.5623 56.3328 79.1801 59.67 78.1055C63.0072 77.0309 63.0234 79.6175 60.9444 82.4687Z" fill="#AD6359"/>
<path d="M52.461 93.3389L46.3266 84.7259C46.3266 84.7259 53.19 80.2223 57.78 78.2999C62.37 76.3775 64.6326 77.4467 60.4368 83.3813C57.9841 86.8603 55.3205 90.1858 52.461 93.3389Z" fill="#FFC414"/>
<path d="M48.141 84.1638C49.113 85.2906 50.058 86.4426 50.976 87.6198C51.4296 88.1976 51.8886 88.77 52.326 89.3586C52.7634 89.9472 53.1954 90.606 53.6544 91.2108C53.6868 91.254 53.622 91.308 53.5896 91.2648C53.1252 90.7248 52.6284 90.1848 52.164 89.5908C51.6996 88.9968 51.2244 88.4028 50.76 87.8088C49.842 86.6316 48.951 85.4274 48.0924 84.207C48.06 84.1746 48.114 84.1314 48.141 84.1638Z" fill="#263238"/>
<path d="M52.4502 93.3817C53.3898 92.1343 54.4968 91.0219 55.512 89.8393C56.5272 88.6567 57.537 87.4363 58.5036 86.2051C58.5036 86.2051 58.5738 86.2051 58.5522 86.2375C58.104 86.8801 57.6666 87.5281 57.1968 88.1545C56.9646 88.4623 56.7216 88.7647 56.4732 89.0671L56.835 88.7701C57.2052 88.4918 57.589 88.2323 57.9852 87.9925C57.9852 87.9925 58.0284 87.9925 57.9852 88.0249C57.6415 88.3428 57.281 88.6421 56.9052 88.9213C56.6352 89.1265 56.3652 89.3155 56.079 89.5045L55.647 90.0445C54.7044 91.2612 53.6544 92.3908 52.5096 93.4195C52.4772 93.4681 52.4178 93.4195 52.4502 93.3817Z" fill="#263238"/>
<path d="M49.167 120.171C50.6088 119.194 48.627 118.049 48.627 118.049C48.627 118.049 51.867 119.01 52.947 117.428C54.027 115.846 51.5646 114.604 51.3918 114.507C51.5646 114.561 54.567 115.36 55.5066 113.659C56.4462 111.958 53.811 111.007 53.6382 110.959C53.8164 110.959 56.1546 110.856 56.5758 109.398C57.294 106.898 50.5764 106.606 49.1292 105.078C49.1292 105.078 49.7772 101.773 49.8312 101.682C49.3967 102.423 48.7225 102.995 47.9196 103.302C46.467 103.712 45.1602 103.95 44.5716 104.646C44.297 104.951 44.1277 105.336 44.0888 105.745C44.0499 106.153 44.1435 106.563 44.3556 106.914C44.3556 106.914 42.5196 106.704 41.7366 108.021C41.337 108.696 42.066 109.944 42.066 109.944C41.6505 109.914 41.2349 109.999 40.8644 110.189C40.494 110.38 40.183 110.668 39.9654 111.024C39.4632 111.996 40.2732 113.092 40.2732 113.092C40.2732 113.092 38.8044 113.632 38.6154 114.798C38.2536 117.136 46.0782 122.256 49.167 120.171Z" fill="#AD6359"/>
<path d="M40.4028 113.292C40.4028 113.292 40.3434 113.291 40.365 113.329C42.6033 115.741 45.5228 117.413 48.735 118.124C48.8376 118.124 48.9132 117.984 48.8052 117.941C45.7939 116.806 42.9635 115.24 40.4028 113.292Z" fill="#263238"/>
<path d="M42.0444 109.922C42.0409 109.919 42.0368 109.917 42.0324 109.916C42.0281 109.915 42.0235 109.914 42.019 109.915C42.0145 109.915 42.0101 109.917 42.0061 109.919C42.0021 109.921 41.9986 109.924 41.9958 109.928C41.993 109.931 41.9908 109.935 41.9896 109.94C41.9883 109.944 41.9879 109.948 41.9884 109.953C41.9889 109.957 41.9903 109.962 41.9925 109.966C41.9947 109.97 41.9976 109.973 42.0012 109.976C44.4965 112.607 47.85 114.26 51.4566 114.636C51.5808 114.636 51.705 114.528 51.5592 114.507C49.14 114.14 44.4204 111.78 42.0444 109.922Z" fill="#263238"/>
<path d="M53.9298 110.878C50.409 110.479 47.3688 108.988 44.469 107.012C44.4312 107.012 44.3988 107.039 44.4204 107.071C45.576 108.427 47.5578 109.496 49.1724 110.198C50.6551 110.877 52.29 111.154 53.9136 111.002C54 110.997 54 110.889 53.9298 110.878Z" fill="#263238"/>
<path d="M40.203 113.092C39.9097 112.797 39.704 112.426 39.6086 112.021C39.5133 111.616 39.5321 111.192 39.663 110.797C39.8321 110.425 40.1291 110.126 40.5 109.954C40.9421 109.802 41.4147 109.759 41.877 109.83C41.6193 109.467 41.4777 109.034 41.4709 108.589C41.4642 108.143 41.5926 107.706 41.8392 107.335C42.1158 107.018 42.501 106.816 42.9192 106.768C43.3965 106.722 43.8778 106.74 44.3502 106.822C44.1534 106.591 44.0134 106.316 43.9412 106.021C43.869 105.726 43.8667 105.418 43.9344 105.121C44.0238 104.8 44.1877 104.503 44.4128 104.257C44.638 104.01 44.9181 103.82 45.2304 103.701C45.9652 103.435 46.7279 103.254 47.5038 103.161C47.9021 103.102 48.2918 102.995 48.6648 102.843C49.0667 102.659 49.4037 102.357 49.6314 101.979C49.6746 101.914 49.6746 101.979 49.6314 102.038C49.4802 102.295 49.2867 102.525 49.059 102.718C48.8226 102.924 48.5592 103.097 48.276 103.231C47.5731 103.497 46.851 103.708 46.116 103.863C45.4717 104.035 44.9022 104.414 44.496 104.943C44.3104 105.223 44.206 105.549 44.1946 105.884C44.1832 106.22 44.2651 106.552 44.4312 106.844C44.4312 106.844 44.4312 106.914 44.3826 106.909C43.9514 106.907 43.5217 106.958 43.1028 107.06C42.7554 107.143 42.4422 107.332 42.2064 107.6C41.9879 107.942 41.863 108.336 41.844 108.741C41.8251 109.147 41.9128 109.55 42.0984 109.911C41.6327 109.942 41.1768 110.06 40.7538 110.257C40.4792 110.426 40.2582 110.669 40.1166 110.959C39.9549 111.293 39.8889 111.665 39.9261 112.034C39.9633 112.402 40.1021 112.754 40.3272 113.049C40.3293 113.058 40.3293 113.067 40.3272 113.076C40.3272 113.076 39.8574 113.27 39.8358 113.27C39.8142 113.27 39.8358 113.27 39.8358 113.27C39.9544 113.203 40.0771 113.144 40.203 113.092Z" fill="#263238"/>
<path d="M67.0086 82.3549C65.2914 82.9867 61.9326 80.6485 60.4692 78.6073C60.372 78.4669 60.2748 72.3919 60.1344 71.1931C60.102 70.9447 67.8942 72.1219 67.8942 72.1219C67.6451 73.675 67.5871 75.2527 67.7214 76.8199C67.743 76.9927 68.6664 81.7501 67.0086 82.3549Z" fill="#AD6359"/>
<path d="M67.8942 72.1221C67.8942 72.1221 67.8078 72.6243 67.7376 73.3695C65.5776 76.0209 62.1108 76.3017 60.3504 76.2423C60.291 74.3577 60.2208 71.9223 60.1344 71.1933C60.102 70.9503 67.8942 72.1221 67.8942 72.1221Z" fill="#263238"/>
<path d="M60.1668 58.2495C60.1668 58.2495 57.6828 59.2107 57.1752 61.6947C56.6676 64.1787 57.1752 66.8139 57.3804 66.9489C57.5856 67.0839 60.1668 58.2495 60.1668 58.2495Z" fill="#263238"/>
<path d="M70.2 61.4572C70.8372 64.195 68.904 71.8576 66.8736 73.456C63.936 75.778 59.3784 75.7132 57.4668 72.241C55.62 68.8768 58.32 58.9408 60.561 57.5098C63.855 55.4092 69.2442 57.4071 70.2 61.4572Z" fill="#AD6359"/>
<path d="M62.4942 65.7607C62.4942 65.7607 62.532 65.7931 62.5266 65.8147C62.4186 66.3547 62.3808 66.9649 62.8344 67.2241C62.8344 67.2241 62.8344 67.2565 62.8344 67.2511C62.2512 67.0675 62.3052 66.2413 62.4942 65.7607Z" fill="#263238"/>
<path d="M63.0612 65.2858C63.9306 65.3668 63.6984 67.0948 62.8992 67.0192C62.1 66.9436 62.3376 65.2156 63.0612 65.2858Z" fill="#263238"/>
<path d="M59.481 65.2261C59.481 65.2261 59.4378 65.2261 59.4324 65.2693C59.3838 65.8093 59.238 66.4087 58.7304 66.5275V66.5599C59.3352 66.5491 59.5188 65.7391 59.481 65.2261Z" fill="#263238"/>
<path d="M59.076 64.605C58.2228 64.4322 57.9366 66.1494 58.7304 66.3114C59.5242 66.4734 59.7888 64.7508 59.076 64.605Z" fill="#263238"/>
<path d="M59.8752 67.7641C59.8752 67.7641 59.6484 68.5417 59.5944 68.9197C60.3285 69.0271 61.0433 69.2399 61.7166 69.5515C61.8732 69.6271 61.8948 69.4921 61.7166 69.3517C61.2142 68.9436 60.601 68.6954 59.9562 68.6389C59.9562 68.5309 60.3288 67.4455 60.2694 67.4294C59.9777 67.4126 59.6852 67.4362 59.4 67.4995C59.8212 65.8796 60.48 64.3028 60.9012 62.6396C60.9012 62.5802 60.831 62.5478 60.804 62.5964C60.0248 64.2456 59.4099 65.9675 58.968 67.7371C58.8978 67.9747 59.7132 67.8073 59.8752 67.7641Z" fill="#263238"/>
<path d="M63.72 64.6972C63.5148 64.5676 63.3528 64.411 63.18 64.2652C63.0072 64.1194 62.7804 63.9844 62.6994 63.7252C62.6821 63.6472 62.6919 63.5656 62.7273 63.4939C62.7626 63.4223 62.8214 63.3648 62.8938 63.331C63.0457 63.2813 63.2082 63.2736 63.3642 63.3088C63.5201 63.344 63.6636 63.4207 63.7794 63.5308C64.0521 63.714 64.2451 63.9938 64.3194 64.3138C64.3336 64.389 64.325 64.4668 64.2947 64.537C64.2644 64.6073 64.2138 64.6669 64.1493 64.7081C64.0848 64.7494 64.0095 64.7704 63.933 64.7684C63.8565 64.7665 63.7823 64.7417 63.72 64.6972Z" fill="#263238"/>
<path d="M58.698 62.7045C58.9356 62.6668 59.1516 62.6019 59.3838 62.5425C59.6339 62.5212 59.8697 62.4166 60.0534 62.2455C60.1016 62.1818 60.1276 62.1041 60.1276 62.0242C60.1276 61.9442 60.1016 61.8665 60.0534 61.8028C59.935 61.695 59.7901 61.6207 59.6335 61.5875C59.4769 61.5543 59.3143 61.5633 59.1624 61.6138C58.8379 61.6681 58.5452 61.8413 58.3416 62.0998C58.3005 62.1606 58.2775 62.2319 58.2753 62.3054C58.273 62.3788 58.2916 62.4514 58.3289 62.5146C58.3662 62.5779 58.4207 62.6294 58.486 62.663C58.5513 62.6966 58.6248 62.711 58.698 62.7045Z" fill="#263238"/>
<path d="M68.9256 68.0019C67.338 67.8453 68.202 60.8415 68.202 60.8415C67.222 61.1753 66.1968 61.3574 65.1618 61.3815C64.1161 61.3447 63.078 61.1889 62.0676 60.9171C61.8516 60.8361 64.719 60.0261 64.719 60.0261C64.719 60.0261 57.6666 60.6417 57.429 59.3133C57.3426 58.8543 58.6548 54.6747 64.5084 54.9393C68.8284 55.1337 70.8426 59.6481 70.8426 59.6481C70.8426 59.6481 72.9432 61.9863 72.5814 63.0447C71.9658 64.9023 70.6104 68.1693 68.9256 68.0019Z" fill="#263238"/>
<path d="M67.9644 68.0398C67.9644 68.0398 69.9354 65.6854 71.0208 66.4198C72.1062 67.1542 70.4808 70.6588 69.0876 71.0422C68.914 71.1025 68.7301 71.1272 68.5468 71.1148C68.3634 71.1024 68.1845 71.0531 68.0206 70.9699C67.8568 70.8867 67.7114 70.7713 67.5932 70.6307C67.475 70.49 67.3863 70.3269 67.3326 70.1512L67.9644 68.0398Z" fill="#AD6359"/>
<path d="M94.2678 100.202C98.6526 96.8163 94.4622 79.628 91.9134 73.2992C91.1628 71.4362 79.2558 74.9192 79.812 77.009C82.9926 88.8296 89.4672 103.912 94.2678 100.202Z" fill="#AD6359"/>
<path d="M81.783 83.4941L83.0952 86.7341C83.5434 87.8141 83.9808 88.8941 84.4668 89.9741C84.9528 91.0541 85.4226 92.0963 85.9194 93.1493C86.4162 94.2023 86.967 95.2337 87.507 96.2705C86.8238 95.3191 86.2016 94.3253 85.644 93.2951C85.104 92.2637 84.564 91.2053 84.0942 90.1361C83.6244 89.0669 83.1924 87.9761 82.8036 86.8637C82.4148 85.7513 82.08 84.6335 81.783 83.4941Z" fill="#263238"/>
<path d="M81 49.3292C81.0521 49.9365 80.923 50.5456 80.6291 51.0796C80.3351 51.6136 79.8895 52.0484 79.3485 52.3293C78.8076 52.6101 78.1955 52.7243 77.5896 52.6575C76.9837 52.5906 76.4113 52.3456 75.9446 51.9536C75.4779 51.5615 75.1378 51.0399 74.9674 50.4547C74.797 49.8694 74.8039 49.2468 74.9872 48.6655C75.1705 48.0842 75.522 47.5702 75.9972 47.1885C76.4725 46.8069 77.0502 46.5746 77.6574 46.5212C78.0613 46.4856 78.4683 46.53 78.8551 46.652C79.2418 46.7739 79.6007 46.9709 79.9112 47.2318C80.2217 47.4926 80.4777 47.8121 80.6645 48.172C80.8513 48.5319 80.9653 48.9251 81 49.3292Z" fill="white"/>
<path d="M81 49.3292C81.0669 50.156 80.8141 50.977 80.2937 51.6229C79.7733 52.2689 79.0249 52.6907 78.2028 52.8014C77.7551 52.8912 77.2935 52.8854 76.8482 52.7844C76.403 52.6833 75.9841 52.4893 75.619 52.215C75.254 51.9407 74.951 51.5924 74.7301 51.1928C74.5091 50.7932 74.375 50.3515 74.3367 49.8965C74.2984 49.4415 74.3567 48.9835 74.5078 48.5526C74.6589 48.1218 74.8994 47.7277 75.2134 47.3962C75.5275 47.0648 75.908 46.8035 76.3301 46.6294C76.7523 46.4553 77.2064 46.3724 77.6628 46.3862C78.4896 46.3579 79.296 46.647 79.9165 47.1942C80.537 47.7414 80.9247 48.5053 81 49.3292ZM81 49.3292C80.9655 48.9319 80.8509 48.5458 80.6631 48.194C80.4754 47.8423 80.2183 47.5322 79.9075 47.2824C79.5967 47.0327 79.2386 46.8484 78.8546 46.7408C78.4707 46.6332 78.069 46.6044 77.6736 46.6562C76.9177 46.7533 76.2287 47.1388 75.7504 47.7321C75.2721 48.3254 75.0417 49.0806 75.1072 49.8399C75.1727 50.5992 75.5292 51.3037 76.1021 51.8063C76.6749 52.3089 77.4199 52.5706 78.1812 52.5368C78.5799 52.52 78.9711 52.4227 79.3312 52.2506C79.6913 52.0785 80.0127 51.8352 80.2761 51.5354C80.5396 51.2356 80.7395 50.8856 80.864 50.5064C80.9884 50.1272 81.0346 49.7267 81 49.3292Z" fill="#263238"/>
<path d="M74.2932 55.0156C74.3219 55.3539 74.2496 55.6932 74.0854 55.9905C73.9213 56.2877 73.6728 56.5297 73.3712 56.6857C73.0696 56.8417 72.7285 56.9048 72.3911 56.8671C72.0536 56.8293 71.7349 56.6923 71.4753 56.4734C71.2157 56.2546 71.0268 55.9636 70.9325 55.6374C70.8382 55.3112 70.8427 54.9644 70.9455 54.6408C71.0483 54.3171 71.2447 54.0312 71.5099 53.8192C71.7751 53.6072 72.0973 53.4786 72.4356 53.4496C72.6606 53.4296 72.8872 53.4543 73.1026 53.5223C73.318 53.5904 73.5177 53.7003 73.6904 53.8459C73.8631 53.9915 74.0052 54.1697 74.1087 54.3705C74.2121 54.5712 74.2748 54.7905 74.2932 55.0156Z" fill="white"/>
<path d="M74.2932 55.0155C74.3235 55.386 74.2416 55.7572 74.0581 56.0806C73.8747 56.404 73.5981 56.6646 73.2644 56.8287C72.9307 56.9928 72.5554 57.0526 72.1873 57.0004C71.8191 56.9482 71.4752 56.7865 71.2003 56.5362C70.9253 56.2858 70.7321 55.9586 70.6457 55.5969C70.5593 55.2353 70.5837 54.856 70.7158 54.5085C70.8479 54.1609 71.0816 53.8611 71.3864 53.6482C71.6912 53.4352 72.053 53.319 72.4248 53.3145C72.8927 53.3126 73.3442 53.4863 73.6901 53.8013C74.0361 54.1162 74.2513 54.5495 74.2932 55.0155ZM74.2932 55.0155C74.2754 54.7964 74.2122 54.5834 74.1075 54.3901C74.0028 54.1968 73.8591 54.0274 73.6853 53.8928C73.5115 53.7582 73.3116 53.6612 73.0983 53.6081C72.885 53.555 72.663 53.547 72.4464 53.5845C72.1423 53.6359 71.8598 53.7748 71.6334 53.9842C71.407 54.1936 71.2465 54.4644 71.1714 54.7635C71.0964 55.0626 71.1101 55.3771 71.2109 55.6686C71.3116 55.9601 71.4951 56.2159 71.7389 56.4048C71.9827 56.5937 72.2762 56.7075 72.5836 56.7323C72.891 56.7571 73.1989 56.6918 73.4699 56.5445C73.7408 56.3971 73.9629 56.1741 74.1091 55.9025C74.2553 55.631 74.3193 55.3228 74.2932 55.0155Z" fill="#263238"/>
<path d="M104.036 34.9866C104.323 37.3572 103.657 39.7447 102.185 41.6249C100.713 43.505 98.555 44.7241 96.1848 45.0144C94.6249 45.2086 93.0414 44.9869 91.5948 44.3718C90.8892 45.2954 89.9801 46.0439 88.9382 46.5591C87.8963 47.0743 86.7496 47.3423 85.5873 47.3423C84.425 47.3423 83.2783 47.0743 82.2364 46.5591C81.1945 46.0439 80.2854 45.2954 79.5798 44.3718C79.2478 44.4699 78.9082 44.5403 78.5646 44.5824C77.3888 44.726 76.1965 44.5254 75.1324 44.005C74.0682 43.4846 73.1779 42.6668 72.5692 41.6506C71.9605 40.6344 71.6596 39.4634 71.703 38.2797C71.7463 37.0959 72.1321 35.9501 72.8136 34.9812C71.4866 33.2929 70.8065 31.1861 70.8958 29.0405C70.9851 26.895 71.838 24.852 73.3007 23.2798C74.7634 21.7077 76.7397 20.7098 78.8732 20.4661C81.0067 20.2225 83.1571 20.7491 84.9366 21.951C85.7712 20.9132 86.8653 20.1143 88.1079 19.6351C89.3506 19.156 90.6977 19.0136 92.0131 19.2224C93.3284 19.4312 94.5653 19.9838 95.5984 20.8242C96.6316 21.6647 97.4244 22.7631 97.8966 24.0084C98.2121 23.9023 98.5379 23.8299 98.8686 23.7924C99.8671 23.6727 100.878 23.8602 101.768 24.3299C102.657 24.7996 103.382 25.5292 103.846 26.4214C104.31 27.3136 104.491 28.3261 104.365 29.3238C104.239 30.3215 103.811 31.2571 103.14 32.0058C103.612 32.9388 103.916 33.9479 104.036 34.9866Z" fill="white"/>
<path d="M104.036 34.9867C104.317 37.3565 103.66 39.7421 102.206 41.6341C101.718 42.2504 101.156 42.8036 100.532 43.2811C99.2678 44.2377 97.7764 44.8484 96.2045 45.0529C94.6326 45.2575 93.0345 45.0488 91.5678 44.4475H91.6542C90.9446 45.3888 90.0271 46.1534 88.9734 46.6817C87.9196 47.21 86.758 47.4877 85.5792 47.4931C84.3949 47.4973 83.2254 47.2294 82.161 46.7101C81.0971 46.1817 80.1652 45.4215 79.434 44.4853L79.6284 44.5501C78.372 44.9295 77.0289 44.9106 75.7836 44.4961C74.5326 44.0832 73.4428 43.288 72.6678 42.2227C72.2885 41.6871 71.9884 41.0997 71.7768 40.4785C71.5744 39.8537 71.467 39.202 71.4582 38.5453C71.4465 37.2217 71.8465 35.9271 72.603 34.8409V35.1433C71.2218 33.4141 70.5174 31.2412 70.6212 29.0305C70.6798 27.3838 71.1805 25.7831 72.0709 24.3966C72.9612 23.0101 74.2083 21.8888 75.6814 21.1503C77.1544 20.4119 78.7991 20.0835 80.4427 20.1997C82.0864 20.3159 83.6685 20.8724 85.023 21.8107L84.7854 21.8431C85.643 20.7875 86.7647 19.9776 88.0365 19.4958C89.3084 19.014 90.6851 18.8774 92.0268 19.0999C93.3604 19.3212 94.612 19.8906 95.655 20.7506C96.698 21.6106 97.4955 22.7307 97.9668 23.9977L97.8966 23.9599C98.9518 23.6167 100.091 23.6319 101.137 24.0031C101.905 24.278 102.594 24.7384 103.143 25.3434C103.691 25.9485 104.082 26.6794 104.28 27.4715C104.478 28.2636 104.478 29.0923 104.279 29.8842C104.08 30.6761 103.689 31.4067 103.14 32.0113C103.613 32.9422 103.916 33.9496 104.036 34.9867ZM104.036 34.9867C103.909 33.9484 103.598 32.9409 103.118 32.0113C103.852 31.2057 104.297 30.1786 104.382 29.0921C104.467 28.0057 104.188 26.9219 103.588 26.0119C102.995 25.1044 102.118 24.4194 101.094 24.0647C100.069 23.7099 98.9562 23.7053 97.929 24.0517H97.875V23.9977C97.3957 22.7717 96.6046 21.6921 95.58 20.8657C94.5549 20.0407 93.3284 19.5039 92.0268 19.3105C90.7312 19.117 89.4076 19.2659 88.1874 19.7425C86.9747 20.224 85.911 21.0176 85.104 22.0429L85.0014 22.1725L84.861 22.0753C83.1228 20.9168 81.0291 20.4147 78.9545 20.6588C76.88 20.9029 74.96 21.8773 73.5382 23.4076C72.1164 24.9379 71.2855 26.9242 71.1943 29.0111C71.1031 31.098 71.7575 33.1492 73.0404 34.7977L73.1592 34.9489L73.0458 35.1055C72.3403 36.1014 71.9628 37.2924 71.9658 38.5129C71.9744 39.1194 72.0708 39.7214 72.252 40.3003C72.4414 40.878 72.7162 41.424 73.0674 41.9203C73.782 42.9197 74.7889 43.6729 75.9495 44.0762C77.11 44.4795 78.367 44.513 79.5474 44.1721L79.6716 44.1397L79.7418 44.2369C80.429 45.1417 81.3112 45.88 82.323 46.3969C83.8635 47.1773 85.6276 47.3971 87.3125 47.0188C88.9974 46.6404 90.4981 45.6874 91.557 44.3233L91.5948 44.2747H91.6488C93.0877 44.8971 94.6656 45.1281 96.2226 44.9443C97.7888 44.7518 99.2778 44.1544 100.543 43.2109C101.166 42.7425 101.728 42.1983 102.217 41.5909C102.696 40.9695 103.097 40.2911 103.41 39.5713C104.009 38.1223 104.225 36.5433 104.036 34.9867Z" fill="#263238"/>
<path d="M88.641 35.2678C88.6297 34.6106 88.7471 33.9575 88.9866 33.3454C89.2875 32.703 89.7952 32.1801 90.4284 31.8604C90.6498 31.7254 90.9144 31.5796 91.2384 31.4122C91.5664 31.2395 91.8789 31.0389 92.1726 30.8128C92.4746 30.5832 92.7372 30.3059 92.9502 29.992C93.1634 29.6726 93.2745 29.296 93.2688 28.912C93.2743 28.6317 93.2133 28.3541 93.0906 28.102C92.9798 27.8763 92.8235 27.6759 92.6316 27.5134C92.4366 27.3508 92.2107 27.2296 91.9674 27.157C91.718 27.0759 91.4575 27.034 91.1952 27.0328C90.8951 27.0272 90.5972 27.0842 90.3204 27.2002C90.0672 27.3045 89.8292 27.4425 89.613 27.6106C89.4111 27.7795 89.2298 27.9716 89.073 28.183C88.9181 28.3734 88.7756 28.5737 88.6464 28.7824L86.7456 27.4702C86.9299 27.0317 87.1853 26.6267 87.5016 26.2714C87.8058 25.9211 88.1629 25.6205 88.56 25.3804C88.9651 25.1416 89.4012 24.9599 89.856 24.8404C90.3265 24.7163 90.8112 24.6546 91.2978 24.6568C91.8463 24.6596 92.3916 24.7396 92.9178 24.8944C93.4475 25.0525 93.9411 25.313 94.3704 25.6612C94.8126 26.0263 95.1701 26.4833 95.418 27.0004C95.6976 27.6133 95.8343 28.2817 95.8176 28.9552C95.8242 29.3713 95.7696 29.7861 95.6556 30.1864C95.5521 30.5335 95.3935 30.8617 95.1858 31.1584C94.9814 31.451 94.74 31.716 94.4676 31.9468C94.1716 32.1948 93.8575 32.4204 93.528 32.6218L92.6532 33.124C92.373 33.2799 92.1073 33.4606 91.8594 33.664C91.6201 33.8506 91.417 34.0793 91.26 34.339C91.0975 34.6209 91.0171 34.9426 91.0278 35.2678H88.641ZM88.6842 40.3546V37.3414H91.1034V40.3546H88.6842Z" fill="#FFC414"/>
<path d="M83.2356 29.6296C83.3851 30.2691 83.4035 30.9322 83.2896 31.579C83.1356 32.2667 82.7553 32.8827 82.2096 33.3286C82.0206 33.5014 81.7884 33.7012 81.5076 33.9334C81.222 34.1702 80.9564 34.4303 80.7138 34.711C80.4664 34.9971 80.2676 35.3218 80.1252 35.6722C79.9826 36.0291 79.9524 36.421 80.0388 36.7954C80.0878 37.0691 80.2027 37.3267 80.3736 37.546C80.5285 37.746 80.7235 37.9116 80.946 38.032C81.1701 38.1521 81.4163 38.2256 81.6696 38.248C81.9313 38.2718 82.1951 38.2572 82.4526 38.2048C82.7465 38.1485 83.0258 38.0327 83.2734 37.8646C83.4993 37.7118 83.7044 37.5303 83.8836 37.3246C84.0565 37.1184 84.2034 36.8917 84.321 36.6496C84.4314 36.4306 84.5288 36.2052 84.6126 35.9746L86.7402 36.871C86.6532 37.3385 86.487 37.7878 86.2488 38.1994C86.0178 38.6016 85.7264 38.9658 85.3848 39.2794C85.0382 39.5977 84.6493 39.8666 84.2292 40.0786C83.795 40.2969 83.3338 40.4567 82.8576 40.5538C82.3149 40.6692 81.758 40.7038 81.2052 40.6564C80.6547 40.6152 80.1183 40.4627 79.6284 40.2082C79.123 39.9445 78.6794 39.5764 78.327 39.1282C77.6894 38.2351 77.3751 37.1513 77.436 36.0556C77.4659 35.6966 77.5535 35.3447 77.6952 35.0134C77.8339 34.6849 78.0155 34.3762 78.2352 34.0954C78.4733 33.7908 78.7332 33.5038 79.0128 33.2368C79.2612 33.01 79.515 32.7832 79.7634 32.5672C80.0034 32.353 80.2223 32.1161 80.4168 31.8598C80.6066 31.626 80.7546 31.3611 80.8542 31.0768C80.9527 30.7673 80.9639 30.4365 80.8866 30.121L83.2356 29.6296ZM82.1556 24.6616L82.7766 27.61L80.406 28.1068L79.785 25.1584L82.1556 24.6616Z" fill="#FFC414"/>
</svg>
