<svg width="20" height="20" viewBox="0 0 20 20" fill="none" xmlns="http://www.w3.org/2000/svg">
<g clip-path="url(#clip0)">
<path d="M13.4254 1.78592H12.9613C12.6603 1.50924 12.2591 1.33994 11.8189 1.33994H11.2897C10.8961 0.550879 10.0974 0.0512695 9.20281 0.0512695C8.30824 0.0512695 7.50949 0.550879 7.1159 1.33994H6.58672C6.14652 1.33994 5.74523 1.50928 5.44422 1.78607H4.98063C3.58812 1.78607 2.45523 2.91896 2.45523 4.31146V4.81709C1.07711 4.96389 0 6.13314 0 7.54951C0 8.96588 1.07711 10.1351 2.4552 10.2819V14.376C2.4552 15.7688 3.58809 16.9019 4.98059 16.9019H9.70578C9.69512 17 9.68926 17.0996 9.68926 17.2005C9.68926 18.7158 10.9221 19.9487 12.4374 19.9487C13.9527 19.9487 15.1855 18.7159 15.1855 17.2005C15.1855 16.892 15.1336 16.5956 15.0395 16.3185C15.6139 15.8407 15.9507 15.1304 15.9507 14.3762V6.13201C15.9507 5.97021 15.8196 5.83904 15.6578 5.83904C15.496 5.83904 15.3648 5.97021 15.3648 6.13201V14.3762C15.3648 14.9032 15.1502 15.402 14.7791 15.7642C14.295 14.9779 13.4265 14.4524 12.4373 14.4524C11.2315 14.4524 10.2053 15.2334 9.83613 16.3159H4.98059C3.91117 16.3159 3.04113 15.4457 3.04113 14.376V10.2819C4.41918 10.1351 5.49629 8.96584 5.49629 7.54951C5.49629 6.13318 4.41922 4.96393 3.04113 4.81717V4.31154C3.04113 3.24213 3.91117 2.37209 4.98059 2.37209H5.03027C4.94453 2.57432 4.89707 2.79654 4.89707 3.02963C4.89707 3.96131 5.65504 4.71928 6.58672 4.71928H11.819C12.7507 4.71928 13.5086 3.96131 13.5086 3.02963C13.5086 2.79643 13.4611 2.57416 13.3753 2.37189H13.4254C14.4948 2.37189 15.3649 3.24209 15.3649 4.31174V4.96092C15.3649 5.12271 15.4961 5.25389 15.6579 5.25389C15.8196 5.25389 15.9508 5.12271 15.9508 4.96092V4.3117C15.9508 2.919 14.8179 1.78592 13.4254 1.78592ZM12.4374 15.0383C13.6296 15.0383 14.5996 16.0083 14.5996 17.2005C14.5996 18.3927 13.6296 19.3627 12.4374 19.3627C11.2452 19.3627 10.2752 18.3928 10.2752 17.2005C10.2752 16.0083 11.2452 15.0383 12.4374 15.0383ZM4.91035 7.54951C4.91035 8.74174 3.94039 9.71174 2.74812 9.71174C1.5559 9.7117 0.585938 8.74174 0.585938 7.54951C0.585938 6.35729 1.5559 5.38732 2.74812 5.38732C3.94039 5.38732 4.91035 6.35729 4.91035 7.54951ZM11.8189 4.13334H6.58672C5.97812 4.13334 5.48301 3.63822 5.48301 3.02963C5.48301 2.42104 5.97812 1.92592 6.58672 1.92592H7.30562C7.4257 1.92592 7.53363 1.85264 7.57793 1.74104C7.84406 1.07049 8.48187 0.637246 9.20281 0.637246C9.92379 0.637246 10.5616 1.07049 10.8277 1.74104C10.872 1.85264 10.98 1.92592 11.1 1.92592H11.8189C12.4275 1.92592 12.9226 2.42104 12.9226 3.02963C12.9226 3.63822 12.4275 4.13334 11.8189 4.13334Z" fill="#F47522"/>
<path d="M9.20283 1.2572C8.5808 1.2572 8.07478 1.76326 8.07478 2.38529C8.07478 3.00732 8.58084 3.51333 9.20283 3.51333C9.82482 3.51333 10.3309 3.00728 10.3309 2.38529C10.3309 1.7633 9.82486 1.2572 9.20283 1.2572ZM9.20283 2.9274C8.90389 2.9274 8.66072 2.68419 8.66072 2.38529C8.66072 2.08638 8.90392 1.84314 9.20283 1.84314C9.50174 1.84314 9.74494 2.08634 9.74494 2.38529C9.74494 2.68423 9.50178 2.9274 9.20283 2.9274Z" fill="#F47522"/>
<path d="M1.98471 6.28357C1.98471 6.44537 2.11588 6.57654 2.27768 6.57654H2.53116V8.84017C2.53116 9.00197 2.66233 9.13314 2.82412 9.13314C2.98592 9.13314 3.11709 9.00197 3.11709 8.84017V6.28357C3.11709 6.12177 2.98592 5.9906 2.82412 5.9906H2.27768C2.11588 5.9906 1.98471 6.12177 1.98471 6.28357Z" fill="#F47522"/>
<path d="M8.45942 11.8909C8.46712 11.8487 8.47825 11.7686 8.47962 11.7259C8.47962 11.2036 8.05473 10.7787 7.53247 10.7787C7.08091 10.7787 6.69005 11.1 6.60309 11.5426C6.57192 11.7013 6.67532 11.8554 6.83411 11.8865C6.99282 11.9176 7.14684 11.8143 7.17805 11.6555C7.21118 11.487 7.36024 11.3646 7.53247 11.3646C7.7263 11.3646 7.88497 11.5181 7.89333 11.7099L7.88544 11.7717C7.8536 11.8975 7.77852 12.0455 7.66216 12.2118C7.25723 12.7904 7.01559 13.1067 6.88579 13.2767C6.72497 13.4873 6.65153 13.5835 6.70145 13.7456C6.73075 13.841 6.80298 13.9141 6.8995 13.9463C6.93856 13.9594 6.9761 13.9719 7.47294 13.9719C7.66805 13.9719 7.93399 13.97 8.29868 13.9654C8.46048 13.9633 8.58997 13.8305 8.58794 13.6687C8.58591 13.5069 8.45344 13.3771 8.2913 13.3795C8.03544 13.3827 7.76399 13.3848 7.53845 13.3853C7.6802 13.1956 7.87688 12.9269 8.14219 12.5478C8.30583 12.314 8.41255 12.093 8.45942 11.8909Z" fill="#F47522"/>
<path d="M5.84305 14.1221C5.74286 14.2491 5.76461 14.4333 5.89164 14.5336C6.38059 14.9192 6.96875 15.123 7.59262 15.123C9.10809 15.123 10.3411 13.8903 10.3411 12.375C10.3411 10.8597 9.10813 9.62695 7.59262 9.62695C6.07735 9.62695 4.84457 10.8597 4.84457 12.375C4.84457 12.776 4.92922 13.1628 5.0961 13.5246C5.16383 13.6716 5.33786 13.7357 5.48485 13.668C5.63176 13.6002 5.69594 13.4262 5.62817 13.2792C5.497 12.9948 5.43047 12.6906 5.43047 12.375C5.43047 11.1828 6.40039 10.2129 7.59258 10.2129C8.78497 10.2129 9.75508 11.1828 9.75508 12.375C9.75508 13.5671 8.785 14.5371 7.59258 14.5371C7.10172 14.5371 6.63899 14.3768 6.2545 14.0734C6.12747 13.9733 5.94325 13.995 5.84305 14.1221Z" fill="#F47522"/>
<path d="M12.4524 18.2532C12.2731 18.2532 12.1194 18.1197 12.0947 17.9427C12.0923 17.926 12.0912 17.909 12.0912 17.8919C12.0912 17.7301 11.96 17.599 11.7982 17.599C11.6364 17.599 11.5052 17.7301 11.5052 17.8919C11.5052 17.9359 11.5083 17.9803 11.5143 18.0237C11.5792 18.4885 11.9824 18.8391 12.4524 18.8391C12.9746 18.8391 13.3995 18.4142 13.3995 17.892C13.3995 17.6385 13.2994 17.408 13.1367 17.2378C13.2994 17.0676 13.3995 16.8371 13.3995 16.5836C13.3995 16.0614 12.9746 15.6365 12.4524 15.6365C12.0008 15.6365 11.6099 15.9577 11.523 16.4004C11.4918 16.5591 11.5953 16.7131 11.754 16.7443C11.9128 16.7755 12.0668 16.6721 12.098 16.5133C12.131 16.3448 12.2801 16.2225 12.4524 16.2225C12.6515 16.2225 12.8136 16.3845 12.8136 16.5837C12.8136 16.7828 12.6515 16.9449 12.4524 16.9449C12.2906 16.9449 12.1594 17.076 12.1594 17.2378C12.1594 17.3996 12.2906 17.5308 12.4524 17.5308C12.6515 17.5308 12.8136 17.6928 12.8136 17.892C12.8136 18.0912 12.6515 18.2532 12.4524 18.2532Z" fill="#F47522"/>
<path d="M11.737 6.80908C11.737 6.64729 11.6058 6.51611 11.444 6.51611H6.89055C6.72875 6.51611 6.59758 6.64729 6.59758 6.80908C6.59758 6.97088 6.72875 7.10205 6.89055 7.10205H11.444C11.6058 7.10205 11.737 6.97088 11.737 6.80908Z" fill="#F47522"/>
<path d="M9.92899 8.58301C10.0908 8.58301 10.222 8.45184 10.222 8.29004C10.222 8.12824 10.0908 7.99707 9.92899 7.99707H6.89055C6.72875 7.99707 6.59758 8.12824 6.59758 8.29004C6.59758 8.45184 6.72875 8.58301 6.89055 8.58301H9.92899Z" fill="#F47522"/>
<path d="M14.8837 11.6345C14.8837 11.4727 14.7525 11.3416 14.5907 11.3416H10.9361C10.7743 11.3416 10.6431 11.4727 10.6431 11.6345C10.6431 11.7963 10.7743 11.9275 10.9361 11.9275H14.5907C14.7525 11.9275 14.8837 11.7963 14.8837 11.6345Z" fill="#F47522"/>
<path d="M10.9361 12.8225C10.7743 12.8225 10.6431 12.9537 10.6431 13.1155C10.6431 13.2773 10.7743 13.4084 10.9361 13.4084H13.0757C13.2375 13.4084 13.3687 13.2773 13.3687 13.1155C13.3687 12.9537 13.2375 12.8225 13.0757 12.8225H10.9361Z" fill="#F47522"/>
<path d="M19.707 16.1671H16.2784C16.1166 16.1671 15.9854 16.2983 15.9854 16.4601C15.9854 16.6219 16.1166 16.7531 16.2784 16.7531H19.707C19.8688 16.7531 20 16.6219 20 16.4601C20 16.2983 19.8688 16.1671 19.707 16.1671Z" fill="#F47522"/>
<path d="M18.192 17.6479H16.2784C16.1166 17.6479 15.9854 17.7791 15.9854 17.9409C15.9854 18.1027 16.1166 18.2339 16.2784 18.2339H18.192C18.3538 18.2339 18.485 18.1027 18.485 17.9409C18.485 17.7791 18.3538 17.6479 18.192 17.6479Z" fill="#F47522"/>
</g>
<defs>
<clipPath id="clip0">
<rect width="20" height="20" fill="white"/>
</clipPath>
</defs>
</svg>
